<svg xmlns="http://www.w3.org/2000/svg" width="28.342" height="23.957" viewBox="0 0 28.342 23.957">
  <g id="Group_5728" data-name="Group 5728" transform="translate(-368.001 -5069.829)">
    <g id="children" transform="translate(368.001 5069.829)">
      <path id="Path_8551" data-name="Path 8551" d="M76.013,10.349a3.456,3.456,0,0,0,2.875-1.524,1.826,1.826,0,0,0,1.177.5,5.149,5.149,0,0,0,4.678,2.964h1.267a5.149,5.149,0,0,0,4.678-2.966,1.809,1.809,0,0,0,1.154-.513,3.45,3.45,0,0,0,2.882,1.534.681.681,0,0,0,.681-.681V4.994a2.884,2.884,0,0,0-2.881-2.881h-1A1.111,1.111,0,0,0,90.5,1.437h-.2a1.109,1.109,0,0,0-.565.156A5.159,5.159,0,0,0,86.009,0H84.742a5.159,5.159,0,0,0-3.735,1.6,1.109,1.109,0,0,0-.574-.161h-.2a1.111,1.111,0,0,0-1.021.676h-1a2.885,2.885,0,0,0-2.881,2.881V9.668A.681.681,0,0,0,76.013,10.349ZM90.575,8.492a.712.712,0,0,1-.1-.008.419.419,0,0,0-.449.258,4.316,4.316,0,0,1-4.019,2.713H84.742a4.315,4.315,0,0,1-4.02-2.717.419.419,0,0,0-.389-.263.437.437,0,0,0-.075.006.591.591,0,0,1-.107.011.994.994,0,0,1-.993-.993V7.029a.6.6,0,0,1,.6-.6h.234a.42.42,0,0,0,.42-.42V5.965a4.354,4.354,0,0,1,3.406-1.655h3.122a4.354,4.354,0,0,1,3.406,1.655v.048a.42.42,0,0,0,.42.42h.1a.685.685,0,0,1,.685.685v.4A.976.976,0,0,1,90.575,8.492Zm3.99-3.5V9.5a2.614,2.614,0,0,1-2.234-1.53,1.817,1.817,0,0,0,.059-.458v-.4a1.515,1.515,0,0,0-.3-.9s0-.781-.014-.878a.42.42,0,0,0-.835.084,2.066,2.066,0,0,1,.01.207v.016c-.024-.006-.047-.013-.072-.018V5.172a5.212,5.212,0,0,0-.061-.793,1.115,1.115,0,0,0,.493-.921V2.952h.909A2.045,2.045,0,0,1,94.565,4.994ZM90.3,2.276h.2a.271.271,0,0,1,.271.27v.616a5.175,5.175,0,0,0-.482-.886ZM84.742.839h1.267A4.339,4.339,0,0,1,90.32,4.734,5.2,5.2,0,0,0,86.936,3.47H83.815a5.2,5.2,0,0,0-3.384,1.263A4.339,4.339,0,0,1,84.742.839Zm-4.51,1.437h.2l.025,0a5.164,5.164,0,0,0-.5.92V2.546A.271.271,0,0,1,80.232,2.276ZM76.171,4.994a2.044,2.044,0,0,1,2.042-2.042h.909v.506a1.11,1.11,0,0,0,.506.93,5.207,5.207,0,0,0-.059.784V5.6c-.029,0-.058.009-.086.014,0-.066,0-.132.01-.2a.42.42,0,0,0-.835-.084c-.01.1-.014.781-.014.781a1.43,1.43,0,0,0-.325.909V7.5a1.822,1.822,0,0,0,.072.507,2.62,2.62,0,0,1-2.219,1.5Zm0,0" transform="translate(-71.162)" fill="#0e34c4"/>
      <path id="Path_8552" data-name="Path 8552" d="M210.221,109.589a.624.624,0,1,1-.624-.624A.624.624,0,0,1,210.221,109.589Zm0,0" transform="translate(-197.405 -102.933)" fill="#0e34c4"/>
      <path id="Path_8553" data-name="Path 8553" d="M283.252,109.589a.624.624,0,1,1-.624-.624A.624.624,0,0,1,283.252,109.589Zm0,0" transform="translate(-266.394 -102.933)" fill="#0e34c4"/>
      <path id="Path_8554" data-name="Path 8554" d="M215.793,139.957h-3.768a.628.628,0,0,0-.624.7,2.523,2.523,0,0,0,5.015,0,.628.628,0,0,0-.624-.7Zm-1.884,2.1a1.68,1.68,0,0,1-1.631-1.264h3.262A1.68,1.68,0,0,1,213.909,142.06Zm0,0" transform="translate(-199.695 -132.21)" fill="#0e34c4"/>
      <path id="Path_8555" data-name="Path 8555" d="M270.663,216.325v-.454a5.178,5.178,0,0,0-5.172-5.172h-1.267a5.178,5.178,0,0,0-5.172,5.172v.432a1.439,1.439,0,0,0-1.251,1.425v.469a1.835,1.835,0,0,0,1.746,1.831,5.148,5.148,0,0,0,4.677,2.964h1.267a5.149,5.149,0,0,0,4.678-2.966,1.817,1.817,0,0,0,1.7-1.811v-.4A1.526,1.526,0,0,0,270.663,216.325Zm-6.439-4.787h1.267a4.339,4.339,0,0,1,4.311,3.895,5.194,5.194,0,0,0-3.384-1.264H263.3a5.194,5.194,0,0,0-3.384,1.264A4.339,4.339,0,0,1,264.224,211.538Zm6.809,6.677a.976.976,0,0,1-.975.975.708.708,0,0,1-.1-.008.419.419,0,0,0-.449.258,4.316,4.316,0,0,1-4.019,2.712h-1.267a4.315,4.315,0,0,1-4.02-2.716.419.419,0,0,0-.464-.256.589.589,0,0,1-.107.01.994.994,0,0,1-.993-.993v-.469a.6.6,0,0,1,.6-.6h.234a.42.42,0,0,0,.42-.42v-.048a4.355,4.355,0,0,1,3.406-1.655h3.121a4.355,4.355,0,0,1,3.406,1.655v.048a.42.42,0,0,0,.42.42h.1a.685.685,0,0,1,.685.685Zm0,0" transform="translate(-243.53 -199.036)" fill="#0e34c4"/>
      <path id="Path_8556" data-name="Path 8556" d="M338.737,320.292a.624.624,0,1,1-.624-.624A.624.624,0,0,1,338.737,320.292Zm0,0" transform="translate(-318.807 -301.973)" fill="#0e34c4"/>
      <path id="Path_8557" data-name="Path 8557" d="M411.768,320.292a.624.624,0,1,1-.624-.624A.624.624,0,0,1,411.768,320.292Zm0,0" transform="translate(-387.795 -301.973)" fill="#0e34c4"/>
      <path id="Path_8558" data-name="Path 8558" d="M344.308,350.656h-3.768a.628.628,0,0,0-.624.7,2.523,2.523,0,0,0,5.015,0,.628.628,0,0,0-.624-.7Zm-1.884,2.1a1.68,1.68,0,0,1-1.631-1.264h3.262A1.68,1.68,0,0,1,342.424,352.76Zm0,0" transform="translate(-321.097 -331.246)" fill="#0e34c4"/>
      <path id="Path_8559" data-name="Path 8559" d="M12.863,216.325v-.453A5.178,5.178,0,0,0,7.69,210.7H6.423a5.178,5.178,0,0,0-5.172,5.172v.433A1.439,1.439,0,0,0,0,217.729v.469a1.835,1.835,0,0,0,1.746,1.831,5.148,5.148,0,0,0,4.678,2.965H7.69a5.149,5.149,0,0,0,4.678-2.966,1.817,1.817,0,0,0,1.7-1.811v-.4A1.527,1.527,0,0,0,12.863,216.325Zm.369,1.891a.976.976,0,0,1-.975.975.708.708,0,0,1-.1-.008.419.419,0,0,0-.449.258,4.316,4.316,0,0,1-4.019,2.712H6.423a4.315,4.315,0,0,1-4.02-2.716.419.419,0,0,0-.464-.256.591.591,0,0,1-.107.01.994.994,0,0,1-.993-.993v-.469a.6.6,0,0,1,.6-.6H1.67a.42.42,0,0,0,.42-.42v-.048A4.355,4.355,0,0,1,5.5,215.009H8.618a4.364,4.364,0,0,1,.847.083.42.42,0,1,0,.163-.823,5.207,5.207,0,0,0-1.01-.1H5.5a5.2,5.2,0,0,0-3.384,1.264,4.339,4.339,0,0,1,4.311-3.895H7.69A4.339,4.339,0,0,1,12,215.431a5.217,5.217,0,0,0-.616-.46.42.42,0,1,0-.45.709,4.342,4.342,0,0,1,1.089.985v.047a.42.42,0,0,0,.42.419h.1a.686.686,0,0,1,.685.685Zm0,0" transform="translate(0 -199.036)" fill="#0e34c4"/>
      <path id="Path_8560" data-name="Path 8560" d="M80.936,320.292a.624.624,0,1,1-.624-.624A.624.624,0,0,1,80.936,320.292Zm0,0" transform="translate(-75.276 -301.973)" fill="#0e34c4"/>
      <path id="Path_8561" data-name="Path 8561" d="M153.967,320.292a.624.624,0,1,1-.624-.624A.624.624,0,0,1,153.967,320.292Zm0,0" transform="translate(-144.265 -301.973)" fill="#0e34c4"/>
      <path id="Path_8562" data-name="Path 8562" d="M86.507,350.656H82.74a.628.628,0,0,0-.624.7,2.523,2.523,0,0,0,5.015,0,.628.628,0,0,0-.624-.7Zm-1.884,2.1a1.68,1.68,0,0,1-1.631-1.264h3.262A1.68,1.68,0,0,1,84.623,352.76Zm0,0" transform="translate(-77.567 -331.246)" fill="#0e34c4"/>
    </g>
  </g>
</svg>
