<svg xmlns="http://www.w3.org/2000/svg" width="23.414" height="23.414" viewBox="0 0 23.414 23.414">
  <g id="Group_5729" data-name="Group 5729" transform="translate(-371 -5114.586)">
    <g id="teacher" transform="translate(370 5113.586)">
      <path id="Path_8499" data-name="Path 8499" d="M24.036,12.329h-.378V10A2.957,2.957,0,0,0,20.7,7.042H20.26V6.634a3.021,3.021,0,1,0-3.021,0v.409H16.8A2.957,2.957,0,0,0,13.84,10v2.331h-.755V11.2a.378.378,0,0,0-.378-.378H11.574v-.13A4.743,4.743,0,0,1,12.627,7.7a1.156,1.156,0,1,0-.548-.525,5.494,5.494,0,0,0-1.259,3.515v.13H9.686a.378.378,0,0,0-.378.378v1.133H8.931a.378.378,0,0,0-.378.378v1.511a.378.378,0,0,0,.378.378h.378v2.266A1.881,1.881,0,0,0,8.06,20.155a3.036,3.036,0,0,0-1.4,1.289,3.04,3.04,0,0,0-1.4-1.289,1.888,1.888,0,1,0-2.5,0A3.023,3.023,0,0,0,1,22.9v1.133a.378.378,0,0,0,.378.378H17.239a.378.378,0,0,0,.378-.378v-.378h5.665a.378.378,0,0,0,.378-.378V14.6h.378a.378.378,0,0,0,.378-.378V12.707A.378.378,0,0,0,24.036,12.329ZM13.085,6.287a.378.378,0,1,1-.378.378A.378.378,0,0,1,13.085,6.287ZM22.9,10v2.331h-.755V10.819h-.755v1.511H19.127V9.542l.964.482a.377.377,0,0,0,.313.011.378.378,0,0,0,.214-.229l.645-1.934A2.2,2.2,0,0,1,22.9,10ZM17.428,7.8l.748,1-.716.358L17.008,7.8Zm2.644,0h.42L20.04,9.153l-.716-.358ZM18.749,1.755a2.268,2.268,0,0,1,2.227,1.859,3.243,3.243,0,0,1-1.9-.928l-.065-.065a.388.388,0,0,0-.535,0l-.064.065a3.24,3.24,0,0,1-1.9.928,2.267,2.267,0,0,1,2.227-1.858ZM16.512,4.379a3.986,3.986,0,0,0,2.238-.969,3.987,3.987,0,0,0,2.238.969,2.266,2.266,0,0,1-4.475,0Zm2.238,2.664a3,3,0,0,0,.755-.1v.351L18.749,8.3l-.755-1.007V6.943A3,3,0,0,0,18.749,7.042ZM14.6,10a2.2,2.2,0,0,1,1.641-2.127l.645,1.934a.378.378,0,0,0,.214.229.367.367,0,0,0,.144.029.378.378,0,0,0,.169-.04l.964-.482v2.788H16.106V10.819h-.755v1.511H14.6Zm-4.532,1.576h2.266v.755H10.064ZM8.175,18.749a1.133,1.133,0,1,1,1.133,1.133A1.134,1.134,0,0,1,8.175,18.749Zm-5.287,0a1.133,1.133,0,1,1,1.133,1.133A1.134,1.134,0,0,1,2.888,18.749ZM1.755,22.9a2.266,2.266,0,0,1,4.532,0v.755H1.755Zm5.287,0a2.266,2.266,0,0,1,4.532,0v.755H7.042Zm9.819.755H12.329V22.9a2.266,2.266,0,0,1,4.532,0Zm-3.4-4.909A1.133,1.133,0,1,1,14.6,19.882,1.134,1.134,0,0,1,13.462,18.749ZM22.9,22.9H17.616a3.023,3.023,0,0,0-1.773-2.748,1.888,1.888,0,1,0-2.5,0,3.036,3.036,0,0,0-1.4,1.289,3.04,3.04,0,0,0-1.4-1.289,1.876,1.876,0,0,0-.493-3.134V14.6H22.9Zm.755-9.064H9.308v-.755H23.659Z" fill="#0e34c4"/>
      <path id="Path_8500" data-name="Path 8500" d="M2.133,9.8H8.175A1.134,1.134,0,0,0,9.308,8.665v-.6l1.4-1.4a.377.377,0,0,0,0-.534l-1.4-1.4v-.6A1.134,1.134,0,0,0,8.175,3H2.133A1.134,1.134,0,0,0,1,4.133V8.665A1.134,1.134,0,0,0,2.133,9.8ZM1.755,4.133a.378.378,0,0,1,.378-.378H8.175a.378.378,0,0,1,.378.378v.755a.376.376,0,0,0,.111.267L9.907,6.4,8.664,7.642a.376.376,0,0,0-.111.267v.755a.378.378,0,0,1-.378.378H2.133a.378.378,0,0,1-.378-.378Z" transform="translate(0 -1.245)" fill="#0e34c4"/>
      <path id="Path_8501" data-name="Path 8501" d="M5,7h5.287v.755H5Z" transform="translate(-2.489 -3.734)" fill="#0e34c4"/>
      <path id="Path_8502" data-name="Path 8502" d="M5,15h5.287v.755H5Z" transform="translate(-2.489 -8.713)" fill="#0e34c4"/>
      <path id="Path_8503" data-name="Path 8503" d="M7,11h3.776v.755H7Z" transform="translate(-3.734 -6.224)" fill="#0e34c4"/>
    </g>
  </g>
</svg>
