<svg xmlns="http://www.w3.org/2000/svg" width="16.799" height="24.534" viewBox="0 0 16.799 24.534">
  <g id="Group_5731" data-name="Group 5731" transform="translate(-374 -5201.47)">
    <g id="outline" transform="translate(286.719 5185.469)">
      <path id="Path_8563" data-name="Path 8563" d="M234.905,49.227a1.227,1.227,0,1,0-1.227,1.227A1.227,1.227,0,0,0,234.905,49.227Zm-1.636,0a.409.409,0,1,1,.409.409A.409.409,0,0,1,233.27,49.227Z" transform="translate(-137.751 -30.364)" fill="#0e34c4"/>
      <path id="Path_8564" data-name="Path 8564" d="M87.69,22.134h1.536a3.752,3.752,0,0,1,2.553.993v6.4c0,.8.031,1.62.093,2.423l.261,3.395a6.245,6.245,0,0,1-.044,1.36l-.306,2.14s0,0,0,.007,0,.016,0,.024,0,.013,0,.02,0,0,0,.007v1.227a.409.409,0,0,0,.409.409h3.68a.409.409,0,0,0,.409-.409v-.591a7.308,7.308,0,0,1,.753.237l.667.25a8.028,8.028,0,0,0,2.829.513,4.953,4.953,0,0,0,2.2-.52l.365-.182a1.8,1.8,0,0,0,.86-2.263,1.779,1.779,0,0,0-1.66-1.124h-.737a2.419,2.419,0,0,1-2.419-2.419V22.952a.409.409,0,0,0-.409-.409h-.265a1.761,1.761,0,0,1,.641-.765,1.33,1.33,0,0,0,1.829.885,1.33,1.33,0,0,0,1.863-1.354,1.33,1.33,0,0,0-.712-2.19,1.33,1.33,0,0,0-2.3,0,1.33,1.33,0,0,0-.931,1.858A2.581,2.581,0,0,0,97.6,22.543H96.337V21.481a1.638,1.638,0,0,0,1.812-1.857,1.636,1.636,0,0,0-.894-2.751,1.636,1.636,0,0,0-2.893,0,1.636,1.636,0,0,0-.894,2.751,1.634,1.634,0,0,0,2.051,1.81v1.11H94.8l-.551-.482-.444-.887a7.188,7.188,0,0,0-5.657-3.944.409.409,0,0,0-.272.747l1.08.72a6.427,6.427,0,0,1,1.732,1.713,4.58,4.58,0,0,0-1.926.393l-1.235.549a.409.409,0,0,0,.166.783Zm11.883-1.873a.51.51,0,0,1,.486-.353h0a.409.409,0,0,0,.389-.283.512.512,0,0,1,.973,0,.409.409,0,0,0,.389.283h0a.511.511,0,0,1,.3.925.409.409,0,0,0-.149.457.512.512,0,0,1-.787.572.409.409,0,0,0-.481,0,.511.511,0,0,1-.787-.572.409.409,0,0,0-.149-.457A.51.51,0,0,1,99.574,20.261Zm-4.967.256a.816.816,0,0,1-.3-.914.409.409,0,0,0-.149-.457.818.818,0,0,1,.48-1.479h0a.409.409,0,0,0,.389-.283.818.818,0,0,1,1.556,0,.409.409,0,0,0,.389.283h0a.818.818,0,0,1,.48,1.479.409.409,0,0,0-.149.457.818.818,0,0,1-1.258.914.409.409,0,0,0-.481,0A.816.816,0,0,1,94.607,20.517Zm3.715,2.844v.818H95.05a.409.409,0,0,0,0,.818h3.271v.818H92.6V25h.818a.409.409,0,0,0,0-.818H92.6v-.818ZM95.459,27.45h-.818v-.818h.818Zm-1.636,0H92.6v-.818h1.227Zm-1.136,4.434c-.06-.782-.091-1.576-.091-2.36V28.268h5.725V31.3a3.9,3.9,0,0,0-1.89,2.813.426.426,0,0,1-.58.336L92.79,33.221Zm5.634-4.434H96.277v-.818h2.044ZM95.459,39.717H92.6v-.409h1.877a7.3,7.3,0,0,1,.986.067ZM99.893,36.8a3.238,3.238,0,0,0,1.665.461h.737a.965.965,0,0,1,.9.61.975.975,0,0,1-.467,1.228l-.365.182a4.131,4.131,0,0,1-1.838.434,7.213,7.213,0,0,1-2.541-.461l-.667-.25a8.07,8.07,0,0,0-2.844-.516H92.66l.117-.818h1.493a.409.409,0,1,0,0-.818H92.893l.005-.038a7.07,7.07,0,0,0,.05-1.538l-.088-1.149L95.547,35.2a1.244,1.244,0,0,0,1.694-.979,3.081,3.081,0,0,1,1.08-1.932v1.735A3.253,3.253,0,0,0,99.893,36.8ZM91.711,20.516A7.245,7.245,0,0,0,90.3,18.724a6.365,6.365,0,0,1,2.4,2.18,4.614,4.614,0,0,0-.98-.362C91.72,20.534,91.716,20.525,91.711,20.516Zm1.4,1.644.438.384h-1.2a4.559,4.559,0,0,0-2.654-1.2A3.794,3.794,0,0,1,93.115,22.16Z" fill="#0e34c4"/>
      <circle id="Ellipse_221" data-name="Ellipse 221" cx="0.664" cy="0.664" r="0.664" transform="translate(100.211 19.988)" fill="#0e34c4"/>
      <path id="Path_8565" data-name="Path 8565" d="M248.818,424h-.409a.409.409,0,1,0,0,.818h.409a.409.409,0,1,0,0-.818Z" transform="translate(-152.504 -387.145)" fill="#0e34c4"/>
    </g>
  </g>
</svg>
