<svg xmlns="http://www.w3.org/2000/svg" width="24.527" height="24.554" viewBox="0 0 24.527 24.554">
  <g id="Group_5730" data-name="Group 5730" transform="translate(-370 -5155.447)">
    <g id="Page-1" transform="translate(369.988 5155.447)">
      <g id="_035---Creative-Thinking" data-name="035---Creative-Thinking" transform="translate(0.012 0)">
        <path id="Shape" d="M21.192,18.006a5.5,5.5,0,0,0-.01-2.087L23.056,11.4a.07.07,0,0,0,0-.009A7.685,7.685,0,0,1,24.372,9.1a.61.61,0,0,0,.151-.559l-.769-3.319a.4.4,0,0,0-.041-.1c0-.006,0-.014-.008-.019s-.018-.02-.026-.03a.412.412,0,0,0-.058-.068.38.38,0,0,0-.045-.027.416.416,0,0,0-.063-.038.4.4,0,0,0-.1-.023c-.009,0-.018-.006-.027-.007a.409.409,0,0,0-.225.05c-.006,0-.014,0-.02.008h0l-2.89,1.8a.611.611,0,0,0-.289.5,7.681,7.681,0,0,1-.688,2.551v0L18.339,12.1a5.489,5.489,0,0,0-1.462-.528,22.112,22.112,0,0,0,.212-4.024,4.466,4.466,0,0,0,1.016-3.279A7.026,7.026,0,0,0,15.6.087a.409.409,0,0,0-.649.427c.211.791.028,1.627-1.528,3.344a2.4,2.4,0,0,0-.561,2.61,3.177,3.177,0,0,0,.583.941c-.1.632-.177,1.231-.23,1.814a20.5,20.5,0,0,0-.071,2.9,5.568,5.568,0,0,0-1.019.71L10.141,4.348c0-.009-.008-.015-.011-.023a.388.388,0,0,0-.029-.079L8.075.5A.945.945,0,0,0,6.3.918L6.146,5.172a.424.424,0,0,0,.01.091v.018l2.025,8.642a4.607,4.607,0,0,0-.946.141L5.007,8.686a.827.827,0,0,0-1.068-.437L.535,9.657a.821.821,0,0,0-.443,1.069l3.021,7.287a3.272,3.272,0,0,0,.169,6.539H21.287a3.274,3.274,0,1,0-.095-6.548ZM20.775,7.413,22.49,6.343l-.607,1.467a.409.409,0,1,0,.756.313l.607-1.467.455,1.97a8.094,8.094,0,0,0-1.187,1.959,1.683,1.683,0,0,1-2.288-.946A8.084,8.084,0,0,0,20.775,7.413Zm-.941,3.213a2.493,2.493,0,0,0,1.02.743,2.6,2.6,0,0,0,1,.211,2.169,2.169,0,0,0,.248-.015L20.8,14.716a5.554,5.554,0,0,0-1.757-2.173ZM14.227,7.7l2.056.126c.013.382.008.778,0,1.179a8.6,8.6,0,0,1-2.05-.1l-.153-.02c.041-.385.091-.776.151-1.186Zm-.2-3.3a6.15,6.15,0,0,0,1.781-2.987A5.473,5.473,0,0,1,17.29,4.354a3.667,3.667,0,0,1-.828,2.665l-2.4-.147a1.707,1.707,0,0,1-.032-2.464ZM14,9.7l.119.016a11.66,11.66,0,0,0,1.593.135c.169,0,.348-.014.527-.027-.037.527-.1,1.077-.176,1.645-.1-.005-.2-.015-.3-.015a5.481,5.481,0,0,0-1.814.312A19.751,19.751,0,0,1,14,9.7ZM10.836,14.49,9.665,9.5a.409.409,0,0,0-.8.187L9.92,14.178a4.635,4.635,0,0,0-.892-.222l-1.8-7.665a1.939,1.939,0,0,0,.8.174c.026,0,.053,0,.079,0L8.4,7.7a.409.409,0,1,0,.8-.187l-.29-1.236a1.938,1.938,0,0,0,.715-.544l1.826,7.808A5.49,5.49,0,0,0,10.836,14.49Zm-2.5-8.88a1.359,1.359,0,0,1-1.366-.547l.052-1.441a2.409,2.409,0,0,0,.432.041,1.823,1.823,0,0,0,.416-.046,2.085,2.085,0,0,0,.759-.377l.689,1.272a1.357,1.357,0,0,1-.981,1.1ZM7.214.829a.128.128,0,0,1,.141.063l.877,1.623a1.4,1.4,0,0,1-.552.307,1.391,1.391,0,0,1-.631-.03L7.116.948A.127.127,0,0,1,7.214.829ZM4.253,9l.313.755-1.514.627a.409.409,0,0,0,.158.787.415.415,0,0,0,.157-.031l1.514-.627.313.756-.757.314a.409.409,0,0,0,.157.787.416.416,0,0,0,.156-.031l.757-.314.313.756L4.3,13.41a.409.409,0,0,0,.157.787.414.414,0,0,0,.156-.031l1.514-.627.331.8a4.751,4.751,0,0,0-2.65,3.225L.847,10.412ZM21.287,23.735H3.281a2.455,2.455,0,1,1,0-4.911,2.411,2.411,0,0,1,.7.1.409.409,0,0,0,.527-.384,3.888,3.888,0,0,1,6.22-3.032.409.409,0,0,0,.627-.184,4.707,4.707,0,0,1,8.906,3.038.409.409,0,0,0,.479.521,2.556,2.556,0,0,1,.546-.06,2.455,2.455,0,1,1,0,4.911Z" transform="translate(-0.012 0)" fill="#0e34c4"/>
        <path id="Shape-2" data-name="Shape" d="M38.1,11.536a.409.409,0,0,0,.327-.162,3.069,3.069,0,0,0,.544-2.41.409.409,0,1,0-.791.211,2.273,2.273,0,0,1-.406,1.7.409.409,0,0,0,.327.655Z" transform="translate(-22.272 -5.111)" fill="#0e34c4"/>
        <path id="Shape-3" data-name="Shape" d="M29.7,44.842a2.012,2.012,0,0,0-.878.2,2.455,2.455,0,0,0-4.242,2.41.409.409,0,0,0,.376.249.4.4,0,0,0,.16-.033.409.409,0,0,0,.216-.537,1.667,1.667,0,0,1-.135-.657,1.637,1.637,0,0,1,1.637-1.637,1.621,1.621,0,0,1,1.479.941.447.447,0,0,0,.029.038.416.416,0,0,0,.022.041c.007.009.018.013.026.022a.39.39,0,0,0,.063.053.4.4,0,0,0,.065.041A.4.4,0,0,0,28.59,46a.376.376,0,0,0,.077.012.5.5,0,0,0,.156-.026l.032-.008a.368.368,0,0,0,.038-.028.425.425,0,0,0,.043-.022,1.207,1.207,0,0,1,.76-.268,1.228,1.228,0,0,1,1.113.714.409.409,0,1,0,.745-.34A2.046,2.046,0,0,0,29.7,44.842Z" transform="translate(-14.408 -26.017)" fill="#0e34c4"/>
        <path id="Shape-4" data-name="Shape" d="M15.508,39.018A2.221,2.221,0,0,0,14,41.043a.409.409,0,0,0,.818,0,1.407,1.407,0,0,1,.95-1.249.41.41,0,0,0-.261-.778Z" transform="translate(-8.276 -23.037)" fill="#0e34c4"/>
        <path id="Shape-5" data-name="Shape" d="M31.31,34.443a.4.4,0,0,0,.1.012.409.409,0,0,0,.4-.31,1.745,1.745,0,0,1,1.652-1.327.409.409,0,0,0,0-.818,2.549,2.549,0,0,0-2.443,1.947A.409.409,0,0,0,31.31,34.443Z" transform="translate(-18.319 -18.905)" fill="#0e34c4"/>
      </g>
    </g>
  </g>
</svg>
