<svg xmlns="http://www.w3.org/2000/svg" width="15.241" height="26" viewBox="0 0 15.241 26">
  <g id="Group_5658" data-name="Group 5658" transform="translate(-556 -5233)">
    <g id="radio" transform="translate(460 5233)">
      <g id="Group_5517" data-name="Group 5517" transform="translate(98.69)">
        <g id="Group_5516" data-name="Group 5516" transform="translate(0)">
          <path id="Path_8797" data-name="Path 8797" d="M148.931,0A4.931,4.931,0,0,0,144,4.931v6.276a4.931,4.931,0,1,0,9.862,0V4.931A4.931,4.931,0,0,0,148.931,0Zm4.034,5.828h-2.69a.448.448,0,1,0,0,.9h2.69v.9h-2.69a.448.448,0,1,0,0,.9h2.69v.9h-2.69a.448.448,0,1,0,0,.9h2.69v.9h-2.69a.448.448,0,1,0,0,.9h2.586a4.043,4.043,0,0,1-1.689,2.456V13.448a.448.448,0,1,0-.9,0v1.558a3.976,3.976,0,0,1-.9.209V13.448a.448.448,0,1,0-.9,0v1.767a3.976,3.976,0,0,1-.9-.209V13.448a.448.448,0,1,0-.9,0v1.111A4.043,4.043,0,0,1,145,12.1h2.586a.448.448,0,1,0,0-.9H144.9v-.9h2.69a.448.448,0,1,0,0-.9H144.9v-.9h2.69a.448.448,0,1,0,0-.9H144.9v-.9h2.69a.448.448,0,1,0,0-.9H144.9v-.9h2.69a.448.448,0,1,0,0-.9H145a4.043,4.043,0,0,1,1.689-2.456V2.69a.448.448,0,1,0,.9,0V1.132a3.976,3.976,0,0,1,.9-.209V2.69a.448.448,0,1,0,.9,0V.923a3.976,3.976,0,0,1,.9.209V2.69a.448.448,0,1,0,.9,0V1.579a4.043,4.043,0,0,1,1.689,2.456h-2.586a.448.448,0,1,0,0,.9h2.69Z" transform="translate(-144)" fill="#0e34c4"/>
        </g>
      </g>
      <g id="Group_5519" data-name="Group 5519" transform="translate(96 6.276)">
        <g id="Group_5518" data-name="Group 5518" transform="translate(0)">
          <path id="Path_8798" data-name="Path 8798" d="M110.345,113.345v-.9a.448.448,0,0,0-.9,0v4.483a5.828,5.828,0,1,1-11.655,0v-4.483a.448.448,0,0,0-.9,0v.9H96v.9h.9v2.69a6.735,6.735,0,0,0,5.379,6.59v5.514h-2.241a2.244,2.244,0,0,0-2.241,2.241v.448h11.655v-.448a2.244,2.244,0,0,0-2.241-2.241h-2.241v-5.514a6.735,6.735,0,0,0,5.379-6.59v-2.69h.9v-.9Zm-7.172,10.287c.149.01.3.023.448.023s.3-.013.448-.023v5.4h-.9Zm4.034,6.3a1.347,1.347,0,0,1,1.268.9H98.766a1.347,1.347,0,0,1,1.268-.9Z" transform="translate(-96 -112)" fill="#0e34c4"/>
        </g>
      </g>
    </g>
  </g>
</svg>
