<svg xmlns="http://www.w3.org/2000/svg" width="24.898" height="24.694" viewBox="0 0 24.898 24.694">
  <path id="technology" d="M11.42,14.349a.715.715,0,1,0,.715-.715A.715.715,0,0,0,11.42,14.349Zm2.022-1.307a1.851,1.851,0,0,0-2.614,0,.4.4,0,0,1-.572-.572,2.66,2.66,0,0,1,3.758,0,.4.4,0,1,1-.572.572Zm1.521-1.521a4,4,0,0,0-5.655,0,.4.4,0,0,1-.572-.572,4.805,4.805,0,0,1,6.8,0,.4.4,0,1,1-.572.572ZM12.135,6.27a5.864,5.864,0,1,0,5.488,7.937.4.4,0,1,1,.757.286,6.677,6.677,0,1,1,.429-2.358.4.4,0,0,1-.809,0A5.871,5.871,0,0,0,12.135,6.27ZM2.664,18.342a11.323,11.323,0,0,1,0-12.417A2.375,2.375,0,0,0,5.926,2.662,11.329,11.329,0,0,1,16.8,1.811a.4.4,0,1,0,.333-.737,12.135,12.135,0,0,0-11.741.974,2.374,2.374,0,0,0-3.34,3.34,12.129,12.129,0,0,0,0,13.491,2.374,2.374,0,1,0,.614-.537ZM3.895,2.326A1.567,1.567,0,1,1,2.328,3.894,1.569,1.569,0,0,1,3.895,2.326Zm0,19.615a1.567,1.567,0,1,1,1.567-1.567A1.569,1.569,0,0,1,3.895,21.941ZM22.221,5.388a2.375,2.375,0,1,0-.614.537,11.323,11.323,0,0,1,0,12.417,2.375,2.375,0,0,0-3.263,3.263,11.327,11.327,0,0,1-11.018.784.4.4,0,1,0-.344.732,12.135,12.135,0,0,0,11.9-.9,2.374,2.374,0,0,0,3.34-3.34,12.129,12.129,0,0,0,0-13.491ZM18.808,3.894a1.567,1.567,0,1,1,1.567,1.567A1.569,1.569,0,0,1,18.808,3.894Zm1.567,18.048a1.567,1.567,0,1,1,1.567-1.567A1.569,1.569,0,0,1,20.375,21.941Z" transform="translate(0.314 0.209)" fill="#0e34c4" stroke="#0e34c4" stroke-width="0.2"/>
</svg>
