<svg xmlns="http://www.w3.org/2000/svg" width="12" height="11.11" viewBox="0 0 12 11.11"><path d="M.5,7.11h11a.5.5,0,0,1,.5.5h0a.5.5,0,0,1-.5.5H.5a.5.5,0,0,1-.5-.5H0A.5.5,0,0,1,.5,7.11Z" transform="translate(0 0)" fill="none"/><polygon points="0.5 7.61 11.5 7.61 11.5 7.61 0.5 7.61" fill="none" stroke="#0e34c4"/><path d="M.5,10.11h11a.5.5,0,0,1,.5.5h0a.5.5,0,0,1-.5.5H.5a.5.5,0,0,1-.5-.5H0A.5.5,0,0,1,.5,10.11Z" transform="translate(0 0)" fill="none"/><polygon points="0.5 10.61 11.5 10.61 11.5 10.61 0.5 10.61" fill="none" stroke="#0e34c4"/><path d="M4.31,0A1.59,1.59,0,0,0,2.72,1.59V4.78a.52.52,0,0,0,.5.55.54.54,0,0,0,.56-.51V4.24H4.84v.54a.53.53,0,0,0,1.06,0V1.59A1.59,1.59,0,0,0,4.31,0Zm.53,3.18H3.78V1.59A.52.52,0,0,1,4.28,1a.54.54,0,0,1,.56.51V3.18Z" transform="translate(0 0)" fill="#0e34c4"/><path d="M8.55,0H7.49A.53.53,0,0,0,7,.53H7V4.78a.53.53,0,0,0,.53.53H8.55a1.6,1.6,0,0,0,1.59-1.6V1.59A1.59,1.59,0,0,0,8.55,0Zm.53,3.71a.53.53,0,0,1-.53.54H8V1.06h.53a.53.53,0,0,1,.53.53h0Z" transform="translate(0 0)" fill="#0e34c4"/></svg>