<svg xmlns="http://www.w3.org/2000/svg" width="17.458" height="24.647" viewBox="0 0 17.458 24.647">
  <g id="Group_5594" data-name="Group 5594" transform="translate(-996.042 -5383.116)">
    <g id="login" transform="translate(868.042 5383.116)">
      <g id="Group_3060" data-name="Group 3060" transform="translate(128)">
        <g id="Group_3059" data-name="Group 3059" transform="translate(0)">
          <path id="Path_4751" data-name="Path 4751" d="M143.241,0a2.181,2.181,0,0,0-.233.024A.5.5,0,0,0,142.891,0H130.567A2.571,2.571,0,0,0,128,2.567V7.7a.513.513,0,1,0,1.027,0V2.567a1.542,1.542,0,0,1,1.54-1.54h9.822l-3.856,1.652a2.216,2.216,0,0,0-1.344,2.039V20.539h-4.621a2.136,2.136,0,0,1-1.519-.726l-.022-5.951a.514.514,0,0,0-.513-.511h0a.514.514,0,0,0-.511.516l.024,5.984a.964.964,0,0,0,.321.719,3.164,3.164,0,0,0,2.222,1h4.621v.864a2.218,2.218,0,0,0,3.09,2.039l5.835-2.5a2.216,2.216,0,0,0,1.344-2.039V2.217A2.22,2.22,0,0,0,143.241,0Zm1.19,19.929a1.188,1.188,0,0,1-.722,1.094l-5.835,2.5a1.162,1.162,0,0,1-.468.1,1.192,1.192,0,0,1-1.19-1.19V4.718a1.188,1.188,0,0,1,.722-1.094l5.835-2.5a1.162,1.162,0,0,1,.468-.1,1.192,1.192,0,0,1,1.19,1.19Z" transform="translate(-128)" fill="#0e34c4"/>
          <path id="Path_4752" data-name="Path 4752" d="M320.513,234.667a.514.514,0,0,0-.513.513v2.054a.513.513,0,1,0,1.027,0V235.18A.514.514,0,0,0,320.513,234.667Z" transform="translate(-310.757 -223.37)" fill="#0e34c4"/>
        </g>
      </g>
    </g>
  </g>
</svg>
