<svg xmlns="http://www.w3.org/2000/svg" width="22.185" height="22.185" viewBox="0 0 22.185 22.185">
  <g id="Group_5590" data-name="Group 5590" transform="translate(-371.207 -5470.814)">
    <g id="car" transform="translate(371.207 5470.814)">
      <g id="Group_3104" data-name="Group 3104" transform="translate(8.233 5.383)">
        <g id="Group_3103" data-name="Group 3103">
          <path id="Path_4792" data-name="Path 4792" d="M193.967,124.23H190v11.419h1.3v-3.62h2.667A3.837,3.837,0,0,0,197.8,128.2v-.134A3.837,3.837,0,0,0,193.967,124.23ZM196.5,128.2a2.536,2.536,0,0,1-2.533,2.533H191.3v-5.2h2.667a2.536,2.536,0,0,1,2.533,2.533Z" transform="translate(-190.001 -124.23)" fill="#0e34c4"/>
        </g>
      </g>
      <g id="Group_3106" data-name="Group 3106">
        <g id="Group_3105" data-name="Group 3105">
          <path id="Path_4793" data-name="Path 4793" d="M18.936,3.249A11.093,11.093,0,1,0,3.249,18.936,11.093,11.093,0,0,0,18.936,3.249Zm-.919,14.768A9.793,9.793,0,0,1,4.168,4.168,9.793,9.793,0,0,1,18.017,18.017Z" fill="#0e34c4"/>
        </g>
      </g>
    </g>
  </g>
</svg>
