<svg xmlns="http://www.w3.org/2000/svg" width="15.503" height="22.783" viewBox="0 0 15.503 22.783">
  <g id="Group_5586" data-name="Group 5586" transform="translate(-374.749 -5293.5)">
    <g id="steps" transform="translate(295.021 5293.808)">
      <path id="Path_4746" data-name="Path 4746" d="M278.433,380.284a.271.271,0,0,0-.381.229l-.173,2.548a2.108,2.108,0,0,0,1.958,2.243q.073,0,.145,0a2.105,2.105,0,0,0,2.1-1.963l.081-1.2a.271.271,0,0,0-.16-.266Zm3.106,3.026a1.563,1.563,0,1,1-3.119-.211l.146-2.161,3.041,1.36Z" transform="translate(-188.956 -363.084)" fill="#0e34c4" stroke="#0e34c4" stroke-width="0.5"/>
      <path id="Path_4747" data-name="Path 4747" d="M260.421,121.205l1.121,5.279a.271.271,0,0,0,.15.189l3.633,1.71a.271.271,0,0,0,.361-.13.267.267,0,0,0,.016-.042l1.131-4.05,0-.015a11.357,11.357,0,0,0,.148-5.043,4.208,4.208,0,0,0-1.641-2.572,2.766,2.766,0,0,0-3.068-.094,3.879,3.879,0,0,0-1.121,1.1,5,5,0,0,0-.736,3.647Zm1.165-3.335a3.369,3.369,0,0,1,.969-.969l.02-.013a2.213,2.213,0,0,1,2.467.092c1.551,1.041,2.013,3.607,1.266,7.042l-1.043,3.734-3.221-1.516-1.091-5.139a4.463,4.463,0,0,1,.633-3.231Z" transform="translate(-172.224 -110.776)" fill="#0e34c4" stroke="#0e34c4" stroke-width="0.5"/>
      <path id="Path_4748" data-name="Path 4748" d="M122.865,264.373a.271.271,0,0,0-.25-.016l-3.571,1.589a.271.271,0,0,0-.16.265l.079,1.2a2.105,2.105,0,0,0,2.1,1.967q.07,0,.141,0a2.1,2.1,0,0,0,1.962-2.239h0l-.168-2.549A.271.271,0,0,0,122.865,264.373Zm-.627,3.931a1.563,1.563,0,0,1-2.735-.927l-.067-1.012,3.044-1.354.142,2.161A1.553,1.553,0,0,1,122.238,268.3Z" transform="translate(-37.146 -252.394)" fill="#0e34c4" stroke="#0e34c4" stroke-width="0.5"/>
      <path id="Path_4749" data-name="Path 4749" d="M80.344,8.139l1.124,4.052a.271.271,0,0,0,.376.173l3.636-1.7a.271.271,0,0,0,.15-.189L86.76,5.2q0-.009,0-.017a5,5,0,0,0-.729-3.648A3.879,3.879,0,0,0,84.915.423a2.766,2.766,0,0,0-3.068.088A4.209,4.209,0,0,0,80.2,3.08a11.358,11.358,0,0,0,.139,5.043A.153.153,0,0,0,80.344,8.139Zm1.8-7.177A2.213,2.213,0,0,1,84.615.874l.019.012a3.369,3.369,0,0,1,.968.972,4.462,4.462,0,0,1,.626,3.233l-1.1,5.137L81.9,11.737,80.868,8c-.74-3.436-.274-6,1.28-7.04Z" transform="translate(0 0)" fill="#0e34c4" stroke="#0e34c4" stroke-width="0.5"/>
    </g>
  </g>
</svg>
