<svg xmlns="http://www.w3.org/2000/svg" width="23.752" height="23.752" viewBox="0 0 23.752 23.752">
  <g id="Group_5588" data-name="Group 5588" transform="translate(-370.516 -5384.184)">
    <g id="mall" transform="translate(370.516 5384.184)">
      <path id="Path_4118" data-name="Path 4118" d="M432,192h.766v.766H432Zm0,0" transform="translate(-411.313 -182.806)" fill="#0e34c4"/>
      <path id="Path_4119" data-name="Path 4119" d="M169.961,194.3h-2.3v2.3h-2.3v2.3h-2.3v2.3h-2.3v2.3H160v.766h1.532v-2.3h2.3v-2.3h2.3v-2.3h2.3v-2.3h2.3v-2.3h1.532V192h-2.3Zm0,0" transform="translate(-152.338 -182.806)" fill="#0e34c4"/>
      <path id="Path_4121" data-name="Path 4121" d="M23.752,3.831V0H0V3.831H8.428V14.742l-.816.847a.387.387,0,0,1-.276.117H6.465l.033-.522.781-.39V11.708a1.148,1.148,0,0,0-.87-1.115l-.662-.165V10.2a1.518,1.518,0,0,0,.383-1V8.428a1.532,1.532,0,1,0-3.065,0v.766a1.519,1.519,0,0,0,.383,1v.231l-.662.165a1.148,1.148,0,0,0-.87,1.115v3.087l.781.39.033.522H1.915A1.918,1.918,0,0,0,0,17.622v5.363a.767.767,0,0,0,.766.766H9.636a.771.771,0,0,0,.551-.234L21.07,12.259h2.682v-6.9h-.766V3.831ZM.766.766h22.22v2.3H.766ZM3.831,8.428a.766.766,0,1,1,1.532,0v.766a.766.766,0,0,1-1.532,0ZM2.682,14.321V11.708a.383.383,0,0,1,.29-.372l1.242-.311v-.354a1.375,1.375,0,0,0,.766,0v.354l1.242.311a.383.383,0,0,1,.29.372v2.613l-.752.376-.374,5.991H3.808L3.433,14.7ZM21.07,11.493a.769.769,0,0,0-.551.234L9.636,22.986H.766V21.453h.766v-.766H.766V17.622a1.151,1.151,0,0,1,1.149-1.149h.861l.263,4.214H2.3v.766H6.9v-.766H6.154l.263-4.214h.919a1.155,1.155,0,0,0,.828-.352l9.508-9.874a.386.386,0,0,1,.276-.117h5.038V9.194H22.22V9.96h.766v1.532Zm1.149-6.13H17.948a1.155,1.155,0,0,0-.828.352L9.194,13.947V3.831H22.22Zm0,0" fill="#0e34c4"/>
    </g>
  </g>
</svg>
