<svg xmlns="http://www.w3.org/2000/svg" width="24.382" height="24.382" viewBox="0 0 24.382 24.382">
  <g id="Group_5688" data-name="Group 5688" transform="translate(-494 -5246.618)">
    <g id="XMLID_1389_" transform="translate(494 5246.618)">
      <g id="XMLID_1333_" transform="translate(0)">
        <path id="XMLID_1334_" d="M57.215,192H50.976a.476.476,0,0,0,0,.952h6.238a.476.476,0,1,0,0-.952Z" transform="translate(-48.095 -182.857)" fill="#0e34c4"/>
        <path id="XMLID_1341_" d="M246.929,174.857a1.429,1.429,0,1,0-1.429-1.429A1.43,1.43,0,0,0,246.929,174.857Zm0-1.9a.476.476,0,1,1-.476.476A.477.477,0,0,1,246.929,172.952Z" transform="translate(-233.809 -163.809)" fill="#0e34c4"/>
        <path id="XMLID_1344_" d="M334.929,174.857a1.429,1.429,0,1,0-1.429-1.429A1.43,1.43,0,0,0,334.929,174.857Zm0-1.9a.476.476,0,1,1-.476.476A.477.477,0,0,1,334.929,172.952Z" transform="translate(-317.618 -163.809)" fill="#0e34c4"/>
        <path id="XMLID_1346_" d="M50.976,64.952h6.238a.476.476,0,1,0,0-.952H50.976a.476.476,0,0,0,0,.952Z" transform="translate(-48.095 -60.952)" fill="#0e34c4"/>
        <path id="XMLID_1350_" d="M246.929,46.857a1.429,1.429,0,1,0-1.429-1.429A1.43,1.43,0,0,0,246.929,46.857Zm0-1.9a.476.476,0,1,1-.476.476A.477.477,0,0,1,246.929,44.952Z" transform="translate(-233.809 -41.905)" fill="#0e34c4"/>
        <path id="XMLID_1353_" d="M334.929,46.857a1.429,1.429,0,1,0-1.429-1.429A1.43,1.43,0,0,0,334.929,46.857Zm0-1.9a.476.476,0,1,1-.476.476A.477.477,0,0,1,334.929,44.952Z" transform="translate(-317.618 -41.905)" fill="#0e34c4"/>
        <path id="XMLID_1355_" d="M57.215,320H50.976a.476.476,0,0,0,0,.952h6.238a.476.476,0,1,0,0-.952Z" transform="translate(-48.095 -304.761)" fill="#0e34c4"/>
        <path id="XMLID_1369_" d="M20.855,12.759c-.024-.032-.049-.063-.076-.093a1.422,1.422,0,0,0,.365-.952V7.524a1.423,1.423,0,0,0-.365-.952,1.423,1.423,0,0,0,.365-.952V1.429A1.43,1.43,0,0,0,19.715,0H1.429A1.43,1.43,0,0,0,0,1.429V5.619a1.423,1.423,0,0,0,.365.952A1.423,1.423,0,0,0,0,7.524v4.191a1.423,1.423,0,0,0,.365.952A1.423,1.423,0,0,0,0,13.62V17.81a1.43,1.43,0,0,0,1.429,1.429H12.265a6.1,6.1,0,1,0,8.589-6.48Zm2.575,5.527a5.118,5.118,0,0,1-1.1,3.176,4.567,4.567,0,0,0-1.312-1.579,4.511,4.511,0,0,0-1.138-.629,2.244,2.244,0,1,0-3.185,0,4.511,4.511,0,0,0-1.142.633,4.566,4.566,0,0,0-1.308,1.576,5.142,5.142,0,1,1,9.185-3.176ZM17,17.675a1.291,1.291,0,0,1,2.582,0h0a1.291,1.291,0,0,1-2.582,0ZM.952,1.429A.477.477,0,0,1,1.429.952H19.715a.477.477,0,0,1,.476.476V5.619a.477.477,0,0,1-.476.476H12.649a.476.476,0,0,0,0,.952h7.066a.477.477,0,0,1,.476.476v4.191a.477.477,0,0,1-.476.476H1.429a.477.477,0,0,1-.476-.476V7.524a.477.477,0,0,1,.476-.476H8.363a.476.476,0,0,0,0-.952H1.429a.477.477,0,0,1-.476-.476Zm.476,16.858a.477.477,0,0,1-.476-.476V13.62a.477.477,0,0,1,.476-.476H15.018a6.1,6.1,0,0,0-2.827,5.143ZM14.955,22.2a3.572,3.572,0,0,1,6.662,0,5.132,5.132,0,0,1-6.662,0Z" transform="translate(0)" fill="#0e34c4"/>
        <path id="XMLID_1404_" d="M211.085,128.952a.477.477,0,1,0-.337-.14A.48.48,0,0,0,211.085,128.952Z" transform="translate(-200.58 -121.905)" fill="#0e34c4"/>
      </g>
    </g>
  </g>
</svg>
