<svg xmlns="http://www.w3.org/2000/svg" width="26.545" height="23.334" viewBox="0 0 26.545 23.334">
  <g id="Group_5663" data-name="Group 5663" transform="translate(-370 -4985.74)">
    <g id="news" transform="translate(370 4985.24)">
      <path id="Path_8770" data-name="Path 8770" d="M303.814,230.441H295.95a.52.52,0,0,0,0,1.041h7.864a.52.52,0,0,0,0-1.041Zm0,0" transform="translate(-280.113 -218.02)" fill="#0e34c4"/>
      <path id="Path_8771" data-name="Path 8771" d="M303.814,346.551H295.95a.52.52,0,0,0,0,1.041h7.864a.52.52,0,0,0,0-1.041Zm0,0" transform="translate(-280.113 -328.11)" fill="#0e34c4"/>
      <path id="Path_8772" data-name="Path 8772" d="M138.708,237.5h6.02a.52.52,0,0,0,.52-.52v-6.02a.521.521,0,0,0-.52-.52h-6.02a.521.521,0,0,0-.52.52v6.02A.52.52,0,0,0,138.708,237.5Zm.52-6.02h4.979v4.979h-4.979Zm0,0" transform="translate(-131.023 -218.02)" fill="#0e34c4"/>
      <path id="Path_8773" data-name="Path 8773" d="M26.024.5H4.176a.52.52,0,0,0-.52.52v2.99H.52a.52.52,0,0,0-.52.52V21.486a2.351,2.351,0,0,0,2.348,2.348H24.2a2.351,2.351,0,0,0,2.348-2.348V1.02a.52.52,0,0,0-.52-.52ZM3.655,10.267H2.869V8.549h.786v1.718ZM1.041,21.486V5.052H3.655V7.508H2.348a.521.521,0,0,0-.52.52v2.759a.521.521,0,0,0,.52.52H3.655v1.969H2.348a.52.52,0,1,0,0,1.041H3.655v1.969H2.348a.521.521,0,0,0,0,1.041H3.655V19.3H2.348a.521.521,0,0,0,0,1.041H3.655v1.149a1.307,1.307,0,1,1-2.614,0Zm24.463,0A1.308,1.308,0,0,1,24.2,22.793H4.3a2.352,2.352,0,0,0,.4-1.307V1.541H25.5Zm0,0" fill="#0e34c4"/>
      <path id="Path_8774" data-name="Path 8774" d="M177.52,60.089h10.852a.52.52,0,0,0,.52-.52V56.81a.52.52,0,0,0-.52-.52H177.52a.521.521,0,0,0-.52.52v2.759A.521.521,0,0,0,177.52,60.089Zm.52-2.759h9.811v1.718h-9.811Zm0,0" transform="translate(-167.823 -52.897)" fill="#0e34c4"/>
      <path id="Path_8775" data-name="Path 8775" d="M138.708,171.014h2.012a.52.52,0,1,0,0-1.041h-2.012a.52.52,0,0,0,0,1.041Zm0,0" transform="translate(-131.023 -160.686)" fill="#0e34c4"/>
      <path id="Path_8776" data-name="Path 8776" d="M218.093,170.22a.52.52,0,1,0-.077.669A.523.523,0,0,0,218.093,170.22Zm0,0" transform="translate(-205.882 -160.702)" fill="#0e34c4"/>
      <path id="Path_8777" data-name="Path 8777" d="M257.1,170.493a.521.521,0,0,0,.52.52h9.851a.52.52,0,1,0,0-1.041h-9.851A.521.521,0,0,0,257.1,170.493Zm0,0" transform="translate(-243.768 -160.686)" fill="#0e34c4"/>
      <path id="Path_8778" data-name="Path 8778" d="M447.43,289.438a.52.52,0,1,0-.315-.565A.525.525,0,0,0,447.43,289.438Zm0,0" transform="translate(-423.928 -273.009)" fill="#0e34c4"/>
      <path id="Path_8779" data-name="Path 8779" d="M295.95,289.475h5.792a.521.521,0,0,0,0-1.041H295.95a.521.521,0,0,0,0,1.041Zm0,0" transform="translate(-280.113 -273.006)" fill="#0e34c4"/>
    </g>
  </g>
</svg>
