<svg xmlns="http://www.w3.org/2000/svg" width="21.545" height="21.545" viewBox="0 0 21.545 21.545">
  <g id="Group_5666" data-name="Group 5666" transform="translate(-374 -5120.322)">
    <g id="news_1_" data-name="news (1)" transform="translate(374 5120.322)">
      <g id="Group_5501" data-name="Group 5501">
        <g id="Group_5500" data-name="Group 5500">
          <path id="Path_8780" data-name="Path 8780" d="M20.775,5.386H16.928V.769A.769.769,0,0,0,16.159,0H.769A.769.769,0,0,0,0,.769v17.7a3.078,3.078,0,0,0,3.078,3.078H18.467a3.078,3.078,0,0,0,3.078-3.078V6.156A.769.769,0,0,0,20.775,5.386Zm-17.7,14.62a1.539,1.539,0,0,1-1.539-1.539V1.539h13.85V18.467a3.043,3.043,0,0,0,.056.552c.008.044.016.087.026.13a3.087,3.087,0,0,0,.159.51c0,.008.008.015.011.022a3.036,3.036,0,0,0,.162.325Zm16.928-1.539a1.539,1.539,0,1,1-3.078,0V6.925h3.078V18.467Z" fill="#0e34c4"/>
        </g>
      </g>
      <g id="Group_5503" data-name="Group 5503" transform="translate(5.386 3.847)">
        <g id="Group_5502" data-name="Group 5502">
          <path id="Path_8781" data-name="Path 8781" d="M124.852,85.333h-4.617a.769.769,0,1,0,0,1.539h4.617a.769.769,0,0,0,0-1.539Z" transform="translate(-119.466 -85.333)" fill="#0e34c4"/>
        </g>
      </g>
      <g id="Group_5505" data-name="Group 5505" transform="translate(3.078 7.695)">
        <g id="Group_5504" data-name="Group 5504">
          <path id="Path_8782" data-name="Path 8782" d="M78.269,170.667H69.035a.769.769,0,0,0,0,1.539h9.234a.769.769,0,0,0,0-1.539Z" transform="translate(-68.266 -170.667)" fill="#0e34c4"/>
        </g>
      </g>
      <g id="Group_5507" data-name="Group 5507" transform="translate(3.078 10.772)">
        <g id="Group_5506" data-name="Group 5506">
          <path id="Path_8783" data-name="Path 8783" d="M78.269,238.933H69.035a.769.769,0,0,0,0,1.539h9.234a.769.769,0,0,0,0-1.539Z" transform="translate(-68.266 -238.933)" fill="#0e34c4"/>
        </g>
      </g>
      <g id="Group_5509" data-name="Group 5509" transform="translate(3.078 13.85)">
        <g id="Group_5508" data-name="Group 5508">
          <path id="Path_8784" data-name="Path 8784" d="M78.269,307.2H69.035a.769.769,0,0,0,0,1.539h9.234a.769.769,0,0,0,0-1.539Z" transform="translate(-68.266 -307.2)" fill="#0e34c4"/>
        </g>
      </g>
      <g id="Group_5511" data-name="Group 5511" transform="translate(3.078 16.928)">
        <g id="Group_5510" data-name="Group 5510">
          <path id="Path_8785" data-name="Path 8785" d="M78.269,375.467H69.035a.769.769,0,1,0,0,1.539h9.234a.769.769,0,1,0,0-1.539Z" transform="translate(-68.266 -375.467)" fill="#0e34c4"/>
        </g>
      </g>
    </g>
  </g>
</svg>
