<svg xmlns="http://www.w3.org/2000/svg" width="18.32" height="22.959" viewBox="0 0 18.32 22.959">
  <g id="Group_5665" data-name="Group 5665" transform="translate(-375.001 -5075.04)">
    <g id="magazine_1_" data-name="magazine (1)" transform="translate(323.268 5075.04)">
      <g id="Group_5515" data-name="Group 5515" transform="translate(51.733)">
        <g id="Group_5514" data-name="Group 5514" transform="translate(0)">
          <path id="Path_8789" data-name="Path 8789" d="M166.983,208.651H156.3a.336.336,0,1,0,0,.673h10.679a.336.336,0,1,0,0-.673Z" transform="translate(-151.294 -199.295)" fill="#0e34c4"/>
          <path id="Path_8790" data-name="Path 8790" d="M166.983,258.343H156.3a.336.336,0,1,0,0,.673h10.679a.336.336,0,1,0,0-.673Z" transform="translate(-151.294 -246.758)" fill="#0e34c4"/>
          <path id="Path_8791" data-name="Path 8791" d="M166.983,308.035H156.3a.336.336,0,1,0,0,.673h10.679a.336.336,0,1,0,0-.673Z" transform="translate(-151.294 -294.222)" fill="#0e34c4"/>
          <path id="Path_8792" data-name="Path 8792" d="M280.715,357.727h-5.339a.336.336,0,0,0,0,.673h5.339a.336.336,0,1,0,0-.673Z" transform="translate(-265.025 -341.686)" fill="#0e34c4"/>
          <path id="Path_8793" data-name="Path 8793" d="M280.715,407.419h-5.339a.336.336,0,0,0,0,.673h5.339a.336.336,0,1,0,0-.673Z" transform="translate(-265.025 -389.149)" fill="#0e34c4"/>
          <path id="Path_8794" data-name="Path 8794" d="M69.716,15.921a.336.336,0,0,0,.336-.336V2.031A1.109,1.109,0,0,0,68.945.923H54.831a1.629,1.629,0,0,0-3.1.706V21.318s0,.008,0,.012h0a1.631,1.631,0,0,0,1.629,1.629H66.494A1.109,1.109,0,0,0,67.6,21.852v-.559h1.343a1.109,1.109,0,0,0,1.108-1.108V17.177a.336.336,0,0,0-.673,0v3.008a.435.435,0,0,1-.435.435H54.992V1.629c0-.011,0-.022,0-.033H68.945a.435.435,0,0,1,.435.435V15.584a.336.336,0,0,0,.336.336ZM52.406,1.629a.957.957,0,1,1,1.913,0V20.014a1.621,1.621,0,0,0-1.913,0ZM66.929,21.852a.435.435,0,0,1-.435.435H53.363a.957.957,0,1,1,.916-1.233.336.336,0,0,0,.322.239H66.929Z" transform="translate(-51.733)" fill="#0e34c4"/>
          <path id="Path_8795" data-name="Path 8795" d="M167.32,67.223a.619.619,0,0,0-.618-.618h-7.3a.336.336,0,0,0,0,.673h7.244v3.768H156.641V67.278h1.189a.336.336,0,0,0,0-.673h-1.244a.619.619,0,0,0-.618.618V71.1a.619.619,0,0,0,.618.618H166.7a.619.619,0,0,0,.618-.618Z" transform="translate(-151.294 -63.618)" fill="#0e34c4"/>
          <path id="Path_8796" data-name="Path 8796" d="M156.586,357.727a.619.619,0,0,0-.618.618v1.665a.619.619,0,0,0,.618.618h3.263a.619.619,0,0,0,.618-.618v-1.665a.619.619,0,0,0-.618-.618Zm3.208,2.228h-3.153V358.4h3.153Z" transform="translate(-151.294 -341.686)" fill="#0e34c4"/>
        </g>
      </g>
    </g>
  </g>
</svg>
