<svg xmlns="http://www.w3.org/2000/svg" width="19.569" height="20.221" viewBox="0 0 19.569 20.221">
  <g id="Group_5691" data-name="Group 5691" transform="translate(-375 -4987.779)">
    <g id="sms" transform="translate(367 4987.779)">
      <g id="Group_5487" data-name="Group 5487" transform="translate(8)">
        <g id="Group_5486" data-name="Group 5486" transform="translate(0)">
          <path id="Path_8721" data-name="Path 8721" d="M24.96,0H10.609A2.612,2.612,0,0,0,8,2.609V14.351a2.612,2.612,0,0,0,2.609,2.609v2.609a.652.652,0,0,0,.376.591.662.662,0,0,0,.277.061.655.655,0,0,0,.417-.151l3.732-3.11H24.96a2.612,2.612,0,0,0,2.609-2.609V2.609A2.612,2.612,0,0,0,24.96,0Zm1.3,14.351a1.306,1.306,0,0,1-1.3,1.3H15.175a.652.652,0,0,0-.417.151l-2.844,2.369V16.308a.653.653,0,0,0-.652-.652h-.652a1.306,1.306,0,0,1-1.3-1.3V2.609a1.306,1.306,0,0,1,1.3-1.3H24.96a1.306,1.306,0,0,1,1.3,1.3Z" transform="translate(-8)" fill="#0e34c4"/>
        </g>
      </g>
      <g id="Group_5489" data-name="Group 5489" transform="translate(10.609 5.218)">
        <g id="Group_5488" data-name="Group 5488">
          <path id="Path_8722" data-name="Path 8722" d="M73.957,130.609a.652.652,0,0,1,0-1.3h1.3a.652.652,0,1,0,0-1.3h-1.3a1.957,1.957,0,0,0,0,3.914.652.652,0,1,1,0,1.3h-1.3a.652.652,0,0,0,0,1.3h1.3a1.957,1.957,0,1,0,0-3.914Z" transform="translate(-72 -128)" fill="#0e34c4"/>
        </g>
      </g>
      <g id="Group_5491" data-name="Group 5491" transform="translate(21.046 5.218)">
        <g id="Group_5490" data-name="Group 5490">
          <path id="Path_8723" data-name="Path 8723" d="M329.957,130.609a.652.652,0,1,1,0-1.3h1.3a.652.652,0,1,0,0-1.3h-1.3a1.957,1.957,0,0,0,0,3.914.652.652,0,1,1,0,1.3h-1.3a.652.652,0,1,0,0,1.3h1.3a1.957,1.957,0,1,0,0-3.914Z" transform="translate(-328 -128)" fill="#0e34c4"/>
        </g>
      </g>
      <g id="Group_5493" data-name="Group 5493" transform="translate(15.828 5.218)">
        <g id="Group_5492" data-name="Group 5492">
          <path id="Path_8724" data-name="Path 8724" d="M203.412,128.016a.649.649,0,0,0-.733.343l-.721,1.443-.721-1.443a.652.652,0,0,0-1.235.292v5.218a.652.652,0,1,0,1.3,0v-2.455l.069.137a.68.68,0,0,0,1.168,0l.068-.137v2.455a.652.652,0,1,0,1.3,0v-5.218A.652.652,0,0,0,203.412,128.016Z" transform="translate(-200 -127.999)" fill="#0e34c4"/>
        </g>
      </g>
    </g>
  </g>
</svg>
