<svg xmlns="http://www.w3.org/2000/svg" width="24.982" height="21.821" viewBox="0 0 24.982 21.821">
  <g id="Group_5692" data-name="Group 5692" transform="translate(-372 -5027.239)">
    <g id="mail" transform="translate(372 4998.483)">
      <g id="Group_5485" data-name="Group 5485" transform="translate(0 28.756)">
        <g id="Group_5484" data-name="Group 5484" transform="translate(0 0)">
          <path id="Path_8717" data-name="Path 8717" d="M24.864,35.762l-3.618-2.555V29.474a.8.8,0,0,0-.689-.718H4.709a.8.8,0,0,0-.689.718v3.7L.258,35.762A.632.632,0,0,0,0,36.221V49.859a.833.833,0,0,0,.718.718H24.549c.316,0,.431-.373.431-.718V36.221C24.979,36.049,25.008,35.877,24.864,35.762Zm-3.618-1.177,2.469,1.694-2.469,1.866ZM5.168,29.9H20.1v9.13l-7.465,5.628L5.168,39.035V29.9ZM4.02,34.556v3.618l-2.469-1.9Zm-2.871,2.9,8.039,6.087L1.148,48.969ZM2.527,49.429l7.637-5.139L12.2,45.84a.689.689,0,0,0,.4.144c.115,0,.172-.057.287-.144L15.016,44.2l7.724,5.226Zm21.3-.66-7.867-5.283,7.867-6.029Z" transform="translate(0 -28.756)" fill="#0e34c4"/>
          <path id="Path_8718" data-name="Path 8718" d="M136.411,97.822H139a.574.574,0,0,0,0-1.148h-2.584a.574.574,0,1,0,0,1.148Z" transform="translate(-128.372 -92.941)" fill="#0e34c4"/>
          <path id="Path_8719" data-name="Path 8719" d="M136.411,144.843H145.6a.574.574,0,1,0,0-1.148h-9.188a.574.574,0,1,0,0,1.148Z" transform="translate(-128.372 -137.378)" fill="#0e34c4"/>
          <path id="Path_8720" data-name="Path 8720" d="M146.173,191.289a.574.574,0,0,0-.574-.574h-9.188a.574.574,0,1,0,0,1.148H145.6A.574.574,0,0,0,146.173,191.289Z" transform="translate(-128.372 -181.814)" fill="#0e34c4"/>
        </g>
      </g>
    </g>
  </g>
</svg>
