<svg xmlns="http://www.w3.org/2000/svg" width="26" height="26" viewBox="0 0 26 26">
  <g id="Group_5676" data-name="Group 5676" transform="translate(-370 -5072)">
    <g id="ui" transform="translate(370 5072)">
      <path id="Path_8751" data-name="Path 8751" d="M255.711,199.046a12.967,12.967,0,0,0-.228-2.428.762.762,0,0,0-.748-.619H242.762a.761.761,0,0,0-.762.762v4.57a.761.761,0,0,0,.762.762H248.9a6.821,6.821,0,0,1-1.53,2.013l4.305,4.305A12.9,12.9,0,0,0,255.711,199.046Z" transform="translate(-229.711 -186.046)" fill="#0e34c4"/>
      <path id="Path_8752" data-name="Path 8752" d="M55.395,6.094a6.787,6.787,0,0,1,4.111,1.373.761.761,0,0,0,1-.071l3.251-3.251A.762.762,0,0,0,63.7,3.023,12.935,12.935,0,0,0,44.663,5.71l4.471,4.471A6.857,6.857,0,0,1,55.395,6.094Z" transform="translate(-42.395)" fill="#0e34c4"/>
      <path id="Path_8753" data-name="Path 8753" d="M55.395,321.682a12.864,12.864,0,0,0,7.749-2.6L58.758,314.7a6.824,6.824,0,0,1-9.624-3.2l-4.471,4.471A12.947,12.947,0,0,0,55.395,321.682Z" transform="translate(-42.395 -295.682)" fill="#0e34c4"/>
      <path id="Path_8754" data-name="Path 8754" d="M6.2,147.245a5.482,5.482,0,0,1,0-2.194l-4.78-4.78a12.831,12.831,0,0,0,0,11.754Z" transform="translate(0 -133.148)" fill="#0e34c4"/>
    </g>
  </g>
</svg>
