<svg xmlns="http://www.w3.org/2000/svg" width="27" height="19" viewBox="0 0 27 19"><rect width="27" height="19" rx="2" fill="none"/><rect x="0.5" y="0.5" width="26" height="18" rx="1.5" fill="none" stroke="#0e34c4"/><path d="M7.5,14h11a.5.5,0,0,1,.5.5h0a.5.5,0,0,1-.5.5H7.5a.5.5,0,0,1-.5-.5H7A.5.5,0,0,1,7.5,14Z" fill="none"/><polygon points="7.5 14.5 18.5 14.5 18.5 14.5 7.5 14.5" fill="none" stroke="#0e34c4"/><path d="M17.57,7.71a4.25,4.25,0,0,0-.07-.8.26.26,0,0,0-.25-.2H13.3a.25.25,0,0,0-.25.25h0V8.47a.25.25,0,0,0,.25.25h2a2.35,2.35,0,0,1-.5.66l1.42,1.42A4.27,4.27,0,0,0,17.57,7.71Z" fill="#0e34c4"/><path d="M13.28,5.44a2.29,2.29,0,0,1,1.36.45.25.25,0,0,0,.33,0L16,4.8a.25.25,0,0,0,0-.36h0A4.25,4.25,0,0,0,10,5a2.42,2.42,0,0,0-.27.36l1.47,1.47A2.25,2.25,0,0,1,13.28,5.44Z" fill="#0e34c4"/><path d="M13.28,12a4.22,4.22,0,0,0,2.56-.86L14.4,9.7a2.25,2.25,0,0,1-3.07-.85,1,1,0,0,1-.11-.21L9.75,10.12A4.27,4.27,0,0,0,13.28,12Z" fill="#0e34c4"/><path d="M11.05,8.08a1.8,1.8,0,0,1,0-.73L9.47,5.78a4.2,4.2,0,0,0,0,3.87Z" fill="#0e34c4"/></svg>