<svg xmlns="http://www.w3.org/2000/svg" width="23.667" height="23.667" viewBox="0 0 23.667 23.667">
  <g id="Group_5582" data-name="Group 5582" transform="translate(-711 -5225.333)">
    <g id="bus-stop" transform="translate(711 5225.333)">
      <path id="Path_8404" data-name="Path 8404" d="M101.118,203.482a.347.347,0,0,0,.49,0l1.868-1.868a.347.347,0,1,0-.49-.49l-1.868,1.868A.347.347,0,0,0,101.118,203.482Z" transform="translate(-96.347 -191.731)" fill="#0e34c4"/>
      <path id="Path_8405" data-name="Path 8405" d="M91.016,192.447a.347.347,0,0,0,.49,0l.934-.934a.347.347,0,0,0-.49-.49l-.934.934A.347.347,0,0,0,91.016,192.447Z" transform="translate(-86.712 -182.096)" fill="#0e34c4"/>
      <path id="Path_8406" data-name="Path 8406" d="M197.329,33.363h.214v2.175a.347.347,0,0,0,.347.347h.214v.354a.347.347,0,1,0,.693,0v-.354h1.828v.354a.347.347,0,1,0,.693,0v-.354h.214a.347.347,0,0,0,.347-.347V33.363h.214a.347.347,0,0,0,0-.693h-.214v-.545a.81.81,0,0,0-.809-.809h-2.718a.81.81,0,0,0-.809.809v.545h-.214a.347.347,0,0,0,0,.693Zm3.856,1.828h-2.949v-.8h2.949Zm-2.949-3.067a.116.116,0,0,1,.116-.116h2.718a.116.116,0,0,1,.116.116V33.7h-2.949Z" transform="translate(-187.877 -29.867)" fill="#0e34c4"/>
      <path id="Path_8407" data-name="Path 8407" d="M274.417,101.912a.233.233,0,1,0-.233-.233A.234.234,0,0,0,274.417,101.912Z" transform="translate(-261.509 -96.756)" fill="#0e34c4"/>
      <path id="Path_8408" data-name="Path 8408" d="M227.949,101.912a.233.233,0,1,0-.233-.233A.234.234,0,0,0,227.949,101.912Z" transform="translate(-217.189 -96.756)" fill="#0e34c4"/>
      <path id="Path_8409" data-name="Path 8409" d="M21.919,11.071a.347.347,0,0,0,.347-.347V8.165H23.32a.347.347,0,0,0,.347-.347v-2.4a2.2,2.2,0,0,0-2.2-2.2H15.916V1.271A1.273,1.273,0,0,0,14.645,0H9.022A1.273,1.273,0,0,0,7.751,1.271V3.222H2.242A2.244,2.244,0,0,0,0,5.464V7.818a.347.347,0,0,0,.347.347H1.4v2.559a.347.347,0,1,0,.693,0V8.165h.8V22.974h-.8V12.342a.347.347,0,1,0-.693,0V22.974H.347a.347.347,0,1,0,0,.693H23.32a.347.347,0,1,0,0-.693H22.266V12.342a.347.347,0,1,0-.693,0V22.974h-.8V8.165h.8v2.559A.347.347,0,0,0,21.919,11.071Zm-.448-7.156a1.5,1.5,0,0,1,1.5,1.5V7.471H15.916V3.915ZM9.022.693h5.622a.578.578,0,0,1,.578.578v6.2H8.445v-6.2A.578.578,0,0,1,9.022.693ZM.693,5.464A1.55,1.55,0,0,1,2.242,3.915H7.751V7.471H.693Zm2.9,11.386h2.3v1.314H5.759a.81.81,0,0,0-.809.809v.943a.81.81,0,0,0,.809.809H6.07v2.248H3.588Zm3.175,5.323H16.9v.8H6.764Zm10.14-.693H6.764v-.754H16.9v.754ZM5.759,20.032a.116.116,0,0,1-.116-.116v-.943a.116.116,0,0,1,.116-.116h12.15a.116.116,0,0,1,.116.116v.943a.116.116,0,0,1-.116.116ZM17.09,18.164H6.577V14.3a.578.578,0,0,1,.578-.578h9.358a.578.578,0,0,1,.578.578Zm.507,4.81V20.725h.312a.81.81,0,0,0,.809-.809v-.943a.81.81,0,0,0-.809-.809h-.125V16.85h2.3v6.124Zm2.482-6.817h-2.3V14.3a1.273,1.273,0,0,0-1.271-1.271H7.155A1.273,1.273,0,0,0,5.883,14.3v1.858h-2.3V8.165h16.49Z" fill="#0e34c4"/>
    </g>
  </g>
</svg>
