<svg xmlns="http://www.w3.org/2000/svg" width="25.554" height="24.702" viewBox="0 0 25.554 24.702">
  <g id="Group_5671" data-name="Group 5671" transform="translate(-371 -5074.535)">
    <g id="Out_line" data-name="Out line" transform="translate(355 5058.535)">
      <path id="Path_8768" data-name="Path 8768" d="M277.962,267.926a.425.425,0,0,1-.3-.125l-1.729-1.729a1.7,1.7,0,1,1-2.307-2.307l-1.5-1.5a.426.426,0,0,1,0-.6l1.729-1.729a1.7,1.7,0,1,1,2.307-2.307l1.5-1.5a.426.426,0,0,1,.6,0l5.537,5.537a.426.426,0,0,1,0,.6l-5.537,5.537A.425.425,0,0,1,277.962,267.926Zm-2.251-3.1a.426.426,0,0,1,.3.125l1.95,1.95,4.934-4.934-4.934-4.934-1.721,1.721a.426.426,0,0,1-.727-.322.851.851,0,1,0-.859.858.426.426,0,0,1,.323.727l-1.95,1.95,1.721,1.721a.426.426,0,0,1-.322.727.851.851,0,1,0,.858.859.426.426,0,0,1,.425-.447Zm-.422.482h0Zm0,0v0Zm0,0h0Zm-.89-.893Zm0,0h0Zm0,0h0Zm.224-5.118h0Zm0,0h0Zm0,0h0Zm0,0h0Zm0,0Zm.892-.891Zm0,0Z" transform="translate(-242.371 -227.224)" fill="#0e34c4"/>
      <path id="Path_8769" data-name="Path 8769" d="M39.424,16h-23a.426.426,0,0,0-.426.426v23a.426.426,0,0,0,.426.426H30.055V39H24.518V36.543a.426.426,0,0,0-.71-.317.852.852,0,1,1,0-1.269.426.426,0,0,0,.71-.317V32.184h2.455a.426.426,0,0,0,.317-.71.852.852,0,1,1,1.269,0,.426.426,0,0,0,.317.71h1.178v-.852h-.48a1.727,1.727,0,0,0,.054-.426,1.7,1.7,0,0,0-3.407,0,1.726,1.726,0,0,0,.054.426H24.518V29.575a1.726,1.726,0,0,0,.426.054,1.7,1.7,0,1,0,0-3.407,1.726,1.726,0,0,0-.426.054V24.518h2.455a.426.426,0,0,0,.317-.71.852.852,0,1,1,1.269,0,.426.426,0,0,0,.317.71h2.455v2.455a.426.426,0,0,0,.71.317.852.852,0,0,1,1.2,1.2l.634.569a1.7,1.7,0,0,0-1.269-2.84,1.726,1.726,0,0,0-.426.054V24.518h1.757a1.727,1.727,0,0,0-.054.426,1.7,1.7,0,0,0,3.407,0,1.727,1.727,0,0,0-.054-.426H39v6.388h.852V16.426A.426.426,0,0,0,39.424,16ZM23.666,33.941a1.726,1.726,0,0,0-.426-.054,1.7,1.7,0,1,0,0,3.407,1.726,1.726,0,0,0,.426-.054V39H16.852V32.184h1.757a1.726,1.726,0,0,0-.054.426,1.7,1.7,0,0,0,3.407,0,1.726,1.726,0,0,0-.054-.426h1.757Zm1.278-6.868a.852.852,0,1,1-.567,1.486.426.426,0,0,0-.71.317v2.455H21.211a.426.426,0,0,0-.317.71.852.852,0,1,1-1.269,0,.426.426,0,0,0-.317-.71H16.852V24.518h2.455a.426.426,0,0,0,.317-.71.852.852,0,1,1,1.269,0,.426.426,0,0,0,.317.71h2.455v2.455a.426.426,0,0,0,.71.317A.849.849,0,0,1,24.944,27.073Zm-.567-6.18a.426.426,0,0,0-.71.317v2.455H21.909a1.726,1.726,0,0,0,.054-.426,1.7,1.7,0,0,0-3.407,0,1.726,1.726,0,0,0,.054.426H16.852V16.852h6.814v2.455a.426.426,0,0,0,.71.317.852.852,0,1,1,0,1.269Zm7.666,0a.426.426,0,0,0-.71.317v2.455H29.575a1.727,1.727,0,0,0,.054-.426,1.7,1.7,0,1,0-3.407,0,1.726,1.726,0,0,0,.054.426H24.518V21.909a1.726,1.726,0,0,0,.426.054,1.7,1.7,0,1,0,0-3.407,1.726,1.726,0,0,0-.426.054V16.852h6.814v2.455a.426.426,0,0,0,.71.317.852.852,0,1,1,0,1.269ZM39,23.666H36.543a.426.426,0,0,0-.317.71.852.852,0,1,1-1.269,0,.426.426,0,0,0-.317-.71H32.184V21.909a1.726,1.726,0,0,0,.426.054,1.7,1.7,0,0,0,0-3.407,1.726,1.726,0,0,0-.426.054V16.852H39Z" fill="#0e34c4"/>
    </g>
  </g>
</svg>
