<svg xmlns="http://www.w3.org/2000/svg" width="17.872" height="24.146" viewBox="0 0 17.872 24.146">
  <g id="Group_5669" data-name="Group 5669" transform="translate(-373 -4986.549)">
    <g id="site" transform="translate(373 4986.549)">
      <path id="Path_8755" data-name="Path 8755" d="M15.843,24.146H2.029A2.031,2.031,0,0,1,0,22.117V2.029A2.031,2.031,0,0,1,2.029,0H15.843a2.031,2.031,0,0,1,2.029,2.029V22.117A2.031,2.031,0,0,1,15.843,24.146ZM2.029.6A1.426,1.426,0,0,0,.6,2.029V22.117a1.426,1.426,0,0,0,1.425,1.425H15.843a1.426,1.426,0,0,0,1.425-1.425V2.029A1.426,1.426,0,0,0,15.843.6Zm0,0" fill="#0e34c4"/>
      <path id="Path_8756" data-name="Path 8756" d="M238.875,245.038h-4.748a.3.3,0,1,1,0-.6h4.748a.3.3,0,1,1,0,.6Zm0,0" transform="translate(-223.73 -233.882)" fill="#0e34c4"/>
      <path id="Path_8767" data-name="Path 8767" d="M246.2,245.038H234.565c-.409,0-.74-.135-.74-.3s.331-.3.74-.3H246.2c.409,0,.74.135.74.3S246.608,245.038,246.2,245.038Zm0,0" transform="translate(-231.493 -224.881)" fill="#0e34c4"/>
      <path id="Path_8757" data-name="Path 8757" d="M238.875,295.647h-4.748a.3.3,0,0,1,0-.6h4.748a.3.3,0,0,1,0,.6Zm0,0" transform="translate(-223.73 -282.306)" fill="#0e34c4"/>
      <path id="Path_8758" data-name="Path 8758" d="M238.875,143.819h-4.748a.3.3,0,1,1,0-.6h4.748a.3.3,0,1,1,0,.6Zm0,0" transform="translate(-223.73 -137.032)" fill="#0e34c4"/>
      <path id="Path_8766" data-name="Path 8766" d="M246.2,143.819H234.565c-.409,0-.74-.135-.74-.3s.331-.3.74-.3H246.2c.409,0,.74.135.74.3S246.608,143.819,246.2,143.819Zm0,0" transform="translate(-231.493 -128.032)" fill="#0e34c4"/>
      <path id="Path_8759" data-name="Path 8759" d="M238.875,194.429h-4.748a.3.3,0,1,1,0-.6h4.748a.3.3,0,1,1,0,.6Zm0,0" transform="translate(-223.73 -185.457)" fill="#0e34c4"/>
      <path id="Path_8765" data-name="Path 8765" d="M246.2,194.429H234.565c-.409,0-.74-.135-.74-.3s.331-.3.74-.3H246.2c.409,0,.74.135.74.3S246.608,194.429,246.2,194.429Zm0,0" transform="translate(-231.493 -176.457)" fill="#0e34c4"/>
      <path id="Path_8760" data-name="Path 8760" d="M17.57,80.335H.3a.3.3,0,0,1,0-.6H17.57a.3.3,0,0,1,0,.6Zm0,0" transform="translate(0 -76.289)" fill="#0e34c4"/>
      <path id="Path_8761" data-name="Path 8761" d="M80.069,27.1a.94.94,0,1,1,.94-.94A.941.941,0,0,1,80.069,27.1Zm0-1.276a.336.336,0,1,0,.336.336A.336.336,0,0,0,80.069,25.823Zm0,0" transform="translate(-75.713 -24.13)" fill="#0e34c4"/>
      <path id="Path_8762" data-name="Path 8762" d="M29.636,27.1a.94.94,0,1,1,.94-.94A.941.941,0,0,1,29.636,27.1Zm0-1.276a.336.336,0,1,0,.336.336A.336.336,0,0,0,29.636,25.823Zm0,0" transform="translate(-27.457 -24.13)" fill="#0e34c4"/>
      <path id="Path_8763" data-name="Path 8763" d="M130.507,27.1a.94.94,0,1,1,.94-.94A.941.941,0,0,1,130.507,27.1Zm0-1.276a.336.336,0,1,0,.336.336A.336.336,0,0,0,130.507,25.823Zm0,0" transform="translate(-123.973 -24.13)" fill="#0e34c4"/>
      <path id="Path_8764" data-name="Path 8764" d="M59.785,150.374H54.3a.3.3,0,0,1-.3-.3v-6.554a.3.3,0,0,1,.3-.3h5.482a.3.3,0,0,1,.3.3v6.554A.3.3,0,0,1,59.785,150.374Zm-5.18-.6h4.878v-5.95H54.6Zm0,0" transform="translate(-51.669 -137.032)" fill="#0e34c4"/>
    </g>
  </g>
</svg>
