<svg xmlns="http://www.w3.org/2000/svg" width="23.522" height="20.756" viewBox="0 0 23.522 20.756">
  <g id="Group_5670" data-name="Group 5670" transform="translate(-371 -5029.549)">
    <g id="site" transform="translate(371 5029.549)">
      <path id="Path_8755" data-name="Path 8755" d="M20.852,20.756H2.67A2.674,2.674,0,0,1,0,18.085V2.67A2.674,2.674,0,0,1,2.67,0H20.852a2.674,2.674,0,0,1,2.67,2.67V18.085A2.674,2.674,0,0,1,20.852,20.756ZM2.67.8A1.877,1.877,0,0,0,.8,2.67V18.085A1.877,1.877,0,0,0,2.67,19.96H20.852a1.877,1.877,0,0,0,1.875-1.875V2.67A1.877,1.877,0,0,0,20.852.8Zm0,0" fill="#0e34c4"/>
      <path id="Path_8756" data-name="Path 8756" d="M240.472,245.229h-6.25a.4.4,0,1,1,0-.8h6.25a.4.4,0,1,1,0,.8Zm0,0" transform="translate(-220.539 -230.545)" fill="#0e34c4"/>
      <path id="Path_8757" data-name="Path 8757" d="M240.472,295.838h-6.25a.4.4,0,1,1,0-.8h6.25a.4.4,0,1,1,0,.8Zm0,0" transform="translate(-220.539 -278.279)" fill="#0e34c4"/>
      <path id="Path_8758" data-name="Path 8758" d="M240.472,144.01h-6.25a.4.4,0,1,1,0-.8h6.25a.4.4,0,1,1,0,.8Zm0,0" transform="translate(-220.539 -135.078)" fill="#0e34c4"/>
      <path id="Path_8759" data-name="Path 8759" d="M240.472,194.62h-6.25a.4.4,0,1,1,0-.8h6.25a.4.4,0,1,1,0,.8Zm0,0" transform="translate(-220.539 -182.812)" fill="#0e34c4"/>
      <path id="Path_8760" data-name="Path 8760" d="M23.125,80.526H.4a.4.4,0,1,1,0-.8H23.125a.4.4,0,1,1,0,.8Zm0,0" transform="translate(0 -75.2)" fill="#0e34c4"/>
      <path id="Path_8761" data-name="Path 8761" d="M80.367,27.694A1.238,1.238,0,1,1,81.6,26.456,1.239,1.239,0,0,1,80.367,27.694Zm0-1.68a.442.442,0,1,0,.442.442A.443.443,0,0,0,80.367,26.014Zm0,0" transform="translate(-74.633 -23.786)" fill="#0e34c4"/>
      <path id="Path_8762" data-name="Path 8762" d="M29.933,27.694a1.238,1.238,0,1,1,1.238-1.238A1.239,1.239,0,0,1,29.933,27.694Zm0-1.68a.442.442,0,1,0,.442.442A.443.443,0,0,0,29.933,26.014Zm0,0" transform="translate(-27.065 -23.786)" fill="#0e34c4"/>
      <path id="Path_8763" data-name="Path 8763" d="M130.8,27.694a1.238,1.238,0,1,1,1.238-1.238A1.239,1.239,0,0,1,130.8,27.694Zm0-1.68a.442.442,0,1,0,.442.442A.443.443,0,0,0,130.8,26.014Zm0,0" transform="translate(-122.205 -23.786)" fill="#0e34c4"/>
      <path id="Path_8764" data-name="Path 8764" d="M61.614,152.637H54.4a.4.4,0,0,1-.4-.4v-8.627a.4.4,0,0,1,.4-.4h7.216a.4.4,0,0,1,.4.4v8.627A.4.4,0,0,1,61.614,152.637Zm-6.818-.8h6.42V144.01H54.8Zm0,0" transform="translate(-50.932 -135.078)" fill="#0e34c4"/>
    </g>
  </g>
</svg>
