<svg xmlns="http://www.w3.org/2000/svg" width="20.5" height="20.808" viewBox="0 0 20.5 20.808">
  <g id="Group_5672" data-name="Group 5672" transform="translate(-375 -5117.192)">
    <path id="search" d="M18.458,18.921a1.735,1.735,0,0,1-1.727,1.886H5.282a1.735,1.735,0,0,1-1.727-1.886L4.61,6.957A1.725,1.725,0,0,1,6.337,5.375H7.408V3.6a3.6,3.6,0,0,1,7.2,0V5.375h1.071A1.725,1.725,0,0,1,17.4,6.957l.025.283a.347.347,0,1,1-.691.061l-.025-.283a1.035,1.035,0,0,0-1.036-.949H14.6V7.63a.347.347,0,1,1-.694,0V6.069H9.359a.347.347,0,1,1,0-.694H13.91V3.6A2.9,2.9,0,1,0,8.1,3.6V7.63a.347.347,0,0,1-.694,0V6.069H6.337A1.035,1.035,0,0,0,5.3,7.018L4.245,18.982a1.039,1.039,0,0,0,1.036,1.132H16.73a1.039,1.039,0,0,0,1.036-1.132l-.054-.613a.347.347,0,0,1,.691-.061Zm-9.446-1.1H6.5a.347.347,0,0,0,0,.694H9.012a.347.347,0,1,0,0-.694Zm0-1.734H6.5a.347.347,0,0,0,0,.694H9.012a.347.347,0,1,0,0-.694Zm6.247-5.419a2.64,2.64,0,0,0-1.032,1.176.347.347,0,0,0,.633.283,1.949,1.949,0,0,1,.762-.868.347.347,0,1,0-.363-.591Zm7.575,9.659a1.21,1.21,0,0,1-.858-.355l-3.091-3.091a4.566,4.566,0,1,1,.585-.4l3,3a.52.52,0,1,0,.736-.736l-2.1-2.1a.347.347,0,0,1,.49-.49l2.1,2.1a1.215,1.215,0,0,1-.858,2.071Zm-6.192-3.547a3.858,3.858,0,1,0-3.858-3.858A3.862,3.862,0,0,0,16.642,16.776Z" transform="translate(371.452 5117.192)" fill="#0e34c4"/>
  </g>
</svg>
