<svg xmlns="http://www.w3.org/2000/svg" width="20" height="20" viewBox="0 0 20 20">
  <g id="Group_5711" data-name="Group 5711" transform="translate(-1009 -5256)">
    <g id="question-mark" transform="translate(1009 5256)">
      <g id="Group_5385" data-name="Group 5385" transform="translate(12.917 9.583)">
        <path id="Path_8599" data-name="Path 8599" d="M18,16.5A2.5,2.5,0,1,1,20.5,14,2.5,2.5,0,0,1,18,16.5Zm0-4.167A1.667,1.667,0,1,0,19.667,14,1.668,1.668,0,0,0,18,12.333Z" transform="translate(-15.5 -11.5)" fill="#0e34c4"/>
      </g>
      <g id="Group_5386" data-name="Group 5386" transform="translate(10.833 15.833)">
        <path id="Path_8600" data-name="Path 8600" d="M21.75,23.167a.417.417,0,0,1-.417-.417V21.083a1.252,1.252,0,0,0-1.25-1.25h-5a1.252,1.252,0,0,0-1.25,1.25V22.75a.417.417,0,1,1-.833,0V21.083A2.085,2.085,0,0,1,15.083,19h5a2.085,2.085,0,0,1,2.083,2.083V22.75A.417.417,0,0,1,21.75,23.167Z" transform="translate(-13 -19)" fill="#0e34c4"/>
      </g>
      <g id="Group_5387" data-name="Group 5387" transform="translate(0)">
        <path id="Path_8601" data-name="Path 8601" d="M9.583,13.333a.416.416,0,0,1-.282-.111L6.713,10.833H2.083A2.085,2.085,0,0,1,0,8.75V2.083A2.085,2.085,0,0,1,2.083,0h8.333A2.085,2.085,0,0,1,12.5,2.083V8.75a2.085,2.085,0,0,1-2.083,2.083H10v2.083a.417.417,0,0,1-.417.417ZM2.083.833a1.252,1.252,0,0,0-1.25,1.25V8.75A1.252,1.252,0,0,0,2.083,10H6.875a.413.413,0,0,1,.282.111l2.009,1.854V10.417A.417.417,0,0,1,9.583,10h.833a1.252,1.252,0,0,0,1.25-1.25V2.083a1.252,1.252,0,0,0-1.25-1.25Z" transform="translate(0)" fill="#0e34c4"/>
      </g>
      <g id="Group_5388" data-name="Group 5388" transform="translate(4.167 1.667)">
        <path id="Path_8602" data-name="Path 8602" d="M7.083,7.833a.417.417,0,0,1-.417-.417V7.2a2.637,2.637,0,0,1,1.155-2.1A1.25,1.25,0,1,0,5.833,4.083a.417.417,0,0,1-.833,0A2.083,2.083,0,1,1,8.315,5.765,1.828,1.828,0,0,0,7.5,7.2v.219a.417.417,0,0,1-.417.417Z" transform="translate(-5 -2)" fill="#0e34c4"/>
      </g>
      <g id="Group_5389" data-name="Group 5389" transform="translate(1.667 12.5)">
        <path id="Path_8603" data-name="Path 8603" d="M3.667,18.333a1.667,1.667,0,1,1,1.667-1.667A1.668,1.668,0,0,1,3.667,18.333Zm0-2.5a.833.833,0,1,0,.833.833A.834.834,0,0,0,3.667,15.833Z" transform="translate(-2 -15)" fill="#0e34c4"/>
      </g>
      <g id="Group_5390" data-name="Group 5390" transform="translate(0 16.667)">
        <path id="Path_8604" data-name="Path 8604" d="M6.25,23.333a.417.417,0,0,1-.417-.417v-.833a1.252,1.252,0,0,0-1.25-1.25h-2.5a1.252,1.252,0,0,0-1.25,1.25v.833a.417.417,0,1,1-.833,0v-.833A2.085,2.085,0,0,1,2.083,20h2.5a2.085,2.085,0,0,1,2.083,2.083v.833A.417.417,0,0,1,6.25,23.333Z" transform="translate(0 -20)" fill="#0e34c4"/>
      </g>
      <circle id="Ellipse_225" data-name="Ellipse 225" cx="0.41" cy="0.41" r="0.41" transform="translate(5.84 8.343)" fill="#0e34c4"/>
    </g>
  </g>
</svg>
