<svg xmlns="http://www.w3.org/2000/svg" width="17.997" height="24.033" viewBox="0 0 17.997 24.033">
  <g id="Group_5713" data-name="Group 5713" transform="translate(-1008 -5343.967)">
    <g id="surface1" transform="translate(1008 5343.967)">
      <path id="Path_8590" data-name="Path 8590" d="M17.351,240.677a2.212,2.212,0,0,0-3.129,0l-1.6,1.6a3.624,3.624,0,0,0-7.247,0l-1.6-1.6a2.212,2.212,0,0,0-3.129,3.129l4.631,4.631v2.36a.7.7,0,0,0,.7.7h6.033a.7.7,0,0,0,.7-.7v-2.36l4.631-4.631A2.215,2.215,0,0,0,17.351,240.677ZM9,240.08A2.216,2.216,0,1,1,6.783,242.3,2.218,2.218,0,0,1,9,240.08Zm7.356,2.73-4.837,4.837a.7.7,0,0,0-.206.5v1.948H6.687v-1.948a.7.7,0,0,0-.206-.5L1.643,242.81a.8.8,0,0,1,1.138-1.137l4.04,4.041a.7.7,0,0,0,.5.206H10.68a.7.7,0,0,0,.5-.206l4.04-4.041a.8.8,0,0,1,1.137,1.137Zm0,0" transform="translate(0 -227.469)" fill="#0e34c4"/>
      <path id="Path_8591" data-name="Path 8591" d="M78.6,6.672,78.1,9.551a.7.7,0,0,0,1.022.742L81.71,8.934,84.3,10.293a.7.7,0,0,0,.327.081h0a.705.705,0,0,0,.686-.862l-.487-2.841,2.092-2.039a.7.7,0,0,0-.39-1.2l-2.891-.42L82.341.392a.7.7,0,0,0-1.263,0L79.786,3.012l-2.891.42a.7.7,0,0,0-.39,1.2Zm1.758-2.32a.7.7,0,0,0,.53-.385L81.71,2.3l.825,1.672a.7.7,0,0,0,.53.385l1.845.268-1.335,1.3a.7.7,0,0,0-.2.623l.315,1.838-1.65-.868a.7.7,0,0,0-.655,0l-1.65.868.315-1.838a.7.7,0,0,0-.2-.623l-1.335-1.3Zm0,0" transform="translate(-72.711)" fill="#0e34c4"/>
    </g>
  </g>
</svg>
