<svg xmlns="http://www.w3.org/2000/svg" width="28.452" height="25.538" viewBox="0 0 28.452 25.538">
  <g id="Group_5705" data-name="Group 5705" transform="translate(-368 -5256.014)">
    <g id="dragon" transform="translate(367.998 5229.791)">
      <g id="Group_5412" data-name="Group 5412" transform="translate(21.435 31.77)">
        <g id="Group_5411" data-name="Group 5411" transform="translate(0 0)">
          <path id="Path_8649" data-name="Path 8649" d="M386.687,127.287l-.094-.846a.454.454,0,1,0-.9.1l.094.846a.454.454,0,0,0,.451.4l.051,0A.454.454,0,0,0,386.687,127.287Z" transform="translate(-385.688 -126.038)" fill="#0e34c4"/>
        </g>
      </g>
      <g id="Group_5414" data-name="Group 5414" transform="translate(23.046 31.77)">
        <g id="Group_5413" data-name="Group 5413" transform="translate(0 0)">
          <path id="Path_8650" data-name="Path 8650" d="M415.689,127.287l-.094-.846a.454.454,0,0,0-.9.1l.094.846a.454.454,0,0,0,.451.4l.051,0A.454.454,0,0,0,415.689,127.287Z" transform="translate(-414.69 -126.038)" fill="#0e34c4"/>
        </g>
      </g>
      <g id="Group_5416" data-name="Group 5416" transform="translate(16.828 38.632)">
        <g id="Group_5415" data-name="Group 5415" transform="translate(0 0)">
          <path id="Path_8651" data-name="Path 8651" d="M306.966,249.884a1.049,1.049,0,0,0-.8-.355A8.447,8.447,0,0,0,303,250.921a.454.454,0,0,0,.5.755,7.63,7.63,0,0,1,2.662-1.24.147.147,0,0,1,.127.052,1.907,1.907,0,0,1,.174,1.136.454.454,0,0,0,.4.5l.051,0a.454.454,0,0,0,.451-.4A2.655,2.655,0,0,0,306.966,249.884Z" transform="translate(-302.795 -249.529)" fill="#0e34c4"/>
        </g>
      </g>
      <g id="Group_5418" data-name="Group 5418" transform="translate(24.635 35.251)">
        <g id="Group_5417" data-name="Group 5417">
          <path id="Path_8652" data-name="Path 8652" d="M443.437,188.784a.454.454,0,1,0,.74.434A.458.458,0,0,0,443.437,188.784Z" transform="translate(-443.283 -188.678)" fill="#0e34c4"/>
        </g>
      </g>
      <g id="Group_5420" data-name="Group 5420" transform="translate(0.002 26.223)">
        <g id="Group_5419" data-name="Group 5419" transform="translate(0 0)">
          <path id="Path_8653" data-name="Path 8653" d="M23.947,30.623c-.253-.834-1.491-4.4-4.15-4.4a.454.454,0,0,0-.314.782,5.672,5.672,0,0,1,1.5,2.743c-.44-.079-.886-.138-1.335-.177-.918-1.822-2.123-2.784-3.5-2.784a.454.454,0,0,0-.314.781,6.1,6.1,0,0,1,1.333,2.091A2.916,2.916,0,0,0,16.1,30.2a12.31,12.31,0,0,0-1.818-3.328.454.454,0,0,0-.815.31c0,.025.172,2.357-1.072,3.37a11.108,11.108,0,0,0-5.768-2.275.454.454,0,0,0-.339.8c.022.018,2.188,1.807,1.6,3.573a.454.454,0,0,0,.258.563,2.976,2.976,0,0,1,1.7,2.719.454.454,0,0,0,.364.445,6.781,6.781,0,0,1,3.458,2.1c-.85.228-1.451-.19-2.492-.991a10.744,10.744,0,0,0-3.968-2.128c-1.767-.478-3.569.181-5.211,1.9A12.422,12.422,0,0,0,.049,40.008a.454.454,0,0,0,.622.6c2.753-1.484,4.381-.853,5.366-.25a.454.454,0,1,0,.475-.774A5.412,5.412,0,0,0,1.6,39.2a10.909,10.909,0,0,1,1.05-1.3c1.418-1.488,2.871-2.044,4.317-1.653a9.833,9.833,0,0,1,3.652,1.971c1.064.819,2,1.535,3.361,1.125a2.96,2.96,0,0,1-1.089.844.454.454,0,1,0,.385.822,4.015,4.015,0,0,0,2.235-3.151c.045-.31.144-1.677.151-2.317q0-.2,0-.4a7.571,7.571,0,0,1,.616-3.8,1.894,1.894,0,0,1,1.091-.8,3.029,3.029,0,0,1-.064,1.007.454.454,0,1,0,.883.212,4.044,4.044,0,0,0,0-1.861,5.793,5.793,0,0,0-.739-1.743,5.277,5.277,0,0,1,1.5,2.035,9.392,9.392,0,0,1,.528,1.392.454.454,0,0,0,.877-.234c-.005-.02-.095-.351-.277-.826.444.055.884.13,1.315.226a12.55,12.55,0,0,1,1.981.612c2.169.876,3.646,2.221,4.058,3.638a.454.454,0,1,0-.182.869.454.454,0,0,0,.3-.113c0,.015,0,.03,0,.045a1.561,1.561,0,0,1-.605,1.335c-.806.6-2.345.611-4.223.038h0a17.2,17.2,0,0,1-4.131-1.966.454.454,0,1,0-.488.765,18.407,18.407,0,0,0,4.117,1.994,14.532,14.532,0,0,1,.606,4.174.454.454,0,0,0,.443.465h.011a.454.454,0,0,0,.454-.443,12.126,12.126,0,0,0-.062-1.5,1.559,1.559,0,0,1,.449-.09.147.147,0,0,1,.127.052,1.907,1.907,0,0,1,.174,1.136.454.454,0,0,0,.4.5l.051,0a.454.454,0,0,0,.451-.4,2.655,2.655,0,0,0-.4-1.842,1.049,1.049,0,0,0-.8-.355,2.207,2.207,0,0,0-.57.088q-.119-.728-.314-1.5c1.832.431,3.323.3,4.25-.387a2.454,2.454,0,0,0,.973-2.064C28.454,33.786,26.734,31.816,23.947,30.623ZM8.881,32.371A4.151,4.151,0,0,0,7.855,29.4a9.566,9.566,0,0,1,4.222,2.06,9.035,9.035,0,0,1,2.5,3.6,9.6,9.6,0,0,0-3.746-2.286A9.084,9.084,0,0,0,8.881,32.371ZM14.594,37.5q-.005.018-.009.036a1.927,1.927,0,0,1-.166.436,7.6,7.6,0,0,0-3.681-2.391,3.741,3.741,0,0,0-.84-2.119c.213.051.442.115.682.195A8.64,8.64,0,0,1,14.722,36.6,5.375,5.375,0,0,1,14.594,37.5Zm.215-4.07a9.813,9.813,0,0,0-1.724-2.27,4.33,4.33,0,0,0,1.231-2.625,10.384,10.384,0,0,1,1.1,2.492A5.721,5.721,0,0,0,14.81,33.431Zm7.118-3.482a5.409,5.409,0,0,0-.836-2.355A4.676,4.676,0,0,1,22.262,29a8.983,8.983,0,0,1,.577,1.2Q22.392,30.064,21.927,29.949Z" transform="translate(-0.002 -26.223)" fill="#0e34c4"/>
        </g>
      </g>
      <g id="Group_5422" data-name="Group 5422" transform="translate(6.85 40.293)">
        <g id="Group_5421" data-name="Group 5421" transform="translate(0 0)">
          <path id="Path_8654" data-name="Path 8654" d="M139.568,282.418a.454.454,0,0,0-.541.346,4.7,4.7,0,0,1-2.891,3.522,10.5,10.5,0,0,1-.993.36l-.153-.376c.182-.611.665-2.673-.632-3.969-.659-.66-1.871-1.211-3.895-.094a10.033,10.033,0,0,0-2.011,1.5.454.454,0,1,0,.642.642A9.2,9.2,0,0,1,130.9,283c1.229-.678,2.175-.7,2.814-.059,1.094,1.094.371,3.172.364,3.192a.454.454,0,0,0,.007.325l.876,2.15a1.037,1.037,0,0,1-1.18-.463l-.572-.953-.012-.019-.841-1.4a.454.454,0,1,0-.779.467l.371.619a5.732,5.732,0,0,1-2.154-.988,11.382,11.382,0,0,1-1.916-1.81c-.465-.533-.92-1.109-1.359-1.665a22.465,22.465,0,0,0-2.538-2.871.454.454,0,0,0-.6.678,21.479,21.479,0,0,1,2.429,2.755c.388.491.788,1,1.2,1.48l-1.277,2.935-.976.122-.5-.716a.454.454,0,1,0-.744.521l.658.94a.454.454,0,0,0,.372.194.462.462,0,0,0,.056,0l1.284-.16.368.368-.252.252-.836-.067a.454.454,0,0,0-.072.9l1.045.083h.036a.454.454,0,0,0,.321-.133l.711-.711,2.371-2.154a6.294,6.294,0,0,0,2.982,1.048l.449.749a1.948,1.948,0,0,0,2.383.811l.807,1.247a.454.454,0,0,0,.762-.493l-.71-1.1.849-.268.3.594A.454.454,0,1,0,138.2,289l-.47-.94a.454.454,0,0,0-.543-.23l-1.387.438-.317-.778c.326-.1.661-.225,1-.366a5.561,5.561,0,0,0,3.427-4.165A.454.454,0,0,0,139.568,282.418Zm-12.66,5.593-.322-.322,1.089-2.5a12.082,12.082,0,0,0,1.151,1.084Z" transform="translate(-123.229 -279.41)" fill="#0e34c4"/>
        </g>
      </g>
    </g>
  </g>
</svg>
