<svg xmlns="http://www.w3.org/2000/svg" width="20.906" height="23.584" viewBox="0 0 20.906 23.584">
  <g id="Group_5708" data-name="Group 5708" transform="translate(-371.982 -5387.277)">
    <g id="catalog" transform="translate(371.971 5387.277)">
      <path id="Path_8673" data-name="Path 8673" d="M18.5,40.995H3.851a.408.408,0,0,0-.412.4l-.1,16.434H.426a.406.406,0,0,0-.414.4V59.1A3.318,3.318,0,0,0,3.1,62.465v0H15.459v-.006c.1,0,.139.007.206.007A3.314,3.314,0,0,0,18.909,59.1V41.388a.391.391,0,0,0-.406-.393ZM3.251,61.643A2.485,2.485,0,0,1,.836,59.1v-.443H12.421V59.1a3.433,3.433,0,0,0,1.139,2.544ZM18.086,59.1a2.423,2.423,0,1,1-4.84,0v-.864a.388.388,0,0,0-.393-.4H4.166l.1-16.014H18.086Zm0,0" transform="translate(0 -38.884)" fill="#0e34c4"/>
      <path id="Path_8674" data-name="Path 8674" d="M107.779,295.824h5.55a.412.412,0,0,0,0-.824h-5.55a.412.412,0,0,0,0,.824Zm0,0" transform="translate(-101.827 -279.81)" fill="#0e34c4"/>
      <path id="Path_8675" data-name="Path 8675" d="M107.779,329.824h9.551a.412.412,0,1,0,0-.824h-9.551a.412.412,0,0,0,0,.824Zm0,0" transform="translate(-101.827 -312.059)" fill="#0e34c4"/>
      <path id="Path_8676" data-name="Path 8676" d="M120.49,0H105.838a.412.412,0,0,0,0,.824H120.08v17.3a.412.412,0,1,0,.824,0V.411A.413.413,0,0,0,120.49,0Zm0,0" transform="translate(-99.986 0)" fill="#0e34c4"/>
      <path id="Path_8677" data-name="Path 8677" d="M116.413,80.789h.669v4.729a.4.4,0,0,0,.4.409l7.157.063h0a.422.422,0,0,0,.3-.116.41.41,0,0,0,.128-.289v-4.8h.721a.418.418,0,0,0,.27-.732l-4.68-4.064a.412.412,0,0,0-.54,0l-4.692,4.063a.419.419,0,0,0,.27.734Zm5.458,4.358-1.545-.014V83.364h1.545Zm2.369.022-1.545-.014v-2.22a.384.384,0,0,0-.4-.4h-2.364a.417.417,0,0,0-.433.4v2.19l-1.6-.015V80.789h6.334Zm-3.135-8.31,3.578,3.106h-7.164Zm0,0" transform="translate(-110.016 -71.984)" fill="#0e34c4"/>
    </g>
  </g>
</svg>
