<svg xmlns="http://www.w3.org/2000/svg" width="17.888" height="25.18" viewBox="0 0 17.888 25.18">
  <g id="Group_5709" data-name="Group 5709" transform="translate(-374 -5430.821)">
    <path id="people" d="M84.923,7.427V5.665A5.672,5.672,0,0,0,79.257,0H76.739a5.672,5.672,0,0,0-5.666,5.666V9.775A1.734,1.734,0,0,0,72.4,11.458a5.624,5.624,0,0,0,3.183,4.632V16.2a1.75,1.75,0,0,1-1.754,1.749A4.329,4.329,0,0,0,69.5,22.281V24.76a.42.42,0,1,0,.839,0V22.281a3.49,3.49,0,0,1,3.492-3.492,2.619,2.619,0,0,0,.548-.058l.586,2.658a.42.42,0,0,0,.727.185l.827-.952-.511,4.087a.42.42,0,1,0,.833.1l.59-4.723c.284.315.278.313.331.349a.422.422,0,0,0,.156.065.513.513,0,0,0,.081.008c.235,0,.318-.146.566-.431l.591,4.732a.42.42,0,1,0,.833-.1l-.511-4.087.827.952a.42.42,0,0,0,.727-.185l.586-2.658a2.636,2.636,0,0,0,.548.058,3.49,3.49,0,0,1,3.492,3.492V24.76a.42.42,0,1,0,.839,0V22.281a4.329,4.329,0,0,0-4.332-4.332,1.743,1.743,0,0,1-1.5-.842.42.42,0,1,0-.717.437,2.59,2.59,0,0,0,.878.875l-.435,1.974-1.049-1.207a.42.42,0,1,0-.612-.576l-.738.849-1.859-2.065a2.564,2.564,0,0,0,.281-.985,5.619,5.619,0,0,0,7.2-5.341c0-.018,0-2.98,0-3.014a.42.42,0,0,0-.418-.394,1.727,1.727,0,0,1-1.1-.2A1.909,1.909,0,0,1,81.3,5.93a.42.42,0,0,0-.662-.345,13.526,13.526,0,0,1-5.95,2.361.42.42,0,0,0,.058.835,14.188,14.188,0,0,0,5.82-2.136,2.37,2.37,0,0,0,2.2,1.865v2.512a4.775,4.775,0,1,1-9.547-.164V8.079a.42.42,0,0,0-.839,0v2.483a.892.892,0,0,1-.472-.786V5.666A4.832,4.832,0,0,1,76.739.839h2.518a4.832,4.832,0,0,1,4.826,4.826V9.775a.42.42,0,1,0,.839,0v-1.5a2.049,2.049,0,0,1,1.626,2V15.16h-.472a2.827,2.827,0,0,1-2.18-1.024.42.42,0,0,0-.646.536A3.664,3.664,0,0,0,86.077,16h.892a.42.42,0,0,0,.42-.42v-5.3A2.889,2.889,0,0,0,84.923,7.427ZM75.606,20.393l-.435-1.974a2.606,2.606,0,0,0,.448-.343l1.017,1.131Z" transform="translate(304.5 5430.821)" fill="#0e34c4"/>
  </g>
</svg>
