<svg xmlns="http://www.w3.org/2000/svg" width="10.743" height="28.647" viewBox="0 0 10.743 28.647">
  <g id="Group_5706" data-name="Group 5706" transform="translate(-378.982 -5294.361)">
    <g id="starter" transform="translate(218.984 5294.361)">
      <g id="Group_5424" data-name="Group 5424" transform="translate(162.386 22.082)">
        <g id="Group_5423" data-name="Group 5423" transform="translate(0)">
          <path id="Path_8655" data-name="Path 8655" d="M203.266,394.653a.6.6,0,1,0,.6.6A.6.6,0,0,0,203.266,394.653Z" transform="translate(-202.67 -394.653)" fill="#0e34c4"/>
        </g>
      </g>
      <g id="Group_5426" data-name="Group 5426" transform="translate(164.772 23.276)">
        <g id="Group_5425" data-name="Group 5425" transform="translate(0)">
          <path id="Path_8656" data-name="Path 8656" d="M245.923,416a.6.6,0,1,0,.6.6A.6.6,0,0,0,245.923,416Z" transform="translate(-245.326 -415.997)" fill="#0e34c4"/>
        </g>
      </g>
      <g id="Group_5428" data-name="Group 5428" transform="translate(167.16 22.082)">
        <g id="Group_5427" data-name="Group 5427" transform="translate(0)">
          <path id="Path_8657" data-name="Path 8657" d="M288.6,394.653a.6.6,0,1,0,.6.6A.6.6,0,0,0,288.6,394.653Z" transform="translate(-287.998 -394.653)" fill="#0e34c4"/>
        </g>
      </g>
      <g id="Group_5430" data-name="Group 5430" transform="translate(159.998)">
        <g id="Group_5429" data-name="Group 5429" transform="translate(0)">
          <path id="Path_8658" data-name="Path 8658" d="M168.95,16.711a1.79,1.79,0,1,0,0-3.581h-2.984v-.6h4.774A5.371,5.371,0,0,0,165.967,7.2V.6h0a.6.6,0,0,0-1.194,0h0V7.2A5.371,5.371,0,0,0,160,12.533h4.774v.6h-2.984a1.79,1.79,0,1,0,0,3.581h2.984v1.367a6.244,6.244,0,0,1-3.939-.123.582.582,0,0,0-.238-.05.6.6,0,0,0-.24,1.144l0,0,.006,0a7.325,7.325,0,0,0,4.407.266v.974H160v5.969h4.774v1.79h0a.6.6,0,0,0,1.194,0h0v-1.79h4.774V20.291h-4.774V18.926a6.231,6.231,0,0,1,3.938.122.609.609,0,0,0,.24.051.6.6,0,0,0,.24-1.144l-.005,0-.005,0a7.349,7.349,0,0,0-4.407-.266v-.974ZM163.3,11.34a2.389,2.389,0,0,1,2.066-1.193.6.6,0,1,0,0-1.194,3.583,3.583,0,0,0-3.376,2.387h-.629a4.181,4.181,0,0,1,8.012,0Zm6.244,10.146v3.581h-8.356V21.486h8.356Zm-7.759-5.968a.6.6,0,0,1,0-1.194h7.162a.6.6,0,1,1,0,1.194Z" transform="translate(-159.998)" fill="#0e34c4"/>
        </g>
      </g>
    </g>
  </g>
</svg>
