<svg xmlns="http://www.w3.org/2000/svg" width="20.301" height="24.354" viewBox="0 0 20.301 24.354">
  <g id="Group_5715" data-name="Group 5715" transform="translate(-1008 -5427.627)">
    <g id="supervisor" transform="translate(1000 5425.609)">
      <rect id="Rectangle_1997" data-name="Rectangle 1997" width="0.812" height="0.812" transform="translate(15.714 19.47)" fill="#0e34c4"/>
      <rect id="Rectangle_1998" data-name="Rectangle 1998" width="0.812" height="0.812" transform="translate(15.714 21.094)" fill="#0e34c4"/>
      <rect id="Rectangle_1999" data-name="Rectangle 1999" width="0.812" height="0.812" transform="translate(15.714 17.846)" fill="#0e34c4"/>
      <path id="Path_8696" data-name="Path 8696" d="M26.863,17.944a4.475,4.475,0,0,0-2.221-1.889l-.792-.308.832-5.619a6.977,6.977,0,0,0-4.4-7.564l-.335-.13a6.068,6.068,0,0,0-4.415,0l-.335.13a6.977,6.977,0,0,0-4.4,7.564l.832,5.619-.792.308A4.439,4.439,0,0,0,8,20.217v6.155H26.271a1.219,1.219,0,0,0,1.218-1.218V21.668l.217-.217a2.017,2.017,0,0,0,.595-1.436v-.139a2.026,2.026,0,0,0-1.438-1.932ZM11.611,10.009A6.17,6.17,0,0,1,15.5,3.32l.335-.13a5.266,5.266,0,0,1,3.826,0l.335.13a6.17,6.17,0,0,1,3.886,6.688l-.805,5.436-2.625-1.021a5.25,5.25,0,0,0,1.762-3.937V8.2a1.212,1.212,0,0,0-.673-1.09L18.653,5.665l.9-.449-.363-.726L13.952,7.107a1.212,1.212,0,0,0-.673,1.09v2.29a5.25,5.25,0,0,0,1.762,3.937l-2.625,1.021Zm3.965,6.213a1.211,1.211,0,0,1-.862-.357l-.319-.319,1.418-.551a5.349,5.349,0,0,0,.784.393,3.079,3.079,0,0,0,2.3,0,5.352,5.352,0,0,0,.784-.393l1.418.551-.319.319a1.211,1.211,0,0,1-.862.357Zm3.015-1.588a2.264,2.264,0,0,1-1.693,0,4.444,4.444,0,0,1-2.807-4.147V8.2a.4.4,0,0,1,.224-.363l3.43-1.715,3.43,1.715A.4.4,0,0,1,21.4,8.2v2.29A4.444,4.444,0,0,1,18.59,14.634Zm-7.448,2.178,2.426-.944.571.571a2.017,2.017,0,0,0,1.436.595h1.763v4.872h.812V17.034h1.763a2.017,2.017,0,0,0,1.436-.595l.571-.571,2.426.944a3.661,3.661,0,0,1,1.494,1.082,2.032,2.032,0,0,0-1.6,1.982v.139a2.017,2.017,0,0,0,.595,1.436l.217.217v3.486a1.2,1.2,0,0,0,.075.406H22.542a1.2,1.2,0,0,0,.075-.406V21.836a.409.409,0,0,1,.119-.287l.336-.336a1.211,1.211,0,0,0,.357-.861V17.846h-.812v2.506a.409.409,0,0,1-.119.287l-.336.336a1.211,1.211,0,0,0-.357.861v3.318a.406.406,0,1,1-.812,0V21.836a1.211,1.211,0,0,0-.357-.861l-.336-.336a.409.409,0,0,1-.119-.287V17.846h-.812v2.506a1.211,1.211,0,0,0,.357.861l.336.336a.409.409,0,0,1,.119.287v3.318a1.2,1.2,0,0,0,.075.406H12.466V21.167a4.432,4.432,0,0,0-2.221-3.849,3.688,3.688,0,0,1,.9-.507Zm-2.33,3.406A3.631,3.631,0,0,1,9.644,17.9a3.633,3.633,0,0,1,2.01,3.263V25.56H8.812Zm18.677-.2a1.211,1.211,0,0,1-.357.862l-.455.455v3.822a.406.406,0,1,1-.812,0V21.332l-.455-.455a1.211,1.211,0,0,1-.357-.862v-.139a1.218,1.218,0,0,1,2.436,0Z" transform="translate(0)" fill="#0e34c4"/>
      <rect id="Rectangle_2000" data-name="Rectangle 2000" width="0.812" height="2.436" transform="translate(20.993 17.846)" fill="#0e34c4"/>
    </g>
  </g>
</svg>
