<svg xmlns="http://www.w3.org/2000/svg" width="23.352" height="28.199" viewBox="0 0 23.352 28.199">
  <g id="Group_5707" data-name="Group 5707" transform="translate(-372 -5338.805)">
    <g id="checklist_1_" data-name="checklist (1)" transform="translate(327.999 5338.805)">
      <g id="Group_5432" data-name="Group 5432" transform="translate(55.126 8.372)">
        <g id="Group_5431" data-name="Group 5431" transform="translate(0)">
          <path id="Path_8659" data-name="Path 8659" d="M254.483,152h-7.931a.551.551,0,0,0,0,1.1h7.931a.551.551,0,1,0,0-1.1Z" transform="translate(-246.001 -152)" fill="#0e34c4"/>
        </g>
      </g>
      <g id="Group_5434" data-name="Group 5434" transform="translate(60.741 11.015)">
        <g id="Group_5433" data-name="Group 5433">
          <path id="Path_8660" data-name="Path 8660" d="M348.881,200.162a.551.551,0,1,0,.161.389A.555.555,0,0,0,348.881,200.162Z" transform="translate(-347.941 -200.001)" fill="#0e34c4"/>
        </g>
      </g>
      <g id="Group_5436" data-name="Group 5436" transform="translate(55.126 2.368)">
        <g id="Group_5435" data-name="Group 5435">
          <path id="Path_8661" data-name="Path 8661" d="M246.931,43.162a.55.55,0,1,0,.161.389A.555.555,0,0,0,246.931,43.162Z" transform="translate(-245.991 -43.001)" fill="#0e34c4"/>
        </g>
      </g>
      <g id="Group_5438" data-name="Group 5438" transform="translate(55.126 11.015)">
        <g id="Group_5437" data-name="Group 5437" transform="translate(0)">
          <path id="Path_8662" data-name="Path 8662" d="M249.85,200h-3.3a.551.551,0,1,0,0,1.1h3.3a.551.551,0,1,0,0-1.1Z" transform="translate(-246.001 -200)" fill="#0e34c4"/>
        </g>
      </g>
      <g id="Group_5440" data-name="Group 5440" transform="translate(55.126 14.32)">
        <g id="Group_5439" data-name="Group 5439" transform="translate(0)">
          <path id="Path_8663" data-name="Path 8663" d="M254.483,260h-7.931a.551.551,0,1,0,0,1.1h7.931a.551.551,0,1,0,0-1.1Z" transform="translate(-246.001 -260)" fill="#0e34c4"/>
        </g>
      </g>
      <g id="Group_5442" data-name="Group 5442" transform="translate(60.741 16.963)">
        <g id="Group_5441" data-name="Group 5441">
          <path id="Path_8664" data-name="Path 8664" d="M348.881,308.162a.551.551,0,1,0,.161.389A.555.555,0,0,0,348.881,308.162Z" transform="translate(-347.941 -308.001)" fill="#0e34c4"/>
        </g>
      </g>
      <g id="Group_5444" data-name="Group 5444" transform="translate(55.126 16.963)">
        <g id="Group_5443" data-name="Group 5443" transform="translate(0)">
          <path id="Path_8665" data-name="Path 8665" d="M249.85,308h-3.3a.551.551,0,1,0,0,1.1h3.3a.551.551,0,1,0,0-1.1Z" transform="translate(-246.001 -308)" fill="#0e34c4"/>
        </g>
      </g>
      <g id="Group_5446" data-name="Group 5446" transform="translate(55.126 20.268)">
        <g id="Group_5445" data-name="Group 5445" transform="translate(0)">
          <path id="Path_8666" data-name="Path 8666" d="M254.483,368h-7.931a.551.551,0,0,0,0,1.1h7.931a.551.551,0,1,0,0-1.1Z" transform="translate(-246.001 -368)" fill="#0e34c4"/>
        </g>
      </g>
      <g id="Group_5448" data-name="Group 5448" transform="translate(60.741 22.912)">
        <g id="Group_5447" data-name="Group 5447">
          <path id="Path_8667" data-name="Path 8667" d="M348.881,416.162a.551.551,0,1,0,.161.389A.555.555,0,0,0,348.881,416.162Z" transform="translate(-347.941 -416.001)" fill="#0e34c4"/>
        </g>
      </g>
      <g id="Group_5450" data-name="Group 5450" transform="translate(55.126 22.911)">
        <g id="Group_5449" data-name="Group 5449" transform="translate(0)">
          <path id="Path_8668" data-name="Path 8668" d="M249.85,416h-3.3a.551.551,0,1,0,0,1.1h3.3a.551.551,0,0,0,0-1.1Z" transform="translate(-246.001 -416)" fill="#0e34c4"/>
        </g>
      </g>
      <g id="Group_5452" data-name="Group 5452" transform="translate(44.001)">
        <g id="Group_5451" data-name="Group 5451" transform="translate(0)">
          <path id="Path_8669" data-name="Path 8669" d="M64.668,2.148H60.461a3.374,3.374,0,0,0-2.334-.936h-.482a2.2,2.2,0,0,0-3.934,0h-.484a3.374,3.374,0,0,0-2.334.936H46.686A2.688,2.688,0,0,0,44,4.833v20.68A2.688,2.688,0,0,0,46.686,28.2H64.668a2.688,2.688,0,0,0,2.685-2.685V4.833A2.688,2.688,0,0,0,64.668,2.148Zm-11.442.165h.858a.551.551,0,0,0,.531-.4,1.1,1.1,0,0,1,2.123,0,.551.551,0,0,0,.531.4h.857A2.289,2.289,0,0,1,60.4,4.406H50.949A2.289,2.289,0,0,1,53.226,2.313Zm13.025,23.2A1.586,1.586,0,0,1,64.668,27.1H46.686A1.586,1.586,0,0,1,45.1,25.513V4.833A1.586,1.586,0,0,1,46.686,3.25H50.12A3.367,3.367,0,0,0,49.839,4.6v.358a.551.551,0,0,0,.551.551H60.963a.551.551,0,0,0,.551-.551V4.6a3.367,3.367,0,0,0-.281-1.349h3.435a1.586,1.586,0,0,1,1.584,1.584Z" transform="translate(-44.001)" fill="#0e34c4"/>
        </g>
      </g>
      <g id="Group_5454" data-name="Group 5454" transform="translate(47.375 8.078)">
        <g id="Group_5453" data-name="Group 5453" transform="translate(0)">
          <path id="Path_8670" data-name="Path 8670" d="M110.061,146.828a.551.551,0,0,0-.779,0l-2.355,2.355-.725-.726a.551.551,0,0,0-.779.779l1.115,1.115a.551.551,0,0,0,.779,0l2.745-2.745A.551.551,0,0,0,110.061,146.828Z" transform="translate(-105.261 -146.667)" fill="#0e34c4"/>
        </g>
      </g>
      <g id="Group_5456" data-name="Group 5456" transform="translate(47.636 20.268)">
        <g id="Group_5455" data-name="Group 5455" transform="translate(0)">
          <path id="Path_8671" data-name="Path 8671" d="M113.2,368h-2.644a.551.551,0,0,0-.551.551v2.644a.551.551,0,0,0,.551.551H113.2a.551.551,0,0,0,.551-.551v-2.644A.551.551,0,0,0,113.2,368Zm-.551,2.644H111.1V369.1h1.542Z" transform="translate(-110.001 -368)" fill="#0e34c4"/>
        </g>
      </g>
      <g id="Group_5458" data-name="Group 5458" transform="translate(47.636 14.32)">
        <g id="Group_5457" data-name="Group 5457" transform="translate(0)">
          <path id="Path_8672" data-name="Path 8672" d="M113.2,260h-2.644a.551.551,0,0,0-.551.551v2.644a.551.551,0,0,0,.551.551H113.2a.551.551,0,0,0,.551-.551v-2.644A.551.551,0,0,0,113.2,260Zm-.551,2.644H111.1V261.1h1.542Z" transform="translate(-110.001 -260)" fill="#0e34c4"/>
        </g>
      </g>
    </g>
  </g>
</svg>
