<svg xmlns="http://www.w3.org/2000/svg" width="22.018" height="22.018" viewBox="0 0 22.018 22.018">
  <g id="Group_5710" data-name="Group 5710" transform="translate(-371.982 -5476)">
    <g id="consulting" transform="translate(371.982 5476)">
      <path id="Path_8678" data-name="Path 8678" d="M150.5,86.863h.645v.951H150.5Z" transform="translate(-144.028 -83.128)" fill="#0e34c4"/>
      <path id="Path_8679" data-name="Path 8679" d="M210.5,57.107h.645v2.231H210.5Z" transform="translate(-201.448 -54.651)" fill="#0e34c4"/>
      <path id="Path_8680" data-name="Path 8680" d="M180.5,72.106h.645v1.586H180.5Z" transform="translate(-172.738 -69.005)" fill="#0e34c4"/>
      <path id="Path_8681" data-name="Path 8681" d="M279.262,196.977h-.66l1.413-1.576v-2.3a3.138,3.138,0,1,0-6.275,0v2.3l1.413,1.576h-.66l-2.782,2.782v4.051h2.93v-.645h-2.285v-3.138l2.4-2.4h4.235l2.4,2.4v3.138h-6.113v.645h6.758v-4.05Zm-2.385-6.371a2.5,2.5,0,0,1,2.493,2.493v.245l-.507-.567h-4.457A2.5,2.5,0,0,1,276.878,190.606Zm-2.492,4.548v-1.733h4.19l.8.89v.843l-1.635,1.823H276.02Z" transform="translate(-260.027 -181.792)" fill="#0e34c4"/>
      <path id="Path_8682" data-name="Path 8682" d="M105.37,6.065l1.747,1.16V5.012h-.645V6.023l-.907-.6h-5.425V1.479L99.629.968l.323-.323h6.065l.456.456V4.367h.645V.834L106.284,0h-6.6l-.645.645H94.453V1.29h4.586l.456.456V5.609l-.456.456H93.426l-.907.6V1.746l.456-.456h.834V.645h-1.1l-.834.834V7.871l1.747-1.16h5.686l.645-.645Z" transform="translate(-87.922)" fill="#0e34c4"/>
      <path id="Path_8683" data-name="Path 8683" d="M6.891,196.977,8.3,195.4v-2.3a3.138,3.138,0,1,0-6.275,0v2.3l1.413,1.576h-.66L0,199.759v4.05H10.333v-4.05l-2.782-2.782h-.66Zm-4.217-1.823v-.843l.8-.89h.784v-.645H3.181l-.507.567V193.1a2.492,2.492,0,0,1,4.963-.323H4.9v.645H7.659v1.733l-1.635,1.823H4.309Zm7.014,8.01H.645v-3.138l2.4-2.4H7.284l2.4,2.4Z" transform="translate(0 -181.792)" fill="#0e34c4"/>
      <path id="Path_8684" data-name="Path 8684" d="M312.754,73.271h.654v.645h-.654Z" transform="translate(-299.305 -70.12)" fill="#0e34c4"/>
      <path id="Path_8685" data-name="Path 8685" d="M342.9,73.271h.643v.645H342.9Z" transform="translate(-328.157 -70.12)" fill="#0e34c4"/>
      <path id="Path_8686" data-name="Path 8686" d="M372.8,73.271h.643v.645H372.8Z" transform="translate(-356.772 -70.12)" fill="#0e34c4"/>
      <path id="Path_8687" data-name="Path 8687" d="M467,467h.645v.645H467Z" transform="translate(-446.918 -446.918)" fill="#0e34c4"/>
      <path id="Path_8688" data-name="Path 8688" d="M195.288,467h.645v.645h-.645Z" transform="translate(-186.89 -446.918)" fill="#0e34c4"/>
      <path id="Path_8689" data-name="Path 8689" d="M150.289,467h1.29v.645h-1.29Z" transform="translate(-143.826 -446.918)" fill="#0e34c4"/>
      <path id="Path_8690" data-name="Path 8690" d="M422,467h1.29v.645H422Z" transform="translate(-403.854 -446.918)" fill="#0e34c4"/>
    </g>
  </g>
</svg>
