<svg xmlns="http://www.w3.org/2000/svg" width="25.371" height="25.56" viewBox="0 0 25.371 25.56">
  <g id="Group_5712" data-name="Group 5712" transform="translate(-1004 -5299.442)">
    <g id="paint" transform="translate(1002.109 5299.441)">
      <path id="Path_8691" data-name="Path 8691" d="M174.317,60.456a2.017,2.017,0,1,0-2.017-2.017A2.019,2.019,0,0,0,174.317,60.456Zm0-3.285a1.268,1.268,0,1,1-1.268,1.268A1.27,1.27,0,0,1,174.317,57.171Z" transform="translate(-161.902 -53.604)" fill="#0e34c4"/>
      <path id="Path_8692" data-name="Path 8692" d="M153.909,349.144a2.308,2.308,0,1,0-2.308-2.308A2.311,2.311,0,0,0,153.909,349.144Zm0-3.868a1.56,1.56,0,1,1-1.56,1.56A1.561,1.561,0,0,1,153.909,345.276Z" transform="translate(-142.236 -327.327)" fill="#0e34c4"/>
      <path id="Path_8693" data-name="Path 8693" d="M85.043,131.633a2.447,2.447,0,1,0,2.447,2.447A2.45,2.45,0,0,0,85.043,131.633Zm0,4.146a1.7,1.7,0,1,1,1.7-1.7A1.7,1.7,0,0,1,85.043,135.779Z" transform="translate(-76.676 -125.061)" fill="#0e34c4"/>
      <path id="Path_8694" data-name="Path 8694" d="M71,255.576a2.447,2.447,0,1,0-2.447-2.447A2.45,2.45,0,0,0,71,255.576Zm0-4.146a1.7,1.7,0,1,1-1.7,1.7A1.7,1.7,0,0,1,71,251.43Z" transform="translate(-63.337 -238.165)" fill="#0e34c4"/>
      <path id="Path_8695" data-name="Path 8695" d="M10.105,24.485a.374.374,0,0,0,.134-.737A6.609,6.609,0,0,1,6.527,21.69C3.633,18.53,2.344,15.122,2.7,11.56,3.493,3.521,11.97-.48,19.788,1.084a1.824,1.824,0,0,1,1.5,1.745,1.8,1.8,0,0,1-1.313,1.852,7.21,7.21,0,0,0-3.092,1.7,4.849,4.849,0,0,0-.222,6.471,6.589,6.589,0,0,1,1.475,3.336c-.848,1.927-1.715,4.109-2.386,6.129A6.777,6.777,0,0,1,11.9,23.844a.374.374,0,0,0,.024.748h.025a7.558,7.558,0,0,0,3.428-1.085,1.614,1.614,0,0,0,2.957,1.236c.721-1.276,1.5-2.824,2.259-4.477a.374.374,0,1,0-.681-.312c-.748,1.635-1.519,3.163-2.23,4.421a.868.868,0,0,1-1.128.355A.859.859,0,0,1,16.1,23.7a72.423,72.423,0,0,1,4.055-10.07l2.012.861c-.469,1.279-1,2.61-1.549,3.872a.374.374,0,0,0,.688.3,61.766,61.766,0,0,0,2.843-7.867.85.85,0,0,0,.5-.47l.324-.757a.855.855,0,0,0,.054-.5,5.038,5.038,0,0,0,1.948-2.164c.558-1.3.187-3.514-.084-4.716a.738.738,0,0,0-1.1-.47c-1.056.633-2.911,1.89-3.47,3.195a5.038,5.038,0,0,0-.221,2.9.854.854,0,0,0-.321.382l-.324.757a.849.849,0,0,0,.005.687,54.445,54.445,0,0,0-2.807,5.4,7.315,7.315,0,0,0-1.418-2.665,3.967,3.967,0,0,1-.947-2.613c0-2.123,1.312-3.591,3.9-4.365a2.525,2.525,0,0,0,1.846-2.6,2.584,2.584,0,0,0-2.1-2.445C11.693-1.3,2.794,2.984,1.952,11.486c-.375,3.783.979,7.386,4.023,10.71a7.352,7.352,0,0,0,4.13,2.29ZM22.033,10.14l1.356.58c-.245.9-.576,1.946-.971,3.065l-1.931-.827c.537-1.058,1.065-2.02,1.547-2.818Zm2.248-.869-.324.757a.111.111,0,0,1-.146.058L22.2,9.4a.111.111,0,0,1-.058-.146l.324-.757a.111.111,0,0,1,.146-.058l1.611.69a.112.112,0,0,1,.058.146ZM23.008,5.21c.164-.383.8-1.425,3.153-2.839.6,2.679.286,3.858.122,4.241a4.322,4.322,0,0,1-1.7,1.854c-.02-.011-.041-.02-.061-.029l-1.611-.69h0l-.063-.024a4.323,4.323,0,0,1,.165-2.513Z" transform="translate(0 0)" fill="#0e34c4"/>
    </g>
  </g>
</svg>
