<svg xmlns="http://www.w3.org/2000/svg" width="16" height="22.861" viewBox="0 0 16 22.861">
  <g id="Group_5630" data-name="Group 5630" transform="translate(-1078 -5480.237)">
    <g id="wifi" transform="translate(1005.951 5480.237)">
      <g id="Group_5142" data-name="Group 5142" transform="translate(75.477 2.159)">
        <g id="Group_5141" data-name="Group 5141">
          <path id="Path_8452" data-name="Path 8452" d="M145.142,47.622a1.143,1.143,0,0,1,0-1.616.381.381,0,1,0-.539-.539,1.9,1.9,0,0,0,0,2.694.381.381,0,1,0,.539-.539Z" transform="translate(-144.045 -45.356)" fill="#0e34c4"/>
        </g>
      </g>
      <g id="Group_5144" data-name="Group 5144" transform="translate(73.953 1.077)">
        <g id="Group_5143" data-name="Group 5143">
          <path id="Path_8453" data-name="Path 8453" d="M113.587,23.287h0a.381.381,0,1,0-.529-.548l-.009.009h0a3.429,3.429,0,0,0,0,4.849h0a.381.381,0,0,0,.539-.539A2.667,2.667,0,0,1,113.587,23.287Z" transform="translate(-112.044 -22.632)" fill="#0e34c4"/>
        </g>
      </g>
      <g id="Group_5146" data-name="Group 5146" transform="translate(72.432 0)">
        <g id="Group_5145" data-name="Group 5145">
          <path id="Path_8454" data-name="Path 8454" d="M82.085.655a.381.381,0,1,0-.529-.548l-.009.009a4.958,4.958,0,0,0,0,7,.381.381,0,0,0,.539-.539A4.2,4.2,0,0,1,82.085.655Z" transform="translate(-80.097 0)" fill="#0e34c4"/>
        </g>
      </g>
      <g id="Group_5148" data-name="Group 5148" transform="translate(83.408 2.155)">
        <g id="Group_5147" data-name="Group 5147">
          <path id="Path_8455" data-name="Path 8455" d="M311.238,45.372a.381.381,0,0,0-.548.529l.009.009a1.143,1.143,0,0,1,0,1.616.381.381,0,0,0,0,.539h0a.381.381,0,0,0,.539,0A1.9,1.9,0,0,0,311.238,45.372Z" transform="translate(-310.583 -45.256)" fill="#0e34c4"/>
        </g>
      </g>
      <g id="Group_5150" data-name="Group 5150" transform="translate(84.485 1.082)">
        <g id="Group_5149" data-name="Group 5149">
          <path id="Path_8456" data-name="Path 8456" d="M333.862,22.832h0a.381.381,0,0,0-.539.539,2.667,2.667,0,0,1,0,3.771h0a.381.381,0,1,0,.529.548l.009-.009A3.429,3.429,0,0,0,333.862,22.832Z" transform="translate(-333.207 -22.72)" fill="#0e34c4"/>
        </g>
      </g>
      <g id="Group_5152" data-name="Group 5152" transform="translate(85.562 0.009)">
        <g id="Group_5151" data-name="Group 5151">
          <path id="Path_8457" data-name="Path 8457" d="M356.486.3a.381.381,0,0,0-.539.539,4.2,4.2,0,0,1,0,5.926.381.381,0,1,0,.529.548l.009-.009A4.958,4.958,0,0,0,356.486.3Z" transform="translate(-355.831 -0.196)" fill="#0e34c4"/>
        </g>
      </g>
      <g id="Group_5154" data-name="Group 5154" transform="translate(72.049 1.52)">
        <g id="Group_5153" data-name="Group 5153">
          <path id="Path_8458" data-name="Path 8458" d="M85.382,44.13H81.531l-1.063-9.209a1.524,1.524,0,1,0-.838,0L78.567,44.13H74.716A2.67,2.67,0,0,0,72.049,46.8v3.809a2.67,2.67,0,0,0,2.667,2.667H85.382a2.67,2.67,0,0,0,2.667-2.667V46.8A2.67,2.67,0,0,0,85.382,44.13Zm-6.1-10.667a.762.762,0,1,1,.762.762A.762.762,0,0,1,79.287,33.464Zm.762,4.467.715,6.2H79.333Zm7.238,12.676a1.907,1.907,0,0,1-1.9,1.9H74.716a1.907,1.907,0,0,1-1.9-1.9V46.8a1.907,1.907,0,0,1,1.9-1.9H85.382a1.907,1.907,0,0,1,1.9,1.9Z" transform="translate(-72.049 -31.932)" fill="#0e34c4"/>
        </g>
      </g>
      <g id="Group_5156" data-name="Group 5156" transform="translate(74.335 17.528)">
        <g id="Group_5155" data-name="Group 5155">
          <path id="Path_8459" data-name="Path 8459" d="M121.954,368.1H120.43a.381.381,0,0,0-.381.381v3.048a.381.381,0,0,0,.381.381h1.524a.381.381,0,0,0,.381-.381v-3.048A.381.381,0,0,0,121.954,368.1Zm-.381,3.048h-.762V368.86h.762Z" transform="translate(-120.049 -368.098)" fill="#0e34c4"/>
        </g>
      </g>
      <g id="Group_5158" data-name="Group 5158" transform="translate(77.382 16.766)">
        <g id="Group_5157" data-name="Group 5157">
          <path id="Path_8460" data-name="Path 8460" d="M185.954,352.1H184.43a.381.381,0,0,0-.381.381v3.809a.381.381,0,0,0,.381.381h1.524a.381.381,0,0,0,.381-.381v-3.809A.381.381,0,0,0,185.954,352.1Zm-.381,3.809h-.762V352.86h.762Z" transform="translate(-184.049 -352.098)" fill="#0e34c4"/>
        </g>
      </g>
      <g id="Group_5160" data-name="Group 5160" transform="translate(80.43 16.004)">
        <g id="Group_5159" data-name="Group 5159">
          <path id="Path_8461" data-name="Path 8461" d="M249.954,336.1H248.43a.381.381,0,0,0-.381.381v4.571a.381.381,0,0,0,.381.381h1.524a.381.381,0,0,0,.381-.381v-4.571A.381.381,0,0,0,249.954,336.1Zm-.381,4.571h-.762v-3.81h.762Z" transform="translate(-248.049 -336.098)" fill="#0e34c4"/>
        </g>
      </g>
      <g id="Group_5162" data-name="Group 5162" transform="translate(83.477 15.242)">
        <g id="Group_5161" data-name="Group 5161">
          <path id="Path_8462" data-name="Path 8462" d="M313.954,320.1H312.43a.381.381,0,0,0-.381.381v5.333a.381.381,0,0,0,.381.381h1.524a.381.381,0,0,0,.381-.381v-5.333A.381.381,0,0,0,313.954,320.1Zm-.381,5.333h-.762V320.86h.762Z" transform="translate(-312.049 -320.098)" fill="#0e34c4"/>
        </g>
      </g>
    </g>
  </g>
</svg>
