<svg xmlns="http://www.w3.org/2000/svg" width="16.648" height="24.972" viewBox="0 0 16.648 24.972">
  <g id="Group_5622" data-name="Group 5622" transform="translate(-376.001 -5436)">
    <g id="_022-bus-stop-1" data-name="022-bus-stop-1" transform="translate(290.668 5436)">
      <g id="Group_53" data-name="Group 53" transform="translate(85.333)">
        <g id="Group_52" data-name="Group 52">
          <path id="Path_82" data-name="Path 82" d="M99.379,0H87.934a2.6,2.6,0,0,0-2.6,2.6.52.52,0,0,0,.52.52h.52V21.33a.52.52,0,0,0,.52.52h3.642v2.081h-2.6a.52.52,0,0,0,0,1.041H99.38a.52.52,0,1,0,0-1.041h-2.6V21.85h3.642a.52.52,0,0,0,.52-.52V3.121h.52a.52.52,0,0,0,.52-.52A2.6,2.6,0,0,0,99.379,0ZM95.738,23.931H91.576V21.85h4.162ZM99.9,20.81H87.414V3.121H99.9ZM86.462,2.081a1.564,1.564,0,0,1,1.472-1.04H99.38a1.564,1.564,0,0,1,1.472,1.04Z" transform="translate(-85.333 0)" fill="#0e34c4"/>
          <path id="Path_83" data-name="Path 83" d="M181.333,193.561v3.121a.52.52,0,0,0,1.041,0v-.52h1.04v.52a.52.52,0,0,0,1.041,0v-3.121a1.561,1.561,0,0,0-3.122,0Zm2.081,0v1.561h-1.04v-1.561a.52.52,0,1,1,1.04,0Z" transform="translate(-176.651 -182.636)" fill="#0e34c4"/>
          <path id="Path_84" data-name="Path 84" d="M267.186,197.2h1.04a1.562,1.562,0,0,0,1.561-1.561v-2.081A1.562,1.562,0,0,0,268.227,192h-1.04a.52.52,0,0,0-.52.52v4.162A.52.52,0,0,0,267.186,197.2Zm.52-4.162h.52a.521.521,0,0,1,.52.52v2.081a.521.521,0,0,1-.52.52h-.52Z" transform="translate(-257.822 -182.636)" fill="#0e34c4"/>
          <path id="Path_85" data-name="Path 85" d="M149.854,87.415a.519.519,0,0,0,.368-.152l1.04-1.04a.52.52,0,1,0-.736-.736l-1.04,1.04a.52.52,0,0,0,.368.888Z" transform="translate(-146.212 -81.172)" fill="#0e34c4"/>
          <path id="Path_86" data-name="Path 86" d="M170.819,109.636a.52.52,0,0,0,.736,0l2.081-2.081a.52.52,0,0,0-.736-.736l-2.081,2.081A.52.52,0,0,0,170.819,109.636Z" transform="translate(-166.505 -101.464)" fill="#0e34c4"/>
        </g>
      </g>
    </g>
  </g>
</svg>
