<svg xmlns="http://www.w3.org/2000/svg" width="25.416" height="25.664" viewBox="0 0 25.416 25.664">
  <g id="Group_5619" data-name="Group 5619" transform="translate(-372 -5307.336)">
    <path id="smart-cart" d="M24.809,4.87a2.494,2.494,0,0,0-1.91-.843H4.632L4.448,2.648C4.25,1.163,3.216,0,2.094,0H.752a.752.752,0,0,0,0,1.5H2.094c.241,0,.752.51.863,1.343L5.109,18.989a3.04,3.04,0,0,0,1.029,1.876,3.107,3.107,0,0,0,1.443.718,2.766,2.766,0,1,0,4.891.054h3.94a2.765,2.765,0,1,0,4.919,0H23.3a.752.752,0,0,0,0-1.5H8.134A1.614,1.614,0,0,1,6.6,18.79l-.157-1.18H21.288a3.121,3.121,0,0,0,3.025-2.648l1.078-8.089A2.494,2.494,0,0,0,24.809,4.87ZM11.275,22.9a1.262,1.262,0,1,1-1.262-1.261A1.263,1.263,0,0,1,11.275,22.9Zm8.859,0a1.262,1.262,0,1,1-1.262-1.261A1.263,1.263,0,0,1,20.134,22.9ZM23.677,5.86a1.011,1.011,0,0,1,.224.815l-.452,3.392H18.333l.3-4.536H22.9A1.011,1.011,0,0,1,23.677,5.86ZM13,16.107l-.3-4.536h4.029l-.3,4.536Zm-.4-6.04-.3-4.536h4.834l-.3,4.536ZM10.787,5.53l.3,4.536H5.437l-.6-4.536Zm-5.15,6.04H11.19l.3,4.536H6.242Zm15.651,4.536H17.93l.3-4.536h5.016l-.426,3.193A1.614,1.614,0,0,1,21.288,16.107Zm0,0" transform="translate(372 5307.336)" fill="#0e34c4"/>
  </g>
</svg>
