<svg xmlns="http://www.w3.org/2000/svg" width="16.017" height="26.139" viewBox="0 0 16.017 26.139">
  <g id="Group_5623" data-name="Group 5623" transform="translate(-376 -5477.934)">
    <path id="smart-cart" d="M15.634,3.069a1.572,1.572,0,0,0-1.2-.531H2.919L2.8,1.669A1.757,1.757,0,0,0,1.32,0H.474a.474.474,0,0,0,0,.948H1.32c.152,0,.474.321.544.846L3.22,11.967a1.916,1.916,0,0,0,.649,1.182,1.958,1.958,0,0,0,.909.452,1.743,1.743,0,1,0,3.082.034h2.483a1.743,1.743,0,1,0,3.1,0h1.241a.474.474,0,0,0,0-.948H5.126a1.017,1.017,0,0,1-.967-.847l-.1-.743h9.355a1.967,1.967,0,0,0,1.906-1.669l.68-5.1A1.572,1.572,0,0,0,15.634,3.069ZM7.105,14.431a.8.8,0,1,1-.8-.795A.8.8,0,0,1,7.105,14.431Zm5.583,0a.8.8,0,1,1-.8-.795A.8.8,0,0,1,12.688,14.431ZM14.921,3.693a.637.637,0,0,1,.141.513l-.285,2.138H11.553l.191-2.859h2.687A.637.637,0,0,1,14.921,3.693ZM8.192,10.15,8,7.292H10.54l-.191,2.859ZM7.938,6.344,7.748,3.485h3.046L10.6,6.344ZM6.8,3.485l.191,2.859H3.426L3.045,3.485ZM3.553,7.292h3.5l.191,2.859H3.934Zm9.863,2.859H11.3l.191-2.859h3.161L14.382,9.3A1.017,1.017,0,0,1,13.416,10.15Zm0,0" transform="translate(376 5487.9)" fill="#0e34c4"/>
    <line id="Line_144" data-name="Line 144" y1="12.494" transform="translate(381.111 5478.434)" fill="none" stroke="#0e34c4" stroke-linecap="round" stroke-width="1"/>
    <g id="Rectangle_1938" data-name="Rectangle 1938" transform="translate(381 5480)" fill="none" stroke="#0e34c4" stroke-linecap="round" stroke-linejoin="round" stroke-width="1">
      <rect width="7" height="6" stroke="none"/>
      <rect x="0.5" y="0.5" width="6" height="5" fill="none"/>
    </g>
  </g>
</svg>
