<svg xmlns="http://www.w3.org/2000/svg" width="20.06" height="28.32" viewBox="0 0 20.06 28.32">
  <g id="Group_5624" data-name="Group 5624" transform="translate(-374 -5521.681)">
    <g id="poster" transform="translate(299.336 5521.681)">
      <g id="Group_5113" data-name="Group 5113" transform="translate(78.499 10.62)">
        <g id="Group_5112" data-name="Group 5112">
          <path id="Path_8419" data-name="Path 8419" d="M151.662,192l-2.705,4.734-1.425-2.375-3.54,5.9h12.39Zm-4.046,7.08h-1.54l1.455-2.427.754,1.256Zm1.359,0,2.687-4.7,2.686,4.7Z" transform="translate(-143.992 -192)" fill="#0e34c4"/>
        </g>
      </g>
      <g id="Group_5115" data-name="Group 5115" transform="translate(74.664)">
        <g id="Group_5114" data-name="Group 5114">
          <path id="Path_8420" data-name="Path 8420" d="M93.544,4.72h-1.18V3.54h-1.18V0H90V3.54h-1.18V4.72h-8.26V3.54H79.384V0H78.2V3.54h-1.18V4.72h-2.36v23.6h20.06V4.72ZM90,4.72h1.181V5.9H90Zm-11.8,0h1.18V5.9H78.2Zm15.34,22.42h-17.7V5.9h1.181V7.08h3.54V5.9h8.26V7.08h3.54V5.9h1.18Z" transform="translate(-74.664)" fill="#0e34c4"/>
        </g>
      </g>
      <g id="Group_5117" data-name="Group 5117" transform="translate(81.744 23.599)">
        <g id="Group_5116" data-name="Group 5116">
          <path id="Path_8421" data-name="Path 8421" d="M207.974,426.656h-4.72a.59.59,0,1,0,0,1.181h4.72a.59.59,0,1,0,0-1.181Z" transform="translate(-202.664 -426.656)" fill="#0e34c4"/>
        </g>
      </g>
      <g id="Group_5119" data-name="Group 5119" transform="translate(79.384 21.24)">
        <g id="Group_5118" data-name="Group 5118">
          <path id="Path_8422" data-name="Path 8422" d="M170.022,384h-9.44a.59.59,0,1,0,0,1.18h9.44a.59.59,0,0,0,0-1.18Z" transform="translate(-159.992 -384)" fill="#0e34c4"/>
        </g>
      </g>
    </g>
  </g>
</svg>
