<svg xmlns="http://www.w3.org/2000/svg" width="22.3" height="22.3" viewBox="0 0 22.3 22.3">
  <g id="Group_5609" data-name="Group 5609" transform="translate(-371.85 -5373.85)">
    <g id="news" transform="translate(372 5374)">
      <path id="Path_4109" data-name="Path 4109" d="M18.133,0H0V19.422A2.581,2.581,0,0,0,2.578,22H19.422A2.581,2.581,0,0,0,22,19.422V10.355H18.133ZM2.578,20.711a1.29,1.29,0,0,1-1.289-1.289V1.289H16.844V19.422a2.562,2.562,0,0,0,.347,1.289Zm18.133-9.066v7.777a1.289,1.289,0,0,1-2.578,0V11.645Zm0,0" fill="#0e34c4" stroke="#edf1ff" stroke-width="0.3"/>
      <path id="Path_4110" data-name="Path 4110" d="M60,65.2H72.977V60H60Zm1.289-3.91h10.4V63.91h-10.4Zm0,0" transform="translate(-57.422 -57.422)" fill="#0e34c4" stroke="#edf1ff" stroke-width="0.3"/>
      <path id="Path_4111" data-name="Path 4111" d="M60,211h6.488v1.289H60Zm0,0" transform="translate(-57.422 -201.934)" fill="#0e34c4" stroke="#edf1ff" stroke-width="0.3"/>
      <path id="Path_4112" data-name="Path 4112" d="M241,211h5.2v1.289H241Zm0,0" transform="translate(-230.645 -201.934)" fill="#0e34c4" stroke="#edf1ff" stroke-width="0.3"/>
      <path id="Path_4113" data-name="Path 4113" d="M60,271h6.488v1.289H60Zm0,0" transform="translate(-57.422 -259.355)" fill="#0e34c4" stroke="#edf1ff" stroke-width="0.3"/>
      <path id="Path_4114" data-name="Path 4114" d="M241,271h5.2v1.289H241Zm0,0" transform="translate(-230.645 -259.355)" fill="#0e34c4" stroke="#edf1ff" stroke-width="0.3"/>
      <path id="Path_4115" data-name="Path 4115" d="M60,331h6.488v1.289H60Zm0,0" transform="translate(-57.422 -316.777)" fill="#0e34c4" stroke="#edf1ff" stroke-width="0.3"/>
      <path id="Path_4116" data-name="Path 4116" d="M60,391h6.488v1.289H60Zm0,0" transform="translate(-57.422 -374.199)" fill="#0e34c4" stroke="#edf1ff" stroke-width="0.3"/>
      <path id="Path_4117" data-name="Path 4117" d="M241,334.867h5.2V331H241Zm1.289-2.578h2.621v1.289h-2.621Zm0,0" transform="translate(-230.645 -316.777)" fill="#0e34c4" stroke="#edf1ff" stroke-width="0.3"/>
    </g>
  </g>
</svg>
