<svg xmlns="http://www.w3.org/2000/svg" width="27" height="19" viewBox="0 0 27 19">
  <g id="Group_5603" data-name="Group 5603" transform="translate(-369 -5026)">
    <g id="Rectangle_1929" data-name="Rectangle 1929" transform="translate(369 5026)" fill="none" stroke="#0e34c4" stroke-width="1">
      <rect width="27" height="19" rx="2" stroke="none"/>
      <rect x="0.5" y="0.5" width="26" height="18" rx="1.5" fill="none"/>
    </g>
    <path id="Path_8427" data-name="Path 8427" d="M76.259,149.333a1.594,1.594,0,0,0-1.592,1.592v3.184a.531.531,0,1,0,1.061,0v-.531H76.79v.531a.531.531,0,1,0,1.061,0v-3.184A1.594,1.594,0,0,0,76.259,149.333Zm.531,3.184H75.728v-1.592a.531.531,0,1,1,1.061,0v1.592Z" transform="translate(297.047 4883.553)" fill="#0e34c4"/>
    <path id="Path_8428" data-name="Path 8428" d="M161.592,149.333h-1.061a.53.53,0,0,0-.531.531v4.245a.53.53,0,0,0,.531.531h1.061a1.594,1.594,0,0,0,1.592-1.592v-2.123A1.594,1.594,0,0,0,161.592,149.333Zm.531,3.715a.531.531,0,0,1-.531.531h-.531v-3.184h.531a.531.531,0,0,1,.531.531Z" transform="translate(215.961 4883.553)" fill="#0e34c4"/>
  </g>
</svg>
