<svg xmlns="http://www.w3.org/2000/svg" width="27" height="19" viewBox="0 0 27 19">
  <g id="Group_5592" data-name="Group 5592" transform="translate(-708 -5272)">
    <g id="Group_3238" data-name="Group 3238" transform="translate(339 -112)">
      <g id="Rectangle_296" data-name="Rectangle 296" transform="translate(369 5384)" fill="none" stroke="#0e34c4" stroke-width="1">
        <rect width="27" height="19" rx="2" stroke="none"/>
        <rect x="0.5" y="0.5" width="26" height="18" rx="1.5" fill="none"/>
      </g>
      <g id="Rectangle_944" data-name="Rectangle 944" transform="translate(372 5387)" fill="none" stroke="#0e34c4" stroke-width="1">
        <rect width="6" height="5" rx="2" stroke="none"/>
        <rect x="0.5" y="0.5" width="5" height="4" rx="1.5" fill="none"/>
      </g>
      <g id="Rectangle_949" data-name="Rectangle 949" transform="translate(372 5394)" fill="none" stroke="#0e34c4" stroke-width="1">
        <rect width="6" height="5" rx="2" stroke="none"/>
        <rect x="0.5" y="0.5" width="5" height="4" rx="1.5" fill="none"/>
      </g>
      <g id="Rectangle_945" data-name="Rectangle 945" transform="translate(380 5387)" fill="none" stroke="#0e34c4" stroke-width="1">
        <rect width="5" height="5" rx="2" stroke="none"/>
        <rect x="0.5" y="0.5" width="4" height="4" rx="1.5" fill="none"/>
      </g>
      <g id="Rectangle_948" data-name="Rectangle 948" transform="translate(380 5394)" fill="none" stroke="#0e34c4" stroke-width="1">
        <rect width="5" height="5" rx="2" stroke="none"/>
        <rect x="0.5" y="0.5" width="4" height="4" rx="1.5" fill="none"/>
      </g>
      <g id="Rectangle_946" data-name="Rectangle 946" transform="translate(387 5387)" fill="none" stroke="#0e34c4" stroke-width="1">
        <rect width="6" height="5" rx="2" stroke="none"/>
        <rect x="0.5" y="0.5" width="5" height="4" rx="1.5" fill="none"/>
      </g>
      <g id="Rectangle_947" data-name="Rectangle 947" transform="translate(387 5394)" fill="none" stroke="#0e34c4" stroke-width="1">
        <rect width="6" height="5" rx="2" stroke="none"/>
        <rect x="0.5" y="0.5" width="5" height="4" rx="1.5" fill="none"/>
      </g>
    </g>
  </g>
</svg>
