<svg xmlns="http://www.w3.org/2000/svg" width="25.676" height="19.447" viewBox="0 0 25.676 19.447">
  <g id="Group_5640" data-name="Group 5640" transform="translate(-371 -5503.066)">
    <g id="youtube" transform="translate(371 5503.066)">
      <path id="Path_8466" data-name="Path 8466" d="M198.16,109.756l-5.672-3.1a1.042,1.042,0,0,0-1.542.914v6.154a1.04,1.04,0,0,0,1.535.918l5.673-3.05a1.042,1.042,0,0,0,.006-1.832Zm-5.71,3.19v-4.6l4.239,2.32Zm0,0" transform="translate(-181.37 -101.181)" fill="#0e34c4"/>
      <path id="Path_8467" data-name="Path 8467" d="M25.487,4.59V4.578A5.872,5.872,0,0,0,24.354,1.6,4.178,4.178,0,0,0,21.587.3L21.459.286l-.045,0C18.02.034,12.894,0,12.842,0h-.009c-.051,0-5.178.034-8.6.281l-.045,0L4.065.3A4.073,4.073,0,0,0,1.314,1.638,6.154,6.154,0,0,0,.192,4.564l0,.026C.181,4.676,0,6.723,0,8.778V10.7c0,2.055.181,4.1.189,4.189V14.9a5.814,5.814,0,0,0,1.128,2.943,4.264,4.264,0,0,0,2.86,1.279c.1.012.194.022.256.033l.059.008c1.96.186,8.1.278,8.365.282h.016c.051,0,5.177-.034,8.572-.281l.045,0,.144-.016a3.979,3.979,0,0,0,2.727-1.3,6.153,6.153,0,0,0,1.122-2.926l0-.026c.008-.086.189-2.133.189-4.189V8.778C25.676,6.723,25.494,4.676,25.487,4.59ZM24.171,10.7c0,1.9-.166,3.861-.182,4.041a4.777,4.777,0,0,1-.738,2.084,2.474,2.474,0,0,1-1.776.824l-.16.018c-3.283.237-8.216.274-8.443.275-.255,0-6.31-.1-8.21-.273-.1-.016-.2-.028-.313-.041a2.813,2.813,0,0,1-1.924-.8l-.014-.015a4.334,4.334,0,0,1-.724-2.063C1.675,14.611,1.5,12.629,1.5,10.7V8.778c0-1.9.166-3.857.182-4.041a4.68,4.68,0,0,1,.738-2.085,2.6,2.6,0,0,1,1.813-.858L4.36,1.78c3.331-.239,8.3-.274,8.477-.275s5.145.037,8.446.275l.132.016a2.694,2.694,0,0,1,1.843.835l.006.006a4.4,4.4,0,0,1,.724,2.094c.011.128.182,2.115.182,4.048Zm0,0" fill="#0e34c4"/>
    </g>
  </g>
</svg>
