<svg xmlns="http://www.w3.org/2000/svg" width="25.736" height="13.656" viewBox="0 0 25.736 13.656">
  <g id="train" transform="translate(0 -120.163)">
    <g id="Group_66" data-name="Group 66" transform="translate(0 133.031)">
      <g id="Group_65" data-name="Group 65">
        <rect id="Rectangle_30" data-name="Rectangle 30" width="25.736" height="0.788"/>
      </g>
    </g>
    <g id="Group_68" data-name="Group 68" transform="translate(0 123.52)">
      <g id="Group_67" data-name="Group 67">
        <rect id="Rectangle_31" data-name="Rectangle 31" width="0.839" height="0.788"/>
      </g>
    </g>
    <g id="Group_70" data-name="Group 70" transform="translate(1.678 123.52)">
      <g id="Group_69" data-name="Group 69">
        <path id="Path_112" data-name="Path 112" d="M55.469,191.517l-3.243-3.243a4.5,4.5,0,0,0-3.206-1.328H33.391v.788H44.767a3.756,3.756,0,0,0,3.73,3.357h5.432l.983.983a1.584,1.584,0,0,1-1.12,2.7H37.307v.788H53.792a2.372,2.372,0,0,0,1.677-4.05ZM48.5,190.3a2.968,2.968,0,0,1-2.937-2.569h3.46a3.721,3.721,0,0,1,2.649,1.1l1.472,1.472Z" transform="translate(-33.391 -186.946)"/>
      </g>
    </g>
    <g id="Group_72" data-name="Group 72" transform="translate(8.558 125.198)">
      <g id="Group_71" data-name="Group 71">
        <path id="Path_113" data-name="Path 113" d="M170.25,220.338V222.8h3.585v-2.466Zm2.8,1.678h-2.01v-.891h2.01Z" transform="translate(-170.25 -220.338)"/>
      </g>
    </g>
    <g id="Group_74" data-name="Group 74" transform="translate(4.082 125.198)">
      <g id="Group_73" data-name="Group 73">
        <path id="Path_114" data-name="Path 114" d="M81.207,220.338V222.8h3.585v-2.466Zm2.8,1.678h-2.01v-.891H84Z" transform="translate(-81.207 -220.338)"/>
      </g>
    </g>
    <g id="Group_76" data-name="Group 76" transform="translate(0 125.198)">
      <g id="Group_75" data-name="Group 75">
        <path id="Path_115" data-name="Path 115" d="M0,220.338v.788H2.4v.891H0v.788H3.191v-2.466Z" transform="translate(0 -220.338)"/>
      </g>
    </g>
    <g id="Group_78" data-name="Group 78" transform="translate(1.678 131.352)">
      <g id="Group_77" data-name="Group 77">
        <rect id="Rectangle_32" data-name="Rectangle 32" width="2.797" height="0.788"/>
      </g>
    </g>
    <g id="Group_80" data-name="Group 80" transform="translate(0 131.352)">
      <g id="Group_79" data-name="Group 79">
        <rect id="Rectangle_33" data-name="Rectangle 33" width="0.839" height="0.788"/>
      </g>
    </g>
    <g id="Group_82" data-name="Group 82" transform="translate(3.357 129.674)">
      <g id="Group_81" data-name="Group 81">
        <rect id="Rectangle_34" data-name="Rectangle 34" width="5.035" height="0.788"/>
      </g>
    </g>
    <g id="Group_84" data-name="Group 84" transform="translate(1.678 129.674)">
      <g id="Group_83" data-name="Group 83">
        <rect id="Rectangle_35" data-name="Rectangle 35" width="0.839" height="0.788"/>
      </g>
    </g>
    <g id="Group_86" data-name="Group 86" transform="translate(9.511 121.842)">
      <g id="Group_85" data-name="Group 85">
        <rect id="Rectangle_36" data-name="Rectangle 36" width="5.035" height="0.788"/>
      </g>
    </g>
    <g id="Group_88" data-name="Group 88" transform="translate(7.833 121.842)">
      <g id="Group_87" data-name="Group 87">
        <rect id="Rectangle_37" data-name="Rectangle 37" width="0.839" height="0.788"/>
      </g>
    </g>
    <g id="Group_90" data-name="Group 90" transform="translate(6.714 120.163)">
      <g id="Group_89" data-name="Group 89">
        <rect id="Rectangle_38" data-name="Rectangle 38" width="3.357" height="0.788"/>
      </g>
    </g>
    <g id="Group_92" data-name="Group 92" transform="translate(5.035 120.163)">
      <g id="Group_91" data-name="Group 91">
        <rect id="Rectangle_39" data-name="Rectangle 39" width="0.839" height="0.788"/>
      </g>
    </g>
    <g id="Group_94" data-name="Group 94" transform="translate(17.881 128.555)">
      <g id="Group_93" data-name="Group 93">
        <rect id="Rectangle_40" data-name="Rectangle 40" width="0.788" height="0.788"/>
      </g>
    </g>
    <g id="Group_96" data-name="Group 96" transform="translate(16.305 128.555)">
      <g id="Group_95" data-name="Group 95">
        <rect id="Rectangle_41" data-name="Rectangle 41" width="0.788" height="0.788"/>
      </g>
    </g>
    <g id="Group_98" data-name="Group 98" transform="translate(21.032 128.555)">
      <g id="Group_97" data-name="Group 97">
        <rect id="Rectangle_42" data-name="Rectangle 42" width="0.788" height="0.788"/>
      </g>
    </g>
    <g id="Group_100" data-name="Group 100" transform="translate(19.456 128.555)">
      <g id="Group_99" data-name="Group 99">
        <rect id="Rectangle_43" data-name="Rectangle 43" width="0.788" height="0.788"/>
      </g>
    </g>
  </g>
</svg>
