<svg id="_030-ad-2" data-name="030-ad-2" xmlns="http://www.w3.org/2000/svg" width="20" height="20" viewBox="0 0 20 20">
  <g id="Group_41" data-name="Group 41">
    <g id="Group_40" data-name="Group 40">
      <path id="Path_62" data-name="Path 62" d="M19.583,0H.417A.416.416,0,0,0,0,.417V2.083A.416.416,0,0,0,.417,2.5H.833V14.583A.416.416,0,0,0,1.25,15H2.5v4.583A.416.416,0,0,0,2.917,20H4.583A.416.416,0,0,0,5,19.583V15H15v4.583a.416.416,0,0,0,.417.417h1.667a.416.416,0,0,0,.417-.417V15h1.25a.416.416,0,0,0,.417-.417V2.5h.417A.416.416,0,0,0,20,2.083V.417A.416.416,0,0,0,19.583,0ZM4.167,19.167H3.333V15h.833v4.167Zm12.5,0h-.833V15h.833Zm1.667-5H14.167v-.833h.417a.417.417,0,0,0,0-.833H12.917a.417.417,0,0,0,0,.833h.417v.833H6.667v-.833h.417a.417.417,0,0,0,0-.833H5.417a.417.417,0,0,0,0,.833h.417v.833H1.667V2.5H18.333V14.167Zm.833-12.5H.833V.833H19.167v.833Z"/>
      <path id="Path_63" data-name="Path 63" d="M107.083,128.832h10.833a.417.417,0,1,0,0-.833H107.083a.417.417,0,1,0,0,.833Z" transform="translate(-102.499 -122.999)"/>
      <path id="Path_64" data-name="Path 64" d="M107.083,214.166h10.833a.417.417,0,0,0,0-.833H107.083a.417.417,0,0,0,0,.833Z" transform="translate(-102.499 -205)"/>
    </g>
  </g>
</svg>
