<svg id="_034-leaflet" data-name="034-leaflet" xmlns="http://www.w3.org/2000/svg" width="20" height="20" viewBox="0 0 20 20">
  <g id="Group_62" data-name="Group 62">
    <g id="Group_61" data-name="Group 61">
      <path id="Path_103" data-name="Path 103" d="M18.333,3.333H10.188L9.144.282A.417.417,0,0,0,8.75,0H1.667A1.668,1.668,0,0,0,0,1.667V15a1.668,1.668,0,0,0,1.667,1.667H9.711L10.86,19.73a.417.417,0,0,0,.39.27h7.083A1.668,1.668,0,0,0,20,18.333V5A1.668,1.668,0,0,0,18.333,3.333ZM1.667,15.833A.834.834,0,0,1,.833,15V1.667A.834.834,0,0,1,1.667.833H8.452l5.131,15H1.667ZM12.184,9.167h4.483v5H13.894Zm-1.582,7.5h2.647L11.4,18.784Zm8.565,1.667a.834.834,0,0,1-.833.833H12.168l2.312-2.642-.006-.005c.009-.01.023-.015.031-.027a.416.416,0,0,0,.055-.377L14.179,15h2.9a.416.416,0,0,0,.417-.417V8.75a.416.416,0,0,0-.417-.417H11.9L10.473,4.167h7.86A.834.834,0,0,1,19.167,5V18.333Z"/>
      <path id="Path_104" data-name="Path 104" d="M64.418,132.167a.416.416,0,0,0,.417-.417v-.417h.833v.417a.417.417,0,1,0,.833,0v-2.5a1.25,1.25,0,0,0-2.5,0v2.5A.416.416,0,0,0,64.418,132.167Zm.417-2.917a.417.417,0,1,1,.833,0v1.25h-.833Z" transform="translate(-61.501 -123)"/>
      <path id="Path_105" data-name="Path 105" d="M149.75,132.167h.833a1.251,1.251,0,0,0,1.25-1.25V129.25a1.251,1.251,0,0,0-1.25-1.25h-.833a.416.416,0,0,0-.417.417v3.333A.416.416,0,0,0,149.75,132.167Zm.417-3.333h.417a.417.417,0,0,1,.417.417v1.667a.417.417,0,0,1-.417.417h-.417Z" transform="translate(-143.5 -123)"/>
      <path id="Path_106" data-name="Path 106" d="M71.083,277.333H64.417a.417.417,0,0,0,0,.833h6.667a.417.417,0,1,0,0-.833Z" transform="translate(-61.5 -266.5)"/>
    </g>
  </g>
</svg>
