<svg xmlns="http://www.w3.org/2000/svg" width="20" height="20" viewBox="0 0 20 20">
  <g id="_004-tv" data-name="004-tv" transform="translate(-0.004 0)">
    <g id="Group_60" data-name="Group 60" transform="translate(0.004 0)">
      <g id="Group_59" data-name="Group 59" transform="translate(0 0)">
        <path id="Path_99" data-name="Path 99" d="M18.186,4.546H11.34L16.19.815a.455.455,0,1,0-.554-.721L10,4.427,4.372.094a.455.455,0,1,0-.554.721l4.85,3.73H1.822A1.82,1.82,0,0,0,0,6.364V17.273a1.821,1.821,0,0,0,1.364,1.76v.512A.454.454,0,0,0,1.822,20H18.186a.454.454,0,0,0,.455-.455v-.512A1.821,1.821,0,0,0,20,17.273V6.364A1.82,1.82,0,0,0,18.186,4.546Zm.909,12.727a.91.91,0,0,1-.909.909.454.454,0,0,0-.455.455v.455H2.277v-.455a.454.454,0,0,0-.455-.455.91.91,0,0,1-.909-.909V6.364a.91.91,0,0,1,.909-.909H18.186a.91.91,0,0,1,.909.909V17.273Z" transform="translate(-0.004 0)"/>
        <path id="Path_100" data-name="Path 100" d="M57.49,149.694a54.3,54.3,0,0,0-6.559-.352,54.323,54.323,0,0,0-6.559.352,1.471,1.471,0,0,0-1.309,1.084,25.78,25.78,0,0,0,0,8.947,1.471,1.471,0,0,0,1.309,1.084,54.307,54.307,0,0,0,6.559.352,54.3,54.3,0,0,0,6.559-.352,1.47,1.47,0,0,0,1.309-1.084,25.747,25.747,0,0,0,0-8.946A1.47,1.47,0,0,0,57.49,149.694Zm.422,9.829a.588.588,0,0,1-.535.383,53.374,53.374,0,0,1-6.447.345,53.394,53.394,0,0,1-6.447-.345.589.589,0,0,1-.535-.383,24.925,24.925,0,0,1,0-8.544.588.588,0,0,1,.535-.383,53.393,53.393,0,0,1,6.447-.345,53.373,53.373,0,0,1,6.447.345.588.588,0,0,1,.535.383,24.9,24.9,0,0,1,0,8.545Z" transform="translate(-40.853 -142.978)"/>
        <path id="Path_101" data-name="Path 101" d="M161.368,234.674A1.365,1.365,0,0,0,160,236.038v2.727a.455.455,0,0,0,.909,0v-.455h.909v.455a.455.455,0,1,0,.909,0v-2.727A1.365,1.365,0,0,0,161.368,234.674Zm.455,2.727h-.909v-1.364a.455.455,0,0,1,.909,0V237.4Z" transform="translate(-153.186 -224.674)"/>
        <path id="Path_102" data-name="Path 102" d="M246.7,234.674h-.909a.454.454,0,0,0-.455.455v3.636a.454.454,0,0,0,.455.455h.909a1.365,1.365,0,0,0,1.364-1.364v-1.818A1.365,1.365,0,0,0,246.7,234.674Zm.455,3.182a.455.455,0,0,1-.455.455h-.455v-2.727h.455a.455.455,0,0,1,.455.455Z" transform="translate(-234.882 -224.674)"/>
      </g>
    </g>
  </g>
</svg>
