<svg xmlns="http://www.w3.org/2000/svg" width="15.245" height="22.868" viewBox="0 0 15.245 22.868">
  <g id="_018-lamp-post" data-name="018-lamp-post" transform="translate(-85.333)">
    <g id="Group_58" data-name="Group 58" transform="translate(85.333)">
      <path id="Path_98" data-name="Path 98" d="M100.1,8.575H89.621a.476.476,0,0,0-.476.476v1.429h-.953V7.146a.476.476,0,0,0-.476-.476h-.452A6.2,6.2,0,0,1,93.432.953h.953V2.907A2.857,2.857,0,0,0,92,5.717v.476a.476.476,0,0,0,.476.476h4.764a.476.476,0,0,0,.476-.476V5.717a2.857,2.857,0,0,0-2.382-2.81V.476A.476.476,0,0,0,94.861,0H93.432A7.149,7.149,0,0,0,86.31,6.67h-.5a.476.476,0,0,0-.476.476V22.391a.476.476,0,0,0,.953,0V7.623h.953V22.391a.476.476,0,0,0,.953,0V19.056h.953v1.429a.476.476,0,0,0,.476.476H100.1a.476.476,0,0,0,.476-.476V9.052A.476.476,0,0,0,100.1,8.575ZM96.767,5.717H92.956a1.906,1.906,0,1,1,3.811,0ZM89.144,18.1h-.953v-6.67h.953Zm10.481,1.906H90.1V9.528h9.528Z" transform="translate(-85.333)"/>
    </g>
  </g>
</svg>
