<svg xmlns="http://www.w3.org/2000/svg" width="27.187" height="16.485" viewBox="0 0 27.187 16.485">
  <g id="mall" transform="translate(0 -100.769)">
    <g id="Group_110" data-name="Group 110" transform="translate(0 100.769)">
      <g id="Group_109" data-name="Group 109" transform="translate(0 0)">
        <path id="Path_122" data-name="Path 122" d="M26.788,116.458H24.08v-3.889A1.725,1.725,0,0,0,22.8,110.9l-1.005-.269-.01,0L5.894,106.372v-.495a.4.4,0,0,1,.3-.384l14.6-3.913a.4.4,0,0,1,.383.1.389.389,0,0,1,.118.284v7.459a.4.4,0,1,0,.8,0h0v-7.458a1.195,1.195,0,0,0-1.5-1.154l-5.619,1.506v-.062a1.2,1.2,0,0,0-1.195-1.195H7.376a1.2,1.2,0,0,0-1.195,1.195v2.416l-.2.053a1.2,1.2,0,0,0-.886,1.154v.8h0a.394.394,0,0,0,0,.049c0,.005,0,.011,0,.016a.4.4,0,0,0,.29.318l17.2,4.61a.93.93,0,0,1,.689.9v3.889h-7.7v-1.195a1.195,1.195,0,0,0-1.195-1.195H12.8a1.195,1.195,0,0,0-1.195,1.195v1.195H3.9v-9.276a.4.4,0,0,1,.225-.358.4.4,0,0,0-.349-.716h0a1.194,1.194,0,0,0-.671,1.074v9.276H.4a.4.4,0,0,0,0,.8H12a.4.4,0,0,0,.4-.4v-1.593a.4.4,0,0,1,.4-.4H14.39a.4.4,0,0,1,.4.4v1.593a.4.4,0,0,0,.4.4h11.6a.4.4,0,1,0,0-.8Zm-19.81-14.2a.4.4,0,0,1,.4-.4H13.77a.4.4,0,0,1,.4.4v.276l-7.19,1.927Z" transform="translate(0 -100.769)"/>
      </g>
    </g>
  </g>
</svg>
