<svg id="_027-ad-3" data-name="027-ad-3" xmlns="http://www.w3.org/2000/svg" width="20" height="20" viewBox="0 0 20 20">
  <g id="Group_37" data-name="Group 37">
    <g id="Group_36" data-name="Group 36">
      <path id="Path_52" data-name="Path 52" d="M97.667,152.666A1.667,1.667,0,1,0,96,151,1.668,1.668,0,0,0,97.667,152.666Zm0-2.5a.833.833,0,1,1-.833.833A.834.834,0,0,1,97.667,150.166Z" transform="translate(-92.25 -143.5)"/>
      <path id="Path_53" data-name="Path 53" d="M19.583,0H.417a.417.417,0,0,0,0,.833H.833V11.667A1.668,1.668,0,0,0,2.5,13.333v1.25A.416.416,0,0,0,2.917,15h.417v4.583A.416.416,0,0,0,3.75,20H7.083a.416.416,0,0,0,.417-.417V15h.417a.416.416,0,0,0,.417-.417v-1.25h1.25v1.795a.822.822,0,0,0-.417.705.833.833,0,1,0,1.667,0,.822.822,0,0,0-.417-.705V13.333H17.5a1.668,1.668,0,0,0,1.667-1.667V.833h.417a.417.417,0,1,0,0-.833ZM7.5,14.167H7.083a.416.416,0,0,0-.417.417v4.583h-2.5V14.583a.416.416,0,0,0-.417-.417H3.333v-2.9a.405.405,0,0,1,.2-.358l.142-.08a2.893,2.893,0,0,1,1.74-.413,2.893,2.893,0,0,1,1.74.413l.142.08a.4.4,0,0,1,.2.358v2.9Zm10.833-2.5a.834.834,0,0,1-.833.833H8.333V11.269A1.237,1.237,0,0,0,7.7,10.18l-.13-.074a3.71,3.71,0,0,0-2.154-.523,3.71,3.71,0,0,0-2.154.523l-.131.074A1.237,1.237,0,0,0,2.5,11.269V12.5a.834.834,0,0,1-.833-.833V.833H18.333V11.667Z"/>
      <path id="Path_54" data-name="Path 54" d="M256.418,89.5a.416.416,0,0,0,.417-.417v-.417h.833v.417a.417.417,0,1,0,.833,0v-2.5a1.25,1.25,0,0,0-2.5,0v2.5A.416.416,0,0,0,256.418,89.5Zm.417-2.917a.417.417,0,0,1,.833,0v1.25h-.833v-1.25Z" transform="translate(-246.001 -82)"/>
      <path id="Path_55" data-name="Path 55" d="M341.75,89.5h.833a1.251,1.251,0,0,0,1.25-1.25V86.583a1.251,1.251,0,0,0-1.25-1.25h-.833a.416.416,0,0,0-.417.417v3.333A.416.416,0,0,0,341.75,89.5Zm.417-3.333h.417a.417.417,0,0,1,.417.417V88.25a.417.417,0,0,1-.417.417h-.417Z" transform="translate(-328 -82)"/>
      <path id="Path_56" data-name="Path 56" d="M235.083,235.5h6.667a.417.417,0,0,0,0-.833h-6.667a.417.417,0,0,0,0,.833Z" transform="translate(-225.499 -225.499)"/>
    </g>
  </g>
</svg>
