<svg id="_017-message" data-name="017-message" xmlns="http://www.w3.org/2000/svg" width="20" height="20" viewBox="0 0 20 20">
  <g id="Group_64" data-name="Group 64">
    <g id="Group_63" data-name="Group 63">
      <path id="Path_107" data-name="Path 107" d="M18.182,0H1.818A1.82,1.82,0,0,0,0,1.818V19.545a.454.454,0,0,0,.776.321l4.412-4.412H18.182A1.82,1.82,0,0,0,20,13.636V1.818A1.82,1.82,0,0,0,18.182,0Zm.909,13.636a.91.91,0,0,1-.909.909H5a.454.454,0,0,0-.321.133l-3.77,3.77V1.818A.91.91,0,0,1,1.818.909H18.182a.91.91,0,0,1,.909.909V13.636Z"/>
      <path id="Path_108" data-name="Path 108" d="M321.364,170.667h-.909a.455.455,0,0,0,0,.909h.909a.455.455,0,1,0,0-.909Z" transform="translate(-306.364 -163.394)"/>
      <path id="Path_109" data-name="Path 109" d="M321.042,85.467l-.909.909a.455.455,0,1,0,.643.643l.909-.909a.455.455,0,0,0-.643-.643Z" transform="translate(-306.363 -81.697)"/>
      <path id="Path_110" data-name="Path 110" d="M320.776,234.8a.454.454,0,1,0-.643.643l.909.909a.455.455,0,1,0,.643-.643Z" transform="translate(-306.363 -224.667)"/>
      <path id="Path_111" data-name="Path 111" d="M114.393,85.333a.454.454,0,0,0-.455.455v.575l-6.395,2a.452.452,0,0,0-.878.154v1.818a.452.452,0,0,0,.878.154l.941.294s0,0,0,.007a1.8,1.8,0,0,0,3.3,1.024l2.156.674v.575a.455.455,0,1,0,.909,0V85.788A.454.454,0,0,0,114.393,85.333ZM110.3,91.7a.9.9,0,0,1-.849-.613l1.385.433A.893.893,0,0,1,110.3,91.7Zm3.636-.164-6.364-1.988V89.3l6.364-1.988Z" transform="translate(-102.121 -81.697)"/>
    </g>
  </g>
</svg>
