<svg id="_032-ad-1" data-name="032-ad-1" xmlns="http://www.w3.org/2000/svg" width="25.471" height="25.471" viewBox="0 0 25.471 25.471">
  <g id="Group_47" data-name="Group 47">
    <g id="Group_46" data-name="Group 46">
      <path id="Path_72" data-name="Path 72" d="M24.893,17.367a.579.579,0,0,0,.579-.579V2.894a.579.579,0,0,0-.579-.579H23.156V1.158h.579a.579.579,0,1,0,0-1.158H21.419a.579.579,0,0,0,0,1.158H22V2.316H13.315V1.158h.579a.579.579,0,1,0,0-1.158H11.578a.579.579,0,0,0,0,1.158h.579V2.316H3.473V1.158h.579A.579.579,0,1,0,4.052,0H1.737a.579.579,0,1,0,0,1.158h.579V2.316H.579A.579.579,0,0,0,0,2.894V16.788a.579.579,0,0,0,.579.579H2.316v1.158H.579a.579.579,0,1,0,0,1.158H2.316v5.21a.579.579,0,0,0,1.158,0v-5.21H22v5.21a.579.579,0,0,0,1.158,0v-5.21h1.737a.579.579,0,1,0,0-1.158H23.156V17.367ZM22,18.525H3.473V17.367H22ZM1.158,16.209V3.473H24.314V16.209Z"/>
      <path id="Path_73" data-name="Path 73" d="M81.946,128H64.579a.579.579,0,0,0,0,1.158H81.946a.579.579,0,0,0,0-1.158Z" transform="translate(-60.527 -121.053)"/>
      <path id="Path_74" data-name="Path 74" d="M81.946,213.333H64.579a.579.579,0,0,0,0,1.158H81.946a.579.579,0,0,0,0-1.158Z" transform="translate(-60.527 -201.755)"/>
    </g>
  </g>
</svg>
