<svg id="_025-announcer" data-name="025-announcer" xmlns="http://www.w3.org/2000/svg" width="20" height="20" viewBox="0 0 20 20">
  <g id="Group_33" data-name="Group 33">
    <g id="Group_32" data-name="Group 32">
      <path id="Path_43" data-name="Path 43" d="M111.667,10a5,5,0,1,0-5-5A5.005,5.005,0,0,0,111.667,10Zm0-9.167A4.167,4.167,0,1,1,107.5,5,4.172,4.172,0,0,1,111.667.833Z" transform="translate(-102.5)"/>
      <path id="Path_44" data-name="Path 44" d="M8.982,284H1.667a.834.834,0,0,1-.833-.833v-.61a2.919,2.919,0,0,1,1.6-2.6,15.191,15.191,0,0,1,6.735-1.787,14.3,14.3,0,0,1,5.776,1.334.417.417,0,0,0,.339-.762,15.123,15.123,0,0,0-6.115-1.406,16.028,16.028,0,0,0-7.116,1.879A3.749,3.749,0,0,0,0,282.556v.61a1.669,1.669,0,0,0,1.667,1.667H8.982a.417.417,0,1,0,0-.833Z" transform="translate(0 -266.5)"/>
      <path id="Path_45" data-name="Path 45" d="M470.583,405.333h-.833a.417.417,0,0,0,0,.833h.833a.417.417,0,1,0,0-.833Z" transform="translate(-451 -389.5)"/>
      <path id="Path_46" data-name="Path 46" d="M469.75,321.667a.415.415,0,0,0,.295-.122l.833-.833a.417.417,0,0,0-.589-.589l-.833.833a.417.417,0,0,0,.295.711Z" transform="translate(-451 -307.501)"/>
      <path id="Path_47" data-name="Path 47" d="M470.045,469.455a.417.417,0,1,0-.589.589l.833.833a.417.417,0,0,0,.589-.589Z" transform="translate(-451 -451)"/>
      <path id="Path_48" data-name="Path 48" d="M263.082,320a.416.416,0,0,0-.417.417v.527l-5.862,1.832a.414.414,0,0,0-.8.141v1.667a.414.414,0,0,0,.8.141l.863.27s0,0,0,.006a1.654,1.654,0,0,0,3.024.939l1.976.618v.527a.417.417,0,0,0,.833,0v-6.667A.416.416,0,0,0,263.082,320Zm-3.75,5.833a.827.827,0,0,1-.778-.562l1.269.4A.819.819,0,0,1,259.332,325.833Zm3.333-.15-5.833-1.823v-.221l5.833-1.823Z" transform="translate(-245.999 -307.5)"/>
    </g>
  </g>
</svg>
