<svg xmlns="http://www.w3.org/2000/svg" width="16" height="21.333" viewBox="0 0 16 21.333">
  <g id="_036-advertising" data-name="036-advertising" transform="translate(-64)">
    <g id="Group_55" data-name="Group 55" transform="translate(64)">
      <g id="Group_54" data-name="Group 54" transform="translate(0)">
        <path id="Path_87" data-name="Path 87" d="M182.666,170.667A1.335,1.335,0,0,0,181.333,172v2.667a.444.444,0,0,0,.889,0v-.444h.889v.444a.444.444,0,1,0,.889,0V172A1.335,1.335,0,0,0,182.666,170.667Zm.444,2.667h-.889V172a.444.444,0,1,1,.889,0Z" transform="translate(-176.444 -163.556)"/>
        <path id="Path_88" data-name="Path 88" d="M268,170.667h-.889a.444.444,0,0,0-.444.444v3.556a.444.444,0,0,0,.444.444H268a1.335,1.335,0,0,0,1.333-1.333V172A1.335,1.335,0,0,0,268,170.667Zm.444,3.111a.445.445,0,0,1-.444.444h-.444v-2.667H268a.445.445,0,0,1,.444.444Z" transform="translate(-258.223 -163.556)"/>
        <path id="Path_89" data-name="Path 89" d="M79.556,1.778h-.444V1.333a.444.444,0,0,0-.444-.444H72.444V.444a.444.444,0,1,0-.889,0V.889H65.333a.444.444,0,0,0-.444.444v.444h-.444a.444.444,0,1,0,0,.889h.444v.444a.444.444,0,0,0,.444.444h.444V15.111h-.444a.444.444,0,0,0-.444.444v1.778a.444.444,0,0,0,.444.444h6.222v1.075L68.668,20.5a.444.444,0,1,0,.441.772l2.446-1.4v1.012a.444.444,0,0,0,.889,0V19.877l2.446,1.4a.44.44,0,0,0,.22.059.444.444,0,0,0,.221-.83l-2.887-1.65V17.778h6.222a.444.444,0,0,0,.444-.444V15.556a.444.444,0,0,0-.444-.444h-.444V3.556h.444a.444.444,0,0,0,.444-.444V2.667h.444a.444.444,0,1,0,0-.889ZM78.222,16.889H65.778V16H78.222v.889ZM66.667,15.111V3.556H77.333V15.111H66.667ZM78.222,2.667H65.778V1.778H78.222v.889Z" transform="translate(-64)"/>
      </g>
    </g>
  </g>
</svg>
