<svg xmlns="http://www.w3.org/2000/svg" width="16" height="21.333" viewBox="0 0 16 21.333">
  <g id="_035-flag" data-name="035-flag" transform="translate(-64)">
    <g id="Group_43" data-name="Group 43" transform="translate(64)">
      <g id="Group_42" data-name="Group 42" transform="translate(0)">
        <path id="Path_65" data-name="Path 65" d="M71.5,6.888A4.759,4.759,0,0,0,67.24,0H65.333a.444.444,0,0,0-.444.444v20h-.444a.444.444,0,1,0,0,.889h1.778a.444.444,0,1,0,0-.889h-.444V18.327Zm-5.72-6H67.24A3.87,3.87,0,0,1,70.7,6.49l-4.924,9.849Z" transform="translate(-64)"/>
        <path id="Path_66" data-name="Path 66" d="M260.888,0h-3.556a.444.444,0,0,0-.444.444v20h-.444a.444.444,0,1,0,0,.889h1.778a.444.444,0,1,0,0-.889h-.444V17.778h3.111A3.115,3.115,0,0,0,264,14.667V3.111A3.115,3.115,0,0,0,260.888,0Zm2.222,14.667a2.225,2.225,0,0,1-2.222,2.222h-3.111v-16h3.111a2.225,2.225,0,0,1,2.222,2.222Z" transform="translate(-247.999)"/>
      </g>
    </g>
  </g>
</svg>
