<svg id="_012-online" data-name="012-online" xmlns="http://www.w3.org/2000/svg" width="20" height="20" viewBox="0 0 20 20">
  <g id="Group_57" data-name="Group 57">
    <g id="Group_56" data-name="Group 56">
      <path id="Path_90" data-name="Path 90" d="M18.182,0H1.818A1.82,1.82,0,0,0,0,1.818V18.182A1.82,1.82,0,0,0,1.818,20H18.182A1.82,1.82,0,0,0,20,18.182V1.818A1.82,1.82,0,0,0,18.182,0Zm.909,18.182a.91.91,0,0,1-.909.909H1.818a.91.91,0,0,1-.909-.909V4.545H19.091Zm0-14.545H.909V1.818A.91.91,0,0,1,1.818.909H18.182a.91.91,0,0,1,.909.909V3.636Z"/>
      <circle id="Ellipse_7" data-name="Ellipse 7" cx="0.455" cy="0.455" r="0.455" transform="translate(1.818 1.818)"/>
      <circle id="Ellipse_8" data-name="Ellipse 8" cx="0.455" cy="0.455" r="0.455" transform="translate(3.636 1.818)"/>
      <circle id="Ellipse_9" data-name="Ellipse 9" cx="0.455" cy="0.455" r="0.455" transform="translate(5.455 1.818)"/>
      <path id="Path_91" data-name="Path 91" d="M64.455,157.515h9.091A.454.454,0,0,0,74,157.06v-7.273a.454.454,0,0,0-.455-.455H64.455a.454.454,0,0,0-.455.455v7.273A.454.454,0,0,0,64.455,157.515Zm.455-7.273h8.182v6.364H64.909Z" transform="translate(-61.273 -142.969)"/>
      <path id="Path_92" data-name="Path 92" d="M108.031,192a1.365,1.365,0,0,0-1.364,1.364v2.727a.455.455,0,0,0,.909,0v-.455h.909v.455a.455.455,0,1,0,.909,0v-2.727A1.365,1.365,0,0,0,108.031,192Zm.455,2.727h-.909v-1.364a.455.455,0,0,1,.909,0v1.364Z" transform="translate(-102.122 -183.818)"/>
      <path id="Path_93" data-name="Path 93" d="M193.364,192h-.909a.454.454,0,0,0-.455.455v3.636a.454.454,0,0,0,.455.455h.909a1.365,1.365,0,0,0,1.364-1.364v-1.818A1.365,1.365,0,0,0,193.364,192Zm.455,3.182a.455.455,0,0,1-.455.455h-.455v-2.727h.455a.455.455,0,0,1,.455.455Z" transform="translate(-183.818 -183.818)"/>
      <path id="Path_94" data-name="Path 94" d="M64.455,384.908H78.091a.455.455,0,1,0,0-.909H64.455a.455.455,0,1,0,0,.909Z" transform="translate(-61.273 -367.635)"/>
      <path id="Path_95" data-name="Path 95" d="M320.455,192.909h2.727a.455.455,0,1,0,0-.909h-2.727a.455.455,0,1,0,0,.909Z" transform="translate(-306.364 -183.818)"/>
      <path id="Path_96" data-name="Path 96" d="M320.455,256.909h2.727a.455.455,0,1,0,0-.909h-2.727a.455.455,0,1,0,0,.909Z" transform="translate(-306.364 -245.091)"/>
      <path id="Path_97" data-name="Path 97" d="M320.455,320.908h2.727a.455.455,0,0,0,0-.909h-2.727a.455.455,0,1,0,0,.909Z" transform="translate(-306.364 -306.363)"/>
    </g>
  </g>
</svg>
