<svg id="_025-announcer" data-name="025-announcer" xmlns="http://www.w3.org/2000/svg" width="23.414" height="19.333" viewBox="0 0 23.414 19.333">
  <g id="Group_33" data-name="Group 33">
    <g id="Group_32" data-name="Group 32">
      <path id="Path_43" data-name="Path 43" d="M111.667,10a5,5,0,1,0-5-5A5.005,5.005,0,0,0,111.667,10Zm0-9.167A4.167,4.167,0,1,1,107.5,5,4.172,4.172,0,0,1,111.667.833Z" transform="translate(-102.5)"/>
      <path id="Path_117" data-name="Path 117" d="M110.664,7.994a4,4,0,1,0-4-4A4,4,0,0,0,110.664,7.994Zm0-7.328A3.331,3.331,0,1,1,107.333,4,3.335,3.335,0,0,1,110.664.666Z" transform="translate(-92.336 4.678)"/>
      <path id="Path_44" data-name="Path 44" d="M8.982,284H1.667a.834.834,0,0,1-.833-.833v-.61a2.919,2.919,0,0,1,1.6-2.6,15.191,15.191,0,0,1,6.735-1.787,14.3,14.3,0,0,1,5.776,1.334.417.417,0,0,0,.339-.762,15.123,15.123,0,0,0-6.115-1.406,16.028,16.028,0,0,0-7.116,1.879A3.749,3.749,0,0,0,0,282.556v.61a1.669,1.669,0,0,0,1.667,1.667H8.982a.417.417,0,1,0,0-.833Z" transform="translate(0 -266.5)"/>
      <path id="Path_116" data-name="Path 116" d="M7.18,282.662H1.332A.667.667,0,0,1,.666,282v-.488a2.334,2.334,0,0,1,1.278-2.081A12.144,12.144,0,0,1,7.328,278a11.428,11.428,0,0,1,4.618,1.067.333.333,0,0,0,.271-.609,12.089,12.089,0,0,0-4.888-1.124,12.813,12.813,0,0,0-5.688,1.5A3,3,0,0,0,0,281.509V282a1.334,1.334,0,0,0,1.332,1.332H7.18a.333.333,0,1,0,0-.666Z" transform="translate(11 -263.995)"/>
    </g>
  </g>
</svg>
