<svg xmlns="http://www.w3.org/2000/svg" width="25.472" height="19.104" viewBox="0 0 25.472 19.104">
  <g id="_026-truck" data-name="026-truck" transform="translate(0 -64)">
    <g id="Group_49" data-name="Group 49" transform="translate(0 64)">
      <g id="Group_48" data-name="Group 48">
        <path id="Path_75" data-name="Path 75" d="M25.316,71.585,20.01,66.278a.53.53,0,0,0-.375-.155H14.858A2.125,2.125,0,0,0,12.736,64H2.123A2.125,2.125,0,0,0,0,66.123v13.8a1.063,1.063,0,0,0,1.061,1.061H2.849a3.165,3.165,0,0,0,5.977,0h7.82a3.165,3.165,0,0,0,5.977,0h.726a2.125,2.125,0,0,0,2.123-2.123v-6.9A.531.531,0,0,0,25.316,71.585ZM2.653,79.92H1.061V78.858H2.849A3.147,3.147,0,0,0,2.653,79.92Zm3.184,2.123A2.123,2.123,0,1,1,7.96,79.92,2.125,2.125,0,0,1,5.837,82.042ZM13.8,79.92H9.021a3.146,3.146,0,0,0-.2-1.061H13.8Zm0-2.123h-5.6a3.145,3.145,0,0,0-4.712,0H1.061V66.123a1.063,1.063,0,0,1,1.061-1.061H12.736A1.063,1.063,0,0,1,13.8,66.123Zm5.837,4.245a2.123,2.123,0,1,1,2.123-2.123A2.125,2.125,0,0,1,19.634,82.042Zm4.776-3.184a1.063,1.063,0,0,1-1.061,1.061h-.531a3.184,3.184,0,1,0-6.368,0H14.858V67.184h4.556l5,5Z" transform="translate(0 -64)"/>
        <path id="Path_76" data-name="Path 76" d="M342.394,149.864a.531.531,0,0,0-1.061,0v4.245a.53.53,0,0,0,.531.531h5.307a.531.531,0,0,0,0-1.061h-4.776Z" transform="translate(-324.352 -145.088)"/>
        <path id="Path_77" data-name="Path 77" d="M76.259,149.333a1.594,1.594,0,0,0-1.592,1.592v3.184a.531.531,0,1,0,1.061,0v-.531H76.79v.531a.531.531,0,1,0,1.061,0v-3.184A1.594,1.594,0,0,0,76.259,149.333Zm.531,3.184H75.728v-1.592a.531.531,0,1,1,1.061,0v1.592Z" transform="translate(-70.952 -145.088)"/>
        <path id="Path_78" data-name="Path 78" d="M161.592,149.333h-1.061a.53.53,0,0,0-.531.531v4.245a.53.53,0,0,0,.531.531h1.061a1.594,1.594,0,0,0,1.592-1.592v-2.123A1.594,1.594,0,0,0,161.592,149.333Zm.531,3.715a.531.531,0,0,1-.531.531h-.531v-3.184h.531a.531.531,0,0,1,.531.531Z" transform="translate(-152.04 -145.088)"/>
      </g>
    </g>
  </g>
</svg>
