<svg xmlns="http://www.w3.org/2000/svg" width="16.648" height="24.972" viewBox="0 0 16.648 24.972">
  <g id="_028-board-2" data-name="028-board-2" transform="translate(-85.333)">
    <g id="Group_51" data-name="Group 51" transform="translate(85.333)">
      <g id="Group_50" data-name="Group 50">
        <path id="Path_79" data-name="Path 79" d="M181.854,261.2a.52.52,0,0,0,.52-.52v-.52h1.04v.52a.52.52,0,0,0,1.041,0v-3.121a1.561,1.561,0,1,0-3.121,0v3.121A.52.52,0,0,0,181.854,261.2Zm.52-3.642a.52.52,0,1,1,1.041,0v1.561h-1.04v-1.561Z" transform="translate(-176.652 -243.514)"/>
        <path id="Path_80" data-name="Path 80" d="M267.186,261.2h1.04a1.562,1.562,0,0,0,1.561-1.561v-2.081A1.562,1.562,0,0,0,268.227,256h-1.04a.52.52,0,0,0-.52.52v4.162A.52.52,0,0,0,267.186,261.2Zm.52-4.162h.52a.521.521,0,0,1,.52.52v2.081a.521.521,0,0,1-.52.52h-.52Z" transform="translate(-257.822 -243.514)"/>
        <path id="Path_81" data-name="Path 81" d="M101.46,8.324a.52.52,0,0,0,.52-.52V5.723a.52.52,0,0,0-.52-.52H100.22a7.248,7.248,0,0,0-5.538-4.086c0-.026.015-.049.015-.076a1.04,1.04,0,0,0-2.081,0c0,.027.013.05.015.076A7.247,7.247,0,0,0,87.094,5.2H85.853a.52.52,0,0,0-.52.52V7.8a.52.52,0,0,0,.52.52h.52v14.06a2.59,2.59,0,0,0-1.04,2.068.52.52,0,0,0,.52.52H101.46a.52.52,0,0,0,.52-.52,2.59,2.59,0,0,0-1.04-2.068V8.324Zm-7.8-6.243a6.221,6.221,0,0,1,5.4,3.121h-10.8A6.221,6.221,0,0,1,93.657,2.081Zm-7.194,21.85a1.564,1.564,0,0,1,1.472-1.04H99.38a1.564,1.564,0,0,1,1.472,1.04Zm.952-2.028V8.324H99.9V21.9a2.6,2.6,0,0,0-.52-.053H87.934A2.6,2.6,0,0,0,87.414,21.9ZM86.374,7.283V6.243H100.94v1.04H86.374Z" transform="translate(-85.333)"/>
      </g>
    </g>
  </g>
</svg>
