<svg xmlns="http://www.w3.org/2000/svg" width="20" height="21.818" viewBox="0 0 20 21.818">
  <g id="_021-t-shirt" data-name="021-t-shirt" transform="translate(-21.335 0.001)">
    <g id="Group_35" data-name="Group 35" transform="translate(21.335 -0.001)">
      <g id="Group_34" data-name="Group 34" transform="translate(0)">
        <path id="Path_49" data-name="Path 49" d="M41.329,9.925c-.095-.568-.952-5.591-1.888-7A8.756,8.756,0,0,0,35.115.023a.452.452,0,0,0-.465.11,8.65,8.65,0,0,1-3.315.776A8.65,8.65,0,0,1,28.02.133a.451.451,0,0,0-.465-.11A8.756,8.756,0,0,0,23.23,2.929c-.936,1.4-1.794,6.428-1.888,7a.455.455,0,0,0,.245.481,5.96,5.96,0,0,0,2.476.5,6.577,6.577,0,0,0,.909-.071v9.616a.455.455,0,0,0,.2.378c.06.04,1.531.985,6.161.985s6.1-.945,6.161-.985a.455.455,0,0,0,.2-.378V10.838a6.577,6.577,0,0,0,.909.071,5.96,5.96,0,0,0,2.476-.5A.454.454,0,0,0,41.329,9.925ZM31.335,1.818a11.757,11.757,0,0,0,2.615-.436,3.307,3.307,0,0,1-2.615,1.345A3.307,3.307,0,0,1,28.72,1.382,11.754,11.754,0,0,0,31.335,1.818ZM38.608,10a5.634,5.634,0,0,1-.909-.082V7.727a3.66,3.66,0,0,1,.338-1.968.455.455,0,0,0-.659-.626c-.1.1-.588.684-.588,2.594V20.174a14.508,14.508,0,0,1-5.455.735,14.513,14.513,0,0,1-5.455-.735V7.727c0-1.91-.49-2.5-.588-2.594a.467.467,0,0,0-.652-.01.443.443,0,0,0-.009.633,3.58,3.58,0,0,1,.34,1.971V9.918a5.639,5.639,0,0,1-.909.082A5.5,5.5,0,0,1,22.3,9.714c.3-1.7,1.035-5.3,1.686-6.28a7.524,7.524,0,0,1,3.461-2.4,4.358,4.358,0,0,0,3.888,2.607,4.358,4.358,0,0,0,3.888-2.607,7.524,7.524,0,0,1,3.461,2.4c.651.976,1.385,4.578,1.686,6.281A5.468,5.468,0,0,1,38.608,10Z" transform="translate(-21.335 0.001)"/>
        <path id="Path_50" data-name="Path 50" d="M182.7,192.008a1.365,1.365,0,0,0-1.364,1.364V196.1a.455.455,0,1,0,.909,0v-.455h.909v.455a.455.455,0,0,0,.909,0v-2.727A1.365,1.365,0,0,0,182.7,192.008Zm.455,2.727h-.909v-1.364a.455.455,0,0,1,.909,0v1.364Z" transform="translate(-174.52 -183.826)"/>
        <path id="Path_51" data-name="Path 51" d="M268.035,192.008h-.909a.454.454,0,0,0-.455.455V196.1a.454.454,0,0,0,.455.455h.909a1.365,1.365,0,0,0,1.364-1.364v-1.818A1.365,1.365,0,0,0,268.035,192.008Zm.455,3.182a.455.455,0,0,1-.455.455h-.455v-2.727h.455a.455.455,0,0,1,.455.455Z" transform="translate(-256.216 -183.826)"/>
      </g>
    </g>
  </g>
</svg>
