<svg xmlns="http://www.w3.org/2000/svg" width="24.416" height="24.415" viewBox="0 0 24.416 24.415">
  <g id="Group_5748" data-name="Group 5748" transform="translate(-371 -5158.56)">
    <g id="meeting" transform="translate(370.999 5158.561)">
      <path id="Path_8488" data-name="Path 8488" d="M25.542,236.406a3.589,3.589,0,0,0-.395-4.608l-1.6-1.6a9.885,9.885,0,0,0,.286-3.7.358.358,0,0,0-.711.079,9.173,9.173,0,0,1-.166,3.033l-.512-.512a1.391,1.391,0,1,0-1.967,1.967l1.344,1.343a9.21,9.21,0,0,1-9.846,4.163l.513-.513a1.391,1.391,0,0,0-1.967-1.966l-1.346,1.345a9.265,9.265,0,0,1-3.093-3.13c0-.008-.007-.016-.011-.023-.151-.257-.29-.519-.411-.781a9.085,9.085,0,0,1-.452-1.167.364.364,0,0,0-.021-.051,9.183,9.183,0,0,1-.363-3.523.358.358,0,1,0-.712-.064,9.889,9.889,0,0,0,.347,3.647l-1.54,1.54a3.588,3.588,0,0,0-.41,4.586l-.036.036a1.423,1.423,0,0,0,0,2.013l.663.663a1.425,1.425,0,0,0,2.013,0l.032-.032a3.565,3.565,0,0,0,2.065.657,3.637,3.637,0,0,0,.662-.061.358.358,0,1,0-.13-.7,2.863,2.863,0,0,1-2.081-.409l.753-.753a1.414,1.414,0,0,0,.374-.659,1.358,1.358,0,0,0,1.731-.155l.927-.926,0,0,1.543-1.543a.677.677,0,0,1,.956,0,.675.675,0,0,1,0,.954l-.954.954,0,0-1.741,1.74a2.927,2.927,0,0,1-.3.263.358.358,0,1,0,.431.57,3.6,3.6,0,0,0,.376-.328l1.6-1.595a9.9,9.9,0,0,0,5.339-.041l1.547,1.547a3.579,3.579,0,0,0,2.394,1.048q.073,0,.145,0a3.574,3.574,0,0,0,2.047-.642l.036.036a1.425,1.425,0,0,0,2.013,0l.663-.663a1.423,1.423,0,0,0,0-2.013Zm-22.953-2.1a2.866,2.866,0,0,1,.84-1.916l1.287-1.286a9.851,9.851,0,0,0,.605,1.3l-.71.71a1.357,1.357,0,0,0-.169,1.712,1.415,1.415,0,0,0-.663.374l-.75.75A2.863,2.863,0,0,1,2.59,234.309Zm3.36,3.069-1.04,1.039h0l-.261.261a.709.709,0,0,1-1,0l-.663-.663a.708.708,0,0,1,0-1l.256-.256,0,0,1.043-1.043a.709.709,0,0,1,1,0l.634.633.032.032a.709.709,0,0,1,0,1Zm2.106-.814a.64.64,0,0,1-.906,0l-.691-.691,0,0-.309-.309-.354-.354,0,0-.673-.673a.64.64,0,0,1,0-.906l.587-.587a9.968,9.968,0,0,0,1.107,1.392l-.184.184a.358.358,0,0,0,.506.506l.19-.19a9.927,9.927,0,0,0,1.34,1.026Zm12.934-6.959a.676.676,0,0,1,.955,0l2.7,2.7a2.889,2.889,0,0,1,.385,3.587l-.753-.753a1.416,1.416,0,0,0-.659-.373,1.356,1.356,0,0,0-.155-1.732l-2.472-2.471A.676.676,0,0,1,20.989,229.605Zm-.171,5.174.186.186a.358.358,0,1,0,.506-.506l-.193-.193a9.954,9.954,0,0,0,1.027-1.34l.61.61a.64.64,0,0,1,0,.906l-.692.692,0,0-.663.663,0,0-.674.674a.642.642,0,0,1-.906,0l-.591-.591A9.908,9.908,0,0,0,20.818,234.78ZM20.7,239a2.866,2.866,0,0,1-1.916-.84l-1.29-1.291c.24-.09.476-.19.707-.3.2-.094.4-.2.6-.306l.712.712a1.358,1.358,0,0,0,1.712.169,1.416,1.416,0,0,0,.375.663l.749.749A2.868,2.868,0,0,1,20.7,239Zm4.371-1.058-.663.663a.709.709,0,0,1-1,0l-1.3-1.3a.708.708,0,0,1,0-1l.665-.665a.709.709,0,0,1,1,0l1.046,1.046h0l.255.255a.708.708,0,0,1,0,1Zm0,0" transform="translate(-1.782 -215.396)" fill="#0e34c4"/>
      <path id="Path_8489" data-name="Path 8489" d="M3.751,10.707A1.39,1.39,0,0,0,5.717,8.74l-1.35-1.35A9.22,9.22,0,0,1,5.6,5.806a.386.386,0,0,0,.029-.026.358.358,0,0,0,.032-.037L5.7,5.7A9.232,9.232,0,0,1,7.472,4.317a.362.362,0,0,0,.053-.026c.254-.15.517-.289.78-.411a9.152,9.152,0,0,1,1.167-.452.352.352,0,0,0,.06-.025,9.188,9.188,0,0,1,4.7-.172l-.518.518a1.39,1.39,0,0,0,1.966,1.966l1.348-1.348a9.269,9.269,0,0,1,3.158,3.251,13.415,13.415,0,0,1,.8,1.813A.352.352,0,0,0,21,9.508h0c.072.238.214.212.327.212h0a.357.357,0,0,0,.253-.1l1.7-1.7a3.589,3.589,0,0,0,.41-4.586l.036-.036a1.424,1.424,0,0,0,0-2.013L23.061.624a1.425,1.425,0,0,0-2.013,0l-.032.032a3.591,3.591,0,0,0-4.609.395L14.817,2.64a9.9,9.9,0,0,0-5.354.037L7.924,1.138A3.589,3.589,0,0,0,3.337.728L3.3.692a1.425,1.425,0,0,0-2.013,0l-.663.663a1.423,1.423,0,0,0,0,2.013L.658,3.4a3.589,3.589,0,0,0,.394,4.608ZM19.731,3.923l.015.015,1.339,1.338a.64.64,0,0,1,0,.906L20.5,6.77a9.972,9.972,0,0,0-1.106-1.393l.184-.184a.358.358,0,1,0-.506-.506l-.189.189a9.922,9.922,0,0,0-1.339-1.028l.605-.605a.642.642,0,0,1,.906,0ZM23.612,5.5a2.864,2.864,0,0,1-.84,1.916l-1.3,1.3a12.817,12.817,0,0,0-.6-1.31l.713-.714a1.356,1.356,0,0,0,.169-1.712,1.415,1.415,0,0,0,.663-.374l.749-.749A2.862,2.862,0,0,1,23.612,5.5ZM22.054.922a.706.706,0,0,1,.5.207l.663.663a.709.709,0,0,1,0,1l-.26.26,0,0L21.917,4.1a.709.709,0,0,1-1,0l-.663-.663a.709.709,0,0,1,0-1l1.3-1.3A.705.705,0,0,1,22.054.922Zm-5.142.634A2.89,2.89,0,0,1,20.5,1.171l-.754.753a1.414,1.414,0,0,0-.373.659,1.358,1.358,0,0,0-1.733.154L15.169,5.209a.676.676,0,0,1-.955,0,.675.675,0,0,1,0-.955ZM3.246,6.269a.64.64,0,0,1,0-.906L5.279,3.331a.641.641,0,0,1,.906,0l.584.584A9.975,9.975,0,0,0,5.376,5.021L5.2,4.841a.358.358,0,0,0-.506.506l.186.186a9.913,9.913,0,0,0-1.027,1.34ZM5.5.8a2.865,2.865,0,0,1,1.916.84L8.7,2.928a9.889,9.889,0,0,0-1.305.6L6.69,2.825a1.358,1.358,0,0,0-1.712-.168A1.414,1.414,0,0,0,4.6,1.993l-.749-.749A2.864,2.864,0,0,1,5.5.8ZM1.131,1.861,1.794,1.2a.709.709,0,0,1,1,0l.259.259,0,0L4.1,2.5a.709.709,0,0,1,0,1l-.663.663a.709.709,0,0,1-1,0l-1.3-1.3a.708.708,0,0,1,0-1Zm.042,2.055.753.753a1.416,1.416,0,0,0,.659.373A1.355,1.355,0,0,0,2.74,6.775L5.211,9.246a.675.675,0,0,1-.955.955l-2.7-2.7A2.888,2.888,0,0,1,1.173,3.916Zm0,0" transform="translate(0 0)" fill="#0e34c4"/>
      <path id="Path_8490" data-name="Path 8490" d="M115.4,279.034l-1.755,1.556a.672.672,0,0,0-.057.948l.967,1.091,0,0,0,0,.928,1.047a.672.672,0,0,0,.947.057l1.755-1.556a.672.672,0,0,0,.057-.948l-1.9-2.144A.672.672,0,0,0,115.4,279.034Zm.441.564.69.778-1.679,1.51-.7-.79Zm.152,3.575-.667-.752,1.679-1.51.678.764Zm0,0" transform="translate(-108.005 -265.568)" fill="#0e34c4"/>
      <path id="Path_8491" data-name="Path 8491" d="M283.024,129.89l-2.518,2.232a.726.726,0,0,0-.062,1.025l1.828,2.062a.721.721,0,0,0,.5.243h.045a.72.72,0,0,0,.481-.183l2.518-2.232a.726.726,0,0,0,.062-1.025l-1.828-2.062A.727.727,0,0,0,283.024,129.89Zm2.32,2.605a.009.009,0,0,1,0,.007h0l-2.518,2.232a.008.008,0,0,1-.008,0,.01.01,0,0,1-.007,0l-1.828-2.062a.009.009,0,0,1,0-.008.01.01,0,0,1,0-.007l2.518-2.232a.011.011,0,0,1,.007,0,.01.01,0,0,1,.008,0l1.828,2.062A.009.009,0,0,1,285.344,132.5Zm0,0" transform="translate(-266.895 -123.523)" fill="#0e34c4"/>
    </g>
  </g>
</svg>
