<svg xmlns="http://www.w3.org/2000/svg" width="21.459" height="21.459" viewBox="0 0 21.459 21.459">
  <g id="Group_5746" data-name="Group 5746" transform="translate(-373 -5072.551)">
    <g id="eat" transform="translate(372.995 5072.551)">
      <g id="Group_5196" data-name="Group 5196" transform="translate(0.005)">
        <path id="Path_8485" data-name="Path 8485" d="M18.321,3.143A10.729,10.729,0,1,0,3.855,18.962l-.245.914a1.257,1.257,0,1,0,2.429.651l.035-.131a10.737,10.737,0,0,0,9.32,0l.036.133a1.257,1.257,0,0,0,2.429-.651l-.245-.914a10.726,10.726,0,0,0,3.85-8.233,10.659,10.659,0,0,0-3.143-7.587ZM4.716,20.606a.422.422,0,0,1-.3-.513l1.736-6.477a.419.419,0,0,1,.513-.3h0a.422.422,0,0,1,.3.513L5.23,20.31A.42.42,0,0,1,4.716,20.606Zm4.035-10.2-.108.4a.42.42,0,0,1-.513.3L7.32,10.89h0l-.809-.217a.422.422,0,0,1-.3-.513l.108-.4Zm1.983,10.214A9.914,9.914,0,0,1,6.3,19.571l.512-1.913a7.966,7.966,0,0,0,7.853,0l.512,1.911A9.923,9.923,0,0,1,10.734,20.621Zm3.69-5.465a.422.422,0,0,1-.513-.3L12.609,10A2.107,2.107,0,0,1,13.7,7.584l1.942,7.246Zm2.328,5.451a.422.422,0,0,1-.513-.3l-1.193-4.453.81-.217,1.193,4.453a.42.42,0,0,1-.3.513Zm.62-2.545-.58-2.165A7.964,7.964,0,0,0,12.71,3.013a.419.419,0,0,0-.207.812,7.126,7.126,0,0,1,4.019,11.06L14.387,6.921a.419.419,0,0,0-.513-.3A2.937,2.937,0,0,0,11.8,10.218l1.3,4.858A1.263,1.263,0,0,0,14.218,16l.218.813a7.126,7.126,0,0,1-7.4,0l.742-2.769a1.263,1.263,0,0,0-.5-1.362l.236-.879.4.108a1.257,1.257,0,0,0,1.54-.889l.216-.807v-.006l.65-2.426a.419.419,0,1,0-.81-.217L8.968,9.6l-.81-.217L8.7,7.355a.419.419,0,1,0-.81-.217L7.349,9.163l-.81-.217.542-2.024a.419.419,0,1,0-.81-.217l-.65,2.425v.008L5.4,9.943a1.26,1.26,0,0,0,.889,1.54l.4.108-.236.879a1.263,1.263,0,0,0-1.117.928l-.4,1.487A7.126,7.126,0,0,1,8.967,3.826a.419.419,0,0,0-.207-.812A7.964,7.964,0,0,0,4.677,15.9L4.1,18.061a9.891,9.891,0,1,1,16.529-7.332,9.833,9.833,0,0,1-3.253,7.332Z" transform="translate(-0.005)" fill="#0e34c4"/>
        <path id="Path_8486" data-name="Path 8486" d="M246.421,66h0a.419.419,0,1,0,.419.419A.419.419,0,0,0,246.421,66Z" transform="translate(-235.692 -63.235)" fill="#0e34c4"/>
      </g>
    </g>
  </g>
</svg>
