<svg xmlns="http://www.w3.org/2000/svg" width="21.459" height="26.16" viewBox="0 0 21.459 26.16">
  <g id="Group_5747" data-name="Group 5747" transform="translate(-374 -5113.84)">
    <g id="flag" transform="translate(328 5113.84)">
      <g id="Group_5197" data-name="Group 5197" transform="translate(46)">
        <path id="Path_8487" data-name="Path 8487" d="M67.4,15.35l-1.93-4.825L67.4,5.7a.766.766,0,0,0-.712-1.051H57.751V2.861a.766.766,0,0,0-.766-.766H47.533V.766A.766.766,0,0,0,46,.766V25.393a.766.766,0,0,0,1.533,0V13.846h6.131v1.788a.768.768,0,0,0,.766.766H66.693A.766.766,0,0,0,67.4,15.35ZM56.219,12.313H47.533V3.628h8.686Zm.062,2.555,1.246-1.246a.775.775,0,0,0,.225-.542v-6.9h7.809L63.937,10.24a.767.767,0,0,0,0,.569l1.623,4.058Z" transform="translate(-46)" fill="#0e34c4"/>
      </g>
    </g>
  </g>
</svg>
