<svg xmlns="http://www.w3.org/2000/svg" width="22.982" height="22.8" viewBox="0 0 22.982 22.8">
  <g id="Group_5693" data-name="Group 5693" transform="translate(-374 -5072.149)">
    <path id="whatsapp" d="M11.491,22.8h0a11.512,11.512,0,0,1-5.164-1.227L1.411,22.69A.9.9,0,0,1,.336,21.622L1.4,16.785A11.348,11.348,0,0,1,0,11.414c0-.006,0-.013,0-.019A11.271,11.271,0,0,1,3.383,3.338a11.5,11.5,0,0,1,16.2,0A11.265,11.265,0,0,1,21,17.776a.9.9,0,0,1-1.482-1.014,9.47,9.47,0,0,0-1.2-12.15A9.692,9.692,0,0,0,1.8,11.379c0,.006,0,.011,0,.017a9.6,9.6,0,0,0,1.331,4.8.9.9,0,0,1,.1.643l-.833,3.788,3.853-.877a.9.9,0,0,1,.628.086A9.7,9.7,0,0,0,11.486,21h0a9.713,9.713,0,0,0,4.972-1.369.9.9,0,0,1,.919,1.542A11.509,11.509,0,0,1,11.49,22.8ZM8.955,6.833c-.2-.436-.4-.451-.591-.459h-.5a.967.967,0,0,0-.7.328,2.933,2.933,0,0,0-.92,2.185A5.088,5.088,0,0,0,7.313,11.6,10.777,10.777,0,0,0,11.8,15.55c2.22.873,2.672.7,3.154.655A2.653,2.653,0,0,0,16.73,14.96a2.181,2.181,0,0,0,.153-1.245c-.066-.109-.241-.175-.5-.306s-1.551-.776-1.792-.863-.416-.131-.591.131-.692.868-.845,1.042-.307.2-.569.066a7.27,7.27,0,0,1-2.1-1.305A8.052,8.052,0,0,1,9,10.638c-.153-.262-.016-.4.115-.535s.278-.278.409-.431a1.763,1.763,0,0,0,.256-.437.481.481,0,0,0-.022-.459c-.066-.131-.57-1.427-.8-1.944" transform="translate(374 5072.149)" fill="#0e34c4"/>
  </g>
</svg>
