<svg xmlns="http://www.w3.org/2000/svg" width="24.844" height="26.131" viewBox="0 0 24.844 26.131">
  <g id="Group_5695" data-name="Group 5695" transform="translate(-372 -5159.846)">
    <g id="website" transform="translate(366.41 5159.846)">
      <path id="Path_8712" data-name="Path 8712" d="M27.922,2.924C25.857.9,22.517-.083,17.995.006,13.435.1,10.387.9,8.4,2.525,6.484,4.1,5.59,6.4,5.59,9.776v3.442c0,3.982,2.134,8.359,6.211,9.021a.863.863,0,0,0,.277-1.7c-3.092-.5-4.761-4.145-4.761-7.317V9.776c0-4.836,1.792-7.869,10.712-8.044,4.044-.08,6.963.736,8.684,2.424a7.454,7.454,0,0,1,1.994,5.62v3.442c0,5.212-2.34,7.511-8.34,8.188H16.112a.863.863,0,0,0-.611.253l-3,3a.863.863,0,1,0,1.221,1.221l2.745-2.745h3.945a.852.852,0,0,0,.1-.005c3.434-.381,5.786-1.275,7.4-2.813,1.7-1.617,2.523-3.938,2.523-7.1V9.776A9.2,9.2,0,0,0,27.922,2.924Z" transform="translate(0 0)" fill="#0e34c4"/>
      <path id="Path_8713" data-name="Path 8713" d="M111.533,35.716h0a5.209,5.209,0,0,1,5.209,5.21.863.863,0,0,0,.863.863h0a.863.863,0,0,0,.863-.863,6.936,6.936,0,0,0-6.936-6.937h0a.863.863,0,1,0,0,1.727Z" transform="translate(-92.981 -30.076)" fill="#0e34c4"/>
      <path id="Path_8714" data-name="Path 8714" d="M111.532,62.089a2.176,2.176,0,0,1,2.173,2.173.863.863,0,1,0,1.727,0,3.905,3.905,0,0,0-3.9-3.9h0a.863.863,0,0,0,0,1.727Z" transform="translate(-92.981 -53.412)" fill="#0e34c4"/>
      <path id="Path_8715" data-name="Path 8715" d="M52.19,57.276a.863.863,0,1,0,.975,1.426,1.9,1.9,0,0,0,.984-1.7,4.835,4.835,0,0,0-1.01-2.046,4.446,4.446,0,0,0-1.657-1.586,1.914,1.914,0,0,0-1.307-.01,3.144,3.144,0,0,0-1.946,1.632,3.022,3.022,0,0,0,.022,2.444,15.351,15.351,0,0,0,8.756,8.756,3.438,3.438,0,0,0,1.3.269,2.734,2.734,0,0,0,1.148-.247,3.145,3.145,0,0,0,1.632-1.947,1.912,1.912,0,0,0-.009-1.3,4.442,4.442,0,0,0-1.588-1.66,4.832,4.832,0,0,0-2.048-1.01,1.9,1.9,0,0,0-1.7.984.863.863,0,0,0,1.425.975,1.362,1.362,0,0,1,.178-.227,7.077,7.077,0,0,1,2.116,1.56.234.234,0,0,1-.016.132,1.518,1.518,0,0,1-.714.927,1.384,1.384,0,0,1-1.073-.051,13.628,13.628,0,0,1-7.808-7.808,1.384,1.384,0,0,1-.051-1.073A1.517,1.517,0,0,1,50.724,55a.235.235,0,0,1,.133-.015,7.08,7.08,0,0,1,1.56,2.115A1.4,1.4,0,0,1,52.19,57.276Z" transform="translate(-37.51 -47.12)" fill="#0e34c4"/>
    </g>
  </g>
</svg>
