<svg xmlns="http://www.w3.org/2000/svg" width="22" height="25" viewBox="0 0 22 25"><rect width="22" height="25" rx="2" fill="none"/><rect x="0.5" y="0.5" width="21" height="24" rx="1.5" fill="none" stroke="#0e34c4"/><path d="M5.5,14h11a.5.5,0,0,1,.5.5h0a.5.5,0,0,1-.5.5H5.5a.5.5,0,0,1-.5-.5H5A.5.5,0,0,1,5.5,14Z" fill="none"/><polygon points="5.5 14.5 16.5 14.5 16.5 14.5 5.5 14.5" fill="none" stroke="#0e34c4"/><path d="M5.5,6h11a.5.5,0,0,1,.5.5h0a.5.5,0,0,1-.5.5H5.5A.5.5,0,0,1,5,6.5H5A.5.5,0,0,1,5.5,6Z" fill="none"/><polygon points="5.5 6.5 16.5 6.5 16.5 6.5 5.5 6.5" fill="none" stroke="#0e34c4"/><path d="M5.5,17h11a.5.5,0,0,1,.5.5h0a.5.5,0,0,1-.5.5H5.5a.5.5,0,0,1-.5-.5H5A.5.5,0,0,1,5.5,17Z" fill="none"/><polygon points="5.5 17.5 16.5 17.5 16.5 17.5 5.5 17.5" fill="none" stroke="#0e34c4"/><path d="M5.5,9h11a.5.5,0,0,1,.5.5h0a.5.5,0,0,1-.5.5H5.5A.5.5,0,0,1,5,9.5H5A.5.5,0,0,1,5.5,9Z" fill="none"/><polygon points="5.5 9.5 16.5 9.5 16.5 9.5 5.5 9.5" fill="none" stroke="#0e34c4"/></svg>