<svg xmlns="http://www.w3.org/2000/svg" width="22.334" height="22.334" viewBox="0 0 22.334 22.334">
  <g id="Group_5722" data-name="Group 5722" transform="translate(-371 -5427.666)">
    <g id="lottery" transform="translate(370 5426.666)">
      <path id="Path_8573" data-name="Path 8573" d="M22.974,20.452h-5.9l-1.1-2.288a9.006,9.006,0,1,0-7.616,0l-1.1,2.288H1.36a.36.36,0,0,0-.36.36v2.161a.36.36,0,0,0,.36.36H22.974a.36.36,0,0,0,.36-.36V20.812A.36.36,0,0,0,22.974,20.452ZM3.882,10.006a8.285,8.285,0,1,1,11.78,7.509l-.315-.655a7.565,7.565,0,1,0-6.36,0l-.315.655A8.294,8.294,0,0,1,3.882,10.006Zm8.285,1.911.827,1.717a1.425,1.425,0,0,0,1.191,2.474l.18.374a6.735,6.735,0,0,1-4.4,0Zm-.72-1.911a.72.72,0,1,1,.72.72A.721.721,0,0,1,11.447,10.006Zm1.8,4.683a.71.71,0,0,1,.09-.341l.505,1.049A.721.721,0,0,1,13.248,14.689Zm.707-.719h.013a.721.721,0,0,1,.72.72.714.714,0,0,1-.168.456Zm-1.788,3.6a7.513,7.513,0,0,0,2.511-.438l.318.66a8.288,8.288,0,0,1-5.658,0l.318-.66A7.513,7.513,0,0,0,12.167,17.57Zm2.68-1.748a1.432,1.432,0,0,0-1.218-2.53l-.938-1.948a1.441,1.441,0,1,0-1.048,0L9.3,16.212a6.844,6.844,0,1,1,5.736,0ZM9.024,18.444a8.995,8.995,0,0,0,6.286,0l.966,2.008H8.058Zm13.59,4.169H1.72V21.173H22.614Z" fill="#0e34c4"/>
      <path id="Path_8574" data-name="Path 8574" d="M19.441,30a1.441,1.441,0,1,0,1.441,1.441A1.442,1.442,0,0,0,19.441,30Zm0,2.161a.72.72,0,1,1,.72-.72A.721.721,0,0,1,19.441,32.161Z" transform="translate(-10.876 -18.553)" fill="#0e34c4"/>
      <path id="Path_8575" data-name="Path 8575" d="M17.882,22.441a1.441,1.441,0,1,0-1.441,1.441A1.442,1.442,0,0,0,17.882,22.441Zm-2.161,0a.72.72,0,1,1,.72.72A.721.721,0,0,1,15.72,22.441Z" transform="translate(-8.957 -12.795)" fill="#0e34c4"/>
      <path id="Path_8576" data-name="Path 8576" d="M41.441,30.882A1.441,1.441,0,1,0,40,29.441,1.442,1.442,0,0,0,41.441,30.882Zm0-2.161a.72.72,0,1,1-.72.72A.721.721,0,0,1,41.441,28.72Z" transform="translate(-24.951 -17.274)" fill="#0e34c4"/>
      <path id="Path_8577" data-name="Path 8577" d="M42.441,21.882A1.441,1.441,0,1,0,41,20.441,1.442,1.442,0,0,0,42.441,21.882Zm0-2.161a.72.72,0,1,1-.72.72A.721.721,0,0,1,42.441,19.72Z" transform="translate(-25.591 -11.516)" fill="#0e34c4"/>
      <path id="Path_8578" data-name="Path 8578" d="M53.579,10.132h.72A11.083,11.083,0,0,0,49.833,1.2l-.433.576A10.368,10.368,0,0,1,53.579,10.132Z" transform="translate(-30.965 -0.127)" fill="#0e34c4"/>
      <path id="Path_8579" data-name="Path 8579" d="M5.9,1.774,5.467,1.2A11.084,11.084,0,0,0,1,10.132h.72A10.369,10.369,0,0,1,5.9,1.774Z" transform="translate(0 -0.127)" fill="#0e34c4"/>
    </g>
  </g>
</svg>
