<svg xmlns="http://www.w3.org/2000/svg" width="22" height="24.998" viewBox="0 0 22 24.998">
  <g id="Group_5726" data-name="Group 5726" transform="translate(-958 -5337.595)">
    <g id="video" transform="translate(958 5337.595)">
      <path id="Path_8596" data-name="Path 8596" d="M21.512,10.091H4.854l16-4.635a.488.488,0,0,0,.333-.6l-.837-2.89A2.733,2.733,0,0,0,17.736,0a2.705,2.705,0,0,0-.752.107L1.962,4.459A2.724,2.724,0,0,0,.108,7.825l.818,2.824V22.281A2.72,2.72,0,0,0,3.643,25H9.51a.488.488,0,1,0,0-.976H3.643A1.743,1.743,0,0,1,1.9,22.281V15.637H21.024v6.644a1.743,1.743,0,0,1-1.741,1.741H13.416a.488.488,0,1,0,0,.976h5.867A2.72,2.72,0,0,0,22,22.281v-11.7A.488.488,0,0,0,21.512,10.091ZM12.9,14.66l2.074-3.593h2.7L15.6,14.66Zm-3.826,0,2.074-3.593h2.7L11.775,14.66Zm-3.826,0,2.074-3.593h2.7L7.949,14.66ZM7.066,8.339,3.592,5l2.6-.754a.484.484,0,0,0,.064.075L9.733,7.661l-2.6.754A.486.486,0,0,0,7.066,8.339ZM13.609,2.2l3.474,3.336-2.6.754a.476.476,0,0,0-.064-.075L10.942,2.874l2.6-.754A.484.484,0,0,0,13.609,2.2ZM9.934,3.26,13.408,6.6l-2.6.754a.476.476,0,0,0-.064-.075L7.267,3.939l2.6-.754A.516.516,0,0,0,9.934,3.26Zm7.322-2.215a1.726,1.726,0,0,1,.48-.068,1.752,1.752,0,0,1,1.676,1.256l.7,2.421-1.959.567a.5.5,0,0,0-.064-.075L14.617,1.81ZM1.2,6.23A1.728,1.728,0,0,1,2.234,5.4l.287-.083a.5.5,0,0,0,.064.075L6.058,8.725,1.747,9.974l-.7-2.421A1.728,1.728,0,0,1,1.2,6.23ZM1.9,11.067H6.2L4.123,14.66H1.9ZM16.728,14.66,18.8,11.067h2.221V14.66Zm0,0" transform="translate(0)" fill="#0e34c4" fill-rule="evenodd"/>
      <path id="Path_8597" data-name="Path 8597" d="M201.332,347.356a.488.488,0,0,0-.244-.423l-4.29-2.477a.488.488,0,0,0-.732.423v4.953a.488.488,0,0,0,.732.423l4.29-2.476A.488.488,0,0,0,201.332,347.356Zm-4.289,1.631v-3.262l2.825,1.631Zm0,0" transform="translate(-186.493 -327.577)" fill="#0e34c4" fill-rule="evenodd"/>
      <path id="Path_8598" data-name="Path 8598" d="M225.262,492a.488.488,0,1,0,.488.488A.489.489,0,0,0,225.262,492Zm0,0" transform="translate(-213.799 -467.978)" fill="#0e34c4" fill-rule="evenodd"/>
    </g>
  </g>
</svg>
