<svg xmlns="http://www.w3.org/2000/svg" width="27.545" height="26.065" viewBox="0 0 27.545 26.065">
  <g id="Group_5718" data-name="Group 5718" transform="translate(-371 -5250.424)">
    <g id="shout" transform="translate(371 5250.424)">
      <path id="Path_8566" data-name="Path 8566" d="M122.771,290.579a.538.538,0,1,0-.735-.2A.538.538,0,0,0,122.771,290.579Zm0,0" transform="translate(-115.402 -273.996)" fill="#0e34c4"/>
      <path id="Path_8567" data-name="Path 8567" d="M5.164,41.448l2.709,4.693A2.152,2.152,0,1,0,11.6,43.99l-1.614-2.8,1.4-.807a.538.538,0,0,0,.2-.735l-.7-1.212,10.3-2.021A1.614,1.614,0,0,0,22.494,34l-1.788-3.1,1.143-1.731a.538.538,0,0,0,.017-.566L20.79,26.744a.539.539,0,0,0-.5-.268l-2.07.124-1.985-3.438a1.6,1.6,0,0,0-1.378-.807h-.021a1.6,1.6,0,0,0-1.359.744L6.452,32.052,1.883,34.69a3.766,3.766,0,0,0,3.281,6.758Zm5.5,3.079A1.076,1.076,0,0,1,8.805,45.6l-2.69-4.66,1.864-1.076Zm-1.22-4.266-.538-.932.932-.538.538.932ZM20.024,27.57l.744,1.288-.663,1-1.281-2.22ZM14.38,23.69a.538.538,0,0,1,.925.011l6.257,10.838a.538.538,0,0,1-.453.807,1.975,1.975,0,0,0-.3.05L14.2,23.931C14.334,23.752,14.352,23.735,14.38,23.69Zm-.9,1.153L19.7,35.614l-9.386,1.841L7.459,32.512ZM1.437,39.3a2.688,2.688,0,0,1,.985-3.674L6.614,33.2,9.3,37.86,5.111,40.281A2.693,2.693,0,0,1,1.437,39.3Zm0,0" transform="translate(0 -21.153)" fill="#0e34c4"/>
      <path id="Path_8568" data-name="Path 8568" d="M46.088,309.842a.538.538,0,0,0-.735-.2l-.932.538a.539.539,0,0,1-.735-.2.538.538,0,0,0-.932.538,1.616,1.616,0,0,0,2.2.591l.932-.538A.538.538,0,0,0,46.088,309.842Zm0,0" transform="translate(-40.386 -292.918)" fill="#0e34c4"/>
      <path id="Path_8569" data-name="Path 8569" d="M439.549,42.549l-3,1.668a.538.538,0,0,0,.523.94l3-1.668a.538.538,0,0,0-.523-.94Zm0,0" transform="translate(-412.804 -40.195)" fill="#0e34c4"/>
      <path id="Path_8570" data-name="Path 8570" d="M442.819,137.2l-2.079-.557a.538.538,0,1,0-.278,1.039l2.079.557a.538.538,0,1,0,.278-1.039Zm0,0" transform="translate(-416.388 -129.271)" fill="#0e34c4"/>
      <path id="Path_8571" data-name="Path 8571" d="M384.069.4l-.558,2.079a.538.538,0,1,0,1.039.279l.557-2.079A.538.538,0,1,0,384.069.4Zm0,0" transform="translate(-362.861)" fill="#0e34c4"/>
    </g>
  </g>
</svg>
