<svg xmlns="http://www.w3.org/2000/svg" width="16.328" height="24.193" viewBox="0 0 16.328 24.193">
  <g id="Group_5724" data-name="Group 5724" transform="translate(-961 -5252.869)">
    <path id="person" d="M94.361,21.409V23.79a.4.4,0,0,1-.806,0V21.409A3.353,3.353,0,0,0,90.2,18.054a2.476,2.476,0,0,1-2.13-1.2.4.4,0,0,1,.689-.419,1.675,1.675,0,0,0,1.441.809A4.159,4.159,0,0,1,94.361,21.409Zm-7.036-4.041a.4.4,0,0,1-.308.48,3.859,3.859,0,0,1-3-.587,2.445,2.445,0,0,1-1.824.793,3.353,3.353,0,0,0-3.355,3.355V23.79a.4.4,0,0,1-.806,0V21.409a4.159,4.159,0,0,1,4.161-4.161,1.681,1.681,0,0,0,1.685-1.68v-.106a5.4,5.4,0,0,1-3.07-4.669A1.645,1.645,0,0,1,79.545,9.2V7.108a7.386,7.386,0,0,1,2-5.386C83.85-.5,87.549-.36,90.27.949a.4.4,0,0,1,.085.671,5.442,5.442,0,0,1,3.33,2.4.445.445,0,0,1,.093.317.408.408,0,0,1-.116.256A2.632,2.632,0,0,0,92.9,6.449V9.2a.4.4,0,0,1-.806,0V6.449a3.432,3.432,0,0,1,.783-2.192,4.657,4.657,0,0,0-3.343-1.963l-.709-.076a.4.4,0,0,1-.111-.774l.322-.133c-4.2-1.463-8.686.163-8.686,5.792V9.2a.832.832,0,0,0,.454.738V7.322A2.825,2.825,0,0,1,83.627,4.5h5.14A2.825,2.825,0,0,1,91.59,7.322v3.3a5.4,5.4,0,0,1-6.913,5.143,2.465,2.465,0,0,1-.211.823,3.053,3.053,0,0,0,2.38.469.4.4,0,0,1,.48.308ZM86.2,15.179a4.591,4.591,0,0,0,4.586-4.586V7.322a2.018,2.018,0,0,0-2.016-2.016h-5.14a2.018,2.018,0,0,0-2.016,2.016v3.27A4.591,4.591,0,0,0,86.2,15.179Zm4.082,6.948H89.07a.4.4,0,1,0,0,.806h1.21a.4.4,0,1,0,0-.806Z" transform="translate(882.967 5252.869)" fill="#0e34c4"/>
  </g>
</svg>
