<svg xmlns="http://www.w3.org/2000/svg" width="27.772" height="27.772" viewBox="0 0 27.772 27.772">
  <g id="Group_5721" data-name="Group 5721" transform="translate(-369 -5380.228)">
    <g id="gift" transform="translate(369 5380.228)">
      <g id="Group_5320" data-name="Group 5320">
        <path id="Path_8572" data-name="Path 8572" d="M25,11.109V8.173a2.314,2.314,0,0,0-3.951-1.636l-1.8,1.8H16.392l-1.58-1.58V6.48h.926v-3.7H12.7a1.83,1.83,0,0,0,.257-.926A1.852,1.852,0,0,0,11.109,0h-.463A3.24,3.24,0,0,0,7.869,1.58,3.24,3.24,0,0,0,5.092,0H4.629A1.852,1.852,0,0,0,2.777,1.851a1.83,1.83,0,0,0,.257.926H0v3.7H.926V27.772H26.847V14.349h.926v-3.24ZM19.9,8.986l1.8-1.8a1.389,1.389,0,0,1,2.37.982v2.936H19.9V8.986Zm-3.24.271h2.314v1.851H16.663Zm-.926-.271v2.123H11.572V8.173a1.389,1.389,0,0,1,2.371-.981l.08.079ZM10.646.926h.463a.926.926,0,1,1,0,1.851H8.378A2.319,2.319,0,0,1,10.646.926Zm-6.017,0h.463A2.319,2.319,0,0,1,7.36,2.777H4.629a.926.926,0,0,1,0-1.851ZM.926,3.7H14.812V5.554H.926ZM11.374,6.48c-.017.015-.028.035-.046.05a2.242,2.242,0,0,0-.22.25c-.018.024-.038.046-.056.071a2.242,2.242,0,0,0-.2.36c-.013.029-.022.059-.034.088a2.285,2.285,0,0,0-.1.322c-.009.039-.019.077-.026.116a2.394,2.394,0,0,0-.044.435v2.936H9.72V6.48ZM6.017,26.847H1.851V6.48H6.017Zm2.777,0H6.943V6.48H8.795v4.629H7.869v3.24h.926Zm6.943,0H9.72v-12.5h6.017Zm3.24,0H16.663v-12.5h2.314Zm6.943,0H19.9v-12.5h6.017Zm.926-13.423H8.795V12.035H26.847Z" fill="#3656ce"/>
      </g>
    </g>
  </g>
</svg>
