<svg xmlns="http://www.w3.org/2000/svg" width="24.373" height="23.999" viewBox="0 0 24.373 23.999">
  <g id="Group_5720" data-name="Group 5720" transform="translate(-371 -5339.001)">
    <g id="buy" transform="translate(371 5335.021)">
      <g id="Group_5332" data-name="Group 5332" transform="translate(6.861 22.833)">
        <g id="Group_5331" data-name="Group 5331" transform="translate(0 0)">
          <rect id="Rectangle_1970" data-name="Rectangle 1970" transform="translate(0.139 0.145)" fill="#0e34c4"/>
        </g>
      </g>
      <g id="Group_5334" data-name="Group 5334" transform="translate(8.576 22.833)">
        <g id="Group_5333" data-name="Group 5333" transform="translate(0 0)">
          <rect id="Rectangle_1971" data-name="Rectangle 1971" transform="translate(0.424 0.145)" fill="#0e34c4"/>
        </g>
      </g>
      <g id="Group_5336" data-name="Group 5336" transform="translate(9.719 22.833)">
        <g id="Group_5335" data-name="Group 5335" transform="translate(0 0)">
          <rect id="Rectangle_1972" data-name="Rectangle 1972" width="1" transform="translate(0.281 0.145)" fill="#0e34c4"/>
        </g>
      </g>
      <g id="Group_5338" data-name="Group 5338" transform="translate(6.861 21.118)">
        <g id="Group_5337" data-name="Group 5337" transform="translate(0 0)">
          <rect id="Rectangle_1973" data-name="Rectangle 1973" height="1" transform="translate(0.139 -0.138)" fill="#0e34c4"/>
        </g>
      </g>
      <g id="Group_5340" data-name="Group 5340" transform="translate(8.576 21.118)">
        <g id="Group_5339" data-name="Group 5339" transform="translate(0 0)">
          <rect id="Rectangle_1974" data-name="Rectangle 1974" height="1" transform="translate(0.424 -0.138)" fill="#0e34c4"/>
        </g>
      </g>
      <g id="Group_5342" data-name="Group 5342" transform="translate(9.719 21.118)">
        <g id="Group_5341" data-name="Group 5341" transform="translate(0 0)">
          <rect id="Rectangle_1975" data-name="Rectangle 1975" width="1" height="1" transform="translate(0.281 -0.138)" fill="#0e34c4"/>
        </g>
      </g>
      <g id="Group_5344" data-name="Group 5344" transform="translate(6.861 19.402)">
        <g id="Group_5343" data-name="Group 5343" transform="translate(0)">
          <rect id="Rectangle_1976" data-name="Rectangle 1976" height="2" transform="translate(0.139 -0.423)" fill="#0e34c4"/>
        </g>
      </g>
      <g id="Group_5346" data-name="Group 5346" transform="translate(8.576 19.402)">
        <g id="Group_5345" data-name="Group 5345" transform="translate(0)">
          <rect id="Rectangle_1977" data-name="Rectangle 1977" height="2" transform="translate(0.424 -0.423)" fill="#0e34c4"/>
        </g>
      </g>
      <g id="Group_5348" data-name="Group 5348" transform="translate(9.719 19.402)">
        <g id="Group_5347" data-name="Group 5347" transform="translate(0)">
          <rect id="Rectangle_1978" data-name="Rectangle 1978" width="1" height="2" transform="translate(0.281 -0.423)" fill="#0e34c4"/>
        </g>
      </g>
      <g id="Group_5350" data-name="Group 5350" transform="translate(13.149 16.544)">
        <g id="Group_5349" data-name="Group 5349" transform="translate(0 0)">
          <rect id="Rectangle_1979" data-name="Rectangle 1979" width="1" transform="translate(-0.15 0.434)" fill="#0e34c4"/>
        </g>
      </g>
      <g id="Group_5352" data-name="Group 5352" transform="translate(14.293 16.544)">
        <g id="Group_5351" data-name="Group 5351" transform="translate(0 0)">
          <rect id="Rectangle_1980" data-name="Rectangle 1980" width="4" transform="translate(-0.293 0.434)" fill="#0e34c4"/>
        </g>
      </g>
      <g id="Group_5354" data-name="Group 5354" transform="translate(0 27.216)">
        <g id="Group_5353" data-name="Group 5353">
          <path id="Path_8585" data-name="Path 8585" d="M1.142,492H.381a.381.381,0,0,0,0,.762h.762a.381.381,0,0,0,0-.762Z" transform="translate(0 -492)" fill="#0e34c4"/>
        </g>
      </g>
      <g id="Group_5356" data-name="Group 5356" transform="translate(4.573 25.691)">
        <g id="Group_5355" data-name="Group 5355" transform="translate(0 0)">
          <rect id="Rectangle_1981" data-name="Rectangle 1981" width="15" transform="translate(0.426 0.287)" fill="#0e34c4"/>
        </g>
      </g>
      <g id="Group_5358" data-name="Group 5358" transform="translate(2.285 8.175)">
        <g id="Group_5357" data-name="Group 5357">
          <path id="Path_8586" data-name="Path 8586" d="M67.422,111.041h-.381v-2.708a.1.1,0,0,0,0-.034l-1.9-9.521a.381.381,0,0,0-.381-.3H63.614V96.951h1.142a.381.381,0,0,0,.381-.381V94.285a.381.381,0,0,0-.381-.381h-4.57a.381.381,0,0,0-.381.381V96.57a.381.381,0,0,0,.381.381h1.142v1.523H59.044V95.808a.381.381,0,0,0-.381-.381h-1.9V92.381A.381.381,0,0,0,56.378,92H52.951a.381.381,0,0,0-.381.381v3.047h-1.9a.381.381,0,0,0-.381.381v3.016l-1.523,9.49v.03a.091.091,0,0,0,0,.03v2.666h-.381a.381.381,0,0,0,0,.762H67.422a.381.381,0,0,0,0-.762ZM60.567,96.189V94.666h3.808v1.523Zm2.285.762v1.523h-.762V96.951Zm-9.521-4.189H56v4.189H53.332Zm-2.285,3.427H52.57v.762h-.762v.762h5.712v-.762h-.762v-.762h1.523v2.285H51.047Zm-.057,3.047H64.444l1.752,8.759H49.588Zm15.29,11.806H49.523v-2.285H66.28Z" transform="translate(-48 -92)" fill="#0e34c4"/>
        </g>
      </g>
      <g id="Group_5360" data-name="Group 5360" transform="translate(22.85 27.216)">
        <g id="Group_5359" data-name="Group 5359">
          <path id="Path_8587" data-name="Path 8587" d="M481.142,492h-.762a.381.381,0,1,0,0,.762h.762a.381.381,0,0,0,0-.762Z" transform="translate(-480 -492)" fill="#0e34c4"/>
        </g>
      </g>
      <g id="Group_5362" data-name="Group 5362" transform="translate(6.093 16.172)">
        <g id="Group_5361" data-name="Group 5361">
          <path id="Path_8588" data-name="Path 8588" d="M132.951,260h-4.57a.381.381,0,0,0-.381.381v1.9a.381.381,0,0,0,.381.381h4.57a.381.381,0,0,0,.381-.381v-1.9A.381.381,0,0,0,132.951,260Zm-.381,1.9h-3.808v-1.142h3.808Z" transform="translate(-128 -260)" fill="#0e34c4"/>
        </g>
      </g>
      <g id="Group_5364" data-name="Group 5364" transform="translate(12.948 18.077)">
        <g id="Group_5363" data-name="Group 5363">
          <path id="Path_8589" data-name="Path 8589" d="M276.951,300h-4.57a.381.381,0,0,0-.381.381v3.047a.381.381,0,0,0,.381.381h4.57a.381.381,0,0,0,.381-.381v-3.047A.381.381,0,0,0,276.951,300Zm-.381,3.047h-3.808v-2.285h3.808Z" transform="translate(-272 -300)" fill="#0e34c4"/>
        </g>
      </g>
      <g id="Group_5366" data-name="Group 5366" transform="translate(22.296 8.54)">
        <g id="Group_5365" data-name="Group 5365" transform="translate(0 0)">
          <rect id="Rectangle_1982" data-name="Rectangle 1982" width="1" transform="translate(-0.297 0.438)" fill="#0e34c4"/>
        </g>
      </g>
      <g id="Group_5368" data-name="Group 5368" transform="translate(20.01 6.825)">
        <g id="Group_5367" data-name="Group 5367" transform="translate(0 0)">
          <rect id="Rectangle_1983" data-name="Rectangle 1983" width="1" transform="translate(-0.01 0.153)" fill="#0e34c4"/>
        </g>
      </g>
      <g id="Group_5370" data-name="Group 5370" transform="translate(22.868 11.399)">
        <g id="Group_5369" data-name="Group 5369" transform="translate(0 0)">
          <rect id="Rectangle_1984" data-name="Rectangle 1984" height="1" transform="translate(0.133 -0.422)" fill="#0e34c4"/>
        </g>
      </g>
      <g id="Group_5372" data-name="Group 5372" transform="translate(0.572 10.828)">
        <g id="Group_5371" data-name="Group 5371" transform="translate(0 0)">
          <rect id="Rectangle_1985" data-name="Rectangle 1985" width="1" transform="translate(0.428 0.151)" fill="#0e34c4"/>
        </g>
      </g>
      <g id="Group_5374" data-name="Group 5374" transform="translate(1.715 7.969)">
        <g id="Group_5373" data-name="Group 5373" transform="translate(0 0)">
          <rect id="Rectangle_1986" data-name="Rectangle 1986" height="1" transform="translate(0.285 0.01)" fill="#0e34c4"/>
        </g>
      </g>
      <g id="Group_5376" data-name="Group 5376" transform="translate(22.296 4.539)">
        <g id="Group_5375" data-name="Group 5375" transform="translate(0 0)">
          <rect id="Rectangle_1987" data-name="Rectangle 1987" width="1" transform="translate(-0.297 0.44)" fill="#0e34c4"/>
        </g>
      </g>
      <g id="Group_5378" data-name="Group 5378" transform="translate(2.858 5.681)">
        <g id="Group_5377" data-name="Group 5377" transform="translate(0 0)">
          <rect id="Rectangle_1988" data-name="Rectangle 1988" width="1" transform="translate(0.143 0.297)" fill="#0e34c4"/>
        </g>
      </g>
      <g id="Group_5380" data-name="Group 5380" transform="translate(17.723 4.539)">
        <g id="Group_5379" data-name="Group 5379" transform="translate(0 0)">
          <rect id="Rectangle_1989" data-name="Rectangle 1989" height="1" transform="translate(0.278 0.44)" fill="#0e34c4"/>
        </g>
      </g>
      <g id="Group_5382" data-name="Group 5382" transform="translate(0.572 3.967)">
        <g id="Group_5381" data-name="Group 5381" transform="translate(0 0)">
          <rect id="Rectangle_1990" data-name="Rectangle 1990" width="1" height="1" transform="translate(0.428 0.012)" fill="#0e34c4"/>
        </g>
      </g>
      <g id="Group_5384" data-name="Group 5384" transform="translate(6.289 5.681)">
        <g id="Group_5383" data-name="Group 5383" transform="translate(0 0)">
          <rect id="Rectangle_1991" data-name="Rectangle 1991" width="1" transform="translate(-0.289 0.297)" fill="#0e34c4"/>
        </g>
      </g>
    </g>
  </g>
</svg>
