<svg xmlns="http://www.w3.org/2000/svg" width="24.961" height="23.401" viewBox="0 0 24.961 23.401">
  <g id="Group_5725" data-name="Group 5725" transform="translate(-957 -5296.6)">
    <g id="dj-mixer" transform="translate(957 5280.6)">
      <path id="Path_8592" data-name="Path 8592" d="M2.194,39.4H22.767a2.2,2.2,0,0,0,2.194-2.194V18.194A2.2,2.2,0,0,0,22.767,16H2.194A2.2,2.2,0,0,0,0,18.194V37.207A2.2,2.2,0,0,0,2.194,39.4ZM1.463,18.194a.732.732,0,0,1,.731-.731H22.767a.732.732,0,0,1,.731.731V37.207a.732.732,0,0,1-.731.731H2.194a.732.732,0,0,1-.731-.731Z" fill="#0e34c4"/>
      <path id="Path_8593" data-name="Path 8593" d="M68.313,90.626a7.324,7.324,0,0,0,7.208-6.077l2.626-1.313a.735.735,0,0,0,.4-.654v-2.32a2.194,2.194,0,1,0-1.463,0V82.13l-1.477.738a7.313,7.313,0,1,0-7.3,7.758Zm9.507-13.163a.731.731,0,1,1-.731.731A.732.732,0,0,1,77.819,77.463Zm-9.507,0a5.857,5.857,0,0,1,5.85,5.85q0,.142-.007.283l-5.439,2.72a.731.731,0,0,0,.654,1.308l4.4-2.2a5.85,5.85,0,1,1-5.456-7.962Z" transform="translate(-58.026 -57.075)" fill="#0e34c4"/>
      <circle id="Ellipse_222" data-name="Ellipse 222" cx="0.5" cy="0.5" r="0.5" transform="translate(3 35.402)" fill="#0e34c4"/>
      <ellipse id="Ellipse_223" data-name="Ellipse 223" cx="1" cy="0.5" rx="1" ry="0.5" transform="translate(5 35.402)" fill="#0e34c4"/>
      <ellipse id="Ellipse_224" data-name="Ellipse 224" cx="1" cy="0.5" rx="1" ry="0.5" transform="translate(9 35.402)" fill="#0e34c4"/>
      <path id="Path_8594" data-name="Path 8594" d="M364.656,346h-2.925a.731.731,0,0,0-.731.731v2.925a.731.731,0,0,0,.731.731h2.925a.731.731,0,0,0,.731-.731v-2.925A.731.731,0,0,0,364.656,346Zm-.731,2.925h-1.463v-1.463h1.463Z" transform="translate(-343.401 -313.912)" fill="#0e34c4"/>
      <path id="Path_8595" data-name="Path 8595" d="M168.194,185.388A2.194,2.194,0,1,0,166,183.194,2.2,2.2,0,0,0,168.194,185.388Zm0-2.925a.731.731,0,1,1-.731.731A.732.732,0,0,1,168.194,182.463Z" transform="translate(-157.907 -156.956)" fill="#0e34c4"/>
    </g>
  </g>
</svg>
