<svg xmlns="http://www.w3.org/2000/svg" width="180" height="171.71" viewBox="0 0 180 171.71">
  <g id="Group_1696" data-name="Group 1696" transform="translate(-1171.22 -189.327)">
    <g id="Group_1552" data-name="Group 1552" transform="translate(1171.22 189.327)" style="isolation: isolate">
      <g id="Group_1549" data-name="Group 1549" transform="translate(125.254 16.568)">
        <path id="Path_3201" data-name="Path 3201" d="M1417.4,377l54.494-27.9-.251-127.242-54.494,27.9Z" transform="translate(-1417.148 -221.856)" fill="#ffd300"/>
      </g>
      <g id="Group_1550" data-name="Group 1550" transform="translate(0)">
        <path id="Path_3202" data-name="Path 3202" d="M1296.475,233.795l54.494-27.9-125.254-16.568-54.494,27.9Z" transform="translate(-1171.22 -189.327)" fill="#fb5f88"/>
      </g>
      <g id="Group_1551" data-name="Group 1551" transform="translate(0 27.9)">
        <path id="Path_3203" data-name="Path 3203" d="M1172.866,245.874l36.842,4.873,85.139,11.262.245,124.142-34.411-4.551-.635,1.464,36.679,4.852-.251-127.241L1171.22,244.107h0l.251,127.241,89.055,11.78.3-1.51-87.724-11.6-.245-124.142Z" transform="translate(-1171.22 -244.107)" fill="#0e34c4"/>
      </g>
    </g>
    <path id="Path_3204" data-name="Path 3204" d="M1206.824,272.724l14.105,16.738,30.959-32.683" transform="translate(7 14.976)" fill="none" stroke="#0e34c4" stroke-linecap="round" stroke-width="14"/>
  </g>
</svg>
