<svg xmlns="http://www.w3.org/2000/svg" width="32.622" height="232.964" viewBox="0 0 32.622 232.964">
  <g id="Group_1547" data-name="Group 1547" transform="translate(-2042.13 -591.678)">
    <g id="Group_1417" data-name="Group 1417" transform="translate(2042.13 591.678)">
      <g id="Group_1279" data-name="Group 1279" transform="translate(17.077 224.468)">
        <path id="Path_2930" data-name="Path 2930" d="M2212.7,1495.166a1.889,1.889,0,0,1,.9.882,1.919,1.919,0,0,1,.186,1.188l-.186,1.188a.7.7,0,0,0,.39.752l.585.278-.2.288a8.708,8.708,0,0,1-.566.715l-.344-.167a1.949,1.949,0,0,1-1.086-2.06l.093-.6.093-.585a.7.7,0,0,0-.39-.752.632.632,0,0,1-.3-.826A.624.624,0,0,1,2212.7,1495.166Z" transform="translate(-2211.82 -1495.106)" fill="#0e34c4"/>
      </g>
      <g id="Group_1280" data-name="Group 1280" transform="translate(8.224 69.44)">
        <path id="Path_2931" data-name="Path 2931" d="M2183.972,871.951a.619.619,0,0,1-.928.535.711.711,0,0,0-.841.1l-.765.73a1.953,1.953,0,0,1-2.318.275l-1.044-.606a.711.711,0,0,0-.842.1.619.619,0,1,1-.852-.9,1.955,1.955,0,0,1,2.315-.272l1.044.606a.711.711,0,0,0,.843-.1l.765-.73a1.953,1.953,0,0,1,2.314-.278A.619.619,0,0,1,2183.972,871.951Z" transform="translate(-2176.189 -871.157)" fill="#0e34c4"/>
      </g>
      <g id="Group_1281" data-name="Group 1281" transform="translate(9.241 58.51)">
        <path id="Path_2932" data-name="Path 2932" d="M2188.068,827.962a.619.619,0,0,1-.928.535.711.711,0,0,0-.841.1l-.765.73a1.953,1.953,0,0,1-2.318.275l-1.044-.605a.711.711,0,0,0-.842.1.619.619,0,1,1-.852-.9,1.955,1.955,0,0,1,2.315-.272l1.044.606a.711.711,0,0,0,.843-.1l.765-.73a1.954,1.954,0,0,1,2.314-.277A.618.618,0,0,1,2188.068,827.962Z" transform="translate(-2180.285 -827.168)" fill="#0e34c4"/>
      </g>
      <g id="Group_1282" data-name="Group 1282" transform="translate(14.529 210.873)">
        <path id="Path_2933" data-name="Path 2933" d="M2207.732,1441.008a.632.632,0,0,1-.011.119,1.955,1.955,0,0,1-1.727,1.566l-1.2.114a.709.709,0,0,0-.628.571l-.2,1.038a1.954,1.954,0,0,1-1.723,1.57.619.619,0,1,1-.119-1.232.71.71,0,0,0,.626-.571l.2-1.038a1.953,1.953,0,0,1,1.728-1.571l1.2-.114a.71.71,0,0,0,.628-.569.619.619,0,0,1,1.226.117Z" transform="translate(-2201.564 -1440.39)" fill="#0e34c4"/>
      </g>
      <g id="Group_1283" data-name="Group 1283" transform="translate(5.503 223.856)">
        <path id="Path_2934" data-name="Path 2934" d="M2168.962,1492.946a.587.587,0,0,1,.093.315.6.6,0,0,1-.3.529.738.738,0,0,0-.316.789l.279,1.021a1.939,1.939,0,0,1-.752,2.088,1.41,1.41,0,0,1-.121.084l-1.03.622a.732.732,0,0,0-.316.789.618.618,0,0,1-.269.687,7.5,7.5,0,0,1-.993-.872,1.984,1.984,0,0,1,.938-1.661l.844-.51.186-.111a.71.71,0,0,0,.316-.789l-.269-1.021a1.95,1.95,0,0,1,.863-2.162A.6.6,0,0,1,2168.962,1492.946Z" transform="translate(-2165.24 -1492.646)" fill="#0e34c4"/>
      </g>
      <g id="Group_1284" data-name="Group 1284" transform="translate(11.164 152.446)">
        <path id="Path_2935" data-name="Path 2935" d="M2195.713,1207.282a.619.619,0,0,1-1.073.42.711.711,0,0,0-.833-.154l-.947.469a1.954,1.954,0,0,1-2.3-.427l-.817-.889a.711.711,0,0,0-.833-.156.619.619,0,1,1-.547-1.11,1.954,1.954,0,0,1,2.291.429l.817.889a.71.71,0,0,0,.834.155l.947-.469a1.955,1.955,0,0,1,2.292.423A.616.616,0,0,1,2195.713,1207.282Z" transform="translate(-2188.022 -1205.237)" fill="#0e34c4"/>
      </g>
      <g id="Group_1285" data-name="Group 1285" transform="translate(22.265 151.575)">
        <path id="Path_2936" data-name="Path 2936" d="M2240.394,1203.775a.619.619,0,0,1-1.073.42.711.711,0,0,0-.833-.154l-.947.469a1.954,1.954,0,0,1-2.3-.427l-.817-.889a.711.711,0,0,0-.833-.156.619.619,0,0,1-.547-1.11,1.955,1.955,0,0,1,2.291.428l.817.889a.71.71,0,0,0,.834.155l.947-.469a1.955,1.955,0,0,1,2.292.423A.616.616,0,0,1,2240.394,1203.775Z" transform="translate(-2232.703 -1201.731)" fill="#0e34c4"/>
      </g>
      <g id="Group_1286" data-name="Group 1286" transform="translate(24.534 155.49)">
        <path id="Path_2937" data-name="Path 2937" d="M2245.168,1217.5a.6.6,0,0,1,.408.278.626.626,0,0,1-.2.854.719.719,0,0,0-.325.789l.278,1.021a1.959,1.959,0,0,1,.046.733l-1.1,1.532-.009.009-.844.511a.718.718,0,0,0-.325.789.513.513,0,0,1-.019.353l-.019.037v.009l-.019.028-.009.009-.139.186a.521.521,0,0,1-.232.13.628.628,0,0,1-.761-.445,1.955,1.955,0,0,1,.882-2.153l1.03-.622a.73.73,0,0,0,.325-.789l-.269-1.021a1.954,1.954,0,0,1,.872-2.163A.569.569,0,0,1,2245.168,1217.5Z" transform="translate(-2241.832 -1217.487)" fill="#0e34c4"/>
      </g>
      <g id="Group_1287" data-name="Group 1287" transform="translate(11.629 80.809)">
        <path id="Path_2938" data-name="Path 2938" d="M2192.957,916.919a1.926,1.926,0,0,1,1.429.5l.891.807a.686.686,0,0,0,.835.084.62.62,0,0,1,.854.214.568.568,0,0,1,.093.316.619.619,0,0,1-.3.529,1.957,1.957,0,0,1-2.32-.223l-.065-.056v-.009l-.009-.009-.817-.742a.73.73,0,0,0-.845-.083l-.909.557a1.95,1.95,0,0,1-.706.251l-1.2-1.55a.651.651,0,0,1,.418.158.713.713,0,0,0,.844.083l.9-.548A1.766,1.766,0,0,1,2192.957,916.919Z" transform="translate(-2189.894 -916.914)" fill="#0e34c4"/>
      </g>
      <g id="Group_1288" data-name="Group 1288" transform="translate(7.87 191.057)">
        <path id="Path_2939" data-name="Path 2939" d="M2176.409,1361.031a2.011,2.011,0,0,1,.13.7,1.97,1.97,0,0,1-.761,1.55l-.251.195-.761-.984.26-.195a.716.716,0,0,0,.223-.817.621.621,0,0,1,1.16-.445Z" transform="translate(-2174.766 -1360.638)" fill="#0e34c4"/>
      </g>
      <g id="Group_1289" data-name="Group 1289" transform="translate(15.978 123.586)">
        <path id="Path_2940" data-name="Path 2940" d="M2208.67,1089.166a1.955,1.955,0,0,1,1.264,1.176l.426,1.13a.71.71,0,0,0,.716.455l1.054-.082a1.956,1.956,0,0,1,1.969,1.248.619.619,0,1,1-1.157.439.711.711,0,0,0-.715-.454l-1.054.082a1.954,1.954,0,0,1-1.97-1.252l-.426-1.13a.711.711,0,0,0-.715-.455.619.619,0,1,1-.093-1.234A1.931,1.931,0,0,1,2208.67,1089.166Z" transform="translate(-2207.396 -1089.083)" fill="#0e34c4"/>
      </g>
      <g id="Group_1290" data-name="Group 1290" transform="translate(18.634 120.706)">
        <path id="Path_2941" data-name="Path 2941" d="M2218.655,1077.5a1.935,1.935,0,0,1,1.967,1.253l.427,1.132a.707.707,0,0,0,.714.455l.353-.028.928,1.188a.572.572,0,0,0-.13-.009l-1.058.083a1.954,1.954,0,0,1-1.968-1.253l-.427-1.132a.726.726,0,0,0-.715-.455.609.609,0,0,1-.659-.566A.616.616,0,0,1,2218.655,1077.5Z" transform="translate(-2218.086 -1077.492)" fill="#0e34c4"/>
      </g>
      <g id="Group_1291" data-name="Group 1291" transform="translate(11.975 196.289)">
        <path id="Path_2942" data-name="Path 2942" d="M2197.749,1386.316a.619.619,0,0,1-1.212.176.711.711,0,0,0-.68-.505l-1.057,0a1.954,1.954,0,0,1-1.873-1.394l-.342-1.158a.711.711,0,0,0-.679-.507.619.619,0,0,1-.619-.618h0a.619.619,0,0,1,.618-.619,1.956,1.956,0,0,1,1.868,1.394l.341,1.158a.71.71,0,0,0,.681.507l1.057,0a1.955,1.955,0,0,1,1.871,1.39A.617.617,0,0,1,2197.749,1386.316Z" transform="translate(-2191.287 -1381.694)" fill="#0e34c4"/>
      </g>
      <g id="Group_1292" data-name="Group 1292" transform="translate(11.276 182.555)">
        <path id="Path_2943" data-name="Path 2943" d="M2196.287,1328.1a.618.618,0,0,1-.259.5,1.955,1.955,0,0,1-2.33-.05l-.951-.745a.71.71,0,0,0-.849-.017l-.858.617a1.955,1.955,0,0,1-2.331-.044.619.619,0,0,1,.76-.976.71.71,0,0,0,.847.016l.858-.617a1.954,1.954,0,0,1,2.334.047l.95.745a.712.712,0,0,0,.847.018.619.619,0,0,1,.979.5Z" transform="translate(-2188.472 -1326.419)" fill="#0e34c4"/>
      </g>
      <g id="Group_1293" data-name="Group 1293" transform="translate(12.669 90.795)">
        <path id="Path_2944" data-name="Path 2944" d="M2201.333,957.753a.619.619,0,0,1-.748.606.71.71,0,0,0-.769.355l-.5.93a1.954,1.954,0,0,1-2.121.977l-1.18-.255a.711.711,0,0,0-.77.354.619.619,0,0,1-1.087-.591,1.955,1.955,0,0,1,2.118-.973l1.18.255a.711.711,0,0,0,.771-.355l.5-.93a1.955,1.955,0,0,1,2.116-.978A.619.619,0,0,1,2201.333,957.753Z" transform="translate(-2194.081 -957.107)" fill="#0e34c4"/>
      </g>
      <g id="Group_1294" data-name="Group 1294" transform="translate(0.979 113.311)">
        <path id="Path_2945" data-name="Path 2945" d="M2147.046,1052.46a.607.607,0,0,1-.016-.129.619.619,0,0,1,.606-.631.711.711,0,0,0,.668-.521l.277-1.02a1.954,1.954,0,0,1,1.843-1.434l1.207-.021a.711.711,0,0,0,.669-.52.619.619,0,1,1,1.193.328,1.955,1.955,0,0,1-1.841,1.429l-1.208.021a.711.711,0,0,0-.67.521l-.277,1.02a1.954,1.954,0,0,1-1.837,1.434A.619.619,0,0,1,2147.046,1052.46Z" transform="translate(-2147.029 -1047.729)" fill="#0e34c4"/>
      </g>
      <g id="Group_1295" data-name="Group 1295" transform="translate(0.548 120.642)">
        <path id="Path_2946" data-name="Path 2946" d="M2150.982,1097.668a23.472,23.472,0,0,1-1.281-2.784l.77.705A1.937,1.937,0,0,1,2150.982,1097.668Z" transform="translate(-2148.607 -1090.498)" fill="#0e34c4"/>
        <path id="Path_2947" data-name="Path 2947" d="M2146.333,1077.395a1.955,1.955,0,0,1,.427,2.292l-.539,1.086a.674.674,0,0,0-.065.223c-.2-.585-.39-1.179-.548-1.772v-.01l.037-.074a.722.722,0,0,0-.148-.835.781.781,0,0,1-.2-.325v-.056a.2.2,0,0,1-.009-.074.622.622,0,0,1,1.04-.455Z" transform="translate(-2145.294 -1077.232)" fill="#0e34c4"/>
      </g>
      <g id="Group_1296" data-name="Group 1296" transform="translate(24.448 131.293)">
        <path id="Path_2948" data-name="Path 2948" d="M2246.521,1126.08v.024a.619.619,0,0,1-1.237-.008v-.017a.711.711,0,0,0-.5-.676l-1.01-.311a1.946,1.946,0,0,1-1.373-1.888l.018-1.207a.708.708,0,0,0-.5-.686.619.619,0,0,1,.367-1.182,1.956,1.956,0,0,1,1.369,1.857c0,.01,0,.02,0,.029l-.018,1.207a.71.71,0,0,0,.5.687l1.01.311A1.956,1.956,0,0,1,2246.521,1126.08Z" transform="translate(-2241.486 -1120.102)" fill="#0e34c4"/>
      </g>
      <g id="Group_1297" data-name="Group 1297" transform="translate(2.246 160.588)">
        <path id="Path_2949" data-name="Path 2949" d="M2156.844,1238.028a.612.612,0,0,1,.436.3.639.639,0,0,1,.074.418.617.617,0,0,1-.705.51h-.028a.712.712,0,0,0-.724.4l-.455.947a1.949,1.949,0,0,1-2.07,1.086l-1.188-.195a.115.115,0,0,0-.056-.01c.176-.39.362-.77.575-1.151l.872.139a.717.717,0,0,0,.752-.4l.455-.956A1.962,1.962,0,0,1,2156.844,1238.028Z" transform="translate(-2152.13 -1238.006)" fill="#0e34c4"/>
      </g>
      <g id="Group_1298" data-name="Group 1298" transform="translate(23.327 209.694)">
        <path id="Path_2950" data-name="Path 2950" d="M2240.208,1436.733a1.955,1.955,0,0,1-.76,1.55l-.958.734a.711.711,0,0,0-.229.818l.383.985a1.956,1.956,0,0,1-.625,2.245.619.619,0,1,1-.755-.98.71.71,0,0,0,.228-.817l-.383-.985a1.954,1.954,0,0,1,.63-2.248l.958-.734a.711.711,0,0,0,.229-.816.619.619,0,0,1,1.155-.446A1.922,1.922,0,0,1,2240.208,1436.733Z" transform="translate(-2236.977 -1435.643)" fill="#0e34c4"/>
      </g>
      <g id="Group_1299" data-name="Group 1299" transform="translate(12.446 230.371)">
        <path id="Path_2951" data-name="Path 2951" d="M2195.742,1519.259a2.052,2.052,0,0,1,.13.7,1.916,1.916,0,0,1-.353,1.114,9.084,9.084,0,0,1-2.339.39,1.108,1.108,0,0,1,.214-.2l.965-.733a.715.715,0,0,0,.223-.817.618.618,0,0,1,.362-.8A.624.624,0,0,1,2195.742,1519.259Z" transform="translate(-2193.181 -1518.866)" fill="#0e34c4"/>
      </g>
      <g id="Group_1300" data-name="Group 1300" transform="translate(13.95 75.245)">
        <path id="Path_2952" data-name="Path 2952" d="M2206.037,895.985a1.955,1.955,0,0,1-1.688.358l-1.169-.3a.71.71,0,0,0-.785.324l-.539.909a1.955,1.955,0,0,1-2.153.893.619.619,0,1,1,.305-1.2.711.711,0,0,0,.783-.325l.539-.909a1.953,1.953,0,0,1,2.157-.891l1.169.3a.711.711,0,0,0,.783-.323.619.619,0,1,1,1.063.634A1.922,1.922,0,0,1,2206.037,895.985Z" transform="translate(-2199.237 -894.52)" fill="#0e34c4"/>
      </g>
      <g id="Group_1301" data-name="Group 1301" transform="translate(23.597 70.278)">
        <path id="Path_2953" data-name="Path 2953" d="M2242.822,880a1.955,1.955,0,0,1-1.064-1.359l-.244-1.182a.71.71,0,0,0-.636-.562l-1.053-.084a1.956,1.956,0,0,1-1.749-1.541.619.619,0,1,1,1.211-.253.71.71,0,0,0,.636.56l1.053.084a1.955,1.955,0,0,1,1.75,1.545l.244,1.182a.712.712,0,0,0,.635.562.619.619,0,1,1-.1,1.233A1.92,1.92,0,0,1,2242.822,880Z" transform="translate(-2238.062 -874.53)" fill="#0e34c4"/>
      </g>
      <g id="Group_1302" data-name="Group 1302" transform="translate(23.568 192.74)">
        <path id="Path_2954" data-name="Path 2954" d="M2241.666,1368.429a.619.619,0,0,1-.479.6l-1.03.239a1.956,1.956,0,0,1-2.134-.939.619.619,0,0,1,1.078-.607.711.711,0,0,0,.776.341l1.029-.239a.619.619,0,0,1,.743.463A.607.607,0,0,1,2241.666,1368.429Z" transform="translate(-2237.944 -1367.409)" fill="#0e34c4"/>
      </g>
      <g id="Group_1303" data-name="Group 1303" transform="translate(12.45 190.708)">
        <path id="Path_2955" data-name="Path 2955" d="M2196.921,1360.253a.619.619,0,0,1-.479.6l-1.03.239a1.956,1.956,0,0,1-2.134-.939.619.619,0,0,1,1.078-.608.711.711,0,0,0,.776.341l1.029-.239a.619.619,0,0,1,.743.463A.634.634,0,0,1,2196.921,1360.253Z" transform="translate(-2193.199 -1359.233)" fill="#0e34c4"/>
      </g>
      <g id="Group_1304" data-name="Group 1304" transform="translate(17.719 217.97)">
        <path id="Path_2956" data-name="Path 2956" d="M2217.457,1469.582a.667.667,0,0,1-.005.082.619.619,0,0,1-.7.532.71.71,0,0,0-.739.414l-.428.966a.619.619,0,1,1-1.132-.5l.428-.966a1.955,1.955,0,0,1,2.033-1.14A.619.619,0,0,1,2217.457,1469.582Z" transform="translate(-2214.405 -1468.952)" fill="#0e34c4"/>
      </g>
      <g id="Group_1305" data-name="Group 1305" transform="translate(23.983 219.613)">
        <path id="Path_2957" data-name="Path 2957" d="M2242.075,1475.582l-2.1,2.914a.619.619,0,0,1-.306-.817l.427-.965A1.92,1.92,0,0,1,2242.075,1475.582Z" transform="translate(-2239.617 -1475.568)" fill="#0e34c4"/>
      </g>
      <g id="Group_1306" data-name="Group 1306" transform="translate(18.308 146.589)">
        <path id="Path_2958" data-name="Path 2958" d="M2218.528,1183.74a1.955,1.955,0,0,1-.756,1.547.619.619,0,1,1-.755-.98.711.711,0,0,0,.227-.817l-.383-.985a.619.619,0,1,1,1.153-.448l.383.985A1.92,1.92,0,0,1,2218.528,1183.74Z" transform="translate(-2216.775 -1181.662)" fill="#0e34c4"/>
      </g>
      <g id="Group_1307" data-name="Group 1307" transform="translate(30.778 148.282)">
        <path id="Path_2959" data-name="Path 2959" d="M2268.206,1188.87l.26.659v.009a23.856,23.856,0,0,1-.649,2.645v.009a.643.643,0,0,1-.724-.2.618.618,0,0,1,.111-.863.713.713,0,0,0,.232-.817l-.381-.993a.61.61,0,0,1,.353-.8A.621.621,0,0,1,2268.206,1188.87Z" transform="translate(-2266.966 -1188.477)" fill="#0e34c4"/>
      </g>
      <g id="Group_1308" data-name="Group 1308" transform="translate(17.957 132.046)">
        <path id="Path_2960" data-name="Path 2960" d="M2215.686,1125.253a1.956,1.956,0,0,1-.216-1.708.619.619,0,1,1,1.169.406.711.711,0,0,0,.257.807l.861.614a.619.619,0,0,1-.719,1.007l-.86-.614A1.923,1.923,0,0,1,2215.686,1125.253Z" transform="translate(-2215.364 -1123.129)" fill="#0e34c4"/>
      </g>
      <g id="Group_1309" data-name="Group 1309" transform="translate(26.875 129.065)">
        <path id="Path_2961" data-name="Path 2961" d="M2251.351,1111.132l.631.817a23.54,23.54,0,0,1,1.429,2.07.577.577,0,0,1-.483-.1l-.863-.612a1.974,1.974,0,0,1-.492-.51A1.94,1.94,0,0,1,2251.351,1111.132Z" transform="translate(-2251.256 -1111.132)" fill="#0e34c4"/>
      </g>
      <g id="Group_1310" data-name="Group 1310" transform="translate(30.092 139.833)">
        <path id="Path_2962" data-name="Path 2962" d="M2265.09,1154.507a.623.623,0,0,1,.39.789.713.713,0,0,0,.25.807l.863.613a.111.111,0,0,1,.047.046c.037.279.065.548.083.835v.009a.634.634,0,0,1-.845.121l-.863-.622a1.978,1.978,0,0,1-.492-.51,1.941,1.941,0,0,1-.213-1.708A.611.611,0,0,1,2265.09,1154.507Z" transform="translate(-2264.202 -1154.473)" fill="#0e34c4"/>
      </g>
      <g id="Group_1311" data-name="Group 1311" transform="translate(14.7 158.237)">
        <path id="Path_2963" data-name="Path 2963" d="M2204.008,1230.623a1.956,1.956,0,0,1-.756,1.547.619.619,0,1,1-.755-.98.711.711,0,0,0,.228-.816l-.383-.985a.619.619,0,0,1,1.153-.449l.383.985A1.927,1.927,0,0,1,2204.008,1230.623Z" transform="translate(-2202.255 -1228.545)" fill="#0e34c4"/>
      </g>
      <g id="Group_1312" data-name="Group 1312" transform="translate(22.378 163.6)">
        <path id="Path_2964" data-name="Path 2964" d="M2234.388,1250.515l.353.91-1.513,2.116a.6.6,0,0,1,.167-.77.709.709,0,0,0,.223-.817l-.38-.984a.617.617,0,0,1,.353-.8A.609.609,0,0,1,2234.388,1250.515Z" transform="translate(-2233.156 -1250.126)" fill="#0e34c4"/>
      </g>
      <g id="Group_1313" data-name="Group 1313" transform="translate(7.669 154.569)">
        <path id="Path_2965" data-name="Path 2965" d="M2174.817,1213.779a.626.626,0,0,1,.38.371l.381.984a1.817,1.817,0,0,1,.13.7,1.975,1.975,0,0,1-.752,1.55.622.622,0,1,1-.761-.984.71.71,0,0,0,.232-.817l-.315-.817Z" transform="translate(-2173.957 -1213.779)" fill="#0e34c4"/>
      </g>
      <g id="Group_1314" data-name="Group 1314" transform="translate(13.513 177.036)">
        <path id="Path_2966" data-name="Path 2966" d="M2198.534,1306.31a1.956,1.956,0,0,1-1.048-1.367.619.619,0,1,1,1.214-.239.711.711,0,0,0,.629.568l1.052.1a.619.619,0,1,1-.113,1.232l-1.052-.1A1.928,1.928,0,0,1,2198.534,1306.31Z" transform="translate(-2197.475 -1304.205)" fill="#0e34c4"/>
      </g>
      <g id="Group_1315" data-name="Group 1315" transform="translate(6.051 187.616)">
        <path id="Path_2967" data-name="Path 2967" d="M2169.1,1346.889a1.955,1.955,0,0,1,1.707.228.619.619,0,1,1-.691,1.026.711.711,0,0,0-.846.042l-.813.675a.619.619,0,0,1-.79-.952l.813-.675A1.92,1.92,0,0,1,2169.1,1346.889Z" transform="translate(-2167.445 -1346.789)" fill="#0e34c4"/>
      </g>
      <g id="Group_1316" data-name="Group 1316" transform="translate(11.721 185.81)">
        <path id="Path_2968" data-name="Path 2968" d="M2192.34,1341.769a1.956,1.956,0,0,1-1.722.029.619.619,0,1,1,.531-1.118.711.711,0,0,0,.831-.168l.7-.789a.619.619,0,1,1,.923.824l-.7.789A1.918,1.918,0,0,1,2192.34,1341.769Z" transform="translate(-2190.265 -1339.516)" fill="#0e34c4"/>
      </g>
      <g id="Group_1317" data-name="Group 1317" transform="translate(14.908 133.665)">
        <path id="Path_2969" data-name="Path 2969" d="M2204.843,1131.724a1.955,1.955,0,0,1-.756,1.547.619.619,0,1,1-.755-.98.711.711,0,0,0,.227-.817l-.383-.985a.619.619,0,0,1,1.153-.449l.383.985A1.924,1.924,0,0,1,2204.843,1131.724Z" transform="translate(-2203.09 -1129.646)" fill="#0e34c4"/>
      </g>
      <g id="Group_1318" data-name="Group 1318" transform="translate(10.459 137.841)">
        <path id="Path_2970" data-name="Path 2970" d="M2186.245,1146.848l.381.984a1.873,1.873,0,0,1,.139.705,1.18,1.18,0,0,1-.009.176l-1.568-2.014a.639.639,0,0,1,.26-.2A.621.621,0,0,1,2186.245,1146.848Z" transform="translate(-2185.187 -1146.455)" fill="#0e34c4"/>
      </g>
      <g id="Group_1319" data-name="Group 1319" transform="translate(11.475 102.161)">
        <path id="Path_2971" data-name="Path 2971" d="M2192.373,1003.471a.617.617,0,0,1-.06.266l-.455.954a1.955,1.955,0,0,1-2.064,1.082.619.619,0,0,1,.2-1.222.711.711,0,0,0,.751-.394l.455-.954a.619.619,0,0,1,1.177.267Z" transform="translate(-2189.273 -1002.851)" fill="#0e34c4"/>
      </g>
      <g id="Group_1320" data-name="Group 1320" transform="translate(2.051 103.413)">
        <path id="Path_2972" data-name="Path 2972" d="M2152.867,1007.889a.688.688,0,0,1,.148.046.634.634,0,0,1,.353.566.657.657,0,0,1-.056.26l-.455.956a1.979,1.979,0,0,1-1.513,1.086A22.308,22.308,0,0,1,2152.867,1007.889Z" transform="translate(-2151.345 -1007.889)" fill="#0e34c4"/>
      </g>
      <g id="Group_1321" data-name="Group 1321" transform="translate(13.125 63.426)">
        <path id="Path_2973" data-name="Path 2973" d="M2199.016,847.57a.618.618,0,0,1-.061.266l-.455.954a1.956,1.956,0,0,1-2.064,1.082.619.619,0,1,1,.2-1.221.711.711,0,0,0,.75-.394l.455-.954a.619.619,0,0,1,1.177.267Z" transform="translate(-2195.915 -846.951)" fill="#0e34c4"/>
      </g>
      <g id="Group_1322" data-name="Group 1322" transform="translate(8.334 75.462)">
        <path id="Path_2974" data-name="Path 2974" d="M2178.7,895.456a.611.611,0,0,1,.353.557.65.65,0,0,1-.056.26l-.455.956a1.875,1.875,0,0,1-1.049.965l-.863-1.1c.019-.009.028,0,.046,0a.71.71,0,0,0,.752-.39l.455-.956A.607.607,0,0,1,2178.7,895.456Z" transform="translate(-2176.633 -895.395)" fill="#0e34c4"/>
      </g>
      <g id="Group_1323" data-name="Group 1323" transform="translate(18.493 70.882)">
        <path id="Path_2975" data-name="Path 2975" d="M2220.622,877.579a.618.618,0,0,1-.06.266l-.455.954a1.955,1.955,0,0,1-2.064,1.082.619.619,0,1,1,.2-1.221.711.711,0,0,0,.751-.394l.455-.954a.619.619,0,0,1,1.177.267Z" transform="translate(-2217.522 -876.959)" fill="#0e34c4"/>
      </g>
      <g id="Group_1324" data-name="Group 1324" transform="translate(5.262 72.065)">
        <path id="Path_2976" data-name="Path 2976" d="M2165.466,881.785a.61.61,0,0,1,.353.557.68.68,0,0,1-.065.269l-.455.956a1.631,1.631,0,0,1-.214.343l-.817-1.058.371-.78A.618.618,0,0,1,2165.466,881.785Z" transform="translate(-2164.269 -881.724)" fill="#0e34c4"/>
      </g>
      <g id="Group_1325" data-name="Group 1325" transform="translate(18.813 62.957)">
        <path id="Path_2977" data-name="Path 2977" d="M2220.8,845.066l.844,1.086-.251.52a1.937,1.937,0,0,1-2.032,1.077h-.037a.617.617,0,0,1-.511-.705.611.611,0,0,1,.706-.51.716.716,0,0,0,.752-.4l.455-.956A.335.335,0,0,1,2220.8,845.066Z" transform="translate(-2218.809 -845.066)" fill="#0e34c4"/>
      </g>
      <g id="Group_1326" data-name="Group 1326" transform="translate(20.242 50.43)">
        <path id="Path_2978" data-name="Path 2978" d="M2228.164,795.665a.622.622,0,0,1-.218.164l-.963.435a1.955,1.955,0,0,1-2.275-.506.619.619,0,1,1,.939-.806.711.711,0,0,0,.827.184l.963-.435a.619.619,0,0,1,.727.964Z" transform="translate(-2224.557 -794.646)" fill="#0e34c4"/>
      </g>
      <g id="Group_1327" data-name="Group 1327" transform="translate(8.314 110.448)">
        <path id="Path_2979" data-name="Path 2979" d="M2179.651,1036.822a.617.617,0,0,1-.061.266l-.455.954a1.955,1.955,0,0,1-2.064,1.082.619.619,0,0,1,.2-1.222.711.711,0,0,0,.751-.394l.455-.954a.619.619,0,0,1,1.177.267Z" transform="translate(-2176.551 -1036.203)" fill="#0e34c4"/>
      </g>
      <g id="Group_1328" data-name="Group 1328" transform="translate(3.687 107.942)">
        <path id="Path_2980" data-name="Path 2980" d="M2161.066,1028.371a.616.616,0,0,1-.269.047l-1.056-.051a1.956,1.956,0,0,1-1.8-1.485.619.619,0,1,1,1.2-.291.711.711,0,0,0,.653.54l1.055.051a.619.619,0,0,1,.209,1.189Z" transform="translate(-2157.928 -1026.118)" fill="#0e34c4"/>
      </g>
      <g id="Group_1329" data-name="Group 1329" transform="translate(0.325 110.782)">
        <path id="Path_2981" data-name="Path 2981" d="M2144.676,1037.547a.668.668,0,0,0,.612.427l1.058.056a.618.618,0,0,1,.2,1.188.534.534,0,0,1-.27.047l-1.058-.047a1.935,1.935,0,0,1-.826-.241C2144.472,1038.494,2144.565,1038.03,2144.676,1037.547Z" transform="translate(-2144.398 -1037.547)" fill="#0e34c4"/>
      </g>
      <g id="Group_1330" data-name="Group 1330" transform="translate(14.258 116.45)">
        <path id="Path_2982" data-name="Path 2982" d="M2203.573,1060.982a.617.617,0,0,1-.06.266l-.455.954a1.956,1.956,0,0,1-2.064,1.082.619.619,0,1,1,.2-1.222.711.711,0,0,0,.75-.394l.455-.954a.619.619,0,0,1,1.177.267Z" transform="translate(-2200.473 -1060.363)" fill="#0e34c4"/>
      </g>
      <g id="Group_1331" data-name="Group 1331" transform="translate(5.246 180.612)">
        <path id="Path_2983" data-name="Path 2983" d="M2167.927,1319.619a.619.619,0,0,1-.479.6l-1.03.239a1.955,1.955,0,0,1-2.133-.939.619.619,0,1,1,1.078-.608.711.711,0,0,0,.776.341l1.029-.239a.619.619,0,0,1,.743.463A.6.6,0,0,1,2167.927,1319.619Z" transform="translate(-2164.205 -1318.599)" fill="#0e34c4"/>
      </g>
      <g id="Group_1332" data-name="Group 1332" transform="translate(14.918 205.548)">
        <path id="Path_2984" data-name="Path 2984" d="M2206.182,1419.587a.621.621,0,0,1-.7.614.711.711,0,0,0-.739.415l-.428.966a.619.619,0,0,1-1.132-.5l.428-.966a1.955,1.955,0,0,1,2.033-1.14A.619.619,0,0,1,2206.182,1419.587Z" transform="translate(-2203.131 -1418.958)" fill="#0e34c4"/>
      </g>
      <g id="Group_1333" data-name="Group 1333" transform="translate(10.376 208.444)">
        <path id="Path_2985" data-name="Path 2985" d="M2186.1,1430.614a.626.626,0,0,1,.019.742.709.709,0,0,0,.009.844l.649.835a.618.618,0,1,1-.974.761l-.649-.835a1.765,1.765,0,0,1-.306-.6Z" transform="translate(-2184.851 -1430.614)" fill="#0e34c4"/>
      </g>
      <g id="Group_1334" data-name="Group 1334" transform="translate(27.898 209.95)">
        <path id="Path_2986" data-name="Path 2986" d="M2258.423,1437.3a.619.619,0,0,1-.7.614.711.711,0,0,0-.739.415l-.428.967a.619.619,0,0,1-1.131-.5l.428-.966a1.955,1.955,0,0,1,2.033-1.14A.619.619,0,0,1,2258.423,1437.3Z" transform="translate(-2255.371 -1436.674)" fill="#0e34c4"/>
      </g>
      <g id="Group_1335" data-name="Group 1335" transform="translate(23.121 204.232)">
        <path id="Path_2987" data-name="Path 2987" d="M2237.912,1417.048a.61.61,0,0,1-.078-.024.619.619,0,0,1-.361-.8.711.711,0,0,0-.236-.814l-.844-.636a.619.619,0,1,1,.745-.988l.844.636a1.955,1.955,0,0,1,.649,2.238A.619.619,0,0,1,2237.912,1417.048Z" transform="translate(-2236.146 -1413.664)" fill="#0e34c4"/>
      </g>
      <g id="Group_1336" data-name="Group 1336" transform="translate(8.467 162.695)">
        <path id="Path_2988" data-name="Path 2988" d="M2180.661,1248.222a.619.619,0,0,1-1.224.13.711.711,0,0,0-.64-.556l-1.054-.076a.619.619,0,1,1,.09-1.234l1.054.076a1.955,1.955,0,0,1,1.76,1.528A.621.621,0,0,1,2180.661,1248.222Z" transform="translate(-2177.169 -1246.484)" fill="#0e34c4"/>
      </g>
      <g id="Group_1337" data-name="Group 1337" transform="translate(13.682 170.851)">
        <path id="Path_2989" data-name="Path 2989" d="M2198.32,1281.044a.619.619,0,0,1,.814-.923.711.711,0,0,0,.847-.022l.829-.656a.619.619,0,1,1,.768.97l-.829.656a1.955,1.955,0,0,1-2.33.062A.634.634,0,0,1,2198.32,1281.044Z" transform="translate(-2198.158 -1279.311)" fill="#0e34c4"/>
      </g>
      <g id="Group_1338" data-name="Group 1338" transform="translate(15.122 142.059)">
        <path id="Path_2990" data-name="Path 2990" d="M2205.7,1165.508a1.954,1.954,0,0,1-.756,1.547.619.619,0,1,1-.755-.98.711.711,0,0,0,.228-.816l-.383-.985a.619.619,0,0,1,1.154-.449l.383.985A1.926,1.926,0,0,1,2205.7,1165.508Z" transform="translate(-2203.952 -1163.43)" fill="#0e34c4"/>
      </g>
      <g id="Group_1339" data-name="Group 1339" transform="translate(12.468 147.181)">
        <path id="Path_2991" data-name="Path 2991" d="M2194.474,1184.046a.15.15,0,0,1,.037.065l.38.993a1.813,1.813,0,0,1,.13.7,1.974,1.974,0,0,1-.752,1.55.623.623,0,0,1-.872-.121.611.611,0,0,1,.121-.863.723.723,0,0,0,.223-.817l-.065-.158.186-.251A5.306,5.306,0,0,0,2194.474,1184.046Z" transform="translate(-2193.271 -1184.046)" fill="#0e34c4"/>
      </g>
      <g id="Group_1340" data-name="Group 1340" transform="translate(5.229 121.97)">
        <path id="Path_2992" data-name="Path 2992" d="M2165.889,1084.655a1.955,1.955,0,0,1-.756,1.547.619.619,0,0,1-.755-.981.71.71,0,0,0,.227-.816l-.383-.985a.619.619,0,0,1,1.153-.449l.383.985A1.928,1.928,0,0,1,2165.889,1084.655Z" transform="translate(-2164.136 -1082.577)" fill="#0e34c4"/>
      </g>
      <g id="Group_1341" data-name="Group 1341" transform="translate(4.823 129.191)">
        <path id="Path_2993" data-name="Path 2993" d="M2163.691,1112.035l.39.993a1.944,1.944,0,0,1-.288,1.9l-.845-1.077v-.009a.638.638,0,0,0-.028-.371l-.381-.984a.631.631,0,0,1,.353-.808A.621.621,0,0,1,2163.691,1112.035Z" transform="translate(-2162.5 -1111.642)" fill="#0e34c4"/>
      </g>
      <g id="Group_1342" data-name="Group 1342" transform="translate(20.18 100.223)">
        <path id="Path_2994" data-name="Path 2994" d="M2227.411,995.672a.618.618,0,0,1-.061.266l-.455.954a1.955,1.955,0,0,1-2.065,1.082.619.619,0,0,1,.2-1.222.711.711,0,0,0,.751-.393l.455-.954a.619.619,0,0,1,1.177.267Z" transform="translate(-2224.31 -995.053)" fill="#0e34c4"/>
      </g>
      <g id="Group_1343" data-name="Group 1343" transform="translate(21.309 109.307)">
        <path id="Path_2995" data-name="Path 2995" d="M2229.568,1031.62a.207.207,0,0,0,.074.009l-.687.947a.622.622,0,0,1,.613-.956Z" transform="translate(-2228.853 -1031.612)" fill="#0e34c4"/>
      </g>
      <g id="Group_1344" data-name="Group 1344" transform="translate(26.113 197.836)">
        <path id="Path_2996" data-name="Path 2996" d="M2251.289,1388.54a.617.617,0,0,1-.06.266l-.455.954a1.955,1.955,0,0,1-2.065,1.082.619.619,0,0,1,.2-1.221.711.711,0,0,0,.751-.394l.455-.954a.619.619,0,0,1,1.177.267Z" transform="translate(-2248.189 -1387.921)" fill="#0e34c4"/>
      </g>
      <g id="Group_1345" data-name="Group 1345" transform="translate(2.141 171.143)">
        <path id="Path_2997" data-name="Path 2997" d="M2155.43,1281.509a.619.619,0,0,1-.479.6l-1.029.239a1.955,1.955,0,0,1-2.133-.939.619.619,0,1,1,1.078-.608.711.711,0,0,0,.776.341l1.03-.239a.619.619,0,0,1,.743.463A.629.629,0,0,1,2155.43,1281.509Z" transform="translate(-2151.709 -1280.488)" fill="#0e34c4"/>
      </g>
      <g id="Group_1346" data-name="Group 1346" transform="translate(0.622 165.454)">
        <path id="Path_2998" data-name="Path 2998" d="M2147.124,1257.591l.139.028a.622.622,0,0,1,.436.631l-.074,1.058a1.965,1.965,0,0,1-1.513,1.773.609.609,0,0,1-.52-.121c.083-.371.176-.733.278-1.1a.694.694,0,0,0,.52-.631l.074-1.058A.622.622,0,0,1,2147.124,1257.591Z" transform="translate(-2145.593 -1257.59)" fill="#0e34c4"/>
      </g>
      <g id="Group_1347" data-name="Group 1347" transform="translate(0.167 177.149)">
        <path id="Path_2999" data-name="Path 2999" d="M2143.93,1305.875v.01a.318.318,0,0,0,.093.009l1.058.028a.716.716,0,0,1,.668.52.615.615,0,0,0,.761.436.6.6,0,0,0,.39-.325.615.615,0,0,0,.046-.427,1.767,1.767,0,0,0-.242-.538,1.942,1.942,0,0,0-1.6-.9l-1.058-.028a.6.6,0,0,0-.287.065Z" transform="translate(-2143.763 -1304.659)" fill="#0e34c4"/>
      </g>
      <g id="Group_1348" data-name="Group 1348" transform="translate(20.818 155.357)">
        <path id="Path_3000" data-name="Path 3000" d="M2228.631,1219.028a1.956,1.956,0,0,1-.757,1.547.619.619,0,0,1-.755-.981.71.71,0,0,0,.228-.816l-.383-.985a.619.619,0,1,1,1.153-.448l.383.985A1.925,1.925,0,0,1,2228.631,1219.028Z" transform="translate(-2226.878 -1216.95)" fill="#0e34c4"/>
      </g>
      <g id="Group_1349" data-name="Group 1349" transform="translate(27.831 81.171)">
        <path id="Path_3001" data-name="Path 3001" d="M2256.215,920.46a1.955,1.955,0,0,1-1.1-1.327.619.619,0,1,1,1.2-.283.711.711,0,0,0,.65.544l1.055.057a.619.619,0,1,1-.067,1.236l-1.055-.057A1.923,1.923,0,0,1,2256.215,920.46Z" transform="translate(-2255.102 -918.373)" fill="#0e34c4"/>
      </g>
      <g id="Group_1350" data-name="Group 1350" transform="translate(31.438 83.607)">
        <path id="Path_3002" data-name="Path 3002" d="M2270.683,928.177c.046.445.093.9.121,1.355l-.26.148a.622.622,0,0,1-.844-.241.61.61,0,0,1,.232-.835Z" transform="translate(-2269.619 -928.177)" fill="#0e34c4"/>
      </g>
      <g id="Group_1351" data-name="Group 1351" transform="translate(17.012 84.495)">
        <path id="Path_3003" data-name="Path 3003" d="M2213.313,933.828a1.956,1.956,0,0,1-.756,1.547.619.619,0,1,1-.755-.981.71.71,0,0,0,.228-.816l-.383-.985a.619.619,0,0,1,1.153-.448l.383.985A1.925,1.925,0,0,1,2213.313,933.828Z" transform="translate(-2211.56 -931.75)" fill="#0e34c4"/>
      </g>
      <g id="Group_1352" data-name="Group 1352" transform="translate(9.17 93.389)">
        <path id="Path_3004" data-name="Path 3004" d="M2181.526,967.547l.037.1a2.058,2.058,0,0,1,.13.7,1.97,1.97,0,0,1-.761,1.55.61.61,0,0,1-.863-.111.849.849,0,0,1-.074-.12Z" transform="translate(-2179.995 -967.547)" fill="#0e34c4"/>
      </g>
      <g id="Group_1353" data-name="Group 1353" transform="translate(14.033 86.549)">
        <path id="Path_3005" data-name="Path 3005" d="M2199.679,940.018l.167.056a2.019,2.019,0,0,1,.622.343,1.978,1.978,0,0,1,.715,1.569.622.622,0,1,1-1.244-.037.672.672,0,0,0-.371-.64,5.416,5.416,0,0,0,.121-1.16A.6.6,0,0,0,2199.679,940.018Z" transform="translate(-2199.568 -940.018)" fill="#0e34c4"/>
      </g>
      <g id="Group_1354" data-name="Group 1354" transform="translate(25.177 91.509)">
        <path id="Path_3006" data-name="Path 3006" d="M2246.174,962.057a1.956,1.956,0,0,1-.756,1.547.619.619,0,0,1-.755-.98.71.71,0,0,0,.228-.816l-.383-.985a.619.619,0,1,1,1.153-.448l.383.985A1.926,1.926,0,0,1,2246.174,962.057Z" transform="translate(-2244.422 -959.979)" fill="#0e34c4"/>
      </g>
      <g id="Group_1355" data-name="Group 1355" transform="translate(30.655 91.008)">
        <path id="Path_3007" data-name="Path 3007" d="M2268.111,957.968c-.083.529-.195,1.049-.325,1.559a.678.678,0,0,0-.084.325c-.139.566-.306,1.114-.5,1.671a.456.456,0,0,1-.111.009.62.62,0,0,1-.622-.612v-1.058a1.951,1.951,0,0,1,1.392-1.875A.583.583,0,0,1,2268.111,957.968Z" transform="translate(-2266.468 -957.962)" fill="#0e34c4"/>
      </g>
      <g id="Group_1356" data-name="Group 1356" transform="translate(10.715 221.97)">
        <path id="Path_3008" data-name="Path 3008" d="M2189.316,1485.672a.612.612,0,0,1-.06.266l-.455.954a1.954,1.954,0,0,1-2.064,1.082.619.619,0,1,1,.2-1.221.711.711,0,0,0,.75-.394l.455-.954a.619.619,0,0,1,1.177.267Z" transform="translate(-2186.216 -1485.053)" fill="#0e34c4"/>
      </g>
      <g id="Group_1357" data-name="Group 1357" transform="translate(6.157 166.42)">
        <path id="Path_3009" data-name="Path 3009" d="M2174.334,1266.1a.619.619,0,0,1-1.212.176.711.711,0,0,0-.68-.505l-1.057,0a1.954,1.954,0,0,1-1.873-1.394l-.341-1.158a.712.712,0,0,0-.679-.507.619.619,0,0,1-.619-.618h0a.618.618,0,0,1,.618-.619,1.955,1.955,0,0,1,1.868,1.394l.342,1.158a.71.71,0,0,0,.681.507l1.057,0a1.955,1.955,0,0,1,1.871,1.39A.615.615,0,0,1,2174.334,1266.1Z" transform="translate(-2167.872 -1261.477)" fill="#0e34c4"/>
      </g>
      <g id="Group_1358" data-name="Group 1358" transform="translate(0.019 171.952)">
        <path id="Path_3010" data-name="Path 3010" d="M2143.267,1283.741a1.9,1.9,0,0,1,.789,1.058.589.589,0,0,1,.028.176.624.624,0,0,1-.446.594.638.638,0,0,1-.473-.056A16.222,16.222,0,0,1,2143.267,1283.741Z" transform="translate(-2143.165 -1283.741)" fill="#0e34c4"/>
      </g>
      <g id="Group_1359" data-name="Group 1359" transform="translate(6.157 174.885)">
        <path id="Path_3011" data-name="Path 3011" d="M2174.334,1300.168a.619.619,0,0,1-1.212.176.711.711,0,0,0-.68-.505l-1.057,0a1.954,1.954,0,0,1-1.873-1.394l-.341-1.158a.712.712,0,0,0-.679-.507.619.619,0,0,1-.619-.618h0a.619.619,0,0,1,.618-.619,1.956,1.956,0,0,1,1.868,1.394l.342,1.158a.71.71,0,0,0,.681.507l1.057,0a1.955,1.955,0,0,1,1.871,1.39A.614.614,0,0,1,2174.334,1300.168Z" transform="translate(-2167.872 -1295.546)" fill="#0e34c4"/>
      </g>
      <g id="Group_1360" data-name="Group 1360" transform="translate(0.974 181.195)">
        <path id="Path_3012" data-name="Path 3012" d="M2147.012,1320.945a1.95,1.95,0,0,1,1.457,1.346l.343,1.16a.727.727,0,0,0,.687.511l1.049-.009a1.8,1.8,0,0,1,.705.139,1.9,1.9,0,0,1,1.17,1.253.584.584,0,0,1,.028.176.622.622,0,0,1-.148.4.667.667,0,0,1-.3.2.63.63,0,0,1-.77-.418.688.688,0,0,0-.678-.5H2149.5a1.939,1.939,0,0,1-.947-.241v-.009A23.563,23.563,0,0,1,2147.012,1320.945Z" transform="translate(-2147.012 -1320.945)" fill="#0e34c4"/>
      </g>
      <g id="Group_1361" data-name="Group 1361" transform="translate(20.508 179.014)">
        <path id="Path_3013" data-name="Path 3013" d="M2225.708,1312.167l1.745,2.246-.167.807a.71.71,0,0,0,.362.77l.928.5a1.937,1.937,0,0,1,.993,2.107.616.616,0,1,1-1.207-.251.736.736,0,0,0-.362-.77l-.937-.492a1.949,1.949,0,0,1-.993-2.116l.241-1.179a.716.716,0,0,0-.353-.77.587.587,0,0,1-.325-.511.571.571,0,0,1,.065-.325C2225.7,1312.176,2225.708,1312.176,2225.708,1312.167Z" transform="translate(-2225.632 -1312.167)" fill="#0e34c4"/>
      </g>
      <g id="Group_1362" data-name="Group 1362" transform="translate(17.537 186.605)">
        <path id="Path_3014" data-name="Path 3014" d="M2221.12,1343.914a.619.619,0,0,1,.089,1.074,1.955,1.955,0,0,1-2.328-.107l-.932-.767a.711.711,0,0,0-.848-.038l-.873.6a1.956,1.956,0,0,1-2.329-.1.619.619,0,1,1,.784-.957.71.71,0,0,0,.847.037l.873-.6a1.955,1.955,0,0,1,2.333.1l.932.767a.712.712,0,0,0,.847.039A.617.617,0,0,1,2221.12,1343.914Z" transform="translate(-2213.672 -1342.717)" fill="#0e34c4"/>
      </g>
      <g id="Group_1363" data-name="Group 1363" transform="translate(19.29 192.606)">
        <path id="Path_3015" data-name="Path 3015" d="M2224.4,1373.623a.619.619,0,0,1-.939.529,1.955,1.955,0,0,1-.873-2.161l.309-1.167a.71.71,0,0,0-.319-.787l-.906-.545a1.956,1.956,0,0,1-.879-2.159.619.619,0,1,1,1.2.313.709.709,0,0,0,.32.785l.906.545a1.954,1.954,0,0,1,.877,2.164l-.309,1.167a.711.711,0,0,0,.317.786A.618.618,0,0,1,2224.4,1373.623Z" transform="translate(-2220.727 -1366.871)" fill="#0e34c4"/>
      </g>
      <g id="Group_1364" data-name="Group 1364" transform="translate(28.093 191.366)">
        <path id="Path_3016" data-name="Path 3016" d="M2256.974,1361.9a.618.618,0,0,1,.445.752.7.7,0,0,0,.316.789l.91.548a1.744,1.744,0,0,1,.26.2v.009c.241.575.455,1.169.65,1.763a1.435,1.435,0,0,1-.037.195l-.306,1.16a.714.714,0,0,0,.316.789.621.621,0,0,1,.3.529.678.678,0,0,1-.084.325.626.626,0,0,1-.854.2,1.963,1.963,0,0,1-.872-2.163l.306-1.16a.7.7,0,0,0-.316-.789l-.909-.547a1.936,1.936,0,0,1-.872-2.153A.618.618,0,0,1,2256.974,1361.9Z" transform="translate(-2256.157 -1361.881)" fill="#0e34c4"/>
      </g>
      <g id="Group_1365" data-name="Group 1365" transform="translate(7.757 213.621)">
        <path id="Path_3017" data-name="Path 3017" d="M2177.98,1458.2a.619.619,0,0,1-.939.529,1.955,1.955,0,0,1-.874-2.161l.309-1.167a.71.71,0,0,0-.319-.786l-.906-.545a1.956,1.956,0,0,1-.879-2.159.619.619,0,1,1,1.2.313.71.71,0,0,0,.32.785l.906.545a1.955,1.955,0,0,1,.878,2.164l-.309,1.167a.711.711,0,0,0,.318.786A.618.618,0,0,1,2177.98,1458.2Z" transform="translate(-2174.31 -1451.452)" fill="#0e34c4"/>
      </g>
      <g id="Group_1366" data-name="Group 1366" transform="translate(2.822 218.578)">
        <path id="Path_3018" data-name="Path 3018" d="M2155.977,1471.4a.663.663,0,0,1,.306.167.616.616,0,0,1,.019.872.7.7,0,0,0-.093.835l.529.919a1.963,1.963,0,0,1-.278,2.32l-.835.872a.728.728,0,0,0-.1.844.608.608,0,0,1,.009.6.715.715,0,0,1-.232.241.66.66,0,0,1-.473.065v-.01a8.682,8.682,0,0,1-.38-2.181v-.009a1.536,1.536,0,0,1,.288-.408l.835-.873a.715.715,0,0,0,.093-.844l-.529-.919a1.914,1.914,0,0,1-.186-.427v-.009A8.927,8.927,0,0,1,2155.977,1471.4Z" transform="translate(-2154.446 -1471.403)" fill="#0e34c4"/>
      </g>
      <g id="Group_1367" data-name="Group 1367" transform="translate(8.07 117.406)">
        <path id="Path_3019" data-name="Path 3019" d="M2179.239,1070.958a.619.619,0,0,1-.939.529,1.954,1.954,0,0,1-.874-2.161l.309-1.167a.709.709,0,0,0-.319-.787l-.906-.545a1.956,1.956,0,0,1-.879-2.159.619.619,0,1,1,1.2.313.71.71,0,0,0,.32.785l.906.545a1.955,1.955,0,0,1,.878,2.163l-.309,1.167a.71.71,0,0,0,.317.786A.618.618,0,0,1,2179.239,1070.958Z" transform="translate(-2175.569 -1064.207)" fill="#0e34c4"/>
      </g>
      <g id="Group_1368" data-name="Group 1368" transform="translate(13.443 107.234)">
        <path id="Path_3020" data-name="Path 3020" d="M2204.448,1023.916a.637.637,0,0,1-.014.13.619.619,0,0,1-.734.477.71.71,0,0,0-.769.355l-.5.93a1.955,1.955,0,0,1-2.121.977l-1.18-.254a.711.711,0,0,0-.77.353.619.619,0,0,1-1.088-.591,1.956,1.956,0,0,1,2.118-.973l1.18.254a.71.71,0,0,0,.771-.355l.5-.93a1.955,1.955,0,0,1,2.116-.978A.619.619,0,0,1,2204.448,1023.916Z" transform="translate(-2197.195 -1023.27)" fill="#0e34c4"/>
      </g>
      <g id="Group_1369" data-name="Group 1369" transform="translate(16.95 111.334)">
        <path id="Path_3021" data-name="Path 3021" d="M2213.953,1040.416l.325.372-.288.4a4.248,4.248,0,0,0-.408.677l-.557-.622a.71.71,0,0,0-.826-.167.613.613,0,0,1-.826-.3.607.607,0,0,1,.288-.817A1.958,1.958,0,0,1,2213.953,1040.416Z" transform="translate(-2211.311 -1039.772)" fill="#0e34c4"/>
      </g>
      <g id="Group_1370" data-name="Group 1370" transform="translate(16.876 163.237)">
        <path id="Path_3022" data-name="Path 3022" d="M2211.815,1248.694a1.925,1.925,0,0,1,1.365,1.884l-.019,1.207a.733.733,0,0,0,.149.446.772.772,0,0,0,.353.241l1.012.316a1.91,1.91,0,0,1,1.067.826l-.9,1.244a.706.706,0,0,1-.028-.195v-.019a.716.716,0,0,0-.5-.678l-1.012-.306a1.862,1.862,0,0,1-.724-.408,1.945,1.945,0,0,1-.65-1.457v-.028l.019-1.207a.719.719,0,0,0-.5-.687.618.618,0,1,1,.371-1.178Z" transform="translate(-2211.011 -1248.666)" fill="#0e34c4"/>
      </g>
      <g id="Group_1371" data-name="Group 1371" transform="translate(16.695 137.439)">
        <path id="Path_3023" data-name="Path 3023" d="M2218.067,1145.63a.619.619,0,0,1-.928.536.712.712,0,0,0-.842.1l-.764.729a1.954,1.954,0,0,1-2.318.276l-1.044-.606a.711.711,0,0,0-.841.1.619.619,0,1,1-.853-.9,1.955,1.955,0,0,1,2.315-.273l1.044.606a.711.711,0,0,0,.843-.1l.765-.73a1.955,1.955,0,0,1,2.314-.278A.618.618,0,0,1,2218.067,1145.63Z" transform="translate(-2210.284 -1144.836)" fill="#0e34c4"/>
      </g>
      <g id="Group_1372" data-name="Group 1372" transform="translate(20.249 140.857)">
        <path id="Path_3024" data-name="Path 3024" d="M2231.487,1162.742a.619.619,0,0,1-1.068-.088.712.712,0,0,0-.75-.4l-1.044.165a1.954,1.954,0,0,1-2.063-1.093l-.514-1.093a.71.71,0,0,0-.748-.4.619.619,0,0,1-.19-1.223,1.955,1.955,0,0,1,2.058,1.094l.514,1.093a.71.71,0,0,0,.75.4l1.044-.165a1.955,1.955,0,0,1,2.061,1.089A.619.619,0,0,1,2231.487,1162.742Z" transform="translate(-2224.587 -1158.594)" fill="#0e34c4"/>
      </g>
      <g id="Group_1373" data-name="Group 1373" transform="translate(24.686 144.319)">
        <path id="Path_3025" data-name="Path 3025" d="M2248.972,1172.843a.619.619,0,0,1-.546.922.711.711,0,0,0-.684.5l-.308,1.011a1.954,1.954,0,0,1-1.885,1.377l-1.208-.016a.711.711,0,0,0-.685.5.619.619,0,0,1-1.183-.364,1.955,1.955,0,0,1,1.884-1.373l1.208.016a.711.711,0,0,0,.685-.5l.308-1.011a1.955,1.955,0,0,1,1.88-1.377A.619.619,0,0,1,2248.972,1172.843Z" transform="translate(-2242.446 -1172.527)" fill="#0e34c4"/>
      </g>
      <g id="Group_1374" data-name="Group 1374" transform="translate(26.671 202.182)">
        <path id="Path_3026" data-name="Path 3026" d="M2251.634,1405.817a.714.714,0,0,0,.715.464l1.049-.065a.867.867,0,0,1,.269.009,1.94,1.94,0,0,1,1.689,1.271l.408,1.132a.655.655,0,0,0,.529.446c-.046.408-.1.817-.177,1.225a1.95,1.95,0,0,1-1.522-1.253l-.408-1.132a.687.687,0,0,0-.557-.455.785.785,0,0,0-.148-.009l-1.058.065a1.942,1.942,0,0,1-1.949-1.271.618.618,0,1,1,1.16-.427Z" transform="translate(-2250.434 -1405.411)" fill="#0e34c4"/>
      </g>
      <g id="Group_1375" data-name="Group 1375" transform="translate(7.46 127.424)">
        <path id="Path_3027" data-name="Path 3027" d="M2180.862,1105.608a.617.617,0,0,1-.174.431,1.955,1.955,0,0,1-2.3.369l-1.069-.561a.71.71,0,0,0-.838.136l-.733.761a1.956,1.956,0,0,1-2.3.375.619.619,0,1,1,.572-1.1.711.711,0,0,0,.836-.136l.733-.761a1.955,1.955,0,0,1,2.3-.373l1.069.561a.711.711,0,0,0,.837-.134.619.619,0,0,1,1.063.43Z" transform="translate(-2173.114 -1104.53)" fill="#0e34c4"/>
      </g>
      <g id="Group_1376" data-name="Group 1376" transform="translate(7.852 132.736)">
        <path id="Path_3028" data-name="Path 3028" d="M2178.923,1125.969a.614.614,0,0,1,.446.752.621.621,0,0,1-.752.446.683.683,0,0,0-.742.279.091.091,0,0,0-.037.046l-.548.91a1.924,1.924,0,0,1-1.476.928l-1.123-1.429.752.186a.706.706,0,0,0,.789-.325l.538-.91a2.333,2.333,0,0,1,.325-.409A1.98,1.98,0,0,1,2178.923,1125.969Z" transform="translate(-2174.691 -1125.91)" fill="#0e34c4"/>
      </g>
      <g id="Group_1377" data-name="Group 1377" transform="translate(23.318 76.268)">
        <path id="Path_3029" data-name="Path 3029" d="M2240.17,899.729a1.955,1.955,0,0,1-.76,1.55l-.958.734a.711.711,0,0,0-.229.817l.383.985a1.956,1.956,0,0,1-.626,2.246.619.619,0,0,1-.755-.98.711.711,0,0,0,.228-.816l-.383-.985a1.954,1.954,0,0,1,.63-2.248l.958-.734a.71.71,0,0,0,.23-.816.619.619,0,0,1,1.155-.446A1.933,1.933,0,0,1,2240.17,899.729Z" transform="translate(-2236.938 -898.639)" fill="#0e34c4"/>
      </g>
      <g id="Group_1378" data-name="Group 1378" transform="translate(5.077 99.334)">
        <path id="Path_3030" data-name="Path 3030" d="M2168.283,991.488a1.706,1.706,0,0,1,.761.241.623.623,0,0,1,.306.538.635.635,0,0,1-.083.306.61.61,0,0,1-.844.223.731.731,0,0,0-.844.1l-.761.733a.842.842,0,0,1-.177.139,1.94,1.94,0,0,1-2.144.139l-.974-.575.724-1,.872.5a.7.7,0,0,0,.845-.1l.761-.724A1.927,1.927,0,0,1,2168.283,991.488Z" transform="translate(-2163.522 -991.475)" fill="#0e34c4"/>
      </g>
      <g id="Group_1379" data-name="Group 1379" transform="translate(23.063 85.777)">
        <path id="Path_3031" data-name="Path 3031" d="M2243.693,938.841a.619.619,0,0,1-.3.53,1.955,1.955,0,0,1-2.32-.227l-.891-.814a.711.711,0,0,0-.845-.081l-.9.551a1.955,1.955,0,0,1-2.32-.22.619.619,0,0,1,.832-.916.711.711,0,0,0,.844.08l.9-.551a1.954,1.954,0,0,1,2.324.224l.892.814a.711.711,0,0,0,.843.082.619.619,0,0,1,.94.529Z" transform="translate(-2235.914 -936.91)" fill="#0e34c4"/>
      </g>
      <g id="Group_1380" data-name="Group 1380" transform="translate(15.558 96.142)">
        <path id="Path_3032" data-name="Path 3032" d="M2212.509,980.093a1.955,1.955,0,0,1-1.688.358l-1.169-.3a.71.71,0,0,0-.784.324l-.539.909a1.955,1.955,0,0,1-2.153.893.619.619,0,1,1,.306-1.2.71.71,0,0,0,.783-.325l.539-.909a1.954,1.954,0,0,1,2.158-.892l1.169.3a.712.712,0,0,0,.784-.323.619.619,0,1,1,1.063.634A1.918,1.918,0,0,1,2212.509,980.093Z" transform="translate(-2205.708 -978.628)" fill="#0e34c4"/>
      </g>
      <g id="Group_1381" data-name="Group 1381" transform="translate(24.764 98.17)">
        <path id="Path_3033" data-name="Path 3033" d="M2245.856,987.186a1.766,1.766,0,0,1,.13.687,1.929,1.929,0,0,1-.761,1.55l-.956.743a.689.689,0,0,0-.223.817l.362.946-1.513,2.116a.619.619,0,0,1,.148-.817.709.709,0,0,0,.232-.817l-.39-.984a1.966,1.966,0,0,1,.631-2.246l.956-.733a.713.713,0,0,0,.232-.817.618.618,0,0,1,.353-.8A.6.6,0,0,1,2245.856,987.186Z" transform="translate(-2242.759 -986.788)" fill="#0e34c4"/>
      </g>
      <g id="Group_1382" data-name="Group 1382" transform="translate(3.48 4.537)">
        <path id="Path_3034" data-name="Path 3034" d="M2163.863,610.2a.612.612,0,0,1,.315.538.632.632,0,0,1-.083.306.614.614,0,0,1-.844.223.727.727,0,0,0-.845.1l-.771.733a1.932,1.932,0,0,1-1.791.482,1.687,1.687,0,0,1-.52-.2l-1.049-.612a.7.7,0,0,0-.835.1.586.586,0,0,1-.344.158,10.205,10.205,0,0,1,.594-1.559,1.847,1.847,0,0,1,1.207.232l1.049.6a.7.7,0,0,0,.835-.1l.77-.724A1.95,1.95,0,0,1,2163.863,610.2Z" transform="translate(-2157.097 -609.938)" fill="#0e34c4"/>
      </g>
      <g id="Group_1383" data-name="Group 1383" transform="translate(13.693 16.487)">
        <path id="Path_3035" data-name="Path 3035" d="M2200.884,658.046a.618.618,0,0,1,.464.392,1.955,1.955,0,0,1-.66,2.236l-.967.722a.712.712,0,0,0-.24.815l.371.99a1.956,1.956,0,0,1-.654,2.237.619.619,0,0,1-.743-.99.711.711,0,0,0,.238-.813l-.371-.99a1.955,1.955,0,0,1,.657-2.24l.968-.722a.711.711,0,0,0,.24-.813.619.619,0,0,1,.7-.823Z" transform="translate(-2198.2 -658.035)" fill="#0e34c4"/>
      </g>
      <g id="Group_1384" data-name="Group 1384" transform="translate(11.815 26.589)">
        <path id="Path_3036" data-name="Path 3036" d="M2191.885,718.875a4.336,4.336,0,0,0,.278-.436l.093.26a1.96,1.96,0,0,1-.659,2.237.62.62,0,0,1-.863-.121.45.45,0,0,1-.093-.2Z" transform="translate(-2190.641 -713.532)" fill="#0e34c4"/>
        <path id="Path_3037" data-name="Path 3037" d="M2199.574,698.707a.615.615,0,0,1,.464.39,1.965,1.965,0,0,1-.659,2.237l-.167.121a6.412,6.412,0,0,0,.056-.845,5.659,5.659,0,0,0-.26-1.717.454.454,0,0,1,.232-.158A.52.52,0,0,1,2199.574,698.707Z" transform="translate(-2196.929 -698.691)" fill="#0e34c4"/>
      </g>
      <g id="Group_1385" data-name="Group 1385" transform="translate(14.291 29.706)">
        <path id="Path_3038" data-name="Path 3038" d="M2207.862,711.884a.639.639,0,0,1-.014.13.619.619,0,0,1-.734.476.71.71,0,0,0-.769.356l-.5.93a1.954,1.954,0,0,1-2.121.977l-1.18-.255a.711.711,0,0,0-.77.354.619.619,0,1,1-1.087-.591,1.955,1.955,0,0,1,2.118-.973l1.18.255a.711.711,0,0,0,.771-.355l.5-.93a1.955,1.955,0,0,1,2.116-.978A.619.619,0,0,1,2207.862,711.884Z" transform="translate(-2200.609 -711.238)" fill="#0e34c4"/>
      </g>
      <g id="Group_1386" data-name="Group 1386" transform="translate(2.6 52.222)">
        <path id="Path_3039" data-name="Path 3039" d="M2153.573,806.592a.644.644,0,0,1-.016-.129.619.619,0,0,1,.606-.631.71.71,0,0,0,.668-.521l.278-1.02a1.954,1.954,0,0,1,1.842-1.434l1.207-.021a.711.711,0,0,0,.669-.52.619.619,0,0,1,1.193.328,1.956,1.956,0,0,1-1.841,1.429l-1.207.021a.711.711,0,0,0-.67.522l-.277,1.02a1.955,1.955,0,0,1-1.838,1.434A.619.619,0,0,1,2153.573,806.592Z" transform="translate(-2153.556 -801.861)" fill="#0e34c4"/>
      </g>
      <g id="Group_1387" data-name="Group 1387" transform="translate(0 56.247)">
        <path id="Path_3040" data-name="Path 3040" d="M2144.31,839.631a24.386,24.386,0,0,1-.548-3.044l.5.585a1.954,1.954,0,0,1,.167,2.33A.411.411,0,0,1,2144.31,839.631Z" transform="translate(-2143.595 -831.984)" fill="#0e34c4"/>
        <path id="Path_3041" data-name="Path 3041" d="M2143.155,818.06a.6.6,0,0,1,.362.2,1.967,1.967,0,0,1,.158,2.329l-.529.807c-.037-.529-.056-1.067-.056-1.6C2143.09,819.22,2143.109,818.635,2143.155,818.06Z" transform="translate(-2143.09 -818.06)" fill="#0e34c4"/>
      </g>
      <g id="Group_1388" data-name="Group 1388" transform="translate(12.623 6.452)">
        <path id="Path_3042" data-name="Path 3042" d="M2195.99,624.481a1.954,1.954,0,0,1-.316-1.7l.33-1.161a.71.71,0,0,0-.3-.792l-.9-.561a1.956,1.956,0,0,1-.84-2.174.619.619,0,1,1,1.191.335.711.711,0,0,0,.305.791l.9.561a1.954,1.954,0,0,1,.838,2.179l-.33,1.161a.711.711,0,0,0,.3.791.619.619,0,0,1-.66,1.047A1.922,1.922,0,0,1,2195.99,624.481Z" transform="translate(-2193.893 -617.644)" fill="#0e34c4"/>
      </g>
      <g id="Group_1389" data-name="Group 1389" transform="translate(9.389 0)">
        <path id="Path_3043" data-name="Path 3043" d="M2187.66,594.464a1.955,1.955,0,0,1-1.647-.517l-.871-.836a.71.71,0,0,0-.843-.1l-.916.527a1.956,1.956,0,0,1-2.314-.279.619.619,0,0,1,.855-.895.711.711,0,0,0,.842.1l.916-.528a1.954,1.954,0,0,1,2.318.283l.871.836a.711.711,0,0,0,.841.1.619.619,0,0,1,.615,1.074A1.923,1.923,0,0,1,2187.66,594.464Z" transform="translate(-2180.879 -591.678)" fill="#0e34c4"/>
      </g>
      <g id="Group_1390" data-name="Group 1390" transform="translate(13.096 41.072)">
        <path id="Path_3044" data-name="Path 3044" d="M2198.9,757.6a.617.617,0,0,1-.06.266l-.455.954a1.955,1.955,0,0,1-2.064,1.082.619.619,0,1,1,.2-1.221.711.711,0,0,0,.75-.394l.455-.954a.619.619,0,0,1,1.177.267Z" transform="translate(-2195.8 -756.983)" fill="#0e34c4"/>
      </g>
      <g id="Group_1391" data-name="Group 1391" transform="translate(2.942 43.542)">
        <path id="Path_3045" data-name="Path 3045" d="M2156.685,766.923a.6.6,0,0,1,.213.464.7.7,0,0,1-.056.269l-.455.947a1.927,1.927,0,0,1-1.457,1.086Z" transform="translate(-2154.931 -766.923)" fill="#0e34c4"/>
      </g>
      <g id="Group_1392" data-name="Group 1392" transform="translate(15.225 53.084)">
        <path id="Path_3046" data-name="Path 3046" d="M2207.468,805.949a.617.617,0,0,1-.061.266l-.455.954a1.956,1.956,0,0,1-2.064,1.082.619.619,0,1,1,.2-1.222.711.711,0,0,0,.75-.394l.455-.954a.619.619,0,0,1,1.177.267Z" transform="translate(-2204.368 -805.33)" fill="#0e34c4"/>
      </g>
      <g id="Group_1393" data-name="Group 1393" transform="translate(6.688 8.267)">
        <path id="Path_3047" data-name="Path 3047" d="M2173.108,625.569a.617.617,0,0,1-.06.266l-.455.954a1.956,1.956,0,0,1-2.064,1.082.619.619,0,0,1,.2-1.222.711.711,0,0,0,.751-.394l.455-.954a.619.619,0,0,1,1.177.267Z" transform="translate(-2170.008 -624.95)" fill="#0e34c4"/>
      </g>
      <g id="Group_1394" data-name="Group 1394" transform="translate(5.16 13.091)">
        <path id="Path_3048" data-name="Path 3048" d="M2166.345,644.421a.633.633,0,0,1,.353.566.689.689,0,0,1-.046.232c0,.009-.01.019-.01.028l-.464.956a1.922,1.922,0,0,1-1.457,1.077l-.863-1.114a.643.643,0,0,1,.455-.1.716.716,0,0,0,.751-.39l.455-.956a.589.589,0,0,1,.473-.334A.471.471,0,0,1,2166.345,644.421Z" transform="translate(-2163.858 -644.365)" fill="#0e34c4"/>
      </g>
      <g id="Group_1395" data-name="Group 1395" transform="translate(18.221 3.922)">
        <path id="Path_3049" data-name="Path 3049" d="M2218.342,607.463l.854,1.1-.186.4a1.962,1.962,0,0,1-2.07,1.077.594.594,0,0,1-.167-.056.628.628,0,0,1-.343-.436v-.009a.734.734,0,0,1,0-.2.617.617,0,0,1,.705-.511.7.7,0,0,0,.752-.4Z" transform="translate(-2216.424 -607.463)" fill="#0e34c4"/>
      </g>
      <g id="Group_1396" data-name="Group 1396" transform="translate(9.68 14.768)">
        <path id="Path_3050" data-name="Path 3050" d="M2185.148,651.734a.617.617,0,0,1-.061.266l-.455.954a1.955,1.955,0,0,1-2.064,1.082.619.619,0,1,1,.2-1.221.711.711,0,0,0,.75-.394l.455-.954a.619.619,0,0,1,1.177.267Z" transform="translate(-2182.048 -651.114)" fill="#0e34c4"/>
      </g>
      <g id="Group_1397" data-name="Group 1397" transform="translate(9.123 19.349)">
        <path id="Path_3051" data-name="Path 3051" d="M2181.441,669.969a.612.612,0,0,1-.371.789.676.676,0,0,0-.446.5l-.817-1.058a1.817,1.817,0,0,1,.844-.613A.617.617,0,0,1,2181.441,669.969Z" transform="translate(-2179.808 -669.554)" fill="#0e34c4"/>
      </g>
      <g id="Group_1398" data-name="Group 1398" transform="translate(20.115 9.793)">
        <path id="Path_3052" data-name="Path 3052" d="M2227.15,631.71a.618.618,0,0,1-.061.266l-.455.954a1.956,1.956,0,0,1-2.064,1.082.619.619,0,1,1,.2-1.222.71.71,0,0,0,.75-.394l.455-.954a.619.619,0,0,1,1.177.267Z" transform="translate(-2224.049 -631.091)" fill="#0e34c4"/>
      </g>
      <g id="Group_1399" data-name="Group 1399" transform="translate(20.115 17.109)">
        <path id="Path_3053" data-name="Path 3053" d="M2227.15,661.159a.618.618,0,0,1-.061.266l-.455.954a1.955,1.955,0,0,1-2.064,1.082.619.619,0,1,1,.2-1.221.711.711,0,0,0,.75-.394l.455-.954a.619.619,0,0,1,1.177.267Z" transform="translate(-2224.049 -660.539)" fill="#0e34c4"/>
      </g>
      <g id="Group_1400" data-name="Group 1400" transform="translate(10.848 49.871)">
        <path id="Path_3054" data-name="Path 3054" d="M2190.263,794.76a.572.572,0,0,0-.069-.27l-.515-.969a2.287,2.287,0,0,0-2.339-1.1.639.639,0,0,0-.581.72.7.7,0,0,0,.8.521.832.832,0,0,1,.851.4l.515.969a.739.739,0,0,0,.935.3A.626.626,0,0,0,2190.263,794.76Z" transform="translate(-2186.751 -792.397)" fill="#0e34c4"/>
      </g>
      <g id="Group_1401" data-name="Group 1401" transform="translate(1.488 59.92)">
        <path id="Path_3055" data-name="Path 3055" d="M2152.181,833.462a.62.62,0,0,1-.06.266l-.455.954a1.955,1.955,0,0,1-2.064,1.082.619.619,0,1,1,.2-1.221.712.712,0,0,0,.751-.394l.455-.954a.619.619,0,0,1,1.177.267Z" transform="translate(-2149.081 -832.843)" fill="#0e34c4"/>
      </g>
      <g id="Group_1402" data-name="Group 1402" transform="translate(5.309 46.853)">
        <path id="Path_3056" data-name="Path 3056" d="M2167.594,782.5a.618.618,0,0,1-.269.047l-1.055-.051a1.955,1.955,0,0,1-1.8-1.485.619.619,0,1,1,1.2-.291.711.711,0,0,0,.653.54l1.056.051a.619.619,0,0,1,.209,1.189Z" transform="translate(-2164.456 -780.249)" fill="#0e34c4"/>
      </g>
      <g id="Group_1403" data-name="Group 1403" transform="translate(0.77 50.568)">
        <path id="Path_3057" data-name="Path 3057" d="M2146.562,795.2a.739.739,0,0,0,.566.343l1.058.047a.618.618,0,0,1,.2,1.188.519.519,0,0,1-.269.046l-1.049-.046a2.032,2.032,0,0,1-.882-.26C2146.3,796.072,2146.422,795.636,2146.562,795.2Z" transform="translate(-2146.19 -795.2)" fill="#0e34c4"/>
      </g>
      <g id="Group_1404" data-name="Group 1404" transform="translate(21.802 39.134)">
        <path id="Path_3058" data-name="Path 3058" d="M2233.938,749.8a.617.617,0,0,1-.061.266l-.455.954a1.954,1.954,0,0,1-2.064,1.082.619.619,0,1,1,.2-1.221.711.711,0,0,0,.75-.394l.455-.954a.619.619,0,0,1,1.177.267Z" transform="translate(-2230.837 -749.184)" fill="#0e34c4"/>
      </g>
      <g id="Group_1405" data-name="Group 1405" transform="translate(31.11 31.477)">
        <path id="Path_3059" data-name="Path 3059" d="M2269.7,718.364c-.065.5-.139.993-.232,1.494a1.9,1.9,0,0,1-.649,0,.621.621,0,1,1,.2-1.225A.706.706,0,0,0,2269.7,718.364Z" transform="translate(-2268.302 -718.364)" fill="#0e34c4"/>
      </g>
      <g id="Group_1406" data-name="Group 1406" transform="translate(29.451 20.083)">
        <path id="Path_3060" data-name="Path 3060" d="M2262.847,672.987a.713.713,0,0,0,.65.538l.232.009c.13.418.25.835.362,1.262l-.659-.037a1.821,1.821,0,0,1-.7-.167,1.935,1.935,0,0,1-1.1-1.327.619.619,0,1,1,1.207-.279Z" transform="translate(-2261.625 -672.508)" fill="#0e34c4"/>
      </g>
      <g id="Group_1407" data-name="Group 1407" transform="translate(18.634 23.406)">
        <path id="Path_3061" data-name="Path 3061" d="M2219.841,687.959a1.955,1.955,0,0,1-.757,1.547.619.619,0,0,1-.755-.981.71.71,0,0,0,.228-.816l-.383-.985a.619.619,0,1,1,1.153-.449l.383.985A1.926,1.926,0,0,1,2219.841,687.959Z" transform="translate(-2218.088 -685.881)" fill="#0e34c4"/>
      </g>
      <g id="Group_1408" data-name="Group 1408" transform="translate(26.799 30.42)">
        <path id="Path_3062" data-name="Path 3062" d="M2252.7,716.189a1.955,1.955,0,0,1-.756,1.547.619.619,0,0,1-.755-.98.71.71,0,0,0,.228-.816l-.383-.985a.619.619,0,1,1,1.153-.449l.383.985A1.926,1.926,0,0,1,2252.7,716.189Z" transform="translate(-2250.949 -714.111)" fill="#0e34c4"/>
      </g>
      <g id="Group_1409" data-name="Group 1409" transform="translate(15.065 46.145)">
        <path id="Path_3063" data-name="Path 3063" d="M2210.975,778.047a.619.619,0,0,1-.748.606.71.71,0,0,0-.769.356l-.5.93a1.954,1.954,0,0,1-2.12.977l-1.18-.254a.71.71,0,0,0-.77.353.619.619,0,0,1-1.088-.591,1.956,1.956,0,0,1,2.119-.972l1.18.254a.71.71,0,0,0,.771-.355l.5-.93a1.955,1.955,0,0,1,2.116-.978A.619.619,0,0,1,2210.975,778.047Z" transform="translate(-2203.723 -777.401)" fill="#0e34c4"/>
      </g>
      <g id="Group_1410" data-name="Group 1410" transform="translate(2.92 65.362)">
        <path id="Path_3064" data-name="Path 3064" d="M2154.991,854.984a.619.619,0,0,1,.962.03.711.711,0,0,0,.815.233l.988-.376a1.954,1.954,0,0,1,2.244.646l.727.963a.71.71,0,0,0,.814.236.619.619,0,0,1,.437,1.158,1.955,1.955,0,0,1-2.239-.647l-.727-.963a.71.71,0,0,0-.816-.235l-.988.376a1.956,1.956,0,0,1-2.241-.642A.619.619,0,0,1,2154.991,854.984Z" transform="translate(-2154.842 -854.744)" fill="#0e34c4"/>
      </g>
      <g id="Group_1411" data-name="Group 1411" transform="translate(24.94 15.179)">
        <path id="Path_3065" data-name="Path 3065" d="M2246.7,653.86a1.956,1.956,0,0,1-.76,1.55l-.958.734a.712.712,0,0,0-.229.817l.383.985a1.956,1.956,0,0,1-.626,2.245.619.619,0,0,1-.755-.98.711.711,0,0,0,.228-.816l-.383-.985a1.955,1.955,0,0,1,.63-2.248l.958-.734a.709.709,0,0,0,.229-.816.619.619,0,0,1,1.155-.446A1.927,1.927,0,0,1,2246.7,653.86Z" transform="translate(-2243.466 -652.77)" fill="#0e34c4"/>
      </g>
      <g id="Group_1412" data-name="Group 1412" transform="translate(7.035 38.242)">
        <path id="Path_3066" data-name="Path 3066" d="M2176.239,745.695a1.7,1.7,0,0,1,.353.158.607.607,0,0,1,.306.529.643.643,0,0,1-.083.316.61.61,0,0,1-.844.223.715.715,0,0,0-.566-.065v.009a.7.7,0,0,0-.279.158l-.761.733a1.948,1.948,0,0,1-2.32.269l-.64-.371.724-1.011.538.316a.717.717,0,0,0,.845-.1l.761-.724A1.95,1.95,0,0,1,2176.239,745.695Z" transform="translate(-2171.404 -745.592)" fill="#0e34c4"/>
      </g>
      <g id="Group_1413" data-name="Group 1413" transform="translate(24.685 24.688)">
        <path id="Path_3067" data-name="Path 3067" d="M2250.221,692.973a.619.619,0,0,1-.3.529,1.955,1.955,0,0,1-2.32-.227l-.891-.814a.712.712,0,0,0-.845-.081l-.9.551a1.955,1.955,0,0,1-2.32-.22.619.619,0,1,1,.832-.916.711.711,0,0,0,.844.08l.9-.551a1.955,1.955,0,0,1,2.324.224l.891.814a.711.711,0,0,0,.844.082.619.619,0,0,1,.94.529Z" transform="translate(-2242.442 -691.042)" fill="#0e34c4"/>
      </g>
      <g id="Group_1414" data-name="Group 1414" transform="translate(17.18 35.053)">
        <path id="Path_3068" data-name="Path 3068" d="M2219.036,734.224a1.955,1.955,0,0,1-1.689.358l-1.169-.3a.71.71,0,0,0-.784.324l-.539.909a1.956,1.956,0,0,1-2.153.893.619.619,0,1,1,.306-1.2.71.71,0,0,0,.783-.324l.539-.909a1.954,1.954,0,0,1,2.158-.891l1.169.3a.711.711,0,0,0,.784-.323.619.619,0,1,1,1.063.634A1.922,1.922,0,0,1,2219.036,734.224Z" transform="translate(-2212.236 -732.759)" fill="#0e34c4"/>
      </g>
      <g id="Group_1415" data-name="Group 1415" transform="translate(26.382 37.079)">
        <path id="Path_3069" data-name="Path 3069" d="M2252.375,741.305a1.845,1.845,0,0,1,.13.7,1.942,1.942,0,0,1-.761,1.55l-.956.733a.713.713,0,0,0-.232.817l.39.993a1.547,1.547,0,0,1,.1.445c-.009.018-.028.037-.037.056l-1.3,1.81a.472.472,0,0,1-.26-.186.61.61,0,0,1,.111-.863.724.724,0,0,0,.223-.817l-.381-.984a1.953,1.953,0,0,1,.631-2.255l.956-.733a.705.705,0,0,0,.232-.817.617.617,0,0,1,1.151-.446Z" transform="translate(-2249.273 -740.912)" fill="#0e34c4"/>
      </g>
      <g id="Group_1416" data-name="Group 1416" transform="translate(18.419 173.567)">
        <path id="Path_3070" data-name="Path 3070" d="M2217.394,1290.241a5.639,5.639,0,0,0-.056.789,1.646,1.646,0,0,0,.009.214,2,2,0,0,1-.121-.529A.588.588,0,0,1,2217.394,1290.241Z" transform="translate(-2217.223 -1290.241)" fill="#0e34c4"/>
      </g>
    </g>
  </g>
</svg>
