<svg xmlns="http://www.w3.org/2000/svg" width="121" height="231.963" viewBox="0 0 121 231.963">
  <g id="Group_5564" data-name="Group 5564" transform="translate(-319 -6855.6)">
    <g id="Group_1548" data-name="Group 1548" transform="translate(379 6855.6)">
      <g id="Group_1418" data-name="Group 1418" transform="translate(0.239 221.57)">
        <path id="Path_3071" data-name="Path 3071" d="M2010.885,1487.231a1.252,1.252,0,0,1,1.244,1.244v.083a1.291,1.291,0,0,1-.371.882,1.244,1.244,0,0,1-1.754,0,1.188,1.188,0,0,1-.288-.473,7.039,7.039,0,0,1,.13-1.16c0-.009,0-.009.009-.018.047-.065.093-.13.149-.2A1.283,1.283,0,0,1,2010.885,1487.231Z" transform="translate(-2009.716 -1487.23)" fill="#0e34c4"/>
      </g>
      <g id="Group_1419" data-name="Group 1419" transform="translate(0.963 187.11)">
        <path id="Path_3072" data-name="Path 3072" d="M2013.028,1348.536a1.243,1.243,0,0,1,.882.362,1.3,1.3,0,0,1,.353.742v.009a1.393,1.393,0,0,1,.1.473,1.173,1.173,0,0,1-.223.7,23.279,23.279,0,0,1-1.513-2.209A1.21,1.21,0,0,1,2013.028,1348.536Z" transform="translate(-2012.629 -1348.534)" fill="#0e34c4"/>
      </g>
      <g id="Group_1420" data-name="Group 1420" transform="translate(0.124 179.695)">
        <path id="Path_3073" data-name="Path 3073" d="M2010.913,1319.262l-.072-.015.867.867c-.008-.033-.014-.064-.018-.1q.023.165.045.33a3.994,3.994,0,0,1,0-.412,1.275,1.275,0,0,0-.364-.878,1.242,1.242,0,0,0-1.756,0,1.3,1.3,0,0,0-.364.878,3.172,3.172,0,0,0,.059.839,1.224,1.224,0,0,0,.867.867l.072.015a1.323,1.323,0,0,0,.957-.125,1.241,1.241,0,0,0,.445-1.7,1.236,1.236,0,0,0-.742-.571Z" transform="translate(-2009.252 -1318.694)" fill="#0e34c4"/>
      </g>
      <g id="Group_1421" data-name="Group 1421" transform="translate(0 172.775)">
        <path id="Path_3074" data-name="Path 3074" d="M2008.791,1292.416l.065.277a1.227,1.227,0,0,0,.867.867l.277.065a1.3,1.3,0,0,0,.957-.125,1.242,1.242,0,0,0-.3-2.269l-.277-.065.867.867-.065-.277a1.242,1.242,0,0,0-1.527-.867,1.256,1.256,0,0,0-.742.571,1.333,1.333,0,0,0-.125.957Z" transform="translate(-2008.753 -1290.843)" fill="#0e34c4"/>
      </g>
      <g id="Group_1422" data-name="Group 1422" transform="translate(0.165 165.206)">
        <path id="Path_3075" data-name="Path 3075" d="M2011.9,1261.706v-.087a1.282,1.282,0,0,0-.364-.878,1.242,1.242,0,0,0-1.756,0,1.29,1.29,0,0,0-.364.878v.087a1.28,1.28,0,0,0,.364.878,1.242,1.242,0,0,0,1.756,0,1.291,1.291,0,0,0,.364-.878Z" transform="translate(-2009.418 -1260.377)" fill="#0e34c4"/>
      </g>
      <g id="Group_1423" data-name="Group 1423" transform="translate(0.982 159.538)">
        <path id="Path_3076" data-name="Path 3076" d="M2017.979,1237.834c.009.009.009.009.009.019-.018-.019-.037-.046-.056-.065C2017.952,1237.807,2017.961,1237.825,2017.979,1237.834Z" transform="translate(-2016.634 -1237.732)" fill="#0e34c4"/>
        <path id="Path_3077" data-name="Path 3077" d="M2014.152,1237.564a1.188,1.188,0,0,1,.167.492v.009a1.5,1.5,0,0,1,.1.482,1.246,1.246,0,0,1-.371.873,1.222,1.222,0,0,1-.872.362,1.3,1.3,0,0,1-.473-.093c.306-.5.631-1,.984-1.485l.371-.51v-.009Z" transform="translate(-2012.704 -1237.564)" fill="#0e34c4"/>
      </g>
      <g id="Group_1424" data-name="Group 1424" transform="translate(0.124 123.328)">
        <path id="Path_3078" data-name="Path 3078" d="M2010.913,1092.4l-.072-.015.867.867c-.008-.032-.014-.064-.018-.1q.023.165.045.33a3.994,3.994,0,0,1,0-.412,1.275,1.275,0,0,0-.364-.878,1.242,1.242,0,0,0-1.756,0,1.3,1.3,0,0,0-.364.878,3.17,3.17,0,0,0,.059.839,1.224,1.224,0,0,0,.867.867l.072.015a1.322,1.322,0,0,0,.957-.125,1.241,1.241,0,0,0,.445-1.7,1.235,1.235,0,0,0-.742-.57Z" transform="translate(-2009.252 -1091.831)" fill="#0e34c4"/>
      </g>
      <g id="Group_1425" data-name="Group 1425" transform="translate(5.95 229.142)">
        <path id="Path_3079" data-name="Path 3079" d="M2032.737,1519.278l.065.277a1.227,1.227,0,0,0,.867.867l.278.065a1.3,1.3,0,0,0,.957-.125,1.242,1.242,0,0,0-.3-2.269l-.278-.065.867.867-.065-.277a1.242,1.242,0,0,0-2.27-.3,1.333,1.333,0,0,0-.125.957Z" transform="translate(-2032.699 -1517.706)" fill="#0e34c4"/>
      </g>
      <g id="Group_1426" data-name="Group 1426" transform="translate(6.115 221.573)">
        <path id="Path_3080" data-name="Path 3080" d="M2035.847,1488.569v-.087a1.282,1.282,0,0,0-.364-.878,1.242,1.242,0,0,0-1.756,0,1.29,1.29,0,0,0-.364.878v.087a1.28,1.28,0,0,0,.364.878,1.242,1.242,0,0,0,1.756,0,1.292,1.292,0,0,0,.364-.878Z" transform="translate(-2033.364 -1487.24)" fill="#0e34c4"/>
      </g>
      <g id="Group_1427" data-name="Group 1427" transform="translate(6.073 215.292)">
        <path id="Path_3081" data-name="Path 3081" d="M2035.4,1462.677a.24.24,0,0,1-.045-.045l.194.251a.2.2,0,0,1-.028-.049l.125.3a.262.262,0,0,1-.014-.053l.044.33a1.511,1.511,0,0,1,0-.2,1.242,1.242,0,0,0-1.242-1.241,1.254,1.254,0,0,0-.878.364,1.309,1.309,0,0,0-.364.878,1.529,1.529,0,0,0,.451,1.227,1.318,1.318,0,0,0,.878.364,1.263,1.263,0,0,0,.878-.364,1.25,1.25,0,0,0,.364-.878,1.233,1.233,0,0,0-.364-.878Z" transform="translate(-2033.195 -1461.964)" fill="#0e34c4"/>
      </g>
      <g id="Group_1428" data-name="Group 1428" transform="translate(7.348 209.19)">
        <path id="Path_3082" data-name="Path 3082" d="M2039.544,1437.4a1.419,1.419,0,0,1,.037.789,1.275,1.275,0,0,1-.566.733,1.217,1.217,0,0,1-.687.167l.436-.6.714-1,.019-.019.037-.055Z" transform="translate(-2038.328 -1437.403)" fill="#0e34c4"/>
      </g>
      <g id="Group_1429" data-name="Group 1429" transform="translate(6.207 193.393)">
        <path id="Path_3083" data-name="Path 3083" d="M2034.885,1373.824a1.252,1.252,0,0,1,1.244,1.234v.093a1.246,1.246,0,0,1-.371.872,1.112,1.112,0,0,1-.668.343l-1.355-1.745a1.264,1.264,0,0,1,.269-.436A1.206,1.206,0,0,1,2034.885,1373.824Z" transform="translate(-2033.734 -1373.822)" fill="#0e34c4"/>
      </g>
      <g id="Group_1430" data-name="Group 1430" transform="translate(6.073 187.109)">
        <path id="Path_3084" data-name="Path 3084" d="M2035.4,1349.246a.243.243,0,0,1-.045-.045l.194.251a.2.2,0,0,1-.028-.049l.125.3a.263.263,0,0,1-.014-.053l.044.33a1.506,1.506,0,0,1,0-.2,1.242,1.242,0,0,0-1.242-1.242,1.254,1.254,0,0,0-.878.364,1.31,1.31,0,0,0-.364.878,1.53,1.53,0,0,0,.451,1.227,1.318,1.318,0,0,0,.878.364,1.264,1.264,0,0,0,.878-.364,1.251,1.251,0,0,0,.364-.878,1.233,1.233,0,0,0-.364-.878Z" transform="translate(-2033.195 -1348.533)" fill="#0e34c4"/>
      </g>
      <g id="Group_1431" data-name="Group 1431" transform="translate(6.074 179.695)">
        <path id="Path_3085" data-name="Path 3085" d="M2034.859,1319.262l-.072-.015.867.867a.91.91,0,0,1-.018-.1l.044.33a3.96,3.96,0,0,1,0-.412,1.276,1.276,0,0,0-.364-.878,1.242,1.242,0,0,0-1.756,0,1.3,1.3,0,0,0-.364.878,3.177,3.177,0,0,0,.059.839,1.224,1.224,0,0,0,.867.867l.072.015a1.323,1.323,0,0,0,.957-.125,1.241,1.241,0,0,0,.445-1.7,1.237,1.237,0,0,0-.742-.571Z" transform="translate(-2033.198 -1318.694)" fill="#0e34c4"/>
      </g>
      <g id="Group_1432" data-name="Group 1432" transform="translate(5.95 172.775)">
        <path id="Path_3086" data-name="Path 3086" d="M2032.737,1292.416l.065.277a1.227,1.227,0,0,0,.867.867l.278.065a1.3,1.3,0,0,0,.957-.125,1.242,1.242,0,0,0-.3-2.269l-.278-.065.867.867-.065-.277a1.242,1.242,0,0,0-2.27-.3,1.333,1.333,0,0,0-.125.957Z" transform="translate(-2032.699 -1290.843)" fill="#0e34c4"/>
      </g>
      <g id="Group_1433" data-name="Group 1433" transform="translate(6.115 165.206)">
        <path id="Path_3087" data-name="Path 3087" d="M2035.847,1261.706v-.087a1.282,1.282,0,0,0-.364-.878,1.242,1.242,0,0,0-1.756,0,1.29,1.29,0,0,0-.364.878v.087a1.28,1.28,0,0,0,.364.878,1.242,1.242,0,0,0,1.756,0,1.291,1.291,0,0,0,.364-.878Z" transform="translate(-2033.364 -1260.377)" fill="#0e34c4"/>
      </g>
      <g id="Group_1434" data-name="Group 1434" transform="translate(6.073 158.926)">
        <path id="Path_3088" data-name="Path 3088" d="M2035.4,1235.814a.246.246,0,0,1-.045-.045l.194.251a.2.2,0,0,1-.028-.049l.125.3a.265.265,0,0,1-.014-.053l.044.33a1.508,1.508,0,0,1,0-.2,1.242,1.242,0,0,0-1.242-1.242,1.255,1.255,0,0,0-.878.364,1.309,1.309,0,0,0-.364.878,1.529,1.529,0,0,0,.451,1.227,1.318,1.318,0,0,0,.878.364,1.263,1.263,0,0,0,.878-.364,1.25,1.25,0,0,0,.364-.878,1.233,1.233,0,0,0-.364-.878Z" transform="translate(-2033.195 -1235.101)" fill="#0e34c4"/>
      </g>
      <g id="Group_1435" data-name="Group 1435" transform="translate(6.374 151.742)">
        <path id="Path_3089" data-name="Path 3089" d="M2036.067,1206.188a1.082,1.082,0,0,1,.158.13,1.259,1.259,0,0,1,.362.882v.037a1.362,1.362,0,0,1,.047.817,1.227,1.227,0,0,1-1.522.863c-.028,0-.056-.009-.074-.009a1.122,1.122,0,0,1-.631-.408l1.364-1.912-.074-.074c.019,0,.047.009.074.009a.071.071,0,0,1,.046.019Z" transform="translate(-2034.406 -1206.188)" fill="#0e34c4"/>
      </g>
      <g id="Group_1436" data-name="Group 1436" transform="translate(7.024 137.022)">
        <path id="Path_3090" data-name="Path 3090" d="M2037.355,1146.944a1.252,1.252,0,0,1,1.244,1.244v.083a1.178,1.178,0,0,1-.149.576l-.585-.752-.844-1.095A1.4,1.4,0,0,1,2037.355,1146.944Z" transform="translate(-2037.021 -1146.943)" fill="#0e34c4"/>
      </g>
      <g id="Group_1437" data-name="Group 1437" transform="translate(6.073 130.742)">
        <path id="Path_3091" data-name="Path 3091" d="M2035.4,1122.383a.24.24,0,0,1-.045-.045l.194.251a.19.19,0,0,1-.028-.049l.125.3a.259.259,0,0,1-.014-.053l.044.33a1.506,1.506,0,0,1,0-.2,1.241,1.241,0,0,0-1.242-1.242,1.255,1.255,0,0,0-.878.363,1.311,1.311,0,0,0-.364.878,1.529,1.529,0,0,0,.451,1.227,1.319,1.319,0,0,0,.878.364,1.264,1.264,0,0,0,.878-.364,1.25,1.25,0,0,0,.364-.878,1.233,1.233,0,0,0-.364-.878Z" transform="translate(-2033.195 -1121.67)" fill="#0e34c4"/>
      </g>
      <g id="Group_1438" data-name="Group 1438" transform="translate(6.074 123.328)">
        <path id="Path_3092" data-name="Path 3092" d="M2034.859,1092.4l-.072-.015.867.867a.893.893,0,0,1-.018-.1l.044.33a3.96,3.96,0,0,1,0-.412,1.276,1.276,0,0,0-.364-.878,1.242,1.242,0,0,0-1.756,0,1.3,1.3,0,0,0-.364.878,3.175,3.175,0,0,0,.059.839,1.224,1.224,0,0,0,.867.867l.072.015a1.322,1.322,0,0,0,.957-.125,1.241,1.241,0,0,0,.445-1.7,1.236,1.236,0,0,0-.742-.57Z" transform="translate(-2033.198 -1091.831)" fill="#0e34c4"/>
      </g>
      <g id="Group_1439" data-name="Group 1439" transform="translate(11.899 229.142)">
        <path id="Path_3093" data-name="Path 3093" d="M2056.683,1519.278l.065.277a1.228,1.228,0,0,0,.867.867l.278.065a1.305,1.305,0,0,0,.957-.125,1.242,1.242,0,0,0-.3-2.269l-.278-.065.867.867-.065-.277a1.242,1.242,0,0,0-2.27-.3,1.334,1.334,0,0,0-.125.957Z" transform="translate(-2056.645 -1517.706)" fill="#0e34c4"/>
      </g>
      <g id="Group_1440" data-name="Group 1440" transform="translate(12.065 221.573)">
        <path id="Path_3094" data-name="Path 3094" d="M2059.793,1488.569v-.087a1.282,1.282,0,0,0-.363-.878,1.242,1.242,0,0,0-1.756,0,1.292,1.292,0,0,0-.363.878v.087a1.282,1.282,0,0,0,.363.878,1.242,1.242,0,0,0,1.756,0,1.292,1.292,0,0,0,.363-.878Z" transform="translate(-2057.31 -1487.24)" fill="#0e34c4"/>
      </g>
      <g id="Group_1441" data-name="Group 1441" transform="translate(12.023 215.292)">
        <path id="Path_3095" data-name="Path 3095" d="M2059.348,1462.677a.24.24,0,0,1-.045-.045l.194.251a.2.2,0,0,1-.028-.049l.125.3a.248.248,0,0,1-.014-.053c.015.11.03.22.044.33a1.472,1.472,0,0,1,0-.2,1.242,1.242,0,0,0-1.242-1.241,1.254,1.254,0,0,0-.878.364,1.307,1.307,0,0,0-.364.878,1.529,1.529,0,0,0,.451,1.227,1.318,1.318,0,0,0,.878.364,1.263,1.263,0,0,0,.878-.364,1.25,1.25,0,0,0,.364-.878,1.233,1.233,0,0,0-.364-.878Z" transform="translate(-2057.141 -1461.964)" fill="#0e34c4"/>
      </g>
      <g id="Group_1442" data-name="Group 1442" transform="translate(12.023 207.879)">
        <path id="Path_3096" data-name="Path 3096" d="M2058.805,1432.693l-.072-.015.867.867a.858.858,0,0,1-.019-.1l.044.33a3.994,3.994,0,0,1,0-.412,1.275,1.275,0,0,0-.364-.878,1.241,1.241,0,0,0-1.756,0,1.3,1.3,0,0,0-.364.878,3.165,3.165,0,0,0,.059.839,1.224,1.224,0,0,0,.867.867l.072.015a1.321,1.321,0,0,0,.957-.125,1.242,1.242,0,0,0,.446-1.7,1.236,1.236,0,0,0-.742-.57Z" transform="translate(-2057.144 -1432.125)" fill="#0e34c4"/>
      </g>
      <g id="Group_1443" data-name="Group 1443" transform="translate(11.899 200.959)">
        <path id="Path_3097" data-name="Path 3097" d="M2056.683,1405.847l.065.278a1.228,1.228,0,0,0,.867.867l.278.065a1.307,1.307,0,0,0,.957-.125,1.242,1.242,0,0,0-.3-2.27l-.278-.065.867.867-.065-.278a1.242,1.242,0,0,0-1.527-.867,1.256,1.256,0,0,0-.742.571,1.333,1.333,0,0,0-.125.957Z" transform="translate(-2056.645 -1404.274)" fill="#0e34c4"/>
      </g>
      <g id="Group_1444" data-name="Group 1444" transform="translate(12.065 193.389)">
        <path id="Path_3098" data-name="Path 3098" d="M2059.793,1375.138v-.087a1.28,1.28,0,0,0-.363-.878,1.242,1.242,0,0,0-1.756,0,1.291,1.291,0,0,0-.363.878v.087a1.281,1.281,0,0,0,.363.878,1.242,1.242,0,0,0,1.756,0,1.291,1.291,0,0,0,.363-.878Z" transform="translate(-2057.31 -1373.808)" fill="#0e34c4"/>
      </g>
      <g id="Group_1445" data-name="Group 1445" transform="translate(12.023 187.109)">
        <path id="Path_3099" data-name="Path 3099" d="M2059.348,1349.246a.243.243,0,0,1-.045-.045l.194.251a.2.2,0,0,1-.028-.049l.125.3a.248.248,0,0,1-.014-.053c.015.11.03.22.044.33a1.466,1.466,0,0,1,0-.2,1.242,1.242,0,0,0-1.242-1.242,1.254,1.254,0,0,0-.878.364,1.308,1.308,0,0,0-.364.878,1.529,1.529,0,0,0,.451,1.227,1.318,1.318,0,0,0,.878.364,1.264,1.264,0,0,0,.878-.364,1.251,1.251,0,0,0,.364-.878,1.233,1.233,0,0,0-.364-.878Z" transform="translate(-2057.141 -1348.533)" fill="#0e34c4"/>
      </g>
      <g id="Group_1446" data-name="Group 1446" transform="translate(12.023 179.695)">
        <path id="Path_3100" data-name="Path 3100" d="M2058.805,1319.262l-.072-.015.867.867a.881.881,0,0,1-.019-.1l.044.33a3.994,3.994,0,0,1,0-.412,1.276,1.276,0,0,0-.364-.878,1.242,1.242,0,0,0-1.756,0,1.3,1.3,0,0,0-.364.878,3.167,3.167,0,0,0,.059.839,1.224,1.224,0,0,0,.867.867l.072.015a1.323,1.323,0,0,0,.957-.125,1.242,1.242,0,0,0,.446-1.7,1.237,1.237,0,0,0-.742-.571Z" transform="translate(-2057.144 -1318.694)" fill="#0e34c4"/>
      </g>
      <g id="Group_1447" data-name="Group 1447" transform="translate(11.899 172.775)">
        <path id="Path_3101" data-name="Path 3101" d="M2056.683,1292.416l.065.277a1.228,1.228,0,0,0,.867.867l.278.065a1.3,1.3,0,0,0,.957-.125,1.242,1.242,0,0,0-.3-2.269l-.278-.065.867.867-.065-.277a1.242,1.242,0,0,0-2.27-.3,1.333,1.333,0,0,0-.125.957Z" transform="translate(-2056.645 -1290.843)" fill="#0e34c4"/>
      </g>
      <g id="Group_1448" data-name="Group 1448" transform="translate(12.065 165.206)">
        <path id="Path_3102" data-name="Path 3102" d="M2059.793,1261.706v-.087a1.281,1.281,0,0,0-.363-.878,1.242,1.242,0,0,0-1.756,0,1.292,1.292,0,0,0-.363.878v.087a1.281,1.281,0,0,0,.363.878,1.242,1.242,0,0,0,1.756,0,1.292,1.292,0,0,0,.363-.878Z" transform="translate(-2057.31 -1260.377)" fill="#0e34c4"/>
      </g>
      <g id="Group_1449" data-name="Group 1449" transform="translate(12.023 158.926)">
        <path id="Path_3103" data-name="Path 3103" d="M2059.348,1235.814a.246.246,0,0,1-.045-.045l.194.251a.2.2,0,0,1-.028-.049l.125.3a.25.25,0,0,1-.014-.053c.015.11.03.22.044.33a1.468,1.468,0,0,1,0-.2,1.242,1.242,0,0,0-1.242-1.242,1.255,1.255,0,0,0-.878.364,1.308,1.308,0,0,0-.364.878,1.529,1.529,0,0,0,.451,1.227,1.318,1.318,0,0,0,.878.364,1.263,1.263,0,0,0,.878-.364,1.25,1.25,0,0,0,.364-.878,1.233,1.233,0,0,0-.364-.878Z" transform="translate(-2057.141 -1235.101)" fill="#0e34c4"/>
      </g>
      <g id="Group_1450" data-name="Group 1450" transform="translate(12.023 151.512)">
        <path id="Path_3104" data-name="Path 3104" d="M2058.805,1205.83l-.072-.015.867.867a.866.866,0,0,1-.019-.1l.044.33a3.993,3.993,0,0,1,0-.412,1.276,1.276,0,0,0-.364-.878,1.242,1.242,0,0,0-1.756,0,1.3,1.3,0,0,0-.364.878,3.165,3.165,0,0,0,.059.839,1.224,1.224,0,0,0,.867.867l.072.015a1.323,1.323,0,0,0,.957-.125,1.242,1.242,0,0,0,.446-1.7,1.236,1.236,0,0,0-.742-.571Z" transform="translate(-2057.144 -1205.262)" fill="#0e34c4"/>
      </g>
      <g id="Group_1451" data-name="Group 1451" transform="translate(11.899 144.592)">
        <path id="Path_3105" data-name="Path 3105" d="M2056.683,1178.984l.065.278a1.228,1.228,0,0,0,.867.867l.278.065a1.306,1.306,0,0,0,.957-.125,1.242,1.242,0,0,0-.3-2.269l-.278-.065.867.867-.065-.278a1.242,1.242,0,0,0-2.27-.3,1.333,1.333,0,0,0-.125.957Z" transform="translate(-2056.645 -1177.412)" fill="#0e34c4"/>
      </g>
      <g id="Group_1452" data-name="Group 1452" transform="translate(12.065 137.022)">
        <path id="Path_3106" data-name="Path 3106" d="M2059.793,1148.275v-.087a1.281,1.281,0,0,0-.363-.878,1.242,1.242,0,0,0-1.756,0,1.292,1.292,0,0,0-.363.878v.087a1.281,1.281,0,0,0,.363.878,1.242,1.242,0,0,0,1.756,0,1.291,1.291,0,0,0,.363-.878Z" transform="translate(-2057.31 -1146.945)" fill="#0e34c4"/>
      </g>
      <g id="Group_1453" data-name="Group 1453" transform="translate(12.023 130.742)">
        <path id="Path_3107" data-name="Path 3107" d="M2059.348,1122.383a.24.24,0,0,1-.045-.045l.194.251a.194.194,0,0,1-.028-.049l.125.3a.245.245,0,0,1-.014-.053c.015.11.03.22.044.33a1.466,1.466,0,0,1,0-.2,1.241,1.241,0,0,0-1.242-1.242,1.254,1.254,0,0,0-.878.363,1.309,1.309,0,0,0-.364.878,1.529,1.529,0,0,0,.451,1.227,1.319,1.319,0,0,0,.878.364,1.264,1.264,0,0,0,.878-.364,1.251,1.251,0,0,0,.364-.878,1.233,1.233,0,0,0-.364-.878Z" transform="translate(-2057.141 -1121.67)" fill="#0e34c4"/>
      </g>
      <g id="Group_1454" data-name="Group 1454" transform="translate(12.023 123.328)">
        <path id="Path_3108" data-name="Path 3108" d="M2058.805,1092.4l-.072-.015.867.867a.865.865,0,0,1-.019-.1l.044.33a3.994,3.994,0,0,1,0-.412,1.276,1.276,0,0,0-.364-.878,1.242,1.242,0,0,0-1.756,0,1.3,1.3,0,0,0-.364.878,3.165,3.165,0,0,0,.059.839,1.224,1.224,0,0,0,.867.867l.072.015a1.321,1.321,0,0,0,.957-.125,1.242,1.242,0,0,0,.446-1.7,1.236,1.236,0,0,0-.742-.57Z" transform="translate(-2057.144 -1091.831)" fill="#0e34c4"/>
      </g>
      <g id="Group_1455" data-name="Group 1455" transform="translate(18.014 221.573)">
        <path id="Path_3109" data-name="Path 3109" d="M2083.739,1488.569v-.087a1.282,1.282,0,0,0-.364-.878,1.242,1.242,0,0,0-1.756,0,1.291,1.291,0,0,0-.364.878v.087a1.282,1.282,0,0,0,.364.878,1.242,1.242,0,0,0,1.756,0,1.291,1.291,0,0,0,.364-.878Z" transform="translate(-2081.256 -1487.24)" fill="#0e34c4"/>
      </g>
      <g id="Group_1456" data-name="Group 1456" transform="translate(17.972 215.292)">
        <path id="Path_3110" data-name="Path 3110" d="M2083.294,1462.677a.24.24,0,0,1-.045-.045l.194.251a.21.21,0,0,1-.027-.049l.125.3a.233.233,0,0,1-.014-.053l.044.33a1.511,1.511,0,0,1,0-.2,1.242,1.242,0,0,0-1.242-1.241,1.254,1.254,0,0,0-.878.364,1.309,1.309,0,0,0-.364.878,1.529,1.529,0,0,0,.451,1.227,1.317,1.317,0,0,0,.878.364,1.263,1.263,0,0,0,.878-.364,1.249,1.249,0,0,0,.364-.878,1.232,1.232,0,0,0-.364-.878Z" transform="translate(-2081.087 -1461.964)" fill="#0e34c4"/>
      </g>
      <g id="Group_1457" data-name="Group 1457" transform="translate(17.973 207.879)">
        <path id="Path_3111" data-name="Path 3111" d="M2082.751,1432.693l-.072-.015.867.867a.858.858,0,0,1-.019-.1q.022.165.044.33a3.926,3.926,0,0,1,0-.412,1.276,1.276,0,0,0-.364-.878,1.241,1.241,0,0,0-1.756,0,1.3,1.3,0,0,0-.364.878,3.144,3.144,0,0,0,.059.839,1.224,1.224,0,0,0,.867.867l.072.015a1.322,1.322,0,0,0,.957-.125,1.242,1.242,0,0,0,.446-1.7,1.237,1.237,0,0,0-.742-.57Z" transform="translate(-2081.09 -1432.125)" fill="#0e34c4"/>
      </g>
      <g id="Group_1458" data-name="Group 1458" transform="translate(17.849 200.959)">
        <path id="Path_3112" data-name="Path 3112" d="M2080.629,1405.847l.065.278a1.228,1.228,0,0,0,.867.867l.278.065a1.306,1.306,0,0,0,.957-.125,1.242,1.242,0,0,0-.3-2.27l-.278-.065.867.867c-.022-.093-.044-.185-.065-.278a1.242,1.242,0,0,0-1.527-.867,1.255,1.255,0,0,0-.742.571,1.333,1.333,0,0,0-.125.957Z" transform="translate(-2080.591 -1404.274)" fill="#0e34c4"/>
      </g>
      <g id="Group_1459" data-name="Group 1459" transform="translate(18.014 193.389)">
        <path id="Path_3113" data-name="Path 3113" d="M2083.739,1375.138v-.087a1.281,1.281,0,0,0-.364-.878,1.242,1.242,0,0,0-1.756,0,1.29,1.29,0,0,0-.364.878v.087a1.281,1.281,0,0,0,.364.878,1.242,1.242,0,0,0,1.756,0,1.29,1.29,0,0,0,.364-.878Z" transform="translate(-2081.256 -1373.808)" fill="#0e34c4"/>
      </g>
      <g id="Group_1460" data-name="Group 1460" transform="translate(17.972 187.109)">
        <path id="Path_3114" data-name="Path 3114" d="M2083.294,1349.246a.243.243,0,0,1-.045-.045l.194.251a.206.206,0,0,1-.027-.049l.125.3a.234.234,0,0,1-.014-.053l.044.33a1.506,1.506,0,0,1,0-.2,1.241,1.241,0,0,0-1.242-1.242,1.255,1.255,0,0,0-.878.364,1.31,1.31,0,0,0-.364.878,1.529,1.529,0,0,0,.451,1.227,1.318,1.318,0,0,0,.878.364,1.264,1.264,0,0,0,.878-.364,1.25,1.25,0,0,0,.364-.878,1.232,1.232,0,0,0-.364-.878Z" transform="translate(-2081.087 -1348.533)" fill="#0e34c4"/>
      </g>
      <g id="Group_1461" data-name="Group 1461" transform="translate(17.975 179.872)">
        <path id="Path_3115" data-name="Path 3115" d="M2082.86,1320.881l.6.78a1.153,1.153,0,0,1-.408.408,1.321,1.321,0,0,1-.956.121c-.028,0-.056-.009-.074-.009a1.237,1.237,0,0,1-.872-.872,3.618,3.618,0,0,1-.056-.835,1.3,1.3,0,0,1,.362-.882.976.976,0,0,1,.251-.186Z" transform="translate(-2081.096 -1319.405)" fill="#0e34c4"/>
      </g>
      <g id="Group_1462" data-name="Group 1462" transform="translate(18.012 165.207)">
        <path id="Path_3116" data-name="Path 3116" d="M2082.491,1260.383a1.276,1.276,0,0,1,.882.362,1.207,1.207,0,0,1,.334.668l-.613.863v.009l-.473.65a.629.629,0,0,1-.13.019,1.236,1.236,0,0,1-1.244-1.244v-.083a1.282,1.282,0,0,1,.362-.882A1.258,1.258,0,0,1,2082.491,1260.383Z" transform="translate(-2081.247 -1260.381)" fill="#0e34c4"/>
      </g>
      <g id="Group_1463" data-name="Group 1463" transform="translate(17.972 158.926)">
        <path id="Path_3117" data-name="Path 3117" d="M2083.294,1235.814a.246.246,0,0,1-.045-.045l.194.251a.21.21,0,0,1-.027-.049l.125.3a.235.235,0,0,1-.014-.053l.044.33a1.508,1.508,0,0,1,0-.2,1.241,1.241,0,0,0-1.242-1.242,1.255,1.255,0,0,0-.878.364,1.31,1.31,0,0,0-.364.878,1.529,1.529,0,0,0,.451,1.227,1.317,1.317,0,0,0,.878.364,1.263,1.263,0,0,0,.878-.364,1.249,1.249,0,0,0,.364-.878,1.232,1.232,0,0,0-.364-.878Z" transform="translate(-2081.087 -1235.101)" fill="#0e34c4"/>
      </g>
      <g id="Group_1464" data-name="Group 1464" transform="translate(17.973 151.512)">
        <path id="Path_3118" data-name="Path 3118" d="M2082.751,1205.83l-.072-.015.867.867a.866.866,0,0,1-.019-.1c.015.11.03.22.044.33a3.925,3.925,0,0,1,0-.412,1.277,1.277,0,0,0-.364-.878,1.242,1.242,0,0,0-1.756,0,1.3,1.3,0,0,0-.364.878,3.145,3.145,0,0,0,.059.839,1.224,1.224,0,0,0,.867.867l.072.015a1.323,1.323,0,0,0,.957-.125,1.242,1.242,0,0,0,.446-1.7,1.236,1.236,0,0,0-.742-.571Z" transform="translate(-2081.09 -1205.262)" fill="#0e34c4"/>
      </g>
      <g id="Group_1465" data-name="Group 1465" transform="translate(17.849 144.592)">
        <path id="Path_3119" data-name="Path 3119" d="M2080.629,1178.984l.065.278a1.228,1.228,0,0,0,.867.867l.278.065a1.305,1.305,0,0,0,.957-.125,1.242,1.242,0,0,0-.3-2.269l-.278-.065.867.867c-.022-.093-.044-.185-.065-.278a1.243,1.243,0,0,0-1.527-.867,1.256,1.256,0,0,0-.742.571,1.333,1.333,0,0,0-.125.957Z" transform="translate(-2080.591 -1177.412)" fill="#0e34c4"/>
      </g>
      <g id="Group_1466" data-name="Group 1466" transform="translate(18.014 137.022)">
        <path id="Path_3120" data-name="Path 3120" d="M2083.739,1148.275v-.087a1.281,1.281,0,0,0-.364-.878,1.242,1.242,0,0,0-1.756,0,1.291,1.291,0,0,0-.364.878v.087a1.281,1.281,0,0,0,.364.878,1.242,1.242,0,0,0,1.756,0,1.29,1.29,0,0,0,.364-.878Z" transform="translate(-2081.256 -1146.945)" fill="#0e34c4"/>
      </g>
      <g id="Group_1467" data-name="Group 1467" transform="translate(17.972 130.742)">
        <path id="Path_3121" data-name="Path 3121" d="M2083.294,1122.383a.24.24,0,0,1-.045-.045l.194.251a.2.2,0,0,1-.027-.049l.125.3a.23.23,0,0,1-.014-.053l.044.33a1.506,1.506,0,0,1,0-.2,1.241,1.241,0,0,0-1.242-1.242,1.255,1.255,0,0,0-.878.363,1.311,1.311,0,0,0-.364.878,1.529,1.529,0,0,0,.451,1.227,1.318,1.318,0,0,0,.878.364,1.264,1.264,0,0,0,.878-.364,1.249,1.249,0,0,0,.364-.878,1.232,1.232,0,0,0-.364-.878Z" transform="translate(-2081.087 -1121.67)" fill="#0e34c4"/>
      </g>
      <g id="Group_1468" data-name="Group 1468" transform="translate(17.973 123.328)">
        <path id="Path_3122" data-name="Path 3122" d="M2082.751,1092.4l-.072-.015.867.867a.865.865,0,0,1-.019-.1q.022.165.044.33a3.926,3.926,0,0,1,0-.412,1.277,1.277,0,0,0-.364-.878,1.242,1.242,0,0,0-1.756,0,1.3,1.3,0,0,0-.364.878,3.145,3.145,0,0,0,.059.839,1.223,1.223,0,0,0,.867.867l.072.015a1.322,1.322,0,0,0,.957-.125,1.242,1.242,0,0,0,.446-1.7,1.237,1.237,0,0,0-.742-.57Z" transform="translate(-2081.09 -1091.831)" fill="#0e34c4"/>
      </g>
      <g id="Group_1469" data-name="Group 1469" transform="translate(23.924 215.296)">
        <path id="Path_3123" data-name="Path 3123" d="M2107.406,1462.933c-.241.381-.492.752-.761,1.123l-.52.724a1.518,1.518,0,0,1-.64-.334,1.553,1.553,0,0,1-.446-1.234,1.32,1.32,0,0,1,.362-.873,1.233,1.233,0,0,1,2.06.52Z" transform="translate(-2105.039 -1461.976)" fill="#0e34c4"/>
      </g>
      <g id="Group_1470" data-name="Group 1470" transform="translate(23.923 207.879)">
        <path id="Path_3124" data-name="Path 3124" d="M2106.7,1432.693l-.073-.015.867.867c-.008-.032-.014-.063-.018-.1q.022.165.044.33a3.994,3.994,0,0,1,0-.412,1.275,1.275,0,0,0-.364-.878,1.241,1.241,0,0,0-1.756,0,1.3,1.3,0,0,0-.364.878,3.154,3.154,0,0,0,.059.839,1.224,1.224,0,0,0,.867.867l.073.015a1.322,1.322,0,0,0,.957-.125,1.242,1.242,0,0,0,.445-1.7,1.236,1.236,0,0,0-.742-.57Z" transform="translate(-2105.036 -1432.125)" fill="#0e34c4"/>
      </g>
      <g id="Group_1471" data-name="Group 1471" transform="translate(23.799 200.959)">
        <path id="Path_3125" data-name="Path 3125" d="M2104.575,1405.847l.065.278a1.227,1.227,0,0,0,.867.867l.277.065a1.306,1.306,0,0,0,.957-.125,1.242,1.242,0,0,0-.3-2.27l-.277-.065.867.867-.065-.278a1.242,1.242,0,0,0-1.527-.867,1.255,1.255,0,0,0-.742.571,1.333,1.333,0,0,0-.125.957Z" transform="translate(-2104.537 -1404.274)" fill="#0e34c4"/>
      </g>
      <g id="Group_1472" data-name="Group 1472" transform="translate(23.964 193.389)">
        <path id="Path_3126" data-name="Path 3126" d="M2107.685,1375.138v-.087a1.281,1.281,0,0,0-.364-.878,1.242,1.242,0,0,0-1.756,0,1.29,1.29,0,0,0-.364.878v.087a1.281,1.281,0,0,0,.364.878,1.242,1.242,0,0,0,1.756,0,1.29,1.29,0,0,0,.364-.878Z" transform="translate(-2105.202 -1373.808)" fill="#0e34c4"/>
      </g>
      <g id="Group_1473" data-name="Group 1473" transform="translate(23.923 187.371)">
        <path id="Path_3127" data-name="Path 3127" d="M2106.125,1350.366c.371.483.724.974,1.058,1.485a1.272,1.272,0,0,1-.817.306,1.365,1.365,0,0,1-.882-.362,1.545,1.545,0,0,1-.446-1.225,1.342,1.342,0,0,1,.362-.882.638.638,0,0,1,.12-.1Z" transform="translate(-2105.039 -1349.586)" fill="#0e34c4"/>
      </g>
      <g id="Group_1474" data-name="Group 1474" transform="translate(23.923 158.924)">
        <path id="Path_3128" data-name="Path 3128" d="M2106.281,1235.1a1.125,1.125,0,0,1,.483.1,2,2,0,0,1-.121.176l-.047.065-1.1,1.531-.009.009-.223.316a1.7,1.7,0,0,1-.223-.956,1.342,1.342,0,0,1,.362-.882A1.282,1.282,0,0,1,2106.281,1235.1Z" transform="translate(-2105.037 -1235.094)" fill="#0e34c4"/>
      </g>
      <g id="Group_1475" data-name="Group 1475" transform="translate(23.923 151.512)">
        <path id="Path_3129" data-name="Path 3129" d="M2106.7,1205.83l-.073-.015.867.867c-.008-.032-.014-.064-.018-.1.015.11.03.22.044.33a3.993,3.993,0,0,1,0-.412,1.276,1.276,0,0,0-.364-.878,1.242,1.242,0,0,0-1.756,0,1.3,1.3,0,0,0-.364.878,3.155,3.155,0,0,0,.059.839,1.224,1.224,0,0,0,.867.867l.073.015a1.323,1.323,0,0,0,.957-.125,1.242,1.242,0,0,0,.445-1.7,1.235,1.235,0,0,0-.742-.571Z" transform="translate(-2105.036 -1205.262)" fill="#0e34c4"/>
      </g>
      <g id="Group_1476" data-name="Group 1476" transform="translate(23.799 144.592)">
        <path id="Path_3130" data-name="Path 3130" d="M2104.575,1178.984l.065.278a1.227,1.227,0,0,0,.867.867l.277.065a1.306,1.306,0,0,0,.957-.125,1.242,1.242,0,0,0-.3-2.269l-.277-.065.867.867-.065-.278a1.242,1.242,0,0,0-1.527-.867,1.255,1.255,0,0,0-.742.571,1.333,1.333,0,0,0-.125.957Z" transform="translate(-2104.537 -1177.412)" fill="#0e34c4"/>
      </g>
      <g id="Group_1477" data-name="Group 1477" transform="translate(23.964 137.022)">
        <path id="Path_3131" data-name="Path 3131" d="M2107.685,1148.275v-.087a1.281,1.281,0,0,0-.364-.878,1.242,1.242,0,0,0-1.756,0,1.291,1.291,0,0,0-.364.878v.087a1.281,1.281,0,0,0,.364.878,1.242,1.242,0,0,0,1.756,0,1.29,1.29,0,0,0,.364-.878Z" transform="translate(-2105.202 -1146.945)" fill="#0e34c4"/>
      </g>
      <g id="Group_1478" data-name="Group 1478" transform="translate(23.924 130.738)">
        <path id="Path_3132" data-name="Path 3132" d="M2107.508,1122.758v.009a.994.994,0,0,1,.065.223c0,.009.01.009.01.019.009.083.019.167.028.241a1.252,1.252,0,0,1-1.244,1.244,1.326,1.326,0,0,1-.882-.371,1.522,1.522,0,0,1-.446-1.225,1.319,1.319,0,0,1,.362-.872,1.25,1.25,0,0,1,.881-.371,1.063,1.063,0,0,1,.473.1h.009Z" transform="translate(-2105.039 -1121.652)" fill="#0e34c4"/>
      </g>
      <g id="Group_1479" data-name="Group 1479" transform="translate(29.749 201.403)">
        <path id="Path_3133" data-name="Path 3133" d="M2128.766,1406.064c.047.575.065,1.141.065,1.717v.148a1.065,1.065,0,0,1-.242-.464c-.028-.093-.046-.186-.065-.269a1.339,1.339,0,0,1,.121-.965A.794.794,0,0,1,2128.766,1406.064Z" transform="translate(-2128.484 -1406.064)" fill="#0e34c4"/>
      </g>
      <g id="Group_1480" data-name="Group 1480" transform="translate(29.749 144.967)">
        <path id="Path_3134" data-name="Path 3134" d="M2128.831,1178.92c0,.612-.028,1.225-.074,1.838a.924.924,0,0,1-.167-.362c-.028-.093-.046-.186-.065-.278a1.32,1.32,0,0,1,.121-.956A.918.918,0,0,1,2128.831,1178.92Z" transform="translate(-2128.484 -1178.92)" fill="#0e34c4"/>
      </g>
      <g id="Group_1481" data-name="Group 1481" transform="translate(0 116.803)">
        <path id="Path_3135" data-name="Path 3135" d="M2008.791,1067.141l.065.278a1.228,1.228,0,0,0,.867.867l.277.065a1.3,1.3,0,0,0,.957-.125,1.242,1.242,0,0,0-.3-2.269l-.277-.065.867.867-.065-.278a1.242,1.242,0,0,0-2.269-.3,1.333,1.333,0,0,0-.125.957Z" transform="translate(-2008.753 -1065.569)" fill="#0e34c4"/>
      </g>
      <g id="Group_1482" data-name="Group 1482" transform="translate(0.165 109.234)">
        <path id="Path_3136" data-name="Path 3136" d="M2011.9,1036.432v-.087a1.282,1.282,0,0,0-.364-.878,1.242,1.242,0,0,0-1.756,0,1.29,1.29,0,0,0-.364.878v.087a1.28,1.28,0,0,0,.364.878,1.241,1.241,0,0,0,1.756,0,1.29,1.29,0,0,0,.364-.878Z" transform="translate(-2009.418 -1035.103)" fill="#0e34c4"/>
      </g>
      <g id="Group_1483" data-name="Group 1483" transform="translate(0.212 102.952)">
        <path id="Path_3137" data-name="Path 3137" d="M2010.718,1009.821h.037a1.231,1.231,0,0,1,1.234,1.1v.009a1.494,1.494,0,0,1,.1.483,1.246,1.246,0,0,1-.371.872,1.221,1.221,0,0,1-.872.362,1.3,1.3,0,0,1-.882-.362,1.35,1.35,0,0,1-.362-.575c.241-.455.492-.9.77-1.346C2010.485,1010.183,2010.6,1010,2010.718,1009.821Z" transform="translate(-2009.604 -1009.82)" fill="#0e34c4"/>
      </g>
      <g id="Group_1484" data-name="Group 1484" transform="translate(0.124 67.356)">
        <path id="Path_3138" data-name="Path 3138" d="M2010.913,867.124l-.072-.015.867.867c-.008-.033-.014-.064-.018-.1q.023.165.045.33a3.993,3.993,0,0,1,0-.412,1.275,1.275,0,0,0-.364-.878,1.241,1.241,0,0,0-1.756,0,1.3,1.3,0,0,0-.364.878,3.171,3.171,0,0,0,.059.839,1.224,1.224,0,0,0,.867.867l.072.015a1.322,1.322,0,0,0,.957-.125,1.241,1.241,0,0,0,.445-1.7,1.236,1.236,0,0,0-.742-.571Z" transform="translate(-2009.252 -866.556)" fill="#0e34c4"/>
      </g>
      <g id="Group_1485" data-name="Group 1485" transform="translate(0 60.436)">
        <path id="Path_3139" data-name="Path 3139" d="M2008.791,840.278l.065.278a1.227,1.227,0,0,0,.867.867l.277.065a1.3,1.3,0,0,0,.957-.125,1.242,1.242,0,0,0-.3-2.269l-.277-.065.867.867-.065-.278a1.242,1.242,0,0,0-2.269-.3,1.333,1.333,0,0,0-.125.957Z" transform="translate(-2008.753 -838.706)" fill="#0e34c4"/>
      </g>
      <g id="Group_1486" data-name="Group 1486" transform="translate(0.165 52.867)">
        <path id="Path_3140" data-name="Path 3140" d="M2011.9,809.569v-.087a1.282,1.282,0,0,0-.364-.878,1.242,1.242,0,0,0-1.756,0,1.29,1.29,0,0,0-.364.878v.087a1.281,1.281,0,0,0,.364.878,1.242,1.242,0,0,0,1.756,0,1.291,1.291,0,0,0,.364-.878Z" transform="translate(-2009.418 -808.24)" fill="#0e34c4"/>
      </g>
      <g id="Group_1487" data-name="Group 1487" transform="translate(0.123 46.587)">
        <path id="Path_3141" data-name="Path 3141" d="M2011.457,783.677a.235.235,0,0,1-.046-.045l.194.251a.2.2,0,0,1-.028-.049l.125.3a.272.272,0,0,1-.014-.053l.044.33a1.511,1.511,0,0,1,0-.2,1.242,1.242,0,0,0-1.242-1.242,1.255,1.255,0,0,0-.878.364,1.309,1.309,0,0,0-.364.878,1.531,1.531,0,0,0,.451,1.227,1.318,1.318,0,0,0,.878.364,1.263,1.263,0,0,0,.878-.364,1.25,1.25,0,0,0,.364-.878,1.233,1.233,0,0,0-.364-.878Z" transform="translate(-2009.249 -782.964)" fill="#0e34c4"/>
      </g>
      <g id="Group_1488" data-name="Group 1488" transform="translate(0.768 10.988)">
        <path id="Path_3142" data-name="Path 3142" d="M2012.448,639.689a1.278,1.278,0,0,1,.872.362,1.259,1.259,0,0,1,.362.882v.037a1.359,1.359,0,0,1,.046.817,1.2,1.2,0,0,1-.8.844,8.777,8.777,0,0,1-1.086-2.784A1.387,1.387,0,0,1,2012.448,639.689Z" transform="translate(-2011.845 -639.688)" fill="#0e34c4"/>
      </g>
      <g id="Group_1489" data-name="Group 1489" transform="translate(5.95 116.803)">
        <path id="Path_3143" data-name="Path 3143" d="M2032.737,1067.141l.065.278a1.228,1.228,0,0,0,.867.867l.278.065a1.3,1.3,0,0,0,.957-.125,1.242,1.242,0,0,0-.3-2.269l-.278-.065.867.867-.065-.278a1.242,1.242,0,0,0-2.27-.3,1.333,1.333,0,0,0-.125.957Z" transform="translate(-2032.699 -1065.569)" fill="#0e34c4"/>
      </g>
      <g id="Group_1490" data-name="Group 1490" transform="translate(6.115 109.234)">
        <path id="Path_3144" data-name="Path 3144" d="M2035.847,1036.432v-.087a1.282,1.282,0,0,0-.364-.878,1.242,1.242,0,0,0-1.756,0,1.29,1.29,0,0,0-.364.878v.087a1.279,1.279,0,0,0,.364.878,1.241,1.241,0,0,0,1.756,0,1.29,1.29,0,0,0,.364-.878Z" transform="translate(-2033.364 -1035.103)" fill="#0e34c4"/>
      </g>
      <g id="Group_1491" data-name="Group 1491" transform="translate(6.073 102.953)">
        <path id="Path_3145" data-name="Path 3145" d="M2035.4,1010.54a.238.238,0,0,1-.045-.045l.194.251a.2.2,0,0,1-.028-.049l.125.3a.258.258,0,0,1-.014-.053l.044.33a1.511,1.511,0,0,1,0-.2,1.242,1.242,0,0,0-1.242-1.242,1.254,1.254,0,0,0-.878.364,1.309,1.309,0,0,0-.364.878,1.529,1.529,0,0,0,.451,1.227,1.318,1.318,0,0,0,.878.364,1.264,1.264,0,0,0,.878-.364,1.25,1.25,0,0,0,.364-.878,1.233,1.233,0,0,0-.364-.878Z" transform="translate(-2033.195 -1009.827)" fill="#0e34c4"/>
      </g>
      <g id="Group_1492" data-name="Group 1492" transform="translate(6.074 95.54)">
        <path id="Path_3146" data-name="Path 3146" d="M2034.859,980.556l-.072-.015.867.867a.886.886,0,0,1-.018-.1l.044.33a3.959,3.959,0,0,1,0-.412,1.275,1.275,0,0,0-.364-.878,1.241,1.241,0,0,0-1.756,0,1.3,1.3,0,0,0-.364.878,3.175,3.175,0,0,0,.059.839,1.223,1.223,0,0,0,.867.867l.072.015a1.322,1.322,0,0,0,.957-.125,1.242,1.242,0,0,0,.445-1.7,1.236,1.236,0,0,0-.742-.57Z" transform="translate(-2033.198 -979.988)" fill="#0e34c4"/>
      </g>
      <g id="Group_1493" data-name="Group 1493" transform="translate(6.073 74.77)">
        <path id="Path_3147" data-name="Path 3147" d="M2035.4,897.109a.244.244,0,0,1-.045-.045l.194.251a.2.2,0,0,1-.028-.049l.125.3a.262.262,0,0,1-.014-.053l.044.33a1.507,1.507,0,0,1,0-.2,1.242,1.242,0,0,0-1.242-1.242,1.254,1.254,0,0,0-.878.364,1.31,1.31,0,0,0-.364.878,1.53,1.53,0,0,0,.451,1.227,1.319,1.319,0,0,0,.878.364,1.264,1.264,0,0,0,.878-.364,1.251,1.251,0,0,0,.364-.878,1.233,1.233,0,0,0-.364-.878Z" transform="translate(-2033.195 -896.396)" fill="#0e34c4"/>
      </g>
      <g id="Group_1494" data-name="Group 1494" transform="translate(6.074 67.356)">
        <path id="Path_3148" data-name="Path 3148" d="M2034.859,867.124l-.072-.015.867.867a.91.91,0,0,1-.018-.1l.044.33a3.959,3.959,0,0,1,0-.412,1.276,1.276,0,0,0-.364-.878,1.241,1.241,0,0,0-1.756,0,1.3,1.3,0,0,0-.364.878,3.176,3.176,0,0,0,.059.839,1.224,1.224,0,0,0,.867.867l.072.015a1.322,1.322,0,0,0,.957-.125,1.241,1.241,0,0,0,.445-1.7,1.237,1.237,0,0,0-.742-.571Z" transform="translate(-2033.198 -866.556)" fill="#0e34c4"/>
      </g>
      <g id="Group_1495" data-name="Group 1495" transform="translate(5.95 60.436)">
        <path id="Path_3149" data-name="Path 3149" d="M2032.737,840.278l.065.278a1.227,1.227,0,0,0,.867.867l.278.065a1.3,1.3,0,0,0,.957-.125,1.242,1.242,0,0,0-.3-2.269l-.278-.065.867.867-.065-.278a1.242,1.242,0,0,0-2.27-.3,1.333,1.333,0,0,0-.125.957Z" transform="translate(-2032.699 -838.706)" fill="#0e34c4"/>
      </g>
      <g id="Group_1496" data-name="Group 1496" transform="translate(6.115 52.867)">
        <path id="Path_3150" data-name="Path 3150" d="M2035.847,809.569v-.087a1.282,1.282,0,0,0-.364-.878,1.242,1.242,0,0,0-1.756,0,1.29,1.29,0,0,0-.364.878v.087a1.28,1.28,0,0,0,.364.878,1.242,1.242,0,0,0,1.756,0,1.292,1.292,0,0,0,.364-.878Z" transform="translate(-2033.364 -808.24)" fill="#0e34c4"/>
      </g>
      <g id="Group_1497" data-name="Group 1497" transform="translate(6.073 46.587)">
        <path id="Path_3151" data-name="Path 3151" d="M2035.4,783.677a.238.238,0,0,1-.045-.045l.194.251a.2.2,0,0,1-.028-.049l.125.3a.264.264,0,0,1-.014-.053l.044.33a1.511,1.511,0,0,1,0-.2,1.242,1.242,0,0,0-1.242-1.242,1.255,1.255,0,0,0-.878.364,1.309,1.309,0,0,0-.364.878,1.529,1.529,0,0,0,.451,1.227,1.318,1.318,0,0,0,.878.364,1.263,1.263,0,0,0,.878-.364,1.25,1.25,0,0,0,.364-.878,1.233,1.233,0,0,0-.364-.878Z" transform="translate(-2033.195 -782.964)" fill="#0e34c4"/>
      </g>
      <g id="Group_1498" data-name="Group 1498" transform="translate(6.074 39.173)">
        <path id="Path_3152" data-name="Path 3152" d="M2034.859,753.693l-.072-.015.867.867a.891.891,0,0,1-.018-.1l.044.33a3.959,3.959,0,0,1,0-.412,1.275,1.275,0,0,0-.364-.878,1.241,1.241,0,0,0-1.756,0,1.3,1.3,0,0,0-.364.878,3.176,3.176,0,0,0,.059.839,1.223,1.223,0,0,0,.867.867l.072.015a1.322,1.322,0,0,0,.957-.125,1.242,1.242,0,0,0,.445-1.7,1.236,1.236,0,0,0-.742-.57Z" transform="translate(-2033.198 -753.125)" fill="#0e34c4"/>
      </g>
      <g id="Group_1499" data-name="Group 1499" transform="translate(6.096 18.403)">
        <path id="Path_3153" data-name="Path 3153" d="M2034.5,669.534a1.283,1.283,0,0,1,.882.362,1.3,1.3,0,0,1,.353.742v.009a1.4,1.4,0,0,1,.1.474,1.269,1.269,0,0,1-.371.882,1.234,1.234,0,0,1-.854.362l-.074-.093-.817-1.058-.436-.566v-.009a1.2,1.2,0,0,1,.343-.742A1.278,1.278,0,0,1,2034.5,669.534Z" transform="translate(-2033.286 -669.533)" fill="#0e34c4"/>
      </g>
      <g id="Group_1500" data-name="Group 1500" transform="translate(6.074 10.989)">
        <path id="Path_3154" data-name="Path 3154" d="M2034.859,640.262l-.072-.015.867.867a.909.909,0,0,1-.018-.1l.044.33a3.96,3.96,0,0,1,0-.412,1.276,1.276,0,0,0-.364-.878,1.242,1.242,0,0,0-1.756,0,1.3,1.3,0,0,0-.364.878,3.176,3.176,0,0,0,.059.839,1.224,1.224,0,0,0,.867.867l.072.015a1.323,1.323,0,0,0,.957-.125,1.241,1.241,0,0,0,.445-1.7,1.237,1.237,0,0,0-.742-.571Z" transform="translate(-2033.198 -639.694)" fill="#0e34c4"/>
      </g>
      <g id="Group_1501" data-name="Group 1501" transform="translate(11.899 116.803)">
        <path id="Path_3155" data-name="Path 3155" d="M2056.683,1067.141l.065.278a1.228,1.228,0,0,0,.867.867l.278.065a1.3,1.3,0,0,0,.957-.125,1.242,1.242,0,0,0-.3-2.269l-.278-.065.867.867-.065-.278a1.242,1.242,0,0,0-2.27-.3,1.333,1.333,0,0,0-.125.957Z" transform="translate(-2056.645 -1065.569)" fill="#0e34c4"/>
      </g>
      <g id="Group_1502" data-name="Group 1502" transform="translate(12.065 109.234)">
        <path id="Path_3156" data-name="Path 3156" d="M2059.793,1036.432v-.087a1.281,1.281,0,0,0-.363-.878,1.243,1.243,0,0,0-1.756,0,1.292,1.292,0,0,0-.363.878v.087a1.281,1.281,0,0,0,.363.878,1.242,1.242,0,0,0,1.756,0,1.291,1.291,0,0,0,.363-.878Z" transform="translate(-2057.31 -1035.103)" fill="#0e34c4"/>
      </g>
      <g id="Group_1503" data-name="Group 1503" transform="translate(12.023 102.953)">
        <path id="Path_3157" data-name="Path 3157" d="M2059.348,1010.54a.238.238,0,0,1-.045-.045l.194.251a.2.2,0,0,1-.028-.049l.125.3a.243.243,0,0,1-.014-.053c.015.11.03.22.044.33a1.472,1.472,0,0,1,0-.2,1.242,1.242,0,0,0-1.242-1.242,1.253,1.253,0,0,0-.878.364,1.307,1.307,0,0,0-.364.878,1.529,1.529,0,0,0,.451,1.227,1.318,1.318,0,0,0,.878.364,1.264,1.264,0,0,0,.878-.364,1.251,1.251,0,0,0,.364-.878,1.233,1.233,0,0,0-.364-.878Z" transform="translate(-2057.141 -1009.827)" fill="#0e34c4"/>
      </g>
      <g id="Group_1504" data-name="Group 1504" transform="translate(12.023 95.54)">
        <path id="Path_3158" data-name="Path 3158" d="M2058.805,980.556l-.072-.015.867.867a.858.858,0,0,1-.019-.1l.044.33a3.993,3.993,0,0,1,0-.412,1.275,1.275,0,0,0-.364-.878,1.241,1.241,0,0,0-1.756,0,1.3,1.3,0,0,0-.364.878,3.165,3.165,0,0,0,.059.839,1.223,1.223,0,0,0,.867.867l.072.015a1.322,1.322,0,0,0,.957-.125,1.242,1.242,0,0,0,.446-1.7,1.236,1.236,0,0,0-.742-.57Z" transform="translate(-2057.144 -979.988)" fill="#0e34c4"/>
      </g>
      <g id="Group_1505" data-name="Group 1505" transform="translate(11.899 88.62)">
        <path id="Path_3159" data-name="Path 3159" d="M2056.683,953.71l.065.278a1.228,1.228,0,0,0,.867.867l.278.065a1.307,1.307,0,0,0,.957-.125,1.242,1.242,0,0,0-.3-2.269l-.278-.065.867.867-.065-.278a1.242,1.242,0,0,0-2.27-.3,1.333,1.333,0,0,0-.125.957Z" transform="translate(-2056.645 -952.137)" fill="#0e34c4"/>
      </g>
      <g id="Group_1506" data-name="Group 1506" transform="translate(12.065 81.05)">
        <path id="Path_3160" data-name="Path 3160" d="M2059.793,923v-.087a1.281,1.281,0,0,0-.363-.878,1.242,1.242,0,0,0-1.756,0,1.291,1.291,0,0,0-.363.878V923a1.281,1.281,0,0,0,.363.878,1.242,1.242,0,0,0,1.756,0,1.292,1.292,0,0,0,.363-.878Z" transform="translate(-2057.31 -921.671)" fill="#0e34c4"/>
      </g>
      <g id="Group_1507" data-name="Group 1507" transform="translate(12.023 74.77)">
        <path id="Path_3161" data-name="Path 3161" d="M2059.348,897.109a.244.244,0,0,1-.045-.045l.194.251a.2.2,0,0,1-.028-.049l.125.3a.247.247,0,0,1-.014-.053c.015.11.03.22.044.33a1.467,1.467,0,0,1,0-.2,1.242,1.242,0,0,0-1.242-1.242,1.254,1.254,0,0,0-.878.364,1.308,1.308,0,0,0-.364.878,1.529,1.529,0,0,0,.451,1.227,1.319,1.319,0,0,0,.878.364,1.264,1.264,0,0,0,.878-.364,1.251,1.251,0,0,0,.364-.878,1.233,1.233,0,0,0-.364-.878Z" transform="translate(-2057.141 -896.396)" fill="#0e34c4"/>
      </g>
      <g id="Group_1508" data-name="Group 1508" transform="translate(12.023 67.356)">
        <path id="Path_3162" data-name="Path 3162" d="M2058.805,867.124l-.072-.015.867.867a.881.881,0,0,1-.019-.1l.044.33a3.993,3.993,0,0,1,0-.412,1.276,1.276,0,0,0-.364-.878,1.241,1.241,0,0,0-1.756,0,1.3,1.3,0,0,0-.364.878,3.166,3.166,0,0,0,.059.839,1.224,1.224,0,0,0,.867.867l.072.015a1.322,1.322,0,0,0,.957-.125,1.242,1.242,0,0,0,.446-1.7,1.237,1.237,0,0,0-.742-.571Z" transform="translate(-2057.144 -866.556)" fill="#0e34c4"/>
      </g>
      <g id="Group_1509" data-name="Group 1509" transform="translate(11.899 60.436)">
        <path id="Path_3163" data-name="Path 3163" d="M2056.683,840.278l.065.278a1.228,1.228,0,0,0,.867.867l.278.065a1.305,1.305,0,0,0,.957-.125,1.242,1.242,0,0,0-.3-2.269l-.278-.065.867.867-.065-.278a1.242,1.242,0,0,0-2.27-.3,1.333,1.333,0,0,0-.125.957Z" transform="translate(-2056.645 -838.706)" fill="#0e34c4"/>
      </g>
      <g id="Group_1510" data-name="Group 1510" transform="translate(12.065 52.867)">
        <path id="Path_3164" data-name="Path 3164" d="M2059.793,809.569v-.087a1.282,1.282,0,0,0-.363-.878,1.242,1.242,0,0,0-1.756,0,1.292,1.292,0,0,0-.363.878v.087a1.282,1.282,0,0,0,.363.878,1.243,1.243,0,0,0,1.756,0,1.292,1.292,0,0,0,.363-.878Z" transform="translate(-2057.31 -808.24)" fill="#0e34c4"/>
      </g>
      <g id="Group_1511" data-name="Group 1511" transform="translate(12.023 46.587)">
        <path id="Path_3165" data-name="Path 3165" d="M2059.348,783.677a.238.238,0,0,1-.045-.045l.194.251a.2.2,0,0,1-.028-.049l.125.3a.249.249,0,0,1-.014-.053c.015.11.03.22.044.33a1.472,1.472,0,0,1,0-.2,1.242,1.242,0,0,0-1.242-1.242,1.255,1.255,0,0,0-.878.364,1.307,1.307,0,0,0-.364.878,1.529,1.529,0,0,0,.451,1.227,1.318,1.318,0,0,0,.878.364,1.263,1.263,0,0,0,.878-.364,1.25,1.25,0,0,0,.364-.878,1.233,1.233,0,0,0-.364-.878Z" transform="translate(-2057.141 -782.964)" fill="#0e34c4"/>
      </g>
      <g id="Group_1512" data-name="Group 1512" transform="translate(12.023 39.173)">
        <path id="Path_3166" data-name="Path 3166" d="M2058.805,753.693l-.072-.015.867.867a.863.863,0,0,1-.019-.1l.044.33a3.994,3.994,0,0,1,0-.412,1.275,1.275,0,0,0-.364-.878,1.241,1.241,0,0,0-1.756,0,1.3,1.3,0,0,0-.364.878,3.165,3.165,0,0,0,.059.839,1.223,1.223,0,0,0,.867.867l.072.015a1.322,1.322,0,0,0,.957-.125,1.242,1.242,0,0,0,.446-1.7,1.236,1.236,0,0,0-.742-.57Z" transform="translate(-2057.144 -753.125)" fill="#0e34c4"/>
      </g>
      <g id="Group_1513" data-name="Group 1513" transform="translate(11.899 32.253)">
        <path id="Path_3167" data-name="Path 3167" d="M2056.683,726.847l.065.278a1.228,1.228,0,0,0,.867.867l.278.065a1.306,1.306,0,0,0,.957-.125,1.242,1.242,0,0,0-.3-2.269l-.278-.065.867.867-.065-.278a1.242,1.242,0,0,0-2.27-.3,1.333,1.333,0,0,0-.125.957Z" transform="translate(-2056.645 -725.274)" fill="#0e34c4"/>
      </g>
      <g id="Group_1514" data-name="Group 1514" transform="translate(12.065 24.683)">
        <path id="Path_3168" data-name="Path 3168" d="M2059.793,696.137v-.087a1.281,1.281,0,0,0-.363-.878,1.242,1.242,0,0,0-1.756,0,1.291,1.291,0,0,0-.363.878v.087a1.281,1.281,0,0,0,.363.878,1.242,1.242,0,0,0,1.756,0,1.291,1.291,0,0,0,.363-.878Z" transform="translate(-2057.31 -694.808)" fill="#0e34c4"/>
      </g>
      <g id="Group_1515" data-name="Group 1515" transform="translate(12.023 18.403)">
        <path id="Path_3169" data-name="Path 3169" d="M2059.348,670.246a.246.246,0,0,1-.045-.045l.194.251a.2.2,0,0,1-.028-.049l.125.3a.247.247,0,0,1-.014-.053c.015.11.03.22.044.33a1.467,1.467,0,0,1,0-.2,1.241,1.241,0,0,0-1.242-1.242,1.254,1.254,0,0,0-.878.363,1.308,1.308,0,0,0-.364.878,1.529,1.529,0,0,0,.451,1.227,1.319,1.319,0,0,0,.878.364,1.264,1.264,0,0,0,.878-.364,1.251,1.251,0,0,0,.364-.878,1.232,1.232,0,0,0-.364-.878Z" transform="translate(-2057.141 -669.533)" fill="#0e34c4"/>
      </g>
      <g id="Group_1516" data-name="Group 1516" transform="translate(12.023 10.989)">
        <path id="Path_3170" data-name="Path 3170" d="M2058.805,640.262l-.072-.015.867.867a.88.88,0,0,1-.019-.1l.044.33a3.994,3.994,0,0,1,0-.412,1.276,1.276,0,0,0-.364-.878,1.242,1.242,0,0,0-1.756,0,1.3,1.3,0,0,0-.364.878,3.165,3.165,0,0,0,.059.839,1.224,1.224,0,0,0,.867.867l.072.015a1.322,1.322,0,0,0,.957-.125,1.242,1.242,0,0,0,.446-1.7,1.237,1.237,0,0,0-.742-.571Z" transform="translate(-2057.144 -639.694)" fill="#0e34c4"/>
      </g>
      <g id="Group_1517" data-name="Group 1517" transform="translate(18.012 109.233)">
        <path id="Path_3171" data-name="Path 3171" d="M2082.491,1035.1a.742.742,0,0,1,.343.056l-.093.121-.687.947-.613.854a1.183,1.183,0,0,1-.195-.65v-.084a1.282,1.282,0,0,1,.362-.882A1.258,1.258,0,0,1,2082.491,1035.1Z" transform="translate(-2081.247 -1035.101)" fill="#0e34c4"/>
      </g>
      <g id="Group_1518" data-name="Group 1518" transform="translate(17.972 102.953)">
        <path id="Path_3172" data-name="Path 3172" d="M2083.294,1010.54a.238.238,0,0,1-.045-.045l.194.251a.21.21,0,0,1-.027-.049l.125.3a.229.229,0,0,1-.014-.053l.044.33a1.511,1.511,0,0,1,0-.2,1.241,1.241,0,0,0-1.242-1.242,1.254,1.254,0,0,0-.878.364,1.31,1.31,0,0,0-.364.878,1.529,1.529,0,0,0,.451,1.227,1.317,1.317,0,0,0,.878.364,1.264,1.264,0,0,0,.878-.364,1.249,1.249,0,0,0,.364-.878,1.233,1.233,0,0,0-.364-.878Z" transform="translate(-2081.087 -1009.827)" fill="#0e34c4"/>
      </g>
      <g id="Group_1519" data-name="Group 1519" transform="translate(17.973 95.54)">
        <path id="Path_3173" data-name="Path 3173" d="M2082.751,980.556l-.072-.015.867.867a.858.858,0,0,1-.019-.1q.022.165.044.33a3.925,3.925,0,0,1,0-.412,1.276,1.276,0,0,0-.364-.878,1.241,1.241,0,0,0-1.756,0,1.3,1.3,0,0,0-.364.878,3.145,3.145,0,0,0,.059.839,1.223,1.223,0,0,0,.867.867l.072.015a1.322,1.322,0,0,0,.957-.125,1.242,1.242,0,0,0,.446-1.7,1.237,1.237,0,0,0-.742-.57Z" transform="translate(-2081.09 -979.988)" fill="#0e34c4"/>
      </g>
      <g id="Group_1520" data-name="Group 1520" transform="translate(17.849 88.62)">
        <path id="Path_3174" data-name="Path 3174" d="M2080.629,953.71l.065.278a1.228,1.228,0,0,0,.867.867l.278.065a1.307,1.307,0,0,0,.957-.125,1.242,1.242,0,0,0-.3-2.269l-.278-.065.867.867c-.022-.092-.044-.185-.065-.278a1.243,1.243,0,0,0-1.527-.867,1.256,1.256,0,0,0-.742.57,1.333,1.333,0,0,0-.125.957Z" transform="translate(-2080.591 -952.137)" fill="#0e34c4"/>
      </g>
      <g id="Group_1521" data-name="Group 1521" transform="translate(18.014 81.05)">
        <path id="Path_3175" data-name="Path 3175" d="M2083.739,923v-.087a1.281,1.281,0,0,0-.364-.878,1.242,1.242,0,0,0-1.756,0,1.29,1.29,0,0,0-.364.878V923a1.281,1.281,0,0,0,.364.878,1.242,1.242,0,0,0,1.756,0,1.291,1.291,0,0,0,.364-.878Z" transform="translate(-2081.256 -921.671)" fill="#0e34c4"/>
      </g>
      <g id="Group_1522" data-name="Group 1522" transform="translate(17.972 74.77)">
        <path id="Path_3176" data-name="Path 3176" d="M2083.294,897.109a.244.244,0,0,1-.045-.045l.194.251a.21.21,0,0,1-.027-.049l.125.3a.232.232,0,0,1-.014-.053l.044.33a1.507,1.507,0,0,1,0-.2,1.241,1.241,0,0,0-1.242-1.242,1.255,1.255,0,0,0-.878.364,1.31,1.31,0,0,0-.364.878,1.529,1.529,0,0,0,.451,1.227,1.318,1.318,0,0,0,.878.364,1.264,1.264,0,0,0,.878-.364,1.25,1.25,0,0,0,.364-.878,1.233,1.233,0,0,0-.364-.878Z" transform="translate(-2081.087 -896.396)" fill="#0e34c4"/>
      </g>
      <g id="Group_1523" data-name="Group 1523" transform="translate(17.973 67.356)">
        <path id="Path_3177" data-name="Path 3177" d="M2082.751,867.124l-.072-.015.867.867a.881.881,0,0,1-.019-.1q.022.165.044.33a3.925,3.925,0,0,1,0-.412,1.277,1.277,0,0,0-.364-.878,1.241,1.241,0,0,0-1.756,0,1.3,1.3,0,0,0-.364.878,3.146,3.146,0,0,0,.059.839,1.223,1.223,0,0,0,.867.867l.072.015a1.322,1.322,0,0,0,.957-.125,1.242,1.242,0,0,0,.446-1.7,1.237,1.237,0,0,0-.742-.571Z" transform="translate(-2081.09 -866.556)" fill="#0e34c4"/>
      </g>
      <g id="Group_1524" data-name="Group 1524" transform="translate(17.972 46.587)">
        <path id="Path_3178" data-name="Path 3178" d="M2083.294,783.677a.238.238,0,0,1-.045-.045l.194.251a.21.21,0,0,1-.027-.049l.125.3a.234.234,0,0,1-.014-.053l.044.33a1.511,1.511,0,0,1,0-.2,1.242,1.242,0,0,0-1.242-1.242,1.255,1.255,0,0,0-.878.364,1.31,1.31,0,0,0-.364.878,1.529,1.529,0,0,0,.451,1.227,1.317,1.317,0,0,0,.878.364,1.263,1.263,0,0,0,.878-.364,1.249,1.249,0,0,0,.364-.878,1.233,1.233,0,0,0-.364-.878Z" transform="translate(-2081.087 -782.964)" fill="#0e34c4"/>
      </g>
      <g id="Group_1525" data-name="Group 1525" transform="translate(17.973 39.173)">
        <path id="Path_3179" data-name="Path 3179" d="M2082.751,753.693l-.072-.015.867.867a.863.863,0,0,1-.019-.1q.022.165.044.33a3.926,3.926,0,0,1,0-.412,1.276,1.276,0,0,0-.364-.878,1.241,1.241,0,0,0-1.756,0,1.3,1.3,0,0,0-.364.878,3.145,3.145,0,0,0,.059.839,1.223,1.223,0,0,0,.867.867l.072.015a1.322,1.322,0,0,0,.957-.125,1.242,1.242,0,0,0,.446-1.7,1.237,1.237,0,0,0-.742-.57Z" transform="translate(-2081.09 -753.125)" fill="#0e34c4"/>
      </g>
      <g id="Group_1526" data-name="Group 1526" transform="translate(17.849 32.253)">
        <path id="Path_3180" data-name="Path 3180" d="M2080.629,726.847l.065.278a1.228,1.228,0,0,0,.867.867l.278.065a1.3,1.3,0,0,0,.957-.125,1.242,1.242,0,0,0-.3-2.269l-.278-.065.867.867c-.022-.093-.044-.185-.065-.278a1.243,1.243,0,0,0-1.527-.867,1.255,1.255,0,0,0-.742.571,1.333,1.333,0,0,0-.125.957Z" transform="translate(-2080.591 -725.274)" fill="#0e34c4"/>
      </g>
      <g id="Group_1527" data-name="Group 1527" transform="translate(18.014 24.683)">
        <path id="Path_3181" data-name="Path 3181" d="M2083.739,696.137v-.087a1.281,1.281,0,0,0-.364-.878,1.242,1.242,0,0,0-1.756,0,1.29,1.29,0,0,0-.364.878v.087a1.281,1.281,0,0,0,.364.878,1.242,1.242,0,0,0,1.756,0,1.29,1.29,0,0,0,.364-.878Z" transform="translate(-2081.256 -694.808)" fill="#0e34c4"/>
      </g>
      <g id="Group_1528" data-name="Group 1528" transform="translate(17.972 18.403)">
        <path id="Path_3182" data-name="Path 3182" d="M2083.294,670.246a.246.246,0,0,1-.045-.045l.194.251a.2.2,0,0,1-.027-.049l.125.3a.232.232,0,0,1-.014-.053l.044.33a1.507,1.507,0,0,1,0-.2,1.241,1.241,0,0,0-1.242-1.242,1.255,1.255,0,0,0-.878.363,1.31,1.31,0,0,0-.364.878,1.529,1.529,0,0,0,.451,1.227,1.318,1.318,0,0,0,.878.364,1.264,1.264,0,0,0,.878-.364,1.25,1.25,0,0,0,.364-.878,1.232,1.232,0,0,0-.364-.878Z" transform="translate(-2081.087 -669.533)" fill="#0e34c4"/>
      </g>
      <g id="Group_1529" data-name="Group 1529" transform="translate(17.973 10.989)">
        <path id="Path_3183" data-name="Path 3183" d="M2082.751,640.262l-.072-.015.867.867a.88.88,0,0,1-.019-.1q.022.165.044.33a3.926,3.926,0,0,1,0-.412,1.277,1.277,0,0,0-.364-.878,1.242,1.242,0,0,0-1.756,0,1.3,1.3,0,0,0-.364.878,3.145,3.145,0,0,0,.059.839,1.223,1.223,0,0,0,.867.867l.072.015a1.322,1.322,0,0,0,.957-.125,1.242,1.242,0,0,0,.446-1.7,1.237,1.237,0,0,0-.742-.571Z" transform="translate(-2081.09 -639.694)" fill="#0e34c4"/>
      </g>
      <g id="Group_1530" data-name="Group 1530" transform="translate(23.923 95.54)">
        <path id="Path_3184" data-name="Path 3184" d="M2106.7,980.556l-.073-.015.867.867a.982.982,0,0,1-.018-.1q.022.165.044.33a3.993,3.993,0,0,1,0-.412,1.275,1.275,0,0,0-.364-.878,1.241,1.241,0,0,0-1.756,0,1.3,1.3,0,0,0-.364.878,3.155,3.155,0,0,0,.059.839,1.223,1.223,0,0,0,.867.867l.073.015a1.322,1.322,0,0,0,.957-.125,1.242,1.242,0,0,0,.445-1.7,1.236,1.236,0,0,0-.742-.57Z" transform="translate(-2105.036 -979.988)" fill="#0e34c4"/>
      </g>
      <g id="Group_1531" data-name="Group 1531" transform="translate(23.799 88.62)">
        <path id="Path_3185" data-name="Path 3185" d="M2104.575,953.71l.065.278a1.227,1.227,0,0,0,.867.867l.277.065a1.307,1.307,0,0,0,.957-.125,1.242,1.242,0,0,0-.3-2.269l-.277-.065.867.867-.065-.278a1.242,1.242,0,0,0-1.527-.867,1.255,1.255,0,0,0-.742.57,1.333,1.333,0,0,0-.125.957Z" transform="translate(-2104.537 -952.137)" fill="#0e34c4"/>
      </g>
      <g id="Group_1532" data-name="Group 1532" transform="translate(23.964 81.05)">
        <path id="Path_3186" data-name="Path 3186" d="M2107.685,923v-.087a1.281,1.281,0,0,0-.364-.878,1.242,1.242,0,0,0-1.756,0,1.29,1.29,0,0,0-.364.878V923a1.281,1.281,0,0,0,.364.878,1.242,1.242,0,0,0,1.756,0,1.291,1.291,0,0,0,.364-.878Z" transform="translate(-2105.202 -921.671)" fill="#0e34c4"/>
      </g>
      <g id="Group_1533" data-name="Group 1533" transform="translate(23.922 74.77)">
        <path id="Path_3187" data-name="Path 3187" d="M2107.24,897.109a.244.244,0,0,1-.045-.045l.194.251a.2.2,0,0,1-.028-.049l.125.3a.233.233,0,0,1-.014-.053l.044.33a1.507,1.507,0,0,1,0-.2,1.241,1.241,0,0,0-1.242-1.242,1.255,1.255,0,0,0-.878.364,1.31,1.31,0,0,0-.364.878,1.53,1.53,0,0,0,.451,1.227,1.318,1.318,0,0,0,.878.364,1.264,1.264,0,0,0,.878-.364,1.249,1.249,0,0,0,.364-.878,1.232,1.232,0,0,0-.364-.878Z" transform="translate(-2105.033 -896.396)" fill="#0e34c4"/>
      </g>
      <g id="Group_1534" data-name="Group 1534" transform="translate(23.923 39.173)">
        <path id="Path_3188" data-name="Path 3188" d="M2106.7,753.693l-.073-.015.867.867c-.008-.032-.014-.064-.018-.1q.022.165.044.33a3.994,3.994,0,0,1,0-.412,1.275,1.275,0,0,0-.364-.878,1.241,1.241,0,0,0-1.756,0,1.3,1.3,0,0,0-.364.878,3.155,3.155,0,0,0,.059.839,1.223,1.223,0,0,0,.867.867l.073.015a1.322,1.322,0,0,0,.957-.125,1.242,1.242,0,0,0,.445-1.7,1.235,1.235,0,0,0-.742-.57Z" transform="translate(-2105.036 -753.125)" fill="#0e34c4"/>
      </g>
      <g id="Group_1535" data-name="Group 1535" transform="translate(23.799 32.253)">
        <path id="Path_3189" data-name="Path 3189" d="M2104.575,726.847l.065.278a1.227,1.227,0,0,0,.867.867l.277.065a1.305,1.305,0,0,0,.957-.125,1.242,1.242,0,0,0-.3-2.269l-.277-.065.867.867-.065-.278a1.242,1.242,0,0,0-1.527-.867,1.255,1.255,0,0,0-.742.571,1.333,1.333,0,0,0-.125.957Z" transform="translate(-2104.537 -725.274)" fill="#0e34c4"/>
      </g>
      <g id="Group_1536" data-name="Group 1536" transform="translate(23.964 24.683)">
        <path id="Path_3190" data-name="Path 3190" d="M2107.685,696.137v-.087a1.281,1.281,0,0,0-.364-.878,1.242,1.242,0,0,0-1.756,0,1.29,1.29,0,0,0-.364.878v.087a1.281,1.281,0,0,0,.364.878,1.242,1.242,0,0,0,1.756,0,1.29,1.29,0,0,0,.364-.878Z" transform="translate(-2105.202 -694.808)" fill="#0e34c4"/>
      </g>
      <g id="Group_1537" data-name="Group 1537" transform="translate(23.922 18.403)">
        <path id="Path_3191" data-name="Path 3191" d="M2107.24,670.246a.246.246,0,0,1-.045-.045l.194.251a.188.188,0,0,1-.028-.049l.125.3a.233.233,0,0,1-.014-.053l.044.33a1.507,1.507,0,0,1,0-.2,1.241,1.241,0,0,0-1.242-1.242,1.256,1.256,0,0,0-.878.363,1.31,1.31,0,0,0-.364.878,1.53,1.53,0,0,0,.451,1.227,1.318,1.318,0,0,0,.878.364,1.264,1.264,0,0,0,.878-.364,1.249,1.249,0,0,0,.364-.878,1.231,1.231,0,0,0-.364-.878Z" transform="translate(-2105.033 -669.533)" fill="#0e34c4"/>
      </g>
      <g id="Group_1538" data-name="Group 1538" transform="translate(23.924 12.232)">
        <path id="Path_3192" data-name="Path 3192" d="M2105.04,644.7l1.086,1.392c.093.121.186.241.27.362a1.467,1.467,0,0,1-.353-.037c-.028,0-.047-.009-.074-.009a1.236,1.236,0,0,1-.872-.872A3.6,3.6,0,0,1,2105.04,644.7Z" transform="translate(-2105.039 -644.695)" fill="#0e34c4"/>
      </g>
      <g id="Group_1539" data-name="Group 1539" transform="translate(29.749 89.152)">
        <path id="Path_3193" data-name="Path 3193" d="M2128.71,954.278c-.037.4-.083.8-.148,1.188a.876.876,0,0,1-.037-.148,1.32,1.32,0,0,1,.121-.956A.5.5,0,0,1,2128.71,954.278Z" transform="translate(-2128.484 -954.278)" fill="#0e34c4"/>
      </g>
      <g id="Group_1540" data-name="Group 1540" transform="translate(0.787 4.594)">
        <path id="Path_3194" data-name="Path 3194" d="M2012.913,613.954a.323.323,0,0,1,.084.037,1.233,1.233,0,0,1,.4.39,1.329,1.329,0,0,1,.39.4,1.274,1.274,0,0,1,.121.956,1.232,1.232,0,0,1-.566.742,1.28,1.28,0,0,1-.956.13c-.093-.028-.186-.046-.278-.065a1.094,1.094,0,0,1-.186-.065c.028-.139.065-.279.1-.409a10.2,10.2,0,0,1,.594-1.559c.056-.111.111-.223.176-.334v-.009a.068.068,0,0,1-.028-.019c.009,0,.028.009.037.009A.876.876,0,0,1,2012.913,613.954Z" transform="translate(-2011.92 -613.954)" fill="#0e34c4"/>
      </g>
      <g id="Group_1541" data-name="Group 1541" transform="translate(5.95 4.464)">
        <path id="Path_3195" data-name="Path 3195" d="M2032.737,615l.065.278a1.228,1.228,0,0,0,.867.867l.278.065a1.305,1.305,0,0,0,.957-.125,1.242,1.242,0,0,0-.3-2.269l-.278-.065.867.867-.065-.278a1.242,1.242,0,0,0-2.27-.3,1.332,1.332,0,0,0-.125.957Z" transform="translate(-2032.699 -613.432)" fill="#0e34c4"/>
      </g>
      <g id="Group_1542" data-name="Group 1542" transform="translate(6.253 0)">
        <path id="Path_3196" data-name="Path 3196" d="M2036.269,595.464v.083a1.246,1.246,0,0,1-.371.872,1.2,1.2,0,0,1-.872.362,1.257,1.257,0,0,1-.882-.362,1.123,1.123,0,0,1-.223-.325A9.172,9.172,0,0,1,2036.269,595.464Z" transform="translate(-2033.921 -595.464)" fill="#0e34c4"/>
      </g>
      <g id="Group_1543" data-name="Group 1543" transform="translate(11.899 4.464)">
        <path id="Path_3197" data-name="Path 3197" d="M2056.683,615l.065.278a1.228,1.228,0,0,0,.867.867l.278.065a1.306,1.306,0,0,0,.957-.125,1.242,1.242,0,0,0-.3-2.269l-.278-.065.867.867-.065-.278a1.242,1.242,0,0,0-2.27-.3,1.333,1.333,0,0,0-.125.957Z" transform="translate(-2056.645 -613.432)" fill="#0e34c4"/>
      </g>
      <g id="Group_1544" data-name="Group 1544" transform="translate(12.072 0.195)">
        <path id="Path_3198" data-name="Path 3198" d="M2057.341,596.248a9.046,9.046,0,0,1,2.088.789,1.222,1.222,0,0,1-.854.334,1.273,1.273,0,0,1-.882-.362A1.29,1.29,0,0,1,2057.341,596.248Z" transform="translate(-2057.341 -596.248)" fill="#0e34c4"/>
      </g>
      <g id="Group_1545" data-name="Group 1545" transform="translate(17.851 4.845)">
        <path id="Path_3199" data-name="Path 3199" d="M2081.148,615.222l1.587,2.042a1.287,1.287,0,0,1-.891.1c-.093-.028-.186-.046-.278-.065a1.208,1.208,0,0,1-.863-.872c-.028-.093-.046-.186-.065-.279a1.321,1.321,0,0,1,.121-.956.664.664,0,0,1,.186-.232Z" transform="translate(-2080.597 -614.962)" fill="#0e34c4"/>
      </g>
    </g>
    <g id="Group_1708" data-name="Group 1708" transform="translate(-1326.988 5783.621)">
      <g id="Group_1698" data-name="Group 1698" transform="translate(1674.058 1130.152)">
        <g id="Group_1697" data-name="Group 1697" transform="translate(0 0)">
          <circle id="Ellipse_45" data-name="Ellipse 45" cx="32.856" cy="32.856" r="32.856" transform="translate(0 46.465) rotate(-45)" fill="#ffd300"/>
        </g>
      </g>
      <g id="Group_1701" data-name="Group 1701" transform="translate(1678.788 1134.882)">
        <g id="Group_1700" data-name="Group 1700" transform="translate(0 0)">
          <g id="Group_1699" data-name="Group 1699">
            <path id="Path_3205" data-name="Path 3205" d="M1765.267,1224.805A41.735,41.735,0,1,1,1807,1183.07,41.783,41.783,0,0,1,1765.267,1224.805Zm0-79.662a37.927,37.927,0,1,0,37.927,37.927A37.97,37.97,0,0,0,1765.267,1145.143Z" transform="translate(-1723.532 -1141.335)" fill="#ffd300"/>
          </g>
        </g>
      </g>
      <g id="Group_1707" data-name="Group 1707" transform="translate(1645.988 1169.894)">
        <g id="Group_1706" data-name="Group 1706">
          <g id="Group_1702" data-name="Group 1702" transform="translate(35.005 35.005)">
            <path id="Path_3206" data-name="Path 3206" d="M1752.083,1321.452a1.945,1.945,0,0,1-1.945-1.945,8.751,8.751,0,0,0-17.5,0,1.945,1.945,0,1,1-3.889,0,12.641,12.641,0,0,1,25.281,0A1.945,1.945,0,0,1,1752.083,1321.452Z" transform="translate(-1728.746 -1306.867)" fill="#0e34c4"/>
          </g>
          <g id="Group_1703" data-name="Group 1703" transform="translate(23.337 23.337)">
            <path id="Path_3207" data-name="Path 3207" d="M1747.833,1305.535a1.945,1.945,0,0,1-1.945-1.945,20.42,20.42,0,0,0-40.839,0,1.945,1.945,0,1,1-3.889,0,24.309,24.309,0,0,1,48.618,0A1.945,1.945,0,0,1,1747.833,1305.535Z" transform="translate(-1701.16 -1279.281)" fill="#0e34c4"/>
          </g>
          <g id="Group_1704" data-name="Group 1704" transform="translate(11.668 11.668)">
            <path id="Path_3208" data-name="Path 3208" d="M1743.584,1289.617a1.945,1.945,0,0,1-1.945-1.945,32.088,32.088,0,0,0-64.176,0,1.945,1.945,0,1,1-3.889,0,35.977,35.977,0,0,1,71.955,0A1.945,1.945,0,0,1,1743.584,1289.617Z" transform="translate(-1673.574 -1251.695)" fill="#0e34c4"/>
          </g>
          <g id="Group_1705" data-name="Group 1705">
            <path id="Path_3209" data-name="Path 3209" d="M1739.335,1273.7a1.945,1.945,0,0,1-1.945-1.945,43.756,43.756,0,0,0-87.513,0,1.945,1.945,0,1,1-3.889,0,47.646,47.646,0,0,1,95.291,0A1.945,1.945,0,0,1,1739.335,1273.7Z" transform="translate(-1645.988 -1224.109)" fill="#0e34c4"/>
          </g>
        </g>
      </g>
    </g>
  </g>
</svg>
