<svg xmlns="http://www.w3.org/2000/svg" xmlns:xlink="http://www.w3.org/1999/xlink" width="296.707" height="9.707" viewBox="0 0 296.707 9.707">
  <defs>
    <clipPath id="clip-path">
      <rect width="296.707" height="9.707" fill="none"/>
    </clipPath>
  </defs>
  <g id="Repeat_Grid_3" data-name="Repeat Grid 3" clip-path="url(#clip-path)">
    <g id="Group_31" data-name="Group 31" transform="translate(-1186.146 -337.146)">
      <line id="Line_2" data-name="Line 2" x1="9" y2="9" transform="translate(1186.5 337.5)" fill="none" stroke="#a50a38" stroke-width="1"/>
      <line id="Line_3" data-name="Line 3" x1="9" y2="9" transform="translate(1193.5 337.5)" fill="none" stroke="#a50a38" stroke-width="1"/>
      <line id="Line_4" data-name="Line 4" x1="9" y2="9" transform="translate(1200.5 337.5)" fill="none" stroke="#a50a38" stroke-width="1"/>
    </g>
    <g id="Group_31-2" data-name="Group 31" transform="translate(-1165.146 -337.146)">
      <line id="Line_2-2" data-name="Line 2" x1="9" y2="9" transform="translate(1186.5 337.5)" fill="none" stroke="#a50a38" stroke-width="1"/>
      <line id="Line_3-2" data-name="Line 3" x1="9" y2="9" transform="translate(1193.5 337.5)" fill="none" stroke="#a50a38" stroke-width="1"/>
      <line id="Line_4-2" data-name="Line 4" x1="9" y2="9" transform="translate(1200.5 337.5)" fill="none" stroke="#a50a38" stroke-width="1"/>
    </g>
    <g id="Group_31-3" data-name="Group 31" transform="translate(-1144.146 -337.146)">
      <line id="Line_2-3" data-name="Line 2" x1="9" y2="9" transform="translate(1186.5 337.5)" fill="none" stroke="#a50a38" stroke-width="1"/>
      <line id="Line_3-3" data-name="Line 3" x1="9" y2="9" transform="translate(1193.5 337.5)" fill="none" stroke="#a50a38" stroke-width="1"/>
      <line id="Line_4-3" data-name="Line 4" x1="9" y2="9" transform="translate(1200.5 337.5)" fill="none" stroke="#a50a38" stroke-width="1"/>
    </g>
    <g id="Group_31-4" data-name="Group 31" transform="translate(-1123.146 -337.146)">
      <line id="Line_2-4" data-name="Line 2" x1="9" y2="9" transform="translate(1186.5 337.5)" fill="none" stroke="#a50a38" stroke-width="1"/>
      <line id="Line_3-4" data-name="Line 3" x1="9" y2="9" transform="translate(1193.5 337.5)" fill="none" stroke="#a50a38" stroke-width="1"/>
      <line id="Line_4-4" data-name="Line 4" x1="9" y2="9" transform="translate(1200.5 337.5)" fill="none" stroke="#a50a38" stroke-width="1"/>
    </g>
    <g id="Group_31-5" data-name="Group 31" transform="translate(-1102.146 -337.146)">
      <line id="Line_2-5" data-name="Line 2" x1="9" y2="9" transform="translate(1186.5 337.5)" fill="none" stroke="#a50a38" stroke-width="1"/>
      <line id="Line_3-5" data-name="Line 3" x1="9" y2="9" transform="translate(1193.5 337.5)" fill="none" stroke="#a50a38" stroke-width="1"/>
      <line id="Line_4-5" data-name="Line 4" x1="9" y2="9" transform="translate(1200.5 337.5)" fill="none" stroke="#a50a38" stroke-width="1"/>
    </g>
    <g id="Group_31-6" data-name="Group 31" transform="translate(-1081.146 -337.146)">
      <line id="Line_2-6" data-name="Line 2" x1="9" y2="9" transform="translate(1186.5 337.5)" fill="none" stroke="#a50a38" stroke-width="1"/>
      <line id="Line_3-6" data-name="Line 3" x1="9" y2="9" transform="translate(1193.5 337.5)" fill="none" stroke="#a50a38" stroke-width="1"/>
      <line id="Line_4-6" data-name="Line 4" x1="9" y2="9" transform="translate(1200.5 337.5)" fill="none" stroke="#a50a38" stroke-width="1"/>
    </g>
    <g id="Group_31-7" data-name="Group 31" transform="translate(-1060.146 -337.146)">
      <line id="Line_2-7" data-name="Line 2" x1="9" y2="9" transform="translate(1186.5 337.5)" fill="none" stroke="#a50a38" stroke-width="1"/>
      <line id="Line_3-7" data-name="Line 3" x1="9" y2="9" transform="translate(1193.5 337.5)" fill="none" stroke="#a50a38" stroke-width="1"/>
      <line id="Line_4-7" data-name="Line 4" x1="9" y2="9" transform="translate(1200.5 337.5)" fill="none" stroke="#a50a38" stroke-width="1"/>
    </g>
    <g id="Group_31-8" data-name="Group 31" transform="translate(-1039.146 -337.146)">
      <line id="Line_2-8" data-name="Line 2" x1="9" y2="9" transform="translate(1186.5 337.5)" fill="none" stroke="#a50a38" stroke-width="1"/>
      <line id="Line_3-8" data-name="Line 3" x1="9" y2="9" transform="translate(1193.5 337.5)" fill="none" stroke="#a50a38" stroke-width="1"/>
      <line id="Line_4-8" data-name="Line 4" x1="9" y2="9" transform="translate(1200.5 337.5)" fill="none" stroke="#a50a38" stroke-width="1"/>
    </g>
    <g id="Group_31-9" data-name="Group 31" transform="translate(-1018.146 -337.146)">
      <line id="Line_2-9" data-name="Line 2" x1="9" y2="9" transform="translate(1186.5 337.5)" fill="none" stroke="#a50a38" stroke-width="1"/>
      <line id="Line_3-9" data-name="Line 3" x1="9" y2="9" transform="translate(1193.5 337.5)" fill="none" stroke="#a50a38" stroke-width="1"/>
      <line id="Line_4-9" data-name="Line 4" x1="9" y2="9" transform="translate(1200.5 337.5)" fill="none" stroke="#a50a38" stroke-width="1"/>
    </g>
    <g id="Group_31-10" data-name="Group 31" transform="translate(-997.146 -337.146)">
      <line id="Line_2-10" data-name="Line 2" x1="9" y2="9" transform="translate(1186.5 337.5)" fill="none" stroke="#a50a38" stroke-width="1"/>
      <line id="Line_3-10" data-name="Line 3" x1="9" y2="9" transform="translate(1193.5 337.5)" fill="none" stroke="#a50a38" stroke-width="1"/>
      <line id="Line_4-10" data-name="Line 4" x1="9" y2="9" transform="translate(1200.5 337.5)" fill="none" stroke="#a50a38" stroke-width="1"/>
    </g>
    <g id="Group_31-11" data-name="Group 31" transform="translate(-976.146 -337.146)">
      <line id="Line_2-11" data-name="Line 2" x1="9" y2="9" transform="translate(1186.5 337.5)" fill="none" stroke="#a50a38" stroke-width="1"/>
      <line id="Line_3-11" data-name="Line 3" x1="9" y2="9" transform="translate(1193.5 337.5)" fill="none" stroke="#a50a38" stroke-width="1"/>
      <line id="Line_4-11" data-name="Line 4" x1="9" y2="9" transform="translate(1200.5 337.5)" fill="none" stroke="#a50a38" stroke-width="1"/>
    </g>
    <g id="Group_31-12" data-name="Group 31" transform="translate(-955.146 -337.146)">
      <line id="Line_2-12" data-name="Line 2" x1="9" y2="9" transform="translate(1186.5 337.5)" fill="none" stroke="#a50a38" stroke-width="1"/>
      <line id="Line_3-12" data-name="Line 3" x1="9" y2="9" transform="translate(1193.5 337.5)" fill="none" stroke="#a50a38" stroke-width="1"/>
      <line id="Line_4-12" data-name="Line 4" x1="9" y2="9" transform="translate(1200.5 337.5)" fill="none" stroke="#a50a38" stroke-width="1"/>
    </g>
    <g id="Group_31-13" data-name="Group 31" transform="translate(-934.146 -337.146)">
      <line id="Line_2-13" data-name="Line 2" x1="9" y2="9" transform="translate(1186.5 337.5)" fill="none" stroke="#a50a38" stroke-width="1"/>
      <line id="Line_3-13" data-name="Line 3" x1="9" y2="9" transform="translate(1193.5 337.5)" fill="none" stroke="#a50a38" stroke-width="1"/>
      <line id="Line_4-13" data-name="Line 4" x1="9" y2="9" transform="translate(1200.5 337.5)" fill="none" stroke="#a50a38" stroke-width="1"/>
    </g>
    <g id="Group_31-14" data-name="Group 31" transform="translate(-913.146 -337.146)">
      <line id="Line_2-14" data-name="Line 2" x1="9" y2="9" transform="translate(1186.5 337.5)" fill="none" stroke="#a50a38" stroke-width="1"/>
      <line id="Line_3-14" data-name="Line 3" x1="9" y2="9" transform="translate(1193.5 337.5)" fill="none" stroke="#a50a38" stroke-width="1"/>
      <line id="Line_4-14" data-name="Line 4" x1="9" y2="9" transform="translate(1200.5 337.5)" fill="none" stroke="#a50a38" stroke-width="1"/>
    </g>
    <g id="Group_31-15" data-name="Group 31" transform="translate(-892.146 -337.146)">
      <line id="Line_2-15" data-name="Line 2" x1="9" y2="9" transform="translate(1186.5 337.5)" fill="none" stroke="#a50a38" stroke-width="1"/>
      <line id="Line_3-15" data-name="Line 3" x1="9" y2="9" transform="translate(1193.5 337.5)" fill="none" stroke="#a50a38" stroke-width="1"/>
      <line id="Line_4-15" data-name="Line 4" x1="9" y2="9" transform="translate(1200.5 337.5)" fill="none" stroke="#a50a38" stroke-width="1"/>
    </g>
  </g>
</svg>
