<svg xmlns="http://www.w3.org/2000/svg" width="236.86" height="112.996" viewBox="0 0 236.86 112.996">
  <g id="Group_472" data-name="Group 472" transform="translate(-842.013 -386)">
    <g id="Group_470" data-name="Group 470" transform="translate(842.013 390.308)">
      <g id="Group_425" data-name="Group 425" transform="translate(0 0)">
        <g id="Group_424" data-name="Group 424">
          <g id="Group_423" data-name="Group 423">
            <path id="Path_1625" data-name="Path 1625" d="M895.739,475.4c.053.474.374.444.584-.531-.055-.474-.055-.474-.374-.444A1.973,1.973,0,0,0,895.739,475.4Zm-2.1-16.072.592-.053c-.053-.474-.053-.474-.349-.446C893.287,458.882,893.287,458.882,893.636,459.328Zm-5.092,3.325a2.05,2.05,0,0,0,.384.923c.3-.028.258-.5.258-.5s-.04-.474-.341-.446Zm-10.25.083c.018.476.035.953.018.476l-.035-.953Zm-28.15,4.636c-.045.474.263.507.878.569.308.03.657-.411.657-.411.043-.476-.263-.507-.569-.539C850.542,466.454,850.192,466.9,850.144,467.371Zm-17.03-7.8.211.522.3.053c.085-.469.085-.469-.211-.522Zm-7.169,9.214.308.068c.308.068.406-.4.5-.865l-.308-.068A2.031,2.031,0,0,0,825.946,468.785Zm219.156-99.4c-.4-.261-.8-.522-.629-.772-.464-1.015.336-.5.8.519C1045.9,369.9,1045.9,369.9,1045.1,369.383Zm-27,32.151c.213-.213.213-.213.554.123s.461.883.246,1.1S1018.016,402.3,1018.1,401.534Zm-5.734,9.385-.321-.354c-.1-.559-.2-1.116.125-.765a1.93,1.93,0,0,1,.419.91S1012.69,411.27,1012.37,410.919Zm-9.937,7.161.238-.188c.238-.19.542.178.542.178s.3.371.06.559A2.068,2.068,0,0,1,1002.433,418.08Zm-1.8,2.638.241-.19c.238-.188.238-.188.534.185l-.238.188Zm-2.417,1.868.246-.181c.248-.18.248-.18.539.2l-.248.18Zm-1.727,1.264c-.037-.562.208-.74.494-.361s.288.381.04.562C996.533,424.411,996.533,424.411,996.493,423.849Zm-3.661-.862-.038-.562.243-.178c.281.384.564.767.321.945Zm-2.665,2.492c-.276-.391-.025-.559-.025-.559.251-.168.251-.168.526.221,0,0,.276.389.025.557Zm-20.066,16.1a2.04,2.04,0,0,1-.181-.98l.271-.138c.228.419.454.837.183.978Zm-11.188,4.974c.552-.261.552-.261.755.17s-.353.695-.632.825A.589.589,0,0,1,958.914,446.551ZM938.9,454.9l.135-.547.291-.1c.156.451.311.9.018,1Zm-4.5-1.018a2.14,2.14,0,0,1-.005-1l.286-.093c.148.454.293.908.007,1Zm-3.972,3.638c.293-.085.293-.085.429.371a2.044,2.044,0,0,1-.025,1C930.543,458.977,930.571,457.976,930.435,457.52Zm-7.146,2.888.181-.536.3-.073c.118.461.235.923-.063,1Zm-19.69,2.954.226-.522.3-.05c.075.469.15.94-.153.99Zm-2.187-.188c-.07-.471.231-.512.675.394.07.471.07.471-.233.509A2.072,2.072,0,0,1,901.413,463.174Zm-4.962,2.076c-.361-.434-.361-.434.246-.511.3-.04.361.434.361.434C897.118,465.646,896.755,465.212,896.452,465.25Zm-5.794.562c-.045-.474.261-.5.261-.5.3-.028.607-.055.654.419,0,0,.045.476-.261.5S890.657,465.812,890.657,465.812Zm-5.323-1.5.3-.015c.3-.015.3-.015.336.461l-.3.015Zm-2.675,1.093c-.028-.476-.053-.953.251-.968.273-.491.607-.033.359.935Zm-2.329,2.5c-.308.015.286-.491.594-.506l.022.474C880.638,467.89,880.352,468.382,880.329,467.905Zm-6.178-.827a2.078,2.078,0,0,1,.291-.955l.306-.005c.01.476.018.953-.288.958Zm-2.161-2.831c.6-.484.6-.484.306.474l-.6.96C871.388,465.686,871.692,465.2,871.99,464.247Zm-7.662,3.184.639-.938c.649-1.414.647-1.414.624-.461a1.519,1.519,0,0,1-.65,1.414Zm-.84-2.4c.017-.476.318-.469.622-.461l-.015.476-.318.469Zm-15.134,1.682a1.165,1.165,0,0,1,1.015-.852c.3.03.258.5-.4.915Zm-16.746-4.022c-.123-.993-.123-.99.476-.883.3.053.6.108.511.577l-.3-.055c.088-.469-.3-.055-.088.469l-.176.938C831.73,463.678,831.517,463.154,831.607,462.688Zm-3.485-1.229c.1-.466.394-.4.69-.333s.3.065.2.532c0,0-.391.4-.69.336Zm-4.972-.13.191.532c-.323,1.391.281,1.527.6.133s.318-1.394.4-.4c-.211.93.088,1,.389,1.063s.3.068.2.532.1,1,.4,1.066.3.068.4-.4c-.2-.531.4-.4.5.6.2.534.2.534.4-.4s.8-.8.905.2l.6.135c.3.065.4-.4.491-.868.191-.933.191-.933.4-.4a2,2,0,0,1,.11,1c-.093.466.208.534.509.6s.905.2,1-.276,0,0-.09.466c.3.055.213.524.3.055,0,0,.3.055.822.634s1.607-.193.868-1.3l.3.055c.3.055.389-.414.389-.414.083-.469.384-.414.687-.361l-.168.94c-.557,1.351-.027,1.931.522.579.083-.471,0,0-.08.469s.223.524.91.165c.306.055.767-.83.845-1.3s.379-.414.379-.414c.3.055.3.055.226.524-.155.94.451,1.051.905.166l-.075.469c-.075.459.151,1.026,1.748.772,1.221.173,2.136.3,2.071.775s1.291-.3,2.021-1.158h0c-.06.471.243.514.852.6.915.128.915.128.855.6-.421.9-.419.9.306.043.419-.9,1.274-.3,1.168.647-.055.476.253.5.87.569.359-.444.973-.381,1.59-.318.92.1.92.1,1.015-.852s.4-.918,1.008-.855c.3.03.609.06.567.537,0,0,.261.5.567.537s.614.063.574.537a1.173,1.173,0,0,0,.88.569c.617.06,1.231.128,1.2.6.308.02.308.02.344-.456s.376-.93,1.574-.379c.617.04,1.54.1,1.569-.379.306.02.306.02.278.5-.055.95.567.99,1.231.078.025-.476.334-.456.617.038,0,0,.308.02.639-.436s.326-.456.92.058c-.02.476.288.5.6.516.634-.431,4.019-.371,4.32.12h0c.316-.469.316-.469.624-.461.293.96.609.491.622-.461l-.308-.008-.306-.008c.015-.953.93-.93.915.5.3.96.3.96.617.015s.619-.938.923.025c0,.95,0,.95.308.005.622-1.878,1.529-2.364,1.539-.464,0,.953.313,1.427.624,1.422s.306-.481.3-.958c-.313-.948-.01-.953.617-.007.94,1.417,1.572,1.409,2.475.444,1.211-.97,2.131-.983,1.236-.018-.592.96-.594.963.013.476.619-.008,1.239-.018,1.549-.02s.6-.484.582-.96h0c.344.945.988,1.381,1.562.4l.617-.03c.308-.018.308-.018.592-.509s.614-.03.95.429.672.92.644.444.562-.983.838-1.474.614-.033.339.459c.03.476.03.476.679.92.311-.018.93-.048.9-.524s1.813-.574,2.156-.148l.617-.055c.308-.028.574-.529.88-.557,0,0,.308-.028.572-.529.306-.028.612-.055.657.419h0c.218-.975.216-.975.614-.055.093.948.1.948.308-.028.261-.5.258-.5.614-.055.048.474.356.446.308-.028.208-.975,1.071-1.532,1.176-.584,0,0,.308-.028.559-.529.2-.973.2-.973.306-.028.416.923.725.89.918-.1,0,0,.248-.511.609-.078.664.4,2.562.632,2.131-.273l.609-.08c.674.4.98.356,1.218-.155l.238-.511c.068.474.439.905.745.865s.306-.038.236-.509c-.371-.434-.068-.471.235-.512s.679.394.75.865l.306-.04c-.143-.943.16-.98.233-.509a.892.892,0,0,0,.985.331c-.075-.471.3-.053,0,0l.075.469c.379.421.3-.05.228-.522l.607-.1c.306-.053.609-.1.228-.521-.078-.471-.153-.94.148-.99-.078-.471.3-.05,0,0,.078.469.155.94.459.887s.381.421.381.421c-.148.99.993.316,1.216-.2.442-1.043.742-1.091.91-.153s.612-.1.655-1.56l.043-1.457.258,1.407c.649,1.823.654,1.823,1.386.735.516-.569.516-.569.607-.1s.394.416,1.3.226,1.206-.251,1.111-.717l.6-.125c.5.87,1,.281.5-.589h0l.6-.125.1.466c.1.466.7.341,3.119-.16,2.708-.594,3-.72,2.773-1.63.07-1,.366-1.071.594-.145.115.461.529.85.414.386a1.2,1.2,0,0,1,1.013.241c1.136.7,1.319.166,1.2-.3-.537-.847-.12-.461.3-.075s.842.775.719.313c.181-.537,1.848-1.434,2.1-.524l.594-.17c-.128-.459.464-.632,1.058-.8s.888-.256,1.021.2c-.165.544.133.459.594-.171.3-.088.324-1.086.619-1.171-.138-.459.02-1,.316-1.083l.138.456.273.91c.3-.085.594-.171.453-.627h0c.436.371.732.286,1.324.113s1.191-.333,1.334-.89h0a1.417,1.417,0,0,0,2.337-.775c-.148-.454.141-.549.584-.2s.446.356.584-.193.584-.193,1.033.161c.6.8.9.7,1.036.158a2.328,2.328,0,0,1,1.306-.938c.426-.642.717-.74.263-1.091a2.04,2.04,0,0,1-.033-1c.409-.664.572-.216.286-.108-.411.662-.125.557.326.9a1.361,1.361,0,0,0,1.314.015l1.154-.434c1.033.12,1.324.01,1.153-.434-.341-.89-.344-.89-.171-.446.627.782,3.811-.416,3.738-1.407l.181.441c.181.446.464.326,1.033.085a17.612,17.612,0,0,1,2.089-1.4c1.136-.479,1.988-.84,1.8-1.276.283-.12.283-.12.476.316-.093.557.19.436.476.316s.09-.554-.1-.99.088-.554.85-.359a2.211,2.211,0,0,0,2.239-1.016c.278-.13.557-.261.759.171.479.3,1.246.469,1.394-.654.278-.13.278-.13.484.3.486.3.694.727.559-.263a1.814,1.814,0,0,1,1.958-.918c.281-.133.562-.263.349-.689s-.426-.855-.213-.426c.7.722.7.72.557-.263-.211-.424.063-.562.276-.138.486.286.762.143.762.143a21.082,21.082,0,0,1,2.788-1.983c2.186-1.131,3.006-1.557,2.778-1.976.042-.559.042-.557.544-.281a.9.9,0,0,0,1.033-.04c.268-.153.534-.3.767.11h0c.035-.567.035-.567.3-.72.233.416.5.263.534-.3-.2-.98-.205-.98.268-.153.236.414,1.279.371.772.11-.238-.414.3-.72.326-1.284.268-.151.534-.3.775.11.509.258,1.607-.915,1.63-1.474-.246-.409.023-.562.266-.153s.517.261.778.1c.015-.569.263-.16.509.246-.015.572.248.409.772.083.015-.572,1.063-1.221,1.85-1.71a2.294,2.294,0,0,0,1.326-2.5l-.256-.963.517.8a6.866,6.866,0,0,0,1.036,1.038c.263-.163.005-.564-.256-.963s0-.562.785-.486,1.031-.113,1.026-.677a.9.9,0,0,1,1.028-.12c.256-.173.256-.173-.01-.569s-.012-.567.509-.344c.79.619,1.56.1,1.289-.293s-.015-.567.241-.737a.9.9,0,0,0,.494-.908l.506-.344c.256-.173.273.391.02.562l.527.218c.511-.344.767-.517.747-1.078-.3-.95-.3-.948.256-.17.273.386.81.607.782.038-.306-.958.221-.75.5-.364.306.958.308.955.745-.547.5-.364,1.211-1.477,1.953-2.021.993-.727,1.489-1.088,2.029-.893.577.76.825.577.288.379-.577-.757-.331-.938.416-1.484a1.3,1.3,0,0,0,1.161-1.512c.238-.188-.055-.564,0,0l-.481.384c-.587-.752-.349-.943.426-.948.241-.191.534.183.83.559s.832.557,1.076.363.484-.384-.055-.564c-.3-.374-.3-.374-.055-.564a.906.906,0,0,0,.424-.945c-.3-.371-.058-.562.183-.752a1.187,1.187,0,0,0,1.021-.2c-.3-.368,0,0,.3.369a2.083,2.083,0,0,0,.843.547c.243-.193-.058-.559-.058-.559-.248-.306,5.351-5.122,6.053-5.724.785-.043,1.489-.647.935-.8-.3-.341.818-1.387,2.174-2.638,1.58-1.462,2.708-2.5,2.377-2.848l.677-.624c.459-.409.547-1.2.765-1.407-.118-.557.1-.772.218-.218.333.341.667.68.885.464.436-.436.1-.772-.236-1.111s-.12-.554-.12-.554c.216-.216.216-.216.554.12l.672.674.218-.216c-.336-.339-.12-.554-.12-.554.218-.216.218-.216.9.454s.9.451.437-.434l.1-.77c.9.449.654-.652.529-1.2h0c.9.446,1.121.228.652-.649-.343-.331-.128-.547.434-.434s.775-.11,1.193-.562c-.138-.552,1.322-2.126,2.994-3.924,1.905-2,3.059-3.443,2.708-3.743.2-.231.2-.231.759-.153.361.308.564.075.038-.775-.163-.542-.527-.85.2-.233.364.308.762-.158,1.562-1.088.6-.7,1.4-1.632,1.033-1.933.03-.765.025-.77.2-.233.549.85,1.88-.06,1.707-1.379.191-.241.384-.481.755-.183a2.84,2.84,0,0,0,.582-1.5c.193-.241.955-1.2,1.339-1.685a2.329,2.329,0,0,0,.383-1.249l.191-.241c.4.3,1.291-.948,2.565-2.68s2.359-3.222,2.933-3.2c0,0,.188-.246-.033-.772-.612-.8-.444-1.048.12-1.033a.95.95,0,0,0,1.028-1.527l.4.266c.963.276,1.083-.76.459-1.537h0c.569.008,1.141.013.912-.5.173-.256.173-.256.97.266.4.261.8.522.973.263s-.228-.516-.627-.775l.343-.514s.173-.256-.228-.511-.228-.514-.058-.77c.4.256.173-.253-.4-.256-.4-.256-.8-.512-.634-.765l-.8-.511c-.8-.511-1.209-.765-1.946-.522-1.076.742-1.976,1.226-1.179,1.748,0,0,.231.512.063.762s-.734.236-.734.236c-.4-.261-1.068.735-1.906,1.978-.988,1.507-1.565,2.2-2.121,2.179s-.742.208-.742.208c.389.276-.674,1.725-1.913,3.417-1.206,1.712-2.562,3.315-2.171,3.618l-.374.469c-.379-.291-.75.178-1.124.647a2.1,2.1,0,0,1-.371,1.234c-.374-.3-.559-.063-.93.406s-.559.7-.188,1a8.5,8.5,0,0,1-2.495,2.219c-.562-.078-.389.454-.221.988.364.306.531.842.336,1.071l-.727-.617c-.168-.534-.168-.534-.559-.08l-.391.454c.356.3-.6,1.462-2,3.026-1.84,1.978-2.449,2.638-2.1,2.961s.145.544-.818.88c-2.271.346-2.264.339-2.124.888.2-.218.549.108.9.436.692.652.486.875-.409.439-.679-.642-3.525,2.846-3.064,3.738l-.339-.336c-.336-.336-.549-.123-1.4.722l-.637.637c.679.69-.953,1.6-1.294,1.249-.552-.14-.552-.14-.99.266,0,1.3-1.434,1.973-1.758,1.622l-.441.406a1.324,1.324,0,0,1-.554,1.163c-.662.609-.882.812-.341.963.321.351.642.7.421.908l-.321-.353c-.321-.351-.973.271-1.9,1.041-1.143.975-1.6,1.366-2.141,1.2l.085.554c.085.554-.146.75-.456.389-.539-.163-1.449.614-1.6,1.369l-.456.391c-.835-.527-1.524.038-1.158.953h0c-.3-.369-.539-.183-.775.005-.166.74-1.111,1.484-1.409,1.116l-.236.186a.867.867,0,0,1-.406.928.881.881,0,0,0-.409.933c.06.562-.178.75-.178.75-.236.185-.293-.376-.354-.935.173-.745-.529-.191-.649,1.121s-.123,1.314-.236.186c-.058-.562-.115-1.123-.293-.376,0,0-.469.374-.178.75l-.722.542a1.674,1.674,0,0,0-1.259.331c.045.557.045.559-.484.356-.288-.381-.529-.206.043.557.045.559-.2.737-.727.534-.569-.765-.812-.589-.526-.206.04.559-.2.737-.2.737-.3-.411-2.417,1.274-4.683,2.745-.248.166-.223.725.047,1.118.544.782.271.391-.251.168-1.063-1.008-1.557-.674-.5.336.793.617.79.617-.248.168-.521-.223-.519-.223-.5.339.268.394.02.562-.248.168-.519-.226-1.033-.454-.767-.058,0,0-.248.168-.765-.06s-.5.336-.481.9c-.22,1.3-.471,1.469-.747.5-.268-.95-1.266.251-1.011,1.2s.261.958,0,.557-.514-.241-.514-.241c-.256.158-.512.318-.77-.083,0,0-.253.158-.511.875,0,1.123-1.028,1.2-1.785.549l-.261.722c.246.968.238,1.534-.261.722-.251-.406-.5-.81-.251-.406.243.973-1.033,1.2-1.524.386-.248-.409-.246-.4-.5-.253l.246.409c.245.409.491.817.231.965s-.526.3-.77-.11c-.506-.261-1.01-.524-.767-.113,0,0-.261.148-.765-.115l-1.041.592c-.022.562-.544.857-.782.444a1.136,1.136,0,0,0-.544.857c-.522.3-.785.446-1.018.03s-.233-.414-.261.148c.236.416-.028.564-.288.712l-.522.3c.231.416.231.416-.03.564s-1.3.135-1.562.273c-.8.414-.8.416-.306.7.266-.138.491.281-.268.138a11.3,11.3,0,0,0-2.091.547c-1.066.552-1.066.552-.847.975.707.707.439.845-.266.138-.968-.572-1.234-.436-1.018-.01-.05.562-.05.562-.316.7-.218-.431-.474-.273-.807.4-.273.125-.273.125-.486-.3l-.541.256c-.123,1.108-1.968,1.449-2.445,1.146,0,0-.271.128-.339.685.138.99-.138,1.118-.544.256s-.4-.863-.271.128c-.07.559-1.434,1.2-1.559.206l-.4-.865c-.07.559-.341.687-.341.687.2.431-.07.569-.9.913-.552.233-1.464,1.133-2.018,1.369s-1.384.584-1.848.261a1.644,1.644,0,0,0-.92.905c-.093.557-.647.792-.83.351l-.276.118c-.369.68-.657.777-.657.777-.178-.441-.637-.777-.74-.231.178.444-.105.549-.667.76-.371-.115-2.876.7-5.263,1.6-2.4.85-4.731,1.707-4.651,1.946l-.858.283-.855.283c-.3-.915-1.562.043-2.292.735a.861.861,0,0,1-.727.7c-.281-.91-1.146-.659-1.585-.038-.015,1-.306,1.081-.579.168s-.842-.75-1.021.79c-.155.542-.158.542-.579.168-.554-.832-.84-.75-.71-.291-.027,1-.321,1.086-.868.251-.835-.752-.83-.752-.865.251a.927.927,0,0,1-1.753.436c-.291.073-.7-.316-.582.145l-.413-.389-.582.143.118.461a26.568,26.568,0,0,0-4.195.547c-3.222.712-3.816.8-3.417,1.216.5.87-.093.993-.589.123-.3.06-.983-.286-1.57-.163s-1.173.243-1.269-.226l-.293.063c-.391,1.076-2.172,1.394-3.149,1.061a1.871,1.871,0,0,0-1.394.717c-.511.567-.511.567-.89.148-.083-.469-1.931-.644-1.778.3l-.374-.419c-.371-.421-.589.1-.514.569.151.94-.15.99-.667-.371-.148-.943-.442-.893-.369-.421-.223.509-.451,1.018-.82.584-.3.038-.594.075-.454,1.018.068.471-.23.511-.531.549a1.191,1.191,0,0,1,.163-.98c.3-.04,0,0-.6.075a1.16,1.16,0,0,1-1.023-.83c-.364-.434-.659-.4-.233.509.13.945.13.945-.467,1.021-.3.04-.6.078-.659-.394s-.063-.474-.657-.4c-.89.115-1.61,1.65-1.8,2.635.113.945.11.945-.3.038-.055-.469-.356-.436-.657-.411.053.471-.3.025,0,0-.055-.476.248-.494.547-.534l-.055-.474c-.409-.905-.707-.89-.9.088-.246.5-.246.5-.6.053s-.7-.9-.649-.421a1.149,1.149,0,0,1-.945-.394c-.6.053-.9.08-.85.554s-.253.5-.552.529-.6.053-.557.529a.89.89,0,0,1-.817,1.028c-.562.529-.564.529-.945-.394-.04-.474-.338-.446-.639-.419,0,0-.3.025-.637-.421s-.3.015-.266.491l.073.95c-.3.015-.674-.92-.71-1.394-.369-.935-.369-.935-.3.015.035.474-.233.965-.868.522-.6.03-1.206.06-1.236-.414-.328-.461-.6.03-.6.03-.273.491-.577.506-1.5.078-1.549-.875-1.542-.875-1.5.078.023.476.043.95-.3.015-.321-.466-.6.045-1.183.524a4.182,4.182,0,0,0-.233,1.908c.035.95.035.95-.592.484-.306,0-.624-.469-.639-.945s.288-.479.288-.479l.3-.005c-.015-.476-.033-.953-.634-.945-.316-.471-.614-.469-.6.007h0c-.316-.471-.915-.464-1.517-.456s-1.5.02-1.81-.451c-.6.008-.9.013-.9.489.008.953-.3.955-.3.479-.311-.9-4.192-1.5-4.508-.552l-.6-.015c-.592-.492-2.387-.537-2.7-.068l-.9-.023c-.584-.494-.88-.526-1.2-.065s-.341.933-.319.456-.579-.514-1.777-.589-1.2-.078-.928.416h0c-1.229.4-1.2-.075-1.171-.552.356-.93-.238-.968-.63.439-.363.933-.968.9-.935.419s.333-.456.634-.439l.063-.95c-.3-.018-.3-.018-.632.439h0s-.3-.02-.632.436a1.24,1.24,0,0,0-.1,1.427c.268.494-.035.476-.339.456a.957.957,0,0,1-.2-1.444c.3.017.336-.456.371-.933.035-.456-1.53.341-1.911,1.259-.04.474-.04.474.04-.476.038-.474-.562-.537-1.158-.6s-.9-.093-.943.381-.088.95-.388.92h0c.3.03.258.5.213.978a4.8,4.8,0,0,1-.818-1.04,2.546,2.546,0,0,0-2.254-1.667c-.6-.055-1.5-.153-1.738-.68-.592-.085-.89-.125-.948.346l-.594-.085c-.241-.514-.833-.6-.9-.125-.359.431-.594-.085-.893-.125-.466-1.03-.466-1.03-.361.429a1.158,1.158,0,0,0,.772,1.071l.9.128-.96.346a1.144,1.144,0,0,0-1.03.817s-.063.471-.366.429l.13-.945a2.434,2.434,0,0,0,.494-1.374c-.173-.985-1-1.585-1.131-.639-.3-.043-.3-.043-.529-.557.068-.471-.226-.514-.665.386s-.74.86-.893-.125c-.456-1.015-1.627-1.254-1.705-.777-.153.943-1.046.78-1.261.256s-.514-.577-.89-.16h0c.08-.471-.133-.993-.511-.579,0,0-.3-.053-.08.471l-.76.83h0c.3.055.216.524.133.993s-1.2-.218-1.534-1.733l-.416-1.043-.178.935c-.3-.053-.594-.105-.5-.574s.09-.469-.206-.522c0,0-.3-.053-.386.414-.18.935-.183.935-.386.4-.11-1-.4-1.068-.883-.2-.188.935-.188.933-.293-.065.093-.469-.105-1-.4-1.066l-.1.466c-.191.933-.486.867-.684.336.1-.466-.2-.532-.882-.2-.589-.133-.885-.2-.782-.662.2-.933.2-.933-.293-.068-.4.4-.4.4-.883-.2-.188-.529-.188-.529-.587-.13-.211.93-.316,1.394-.02,1.459s.3.068.191.531l-.592-.133a1.684,1.684,0,0,0-1.294.2C822.664,460.734,822.443,461.662,823.15,461.329Z" transform="translate(-822.717 -367.011)" fill="#ffceb2"/>
          </g>
        </g>
      </g>
    </g>
    <g id="Group_471" data-name="Group 471" transform="translate(1015.114 386)">
      <g id="Group_429" data-name="Group 429">
        <g id="Group_428" data-name="Group 428">
          <g id="Group_427" data-name="Group 427">
            <path id="Path_1626" data-name="Path 1626" d="M918.227,381.97c0,.476.11.479.223-.471,0-.476,0-.476-.11-.479A4.707,4.707,0,0,0,918.227,381.97Zm-.1-16.2.226.008c0-.476,0-.476-.113-.479C918.018,365.286,918.018,365.286,918.129,365.765Zm-2.016,2.8a4.665,4.665,0,0,0,.11.955c.11,0,.113-.474.113-.474s0-.476-.113-.479Zm-3.808-.594v.476l0-.953Zm-10.3,5.4c0,.476.11.479.336.486.11,0,.223-.469.223-.469,0-.479-.11-.481-.223-.484C902.112,372.417,902,372.891,902,373.368Zm-6.6-5.446.113.479.11,0c0-.476,0-.476-.11-.479Zm-1.913,10.423.113,0c.11.005.113-.474.113-.948l-.113-.005A4.708,4.708,0,0,0,893.485,378.344Zm59.559,37.823c.471-.07.943-.143.955-.033.97.078.028.223-.943.145C952.1,416.313,952.1,416.313,953.043,416.167Zm-1.424-15.525c.013.11.013.11-.456.183s-.958.033-.97-.078A2.184,2.184,0,0,1,951.619,400.642Zm-3.3-3.46.469-.073c.486.04.97.08.5.15a4.727,4.727,0,0,1-.955.035S947.846,397.255,948.317,397.182Zm.4-4.591.012.11c.015.113-.456.183-.456.183s-.471.073-.486-.038A4.9,4.9,0,0,1,948.713,392.591Zm-1.078-.968.012.11c.013.113.013.113-.456.183l-.015-.11Zm-.138-1.111.015.11c.013.11.013.11-.459.183l-.012-.11Zm-.1-.78c.484.04.5.15.028.223s-.471.07-.484-.04C946.918,389.693,946.918,389.693,947.4,389.733Zm2.718-1.321.484.038.012.113c-.469.07-.94.143-.955.032Zm-.634-1.264c.469-.073.484.04.484.04.013.11.013.11-.459.183,0,0-.469.073-.484-.04Zm-4.523-9.35a3.419,3.419,0,0,1,.92-.263l.02.15c-.454.191-.905.384-.923.248Zm-.3-5.98c.038.293.038.291-.376.732s-.449.173-.466.04C944.212,371.993,944.641,371.667,944.661,371.818Zm-9.741-.291.113-.471.11,0c0,.476,0,.953-.113.95Zm-1.454-2.427a4.708,4.708,0,0,1,.113-.95l.113,0c0,.477,0,.953-.113.948Zm-1.793,2.327c.11,0,.11,0,.11.481a4.667,4.667,0,0,1-.113.948C931.56,372.854,931.673,371.9,931.673,371.427Zm-2.8.868.113-.474.113,0c0,.476,0,.953-.113.95Zm-7.276-1.181.113-.471.11,0c0,.476,0,.953-.113.95Zm-.785-.5c0-.476.113-.474.223.484,0,.477,0,.477-.11.471A4.788,4.788,0,0,1,920.812,370.614Zm-1.9,1.369c-.113-.479-.113-.479.113-.471.11,0,.11.479.11.479C919.132,372.467,919.019,371.988,918.909,371.983Zm-2.129-.065c0-.476.113-.474.113-.474.113.005.223.008.223.484,0,0,0,.476-.113.474S916.78,371.918,916.78,371.918Zm-1.9-1.966.11.005c.113,0,.113,0,.113.479l-.113,0Zm-1.008.923c0-.477,0-.953.113-.95.11-.471.223.008.11.958Zm-.9,2.354c-.11,0,.113-.471.226-.469v.476C913.084,373.235,912.971,373.706,912.971,373.23Zm-2.237-1.023a4.657,4.657,0,0,1,.113-.948l.11,0c0,.476,0,.953-.113.95Zm-.782-2.881c.226-.471.226-.471.113.479l-.226.945C909.727,370.747,909.84,370.273,909.952,369.326Zm-2.8,3.247s.113-.474.226-.945c.226-1.422.226-1.422.226-.469a3.194,3.194,0,0,1-.226,1.422Zm-.333-2.392c0-.476.113-.474.226-.469v.477l-.113.471Zm-5.489,2.688c0-.476.226-.945.336-.943s.113.481-.113.95Zm-6.268-1.622c-.11-.958-.11-.958.113-.95.113,0,.223.007.223.484l-.113,0c0-.477-.11,0,0,.479v.953C895.169,372.2,895.059,371.723,895.059,371.246Zm-1.344-.519c0-.477.113-.471.226-.469s.11,0,.11.479c0,0-.113.474-.223.469Zm-1.792.9.113.479c0,1.429.223,1.437.223.008s0-1.429.113-.471c0,.953.11.955.223.958s.113,0,.11.481.113.955.223.96.113,0,.113-.474c-.11-.481.113-.474.223.484.113.479.113.479.113-.474s.226-.945.336.01l.223.008c.113,0,.113-.474.113-.95,0-.953,0-.953.113-.471a4.728,4.728,0,0,1,.113.955c0,.476.11.481.223.484s.336.01.336-.466v.476c.11,0,.11.481.11,0,0,0,.113,0,.336.489s.562-.459.226-1.424c-.113,0-.113,0,.113.005.11,0,.113-.474.113-.474,0-.477.11-.474.223-.469v.953c-.115,1.427.11,1.908.223.484v.476q0,.714.336.01a3.6,3.6,0,0,0,.223-1.424c0-.474.113-.471.113-.471.113,0,.113,0,.113.479,0,.953.223.96.336.013v.474c0,.476.11.958.669.5.449.012.785.023.785.5s.449-.464.672-1.409c0,.476.113.479.336.486.336.01.336.01.336.486-.113.95-.113.95.11,0,.113-.948.449-.461.449.492,0,.476.11.481.336.486.11-.471.336-.466.559-.459.336.01.336.01.336-.943s.113-.95.339-.943c.11,0,.223.008.223.484,0,0,.11.479.223.484s.223.008.223.484c0,0,.113.479.336.486s.449.013.446.489c.113.005.113.005.113-.471s.113-.95.562-.459c.223.005.559.018.559-.459.113,0,.113,0,.113.479,0,.953.223.96.446.015,0-.479.113-.474.226.005,0,0,.11,0,.223-.469s.113-.474.336.01c0,.477.11.482.223.484.226-.469,1.457-.431,1.567.048.113-.471.113-.471.226-.469.11.955.223.484.223-.469l-.11-.005-.113,0c0-.953.336-.943.336.486.11.958.11.958.223.008s.226-.945.336.01c0,.953,0,.953.113.005.226-1.9.562-2.367.559-.461,0,.955.11,1.434.223,1.437s.113-.471.113-.948c-.11-.958,0-.955.223,0,.336,1.442.559,1.447.9.5.449-.938.785-.928.449.015-.226.945-.226.945,0,.476l.559.018c.113,0,.226-.469.226-.945h0c.11.955.333,1.439.559.494l.223.005c.113.005.113.005.226-.469s.223.008.333.486.223.96.226.484a6.435,6.435,0,0,1,.336-1.419c.113-.474.223.008.113.481a1.51,1.51,0,0,0,.221.958c.113.005.336.01.339-.466s.672-.454.782.025l.226.008c.11,0,.223-.469.336-.466,0,0,.11,0,.223-.469.113,0,.223.008.223.484.113-.95.113-.95.226.005,0,.953,0,.953.11,0,.113-.474.113-.474.226.008,0,.474.11.479.11,0,.113-.95.449-1.417.449-.464,0,0,.113.005.226-.469.113-.95.113-.95.11,0q.169,1.433.336.01s.113-.474.223.005c.226.484.9.98.785.025l.223.008c.226.484.336.486.449.012l.113-.471c0,.476.11.955.223.96s.11,0,.113-.474c-.113-.479,0-.476.113-.474s.223.484.221.96l.113.005c0-.955.113-.95.113-.474.11.479.223.484.336.486,0-.476.11,0,0,0v.476c.11.479.11,0,.11-.474l.226.008c.11.005.223.007.113-.471,0-.476,0-.955.113-.95,0-.476.11,0,0,0,0,.476,0,.953.11.955s.11.481.11.481c-.113.948.336.486.449.013q.338-1.418.336.01c0,.953.223.008.336-1.419l.115-1.424,0,1.429c.11,1.908.11,1.908.446.965.226-.469.226-.469.226.007s.11.481.446.492.449.013.449-.464l.223.008c.113.955.336.486.226-.469l.223.008v.476c0,.476.223.481,1.118.509,1.008.033,1.121.035,1.121-.918.113-.948.226-.945.223.008,0,.476.113.955.113.479,0,0,.223.008.336.489.333.963.446.489.446.013-.11-.955,0-.477.113,0s.223.96.223.484c.113-.471.785-.928.785.025l.223.008c0-.477.226-.471.449-.464s.336.01.336.486c-.113.474,0,.479.223.007.113.005.226-.945.336-.943,0-.476.113-.948.226-.945v.476l0,.953c.113,0,.226.008.226-.469h0c.11.479.223.484.446.489s.449.015.562-.459c.11.958.782.978.9.028,0-.476.113-.471.223.008s.113.481.226.008.223.008.333.486c.115.958.2.96.331.486.241-.469.484-.461.6-.459.283-.469.419-.466.353-.945a4.084,4.084,0,0,1,.263-.95c.358-.469.283.008.14,0-.349.471-.2.474-.148.955s.288.486.411.489l.484.015c.233.486.329.489.484.013.3-.953.3-.953.148-.476-.145.958,1.03,1,1.64.045l-.231.476c-.231.476-.118.481.108.486.105,0,.833-.459,1.2-.449a1.136,1.136,0,0,0,1.171-.451c.123,0,.123,0-.228.479-.464.474-.349.479-.238.481s.474-.474.838-.95.5-.474.369.01c-.073.263.025.386.233.371.037.15.16.2.363.108.018.128.033.256-.381.7-.4.572-.79,1.193.075.6.015.12.015.12-.4.524-.406.519-.827.9.028.228.449-.163.5.223.1.8.015.115.027.228.459-.108l.431-.336c-.845.795-.847.775.03.253.434-.326.449-.19.018.125-.419.441-.4.554-.4.554.013.11.526.434.607,1.071.125.993.173,1.356.629,1.193.471-.037.474-.028.032.258s-.429.4-.411.524.03.248-.434.371c.479,0,.479,0,.494.12-.464.115-.451.223.033.246.948-.073.95-.063.015.12-.467.1-.9.522-.439.326.469-.08.5.165.983.2.015.113.027.223-.444.3-.456.183.083.667.567.7.471-.07.484.04.013.113s-.456.183-.444.293c.486.04.015.113-.456.183-.484-.038-.471.073-.444.3.484.038.539.484.579.817.07.557.554.594,1.525.672l.955-.033-.943.145c-.471.07-1.4.326-1.4.326.013.113.484.04.955-.032s.484.04.04.333-.429.406.055.446c.012.11.027.221-.429.4.012.113.012.113.484.04s.484.04.027.223c-.93.256-.887.589-.416.517s.484.037.5.15.028.221.512.261l.027.223c.015.11-.469.07-.484-.04l-.457.183c.028.223.04.333.524.374.955-.033.955-.033.015.11-.471.073-.928.256-.444.3.955-.035.5.15.028.221-.955.035-.955.035.04.333.027.223.551.6.594.93.055.444.08.667-.376.85-.943.143-.928.256-.471.073.943-.145.955-.035,1,.3-.431.406.068.557.552.6.012.11.484.038,0,0l-.028-.223c.943-.143.955-.033.512.261.015.113-.456.186-.928.256s-.928.256-.915.366.027.223.486.04c.469-.073.469-.073.484.04s.027.221.511.261c.472-.073.484.038.5.15-.459.183-.431.406-.431.406.471-.073,0,0-.471.07a4.849,4.849,0,0,0-.928.256c.015.113.484.04.484.04.471-.073.8,2.6.84,2.929-.444.3-.4.629.055.446.471-.073.539.484.619,1.151.1.777.166,1.334.637,1.261l.04.333c.028.223.524.374.539.484.484.04.5.15.013.113-.469.07-.94.143-.928.253.027.223.5.15.97.08s.484.037.484.037c.012.11.012.11-.456.183l-.943.145.012.11c.471-.073.486.04.486.04.012.11.012.11-.93.256s-.928.256.028.221l.5.15c-.928.256.04.333.526.374h0q-1.395.384.04.333c.472-.073.484.038.028.221s-.444.3-.416.519c.484.038.579.817.69,1.7.12,1,.2,1.67.675,1.6.012.11.012.11-.444.293-.471.073-.456.183.5.15.484.04.955-.033.012.113-.471.07-.444.293-.389.737.04.333.1.78.567.707.5.15.5.15.012.11-.955.035-1.356.662-.373.852.012.11.025.221-.444.293.012.11.025.223.539.484l.1.777c.028.223.524.374.524.374.015.11.027.223.015.11-.471.073-.4.629-.308,1.407s.178,1.447-.281,1.63c0,0,.015.11.5.15.955-.033.97.078.511.261-.928.256-.872.7.083.667l-.471.073c-.928.256-.416.516.539.484-.456.183-.915.366-.429.406.013.11.013.11-.93.256-.469.07-.94.143-.928.253s.484.04.955-.032l.028.223s.015.11.484.038.486.04.5.15c-.471.073.015.113.471-.07.472-.073.943-.145.956-.035l.943-.143a4.416,4.416,0,0,0,1.855-.512c.416-.516.848-.923-.1-.777,0,0-.484-.04-.5-.15s.444-.3.444-.3c.471-.073.416-.516.349-1.073-.08-.667-.123-1,.336-1.183s.444-.293.444-.293c-.471.07-.554-.6-.649-1.374s-.191-1.557-.662-1.484l-.028-.223c.471-.073.444-.293.416-.516-.5-.15-.524-.373-.524-.373.472-.07.456-.183.429-.4s-.04-.334-.511-.263a1.652,1.652,0,0,1,.321-1.294c.459-.183-.027-.223-.511-.261-.472.07-.955.032-.971-.08,0,0,.471-.07.943-.143.484.038.484.038.456-.183l-.025-.223c-.471.073-.539-.484-.635-1.261-.123-1-.165-1.334-.637-1.264s-.484-.038-.053-.444c1.332-.883,1.332-.883.845-.923.015.11-.456.183-.928.256-.943.143-.955.033-.028-.223.943-.143.266-1.74-.69-1.708-.471.073-.471.073.471-.07.472-.073.459-.183.4-.629l-.043-.333c-.94.145-.552-.594-.08-.667.456-.183.456-.183.429-.406-.983-.188-.579-.817-.108-.89l-.028-.221c-.484-.04-.512-.261-.526-.374-.04-.333-.053-.444-.512-.261-.471.073-.94.143-.955.032l.471-.073c.471-.07.429-.406.376-.85-.068-.557-.1-.777.361-.96l-.484-.04c-.486-.038-.5-.15-.028-.223.456-.183.4-.627-.1-.777l-.027-.223c.928-.256.888-.589-.068-.557.471-.07.456-.183.444-.293-.5-.15-.554-.594-.083-.667l-.012-.11c-.487-.04-.5-.15-.514-.263s-.025-.221-.511-.261-.5-.15-.5-.15c-.015-.11.469-.073.955-.033.5.15.456-.183-.526-.373s-.983-.188-.012-.11c.484.04.968.078.471-.073,0,0-.028-.221-.5-.15l-.04-.333c.441-.293.429-.406.416-.516-.486-.038-.486-.038-.027-.223.471-.07.456-.183-.486-.038q-.726-.06-.04-.333c.943-.145.928-.256.459-.183-.486-.04-.5-.15-.5-.15.471-.073.348-1.073.226-2.073-.015-.11-.5-.15-.97-.078-.943.143-.471.073-.013-.113,1.4-.326,1.371-.549-.028-.221-.928.256-.928.256-.015-.113.459-.183.459-.183-.025-.221-.471.07-.486-.04-.015-.113.456-.183.915-.366.444-.293,0,0-.013-.11.444-.3s-.028-.221-.511-.261q-1.475-.282-.04-.333c.955-.033.416-.517-.539-.484s-.958.033-.486-.04.459-.183.459-.183c-.015-.11-.028-.221.444-.293,0,0-.015-.11-.514-.261-.968-.078-.539-.484.391-.74l-.5-.15c-.955.033-1.439-.005-.5-.15.472-.073.943-.143.472-.073-.956.033-.539-.484.4-.627.471-.073.471-.073.456-.183l-.471.07c-.471.073-.94.145-.955.035s-.028-.223.444-.3c.459-.183.915-.366.444-.293,0,0-.013-.113.444-.3l-.055-.444c-.477.01-.524-.346-.058-.449a.629.629,0,0,0-.549-.491c-.05-.381-.078-.572.386-.689s.464-.12-.025-.2c-.464.123-.489-.068-.516-.258l-.053-.381c-.459.148-.459.148-.484-.038s.356-.915.329-1.113c-.078-.577-.078-.572-.5-.185.025.183-.426.381-.025-.186a6.521,6.521,0,0,0,.266-1.552c-.1-.772-.105-.772-.544-.5-.855.72-.877.552-.025-.188.825-.938.795-1.163.359-.857-.461.105-.461.11-.486-.078.436-.306.406-.512-.075-.564-.025-.188-.025-.188.4-.521l-.052-.389c-.908.313-.63-1.131-.238-1.753,0,0-.028-.2-.471.025-.863.644-.883.481-.053-.379s.83-.863-.025-.188c-.441.243-.564-.662.281-1.414l.82-.928c-.3.175-.409.138-.446.1l-.068.015c-.409.477-.6.471-1.176.461-.394,0-1.509.456-1.873.451s-.928-.018-.827-.5c-.191,0-.4,0-1.046.464-.456.474-.81.466-.564-.01l-.188,0c-.617.469-.79.466-.79.466.231-.476.256-.958-.15-.484-.216.476-.4.474-.76.466-.078-.243-1.675-.391-3.287-.421-.8-.012-1.6,0-2.194.05-.5.05-.622.133-.654.251l-.336-.01-.336-.01c0-.953-.559-.494-.9-.028-.113.471-.226.469-.339.466,0-.953-.333-.965-.559-.494-.113.948-.223.945-.223-.008s-.223-.96-.449.461c-.113.474-.113.474-.223-.005-.11-.958-.223-.96-.223-.484q-.169,1.425-.336-.01c-.223-.96-.223-.96-.336-.01s-.562.935-.672-.023c-.113,0-.223-.484-.223-.008l-.113-.479-.223-.008v.477a4.4,4.4,0,0,0-1.567-.524c-1.234-.038-1.457-.045-1.344.434.11.958-.113.95-.226-.005-.11-.005-.333-.486-.559-.494s-.446-.015-.446-.492l-.113,0c-.226.945-.9.925-1.231.439-.226-.008-.336-.013-.562.459s-.223.469-.336-.013c0-.474-.669-.973-.672-.02l-.11-.479c-.113-.481-.223-.008-.226.469,0,.953-.113.95-.223-.484,0-.953-.11-.955-.11-.479-.113.474-.226.945-.336.466-.113,0-.225-.008-.225.945,0,.476-.113.474-.226.469a2.841,2.841,0,0,1,.113-.948c.113,0,0,0-.223-.008-.11,0-.336-.486-.333-.963-.113-.481-.225-.484-.113.471,0,.953,0,.953-.226.948-.113-.005-.223-.008-.223-.484s0-.476-.223-.484c-.336-.01-.674,1.409-.787,2.357,0,.955,0,.955-.11,0,0-.476-.113-.479-.223-.484,0,.476-.113,0,0,0,0-.476.11-.471.223-.469v-.476q-.165-1.433-.336-.01c-.113.471-.113.471-.223-.008s-.223-.96-.223-.484c0,0-.226-.005-.336-.486-.223-.007-.336-.01-.336.466s-.113.474-.226.469-.223-.005-.223.469-.113.95-.338.943c-.223.471-.223.471-.334-.486,0-.477-.113-.479-.223-.484,0,0-.113,0-.226-.481s-.11-.005-.11.471l0,.953a3.667,3.667,0,0,1-.22-1.434c-.113-.958-.113-.958-.113,0,0,.476-.113.95-.336.466-.226-.008-.449-.012-.449-.491-.11-.479-.223-.005-.223-.005-.113.471-.226.469-.559-.017-.559-.97-.559-.97-.562-.018,0,.477,0,.953-.11,0-.113-.481-.226-.008-.449.461a10.776,10.776,0,0,0-.113,1.9c0,.953,0,.953-.226.469-.113,0-.223-.484-.223-.96s.113-.474.113-.474l.113.005c0-.477,0-.953-.223-.96-.113-.479-.226-.484-.226-.008-.11-.479-.333-.486-.559-.494a.593.593,0,0,1-.672-.5c-.223-.007-.336-.01-.336.466,0,.953-.113.948-.113.474-.11-.958-1.564-1.479-1.677-.529l-.226-.008c-.223-.484-.9-.5-1.005-.03l-.336-.013c-.226-.481-.336-.486-.449-.013s-.113.95-.113.474-.223-.484-.672-.5-.446-.013-.336.466h0c-.449.464-.446-.013-.446-.491.113-.948-.11-.955-.226.471-.113.948-.336.943-.336.466s.113-.474.226-.471v-.953c-.113,0-.113,0-.223.469,0,0-.113,0-.226.471a3.063,3.063,0,0,0,0,1.429c.11.479,0,.476-.113.471a2.116,2.116,0,0,1-.11-1.432c.11.005.11-.474.113-.95s-.562.461-.674,1.409v-.477c0-.476-.223-.484-.446-.489s-.336-.013-.336.466,0,.95-.113.948h0c.11,0,.11.481.11.958a5.881,5.881,0,0,1-.336-.965c-.223-.958-.446-1.442-.892-1.457a.593.593,0,0,1-.672-.5c-.223-.008-.336-.01-.336.466l-.226-.008c-.11-.479-.333-.486-.336-.01-.11.474-.223-.008-.336-.01-.221-.96-.221-.96-.11.471,0,.477.223.961.333.965l.336.01-.336.466c-.113-.005-.336.464-.336.94,0,0,0,.479-.113.474v-.953a6.069,6.069,0,0,0,.113-1.427c-.11-.955-.446-1.442-.446-.489-.113-.005-.113-.005-.223-.484,0-.477-.113-.479-.226.469s-.223.948-.336-.01c-.223-.96-.67-.973-.67-.5,0,.953-.339.943-.449.461s-.223-.484-.336-.01c0-.476-.11-.955-.223-.484,0,0-.113,0,0,.477l-.226.948h0c.113,0,.11.479.11.955s-.446-.013-.67-1.449l-.223-.96,0,.953c-.11,0-.223-.007-.223-.484s0-.476-.11-.479c0,0-.113-.005-.113.471,0,.955,0,.955-.113.474q-.166-1.433-.336-.01c0,.953,0,.953-.11,0,0-.479-.113-.958-.223-.96l0,.476c0,.953-.113.948-.223.469q0-.714-.336-.01c-.223-.008-.336-.01-.336-.486,0-.953,0-.953-.11-.005-.113.474-.113.474-.336-.01-.113-.479-.113-.479-.226-.008,0,.953,0,1.429.11,1.434s.113,0,.113.479l-.223-.008c-.113,0-.226-.005-.449.464S891.7,372.094,891.923,371.625Z" transform="translate(-891.755 -365.292)" fill="#ffceb2"/>
          </g>
        </g>
      </g>
    </g>
  </g>
</svg>
