<svg xmlns="http://www.w3.org/2000/svg" width="34.76" height="41.292" viewBox="0 0 34.76 41.292">
  <g id="planning" transform="translate(0.25 0.25)">
    <path id="Path_2821" data-name="Path 2821" d="M33.782,8.19,26.07.478A1.619,1.619,0,0,0,24.917,0H5.335A5.341,5.341,0,0,0,0,5.335V35.458a5.341,5.341,0,0,0,5.335,5.335h23.59a5.341,5.341,0,0,0,5.335-5.335V9.343A1.62,1.62,0,0,0,33.782,8.19ZM26.292,4.08l3.887,3.887H26.292ZM28.925,38.4H5.335A2.948,2.948,0,0,1,2.39,35.458V5.335A2.948,2.948,0,0,1,5.335,2.39H23.9V9.162a1.2,1.2,0,0,0,1.2,1.2h6.772v25.1A2.948,2.948,0,0,1,28.925,38.4Zm0,0" fill="#0e34c4" stroke="#fff" stroke-width="0.5"/>
    <path id="Path_2822" data-name="Path 2822" d="M97.066,215.711H77.639a1.449,1.449,0,0,0-1.447,1.447V231.94a1.449,1.449,0,0,0,1.447,1.447H97.066a1.449,1.449,0,0,0,1.447-1.447V217.158A1.449,1.449,0,0,0,97.066,215.711ZM83.85,223.184H96.123v2.73H83.85Zm12.273-2.39H83.85V218.1H96.123ZM78.582,218.1H81.46V231H78.582ZM83.85,231V228.3H96.123V231Zm0,0" transform="translate(-70.121 -198.525)" fill="#0e34c4" stroke="#fff" stroke-width="0.5"/>
  </g>
</svg>
