<svg xmlns="http://www.w3.org/2000/svg" width="46.167" height="39.481" viewBox="0 0 46.167 39.481">
  <g id="consulting-message" transform="translate(0 -35.483)">
    <g id="Group_1180" data-name="Group 1180" transform="translate(0 35.483)">
      <path id="Path_2823" data-name="Path 2823" d="M37.11,74.964a.934.934,0,0,1-.6-.222l-9.357-7.933H6.418A6.443,6.443,0,0,1,0,60.356V41.936a6.443,6.443,0,0,1,6.418-6.453H39.749a6.443,6.443,0,0,1,6.418,6.453V60.356a6.443,6.443,0,0,1-6.418,6.453h-1.7v7.212a.942.942,0,0,1-.542.854A.931.931,0,0,1,37.11,74.964ZM6.418,37.367a4.562,4.562,0,0,0-4.544,4.569V60.356a4.562,4.562,0,0,0,4.544,4.569H27.491a.935.935,0,0,1,.6.222L36.173,72V65.867a.94.94,0,0,1,.937-.942h2.64a4.562,4.562,0,0,0,4.544-4.569V41.936a4.562,4.562,0,0,0-4.544-4.569Z" transform="translate(0 -35.483)" fill="#1442c4"/>
    </g>
    <g id="Group_1184" data-name="Group 1184" transform="translate(7.056 44.15)">
      <g id="Group_1181" data-name="Group 1181">
        <path id="Path_2824" data-name="Path 2824" d="M106.007,129.353H75.825a.942.942,0,0,1,0-1.884h30.182a.942.942,0,0,1,0,1.884Z" transform="translate(-74.888 -127.469)" fill="#1442c4"/>
      </g>
      <g id="Group_1182" data-name="Group 1182" transform="translate(0 6.033)">
        <path id="Path_2825" data-name="Path 2825" d="M106.007,193.387H75.825a.942.942,0,0,1,0-1.884h30.182a.942.942,0,0,1,0,1.884Z" transform="translate(-74.888 -191.503)" fill="#1442c4"/>
      </g>
      <g id="Group_1183" data-name="Group 1183" transform="translate(0 12.067)">
        <path id="Path_2826" data-name="Path 2826" d="M106.007,257.422H75.825a.942.942,0,0,1,0-1.884h30.182a.942.942,0,0,1,0,1.884Z" transform="translate(-74.888 -255.538)" fill="#1442c4"/>
      </g>
    </g>
  </g>
</svg>
