<svg xmlns="http://www.w3.org/2000/svg" width="36" height="48.968" viewBox="0 0 36 48.968">
  <g id="doc-file" transform="translate(-67.798)">
    <g id="Group_544" data-name="Group 544" transform="translate(67.798)">
      <g id="Group_543" data-name="Group 543">
        <path id="Path_2490" data-name="Path 2490" d="M103.514,13.166,90.632.283A.968.968,0,0,0,89.948,0H71.8a4,4,0,0,0-4,4V44.971a4,4,0,0,0,4,4h28a4,4,0,0,0,4-4V13.85A.968.968,0,0,0,103.514,13.166ZM90.916,3.3l9.578,9.578H92.978a2.064,2.064,0,0,1-2.062-2.062V3.3Zm10.946,41.666A2.065,2.065,0,0,1,99.8,47.033h-28a2.065,2.065,0,0,1-2.062-2.062V4A2.065,2.065,0,0,1,71.8,1.936H88.98V10.82a4,4,0,0,0,4,4h8.884Z" transform="translate(-67.798)" fill="#1442c4"/>
      </g>
    </g>
    <g id="Group_546" data-name="Group 546" transform="translate(77.088 24.581)">
      <g id="Group_545" data-name="Group 545">
        <path id="Path_2491" data-name="Path 2491" d="M181.384,257.012H165.9a.968.968,0,1,0,0,1.936h15.484a.968.968,0,1,0,0-1.936Z" transform="translate(-164.932 -257.012)" fill="#1442c4"/>
      </g>
    </g>
    <g id="Group_548" data-name="Group 548" transform="translate(77.088 28.904)">
      <g id="Group_547" data-name="Group 547">
        <path id="Path_2492" data-name="Path 2492" d="M181.384,302.208H165.9a.968.968,0,0,0,0,1.936h15.484a.968.968,0,0,0,0-1.936Z" transform="translate(-164.932 -302.208)" fill="#1442c4"/>
      </g>
    </g>
    <g id="Group_550" data-name="Group 550" transform="translate(77.088 33.226)">
      <g id="Group_549" data-name="Group 549">
        <path id="Path_2493" data-name="Path 2493" d="M181.384,347.4H165.9a.968.968,0,0,0,0,1.936h15.484a.968.968,0,0,0,0-1.936Z" transform="translate(-164.932 -347.404)" fill="#1442c4"/>
      </g>
    </g>
    <g id="Group_552" data-name="Group 552" transform="translate(77.088 37.549)">
      <g id="Group_551" data-name="Group 551">
        <path id="Path_2494" data-name="Path 2494" d="M176.352,392.6H165.9a.968.968,0,0,0,0,1.936h10.452a.968.968,0,0,0,0-1.936Z" transform="translate(-164.932 -392.601)" fill="#1442c4"/>
      </g>
    </g>
  </g>
</svg>
