<svg id="pay" xmlns="http://www.w3.org/2000/svg" width="44.749" height="44.749" viewBox="0 0 44.749 44.749">
  <g id="Group_1185" data-name="Group 1185">
    <path id="Path_2827" data-name="Path 2827" d="M44.533,34.969a27.808,27.808,0,0,1-3.9-6.8c-.225-.715-.507-1.722-.829-2.875C38.26,19.773,36.855,15.077,35.3,13.519c-1.687-1.687-8.209-2.813-10.889-3.214V4.068A4.072,4.072,0,0,0,20.34,0H4.068A4.072,4.072,0,0,0,0,4.068V32.545a4.072,4.072,0,0,0,4.068,4.068H20.341a3.92,3.92,0,0,0,1.279-.24,17.6,17.6,0,0,0,2.94,2.084,15.123,15.123,0,0,1,6.088,5.786,1.017,1.017,0,0,0,.88.507c9.678,0,13.12-8.7,13.154-8.79A1.017,1.017,0,0,0,44.533,34.969Zm-40.465-.39a2.037,2.037,0,0,1-2.034-2.034V4.068A2.037,2.037,0,0,1,4.068,2.034Zm20.34-15.787,3.223,1.29c.158.552.425,1.446.693,2.143-.123.219-.229.461-.343.719a5.723,5.723,0,0,1-.668,1.239,11.7,11.7,0,0,1-2.905-3.9ZM8.136,34.579H6.1V2.034H8.136Zm2.034,0V2.034h10.17a2.037,2.037,0,0,1,2.034,2.034V16.263C21.105,14.4,18.965,12.2,17.025,11.8a2.61,2.61,0,0,0-2.489.7c-2.449,2.449-1.047,6.612.9,9.432a16.434,16.434,0,0,1,2.876,6.638c.027.285.039.555.052.821a8.7,8.7,0,0,0,1.765,5.184ZM32.1,42.7a17.436,17.436,0,0,0-6.482-5.986,10.964,10.964,0,0,1-3.434-2.736c-1.675-2.3-1.723-3.352-1.785-4.681-.014-.3-.029-.6-.06-.92a18.25,18.25,0,0,0-3.226-7.6c-1.568-2.273-2.591-5.383-1.135-6.84a.622.622,0,0,1,.645-.145c1.594.325,4.165,3.288,4.812,4.891.779,1.928,2.886,6.535,5.638,7.678a1.029,1.029,0,0,0,.954-.093,5.383,5.383,0,0,0,1.821-2.511c.1-.222.231-.528.228-.55A1.017,1.017,0,0,0,30.4,21.92a22.583,22.583,0,0,1-.944-2.86,1.018,1.018,0,0,0-.6-.68L24.409,16.6V12.366c3.7.572,8.493,1.634,9.451,2.591,1.307,1.307,2.984,7.3,3.986,10.885.33,1.18.618,2.21.849,2.94a27.554,27.554,0,0,0,3.862,6.944A12.286,12.286,0,0,1,32.1,42.7Z" fill="#0e34c4"/>
  </g>
</svg>
