<svg xmlns="http://www.w3.org/2000/svg" width="43.898" height="43.896" viewBox="0 0 43.898 43.896">
  <g id="marker" transform="translate(0 -0.001)">
    <path id="Path_2495" data-name="Path 2495" d="M47.271,52.14a.73.73,0,0,1-.517-.214c-2.454-2.454-3.854-3.39-5.173-2.07a.732.732,0,0,1-1.035-1.035l8.278-8.277a.732.732,0,1,1,1.035,1.035c-1.319,1.32-.384,2.719,2.07,5.173a.731.731,0,0,1,0,1.035l-4.139,4.139A.729.729,0,0,1,47.271,52.14Zm-3.7-4.27a9,9,0,0,1,3.7,2.506l3.108-3.108a9,9,0,0,1-2.506-3.7Z" transform="translate(-10.824 -10.823)" fill="#1442c4"/>
    <path id="Path_2496" data-name="Path 2496" d="M53.48,56.28a.729.729,0,0,1-.517-.214l-2.518-2.517a.731.731,0,0,1,0-1.035l2.069-2.07a.732.732,0,0,1,1.026-.01l3.615,3.489a.731.731,0,0,1-.269,1.217l-3.166,1.1a.742.742,0,0,1-.24.041ZM52,53.031l1.676,1.676,1.608-.557-2.24-2.163Z" transform="translate(-13.481 -13.48)" fill="#1442c4"/>
    <path id="Path_2497" data-name="Path 2497" d="M30.779,26.51a.73.73,0,0,1-.517-.214l-8.048-8.048a.732.732,0,0,1,1.035-1.035L31.3,25.261a.732.732,0,0,1-.517,1.249Z" transform="translate(-5.904 -4.562)" fill="#1442c4"/>
    <path id="Path_2498" data-name="Path 2498" d="M39.658,35.389a.73.73,0,0,1-.517-.214l-2.926-2.926a.732.732,0,1,1,1.035-1.035l2.926,2.926a.732.732,0,0,1-.517,1.249Z" transform="translate(-9.662 -8.319)" fill="#1442c4"/>
    <path id="Path_2499" data-name="Path 2499" d="M30.239,39.254a.73.73,0,0,1-.517-.214L.566,9.883a1.934,1.934,0,0,1,0-2.735L7.143.572a1.98,1.98,0,0,1,2.736,0L39.034,29.727a.731.731,0,0,1,0,1.035l-8.277,8.278a.731.731,0,0,1-.517.214ZM8.511,1.469a.469.469,0,0,0-.333.138L1.6,8.183a.472.472,0,0,0,0,.666L30.239,37.487l7.242-7.242L8.844,1.606a.466.466,0,0,0-.333-.138Z" transform="translate(0 -0.006)" fill="#1442c4"/>
    <path id="Path_2500" data-name="Path 2500" d="M16.1,59.462H.732A.732.732,0,0,1,.732,58H16.1a.732.732,0,1,1,0,1.463Z" transform="translate(0 -15.565)" fill="#1442c4"/>
    <path id="Path_2501" data-name="Path 2501" d="M28.658,59.462H25.732a.732.732,0,1,1,0-1.463h2.926a.732.732,0,1,1,0,1.463Z" transform="translate(-6.709 -15.565)" fill="#1442c4"/>
    <path id="Path_2502" data-name="Path 2502" d="M43.974,59.462H33.732a.732.732,0,1,1,0-1.463H43.974a.732.732,0,0,1,0,1.463Z" transform="translate(-8.856 -15.565)" fill="#1442c4"/>
    <path id="Path_2503" data-name="Path 2503" d="M4.893,13.9a.73.73,0,0,1-.517-.214L.566,9.877a1.937,1.937,0,0,1,0-2.734L7.144.567a1.937,1.937,0,0,1,2.734,0l3.809,3.81a.731.731,0,0,1,0,1.035L5.41,13.686a.732.732,0,0,1-.517.214ZM8.511,1.463a.467.467,0,0,0-.333.138L1.6,8.177a.472.472,0,0,0,0,.666l3.291,3.292,7.242-7.242L8.843,1.6a.468.468,0,0,0-.332-.138Z" transform="translate(0 0)" fill="#1442c4"/>
  </g>
</svg>
