<svg xmlns="http://www.w3.org/2000/svg" width="31.228" height="47.585" viewBox="0 0 31.228 47.585">
  <g id="stats" transform="translate(-88)">
    <path id="Path_2478" data-name="Path 2478" d="M322.228,464h-1.487a.744.744,0,1,0,0,1.487h1.487a.744.744,0,0,0,0-1.487Z" transform="translate(-210.435 -420.876)" fill="#0e34c4"/>
    <path id="Path_2479" data-name="Path 2479" d="M117.741,43.252V1.487h.744a.744.744,0,1,0,0-1.487H88.744a.744.744,0,0,0,0,1.487h.744V43.252A2.234,2.234,0,0,0,88,45.355v1.487a.744.744,0,0,0,.744.744h29.741a.744.744,0,0,0,.744-.744V45.355A2.234,2.234,0,0,0,117.741,43.252Zm0,2.846H89.487v-.744a.744.744,0,0,1,.744-.744h17.1a.744.744,0,1,0,0-1.487H90.974V1.487h25.28V43.124h-1.487a.744.744,0,1,0,0,1.487H117a.744.744,0,0,1,.744.744Z" fill="#0e34c4"/>
    <path id="Path_2480" data-name="Path 2480" d="M288.922,120.179A8.188,8.188,0,0,0,280.744,112a.744.744,0,0,0-.744.744v3.717h0v3.717c0,.025,0,.049,0,.074s0,.021,0,.031,0,.027.006.041.006.024.009.036.005.023.009.035.008.023.012.035.008.023.012.034.01.021.015.032.01.023.017.034l.017.029c.007.011.013.022.02.033l.023.031.021.028c.014.017.029.034.045.05l0,0,.006.005c.016.015.032.03.049.044l.028.021.031.023.033.02.03.018.034.016.032.015.033.012.036.012.033.009.037.009.039.006.033,0c.024,0,.049,0,.073,0h7.435A.744.744,0,0,0,288.922,120.179Zm-2.307-3.206-2.462,2.462h-1.615l3.43-3.43A6.709,6.709,0,0,1,286.615,116.973Zm-5.128-.2,2.462-2.462a6.717,6.717,0,0,1,.968.646l-3.43,3.43Zm.958-3.061-.958.958v-1.138A6.657,6.657,0,0,1,282.445,113.708Zm3.811,5.727.958-.958a6.644,6.644,0,0,1,.18.958Z" transform="translate(-174.155 -101.591)" fill="#0e34c4"/>
    <path id="Path_2481" data-name="Path 2481" d="M184.358,152.179a.744.744,0,0,0-.744-.744h-6.692v-6.692a.744.744,0,0,0-.744-.744,8.179,8.179,0,1,0,8.179,8.179Zm-14.87,0a6.7,6.7,0,0,1,5.948-6.651v6.651a.744.744,0,0,0,.744.744h6.651a6.692,6.692,0,0,1-13.342-.744Z" transform="translate(-72.565 -130.617)" fill="#0e34c4"/>
    <path id="Path_2482" data-name="Path 2482" d="M154.231,352h-1.487a.744.744,0,0,0,0,1.487h1.487a.744.744,0,1,0,0-1.487Z" transform="translate(-58.052 -319.285)" fill="#0e34c4"/>
    <path id="Path_2483" data-name="Path 2483" d="M154.231,384h-1.487a.744.744,0,0,0,0,1.487h1.487a.744.744,0,1,0,0-1.487Z" transform="translate(-58.052 -348.311)" fill="#0e34c4"/>
    <path id="Path_2484" data-name="Path 2484" d="M214.127,352H200.744a.744.744,0,0,0,0,1.487h13.383a.744.744,0,1,0,0-1.487Z" transform="translate(-101.591 -319.285)" fill="#0e34c4"/>
    <path id="Path_2485" data-name="Path 2485" d="M214.127,384H200.744a.744.744,0,0,0,0,1.487h13.383a.744.744,0,1,0,0-1.487Z" transform="translate(-101.591 -348.311)" fill="#0e34c4"/>
    <path id="Path_2486" data-name="Path 2486" d="M154.231,416h-1.487a.744.744,0,0,0,0,1.487h1.487a.744.744,0,1,0,0-1.487Z" transform="translate(-58.052 -377.337)" fill="#0e34c4"/>
    <path id="Path_2487" data-name="Path 2487" d="M214.127,416H200.744a.744.744,0,0,0,0,1.487h13.383a.744.744,0,1,0,0-1.487Z" transform="translate(-101.591 -377.337)" fill="#0e34c4"/>
    <path id="Path_2488" data-name="Path 2488" d="M154.231,52.461A2.231,2.231,0,1,0,152,50.231,2.233,2.233,0,0,0,154.231,52.461Zm0-2.974a.732.732,0,0,1,.37.1.744.744,0,1,1-.37-.1Z" transform="translate(-58.052 -43.539)" fill="#0e34c4"/>
    <path id="Path_2489" data-name="Path 2489" d="M216.744,65.487h11.9a.744.744,0,1,0,0-1.487h-11.9a.744.744,0,1,0,0,1.487Z" transform="translate(-116.104 -58.052)" fill="#0e34c4"/>
  </g>
</svg>
