<svg id="_017-message" data-name="017-message" xmlns="http://www.w3.org/2000/svg" width="41.749" height="41.749" viewBox="0 0 41.749 41.749">
  <g id="Group_542" data-name="Group 542">
    <g id="Group_541" data-name="Group 541">
      <path id="Path_2473" data-name="Path 2473" d="M37.954,0H3.8A3.8,3.8,0,0,0,0,3.8v37a.949.949,0,0,0,1.62.671l9.21-9.21H37.954a3.8,3.8,0,0,0,3.8-3.8V3.8A3.8,3.8,0,0,0,37.954,0Zm1.9,28.465a1.9,1.9,0,0,1-1.9,1.9H10.437a.948.948,0,0,0-.671.278L1.9,38.51V3.8A1.9,1.9,0,0,1,3.8,1.9H37.954a1.9,1.9,0,0,1,1.9,1.9v24.67Z" fill="#1442c4"/>
      <path id="Path_2474" data-name="Path 2474" d="M322.846,170.667h-1.9a.949.949,0,0,0,0,1.9h1.9a.949.949,0,1,0,0-1.9Z" transform="translate(-291.535 -155.486)" fill="#1442c4"/>
      <path id="Path_2475" data-name="Path 2475" d="M322.175,85.611l-1.9,1.9a.949.949,0,1,0,1.342,1.342l1.9-1.9a.949.949,0,1,0-1.342-1.342Z" transform="translate(-291.535 -77.743)" fill="#1442c4"/>
      <path id="Path_2476" data-name="Path 2476" d="M321.619,234.945a.949.949,0,1,0-1.342,1.342l1.9,1.9a.949.949,0,1,0,1.342-1.342Z" transform="translate(-291.535 -213.792)" fill="#1442c4"/>
      <path id="Path_2477" data-name="Path 2477" d="M122.8,85.333a.948.948,0,0,0-.949.949v1.2L108.5,91.654a.944.944,0,0,0-1.833.321v3.8a.944.944,0,0,0,1.833.321l1.964.614s0,.01,0,.014a3.765,3.765,0,0,0,6.886,2.137l4.5,1.406v1.2a.949.949,0,1,0,1.9,0V86.282A.948.948,0,0,0,122.8,85.333Zm-8.54,13.284a1.883,1.883,0,0,1-1.773-1.28l2.891.9A1.863,1.863,0,0,1,114.257,98.617Zm7.591-.342-13.284-4.151v-.5l13.284-4.151Z" transform="translate(-97.178 -77.742)" fill="#1442c4"/>
    </g>
  </g>
</svg>
