<svg xmlns="http://www.w3.org/2000/svg" width="35" height="35.55" viewBox="0 0 35 35.55">
  <path id="positive-vote" d="M35.073,15.23A2.546,2.546,0,0,0,33.5,14.144a2.561,2.561,0,0,0-1.708-3.692,2.567,2.567,0,0,0-.133-2.609,2.544,2.544,0,0,0-1.577-1.085,2.564,2.564,0,0,0-3.685-3.33l-2.552,1.69a15.949,15.949,0,0,0-4.309-1.458,11.849,11.849,0,0,0-1.644-1.989L16.832.648A2.31,2.31,0,0,0,13.3,3.583l.082.127A16.081,16.081,0,1,0,31.708,24.932a.553.553,0,1,0-1.04-.375,14.995,14.995,0,0,1-18.817,9.126l4.5-2.978h0l3.738-2.475h0a1.508,1.508,0,0,0,.425-2.089l-.049-.075.726-.481a2.462,2.462,0,0,1,1.755-.379,3.564,3.564,0,0,0,2.54-.549l6.022-3.988a15.008,15.008,0,0,1-.2,1.552.553.553,0,0,0,.443.644.539.539,0,0,0,.1.009.553.553,0,0,0,.543-.452,16.166,16.166,0,0,0,.264-2.514l1.7-1.124a2.564,2.564,0,0,0,.722-3.553Zm-12.3-9.4L21.079,6.949l-.333-.9a11.829,11.829,0,0,0-.474-1.1A14.838,14.838,0,0,1,22.768,5.83ZM5.264,9.662a14.976,14.976,0,0,1,8.644-4.928,6.829,6.829,0,0,1,.344,4.136L12.9,14.692a1.5,1.5,0,0,0-1.929-.225L7.158,16.995h0L1.651,20.642c-.03-.388-.046-.78-.046-1.171A14.97,14.97,0,0,1,5.264,9.662ZM19.65,27.051a.4.4,0,0,1-.172.255h0l-3.283,2.174L10.1,20.394a.553.553,0,0,0-.918.616l6.089,9.082-4.686,3.1A15.021,15.021,0,0,1,1.8,21.851l5.512-3.638.634.947a.553.553,0,0,0,.918-.616l-.63-.94,3.355-2.215a.4.4,0,0,1,.557.114L19.591,26.75A.4.4,0,0,1,19.65,27.051ZM34.365,16.936a1.448,1.448,0,0,1-.624.926L31.8,19.146h0l-6.925,4.586a2.461,2.461,0,0,1-1.755.379,3.566,3.566,0,0,0-2.54.549l-.726.481-6.1-9.212L15.33,9.119a7.942,7.942,0,0,0-.582-5.213.542.542,0,0,0-.023-.049,7.819,7.819,0,0,0-.506-.884,1.2,1.2,0,0,1,1.843-1.53l1.056,1.024A10.8,10.8,0,0,1,19.71,6.438l.575,1.549,0,.008,0,.011c0,.009.008.018.012.025a.545.545,0,0,0,.038.068.552.552,0,0,0,.766.156l5.9-3.9a1.458,1.458,0,0,1,1.611,2.432l-.512.339h0l-1.142.756,0,0-.018.013a.552.552,0,0,0,.633.905l1.142-.757a1.458,1.458,0,0,1,1.61,2.433l-1.654,1.1a.553.553,0,1,0,.61.922l.256-.17.886-.587a1.458,1.458,0,0,1,1.611,2.432l-.826.547-.013.009-.815.539a.553.553,0,1,0,.61.922l.256-.17h0l.886-.586a1.458,1.458,0,0,1,2.234,1.506Zm0,0" transform="translate(-0.5 0)" fill="#fff"/>
</svg>
