<svg xmlns="http://www.w3.org/2000/svg" width="29.134" height="34.529" viewBox="0 0 29.134 34.529">
  <g id="stopwatch" transform="translate(-40)">
    <path id="Path_139" data-name="Path 139" d="M64.867,9.662a14.7,14.7,0,0,0-2.5-2l.974-1.687,1.089.629a.54.54,0,1,0,.54-.934L61.879,3.878a.539.539,0,0,0-.54.934l1.071.618-.97,1.681a14.469,14.469,0,0,0-6.334-1.705V5.341a2.7,2.7,0,1,0-1.079,0v.065a14.565,14.565,0,1,0,10.84,4.256ZM52.948,2.7a1.619,1.619,0,1,1,2.158,1.526V2.7a.54.54,0,1,0-1.079,0V4.223A1.621,1.621,0,0,1,52.948,2.7ZM54.567,33.45A13.488,13.488,0,1,1,68.054,19.962,13.5,13.5,0,0,1,54.567,33.45Z" fill="#fff"/>
    <path id="Path_140" data-name="Path 140" d="M94.981,117.91a.54.54,0,1,0-.919.566,11.325,11.325,0,1,1-3.722-3.722.54.54,0,0,0,.566-.919,12.4,12.4,0,1,0,4.075,4.075Z" transform="translate(-29.842 -104.447)" fill="#fff"/>
    <path id="Path_141" data-name="Path 141" d="M365.509,157.753a11.473,11.473,0,0,1,.892.892.539.539,0,1,0,.8-.72,12.535,12.535,0,0,0-.977-.977.539.539,0,0,0-.72.8Z" transform="translate(-303.39 -146.236)" fill="#fff"/>
    <path id="Path_142" data-name="Path 142" d="M251.907,144.569A10.207,10.207,0,0,0,248.54,144a.54.54,0,0,0-.54.539v3.776h0v3.237h0v2.7a.54.54,0,0,0,.158.382l6.867,6.867a.539.539,0,0,0,.763,0,10.255,10.255,0,0,0,2.695-9.742.522.522,0,0,0-.016-.066,10.183,10.183,0,0,0-.939-2.365.533.533,0,0,0-.056-.1,10.309,10.309,0,0,0-1.367-1.885.548.548,0,0,0-.052-.062c-.011-.011-.022-.02-.033-.03a10.28,10.28,0,0,0-4.035-2.653A.536.536,0,0,0,251.907,144.569Zm1.151,1.7-3.979,3.979V148.54l2.822-2.822A9.144,9.144,0,0,1,253.058,146.272Zm1.851,1.386-5.83,5.83v-1.711l4.9-4.9A9.244,9.244,0,0,1,254.909,147.658Zm1.443,1.794-5.925,5.925-.856-.856,6.068-6.068A9.214,9.214,0,0,1,256.352,149.451Zm1,2.242-5.3,5.3-.856-.856,5.693-5.693A9.113,9.113,0,0,1,257.348,151.693Zm.363,2.558c0,.108,0,.215-.006.322l-4.04,4.04-.856-.856,4.809-4.809A9.215,9.215,0,0,1,257.711,154.251Zm-6.966-8.9-1.666,1.666v-1.919A9.132,9.132,0,0,1,250.745,145.348Zm4.651,15-.968-.968,3.049-3.049A9.091,9.091,0,0,1,255.4,160.344Z" transform="translate(-193.973 -134.289)" fill="#fff"/>
  </g>
</svg>
