<svg xmlns="http://www.w3.org/2000/svg" width="27.916" height="33.487" viewBox="0 0 27.916 33.487">
  <g id="lightbulb" transform="translate(-35.966)">
    <g id="Group_112" data-name="Group 112" transform="translate(35.966)">
      <g id="Group_111" data-name="Group 111">
        <path id="Path_124" data-name="Path 124" d="M113.941,93.2a8.625,8.625,0,0,0-5.7,15.086c1.363,1.363,1.239,4.275,1.208,4.306a.513.513,0,0,0,.155.4.572.572,0,0,0,.372.155h7.9a.513.513,0,0,0,.372-.155.589.589,0,0,0,.155-.4c0-.031-.155-2.943,1.208-4.306l.093-.093A8.6,8.6,0,0,0,113.941,93.2Zm4.956,14.281c-.031.031-.093.093-.093.124a7.234,7.234,0,0,0-1.456,4.461H110.5a7.2,7.2,0,0,0-1.549-4.585,7.543,7.543,0,1,1,9.944,0Z" transform="translate(-99.957 -85.982)" fill="#fff"/>
        <path id="Path_125" data-name="Path 125" d="M209.856,121.6a.527.527,0,1,0,0,1.053,5.639,5.639,0,0,1,5.638,5.638.527.527,0,1,0,1.053,0A6.663,6.663,0,0,0,209.856,121.6Z" transform="translate(-195.903 -112.183)" fill="#fff"/>
        <path id="Path_126" data-name="Path 126" d="M163.107,358.4H156.23a1.3,1.3,0,1,0,0,2.6h6.846a1.336,1.336,0,0,0,1.332-1.3A1.309,1.309,0,0,0,163.107,358.4Zm0,1.518H156.23a.244.244,0,0,1-.248-.248.228.228,0,0,1,.248-.248h6.846a.244.244,0,0,1,.248.248A.221.221,0,0,1,163.107,359.918Z" transform="translate(-145.716 -330.644)" fill="#fff"/>
        <path id="Path_127" data-name="Path 127" d="M174.263,398.8H169.43a1.3,1.3,0,1,0,0,2.6h4.833a1.309,1.309,0,0,0,1.3-1.3A1.289,1.289,0,0,0,174.263,398.8Zm0,1.518H169.43a.244.244,0,0,1-.248-.248.228.228,0,0,1,.248-.248h4.833a.248.248,0,1,1,0,.5Z" transform="translate(-157.894 -367.915)" fill="#fff"/>
        <path id="Path_128" data-name="Path 128" d="M209.856,4.647a.522.522,0,0,0,.527-.527V.527a.527.527,0,0,0-1.053,0V4.12A.543.543,0,0,0,209.856,4.647Z" transform="translate(-195.903)" fill="#fff"/>
        <path id="Path_129" data-name="Path 129" d="M295.937,33.213a.5.5,0,0,0-.712.124l-1.983,2.974a.51.51,0,0,0,.124.743.5.5,0,0,0,.279.093.494.494,0,0,0,.434-.248l1.983-2.974A.48.48,0,0,0,295.937,33.213Z" transform="translate(-273.217 -30.549)" fill="#fff"/>
        <path id="Path_130" data-name="Path 130" d="M105.508,34.99a.5.5,0,0,0,.279-.093.543.543,0,0,0,.155-.743l-1.921-3a.537.537,0,1,0-.9.589l1.921,3A.514.514,0,0,0,105.508,34.99Z" transform="translate(-97.844 -28.516)" fill="#fff"/>
        <path id="Path_131" data-name="Path 131" d="M39.881,105.053l-3.129-1.7a.545.545,0,0,0-.712.217.5.5,0,0,0,.217.712l3.129,1.7a.729.729,0,0,0,.248.062.511.511,0,0,0,.465-.279A.545.545,0,0,0,39.881,105.053Z" transform="translate(-35.966 -95.295)" fill="#fff"/>
        <path id="Path_132" data-name="Path 132" d="M346.367,103.566a.545.545,0,0,0-.713-.217l-3.16,1.7a.545.545,0,0,0-.217.712.511.511,0,0,0,.465.279.583.583,0,0,0,.248-.062l3.16-1.7A.545.545,0,0,0,346.367,103.566Z" transform="translate(-318.505 -95.295)" fill="#fff"/>
      </g>
    </g>
  </g>
</svg>
