<svg id="pen" xmlns="http://www.w3.org/2000/svg" width="26.8" height="26.799" viewBox="0 0 26.8 26.799">
  <path id="Path_143" data-name="Path 143" d="M19.681,132.187a.419.419,0,0,0-.419.419v13.4a1.258,1.258,0,0,1-1.256,1.256H2.094a1.258,1.258,0,0,1-1.256-1.256V130.094a1.258,1.258,0,0,1,1.256-1.256h13.4a.419.419,0,0,0,0-.837H2.094A2.1,2.1,0,0,0,0,130.094v15.912A2.1,2.1,0,0,0,2.094,148.1H18.006a2.1,2.1,0,0,0,2.094-2.094v-13.4A.419.419,0,0,0,19.681,132.187Z" transform="translate(0 -121.3)" fill="#fff"/>
  <path id="Path_144" data-name="Path 144" d="M192.179.491a1.674,1.674,0,0,0-2.369,0L176.36,13.941a.418.418,0,0,0-.092.139l-1.206,2.982a.419.419,0,0,0,.545.545L178.59,16.4a.419.419,0,0,0,.139-.092l13.45-13.45a1.675,1.675,0,0,0,0-2.369Zm-13.7,14.88L177.3,14.187,189.688,1.8l1.184,1.184Zm-1.647-.462.925.925-1.553.628Zm14.75-12.641-.123.123L190.28,1.206l.123-.123a.837.837,0,1,1,1.184,1.184Z" transform="translate(-165.87 0)" fill="#fff"/>
  <path id="Path_145" data-name="Path 145" d="M73.212,192.419a.419.419,0,0,0-.419-.419H64.419a.419.419,0,1,0,0,.837h8.375A.419.419,0,0,0,73.212,192.419Z" transform="translate(-60.65 -181.95)" fill="#fff"/>
  <path id="Path_146" data-name="Path 146" d="M71.119,232.419A.419.419,0,0,0,70.7,232H64.419a.419.419,0,1,0,0,.837H70.7A.419.419,0,0,0,71.119,232.419Z" transform="translate(-60.65 -219.856)" fill="#fff"/>
  <path id="Path_147" data-name="Path 147" d="M69.444,272H64.419a.419.419,0,1,0,0,.837h5.025a.419.419,0,0,0,0-.837Z" transform="translate(-60.65 -257.763)" fill="#fff"/>
  <path id="Path_148" data-name="Path 148" d="M64.419,312.837h4.187a.419.419,0,1,0,0-.837H64.419a.419.419,0,1,0,0,.837Z" transform="translate(-60.65 -295.669)" fill="#fff"/>
  <path id="Path_149" data-name="Path 149" d="M264,312.419a.419.419,0,0,0,.419.419h2.094a.419.419,0,1,0,0-.837h-2.094A.419.419,0,0,0,264,312.419Z" transform="translate(-250.181 -295.669)" fill="#fff"/>
  <path id="Path_150" data-name="Path 150" d="M304.715,272.715a.419.419,0,1,0-.3.122A.421.421,0,0,0,304.715,272.715Z" transform="translate(-288.088 -257.763)" fill="#fff"/>
  <path id="Path_151" data-name="Path 151" d="M64,352.419a.419.419,0,0,0,.419.419H76.981a.419.419,0,1,0,0-.837H64.419A.419.419,0,0,0,64,352.419Z" transform="translate(-60.65 -333.575)" fill="#fff"/>
  <path id="Path_152" data-name="Path 152" d="M76.981,392H64.419a.419.419,0,1,0,0,.837H76.981a.419.419,0,1,0,0-.837Z" transform="translate(-60.65 -371.482)" fill="#fff"/>
  <path id="Path_153" data-name="Path 153" d="M76.981,432H64.419a.419.419,0,1,0,0,.837H76.981a.419.419,0,1,0,0-.837Z" transform="translate(-60.65 -409.388)" fill="#fff"/>
</svg>
