<svg xmlns="http://www.w3.org/2000/svg" width="32.458" height="32.458" viewBox="0 0 32.458 32.458">
  <g id="bullseye" transform="translate(0 0)">
    <path id="Path_133" data-name="Path 133" d="M27.053,55.667a.507.507,0,0,0-.213.685,13.685,13.685,0,1,1-5.774-5.775.507.507,0,1,0,.472-.9,14.7,14.7,0,1,0,6.2,6.2A.507.507,0,0,0,27.053,55.667Z" transform="translate(0 -44.958)" fill="#fff"/>
    <path id="Path_134" data-name="Path 134" d="M66.176,98.589a.507.507,0,0,0-.148-.7,11.661,11.661,0,1,0,3.416,3.416.507.507,0,1,0-.85.554,10.647,10.647,0,1,1-3.12-3.121A.507.507,0,0,0,66.176,98.589Z" transform="translate(-44.957 -89.915)" fill="#fff"/>
    <path id="Path_135" data-name="Path 135" d="M109.354,146.01a.507.507,0,0,0-.161-.7,8.619,8.619,0,1,0,2.74,2.74.507.507,0,0,0-.86.538,7.6,7.6,0,1,1-2.419-2.419A.507.507,0,0,0,109.354,146.01Z" transform="translate(-89.914 -134.872)" fill="#fff"/>
    <path id="Path_136" data-name="Path 136" d="M152.249,193.237a.507.507,0,0,0-.234-.678,5.526,5.526,0,0,0-2.436-.559,5.579,5.579,0,1,0,5.579,5.579,5.527,5.527,0,0,0-.558-2.434.507.507,0,1,0-.912.443,4.521,4.521,0,0,1,.456,1.991,4.564,4.564,0,1,1-4.564-4.564,4.52,4.52,0,0,1,1.993.457A.507.507,0,0,0,152.249,193.237Z" transform="translate(-134.871 -179.829)" fill="#fff"/>
    <path id="Path_137" data-name="Path 137" d="M194.217,241.7a.507.507,0,0,0-.211-.992,2.536,2.536,0,1,0,3.014,2.991.507.507,0,1,0-.994-.2,1.522,1.522,0,1,1-1.809-1.8Z" transform="translate(-179.828 -225.442)" fill="#fff"/>
    <path id="Path_138" data-name="Path 138" d="M242.218,3.355a.507.507,0,0,0-.469-.313h-2.536V.507a.507.507,0,0,0-.866-.359l-6.339,6.339a.507.507,0,0,0-.149.359V9.679l-7.712,7.712a.507.507,0,0,0,.717.717l7.712-7.712h2.833a.507.507,0,0,0,.359-.149l6.339-6.339A.507.507,0,0,0,242.218,3.355ZM235.2,9.382h-1.609l3.952-3.952a.507.507,0,1,0-.717-.717l-3.952,3.952V7.056L238.2,1.731V3.55a.507.507,0,0,0,.507.507h1.819Z" transform="translate(-209.799 0)" fill="#fff"/>
  </g>
</svg>
