<svg xmlns="http://www.w3.org/2000/svg" width="139.846" height="94.059" viewBox="0 0 139.846 94.059">
  <g id="Group_19" data-name="Group 19" transform="translate(-75.297 -77.396)">
    <path id="Path_8" data-name="Path 8" d="M75.821,202.085v-41.7h4.725v37.321H92.71l-1.077,4.376H75.821Z" transform="translate(-0.347 -54.917)" fill="#fff"/>
    <path id="Path_9" data-name="Path 9" d="M141.056,168.958l-1.739,9.7-1.977,9.766h7.669l-2.032-9.885-1.682-9.581Zm6.707,33.131-1.915-9.287h-9.286l-1.856,9.287h-4.549l8.864-41.7h4.437l8.985,41.7Z" transform="translate(-36.303 -54.92)" fill="#fff"/>
    <path id="Path_10" data-name="Path 10" d="M221.341,160.566V191q0,5.576-2.156,8.6t-7.427,3.027c-3.437,0-5.888-.937-7.372-2.815a11.676,11.676,0,0,1-2.219-7.43v-31.81H206.9v31.826a10.992,10.992,0,0,0,.182,1.911,5.52,5.52,0,0,0,.72,1.906,4.274,4.274,0,0,0,1.46,1.471,4.644,4.644,0,0,0,2.433.569,4.594,4.594,0,0,0,2.459-.6,4.337,4.337,0,0,0,1.491-1.525A6.264,6.264,0,0,0,216.4,194a13.848,13.848,0,0,0,.211-2.452V160.566Z" transform="translate(-83.954 -55.036)" fill="#fff"/>
    <path id="Path_11" data-name="Path 11" d="M278.451,173.568v28.516H273.72v-41.7h4.493l8.625,21.147,2.876,7.609.245-.058v-28.7H294.7v41.7h-4.439l-8.626-20.969-3-7.547Z" transform="translate(-131.302 -54.917)" fill="#fff"/>
    <path id="Path_12" data-name="Path 12" d="M433.946,226.2V182.852h-9.708v19.233h-4.732v-41.7h4.732v18.332h9.708V160.387h4.726V226.2h-4.726Z" transform="translate(-227.773 -54.917)" fill="#fff"/>
    <path id="Path_13" data-name="Path 13" d="M364.275,192.448a6.757,6.757,0,0,1-1.109,3.541,4.061,4.061,0,0,1-3.439,1.437,4.018,4.018,0,0,1-2.31-.6,4.48,4.48,0,0,1-1.373-1.472,5.516,5.516,0,0,1-.69-1.918,11.641,11.641,0,0,1-.179-1.948v-21.02a15.448,15.448,0,0,1,.179-2.274,6.888,6.888,0,0,1,.69-2.191,4.716,4.716,0,0,1,1.4-1.647,4.653,4.653,0,0,1,5.908.958,6.657,6.657,0,0,1,.944,3.09h4.74a10.247,10.247,0,0,0-2.159-6.443c-1.456-1.759-3.795-2.636-7.037-2.636a9.81,9.81,0,0,0-4.737,1.019,7.678,7.678,0,0,0-2.875,2.669,10.67,10.67,0,0,0-1.4,3.769,23.7,23.7,0,0,0-.389,4.343v20.611c0,3.195.77,5.667,2.331,7.423s3.909,2.64,7.068,2.64q4.62,0,6.921-2.514a10.336,10.336,0,0,0,2.406-6.836Z" transform="translate(-182.072 -54.215)" fill="#fff"/>
    <path id="Path_14" data-name="Path 14" d="M200.823,86.7c-42.664-.342-84.6,4.213-125.526,19.572.031.223-.017.5.015.719,40.558-11.792,87.942-15.34,128.273-10.7l-5.013-3.905Z" transform="translate(0 -6.147)" fill="#fff"/>
    <path id="Path_15" data-name="Path 15" d="M456.622,77.4l2.65,3.651,4.518-.121-2.65,3.658,1.509,4.256-4.3-1.393-3.58,2.747,0-4.515-3.72-2.555,4.289-1.4Z" transform="translate(-248.647)" fill="#fff"/>
    <path id="Path_16" data-name="Path 16" d="M187.459,301.159l-.9,4.617-1.155,5.493h4.176l-1.155-5.549-.879-4.562Zm3.434,16.321-1.015-4.617h-4.754l-.989,4.617h-1.593l4.122-19.124h1.7l4.2,19.124Z" transform="translate(-70.967 -146.216)" fill="#fff"/>
    <path id="Path_17" data-name="Path 17" d="M275.294,317.48V298.356h7.995v1.54H276.97v7.061h5.523V308.5H276.97v7.446h6.319v1.541h-7.995Z" transform="translate(-132.344 -146.216)" fill="#fff"/>
    <path id="Path_18" data-name="Path 18" d="M318.642,303.028V317.48h-1.675V298.356h1.592c.109.275.271.67.48,1.183s.448,1.085.715,1.716.538,1.29.823,1.978.56,1.347.827,1.978.5,1.206.712,1.717.378.907.507,1.182l1.924,4.781h.11V298.356h1.674V317.48h-1.593c-.108-.276-.269-.665-.478-1.169s-.45-1.071-.717-1.7-.538-1.29-.823-1.977-.558-1.342-.825-1.966-.507-1.184-.725-1.689-.388-.894-.5-1.167l-1.95-4.781h-.082Z" transform="translate(-159.92 -146.216)" fill="#fff"/>
    <path id="Path_19" data-name="Path 19" d="M410.682,307.18l1.209-3.847,1.647-4.972H415.3c-.112.311-.265.756-.47,1.332s-.423,1.229-.671,1.95-.509,1.476-.783,2.253-.536,1.526-.783,2.239-.468,1.367-.659,1.951-.344,1.027-.452,1.319v8.1H409.8v-8.1c-.11-.294-.261-.732-.452-1.319s-.413-1.237-.662-1.951-.507-1.46-.783-2.239-.533-1.529-.783-2.253-.471-1.374-.671-1.95-.357-1.022-.467-1.332h1.759l1.65,5.028q.083.248.246.77t.358,1.125q.191.606.358,1.128c.111.348.194.6.249.77Z" transform="translate(-218.825 -146.219)" fill="#fff"/>
    <path id="Path_20" data-name="Path 20" d="M371.854,313.258a2.947,2.947,0,0,1-.681,1.848,2.416,2.416,0,0,1-1.814.7,2.6,2.6,0,0,1-1.2-.249,2.176,2.176,0,0,1-.781-.661,2.7,2.7,0,0,1-.442-.952,4.467,4.467,0,0,1-.137-1.09V302.627a5.114,5.114,0,0,1,.137-1.184,3.127,3.127,0,0,1,.442-1.033,2.256,2.256,0,0,1,.781-.732,2.742,2.742,0,0,1,3.091.482,3.017,3.017,0,0,1,.619,1.911h1.707l.01,0a3.825,3.825,0,0,0-4.2-4.2,4.554,4.554,0,0,0-2.02.4,3.5,3.5,0,0,0-1.305,1.071,4.412,4.412,0,0,0-.714,1.58,8.208,8.208,0,0,0-.219,1.924v10.083a4.567,4.567,0,0,0,1.086,3.282,4.182,4.182,0,0,0,3.173,1.14,4.3,4.3,0,0,0,3.037-1.056,4.22,4.22,0,0,0,1.18-3.03h-1.751Z" transform="translate(-191.79 -145.89)" fill="#fff"/>
    <path id="Path_21" data-name="Path 21" d="M234.056,308.529h2.308v4.752a2.346,2.346,0,0,1-.77,1.857,2.823,2.823,0,0,1-1.923.671h-.027a2.608,2.608,0,0,1-1.2-.248,2.22,2.22,0,0,1-.783-.661,2.752,2.752,0,0,1-.441-.949,4.374,4.374,0,0,1-.137-1.089V302.626a5.1,5.1,0,0,1,.137-1.184,3.194,3.194,0,0,1,.441-1.032,2.329,2.329,0,0,1,.783-.731,2.377,2.377,0,0,1,1.2-.275,2.436,2.436,0,0,1,1.88.729,2.936,2.936,0,0,1,.65,1.842h1.7a4.277,4.277,0,0,0-1.125-3.063,4.231,4.231,0,0,0-3.078-1.046,4.809,4.809,0,0,0-2.034.385,3.308,3.308,0,0,0-1.317,1.071,4.288,4.288,0,0,0-.7,1.621,9.373,9.373,0,0,0-.2,2.035v9.973a4.5,4.5,0,0,0,1.1,3.27,4.211,4.211,0,0,0,3.159,1.125,5.039,5.039,0,0,0,1.69-.275,4.1,4.1,0,0,0,1.387-.811,3.761,3.761,0,0,0,.946-1.317,4.509,4.509,0,0,0,.344-1.826v-6.075h-3.6Z" transform="translate(-101.984 -145.892)" fill="#fff"/>
  </g>
</svg>
