<svg xmlns="http://www.w3.org/2000/svg" width="66" height="66" viewBox="0 0 66 66">
  <g id="Group_1759" data-name="Group 1759" transform="translate(-657.754 -1885.73)" opacity="0.563">
    <g id="Group_1750" data-name="Group 1750" transform="translate(657.754 1885.73)">
      <g id="Group_1743" data-name="Group 1743" transform="translate(20.625 20.625)">
        <path id="Path_3234" data-name="Path 3234" d="M786.044,2026.12a12.1,12.1,0,1,1,8.56-20.66h0a12.1,12.1,0,0,1-8.56,20.66Zm0-23.375a11.275,11.275,0,1,0,7.977,3.3A11.246,11.246,0,0,0,786.044,2002.744Z" transform="translate(-773.945 -2001.919)" fill="#fff"/>
      </g>
      <g id="Group_1744" data-name="Group 1744" transform="translate(24.75 24.75)">
        <path id="Path_3235" data-name="Path 3235" d="M805.157,2041.108a7.975,7.975,0,1,1,5.642-2.333A7.954,7.954,0,0,1,805.157,2041.108Zm0-15.128a7.153,7.153,0,1,0,5.058,2.1A7.107,7.107,0,0,0,805.157,2025.979Z" transform="translate(-797.182 -2025.158)" fill="#fff"/>
      </g>
      <g id="Group_1745" data-name="Group 1745" transform="translate(16.492 16.5)">
        <path id="Path_3236" data-name="Path 3236" d="M766.9,2011.132a16.22,16.22,0,1,1,11.478-4.747A16.182,16.182,0,0,1,766.9,2011.132Zm0-31.625a15.395,15.395,0,1,0,10.895,4.505h0A15.361,15.361,0,0,0,766.9,1979.507Z" transform="translate(-750.663 -1978.682)" fill="#fff"/>
      </g>
      <g id="Group_1746" data-name="Group 1746" transform="translate(12.375 12.375)">
        <path id="Path_3237" data-name="Path 3237" d="M747.818,1996.144a20.35,20.35,0,1,1,14.4-5.954A20.3,20.3,0,0,1,747.818,1996.144Zm0-39.875a19.525,19.525,0,1,0,13.813,5.712A19.475,19.475,0,0,0,747.818,1956.269Z" transform="translate(-727.468 -1955.444)" fill="#fff"/>
      </g>
      <g id="Group_1747" data-name="Group 1747" transform="translate(8.238 8.25)">
        <path id="Path_3238" data-name="Path 3238" d="M728.651,1981.155a24.467,24.467,0,1,1,17.315-7.161A24.41,24.41,0,0,1,728.651,1981.155Zm0-48.125a23.642,23.642,0,1,0,16.731,6.919A23.586,23.586,0,0,0,728.651,1933.03Z" transform="translate(-704.165 -1932.205)" fill="#fff"/>
      </g>
      <g id="Group_1748" data-name="Group 1748" transform="translate(4.125 4.112)">
        <path id="Path_3239" data-name="Path 3239" d="M709.592,1966.119a28.614,28.614,0,1,1,20.233-8.381A28.426,28.426,0,0,1,709.592,1966.119Zm0-56.4a27.788,27.788,0,1,0,19.649,8.139A27.606,27.606,0,0,0,709.592,1909.717Z" transform="translate(-680.992 -1908.892)" fill="#fff"/>
      </g>
      <g id="Group_1749" data-name="Group 1749">
        <path id="Path_3240" data-name="Path 3240" d="M690.479,1951.18A32.734,32.734,0,1,1,713.63,1895.3h0a32.725,32.725,0,0,1-23.151,55.876Zm0-64.625a31.9,31.9,0,1,0,22.567,9.333h0A31.816,31.816,0,0,0,690.479,1886.555Z" transform="translate(-657.754 -1885.73)" fill="#fff"/>
      </g>
    </g>
    <g id="Group_1758" data-name="Group 1758" transform="translate(666.939 1894.915)">
      <g id="Group_1751" data-name="Group 1751" transform="translate(14.591 14.591)">
        <path id="Path_3241" data-name="Path 3241" d="M800.643,2041.269a12.618,12.618,0,0,1-8.949-3.7l1.362-1.362a10.73,10.73,0,0,0,15.174-15.175l1.362-1.362a12.65,12.65,0,0,1-8.949,21.6Z" transform="translate(-791.694 -2019.67)" fill="#fff"/>
      </g>
      <g id="Group_1752" data-name="Group 1752" transform="translate(17.509 17.509)">
        <path id="Path_3242" data-name="Path 3242" d="M814.164,2050.665a8.5,8.5,0,0,1-6.031-2.494l1.362-1.362a6.6,6.6,0,0,0,9.338-9.338l1.362-1.362a8.525,8.525,0,0,1-6.031,14.556Z" transform="translate(-808.133 -2036.109)" fill="#fff"/>
      </g>
      <g id="Group_1753" data-name="Group 1753" transform="translate(11.673 11.673)">
        <path id="Path_3243" data-name="Path 3243" d="M787.122,2031.872a16.726,16.726,0,0,1-11.867-4.907l1.362-1.362a14.857,14.857,0,1,0,21.011-21.011l1.362-1.362a16.775,16.775,0,0,1-11.867,28.642Z" transform="translate(-775.255 -2003.23)" fill="#fff"/>
      </g>
      <g id="Group_1754" data-name="Group 1754" transform="translate(8.755 8.755)">
        <path id="Path_3244" data-name="Path 3244" d="M773.6,2022.477a20.845,20.845,0,0,1-14.785-6.115l1.362-1.362a18.984,18.984,0,0,0,26.847-26.847l1.362-1.362a20.9,20.9,0,0,1-14.786,35.686Z" transform="translate(-758.815 -1986.791)" fill="#fff"/>
      </g>
      <g id="Group_1755" data-name="Group 1755" transform="translate(5.837 5.836)">
        <path id="Path_3245" data-name="Path 3245" d="M760.08,2013.08a24.959,24.959,0,0,1-17.7-7.321l1.362-1.362a23.111,23.111,0,1,0,32.684-32.684l1.362-1.362a25.025,25.025,0,0,1-17.7,42.729Z" transform="translate(-742.376 -1970.351)" fill="#fff"/>
      </g>
      <g id="Group_1756" data-name="Group 1756" transform="translate(2.918 2.918)">
        <path id="Path_3246" data-name="Path 3246" d="M746.558,2003.7a28.972,28.972,0,0,1-20.622-8.542l1.362-1.362a27.238,27.238,0,0,0,38.52-38.52l1.362-1.362a29.164,29.164,0,0,1-20.622,49.786Z" transform="translate(-725.936 -1953.912)" fill="#fff"/>
      </g>
      <g id="Group_1757" data-name="Group 1757">
        <path id="Path_3247" data-name="Path 3247" d="M733.036,1994.287a33.187,33.187,0,0,1-23.54-9.735l1.362-1.362a31.365,31.365,0,0,0,44.357-44.356l1.362-1.362a33.275,33.275,0,0,1-23.54,56.815Z" transform="translate(-709.496 -1937.472)" fill="#fff"/>
      </g>
    </g>
  </g>
</svg>
