<svg xmlns="http://www.w3.org/2000/svg" width="236.319" height="230.029" viewBox="0 0 236.319 230.029">
  <g id="Group_2525" data-name="Group 2525" transform="translate(1414.157 1411.603) rotate(180)">
    <g id="Group_1824" data-name="Group 1824" transform="translate(1209.831 1207.277)">
      <path id="Path_3308" data-name="Path 3308" d="M1216.8,1212.873h204.326L1320.818,1417.2Z" transform="translate(-1216.798 -1212.873)" fill="#ffd300"/>
    </g>
    <g id="Group_1847" data-name="Group 1847" transform="translate(1177.838 1181.574)">
      <g id="Group_1825" data-name="Group 1825">
        <path id="Path_3309" data-name="Path 3309" d="M1284.939,1391.943l-107.1-210.369h210.377ZM1183.934,1185.31l100.945,198.279,97.342-198.279Z" transform="translate(-1177.838 -1181.574)" fill="#38382e"/>
      </g>
      <g id="Group_1846" data-name="Group 1846" transform="translate(9.877 16.775)">
        <g id="Group_1827" data-name="Group 1827">
          <g id="Group_1826" data-name="Group 1826">
            <path id="Path_3310" data-name="Path 3310" d="M1380.785,1202l-1.838,3.736H1191.764l-1.9-3.736Z" transform="translate(-1189.866 -1202.001)" fill="#38382e"/>
          </g>
        </g>
        <g id="Group_1829" data-name="Group 1829" transform="translate(9.056 17.783)">
          <g id="Group_1828" data-name="Group 1828">
            <path id="Path_3311" data-name="Path 3311" d="M1374.023,1223.656H1200.894l1.9,3.736h169.4Z" transform="translate(-1200.894 -1223.656)" fill="#38382e"/>
          </g>
        </g>
        <g id="Group_1831" data-name="Group 1831" transform="translate(18.104 35.566)">
          <g id="Group_1830" data-name="Group 1830">
            <path id="Path_3312" data-name="Path 3312" d="M1367.266,1245.312l-1.838,3.736h-151.61l-1.905-3.736Z" transform="translate(-1211.912 -1245.312)" fill="#38382e"/>
          </g>
        </g>
        <g id="Group_1833" data-name="Group 1833" transform="translate(27.16 53.349)">
          <g id="Group_1832" data-name="Group 1832">
            <path id="Path_3313" data-name="Path 3313" d="M1360.511,1266.967l-1.838,3.736H1224.838l-1.9-3.736Z" transform="translate(-1222.94 -1266.967)" fill="#38382e"/>
          </g>
        </g>
        <g id="Group_1835" data-name="Group 1835" transform="translate(36.216 71.132)">
          <g id="Group_1834" data-name="Group 1834">
            <path id="Path_3314" data-name="Path 3314" d="M1353.748,1288.622l-1.831,3.736H1235.866l-1.9-3.736Z" transform="translate(-1233.968 -1288.622)" fill="#38382e"/>
          </g>
        </g>
        <g id="Group_1837" data-name="Group 1837" transform="translate(45.264 88.914)">
          <g id="Group_1836" data-name="Group 1836">
            <path id="Path_3315" data-name="Path 3315" d="M1346.992,1310.277l-1.838,3.736h-98.262l-1.906-3.736Z" transform="translate(-1244.986 -1310.277)" fill="#38382e"/>
          </g>
        </g>
        <g id="Group_1839" data-name="Group 1839" transform="translate(54.312 106.69)">
          <g id="Group_1838" data-name="Group 1838">
            <path id="Path_3316" data-name="Path 3316" d="M1340.235,1331.923l-1.838,3.736h-80.486l-1.905-3.736Z" transform="translate(-1256.005 -1331.923)" fill="#38382e"/>
          </g>
        </g>
        <g id="Group_1841" data-name="Group 1841" transform="translate(63.368 124.473)">
          <g id="Group_1840" data-name="Group 1840">
            <path id="Path_3317" data-name="Path 3317" d="M1333.472,1353.578l-1.831,3.736h-62.7l-1.905-3.736Z" transform="translate(-1267.033 -1353.578)" fill="#38382e"/>
          </g>
        </g>
        <g id="Group_1843" data-name="Group 1843" transform="translate(72.499 142.413)">
          <g id="Group_1842" data-name="Group 1842">
            <path id="Path_3318" data-name="Path 3318" d="M1326.659,1375.425l-1.838,3.736h-44.764l-1.905-3.736Z" transform="translate(-1278.152 -1375.425)" fill="#38382e"/>
          </g>
        </g>
        <g id="Group_1845" data-name="Group 1845" transform="translate(81.555 160.195)">
          <g id="Group_1844" data-name="Group 1844">
            <path id="Path_3319" data-name="Path 3319" d="M1319.9,1397.08l-1.831,3.736h-26.981l-1.905-3.736Z" transform="translate(-1289.179 -1397.08)" fill="#38382e"/>
          </g>
        </g>
      </g>
    </g>
  </g>
</svg>
