<svg xmlns="http://www.w3.org/2000/svg" width="135.983" height="132.968" viewBox="0 0 135.983 132.968">
  <g id="Group_1782" data-name="Group 1782" transform="translate(1038.466 1801.724) rotate(158)">
    <g id="Group_1041" data-name="Group 1041" transform="translate(211.4 1922.346)">
      <path id="Path_2742" data-name="Path 2742" d="M351.412,1940.862,332.9,1922.346l-27.425,27.425-27.425-27.425-18.516,18.516,27.425,27.425-27.425,27.425,18.516,18.516L305.47,1986.8l27.425,27.425,18.516-18.516-27.425-27.425Z" transform="translate(-259.529 -1922.346)" fill="#03297e"/>
    </g>
    <g id="Group_1044" data-name="Group 1044" transform="translate(193.744 1929.615)">
      <g id="Group_1042" data-name="Group 1042" transform="translate(1.362 1.362)">
        <path id="Path_2743" data-name="Path 2743" d="M198.82,2026.512l26.742-26.742a.963.963,0,0,0,0-1.362l-6.637-6.636-1.5-1.506c-.018-.018-.037-.035-.056-.052l-3.661-3.66-1.374-1.379-3.1-3.1-1.371-1.375-9.043-9.042,17.155-17.155,20.957,20.957,1.178,1.182,2.106,2.1,1.177,1.181,1.323,1.323a.963.963,0,0,0,1.362,0l26.746-26.746,6.333,6.333,1.37,1.375,9.448,9.448-14.4,14.4-12.344,12.347a.963.963,0,0,0,0,1.362l26.742,26.742-7.893,7.894-3.8,3.807-5.421,5.421-.035.031-26.744-26.744a.964.964,0,0,0-1.362,0l-8.933,8.933-3.85,3.854-1.537,1.532-4,4-3.376,3.38-5.049,5.049Z" transform="translate(-198.82 -1954.507)" fill="#fff"/>
      </g>
      <g id="Group_1043" data-name="Group 1043">
        <path id="Path_2744" data-name="Path 2744" d="M212.261,1952.157l20.274,20.274,1.183,1.187,2.1,2.1L237,1976.9l1.322,1.322a1.927,1.927,0,0,0,2.725,0l1.846-1.846,1.38-1.38,4.624-4.624,3.9-3.9,1.545-1.545,2.143-2.143,3.731-3.73,6.9-6.9,5.649,5.65,1.374,1.377,4.47,4.47,3.137,3.137,1.158,1.158-13.725,13.725-5.619,5.623-.014.014-6.7,6.7a1.927,1.927,0,0,0,0,2.725l.551.551,1.773,1.773,4.659,4.659,1.453,1.453,7.241,7.241,1.214,1.214L279,2018.9l3.172,3.172.726.726-5.825,5.825-1.388,1.388-2.465,2.469-1.337,1.337-4.773,4.773-3-3-1.626-1.626-7.3-7.3L254,2025.479l-12.952-12.952a1.927,1.927,0,0,0-2.725,0l-2.933,2.933-.231.231-1.152,1.152-3.233,3.233-1.384,1.384-3.847,3.851L224,2026.847l-4,4-1.308,1.312-.755.755-1.31,1.31-4.368,4.368-1.181-1.181-1.376-1.375-8.948-8.948-3.095-3.094-1.192-1.192,13.783-13.783,12.278-12.278a1.927,1.927,0,0,0,0-2.725l-6.634-6.634-1.5-1.507c-.025-.025-.05-.049-.076-.072l-3.639-3.639-1.379-1.382-3.1-3.092-1.374-1.378-7.569-7.569-.792-.792,15.792-15.792Zm54.85-2.725-8.263,8.262-3.73,3.731-2.143,2.142-1.545,1.545-3.9,3.9-4.625,4.625-1.38,1.379-1.846,1.846-1.322-1.322-1.179-1.183-2.1-2.1-1.179-1.183-21.639-21.639-1.16,1.16-17.357,17.357.775.775,1.38,1.38,7.568,7.569,1.372,1.376,3.1,3.094,1.376,1.38,3.711,3.711h0l1.5,1.507,6.636,6.636-12.278,12.278L193.744,2022.8l1.179,1.179,1.376,1.376,3.094,3.094,8.948,8.948,1.376,1.375,2.543,2.543,5.731-5.73,1.31-1.31.755-.755,1.311-1.314,4-4,1.538-1.534,3.85-3.854,1.384-1.384,3.233-3.233,0,0,1.148-1.148.231-.231,2.933-2.933,12.953,12.952,1.187,1.187,7.3,7.3,1.626,1.626,4.2,4.2.162.162.659-.663s.008,0,.012-.008l5.465-5.465,1.337-1.337,2.466-2.47,1.387-1.387,7.187-7.187-.69-.69-1.4-1.4-3.172-3.171-5.272-5.272-1.214-1.214-7.241-7.241-1.453-1.453-4.659-4.659-1.772-1.773-.551-.551,6.7-6.7,0,0,5.63-5.634.008-.008,15.079-15.08-1.125-1.125-1.4-1.395-3.137-3.137-4.47-4.47-1.372-1.376-7.014-7.014Z" transform="translate(-193.744 -1949.432)" fill="#03297e"/>
      </g>
    </g>
    <g id="Group_1045" data-name="Group 1045" transform="translate(212.259 1994.074)">
      <path id="Path_2745" data-name="Path 2745" d="M262.731,2217.031l17.657-7.271,14.925-14.99-5.157-5.164Z" transform="translate(-262.731 -2189.606)" fill="#fb5f88"/>
    </g>
    <g id="Group_1046" data-name="Group 1046" transform="translate(267.11 1995.713)">
      <path id="Path_2746" data-name="Path 2746" d="M467.1,2221.5l17.657-7.271,18.516-18.516-17.657,7.27Z" transform="translate(-467.104 -2195.71)" fill="#fb5f88"/>
    </g>
    <g id="Group_1047" data-name="Group 1047" transform="translate(212.259 1922.346)">
      <path id="Path_2747" data-name="Path 2747" d="M262.731,1929.616l17.657-7.27,22.242,22.193-12.473,12.5Z" transform="translate(-262.731 -1922.346)" fill="#ffd300"/>
    </g>
    <g id="Group_1048" data-name="Group 1048" transform="translate(267.11 1922.346)">
      <path id="Path_2748" data-name="Path 2748" d="M467.1,1929.616l17.657-7.27,18.516,18.516-17.657,7.271Z" transform="translate(-467.104 -1922.346)" fill="#ffd300"/>
    </g>
    <g id="Group_1148" data-name="Group 1148" transform="translate(198.057 1935.469)">
      <g id="Group_1053" data-name="Group 1053" transform="translate(10.264 16.581)">
        <g id="Group_1050" data-name="Group 1050" transform="translate(0 1.447)">
          <g id="Group_1049" data-name="Group 1049">
            <path id="Path_2749" data-name="Path 2749" d="M251.91,2048.159a.844.844,0,0,1-.8-.535l-3.005-8.154a.784.784,0,0,1,.521-1.011.858.858,0,0,1,1.075.491l3.005,8.154a.784.784,0,0,1-.521,1.011A.887.887,0,0,1,251.91,2048.159Z" transform="translate(-248.06 -2038.415)" fill="#03297e"/>
          </g>
        </g>
        <g id="Group_1052" data-name="Group 1052" transform="translate(4.433)">
          <g id="Group_1051" data-name="Group 1051">
            <path id="Path_2750" data-name="Path 2750" d="M268.426,2042.767a.844.844,0,0,1-.8-.535l-3.005-8.154a.784.784,0,0,1,.521-1.011.858.858,0,0,1,1.075.49l3.005,8.154a.784.784,0,0,1-.521,1.011A.889.889,0,0,1,268.426,2042.767Z" transform="translate(-264.576 -2033.022)" fill="#03297e"/>
          </g>
        </g>
      </g>
      <g id="Group_1058" data-name="Group 1058" transform="translate(20.869 50.041)">
        <g id="Group_1055" data-name="Group 1055" transform="translate(1.721)">
          <g id="Group_1054" data-name="Group 1054">
            <path id="Path_2751" data-name="Path 2751" d="M303.364,2162.453a.892.892,0,0,1-.309-.056l-8.531-3.167a.78.78,0,0,1-.476-1.031.861.861,0,0,1,1.1-.448l8.531,3.167a.781.781,0,0,1,.476,1.031A.846.846,0,0,1,303.364,2162.453Z" transform="translate(-293.988 -2157.696)" fill="#03297e"/>
          </g>
        </g>
        <g id="Group_1057" data-name="Group 1057" transform="translate(0 4.108)">
          <g id="Group_1056" data-name="Group 1056">
            <path id="Path_2752" data-name="Path 2752" d="M296.949,2177.759a.891.891,0,0,1-.309-.056l-8.531-3.167a.781.781,0,0,1-.476-1.031.861.861,0,0,1,1.1-.448l8.531,3.167a.781.781,0,0,1,.476,1.031A.846.846,0,0,1,296.949,2177.759Z" transform="translate(-287.574 -2173.001)" fill="#03297e"/>
          </g>
        </g>
      </g>
      <g id="Group_1063" data-name="Group 1063" transform="translate(11.453)">
        <g id="Group_1060" data-name="Group 1060" transform="translate(0.974 4.094)">
          <g id="Group_1059" data-name="Group 1059">
            <path id="Path_2753" data-name="Path 2753" d="M256.964,1989.882a.835.835,0,0,1-.825-.63.8.8,0,0,1,.651-.943l8.97-1.793a.847.847,0,0,1,1,.612.8.8,0,0,1-.651.943l-8.97,1.793A.905.905,0,0,1,256.964,1989.882Z" transform="translate(-256.12 -1986.499)" fill="#03297e"/>
          </g>
        </g>
        <g id="Group_1062" data-name="Group 1062">
          <g id="Group_1061" data-name="Group 1061">
            <path id="Path_2754" data-name="Path 2754" d="M262.45,1972.6l-8.941,1.784a.915.915,0,0,1-.177.016.834.834,0,0,1-.825-.628.8.8,0,0,1,.651-.944l7.935-1.584Z" transform="translate(-252.489 -1971.243)" fill="#03297e"/>
          </g>
        </g>
      </g>
      <g id="Group_1068" data-name="Group 1068" transform="translate(12.592 61.631)">
        <g id="Group_1065" data-name="Group 1065">
          <g id="Group_1064" data-name="Group 1064">
            <path id="Path_2755" data-name="Path 2755" d="M257.576,2210.055a.884.884,0,0,1-.4-.1.772.772,0,0,1-.34-1.078l4.371-7.588a.872.872,0,0,1,1.145-.32.772.772,0,0,1,.34,1.078l-4.371,7.587A.854.854,0,0,1,257.576,2210.055Z" transform="translate(-256.732 -2200.878)" fill="#03297e"/>
          </g>
        </g>
        <g id="Group_1067" data-name="Group 1067" transform="translate(4.125 2.105)">
          <g id="Group_1066" data-name="Group 1066">
            <path id="Path_2756" data-name="Path 2756" d="M272.944,2217.9a.881.881,0,0,1-.4-.1.772.772,0,0,1-.34-1.078l4.371-7.587a.872.872,0,0,1,1.145-.32.772.772,0,0,1,.34,1.078l-4.371,7.587A.853.853,0,0,1,272.944,2217.9Z" transform="translate(-272.1 -2208.72)" fill="#03297e"/>
          </g>
        </g>
      </g>
      <g id="Group_1073" data-name="Group 1073" transform="translate(44.035 43.149)">
        <g id="Group_1070" data-name="Group 1070" transform="translate(0 1.532)">
          <g id="Group_1069" data-name="Group 1069">
            <path id="Path_2757" data-name="Path 2757" d="M377.916,2147.408a.845.845,0,0,1-.792-.519l-3.183-8.094a.783.783,0,0,1,.5-1.022.861.861,0,0,1,1.085.47l3.183,8.094a.783.783,0,0,1-.5,1.021A.888.888,0,0,1,377.916,2147.408Z" transform="translate(-373.888 -2137.723)" fill="#03297e"/>
          </g>
        </g>
        <g id="Group_1072" data-name="Group 1072" transform="translate(4.4)">
          <g id="Group_1071" data-name="Group 1071">
            <path id="Path_2758" data-name="Path 2758" d="M394.311,2141.7a.845.845,0,0,1-.792-.519l-3.183-8.094a.783.783,0,0,1,.5-1.021.861.861,0,0,1,1.086.47l3.183,8.094a.783.783,0,0,1-.5,1.021A.9.9,0,0,1,394.311,2141.7Z" transform="translate(-390.283 -2132.014)" fill="#03297e"/>
          </g>
        </g>
      </g>
      <g id="Group_1078" data-name="Group 1078" transform="translate(54.579 67.405)">
        <g id="Group_1075" data-name="Group 1075">
          <g id="Group_1074" data-name="Group 1074">
            <path id="Path_2759" data-name="Path 2759" d="M421.208,2223.869l-6.844,3.862-1.187-1.187,7.164-4.039a.878.878,0,0,1,1.16.273A.77.77,0,0,1,421.208,2223.869Z" transform="translate(-413.177 -2222.392)" fill="#03297e"/>
          </g>
        </g>
        <g id="Group_1077" data-name="Group 1077" transform="translate(3.295 3.788)">
          <g id="Group_1076" data-name="Group 1076">
            <path id="Path_2760" data-name="Path 2760" d="M432.6,2237.984l-5.966,3.364-1.183-1.183,6.282-3.545a.879.879,0,0,1,1.16.274A.77.77,0,0,1,432.6,2237.984Z" transform="translate(-425.454 -2236.507)" fill="#03297e"/>
          </g>
        </g>
      </g>
      <g id="Group_1083" data-name="Group 1083" transform="translate(54.345 2.408)">
        <g id="Group_1080" data-name="Group 1080" transform="translate(2.716)">
          <g id="Group_1079" data-name="Group 1079">
            <path id="Path_2761" data-name="Path 2761" d="M426.443,1981.682l-4.019,2.266,3.73-3.73a.827.827,0,0,1,.578.374A.772.772,0,0,1,426.443,1981.682Z" transform="translate(-422.424 -1980.217)" fill="#03297e"/>
          </g>
        </g>
        <g id="Group_1082" data-name="Group 1082" transform="translate(0 3.775)">
          <g id="Group_1081" data-name="Group 1081">
            <path id="Path_2762" data-name="Path 2762" d="M413.15,2000.307a.857.857,0,0,1-.725-.386.769.769,0,0,1,.29-1.09l7.866-4.436a.875.875,0,0,1,1.159.274.769.769,0,0,1-.29,1.09l-7.866,4.436A.883.883,0,0,1,413.15,2000.307Z" transform="translate(-412.304 -1994.281)" fill="#03297e"/>
          </g>
        </g>
      </g>
      <g id="Group_1088" data-name="Group 1088" transform="translate(66.488 8.458)">
        <g id="Group_1085" data-name="Group 1085" transform="translate(0 2.885)">
          <g id="Group_1084" data-name="Group 1084">
            <path id="Path_2763" data-name="Path 2763" d="M464.557,2021.468a.856.856,0,0,1-.289.769.769.769,0,0,1-1.119-.146l-5.424-7.221a.875.875,0,0,1,.12-1.184.769.769,0,0,1,1.119.146l5.424,7.221A.879.879,0,0,1,464.557,2021.468Z" transform="translate(-457.55 -2013.507)" fill="#03297e"/>
          </g>
        </g>
        <g id="Group_1087" data-name="Group 1087" transform="translate(3.441)">
          <g id="Group_1086" data-name="Group 1086">
            <path id="Path_2764" data-name="Path 2764" d="M477.38,2010.719a.856.856,0,0,1-.289.769.769.769,0,0,1-1.119-.146l-5.424-7.221a.875.875,0,0,1,.12-1.184.769.769,0,0,1,1.119.146l5.423,7.221A.88.88,0,0,1,477.38,2010.719Z" transform="translate(-470.372 -2002.758)" fill="#03297e"/>
          </g>
        </g>
      </g>
      <g id="Group_1093" data-name="Group 1093" transform="translate(73.44 68.655)">
        <g id="Group_1090" data-name="Group 1090" transform="translate(0 1.042)">
          <g id="Group_1089" data-name="Group 1089">
            <path id="Path_2765" data-name="Path 2765" d="M486.538,2239.795l-1.337,1.337a.8.8,0,0,1-.112-.285l-1.622-8.883a.874.874,0,0,1,.636-1.01.774.774,0,0,1,.936.632Z" transform="translate(-483.451 -2230.934)" fill="#03297e"/>
          </g>
        </g>
        <g id="Group_1092" data-name="Group 1092" transform="translate(4.367)">
          <g id="Group_1091" data-name="Group 1091">
            <path id="Path_2766" data-name="Path 2766" d="M502.3,2233.1l-1.387,1.387-1.172-6.4a.879.879,0,0,1,.636-1.006.767.767,0,0,1,.937.632Z" transform="translate(-499.724 -2227.052)" fill="#03297e"/>
          </g>
        </g>
      </g>
      <g id="Group_1098" data-name="Group 1098" transform="translate(48.618 25.366)">
        <g id="Group_1095" data-name="Group 1095" transform="translate(0 4.083)">
          <g id="Group_1094" data-name="Group 1094">
            <path id="Path_2767" data-name="Path 2767" d="M400.288,2085.847a.889.889,0,0,1-.322-.06l-8.479-3.287a.779.779,0,0,1-.459-1.038.864.864,0,0,1,1.1-.432l8.479,3.287a.779.779,0,0,1,.459,1.038A.847.847,0,0,1,400.288,2085.847Z" transform="translate(-390.965 -2080.97)" fill="#03297e"/>
          </g>
        </g>
        <g id="Group_1097" data-name="Group 1097" transform="translate(1.787)">
          <g id="Group_1096" data-name="Group 1096">
            <path id="Path_2768" data-name="Path 2768" d="M406.946,2070.634a.883.883,0,0,1-.321-.06l-8.479-3.287a.779.779,0,0,1-.459-1.038.864.864,0,0,1,1.1-.432l8.479,3.287a.779.779,0,0,1,.459,1.038A.847.847,0,0,1,406.946,2070.634Z" transform="translate(-397.622 -2065.757)" fill="#03297e"/>
          </g>
        </g>
      </g>
      <g id="Group_1103" data-name="Group 1103" transform="translate(32.697 15.785)">
        <g id="Group_1100" data-name="Group 1100" transform="translate(3.833 3.283)">
          <g id="Group_1099" data-name="Group 1099">
            <path id="Path_2769" data-name="Path 2769" d="M349.7,2043.474l-2.239,2.986a.863.863,0,0,1-.69.335.876.876,0,0,1-.49-.146.762.762,0,0,1-.2-1.106l2.44-3.252Z" transform="translate(-345.927 -2042.291)" fill="#03297e"/>
          </g>
        </g>
        <g id="Group_1102" data-name="Group 1102">
          <g id="Group_1101" data-name="Group 1101">
            <path id="Path_2770" data-name="Path 2770" d="M335.969,2031.24l-2.79,3.723a.858.858,0,0,1-.69.335.881.881,0,0,1-.486-.142.768.768,0,0,1-.2-1.11l2.991-3.988Z" transform="translate(-331.645 -2030.057)" fill="#03297e"/>
          </g>
        </g>
      </g>
      <g id="Group_1108" data-name="Group 1108" transform="translate(58.713 51.166)">
        <g id="Group_1105" data-name="Group 1105">
          <g id="Group_1104" data-name="Group 1104">
            <path id="Path_2771" data-name="Path 2771" d="M429.425,2169a.865.865,0,0,1-.649-.287.763.763,0,0,1,.109-1.12l7.051-5.518a.881.881,0,0,1,1.189.1.763.763,0,0,1-.109,1.119l-7.051,5.518A.877.877,0,0,1,429.425,2169Z" transform="translate(-428.58 -2161.887)" fill="#03297e"/>
          </g>
        </g>
        <g id="Group_1107" data-name="Group 1107" transform="translate(3 3.396)">
          <g id="Group_1106" data-name="Group 1106">
            <path id="Path_2772" data-name="Path 2772" d="M440.6,2181.647a.865.865,0,0,1-.65-.287.764.764,0,0,1,.109-1.12l7.051-5.518a.881.881,0,0,1,1.189.1.763.763,0,0,1-.109,1.119l-7.051,5.518A.873.873,0,0,1,440.6,2181.647Z" transform="translate(-439.757 -2174.539)" fill="#03297e"/>
          </g>
        </g>
      </g>
      <g id="Group_1113" data-name="Group 1113" transform="translate(27.058 32.062)">
        <g id="Group_1110" data-name="Group 1110" transform="translate(4.552)">
          <g id="Group_1109" data-name="Group 1109">
            <path id="Path_2773" data-name="Path 2773" d="M330.665,2100.667a.837.837,0,0,1-.819-.6l-2.228-8.372a.792.792,0,0,1,.614-.964.85.85,0,0,1,1.024.578l2.228,8.372a.793.793,0,0,1-.614.964A.9.9,0,0,1,330.665,2100.667Z" transform="translate(-327.593 -2090.705)" fill="#03297e"/>
          </g>
        </g>
        <g id="Group_1112" data-name="Group 1112" transform="translate(0 1.073)">
          <g id="Group_1111" data-name="Group 1111">
            <path id="Path_2774" data-name="Path 2774" d="M313.706,2104.665a.837.837,0,0,1-.819-.6l-2.229-8.372a.793.793,0,0,1,.614-.964.85.85,0,0,1,1.024.578l2.229,8.372a.793.793,0,0,1-.614.964A.9.9,0,0,1,313.706,2104.665Z" transform="translate(-310.634 -2094.703)" fill="#03297e"/>
          </g>
        </g>
      </g>
      <g id="Group_1115" data-name="Group 1115" transform="translate(18.622 44.553)">
        <g id="Group_1114" data-name="Group 1114">
          <path id="Path_2775" data-name="Path 2775" d="M280.723,2140.11h.15a1.618,1.618,0,0,0,1.075-.419,1.372,1.372,0,0,0,0-2.023,1.631,1.631,0,0,0-1.075-.419h-.15a1.62,1.62,0,0,0-1.075.419,1.371,1.371,0,0,0,0,2.023,1.631,1.631,0,0,0,1.075.419Z" transform="translate(-279.201 -2137.248)" fill="#03297e"/>
        </g>
      </g>
      <g id="Group_1117" data-name="Group 1117" transform="translate(24.514 22.08)">
        <g id="Group_1116" data-name="Group 1116">
          <path id="Path_2776" data-name="Path 2776" d="M302.677,2056.374h.15a1.62,1.62,0,0,0,1.075-.419,1.372,1.372,0,0,0,0-2.024,1.632,1.632,0,0,0-1.075-.419h-.15a1.619,1.619,0,0,0-1.075.419,1.372,1.372,0,0,0,0,2.024,1.632,1.632,0,0,0,1.075.419Z" transform="translate(-301.156 -2053.512)" fill="#03297e"/>
        </g>
      </g>
      <g id="Group_1119" data-name="Group 1119" transform="translate(46.106 37.344)">
        <g id="Group_1118" data-name="Group 1118">
          <path id="Path_2777" data-name="Path 2777" d="M381.6,2111.817v.141a1.434,1.434,0,0,0,.445,1.012,1.588,1.588,0,0,0,2.15,0,1.444,1.444,0,0,0,.445-1.012v-.141a1.434,1.434,0,0,0-.445-1.012,1.587,1.587,0,0,0-2.15,0,1.444,1.444,0,0,0-.445,1.012Z" transform="translate(-381.605 -2110.385)" fill="#03297e"/>
        </g>
      </g>
      <g id="Group_1121" data-name="Group 1121" transform="translate(3.788 11.279)">
        <g id="Group_1120" data-name="Group 1120">
          <path id="Path_2778" data-name="Path 2778" d="M223.93,2014.7v.141a1.434,1.434,0,0,0,.445,1.012,1.589,1.589,0,0,0,2.15,0,1.445,1.445,0,0,0,.445-1.012v-.141a1.433,1.433,0,0,0-.445-1.012,1.588,1.588,0,0,0-2.15,0,1.444,1.444,0,0,0-.445,1.012Z" transform="translate(-223.93 -2013.267)" fill="#03297e"/>
        </g>
      </g>
      <g id="Group_1123" data-name="Group 1123" transform="translate(21.574 11.892)">
        <g id="Group_1122" data-name="Group 1122">
          <path id="Path_2779" data-name="Path 2779" d="M290.2,2016.984v.141a1.434,1.434,0,0,0,.445,1.012,1.589,1.589,0,0,0,2.15,0,1.444,1.444,0,0,0,.445-1.012v-.141a1.433,1.433,0,0,0-.445-1.011,1.588,1.588,0,0,0-2.15,0,1.444,1.444,0,0,0-.445,1.011Z" transform="translate(-290.199 -2015.552)" fill="#03297e"/>
        </g>
      </g>
      <g id="Group_1125" data-name="Group 1125" transform="translate(68.184 0.853)">
        <g id="Group_1124" data-name="Group 1124">
          <path id="Path_2780" data-name="Path 2780" d="M463.87,1975.852v.141a1.433,1.433,0,0,0,.445,1.012,1.588,1.588,0,0,0,2.15,0,1.444,1.444,0,0,0,.445-1.012v-.141a1.433,1.433,0,0,0-.445-1.012,1.589,1.589,0,0,0-2.15,0,1.444,1.444,0,0,0-.445,1.012Z" transform="translate(-463.87 -1974.42)" fill="#03297e"/>
        </g>
      </g>
      <g id="Group_1127" data-name="Group 1127" transform="translate(79.53 9.745)">
        <g id="Group_1126" data-name="Group 1126">
          <path id="Path_2781" data-name="Path 2781" d="M506.145,2008.986v.141a1.434,1.434,0,0,0,.445,1.012,1.589,1.589,0,0,0,2.15,0,1.444,1.444,0,0,0,.445-1.012v-.141a1.433,1.433,0,0,0-.445-1.011,1.588,1.588,0,0,0-2.15,0,1.444,1.444,0,0,0-.445,1.011Z" transform="translate(-506.145 -2007.554)" fill="#03297e"/>
        </g>
      </g>
      <g id="Group_1129" data-name="Group 1129" transform="translate(67.878 64.942)">
        <g id="Group_1128" data-name="Group 1128">
          <path id="Path_2782" data-name="Path 2782" d="M462.727,2214.649v.142a1.434,1.434,0,0,0,.445,1.012,1.589,1.589,0,0,0,2.15,0,1.444,1.444,0,0,0,.445-1.012v-.142a1.433,1.433,0,0,0-.445-1.012,1.589,1.589,0,0,0-2.15,0,1.444,1.444,0,0,0-.445,1.012Z" transform="translate(-462.727 -2213.218)" fill="#03297e"/>
        </g>
      </g>
      <g id="Group_1131" data-name="Group 1131" transform="translate(74.01 55.743)">
        <g id="Group_1130" data-name="Group 1130">
          <path id="Path_2783" data-name="Path 2783" d="M488.616,2180.372v.142a1.427,1.427,0,0,1-.443,1.01,1.586,1.586,0,0,1-2.15,0,1.422,1.422,0,0,1-.447-1.01v-.142a1.438,1.438,0,0,1,.447-1.01,1.58,1.58,0,0,1,1.075-.42,1.248,1.248,0,0,1,.289.023l1.214,1.214A1.118,1.118,0,0,1,488.616,2180.372Z" transform="translate(-485.575 -2178.941)" fill="#03297e"/>
        </g>
      </g>
      <g id="Group_1133" data-name="Group 1133" transform="translate(48.723 59.315)">
        <g id="Group_1132" data-name="Group 1132">
          <path id="Path_2784" data-name="Path 2784" d="M392.826,2195.112a1.431,1.431,0,1,0,0-2.862,1.431,1.431,0,1,0,0,2.862Z" transform="translate(-391.357 -2192.25)" fill="#03297e"/>
        </g>
      </g>
      <g id="Group_1135" data-name="Group 1135" transform="translate(37.137 47.522)">
        <g id="Group_1134" data-name="Group 1134">
          <path id="Path_2785" data-name="Path 2785" d="M349.71,2151.169h.15a1.621,1.621,0,0,0,1.075-.419,1.372,1.372,0,0,0,0-2.024,1.633,1.633,0,0,0-1.075-.419h-.15a1.619,1.619,0,0,0-1.075.419,1.372,1.372,0,0,0,0,2.024,1.632,1.632,0,0,0,1.075.419Z" transform="translate(-348.189 -2148.308)" fill="#03297e"/>
        </g>
      </g>
      <g id="Group_1137" data-name="Group 1137" transform="translate(55.863 17.842)">
        <g id="Group_1136" data-name="Group 1136">
          <path id="Path_2786" data-name="Path 2786" d="M421.005,2039.574l.005-.047q-.027.19-.054.38a.378.378,0,0,1,.029-.09l-.153.342a.8.8,0,0,1,.079-.123l-.237.29a1.144,1.144,0,0,1,.147-.135l-.308.224.04-.028a1.125,1.125,0,0,0,.426-.369,1.057,1.057,0,0,0,.272-.487,1.388,1.388,0,0,0-.153-1.1,1.525,1.525,0,0,0-.908-.657,1.555,1.555,0,0,0-1.172.144,2.644,2.644,0,0,0-.747.7,1.887,1.887,0,0,0-.306.963,1.389,1.389,0,0,0,.445,1.012,1.588,1.588,0,0,0,2.15,0l.238-.29a1.361,1.361,0,0,0,.207-.722Z" transform="translate(-417.961 -2037.721)" fill="#03297e"/>
        </g>
      </g>
      <g id="Group_1139" data-name="Group 1139" transform="translate(5.122 74.76)">
        <g id="Group_1138" data-name="Group 1138">
          <path id="Path_2787" data-name="Path 2787" d="M230.369,2252.661a1.431,1.431,0,1,0,0-2.862,1.431,1.431,0,1,0,0,2.862Z" transform="translate(-228.9 -2249.799)" fill="#03297e"/>
        </g>
      </g>
      <g id="Group_1141" data-name="Group 1141" transform="translate(0 64.623)">
        <g id="Group_1140" data-name="Group 1140">
          <path id="Path_2788" data-name="Path 2788" d="M212.857,2213.741l0-.042q-.027.19-.054.38a.321.321,0,0,1,.018-.079l-.153.342a.43.43,0,0,1,.064-.1l-.238.29a.4.4,0,0,1,.066-.058,1.4,1.4,0,0,0,.445-1.012,1.414,1.414,0,0,0-.445-1.012,1.581,1.581,0,0,0-1.075-.419l-.4.051a1.548,1.548,0,0,0-.671.368,1.735,1.735,0,0,0-.6,1.294,1.489,1.489,0,0,0,1.52,1.431,1.509,1.509,0,0,0,1.52-1.431Z" transform="translate(-209.816 -2212.027)" fill="#03297e"/>
        </g>
      </g>
      <g id="Group_1143" data-name="Group 1143" transform="translate(35.29 60.102)">
        <g id="Group_1142" data-name="Group 1142">
          <path id="Path_2789" data-name="Path 2789" d="M344.5,2196.614a.981.981,0,0,1-.019.235L343.331,2198l0,0a1.53,1.53,0,0,1-.347.042h-.15a1.625,1.625,0,0,1-1.075-.42,1.417,1.417,0,0,1-.447-1.01,1.431,1.431,0,0,1,.447-1.013,1.628,1.628,0,0,1,1.075-.416h.15a1.641,1.641,0,0,1,1.075.416A1.405,1.405,0,0,1,344.5,2196.614Z" transform="translate(-341.307 -2195.184)" fill="#03297e"/>
        </g>
      </g>
      <g id="Group_1145" data-name="Group 1145" transform="translate(60.162 43.707)">
        <g id="Group_1144" data-name="Group 1144">
          <path id="Path_2790" data-name="Path 2790" d="M435.446,2136.955a1.431,1.431,0,1,0,0-2.862,1.431,1.431,0,1,0,0,2.862Z" transform="translate(-433.977 -2134.093)" fill="#03297e"/>
        </g>
      </g>
      <g id="Group_1147" data-name="Group 1147" transform="translate(35.442 27.031)">
        <g id="Group_1146" data-name="Group 1146">
          <path id="Path_2791" data-name="Path 2791" d="M343.8,2075.051a1.85,1.85,0,0,0,1.362-1.282,1.419,1.419,0,0,0-.153-1.1,1.542,1.542,0,0,0-.908-.658,1.623,1.623,0,0,0-1.172.145,1.479,1.479,0,0,0-.7.855.369.369,0,0,1-.028.083l.153-.342a.344.344,0,0,1-.046.072l.238-.29a.345.345,0,0,1-.062.059l.308-.224a.37.37,0,0,1-.077.043l.363-.144a.441.441,0,0,1-.089.026,1.55,1.55,0,0,0-.909.657,1.387,1.387,0,0,0-.153,1.1,1.566,1.566,0,0,0,1.87,1Z" transform="translate(-341.872 -2071.962)" fill="#03297e"/>
        </g>
      </g>
    </g>
  </g>
</svg>
