<svg xmlns="http://www.w3.org/2000/svg" width="287.778" height="280.117" viewBox="0 0 287.778 280.117">
  <g id="Group_1848" data-name="Group 1848" transform="translate(-1177.838 -1181.574)">
    <g id="Group_1824" data-name="Group 1824">
      <path id="Path_3308" data-name="Path 3308" d="M1216.8,1212.873h248.818l-122.147,248.818Z" fill="#ffd300"/>
    </g>
    <g id="Group_1847" data-name="Group 1847">
      <g id="Group_1825" data-name="Group 1825">
        <path id="Path_3309" data-name="Path 3309" d="M1308.26,1437.751l-130.422-256.177h256.187Zm-123-251.627,122.926,241.455,118.538-241.455Z" fill="#38382e"/>
      </g>
      <g id="Group_1846" data-name="Group 1846">
        <g id="Group_1827" data-name="Group 1827">
          <g id="Group_1826" data-name="Group 1826">
            <path id="Path_3310" data-name="Path 3310" d="M1422.359,1202l-2.239,4.549H1192.177l-2.311-4.549Z" fill="#38382e"/>
          </g>
        </g>
        <g id="Group_1829" data-name="Group 1829">
          <g id="Group_1828" data-name="Group 1828">
            <path id="Path_3311" data-name="Path 3311" d="M1411.722,1223.656H1200.894l2.311,4.549h206.288Z" fill="#38382e"/>
          </g>
        </g>
        <g id="Group_1831" data-name="Group 1831">
          <g id="Group_1830" data-name="Group 1830">
            <path id="Path_3312" data-name="Path 3312" d="M1401.095,1245.312l-2.238,4.549H1214.232l-2.32-4.549Z" fill="#38382e"/>
          </g>
        </g>
        <g id="Group_1833" data-name="Group 1833">
          <g id="Group_1832" data-name="Group 1832">
            <path id="Path_3313" data-name="Path 3313" d="M1390.468,1266.967l-2.239,4.55H1225.251l-2.311-4.55Z" fill="#38382e"/>
          </g>
        </g>
        <g id="Group_1835" data-name="Group 1835">
          <g id="Group_1834" data-name="Group 1834">
            <path id="Path_3314" data-name="Path 3314" d="M1379.831,1288.622l-2.229,4.55H1236.279l-2.311-4.55Z" fill="#38382e"/>
          </g>
        </g>
        <g id="Group_1837" data-name="Group 1837">
          <g id="Group_1836" data-name="Group 1836">
            <path id="Path_3315" data-name="Path 3315" d="M1369.2,1310.277l-2.238,4.549H1247.307l-2.32-4.549Z" fill="#38382e"/>
          </g>
        </g>
        <g id="Group_1839" data-name="Group 1839">
          <g id="Group_1838" data-name="Group 1838">
            <path id="Path_3316" data-name="Path 3316" d="M1358.576,1331.923l-2.238,4.549h-98.012l-2.32-4.549Z" fill="#38382e"/>
          </g>
        </g>
        <g id="Group_1841" data-name="Group 1841">
          <g id="Group_1840" data-name="Group 1840">
            <path id="Path_3317" data-name="Path 3317" d="M1347.94,1353.578l-2.229,4.549h-76.357l-2.32-4.549Z" fill="#38382e"/>
          </g>
        </g>
        <g id="Group_1843" data-name="Group 1843">
          <g id="Group_1842" data-name="Group 1842">
            <path id="Path_3318" data-name="Path 3318" d="M1337.221,1375.425l-2.238,4.549h-54.511l-2.32-4.549Z" fill="#38382e"/>
          </g>
        </g>
        <g id="Group_1845" data-name="Group 1845">
          <g id="Group_1844" data-name="Group 1844">
            <path id="Path_3319" data-name="Path 3319" d="M1326.585,1397.08l-2.229,4.549H1291.5l-2.32-4.549Z" fill="#38382e"/>
          </g>
        </g>
      </g>
    </g>
  </g>
</svg>
