<svg xmlns="http://www.w3.org/2000/svg" width="181.88" height="184.896" viewBox="0 0 181.88 184.896">
  <g id="Group_1236" data-name="Group 1236" transform="translate(-791.659 -1185.137)">
    <g id="Group_1208" data-name="Group 1208" transform="translate(791.659 1197.289)">
      <circle id="Ellipse_44" data-name="Ellipse 44" cx="61.074" cy="61.074" r="61.074" transform="translate(0 86.372) rotate(-45)" fill="#ffd300"/>
    </g>
    <g id="Group_1235" data-name="Group 1235" transform="translate(825.424 1185.137)">
      <g id="Group_1209" data-name="Group 1209" transform="translate(0)">
        <path id="Path_2884" data-name="Path 2884" d="M922.221,1333.256c-.908,0-1.862-.017-2.836-.053a74.057,74.057,0,0,1-12.739-1.591c-.982-.206-1.995-.444-3.09-.728a73.839,73.839,0,0,1-10.665-3.664c-.825-.351-1.683-.742-2.619-1.191a74.1,74.1,0,0,1-9.13-5.2c-.78-.519-1.539-1.046-2.254-1.564a75.115,75.115,0,0,1-7.815-6.506c-.628-.6-1.254-1.219-1.912-1.892a74.536,74.536,0,0,1-6.578-7.759c-.5-.678-1.023-1.407-1.583-2.223a73.742,73.742,0,0,1-5.209-8.917l-.051-.094c-.449-.918-.822-1.714-1.158-2.473l-.2-.43a74.011,74.011,0,0,1-3.6-10.144c-.253-.911-.5-1.907-.766-3.039a74.715,74.715,0,0,1-1.761-12.575c-.067-1.312-.1-2.523-.106-3.707v-.308a74.3,74.3,0,0,1,1.668-15.686c.374-1.738.809-3.457,1.293-5.106a74.2,74.2,0,0,1,50.313-50.308c1.707-.5,3.424-.935,5.1-1.293a74.276,74.276,0,0,1,15.682-1.667h.3c1.19,0,2.4.039,3.709.106A74.161,74.161,0,0,1,938.809,1187c1.005.228,2.031.486,3.045.767a73.431,73.431,0,0,1,10.405,3.712l.178.085c.814.359,1.644.746,2.423,1.131l.059.031c.038.018.079.039.121.063a72.574,72.574,0,0,1,8.869,5.19c.727.491,1.48,1.022,2.229,1.574a74.539,74.539,0,0,1,7.747,6.58c.757.74,1.361,1.352,1.9,1.926a73.536,73.536,0,0,1,6.505,7.812c.54.745,1.066,1.5,1.562,2.258a73.044,73.044,0,0,1,5.2,9.124c.4.83.806,1.716,1.193,2.623a72.925,72.925,0,0,1,3.662,10.665c.284,1.089.522,2.1.729,3.086a74.158,74.158,0,0,1,1.59,12.734c.035.979.053,1.931.053,2.834,0,.31,0,.62,0,.93a74.378,74.378,0,0,1-2.02,16.346c-.418,1.744-.9,3.464-1.425,5.117l-.056.177a74.149,74.149,0,0,1-47.985,47.986l-.206.064c-1.646.524-3.358,1-5.092,1.416a74.123,74.123,0,0,1-16.347,2.02C922.835,1333.256,922.53,1333.256,922.221,1333.256ZM857,1288.144l.062.128c.326.736.687,1.511,1.1,2.366l.048.088a71.311,71.311,0,0,0,5.035,8.625c.538.785,1.037,1.486,1.525,2.141a71.859,71.859,0,0,0,6.338,7.477c.634.649,1.238,1.246,1.843,1.824a72.413,72.413,0,0,0,7.534,6.27c.685.5,1.413,1,2.165,1.5a71.374,71.374,0,0,0,8.8,5.012c.9.432,1.723.806,2.515,1.144a71.148,71.148,0,0,0,10.277,3.531c1.052.273,2.023.5,2.969.7a71.383,71.383,0,0,0,12.275,1.534c.939.033,1.86.051,2.736.051.3,0,.588,0,.884,0a71.383,71.383,0,0,0,15.75-1.946c1.738-.417,3.452-.9,5.1-1.425l.208-.065a71.426,71.426,0,0,0,45.958-45.958h0l.066-.207c.528-1.641,1.008-3.354,1.425-5.092a71.712,71.712,0,0,0,1.945-15.752c0-.3,0-.6,0-.891,0-.87-.017-1.79-.051-2.734a71.335,71.335,0,0,0-1.532-12.27c-.2-.95-.427-1.918-.7-2.967a70.186,70.186,0,0,0-3.528-10.275c-.372-.873-.756-1.717-1.144-2.515a70.4,70.4,0,0,0-5.013-8.8c-.479-.729-.982-1.455-1.5-2.169a70.789,70.789,0,0,0-6.274-7.533c-.522-.555-1.1-1.14-1.829-1.852a71.862,71.862,0,0,0-7.461-6.338c-.719-.529-1.441-1.039-2.145-1.514a69.89,69.89,0,0,0-8.59-5.023l-.106-.057-.047-.024c-.739-.365-1.527-.732-2.342-1.092l-.18-.086a70.545,70.545,0,0,0-9.982-3.556c-.977-.271-1.961-.519-2.928-.738a71.42,71.42,0,0,0-12.114-1.7c-1.262-.065-2.431-.1-3.572-.1h-.3a71.577,71.577,0,0,0-15.111,1.607c-1.619.344-3.27.763-4.912,1.244a71.916,71.916,0,0,0-48.467,48.461c-.466,1.588-.884,3.241-1.244,4.916a71.6,71.6,0,0,0-1.607,15.113v.3c0,1.135.038,2.3.1,3.57a71.818,71.818,0,0,0,1.695,12.108c.252,1.089.493,2.047.737,2.925a71.162,71.162,0,0,0,3.577,10.029Z" transform="translate(-848.161 -1185.137)" fill="#1442c4"/>
      </g>
      <g id="Group_1234" data-name="Group 1234" transform="translate(1.359 1.36)">
        <g id="Group_1211" data-name="Group 1211" transform="translate(6.228 6.228)">
          <g id="Group_1210" data-name="Group 1210">
            <path id="Path_2885" data-name="Path 2885" d="M959.367,1199.025l-97.317,97.317c-.388-.795-.767-1.6-1.126-2.413l-.066-.133v0l95.959-95.959.137.066Q958.174,1198.439,959.367,1199.025Z" transform="translate(-860.857 -1197.833)" fill="#1442c4"/>
          </g>
        </g>
        <g id="Group_1213" data-name="Group 1213" transform="translate(12.602 12.606)">
          <g id="Group_1212" data-name="Group 1212">
            <path id="Path_2886" data-name="Path 2886" d="M974.732,1210.055,873.08,1311.707c-.535-.719-1.051-1.448-1.557-2.187l101.018-101.013Q973.655,1209.26,974.732,1210.055Z" transform="translate(-871.523 -1208.507)" fill="#1442c4"/>
          </g>
        </g>
        <g id="Group_1215" data-name="Group 1215" transform="translate(20.614 20.614)">
          <g id="Group_1214" data-name="Group 1214">
            <path id="Path_2887" data-name="Path 2887" d="M989.591,1223.789,886.808,1326.572q-.958-.915-1.879-1.86l102.8-102.806Z" transform="translate(-884.929 -1221.906)" fill="#1442c4"/>
          </g>
        </g>
        <g id="Group_1217" data-name="Group 1217" transform="translate(30.168 30.172)">
          <g id="Group_1216" data-name="Group 1216">
            <path id="Path_2888" data-name="Path 2888" d="M1003.946,1240.111,903.127,1340.93q-1.121-.746-2.21-1.533l101.5-101.5Q1003.206,1238.987,1003.946,1240.111Z" transform="translate(-900.917 -1237.901)" fill="#1442c4"/>
          </g>
        </g>
        <g id="Group_1219" data-name="Group 1219" transform="translate(1.637 1.637)">
          <g id="Group_1218" data-name="Group 1218">
            <path id="Path_2889" data-name="Path 2889" d="M853.175,1245.817l55.665-55.665q-2.534.54-5.007,1.268l-49.389,49.385Z" transform="translate(-853.175 -1190.152)" fill="#1442c4"/>
          </g>
        </g>
        <g id="Group_1221" data-name="Group 1221">
          <g id="Group_1220" data-name="Group 1220">
            <path id="Path_2890" data-name="Path 2890" d="M927.078,1187.516l-76.538,76.538c-.062-1.207-.1-2.418-.1-3.639l73-73C924.659,1187.417,925.871,1187.454,927.078,1187.516Z" transform="translate(-850.435 -1187.412)" fill="#1442c4"/>
          </g>
        </g>
        <g id="Group_1223" data-name="Group 1223" transform="translate(1.832 1.832)">
          <g id="Group_1222" data-name="Group 1222">
            <path id="Path_2891" data-name="Path 2891" d="M943.638,1191.229l-89.386,89.386c-.274-.989-.52-1.983-.752-2.986l87.153-87.152Q942.157,1190.818,943.638,1191.229Z" transform="translate(-853.5 -1190.477)" fill="#1442c4"/>
          </g>
        </g>
        <g id="Group_1225" data-name="Group 1225" transform="translate(6.294 6.294)">
          <g id="Group_1224" data-name="Group 1224">
            <path id="Path_2892" data-name="Path 2892" d="M862.165,1296.52l97.378-97.379c-.042-.028-.09-.047-.132-.071q-1.193-.589-2.414-1.126l-96.03,96.03c.36.814.739,1.618,1.126,2.413Z" transform="translate(-860.967 -1197.944)" fill="#1442c4"/>
          </g>
        </g>
        <g id="Group_1227" data-name="Group 1227" transform="translate(41.341 41.345)">
          <g id="Group_1226" data-name="Group 1226">
            <path id="Path_2893" data-name="Path 2893" d="M1017.744,1259.167l-95.562,95.562c-.867-.369-1.723-.762-2.57-1.169l96.962-96.962Q1017.193,1257.867,1017.744,1259.167Z" transform="translate(-919.613 -1256.597)" fill="#1442c4"/>
          </g>
        </g>
        <g id="Group_1229" data-name="Group 1229" transform="translate(54.378 54.387)">
          <g id="Group_1228" data-name="Group 1228">
            <path id="Path_2894" data-name="Path 2894" d="M1030.833,1281.445l-86.372,86.376c-1.017-.213-2.03-.454-3.033-.715l88.69-88.686C1030.379,1279.42,1030.621,1280.427,1030.833,1281.445Z" transform="translate(-941.429 -1278.421)" fill="#1442c4"/>
          </g>
        </g>
        <g id="Group_1231" data-name="Group 1231" transform="translate(69.913 69.918)">
          <g id="Group_1230" data-name="Group 1230">
            <path id="Path_2895" data-name="Path 2895" d="M1042.908,1307.193c0,.3,0,.606,0,.908l-71.787,71.787c-.3,0-.6,0-.9,0-.932,0-1.865-.019-2.788-.052l75.431-75.431C1042.889,1305.333,1042.908,1306.26,1042.908,1307.193Z" transform="translate(-967.425 -1304.41)" fill="#1442c4"/>
          </g>
        </g>
        <g id="Group_1233" data-name="Group 1233" transform="translate(89.651 89.66)">
          <g id="Group_1232" data-name="Group 1232">
            <path id="Path_2896" data-name="Path 2896" d="M1054.212,1337.446q-.632,2.634-1.453,5.191v0l-47.1,47.1h0q-2.556.824-5.2,1.453Z" transform="translate(-1000.454 -1337.446)" fill="#1442c4"/>
          </g>
        </g>
      </g>
    </g>
  </g>
</svg>
