<svg xmlns="http://www.w3.org/2000/svg" width="91.511" height="91.182" viewBox="0 0 91.511 91.182">
  <g id="Group_633" data-name="Group 633" transform="matrix(-0.035, 0.999, -0.999, -0.035, 1034.491, -166.224)">
    <g id="Group_579" data-name="Group 579" transform="translate(202.119 984.063)">
      <path id="Path_2512" data-name="Path 2512" d="M243.434,1089.046l20.271,38.635H224.287l-20.271-38.635Zm.693-1.147H202.119l21.474,40.928H265.6L244.127,1087.9Z" transform="translate(-202.119 -1087.899)" fill="#fff"/>
    </g>
    <g id="Group_580" data-name="Group 580" transform="translate(202.119 936.496)">
      <path id="Path_2513" data-name="Path 2513" d="M202.119,984.063,290.266,936.5l-46.139,47.567Z" transform="translate(-202.119 -936.496)" fill="#1433bf"/>
    </g>
    <g id="Group_631" data-name="Group 631" transform="translate(208.396 986.393)">
      <g id="Group_582" data-name="Group 582" transform="translate(0 1.69)">
        <g id="Group_581" data-name="Group 581">
          <path id="Path_2514" data-name="Path 2514" d="M224.519,1102.788q.073-.141-.078.09l-.233.13a.269.269,0,0,1,.085-.027l-.3.055c.084-.009.172-.007.258-.009a.81.81,0,0,0,.7-1.218,1.9,1.9,0,0,0-1.653-1.114,1.155,1.155,0,0,0-1.122.517,1.4,1.4,0,0,0,.674,1.649c.617.389,1.42.43,1.663-.073Z" transform="translate(-222.098 -1100.695)" fill="#fff"/>
        </g>
      </g>
      <g id="Group_584" data-name="Group 584" transform="translate(9.853 1.249)">
        <g id="Group_583" data-name="Group 583">
          <path id="Path_2515" data-name="Path 2515" d="M256.009,1100.867l-.019-.1-.495.85a.655.655,0,0,1,.11-.029l-.3.055a5.162,5.162,0,0,1,.576-.022.815.815,0,0,0,.709-1.218,1.879,1.879,0,0,0-1.645-1.114,3.677,3.677,0,0,0-.983.106.741.741,0,0,0-.5.85l.019.1a1.859,1.859,0,0,0,1.4,1.4c.641.107,1.243-.233,1.12-.878Z" transform="translate(-253.458 -1099.29)" fill="#fff"/>
        </g>
      </g>
      <g id="Group_586" data-name="Group 586" transform="translate(19.584 0.661)">
        <g id="Group_585" data-name="Group 585">
          <path id="Path_2516" data-name="Path 2516" d="M285.288,1097.469l-.345.105a.751.751,0,0,0-.5.851l.059.38a1.835,1.835,0,0,0,1.389,1.4c.656.11,1.225-.236,1.125-.878l-.059-.38-.5.851.344-.1c.544-.166.677-.9.256-1.471a1.719,1.719,0,0,0-1.77-.751Z" transform="translate(-284.433 -1097.419)" fill="#fff"/>
        </g>
      </g>
      <g id="Group_588" data-name="Group 588" transform="translate(30.244 0.432)">
        <g id="Group_587" data-name="Group 587">
          <path id="Path_2517" data-name="Path 2517" d="M320.082,1099.03l.119-.005a.826.826,0,0,0,.725-1.218,1.845,1.845,0,0,0-1.629-1.115l-.119.005a.825.825,0,0,0-.724,1.218,1.847,1.847,0,0,0,1.629,1.115Z" transform="translate(-318.363 -1096.69)" fill="#fff"/>
        </g>
      </g>
      <g id="Group_590" data-name="Group 590" transform="translate(38.515)">
        <g id="Group_589" data-name="Group 589">
          <path id="Path_2518" data-name="Path 2518" d="M347.077,1097.411q.076-.141-.081.09l-.236.13a.274.274,0,0,1,.086-.027l-.3.056c.084-.009.172-.007.258-.009a.829.829,0,0,0,.731-1.219,1.834,1.834,0,0,0-1.622-1.115,1.182,1.182,0,0,0-1.134.517,1.369,1.369,0,0,0,.632,1.65c.606.39,1.408.43,1.663-.073Z" transform="translate(-344.688 -1095.316)" fill="#fff"/>
        </g>
      </g>
      <g id="Group_592" data-name="Group 592" transform="translate(3.294 9.742)">
        <g id="Group_591" data-name="Group 591">
          <path id="Path_2519" data-name="Path 2519" d="M234.994,1128.417q.072-.14-.078.09l-.232.13a.268.268,0,0,1,.085-.027l-.294.055c.083-.01.171-.007.257-.009a.808.808,0,0,0,.695-1.217,1.893,1.893,0,0,0-1.646-1.114,1.144,1.144,0,0,0-1.115.517,1.4,1.4,0,0,0,.674,1.649c.615.39,1.414.43,1.654-.073Z" transform="translate(-232.583 -1126.324)" fill="#fff"/>
        </g>
      </g>
      <g id="Group_594" data-name="Group 594" transform="translate(13.093 9.303)">
        <g id="Group_593" data-name="Group 593">
          <path id="Path_2520" data-name="Path 2520" d="M266.312,1126.5l-.019-.1-.49.85a.625.625,0,0,1,.11-.029l-.294.055a5.111,5.111,0,0,1,.573-.022.814.814,0,0,0,.7-1.218,1.874,1.874,0,0,0-1.638-1.115,3.637,3.637,0,0,0-.978.106.74.74,0,0,0-.49.85c.007.033.013.066.019.1a1.86,1.86,0,0,0,1.394,1.4c.637.107,1.236-.233,1.112-.878Z" transform="translate(-263.772 -1124.927)" fill="#fff"/>
        </g>
      </g>
      <g id="Group_596" data-name="Group 596" transform="translate(22.771 8.718)">
        <g id="Group_595" data-name="Group 595">
          <path id="Path_2521" data-name="Path 2521" d="M295.427,1123.113l-.343.1a.749.749,0,0,0-.5.851q.03.19.06.38a1.837,1.837,0,0,0,1.385,1.4c.652.11,1.218-.236,1.117-.878l-.059-.38-.5.85.342-.1c.541-.166.671-.9.252-1.47a1.71,1.71,0,0,0-1.762-.752Z" transform="translate(-294.578 -1123.064)" fill="#fff"/>
        </g>
      </g>
      <g id="Group_598" data-name="Group 598" transform="translate(33.374 8.491)">
        <g id="Group_597" data-name="Group 597">
          <path id="Path_2522" data-name="Path 2522" d="M330.038,1124.682l.118-.005a.825.825,0,0,0,.719-1.218,1.84,1.84,0,0,0-1.623-1.115l-.118.005a.823.823,0,0,0-.718,1.218,1.843,1.843,0,0,0,1.623,1.115Z" transform="translate(-328.325 -1122.342)" fill="#fff"/>
        </g>
      </g>
      <g id="Group_600" data-name="Group 600" transform="translate(41.6 8.061)">
        <g id="Group_599" data-name="Group 599">
          <path id="Path_2523" data-name="Path 2523" d="M356.886,1123.069q.076-.141-.08.09l-.235.13a.271.271,0,0,1,.085-.027l-.295.055c.083-.009.17-.007.257-.009a.828.828,0,0,0,.725-1.218,1.831,1.831,0,0,0-1.616-1.116,1.172,1.172,0,0,0-1.127.517,1.375,1.375,0,0,0,.631,1.65c.6.39,1.4.431,1.654-.073Z" transform="translate(-354.507 -1120.974)" fill="#fff"/>
        </g>
      </g>
      <g id="Group_602" data-name="Group 602" transform="translate(6.588 17.794)">
        <g id="Group_601" data-name="Group 601">
          <path id="Path_2524" data-name="Path 2524" d="M245.469,1154.047q.072-.141-.077.089l-.23.13a.267.267,0,0,1,.084-.027l-.292.055c.083-.01.17-.007.255-.009a.806.806,0,0,0,.688-1.217,1.887,1.887,0,0,0-1.64-1.115,1.132,1.132,0,0,0-1.108.516,1.407,1.407,0,0,0,.674,1.648c.612.39,1.407.43,1.645-.072Z" transform="translate(-243.068 -1151.954)" fill="#fff"/>
        </g>
      </g>
      <g id="Group_604" data-name="Group 604" transform="translate(16.333 17.358)">
        <g id="Group_603" data-name="Group 603">
          <path id="Path_2525" data-name="Path 2525" d="M276.614,1152.141l-.019-.1-.486.85a.638.638,0,0,1,.109-.029l-.293.055a5.174,5.174,0,0,1,.57-.022.811.811,0,0,0,.7-1.217,1.87,1.87,0,0,0-1.632-1.115,3.6,3.6,0,0,0-.972.105.739.739,0,0,0-.486.85l.019.1a1.861,1.861,0,0,0,1.39,1.4c.634.107,1.229-.233,1.1-.877Z" transform="translate(-274.086 -1150.564)" fill="#fff"/>
        </g>
      </g>
      <g id="Group_606" data-name="Group 606" transform="translate(25.959 16.774)">
        <g id="Group_605" data-name="Group 605">
          <path id="Path_2526" data-name="Path 2526" d="M305.566,1148.757l-.341.1a.747.747,0,0,0-.491.85l.06.38a1.838,1.838,0,0,0,1.38,1.4c.649.11,1.211-.236,1.109-.878q-.03-.19-.06-.38l-.491.85.34-.1c.538-.166.666-.9.248-1.471a1.7,1.7,0,0,0-1.754-.752Z" transform="translate(-304.723 -1148.708)" fill="#fff"/>
        </g>
      </g>
      <g id="Group_608" data-name="Group 608" transform="translate(36.504 16.55)">
        <g id="Group_607" data-name="Group 607">
          <path id="Path_2527" data-name="Path 2527" d="M339.993,1150.334l.118-.005a.822.822,0,0,0,.712-1.218,1.835,1.835,0,0,0-1.616-1.116l-.118.005a.822.822,0,0,0-.712,1.218,1.838,1.838,0,0,0,1.616,1.116Z" transform="translate(-338.287 -1147.994)" fill="#fff"/>
        </g>
      </g>
      <g id="Group_610" data-name="Group 610" transform="translate(44.684 16.122)">
        <g id="Group_609" data-name="Group 609">
          <path id="Path_2528" data-name="Path 2528" d="M366.694,1148.728q.075-.14-.079.09l-.233.13a.264.264,0,0,1,.085-.027l-.293.055c.083-.01.17-.007.255-.009a.825.825,0,0,0,.719-1.218,1.826,1.826,0,0,0-1.609-1.116,1.16,1.16,0,0,0-1.12.517,1.381,1.381,0,0,0,.631,1.65c.6.39,1.395.431,1.645-.072Z" transform="translate(-364.326 -1146.633)" fill="#fff"/>
        </g>
      </g>
      <g id="Group_612" data-name="Group 612" transform="translate(9.883 25.846)">
        <g id="Group_611" data-name="Group 611">
          <path id="Path_2529" data-name="Path 2529" d="M255.944,1179.676q.071-.14-.077.09l-.228.13a.266.266,0,0,1,.083-.027l-.291.055c.082-.009.169-.007.254-.009a.8.8,0,0,0,.682-1.216,1.883,1.883,0,0,0-1.633-1.115,1.121,1.121,0,0,0-1.1.516,1.414,1.414,0,0,0,.674,1.649c.609.39,1.4.431,1.636-.072Z" transform="translate(-253.554 -1177.583)" fill="#fff"/>
        </g>
      </g>
      <g id="Group_614" data-name="Group 614" transform="translate(19.574 25.412)">
        <g id="Group_613" data-name="Group 613">
          <path id="Path_2530" data-name="Path 2530" d="M286.916,1177.778l-.019-.1-.482.85a.644.644,0,0,1,.108-.029l-.291.055a4.938,4.938,0,0,1,.566-.022.81.81,0,0,0,.69-1.217,1.865,1.865,0,0,0-1.625-1.115,3.574,3.574,0,0,0-.967.105.737.737,0,0,0-.482.85l.019.1a1.862,1.862,0,0,0,1.385,1.4c.631.107,1.222-.233,1.1-.877Z" transform="translate(-284.401 -1176.201)" fill="#fff"/>
        </g>
      </g>
      <g id="Group_616" data-name="Group 616" transform="translate(29.146 24.831)">
        <g id="Group_615" data-name="Group 615">
          <path id="Path_2531" data-name="Path 2531" d="M315.7,1174.4l-.339.1a.746.746,0,0,0-.487.85c.02.127.041.253.061.38a1.839,1.839,0,0,0,1.376,1.4c.646.11,1.2-.235,1.1-.877l-.06-.38-.487.85.338-.1c.534-.166.66-.895.243-1.47a1.692,1.692,0,0,0-1.746-.752Z" transform="translate(-314.868 -1174.352)" fill="#fff"/>
        </g>
      </g>
      <g id="Group_618" data-name="Group 618" transform="translate(39.633 24.609)">
        <g id="Group_617" data-name="Group 617">
          <path id="Path_2532" data-name="Path 2532" d="M349.949,1175.986l.117-.005a.82.82,0,0,0,.705-1.218,1.831,1.831,0,0,0-1.61-1.116l-.117.005a.82.82,0,0,0-.705,1.218,1.834,1.834,0,0,0,1.61,1.116Z" transform="translate(-348.249 -1173.646)" fill="#fff"/>
        </g>
      </g>
      <g id="Group_620" data-name="Group 620" transform="translate(47.769 24.184)">
        <g id="Group_619" data-name="Group 619">
          <path id="Path_2533" data-name="Path 2533" d="M376.5,1174.387q.075-.141-.079.09l-.232.13a.273.273,0,0,1,.084-.027l-.292.055c.082-.009.168-.007.254-.009a.824.824,0,0,0,.712-1.218,1.822,1.822,0,0,0-1.6-1.117,1.15,1.15,0,0,0-1.113.516,1.388,1.388,0,0,0,.632,1.651c.6.39,1.388.431,1.636-.072Z" transform="translate(-374.145 -1172.291)" fill="#fff"/>
        </g>
      </g>
      <g id="Group_622" data-name="Group 622" transform="translate(13.177 33.898)">
        <g id="Group_621" data-name="Group 621">
          <path id="Path_2534" data-name="Path 2534" d="M266.838,1204.328a1.879,1.879,0,0,0-1.627-1.115,1.11,1.11,0,0,0-1.094.516,1.42,1.42,0,0,0,.674,1.649c.607.39,1.394.431,1.627-.071h0q.07-.14-.076.09l-.227.13a.255.255,0,0,1,.083-.027l-.289.055Z" transform="translate(-264.039 -1203.212)" fill="#fff"/>
        </g>
      </g>
      <g id="Group_624" data-name="Group 624" transform="translate(22.814 33.467)">
        <g id="Group_623" data-name="Group 623">
          <path id="Path_2535" data-name="Path 2535" d="M297.218,1203.415l-.019-.1-.477.85a.623.623,0,0,1,.108-.029l-.289.055a4.967,4.967,0,0,1,.563-.021.808.808,0,0,0,.684-1.216,1.861,1.861,0,0,0-1.619-1.116,3.542,3.542,0,0,0-.962.105.735.735,0,0,0-.477.85l.02.1a1.863,1.863,0,0,0,1.38,1.4c.628.108,1.215-.232,1.089-.877Z" transform="translate(-294.715 -1201.838)" fill="#fff"/>
        </g>
      </g>
      <g id="Group_626" data-name="Group 626" transform="translate(32.333 32.888)">
        <g id="Group_625" data-name="Group 625">
          <path id="Path_2536" data-name="Path 2536" d="M325.843,1200.045l-.336.1a.745.745,0,0,0-.483.85l.062.38a1.84,1.84,0,0,0,1.371,1.4c.643.11,1.2-.235,1.094-.877l-.061-.38-.482.85.336-.1c.531-.166.655-.894.238-1.47a1.682,1.682,0,0,0-1.738-.752Z" transform="translate(-325.013 -1199.997)" fill="#fff"/>
        </g>
      </g>
      <g id="Group_628" data-name="Group 628" transform="translate(42.763 32.669)">
        <g id="Group_627" data-name="Group 627">
          <path id="Path_2537" data-name="Path 2537" d="M359.905,1201.638l.116-.005a.819.819,0,0,0,.7-1.217,1.827,1.827,0,0,0-1.6-1.116l-.117.005a.818.818,0,0,0-.7,1.217,1.829,1.829,0,0,0,1.6,1.116Z" transform="translate(-358.21 -1199.298)" fill="#fff"/>
        </g>
      </g>
      <g id="Group_630" data-name="Group 630" transform="translate(50.854 32.245)">
        <g id="Group_629" data-name="Group 629">
          <path id="Path_2538" data-name="Path 2538" d="M386.312,1200.046q.074-.14-.078.09l-.23.13a.263.263,0,0,1,.083-.027l-.29.055c.082-.009.167-.007.252-.009a.822.822,0,0,0,.706-1.217,1.818,1.818,0,0,0-1.6-1.117,1.138,1.138,0,0,0-1.106.516,1.393,1.393,0,0,0,.632,1.65c.6.391,1.381.432,1.627-.071Z" transform="translate(-383.964 -1197.95)" fill="#fff"/>
        </g>
      </g>
    </g>
    <g id="Group_632" data-name="Group 632" transform="translate(244.08 936.496)">
      <path id="Path_2539" data-name="Path 2539" d="M357.071,1024.985l-21.392-40.951L381.865,936.5Z" transform="translate(-335.679 -936.496)" fill="#ffe497"/>
    </g>
  </g>
</svg>
