<svg xmlns="http://www.w3.org/2000/svg" width="186.16" height="193.898" viewBox="0 0 186.16 193.898">
  <g id="Group_867" data-name="Group 867" transform="translate(-1917.648 -173.564)">
    <g id="Group_856" data-name="Group 856" transform="translate(1965.685 201.925)">
      <g id="Group_656" data-name="Group 656" transform="translate(0.085 139.043)">
        <g id="Group_641" data-name="Group 641" transform="translate(0 16.148)">
          <g id="Group_640" data-name="Group 640">
            <path id="Path_2545" data-name="Path 2545" d="M2000.269,494.138l-.876-.855,7.728-7.921,10.206,5.49-.58,1.078-9.393-5.053Z" transform="translate(-1999.393 -485.363)"/>
          </g>
        </g>
        <g id="Group_643" data-name="Group 643" transform="translate(17.116 13.841)">
          <g id="Group_642" data-name="Group 642">
            <path id="Path_2546" data-name="Path 2546" d="M2029.344,490.22l-.876-.855,7.728-7.921,10.205,5.49-.58,1.078-9.393-5.053Z" transform="translate(-2028.468 -481.444)"/>
          </g>
        </g>
        <g id="Group_645" data-name="Group 645" transform="translate(34.232 11.534)">
          <g id="Group_644" data-name="Group 644">
            <path id="Path_2547" data-name="Path 2547" d="M2058.418,486.3l-.876-.855,7.728-7.921,10.206,5.49-.58,1.078-9.393-5.053Z" transform="translate(-2057.542 -477.525)"/>
          </g>
        </g>
        <g id="Group_647" data-name="Group 647" transform="translate(51.347 9.227)">
          <g id="Group_646" data-name="Group 646">
            <path id="Path_2548" data-name="Path 2548" d="M2087.493,482.382l-.876-.855,7.728-7.921,10.205,5.49-.58,1.078-9.393-5.053Z" transform="translate(-2086.616 -473.606)"/>
          </g>
        </g>
        <g id="Group_649" data-name="Group 649" transform="translate(68.463 6.92)">
          <g id="Group_648" data-name="Group 648">
            <path id="Path_2549" data-name="Path 2549" d="M2116.567,478.463l-.876-.855,7.728-7.921,10.205,5.49-.58,1.078-9.394-5.053Z" transform="translate(-2115.691 -469.688)"/>
          </g>
        </g>
        <g id="Group_651" data-name="Group 651" transform="translate(85.579 4.613)">
          <g id="Group_650" data-name="Group 650">
            <path id="Path_2550" data-name="Path 2550" d="M2145.642,474.544l-.876-.855,7.728-7.921,10.205,5.49-.58,1.078-9.393-5.053Z" transform="translate(-2144.765 -465.769)"/>
          </g>
        </g>
        <g id="Group_653" data-name="Group 653" transform="translate(102.695 2.306)">
          <g id="Group_652" data-name="Group 652">
            <path id="Path_2551" data-name="Path 2551" d="M2174.716,470.625l-.876-.855,7.728-7.921,10.205,5.49-.58,1.078-9.393-5.053Z" transform="translate(-2173.84 -461.85)"/>
          </g>
        </g>
        <g id="Group_655" data-name="Group 655" transform="translate(119.811)">
          <g id="Group_654" data-name="Group 654">
            <path id="Path_2552" data-name="Path 2552" d="M2220.256,463.1l0,1.391-9.379-5.046-7.083,7.259-.384-.375-.492-.48.36-.37,7.366-7.55Z" transform="translate(-2202.915 -457.932)"/>
          </g>
        </g>
      </g>
      <g id="Group_673" data-name="Group 673" transform="translate(0.075 129.774)">
        <g id="Group_658" data-name="Group 658" transform="translate(0 16.148)">
          <g id="Group_657" data-name="Group 657">
            <path id="Path_2553" data-name="Path 2553" d="M2000.251,478.392l-.876-.855,7.728-7.921,10.205,5.49-.58,1.078-9.393-5.053Z" transform="translate(-1999.375 -469.617)"/>
          </g>
        </g>
        <g id="Group_660" data-name="Group 660" transform="translate(17.116 13.841)">
          <g id="Group_659" data-name="Group 659">
            <path id="Path_2554" data-name="Path 2554" d="M2029.325,474.474l-.876-.855,7.728-7.921,10.206,5.49-.58,1.078-9.393-5.053Z" transform="translate(-2028.449 -465.698)"/>
          </g>
        </g>
        <g id="Group_662" data-name="Group 662" transform="translate(34.232 11.534)">
          <g id="Group_661" data-name="Group 661">
            <path id="Path_2555" data-name="Path 2555" d="M2058.4,470.555l-.876-.855,7.728-7.921,10.205,5.49-.58,1.078-9.393-5.053Z" transform="translate(-2057.524 -461.779)"/>
          </g>
        </g>
        <g id="Group_664" data-name="Group 664" transform="translate(51.347 9.227)">
          <g id="Group_663" data-name="Group 663">
            <path id="Path_2556" data-name="Path 2556" d="M2087.475,466.636l-.876-.855,7.728-7.921,10.205,5.49-.58,1.078-9.393-5.053Z" transform="translate(-2086.598 -457.86)"/>
          </g>
        </g>
        <g id="Group_666" data-name="Group 666" transform="translate(68.463 6.92)">
          <g id="Group_665" data-name="Group 665">
            <path id="Path_2557" data-name="Path 2557" d="M2116.549,462.717l-.876-.855,7.728-7.921,10.205,5.49-.58,1.078-9.393-5.053Z" transform="translate(-2115.673 -453.942)"/>
          </g>
        </g>
        <g id="Group_668" data-name="Group 668" transform="translate(85.579 4.613)">
          <g id="Group_667" data-name="Group 667">
            <path id="Path_2558" data-name="Path 2558" d="M2145.624,458.8l-.876-.855,7.728-7.921,10.205,5.49-.58,1.078-9.393-5.053Z" transform="translate(-2144.747 -450.023)"/>
          </g>
        </g>
        <g id="Group_670" data-name="Group 670" transform="translate(102.695 2.306)">
          <g id="Group_669" data-name="Group 669">
            <path id="Path_2559" data-name="Path 2559" d="M2174.7,454.879l-.876-.855,7.728-7.921,10.206,5.49-.58,1.078-9.393-5.053Z" transform="translate(-2173.822 -446.104)"/>
          </g>
        </g>
        <g id="Group_672" data-name="Group 672" transform="translate(119.809)">
          <g id="Group_671" data-name="Group 671">
            <path id="Path_2560" data-name="Path 2560" d="M2220.264,447.372l0,1.356v0l-.012.022-9.394-5.053-7.085,7.261-.385-.375-.492-.48.362-.37,7.367-7.55Z" transform="translate(-2202.894 -442.187)"/>
          </g>
        </g>
      </g>
      <g id="Group_690" data-name="Group 690" transform="translate(0.064 120.503)">
        <g id="Group_675" data-name="Group 675" transform="translate(0 16.149)">
          <g id="Group_674" data-name="Group 674">
            <path id="Path_2561" data-name="Path 2561" d="M2000.233,462.646l-.876-.855,7.728-7.921,10.205,5.49-.58,1.078-9.393-5.053Z" transform="translate(-1999.356 -453.871)"/>
          </g>
        </g>
        <g id="Group_677" data-name="Group 677" transform="translate(17.116 13.843)">
          <g id="Group_676" data-name="Group 676">
            <path id="Path_2562" data-name="Path 2562" d="M2029.307,458.728l-.876-.855,7.728-7.921,10.206,5.49-.58,1.078-9.393-5.053Z" transform="translate(-2028.431 -449.952)"/>
          </g>
        </g>
        <g id="Group_679" data-name="Group 679" transform="translate(34.232 11.535)">
          <g id="Group_678" data-name="Group 678">
            <path id="Path_2563" data-name="Path 2563" d="M2058.382,454.809l-.876-.855,7.728-7.921,10.205,5.49-.58,1.078-9.393-5.053Z" transform="translate(-2057.506 -446.033)"/>
          </g>
        </g>
        <g id="Group_681" data-name="Group 681" transform="translate(51.347 9.229)">
          <g id="Group_680" data-name="Group 680">
            <path id="Path_2564" data-name="Path 2564" d="M2087.457,450.89l-.876-.855,7.728-7.921,10.206,5.49-.58,1.078-9.393-5.053Z" transform="translate(-2086.58 -442.114)"/>
          </g>
        </g>
        <g id="Group_683" data-name="Group 683" transform="translate(68.463 6.922)">
          <g id="Group_682" data-name="Group 682">
            <path id="Path_2565" data-name="Path 2565" d="M2116.531,446.971l-.876-.855,7.728-7.921,10.205,5.49-.58,1.078-9.393-5.053Z" transform="translate(-2115.655 -438.196)"/>
          </g>
        </g>
        <g id="Group_685" data-name="Group 685" transform="translate(85.579 4.614)">
          <g id="Group_684" data-name="Group 684">
            <path id="Path_2566" data-name="Path 2566" d="M2145.605,443.052l-.876-.855,7.728-7.921,10.205,5.49-.58,1.078-9.393-5.053Z" transform="translate(-2144.729 -434.276)"/>
          </g>
        </g>
        <g id="Group_687" data-name="Group 687" transform="translate(102.695 2.308)">
          <g id="Group_686" data-name="Group 686">
            <path id="Path_2567" data-name="Path 2567" d="M2174.68,439.133l-.876-.855,7.728-7.921,10.205,5.49-.58,1.078-9.393-5.053Z" transform="translate(-2173.804 -430.358)"/>
          </g>
        </g>
        <g id="Group_689" data-name="Group 689" transform="translate(119.81)">
          <g id="Group_688" data-name="Group 688">
            <path id="Path_2568" data-name="Path 2568" d="M2220.275,431.64l0,1.288-.042.078-9.394-5.053-7.083,7.261-.384-.375-.492-.48.362-.37,7.367-7.553Z" transform="translate(-2202.878 -426.438)"/>
          </g>
        </g>
      </g>
      <g id="Group_707" data-name="Group 707" transform="translate(0.053 111.234)">
        <g id="Group_692" data-name="Group 692" transform="translate(0 16.149)">
          <g id="Group_691" data-name="Group 691">
            <path id="Path_2569" data-name="Path 2569" d="M2000.215,446.9l-.876-.855,7.728-7.921,10.206,5.49-.58,1.078-9.393-5.053Z" transform="translate(-1999.338 -438.125)"/>
          </g>
        </g>
        <g id="Group_694" data-name="Group 694" transform="translate(17.116 13.842)">
          <g id="Group_693" data-name="Group 693">
            <path id="Path_2570" data-name="Path 2570" d="M2029.289,442.982l-.876-.855,7.728-7.921,10.206,5.49-.58,1.078-9.393-5.053Z" transform="translate(-2028.413 -434.206)"/>
          </g>
        </g>
        <g id="Group_696" data-name="Group 696" transform="translate(34.232 11.535)">
          <g id="Group_695" data-name="Group 695">
            <path id="Path_2571" data-name="Path 2571" d="M2058.364,439.063l-.876-.855,7.728-7.921,10.205,5.49-.58,1.078-9.393-5.053Z" transform="translate(-2057.487 -430.287)"/>
          </g>
        </g>
        <g id="Group_698" data-name="Group 698" transform="translate(51.347 9.228)">
          <g id="Group_697" data-name="Group 697">
            <path id="Path_2572" data-name="Path 2572" d="M2087.438,435.144l-.876-.855,7.728-7.921,10.206,5.49-.58,1.078-9.394-5.053Z" transform="translate(-2086.562 -426.368)"/>
          </g>
        </g>
        <g id="Group_700" data-name="Group 700" transform="translate(68.463 6.921)">
          <g id="Group_699" data-name="Group 699">
            <path id="Path_2573" data-name="Path 2573" d="M2116.513,431.225l-.876-.855,7.728-7.921,10.205,5.49-.58,1.078-9.393-5.053Z" transform="translate(-2115.636 -422.45)"/>
          </g>
        </g>
        <g id="Group_702" data-name="Group 702" transform="translate(85.579 4.614)">
          <g id="Group_701" data-name="Group 701">
            <path id="Path_2574" data-name="Path 2574" d="M2145.587,427.306l-.876-.855,7.728-7.921,10.206,5.49-.58,1.078-9.393-5.053Z" transform="translate(-2144.711 -418.531)"/>
          </g>
        </g>
        <g id="Group_704" data-name="Group 704" transform="translate(102.695 2.307)">
          <g id="Group_703" data-name="Group 703">
            <path id="Path_2575" data-name="Path 2575" d="M2174.662,423.387l-.876-.855,7.728-7.921,10.205,5.49-.58,1.078-9.393-5.053Z" transform="translate(-2173.786 -414.612)"/>
          </g>
        </g>
        <g id="Group_706" data-name="Group 706" transform="translate(119.811)">
          <g id="Group_705" data-name="Group 705">
            <path id="Path_2576" data-name="Path 2576" d="M2220.285,415.91v1.222l-.071.13-9.394-5.053-7.083,7.261-.384-.375-.492-.482.36-.37,7.367-7.55Z" transform="translate(-2202.861 -410.693)"/>
          </g>
        </g>
      </g>
      <g id="Group_724" data-name="Group 724" transform="translate(0.043 101.965)">
        <g id="Group_709" data-name="Group 709" transform="translate(0 16.148)">
          <g id="Group_708" data-name="Group 708">
            <path id="Path_2577" data-name="Path 2577" d="M2000.2,431.155l-.876-.855,7.728-7.921,10.205,5.49-.58,1.078-9.393-5.053Z" transform="translate(-1999.32 -422.379)"/>
          </g>
        </g>
        <g id="Group_711" data-name="Group 711" transform="translate(17.116 13.841)">
          <g id="Group_710" data-name="Group 710">
            <path id="Path_2578" data-name="Path 2578" d="M2029.271,427.235l-.876-.855,7.728-7.921,10.205,5.49-.58,1.078-9.393-5.053Z" transform="translate(-2028.395 -418.46)"/>
          </g>
        </g>
        <g id="Group_713" data-name="Group 713" transform="translate(34.232 11.534)">
          <g id="Group_712" data-name="Group 712">
            <path id="Path_2579" data-name="Path 2579" d="M2058.345,423.317l-.876-.855,7.728-7.921,10.205,5.49-.58,1.078-9.393-5.053Z" transform="translate(-2057.469 -414.541)"/>
          </g>
        </g>
        <g id="Group_715" data-name="Group 715" transform="translate(51.347 9.227)">
          <g id="Group_714" data-name="Group 714">
            <path id="Path_2580" data-name="Path 2580" d="M2087.42,419.4l-.876-.855,7.728-7.921,10.205,5.49-.58,1.078-9.393-5.053Z" transform="translate(-2086.544 -410.622)"/>
          </g>
        </g>
        <g id="Group_717" data-name="Group 717" transform="translate(68.463 6.92)">
          <g id="Group_716" data-name="Group 716">
            <path id="Path_2581" data-name="Path 2581" d="M2116.495,415.479l-.876-.855,7.728-7.921,10.205,5.49-.58,1.078-9.393-5.053Z" transform="translate(-2115.618 -406.704)"/>
          </g>
        </g>
        <g id="Group_719" data-name="Group 719" transform="translate(85.579 4.613)">
          <g id="Group_718" data-name="Group 718">
            <path id="Path_2582" data-name="Path 2582" d="M2145.569,411.56l-.876-.855,7.728-7.921,10.206,5.49-.58,1.078-9.393-5.053Z" transform="translate(-2144.693 -402.785)"/>
          </g>
        </g>
        <g id="Group_721" data-name="Group 721" transform="translate(102.695 2.306)">
          <g id="Group_720" data-name="Group 720">
            <path id="Path_2583" data-name="Path 2583" d="M2174.644,407.641l-.876-.855,7.728-7.921,10.205,5.49-.58,1.078-9.393-5.053Z" transform="translate(-2173.767 -398.866)"/>
          </g>
        </g>
        <g id="Group_723" data-name="Group 723" transform="translate(119.81)">
          <g id="Group_722" data-name="Group 722">
            <path id="Path_2584" data-name="Path 2584" d="M2220.3,400.18l0,1.151-.1.186-9.391-5.053-7.085,7.259-.384-.375-.492-.48.36-.37,7.369-7.55Z" transform="translate(-2202.84 -394.948)"/>
          </g>
        </g>
      </g>
      <g id="Group_741" data-name="Group 741" transform="translate(0.032 92.696)">
        <g id="Group_726" data-name="Group 726" transform="translate(0 16.148)">
          <g id="Group_725" data-name="Group 725">
            <path id="Path_2585" data-name="Path 2585" d="M2000.178,415.409l-.876-.855,7.728-7.921,10.206,5.49-.58,1.078-9.393-5.053Z" transform="translate(-1999.302 -406.633)"/>
          </g>
        </g>
        <g id="Group_728" data-name="Group 728" transform="translate(17.116 13.841)">
          <g id="Group_727" data-name="Group 727">
            <path id="Path_2586" data-name="Path 2586" d="M2029.253,411.49l-.876-.855,7.728-7.921,10.205,5.49-.58,1.078-9.393-5.053Z" transform="translate(-2028.377 -402.714)"/>
          </g>
        </g>
        <g id="Group_730" data-name="Group 730" transform="translate(34.231 11.534)">
          <g id="Group_729" data-name="Group 729">
            <path id="Path_2587" data-name="Path 2587" d="M2058.327,407.571l-.876-.855,7.728-7.92,10.206,5.49-.58,1.078-9.393-5.053Z" transform="translate(-2057.451 -398.795)"/>
          </g>
        </g>
        <g id="Group_732" data-name="Group 732" transform="translate(51.347 9.227)">
          <g id="Group_731" data-name="Group 731">
            <path id="Path_2588" data-name="Path 2588" d="M2087.4,403.652l-.876-.855,7.728-7.921,10.205,5.49-.58,1.078-9.393-5.053Z" transform="translate(-2086.526 -394.876)"/>
          </g>
        </g>
        <g id="Group_734" data-name="Group 734" transform="translate(68.463 6.92)">
          <g id="Group_733" data-name="Group 733">
            <path id="Path_2589" data-name="Path 2589" d="M2116.476,399.733l-.876-.855,7.728-7.921,10.205,5.49-.58,1.078-9.393-5.053Z" transform="translate(-2115.6 -390.957)"/>
          </g>
        </g>
        <g id="Group_736" data-name="Group 736" transform="translate(85.579 4.613)">
          <g id="Group_735" data-name="Group 735">
            <path id="Path_2590" data-name="Path 2590" d="M2145.551,395.814l-.876-.855,7.728-7.921,10.206,5.49-.58,1.078-9.393-5.053Z" transform="translate(-2144.675 -387.039)"/>
          </g>
        </g>
        <g id="Group_738" data-name="Group 738" transform="translate(102.695 2.306)">
          <g id="Group_737" data-name="Group 737">
            <path id="Path_2591" data-name="Path 2591" d="M2174.625,391.9l-.876-.855,7.728-7.921,10.205,5.49-.58,1.078-9.393-5.053Z" transform="translate(-2173.749 -383.12)"/>
          </g>
        </g>
        <g id="Group_740" data-name="Group 740" transform="translate(119.811)">
          <g id="Group_739" data-name="Group 739">
            <path id="Path_2592" data-name="Path 2592" d="M2220.306,384.449l0,1.082v0l-.127.235-9.394-5.053-7.083,7.261-.384-.375-.492-.48.362-.37,7.367-7.55Z" transform="translate(-2202.824 -379.203)"/>
          </g>
        </g>
      </g>
      <g id="Group_758" data-name="Group 758" transform="translate(0.021 83.425)">
        <g id="Group_743" data-name="Group 743" transform="translate(0 16.149)">
          <g id="Group_742" data-name="Group 742">
            <path id="Path_2593" data-name="Path 2593" d="M2000.16,399.663l-.876-.855,7.728-7.921,10.206,5.49-.58,1.078-9.393-5.053Z" transform="translate(-1999.284 -390.887)"/>
          </g>
        </g>
        <g id="Group_745" data-name="Group 745" transform="translate(17.116 13.843)">
          <g id="Group_744" data-name="Group 744">
            <path id="Path_2594" data-name="Path 2594" d="M2029.235,395.744l-.876-.855,7.728-7.921,10.205,5.49-.58,1.078-9.393-5.053Z" transform="translate(-2028.358 -386.968)"/>
          </g>
        </g>
        <g id="Group_747" data-name="Group 747" transform="translate(34.231 11.536)">
          <g id="Group_746" data-name="Group 746">
            <path id="Path_2595" data-name="Path 2595" d="M2058.309,391.825l-.876-.855,7.728-7.921,10.205,5.49-.58,1.078-9.393-5.053Z" transform="translate(-2057.433 -383.049)"/>
          </g>
        </g>
        <g id="Group_749" data-name="Group 749" transform="translate(51.347 9.229)">
          <g id="Group_748" data-name="Group 748">
            <path id="Path_2596" data-name="Path 2596" d="M2087.384,387.906l-.876-.855,7.728-7.921,10.205,5.49-.58,1.078-9.393-5.053Z" transform="translate(-2086.507 -379.131)"/>
          </g>
        </g>
        <g id="Group_751" data-name="Group 751" transform="translate(68.463 6.922)">
          <g id="Group_750" data-name="Group 750">
            <path id="Path_2597" data-name="Path 2597" d="M2116.458,383.987l-.876-.855,7.728-7.921,10.206,5.49-.58,1.078-9.393-5.053Z" transform="translate(-2115.582 -375.211)"/>
          </g>
        </g>
        <g id="Group_753" data-name="Group 753" transform="translate(85.579 4.615)">
          <g id="Group_752" data-name="Group 752">
            <path id="Path_2598" data-name="Path 2598" d="M2145.533,380.068l-.876-.855,7.728-7.921,10.205,5.49-.58,1.078-9.393-5.053Z" transform="translate(-2144.656 -371.293)"/>
          </g>
        </g>
        <g id="Group_755" data-name="Group 755" transform="translate(102.695 2.308)">
          <g id="Group_754" data-name="Group 754">
            <path id="Path_2599" data-name="Path 2599" d="M2174.607,376.15l-.876-.855,7.728-7.921,10.206,5.49-.58,1.078-9.393-5.053Z" transform="translate(-2173.731 -367.374)"/>
          </g>
        </g>
        <g id="Group_757" data-name="Group 757" transform="translate(119.811)">
          <g id="Group_756" data-name="Group 756">
            <path id="Path_2600" data-name="Path 2600" d="M2220.316,368.717l0,1.018-.154.286-9.394-5.053-7.083,7.261-.384-.375-.492-.48.363-.37,7.364-7.553Z" transform="translate(-2202.807 -363.454)"/>
          </g>
        </g>
      </g>
      <g id="Group_775" data-name="Group 775" transform="translate(0.011 74.156)">
        <g id="Group_760" data-name="Group 760" transform="translate(0 16.149)">
          <g id="Group_759" data-name="Group 759">
            <path id="Path_2601" data-name="Path 2601" d="M2000.142,383.916l-.876-.855,7.728-7.921,10.205,5.49-.58,1.078-9.393-5.053Z" transform="translate(-1999.266 -375.141)"/>
          </g>
        </g>
        <g id="Group_762" data-name="Group 762" transform="translate(17.116 13.842)">
          <g id="Group_761" data-name="Group 761">
            <path id="Path_2602" data-name="Path 2602" d="M2029.217,380l-.876-.855,7.728-7.921,10.205,5.49-.58,1.078-9.393-5.053Z" transform="translate(-2028.34 -371.222)"/>
          </g>
        </g>
        <g id="Group_764" data-name="Group 764" transform="translate(34.231 11.535)">
          <g id="Group_763" data-name="Group 763">
            <path id="Path_2603" data-name="Path 2603" d="M2058.291,376.079l-.876-.855,7.728-7.92,10.206,5.49-.58,1.078-9.393-5.053Z" transform="translate(-2057.415 -367.303)"/>
          </g>
        </g>
        <g id="Group_766" data-name="Group 766" transform="translate(51.347 9.228)">
          <g id="Group_765" data-name="Group 765">
            <path id="Path_2604" data-name="Path 2604" d="M2087.366,372.16l-.876-.855,7.728-7.92,10.206,5.49-.58,1.078-9.393-5.053Z" transform="translate(-2086.489 -363.385)"/>
          </g>
        </g>
        <g id="Group_768" data-name="Group 768" transform="translate(68.463 6.921)">
          <g id="Group_767" data-name="Group 767">
            <path id="Path_2605" data-name="Path 2605" d="M2116.44,368.241l-.876-.855,7.728-7.921,10.205,5.49-.58,1.078-9.393-5.053Z" transform="translate(-2115.564 -359.466)"/>
          </g>
        </g>
        <g id="Group_770" data-name="Group 770" transform="translate(85.579 4.614)">
          <g id="Group_769" data-name="Group 769">
            <path id="Path_2606" data-name="Path 2606" d="M2145.514,364.322l-.876-.855,7.728-7.921,10.206,5.49-.58,1.078-9.393-5.053Z" transform="translate(-2144.638 -355.547)"/>
          </g>
        </g>
        <g id="Group_772" data-name="Group 772" transform="translate(102.695 2.307)">
          <g id="Group_771" data-name="Group 771">
            <path id="Path_2607" data-name="Path 2607" d="M2174.589,360.4l-.876-.855,7.728-7.921,10.206,5.49-.58,1.078-9.393-5.053Z" transform="translate(-2173.713 -351.628)"/>
          </g>
        </g>
        <g id="Group_774" data-name="Group 774" transform="translate(119.81)">
          <g id="Group_773" data-name="Group 773">
            <path id="Path_2608" data-name="Path 2608" d="M2220.325,352.987l0,.947v0l-.184.34-9.391-5.053-7.085,7.261-.384-.375-.492-.482.36-.37,7.369-7.55Z" transform="translate(-2202.786 -347.709)"/>
          </g>
        </g>
      </g>
      <g id="Group_792" data-name="Group 792" transform="translate(0 64.887)">
        <g id="Group_777" data-name="Group 777" transform="translate(0 16.148)">
          <g id="Group_776" data-name="Group 776">
            <path id="Path_2609" data-name="Path 2609" d="M2000.124,368.17l-.876-.855,7.728-7.921,10.205,5.49-.58,1.078-9.393-5.053Z" transform="translate(-1999.248 -359.395)"/>
          </g>
        </g>
        <g id="Group_779" data-name="Group 779" transform="translate(17.116 13.841)">
          <g id="Group_778" data-name="Group 778">
            <path id="Path_2610" data-name="Path 2610" d="M2029.2,364.252l-.876-.855,7.728-7.921,10.205,5.49-.58,1.078-9.393-5.053Z" transform="translate(-2028.322 -355.476)"/>
          </g>
        </g>
        <g id="Group_781" data-name="Group 781" transform="translate(34.231 11.535)">
          <g id="Group_780" data-name="Group 780">
            <path id="Path_2611" data-name="Path 2611" d="M2058.273,360.333l-.876-.855,7.728-7.92,10.205,5.49-.58,1.078-9.393-5.053Z" transform="translate(-2057.396 -351.557)"/>
          </g>
        </g>
        <g id="Group_783" data-name="Group 783" transform="translate(51.347 9.227)">
          <g id="Group_782" data-name="Group 782">
            <path id="Path_2612" data-name="Path 2612" d="M2087.348,356.414l-.876-.855,7.728-7.921,10.206,5.49-.58,1.078-9.393-5.053Z" transform="translate(-2086.471 -347.638)"/>
          </g>
        </g>
        <g id="Group_785" data-name="Group 785" transform="translate(68.463 6.921)">
          <g id="Group_784" data-name="Group 784">
            <path id="Path_2613" data-name="Path 2613" d="M2116.422,352.5l-.876-.855,7.728-7.921,10.205,5.49-.58,1.078-9.393-5.053Z" transform="translate(-2115.546 -343.72)"/>
          </g>
        </g>
        <g id="Group_787" data-name="Group 787" transform="translate(85.579 4.614)">
          <g id="Group_786" data-name="Group 786">
            <path id="Path_2614" data-name="Path 2614" d="M2145.5,348.576l-.876-.855,7.728-7.921,10.206,5.49-.58,1.078-9.393-5.053Z" transform="translate(-2144.62 -339.801)"/>
          </g>
        </g>
        <g id="Group_789" data-name="Group 789" transform="translate(102.695 2.307)">
          <g id="Group_788" data-name="Group 788">
            <path id="Path_2615" data-name="Path 2615" d="M2174.571,344.658l-.876-.855,7.728-7.92,10.206,5.49-.58,1.078-9.393-5.053Z" transform="translate(-2173.695 -335.882)"/>
          </g>
        </g>
        <g id="Group_791" data-name="Group 791" transform="translate(119.811)">
          <g id="Group_790" data-name="Group 790">
            <path id="Path_2616" data-name="Path 2616" d="M2220.335,337.254l0,.884v0l-.21.392-9.394-5.053-7.083,7.259-.384-.375-.492-.48.36-.37,7.367-7.55Z" transform="translate(-2202.77 -331.964)"/>
          </g>
        </g>
      </g>
      <g id="Group_793" data-name="Group 793" transform="translate(60.329 65.528)">
        <path id="Path_2617" data-name="Path 2617" d="M2110.67,337.859l-.325.6-.255.475-8.36-4.5,0-1.388,8.483,4.561Z" transform="translate(-2101.729 -333.053)"/>
      </g>
      <g id="Group_795" data-name="Group 795" transform="translate(68.452 62.538)">
        <g id="Group_794" data-name="Group 794">
          <path id="Path_2618" data-name="Path 2618" d="M2116.4,336.749l-.876-.855,7.728-7.921,10.205,5.49-.58,1.078-9.393-5.053Z" transform="translate(-2115.528 -327.974)"/>
        </g>
      </g>
      <g id="Group_797" data-name="Group 797" transform="translate(85.568 60.231)">
        <g id="Group_796" data-name="Group 796">
          <path id="Path_2619" data-name="Path 2619" d="M2145.478,332.83l-.876-.855,7.728-7.92,10.206,5.49-.58,1.078-9.393-5.053Z" transform="translate(-2144.602 -324.055)"/>
        </g>
      </g>
      <g id="Group_799" data-name="Group 799" transform="translate(102.684 57.924)">
        <g id="Group_798" data-name="Group 798">
          <path id="Path_2620" data-name="Path 2620" d="M2174.553,328.912l-.876-.855,7.728-7.921,10.205,5.49-.58,1.078-9.393-5.053Z" transform="translate(-2173.677 -320.136)"/>
        </g>
      </g>
      <g id="Group_801" data-name="Group 801" transform="translate(119.801 55.618)">
        <g id="Group_800" data-name="Group 800">
          <path id="Path_2621" data-name="Path 2621" d="M2220.346,321.524v.818l-.24.443-9.394-5.053-7.085,7.261-.384-.375-.49-.48.36-.37,7.367-7.55Z" transform="translate(-2202.753 -316.219)"/>
        </g>
      </g>
      <g id="Group_802" data-name="Group 802" transform="translate(60.347 56.274)">
        <path id="Path_2622" data-name="Path 2622" d="M2110.669,322.125l-.323.6-.254.472-8.334-4.483,0-1.386,8.454,4.546Z" transform="translate(-2101.758 -317.333)"/>
      </g>
      <g id="Group_804" data-name="Group 804" transform="translate(68.442 53.269)">
        <g id="Group_803" data-name="Group 803">
          <path id="Path_2623" data-name="Path 2623" d="M2116.385,321l-.876-.855,7.728-7.921,10.206,5.49-.58,1.078-9.394-5.053Z" transform="translate(-2115.509 -312.228)"/>
        </g>
      </g>
      <g id="Group_806" data-name="Group 806" transform="translate(85.558 50.962)">
        <g id="Group_805" data-name="Group 805">
          <path id="Path_2624" data-name="Path 2624" d="M2145.46,317.084l-.876-.855,7.728-7.921,10.206,5.49-.58,1.078-9.393-5.053Z" transform="translate(-2144.584 -308.309)"/>
        </g>
      </g>
      <g id="Group_808" data-name="Group 808" transform="translate(102.673 48.655)">
        <g id="Group_807" data-name="Group 807">
          <path id="Path_2625" data-name="Path 2625" d="M2174.535,313.165l-.876-.855,7.728-7.921,10.205,5.49-.58,1.078-9.393-5.053Z" transform="translate(-2173.658 -304.39)"/>
        </g>
      </g>
      <g id="Group_810" data-name="Group 810" transform="translate(119.789 46.348)">
        <g id="Group_809" data-name="Group 809">
          <path id="Path_2626" data-name="Path 2626" d="M2203.609,309.247l-.876-.855,7.728-7.921,10.205,5.49-.58,1.078-9.393-5.053Z" transform="translate(-2202.733 -300.471)"/>
        </g>
      </g>
      <g id="Group_811" data-name="Group 811" transform="translate(60.364 47.018)">
        <path id="Path_2627" data-name="Path 2627" d="M2110.672,306.388l-.326.6-.255.472-8.3-4.468,0-1.388,8.424,4.532Z" transform="translate(-2101.787 -301.609)"/>
      </g>
      <g id="Group_813" data-name="Group 813" transform="translate(68.431 43.999)">
        <g id="Group_812" data-name="Group 812">
          <path id="Path_2628" data-name="Path 2628" d="M2116.367,305.257l-.876-.855,7.728-7.921,10.205,5.49-.58,1.078L2123.451,298Z" transform="translate(-2115.491 -296.482)"/>
        </g>
      </g>
      <g id="Group_815" data-name="Group 815" transform="translate(85.547 41.692)">
        <g id="Group_814" data-name="Group 814">
          <path id="Path_2629" data-name="Path 2629" d="M2145.442,301.338l-.876-.855,7.728-7.921,10.206,5.49-.58,1.078-9.394-5.053Z" transform="translate(-2144.566 -292.563)"/>
        </g>
      </g>
      <g id="Group_817" data-name="Group 817" transform="translate(102.663 39.385)">
        <g id="Group_816" data-name="Group 816">
          <path id="Path_2630" data-name="Path 2630" d="M2174.517,297.419l-.876-.855,7.728-7.921,10.205,5.49-.58,1.078-9.393-5.053Z" transform="translate(-2173.64 -288.644)"/>
        </g>
      </g>
      <g id="Group_819" data-name="Group 819" transform="translate(119.778 37.078)">
        <g id="Group_818" data-name="Group 818">
          <path id="Path_2631" data-name="Path 2631" d="M2203.591,293.5l-.876-.855,7.728-7.921,10.205,5.49-.58,1.078-9.393-5.053Z" transform="translate(-2202.715 -284.725)"/>
        </g>
      </g>
      <g id="Group_820" data-name="Group 820" transform="translate(60.381 37.763)">
        <path id="Path_2632" data-name="Path 2632" d="M2110.674,290.653l-.326.6-.255.475-8.277-4.453,0-1.388,8.4,4.517Z" transform="translate(-2101.816 -285.889)"/>
      </g>
      <g id="Group_822" data-name="Group 822" transform="translate(68.42 34.73)">
        <g id="Group_821" data-name="Group 821">
          <path id="Path_2633" data-name="Path 2633" d="M2116.349,289.511l-.876-.855,7.728-7.921,10.205,5.49-.58,1.078-9.393-5.053Z" transform="translate(-2115.473 -280.736)"/>
        </g>
      </g>
      <g id="Group_824" data-name="Group 824" transform="translate(85.536 32.423)">
        <g id="Group_823" data-name="Group 823">
          <path id="Path_2634" data-name="Path 2634" d="M2145.424,285.592l-.876-.855,7.728-7.921,10.205,5.49-.58,1.078-9.393-5.053Z" transform="translate(-2144.548 -276.817)"/>
        </g>
      </g>
      <g id="Group_826" data-name="Group 826" transform="translate(102.652 30.116)">
        <g id="Group_825" data-name="Group 825">
          <path id="Path_2635" data-name="Path 2635" d="M2174.5,281.673l-.876-.855,7.728-7.921,10.205,5.49-.58,1.078-9.393-5.053Z" transform="translate(-2173.622 -272.898)"/>
        </g>
      </g>
      <g id="Group_828" data-name="Group 828" transform="translate(119.767 27.809)">
        <g id="Group_827" data-name="Group 827">
          <path id="Path_2636" data-name="Path 2636" d="M2220.373,274.332v.614l-.323.6-9.394-5.053-7.085,7.259-.385-.375-.492-.48.36-.37,7.369-7.55Z" transform="translate(-2202.695 -268.98)"/>
        </g>
      </g>
      <g id="Group_829" data-name="Group 829" transform="translate(60.398 28.509)">
        <path id="Path_2637" data-name="Path 2637" d="M2110.674,274.916l-.326.6-.255.475-8.248-4.439,0-1.388,8.37,4.5Z" transform="translate(-2101.845 -270.169)"/>
      </g>
      <g id="Group_831" data-name="Group 831" transform="translate(68.41 25.46)">
        <g id="Group_830" data-name="Group 830">
          <path id="Path_2638" data-name="Path 2638" d="M2116.331,273.765l-.876-.855,7.728-7.921,10.205,5.49-.58,1.078-9.393-5.053Z" transform="translate(-2115.455 -264.99)"/>
        </g>
      </g>
      <g id="Group_833" data-name="Group 833" transform="translate(85.526 23.153)">
        <g id="Group_832" data-name="Group 832">
          <path id="Path_2639" data-name="Path 2639" d="M2145.406,269.846l-.876-.855,7.728-7.921,10.205,5.49-.58,1.078-9.393-5.053Z" transform="translate(-2144.53 -261.071)"/>
        </g>
      </g>
      <g id="Group_835" data-name="Group 835" transform="translate(102.641 20.846)">
        <g id="Group_834" data-name="Group 834">
          <path id="Path_2640" data-name="Path 2640" d="M2174.48,265.927l-.876-.855,7.728-7.921,10.205,5.49-.58,1.078-9.393-5.053Z" transform="translate(-2173.604 -257.152)"/>
        </g>
      </g>
      <g id="Group_837" data-name="Group 837" transform="translate(119.757 18.54)">
        <g id="Group_836" data-name="Group 836">
          <path id="Path_2641" data-name="Path 2641" d="M2220.384,258.6v.546l-.353.654-9.394-5.053-7.083,7.261-.385-.375-.492-.48.363-.37,7.366-7.55Z" transform="translate(-2202.678 -253.235)"/>
        </g>
      </g>
      <g id="Group_838" data-name="Group 838" transform="translate(60.415 19.255)">
        <path id="Path_2642" data-name="Path 2642" d="M2110.676,259.181l-.326.6-.254.472-8.221-4.421,0-1.388,8.344,4.488Z" transform="translate(-2101.875 -254.449)"/>
      </g>
      <g id="Group_840" data-name="Group 840" transform="translate(68.399 16.191)">
        <g id="Group_839" data-name="Group 839">
          <path id="Path_2643" data-name="Path 2643" d="M2116.313,258.019l-.876-.855,7.728-7.921,10.205,5.49-.58,1.078-9.393-5.053Z" transform="translate(-2115.437 -249.244)"/>
        </g>
      </g>
      <g id="Group_842" data-name="Group 842" transform="translate(85.515 13.884)">
        <g id="Group_841" data-name="Group 841">
          <path id="Path_2644" data-name="Path 2644" d="M2145.388,254.1l-.876-.855,7.728-7.921,10.206,5.49-.58,1.078-9.393-5.053Z" transform="translate(-2144.511 -245.325)"/>
        </g>
      </g>
      <g id="Group_844" data-name="Group 844" transform="translate(102.631 11.577)">
        <g id="Group_843" data-name="Group 843">
          <path id="Path_2645" data-name="Path 2645" d="M2174.462,250.181l-.876-.855,7.728-7.921,10.205,5.49-.58,1.078-9.393-5.053Z" transform="translate(-2173.586 -241.406)"/>
        </g>
      </g>
      <g id="Group_846" data-name="Group 846" transform="translate(119.747 9.269)">
        <g id="Group_845" data-name="Group 845">
          <path id="Path_2646" data-name="Path 2646" d="M2220.394,242.869v.48l-.379.705L2210.621,239l-7.083,7.261-.385-.375-.492-.48.362-.37,7.364-7.553Z" transform="translate(-2202.662 -237.486)"/>
        </g>
      </g>
      <g id="Group_847" data-name="Group 847" transform="translate(60.432 9.998)">
        <path id="Path_2647" data-name="Path 2647" d="M2110.678,243.445l-.326.6-.255.472-8.194-4.407,0-1.391,8.314,4.473Z" transform="translate(-2101.904 -238.725)"/>
      </g>
      <g id="Group_849" data-name="Group 849" transform="translate(68.388 6.921)">
        <g id="Group_848" data-name="Group 848">
          <path id="Path_2648" data-name="Path 2648" d="M2116.295,242.273l-.876-.855,7.728-7.921,10.206,5.49-.58,1.078-9.393-5.053Z" transform="translate(-2115.418 -233.498)"/>
        </g>
      </g>
      <g id="Group_851" data-name="Group 851" transform="translate(85.504 4.614)">
        <g id="Group_850" data-name="Group 850">
          <path id="Path_2649" data-name="Path 2649" d="M2145.37,238.354l-.876-.855,7.728-7.921,10.206,5.49-.58,1.078-9.393-5.053Z" transform="translate(-2144.493 -229.579)"/>
        </g>
      </g>
      <g id="Group_853" data-name="Group 853" transform="translate(102.62 2.307)">
        <g id="Group_852" data-name="Group 852">
          <path id="Path_2650" data-name="Path 2650" d="M2174.444,234.436l-.876-.855,7.728-7.921,10.205,5.49-.58,1.078-9.393-5.053Z" transform="translate(-2173.568 -225.66)"/>
        </g>
      </g>
      <g id="Group_855" data-name="Group 855" transform="translate(119.735)">
        <g id="Group_854" data-name="Group 854">
          <path id="Path_2651" data-name="Path 2651" d="M2220.4,227.139v.411l-.409.759-9.391-5.053-7.085,7.261-.384-.375-.492-.482.36-.37,7.369-7.55Z" transform="translate(-2202.641 -221.741)"/>
        </g>
      </g>
    </g>
    <g id="Group_858" data-name="Group 858" transform="translate(1978.241 173.564)">
      <g id="Group_857" data-name="Group 857">
        <path id="Path_2652" data-name="Path 2652" d="M2068.862,210.692l-48.284-26.605,77.839-10.523,47.43,25.808Z" transform="translate(-2020.578 -173.564)" fill="#febb73"/>
      </g>
    </g>
    <g id="Group_860" data-name="Group 860" transform="translate(1918.406 249.071)">
      <g id="Group_859" data-name="Group 859">
        <path id="Path_2653" data-name="Path 2653" d="M1966.365,336.419l-47.429-26.55,59.552-8.041,48.043,26.135Z" transform="translate(-1918.936 -301.828)" fill="#fb5f88"/>
      </g>
    </g>
    <g id="Group_862" data-name="Group 862" transform="translate(1965.414 199.249)">
      <g id="Group_861" data-name="Group 861">
        <path id="Path_2654" data-name="Path 2654" d="M1999.4,385.408a.613.613,0,0,1-.612-.613l.156-83.187a.611.611,0,0,1,.527-.605l59.293-8.333.119-64.033a.612.612,0,0,1,.527-.6l77.074-10.831a.612.612,0,0,1,.7.608l-.277,147.747a.612.612,0,0,1-.527.606l-77.071,10.834-59.822,8.407A.6.6,0,0,1,1999.4,385.408Zm.768-83.267-.154,81.95,59.123-8.309,76.546-10.759.274-146.512-75.849,10.659-.119,64.033a.613.613,0,0,1-.528.605Z" transform="translate(-1998.788 -217.195)" fill="#38382e"/>
      </g>
    </g>
    <g id="Group_864" data-name="Group 864" transform="translate(1917.648 257.065)">
      <g id="Group_863" data-name="Group 863">
        <path id="Path_2655" data-name="Path 2655" d="M1966.027,425.8a.606.606,0,0,1-.292-.075l-47.767-25.985a.612.612,0,0,1-.32-.539l.155-83.188a.612.612,0,0,1,.9-.536l47.767,25.985a.611.611,0,0,1,.32.539l-.154,83.188a.613.613,0,0,1-.612.611Zm-47.154-26.961,46.544,25.319.152-81.8-46.544-25.319Z" transform="translate(-1917.648 -315.408)" fill="#38382e"/>
      </g>
    </g>
    <g id="Group_866" data-name="Group 866" transform="translate(1977.622 184.095)">
      <g id="Group_865" data-name="Group 865">
        <path id="Path_2656" data-name="Path 2656" d="M2067.9,283.225a.615.615,0,0,1-.292-.074l-47.767-25.985a.611.611,0,0,1-.32-.539l.12-64.563a.612.612,0,0,1,.9-.536l47.767,25.985a.613.613,0,0,1,.32.539l-.12,64.563a.613.613,0,0,1-.612.611Zm-47.154-26.96,46.544,25.319.117-63.171-46.544-25.319Z" transform="translate(-2019.526 -191.454)" fill="#38382e"/>
      </g>
    </g>
  </g>
</svg>
