<svg xmlns="http://www.w3.org/2000/svg" width="146.996" height="128.523" viewBox="0 0 146.996 128.523">
  <g id="Group_639" data-name="Group 639" transform="matrix(0.839, 0.545, -0.545, 0.839, -676.614, -1923.094)">
    <g id="Group_638" data-name="Group 638" transform="translate(1645.988 1224.109)">
      <g id="Group_634" data-name="Group 634" transform="translate(48.123 48.123)">
        <path id="Path_2540" data-name="Path 2540" d="M1760.828,1326.918a2.674,2.674,0,0,1-2.674-2.674,12.031,12.031,0,0,0-24.061,0,2.673,2.673,0,1,1-5.347,0,17.378,17.378,0,0,1,34.755,0A2.674,2.674,0,0,1,1760.828,1326.918Z" transform="translate(-1728.746 -1306.867)" fill="#ffceb2"/>
      </g>
      <g id="Group_635" data-name="Group 635" transform="translate(32.082 32.082)">
        <path id="Path_2541" data-name="Path 2541" d="M1765.324,1315.373a2.674,2.674,0,0,1-2.674-2.674,28.072,28.072,0,0,0-56.143,0,2.673,2.673,0,1,1-5.347,0,33.418,33.418,0,0,1,66.837,0A2.673,2.673,0,0,1,1765.324,1315.373Z" transform="translate(-1701.16 -1279.281)" fill="#ffceb2"/>
      </g>
      <g id="Group_636" data-name="Group 636" transform="translate(16.041 16.041)">
        <path id="Path_2542" data-name="Path 2542" d="M1769.819,1303.828a2.674,2.674,0,0,1-2.674-2.674,44.112,44.112,0,0,0-88.225,0,2.673,2.673,0,1,1-5.347,0,49.459,49.459,0,0,1,98.919,0A2.674,2.674,0,0,1,1769.819,1303.828Z" transform="translate(-1673.574 -1251.695)" fill="#ffceb2"/>
      </g>
      <g id="Group_637" data-name="Group 637">
        <path id="Path_2543" data-name="Path 2543" d="M1774.315,1292.282a2.674,2.674,0,0,1-2.674-2.674,60.153,60.153,0,0,0-120.307,0,2.673,2.673,0,1,1-5.347,0,65.5,65.5,0,0,1,131,0A2.673,2.673,0,0,1,1774.315,1292.282Z" transform="translate(-1645.988 -1224.109)" fill="#ffceb2"/>
      </g>
    </g>
  </g>
</svg>
