<svg xmlns="http://www.w3.org/2000/svg" width="131" height="130.54" viewBox="0 0 131 130.54">
  <g id="Group_1012" data-name="Group 1012" transform="translate(-1363.16 -1675.643)">
    <g id="Group_869" data-name="Group 869" transform="translate(1363.16 1736.929)">
      <g id="Group_868" data-name="Group 868" transform="translate(0 0)">
        <path id="Path_2657" data-name="Path 2657" d="M1371.958,1811.073a3.77,3.77,0,0,1-3.12,3.225l-2.291.367a1.374,1.374,0,0,0-1.139,1.177l-.248,2.02a3.732,3.732,0,0,1-1.286,2.377,3.414,3.414,0,0,1-.448.333c-.167-1.829-.257-3.687-.267-5.559v0a3.646,3.646,0,0,1,.476-1.043,3.738,3.738,0,0,1,2.53-1.648l2.3-.372a1.369,1.369,0,0,0,1.133-1.172,1.191,1.191,0,1,1,2.363.3Z" transform="translate(-1363.16 -1809.729)" fill="#0e33c2"/>
      </g>
    </g>
    <g id="Group_871" data-name="Group 871" transform="translate(1381.414 1738.897)">
      <g id="Group_870" data-name="Group 870" transform="translate(0)">
        <path id="Path_2658" data-name="Path 2658" d="M1404.677,1822.2a3.643,3.643,0,0,1-.573-.045,1.191,1.191,0,1,1,.37-2.353,1.371,1.371,0,0,0,1.443-.763l.868-1.839a3.767,3.767,0,0,1,3.976-2.1l2.293.367a1.371,1.371,0,0,0,1.444-.759,1.191,1.191,0,0,1,2.151,1.024,3.761,3.761,0,0,1-3.971,2.087l-2.293-.367a1.366,1.366,0,0,0-1.446.762l-.868,1.839A3.769,3.769,0,0,1,1404.677,1822.2Z" transform="translate(-1403.098 -1814.034)" fill="#0e33c2"/>
      </g>
    </g>
    <g id="Group_873" data-name="Group 873" transform="translate(1392.152 1753.598)">
      <g id="Group_872" data-name="Group 872">
        <path id="Path_2659" data-name="Path 2659" d="M1430.25,1861.177a1.19,1.19,0,0,1-1.03-1.786,1.368,1.368,0,0,0-.195-1.619l-1.4-1.472a3.761,3.761,0,0,1-.53-4.462l1.166-2.01a1.368,1.368,0,0,0-.19-1.62,1.191,1.191,0,1,1,1.727-1.64,3.763,3.763,0,0,1,.523,4.455l-1.166,2.01a1.369,1.369,0,0,0,.192,1.622l1.405,1.472a3.76,3.76,0,0,1,.534,4.454A1.19,1.19,0,0,1,1430.25,1861.177Z" transform="translate(-1426.59 -1846.198)" fill="#0e33c2"/>
      </g>
    </g>
    <g id="Group_875" data-name="Group 875" transform="translate(1410.477 1733.993)">
      <g id="Group_874" data-name="Group 874" transform="translate(0 0)">
        <path id="Path_2660" data-name="Path 2660" d="M1476.268,1815.176a1.182,1.182,0,0,1-.228-.022,3.762,3.762,0,0,1-3.014-3.323l-.218-2.313a1.367,1.367,0,0,0-1.1-1.209l-2-.382a3.762,3.762,0,0,1-3.022-3.316,1.191,1.191,0,0,1,2.371-.229,1.367,1.367,0,0,0,1.1,1.205l2,.383a3.761,3.761,0,0,1,3.023,3.325l.218,2.313a1.368,1.368,0,0,0,1.1,1.208,1.191,1.191,0,0,1-.225,2.36Z" transform="translate(-1466.684 -1803.305)" fill="#0e33c2"/>
      </g>
    </g>
    <g id="Group_877" data-name="Group 877" transform="translate(1382.184 1716.63)">
      <g id="Group_876" data-name="Group 876" transform="translate(0 0)">
        <path id="Path_2661" data-name="Path 2661" d="M1417.667,1772.653a1.19,1.19,0,0,1-1.017-.57,1.369,1.369,0,0,0-1.515-.6l-1.964.529a3.762,3.762,0,0,1-4.172-1.67l-1.207-1.985a1.366,1.366,0,0,0-1.513-.608,1.191,1.191,0,1,1-.613-2.3,3.762,3.762,0,0,1,4.162,1.673l1.206,1.985a1.368,1.368,0,0,0,1.517.607l1.964-.529a3.764,3.764,0,0,1,4.167,1.662,1.192,1.192,0,0,1-1.015,1.812Z" transform="translate(-1404.782 -1765.317)" fill="#0e33c2"/>
      </g>
    </g>
    <g id="Group_879" data-name="Group 879" transform="translate(1438.096 1784.229)">
      <g id="Group_878" data-name="Group 878" transform="translate(0 0)">
        <path id="Path_2662" data-name="Path 2662" d="M1528.912,1928.017a1.191,1.191,0,0,1-.809-2.065,1.368,1.368,0,0,0,.3-1.6l-.9-1.823a3.761,3.761,0,0,1,.821-4.418l1.712-1.572a1.369,1.369,0,0,0,.3-1.6,1.191,1.191,0,0,1,2.136-1.053,3.763,3.763,0,0,1-.825,4.41l-1.711,1.572a1.366,1.366,0,0,0-.3,1.606l.9,1.823a3.763,3.763,0,0,1-.814,4.411A1.187,1.187,0,0,1,1528.912,1928.017Z" transform="translate(-1527.11 -1913.214)" fill="#0e33c2"/>
      </g>
    </g>
    <g id="Group_881" data-name="Group 881" transform="translate(1449.333 1758.338)">
      <g id="Group_880" data-name="Group 880" transform="translate(0 0)">
        <path id="Path_2663" data-name="Path 2663" d="M1553.5,1871.371a1.191,1.191,0,0,1-.809-2.066,1.368,1.368,0,0,0,.3-1.6l-.9-1.823a3.761,3.761,0,0,1,.821-4.417l1.711-1.572a1.369,1.369,0,0,0,.3-1.6,1.191,1.191,0,1,1,2.136-1.053,3.763,3.763,0,0,1-.825,4.41l-1.711,1.572a1.367,1.367,0,0,0-.3,1.606l.9,1.823a3.763,3.763,0,0,1-.814,4.411A1.186,1.186,0,0,1,1553.5,1871.371Z" transform="translate(-1551.695 -1856.569)" fill="#0e33c2"/>
      </g>
    </g>
    <g id="Group_883" data-name="Group 883" transform="translate(1375.208 1758.616)">
      <g id="Group_882" data-name="Group 882">
        <path id="Path_2664" data-name="Path 2664" d="M1391.078,1872.15a1.191,1.191,0,0,1-1.019-.574,3.762,3.762,0,0,1,.437-4.465l1.567-1.715a1.369,1.369,0,0,0,.156-1.627l-1.06-1.736a3.763,3.763,0,0,1,.424-4.466,1.191,1.191,0,0,1,1.763,1.6,1.368,1.368,0,0,0-.155,1.624l1.06,1.736a3.762,3.762,0,0,1-.43,4.473l-1.567,1.716a1.368,1.368,0,0,0-.158,1.624,1.192,1.192,0,0,1-1.017,1.809Z" transform="translate(-1389.521 -1857.177)" fill="#0e33c2"/>
      </g>
    </g>
    <g id="Group_885" data-name="Group 885" transform="translate(1444.859 1718.364)">
      <g id="Group_884" data-name="Group 884" transform="translate(0 0)">
        <path id="Path_2665" data-name="Path 2665" d="M1554.341,1775.331a3.763,3.763,0,0,1-2.982-1.463l-1.413-1.845a1.367,1.367,0,0,0-1.573-.44l-1.9.737a3.764,3.764,0,0,1-4.322-1.2,1.191,1.191,0,0,1,1.888-1.453,1.368,1.368,0,0,0,1.57.437l1.9-.737a3.762,3.762,0,0,1,4.328,1.212l1.413,1.845a1.369,1.369,0,0,0,1.57.441,1.191,1.191,0,0,1,.858,2.222A3.7,3.7,0,0,1,1554.341,1775.331Z" transform="translate(-1541.907 -1769.111)" fill="#0e33c2"/>
      </g>
    </g>
    <g id="Group_887" data-name="Group 887" transform="translate(1420.413 1706.323)">
      <g id="Group_886" data-name="Group 886">
        <path id="Path_2666" data-name="Path 2666" d="M1500.855,1748.988a3.761,3.761,0,0,1-2.982-1.464l-1.413-1.844a1.367,1.367,0,0,0-1.573-.441l-1.9.738a3.766,3.766,0,0,1-4.322-1.2,1.191,1.191,0,0,1,1.888-1.453,1.367,1.367,0,0,0,1.57.438l1.9-.737a3.76,3.76,0,0,1,4.327,1.211l1.413,1.845a1.368,1.368,0,0,0,1.57.441,1.191,1.191,0,0,1,.858,2.222A3.7,3.7,0,0,1,1500.855,1748.988Z" transform="translate(-1488.422 -1742.768)" fill="#0e33c2"/>
      </g>
    </g>
    <g id="Group_889" data-name="Group 889" transform="translate(1439.234 1729.078)">
      <g id="Group_888" data-name="Group 888" transform="translate(0)">
        <path id="Path_2667" data-name="Path 2667" d="M1530.791,1804.989a1.191,1.191,0,0,1-.339-2.333,1.367,1.367,0,0,0,.972-1.309l-.008-2.034a3.761,3.761,0,0,1,2.683-3.6l2.229-.657a1.369,1.369,0,0,0,.976-1.308,1.191,1.191,0,0,1,1.189-1.192h0a1.191,1.191,0,0,1,1.191,1.189,3.764,3.764,0,0,1-2.683,3.595l-2.229.657a1.368,1.368,0,0,0-.975,1.31l.008,2.034a3.762,3.762,0,0,1-2.675,3.6A1.184,1.184,0,0,1,1530.791,1804.989Z" transform="translate(-1529.6 -1792.552)" fill="#0e33c2"/>
      </g>
    </g>
    <g id="Group_891" data-name="Group 891" transform="translate(1470.862 1727.732)">
      <g id="Group_890" data-name="Group 890" transform="translate(0)">
        <path id="Path_2668" data-name="Path 2668" d="M1600.461,1804.648a1.19,1.19,0,0,1-.969-.5,3.763,3.763,0,0,1,.1-4.485l1.433-1.83a1.367,1.367,0,0,0,.033-1.633l-1.187-1.651a3.763,3.763,0,0,1,.085-4.485,1.191,1.191,0,1,1,1.879,1.463,1.368,1.368,0,0,0-.031,1.631l1.187,1.651a3.762,3.762,0,0,1-.091,4.493l-1.433,1.829a1.369,1.369,0,0,0-.035,1.631,1.19,1.19,0,0,1-.968,1.884Z" transform="translate(-1598.798 -1789.607)" fill="#0e33c2"/>
      </g>
    </g>
    <g id="Group_893" data-name="Group 893" transform="translate(1462.439 1700.157)">
      <g id="Group_892" data-name="Group 892">
        <path id="Path_2669" data-name="Path 2669" d="M1586.7,1743.235a1.193,1.193,0,0,1-1.166-1.439,1.368,1.368,0,0,0-.684-1.48l-1.79-.967a3.762,3.762,0,0,1-1.88-4.082l.49-2.271a1.369,1.369,0,0,0-.681-1.482,1.191,1.191,0,1,1,1.137-2.093A3.764,3.764,0,0,1,1584,1733.5l-.49,2.272a1.369,1.369,0,0,0,.684,1.484l1.79.967a3.761,3.761,0,0,1,1.882,4.072A1.191,1.191,0,0,1,1586.7,1743.235Z" transform="translate(-1580.37 -1729.276)" fill="#0e33c2"/>
      </g>
    </g>
    <g id="Group_895" data-name="Group 895" transform="translate(1452.197 1772.303)">
      <g id="Group_894" data-name="Group 894" transform="translate(0)">
        <path id="Path_2670" data-name="Path 2670" d="M1559.185,1896.813h-.047a1.191,1.191,0,0,1,.015-2.382h.032a1.369,1.369,0,0,0,1.3-.961l.6-1.944a3.745,3.745,0,0,1,3.634-2.643l2.323.036a1.364,1.364,0,0,0,1.32-.958,1.191,1.191,0,0,1,2.274.706,3.763,3.763,0,0,1-3.575,2.634h-.056l-2.324-.035a1.366,1.366,0,0,0-1.321.961l-.6,1.945A3.763,3.763,0,0,1,1559.185,1896.813Z" transform="translate(-1557.962 -1887.123)" fill="#0e33c2"/>
      </g>
    </g>
    <g id="Group_897" data-name="Group 897" transform="translate(1420.015 1763.462)">
      <g id="Group_896" data-name="Group 896" transform="translate(0)">
        <path id="Path_2671" data-name="Path 2671" d="M1490.353,1868.7a3.761,3.761,0,0,1,.982,3.174l-.372,2.293a1.366,1.366,0,0,0,.759,1.447l1.836.873a3.764,3.764,0,0,1,2.089,3.97,1.191,1.191,0,1,1-2.352-.375,1.368,1.368,0,0,0-.76-1.444l-1.836-.873a3.762,3.762,0,0,1-2.087-3.98l.373-2.293a1.369,1.369,0,0,0-.756-1.445,1.191,1.191,0,1,1,1.028-2.148A3.706,3.706,0,0,1,1490.353,1868.7Z" transform="translate(-1487.551 -1867.779)" fill="#0e33c2"/>
      </g>
    </g>
    <g id="Group_899" data-name="Group 899" transform="translate(1408.989 1750.927)">
      <g id="Group_898" data-name="Group 898" transform="translate(0 0)">
        <path id="Path_2672" data-name="Path 2672" d="M1475.862,1846.574a3.762,3.762,0,0,1-2.983-1.463l-1.413-1.844a1.366,1.366,0,0,0-1.573-.441l-1.9.737a3.764,3.764,0,0,1-4.322-1.2,1.191,1.191,0,1,1,1.887-1.454,1.367,1.367,0,0,0,1.571.438l1.9-.737a3.761,3.761,0,0,1,4.327,1.212l1.413,1.844a1.369,1.369,0,0,0,1.57.442,1.191,1.191,0,1,1,.858,2.222A3.709,3.709,0,0,1,1475.862,1846.574Z" transform="translate(-1463.428 -1840.355)" fill="#0e33c2"/>
      </g>
    </g>
    <g id="Group_901" data-name="Group 901" transform="translate(1369.193 1728.938)">
      <g id="Group_900" data-name="Group 900" transform="translate(0)">
        <path id="Path_2673" data-name="Path 2673" d="M1388.792,1798.464a3.761,3.761,0,0,1-2.982-1.463l-1.413-1.844a1.366,1.366,0,0,0-1.573-.44l-1.9.737a3.765,3.765,0,0,1-4.322-1.2,1.191,1.191,0,1,1,1.887-1.453,1.368,1.368,0,0,0,1.571.438l1.9-.737a3.761,3.761,0,0,1,4.327,1.212l1.413,1.844a1.368,1.368,0,0,0,1.57.442,1.191,1.191,0,0,1,.857,2.222A3.7,3.7,0,0,1,1388.792,1798.464Z" transform="translate(-1376.359 -1792.245)" fill="#0e33c2"/>
      </g>
    </g>
    <g id="Group_903" data-name="Group 903" transform="translate(1388.457 1769.851)">
      <g id="Group_902" data-name="Group 902" transform="translate(0)">
        <path id="Path_2674" data-name="Path 2674" d="M1422.821,1894.846a3.764,3.764,0,0,1-.688-3.25l.58-2.25a1.366,1.366,0,0,0-.624-1.51l-1.75-1.037a3.764,3.764,0,0,1-1.718-4.144,1.191,1.191,0,1,1,2.308.588,1.368,1.368,0,0,0,.625,1.507l1.75,1.037a3.761,3.761,0,0,1,1.716,4.153l-.58,2.25a1.369,1.369,0,0,0,.621,1.508,1.191,1.191,0,0,1-1.219,2.046A3.712,3.712,0,0,1,1422.821,1894.846Z" transform="translate(-1418.506 -1881.757)" fill="#0e33c2"/>
      </g>
    </g>
    <g id="Group_905" data-name="Group 905" transform="translate(1372.591 1719.687)">
      <g id="Group_904" data-name="Group 904" transform="translate(0)">
        <path id="Path_2675" data-name="Path 2675" d="M1389.783,1775.637a1.188,1.188,0,0,1-1.025-.584,1.368,1.368,0,0,0-1.508-.625l-1.971.5a1.191,1.191,0,1,1-.588-2.308l1.971-.5a3.763,3.763,0,0,1,4.144,1.719,1.191,1.191,0,0,1-1.023,1.8Z" transform="translate(-1383.795 -1772.005)" fill="#0e33c2"/>
      </g>
    </g>
    <g id="Group_907" data-name="Group 907" transform="translate(1456.274 1732.926)">
      <g id="Group_906" data-name="Group 906" transform="translate(0 0)">
        <path id="Path_2676" data-name="Path 2676" d="M1568.594,1808.133a1.192,1.192,0,0,1-1.159-.922l-.46-1.981a3.763,3.763,0,0,1,1.808-4.106,1.191,1.191,0,1,1,1.169,2.075,1.368,1.368,0,0,0-.657,1.493l.46,1.981a1.192,1.192,0,0,1-1.161,1.46Z" transform="translate(-1566.88 -1800.97)" fill="#0e33c2"/>
      </g>
    </g>
    <g id="Group_909" data-name="Group 909" transform="translate(1401.073 1745.456)">
      <g id="Group_908" data-name="Group 908">
        <path id="Path_2677" data-name="Path 2677" d="M1450.656,1834.258a1.234,1.234,0,0,1-.158-.01,1.192,1.192,0,0,1-1.024-1.337,1.367,1.367,0,0,0-.8-1.422l-1.86-.823a1.191,1.191,0,1,1,.965-2.177l1.86.824a3.762,3.762,0,0,1,2.194,3.913A1.191,1.191,0,0,1,1450.656,1834.258Z" transform="translate(-1446.108 -1828.384)" fill="#0e33c2"/>
      </g>
    </g>
    <g id="Group_911" data-name="Group 911" transform="translate(1397.067 1795.837)">
      <g id="Group_910" data-name="Group 910" transform="translate(0 0)">
        <path id="Path_2678" data-name="Path 2678" d="M1440.039,1939.885l-.143,2.029a3.655,3.655,0,0,1-.248,1.091,2.971,2.971,0,0,1-.2.429c-.71-.362-1.41-.739-2.1-1.124a1.254,1.254,0,0,0,.162-.457.747.747,0,0,0,.014-.11l.148-2.029a1.189,1.189,0,0,1,2.372.171Z" transform="translate(-1437.343 -1938.611)" fill="#0e33c2"/>
      </g>
    </g>
    <g id="Group_913" data-name="Group 913" transform="translate(1451.933 1786.267)">
      <g id="Group_912" data-name="Group 912" transform="translate(0)">
        <path id="Path_2679" data-name="Path 2679" d="M1560.609,1921.046a3.762,3.762,0,0,1-2.977-1.455,1.191,1.191,0,1,1,1.887-1.454,1.368,1.368,0,0,0,1.571.438l1.9-.738a1.191,1.191,0,1,1,.863,2.22l-1.9.737A3.7,3.7,0,0,1,1560.609,1921.046Z" transform="translate(-1557.384 -1917.673)" fill="#0e33c2"/>
      </g>
    </g>
    <g id="Group_915" data-name="Group 915" transform="translate(1436.347 1772.215)">
      <g id="Group_914" data-name="Group 914" transform="translate(0 0)">
        <path id="Path_2680" data-name="Path 2680" d="M1525.671,1887.549a3.766,3.766,0,0,1,3.288-.415,1.191,1.191,0,0,1-.781,2.25,1.369,1.369,0,0,0-1.554.5l-1.181,1.656a1.191,1.191,0,0,1-1.939-1.383l1.181-1.656A3.712,3.712,0,0,1,1525.671,1887.549Z" transform="translate(-1523.282 -1886.929)" fill="#0e33c2"/>
      </g>
    </g>
    <g id="Group_917" data-name="Group 917" transform="translate(1425.462 1791.035)">
      <g id="Group_916" data-name="Group 916" transform="translate(0 0)">
        <path id="Path_2681" data-name="Path 2681" d="M1502.693,1931.479a3.764,3.764,0,0,1-2.977-1.456,1.191,1.191,0,0,1,1.887-1.454,1.368,1.368,0,0,0,1.571.438l1.9-.737a1.191,1.191,0,1,1,.863,2.219l-1.9.737A3.7,3.7,0,0,1,1502.693,1931.479Z" transform="translate(-1499.468 -1928.105)" fill="#0e33c2"/>
      </g>
    </g>
    <g id="Group_919" data-name="Group 919" transform="translate(1467.784 1756.7)">
      <g id="Group_918" data-name="Group 918">
        <path id="Path_2682" data-name="Path 2682" d="M1592.628,1855.024a3.764,3.764,0,0,1,2.63-2.016,1.191,1.191,0,1,1,.46,2.337,1.369,1.369,0,0,0-1.092,1.211l-.185,2.026a1.191,1.191,0,1,1-2.372-.217l.185-2.026A3.718,3.718,0,0,1,1592.628,1855.024Z" transform="translate(-1592.064 -1852.985)" fill="#0e33c2"/>
      </g>
    </g>
    <g id="Group_921" data-name="Group 921" transform="translate(1481.76 1732.037)">
      <g id="Group_920" data-name="Group 920" transform="translate(0 0)">
        <path id="Path_2683" data-name="Path 2683" d="M1623.205,1801.065a3.763,3.763,0,0,1,2.63-2.016,1.191,1.191,0,1,1,.46,2.337,1.368,1.368,0,0,0-1.092,1.211l-.185,2.025a1.191,1.191,0,1,1-2.372-.217l.185-2.025A3.69,3.69,0,0,1,1623.205,1801.065Z" transform="translate(-1622.641 -1799.026)" fill="#0e33c2"/>
      </g>
    </g>
    <g id="Group_923" data-name="Group 923" transform="translate(1461.748 1717.677)">
      <g id="Group_922" data-name="Group 922" transform="translate(0 0)">
        <path id="Path_2684" data-name="Path 2684" d="M1582.927,1770.8a3.765,3.765,0,0,1-.44,3.284,1.191,1.191,0,1,1-1.976-1.33,1.368,1.368,0,0,0-.081-1.629l-1.3-1.565a1.191,1.191,0,0,1,1.833-1.521l1.3,1.565A3.706,3.706,0,0,1,1582.927,1770.8Z" transform="translate(-1578.857 -1767.608)" fill="#0e33c2"/>
      </g>
    </g>
    <g id="Group_925" data-name="Group 925" transform="translate(1464.741 1728.59)">
      <g id="Group_924" data-name="Group 924">
        <path id="Path_2685" data-name="Path 2685" d="M1585.817,1795.478a3.766,3.766,0,0,1-.055-3.314,1.191,1.191,0,1,1,2.152,1.021,1.368,1.368,0,0,0,.324,1.6l1.517,1.354a1.191,1.191,0,0,1-1.586,1.777l-1.517-1.354A3.708,3.708,0,0,1,1585.817,1795.478Z" transform="translate(-1585.405 -1791.483)" fill="#0e33c2"/>
      </g>
    </g>
    <g id="Group_927" data-name="Group 927" transform="translate(1423.507 1717.373)">
      <g id="Group_926" data-name="Group 926" transform="translate(0)">
        <path id="Path_2686" data-name="Path 2686" d="M1499.262,1770.135a3.763,3.763,0,0,1-.439,3.284,1.191,1.191,0,1,1-1.976-1.33,1.368,1.368,0,0,0-.081-1.629l-1.3-1.565a1.191,1.191,0,0,1,1.833-1.521l1.3,1.565A3.7,3.7,0,0,1,1499.262,1770.135Z" transform="translate(-1495.192 -1766.943)" fill="#0e33c2"/>
      </g>
    </g>
    <g id="Group_929" data-name="Group 929" transform="translate(1384.141 1699.323)">
      <g id="Group_928" data-name="Group 928" transform="translate(0)">
        <path id="Path_2687" data-name="Path 2687" d="M1412.287,1730.826a3.761,3.761,0,0,1-2.977-1.456,1.191,1.191,0,1,1,1.887-1.453,1.369,1.369,0,0,0,1.571.438l1.9-.737a1.191,1.191,0,1,1,.864,2.219l-1.9.737A3.705,3.705,0,0,1,1412.287,1730.826Z" transform="translate(-1409.063 -1727.453)" fill="#0e33c2"/>
      </g>
    </g>
    <g id="Group_931" data-name="Group 931" transform="translate(1446.329 1692.716)">
      <g id="Group_930" data-name="Group 930" transform="translate(0 0)">
        <path id="Path_2688" data-name="Path 2688" d="M1549.6,1718.963a1.193,1.193,0,0,1-.512-.116l-1.836-.876a3.764,3.764,0,0,1-2.083-3.973,1.191,1.191,0,1,1,2.351.379,1.368,1.368,0,0,0,.758,1.445l1.836.876a1.191,1.191,0,0,1-.514,2.266Z" transform="translate(-1545.123 -1712.996)" fill="#0e33c2"/>
      </g>
    </g>
    <g id="Group_933" data-name="Group 933" transform="translate(1430.381 1686.632)">
      <g id="Group_932" data-name="Group 932" transform="translate(0 0)">
        <path id="Path_2689" data-name="Path 2689" d="M1514.708,1705.654a1.192,1.192,0,0,1-.512-.117l-1.836-.876a3.762,3.762,0,0,1-2.082-3.973,1.19,1.19,0,1,1,2.351.378,1.369,1.369,0,0,0,.758,1.445l1.836.876a1.191,1.191,0,0,1-.514,2.266Z" transform="translate(-1510.23 -1699.686)" fill="#0e33c2"/>
      </g>
    </g>
    <g id="Group_935" data-name="Group 935" transform="translate(1419.252 1695.937)">
      <g id="Group_934" data-name="Group 934" transform="translate(0 0)">
        <path id="Path_2690" data-name="Path 2690" d="M1490.359,1726.01a1.188,1.188,0,0,1-.512-.117l-1.836-.876a3.763,3.763,0,0,1-2.082-3.973,1.191,1.191,0,1,1,2.351.379,1.369,1.369,0,0,0,.758,1.445l1.836.876a1.191,1.191,0,0,1-.514,2.266Z" transform="translate(-1485.882 -1720.043)" fill="#0e33c2"/>
      </g>
    </g>
    <g id="Group_937" data-name="Group 937" transform="translate(1475.814 1716.128)">
      <g id="Group_936" data-name="Group 936" transform="translate(0 0)">
        <path id="Path_2691" data-name="Path 2691" d="M1611.345,1771.381a1.192,1.192,0,0,1-1.159-.922l-.46-1.981a3.763,3.763,0,0,1,1.808-4.106,1.191,1.191,0,1,1,1.169,2.075,1.368,1.368,0,0,0-.657,1.493l.46,1.981a1.192,1.192,0,0,1-1.161,1.46Z" transform="translate(-1609.631 -1764.218)" fill="#0e33c2"/>
      </g>
    </g>
    <g id="Group_939" data-name="Group 939" transform="translate(1425.74 1734.742)">
      <g id="Group_938" data-name="Group 938" transform="translate(0)">
        <path id="Path_2692" data-name="Path 2692" d="M1504.626,1810.817a1.221,1.221,0,0,1-.157-.01,1.191,1.191,0,0,1-1.025-1.337,1.368,1.368,0,0,0-.8-1.422l-1.859-.824a1.191,1.191,0,1,1,.964-2.177l1.86.823a3.763,3.763,0,0,1,2.195,3.913A1.191,1.191,0,0,1,1504.626,1810.817Z" transform="translate(-1500.077 -1804.944)" fill="#0e33c2"/>
      </g>
    </g>
    <g id="Group_941" data-name="Group 941" transform="translate(1427.488 1750.53)">
      <g id="Group_940" data-name="Group 940" transform="translate(0 0)">
        <path id="Path_2693" data-name="Path 2693" d="M1503.932,1842.885a1.176,1.176,0,0,1,.046-.151,1.191,1.191,0,0,1,1.534-.7,1.368,1.368,0,0,0,1.567-.455l1.224-1.625a1.191,1.191,0,0,1,1.9,1.433l-1.224,1.625a3.763,3.763,0,0,1-4.308,1.25A1.191,1.191,0,0,1,1503.932,1842.885Z" transform="translate(-1503.901 -1839.486)" fill="#0e33c2"/>
      </g>
    </g>
    <g id="Group_943" data-name="Group 943" transform="translate(1419.573 1779.038)">
      <g id="Group_942" data-name="Group 942" transform="translate(0)">
        <path id="Path_2694" data-name="Path 2694" d="M1487.773,1908.578a1.191,1.191,0,0,1-.25-2.355,1.369,1.369,0,0,0,1.069-1.232l.147-2.029a1.191,1.191,0,1,1,2.375.172l-.147,2.028a3.762,3.762,0,0,1-2.941,3.387A1.194,1.194,0,0,1,1487.773,1908.578Z" transform="translate(-1486.584 -1901.858)" fill="#0e33c2"/>
      </g>
    </g>
    <g id="Group_945" data-name="Group 945" transform="translate(1404.222 1789.075)">
      <g id="Group_944" data-name="Group 944">
        <path id="Path_2695" data-name="Path 2695" d="M1453.849,1924.13a1.191,1.191,0,0,1,1.776,1.567,1.37,1.37,0,0,0,.043,1.631l1.262,1.595a1.191,1.191,0,0,1-1.868,1.478l-1.262-1.6a3.761,3.761,0,0,1-.12-4.484A1.211,1.211,0,0,1,1453.849,1924.13Z" transform="translate(-1452.998 -1923.818)" fill="#0e33c2"/>
      </g>
    </g>
    <g id="Group_947" data-name="Group 947" transform="translate(1476.273 1769.469)">
      <g id="Group_946" data-name="Group 946" transform="translate(0 0)">
        <path id="Path_2696" data-name="Path 2696" d="M1613.86,1884.3a3.761,3.761,0,0,1-2.977-1.456,1.191,1.191,0,1,1,1.887-1.453,1.367,1.367,0,0,0,1.571.438l1.9-.737a1.191,1.191,0,0,1,.864,2.22l-1.9.737A3.708,3.708,0,0,1,1613.86,1884.3Z" transform="translate(-1610.635 -1880.923)" fill="#0e33c2"/>
      </g>
    </g>
    <g id="Group_949" data-name="Group 949" transform="translate(1408.48 1682.526)">
      <g id="Group_948" data-name="Group 948" transform="translate(0 0)">
        <path id="Path_2697" data-name="Path 2697" d="M1465.538,1694.075a3.763,3.763,0,0,1-2.977-1.456,1.191,1.191,0,0,1,1.888-1.452,1.367,1.367,0,0,0,1.571.437l1.9-.737a1.191,1.191,0,1,1,.863,2.22l-1.9.737A3.71,3.71,0,0,1,1465.538,1694.075Z" transform="translate(-1462.314 -1690.702)" fill="#0e33c2"/>
      </g>
    </g>
    <g id="Group_951" data-name="Group 951" transform="translate(1448.729 1707.457)">
      <g id="Group_950" data-name="Group 950">
        <path id="Path_2698" data-name="Path 2698" d="M1554.851,1751.214a1.2,1.2,0,0,1-.512-.116l-1.836-.876a3.762,3.762,0,0,1-2.082-3.974,1.191,1.191,0,0,1,2.351.379,1.368,1.368,0,0,0,.757,1.445l1.836.876a1.191,1.191,0,0,1-.514,2.266Z" transform="translate(-1550.374 -1745.247)" fill="#0e33c2"/>
      </g>
    </g>
    <g id="Group_953" data-name="Group 953" transform="translate(1440.672 1756.289)">
      <g id="Group_952" data-name="Group 952" transform="translate(0 0)">
        <path id="Path_2699" data-name="Path 2699" d="M1537.224,1858.053a1.184,1.184,0,0,1-.512-.117l-1.836-.876a3.762,3.762,0,0,1-2.082-3.973,1.191,1.191,0,1,1,2.351.379,1.367,1.367,0,0,0,.757,1.444l1.836.876a1.191,1.191,0,0,1-.514,2.266Z" transform="translate(-1532.747 -1852.086)" fill="#0e33c2"/>
      </g>
    </g>
    <g id="Group_955" data-name="Group 955" transform="translate(1404.167 1766.863)">
      <g id="Group_954" data-name="Group 954" transform="translate(0 0)">
        <path id="Path_2700" data-name="Path 2700" d="M1454.593,1882.383a1.192,1.192,0,0,1-1.16-.922l-.459-1.981a3.762,3.762,0,0,1,1.808-4.106,1.191,1.191,0,1,1,1.169,2.075,1.367,1.367,0,0,0-.657,1.492l.46,1.982a1.193,1.193,0,0,1-1.161,1.46Z" transform="translate(-1452.879 -1875.22)" fill="#0e33c2"/>
      </g>
    </g>
    <g id="Group_957" data-name="Group 957" transform="translate(1364.908 1756.391)">
      <g id="Group_956" data-name="Group 956" transform="translate(0)">
        <path id="Path_2701" data-name="Path 2701" d="M1372.5,1857.15a1.186,1.186,0,0,1-1.177,1.034c-.053,0-.1-.005-.157-.01a1.191,1.191,0,0,1-1.024-1.339,1.38,1.38,0,0,0-.8-1.424l-1.367-.6-.491-.214a.5.5,0,0,1-.071-.038c-.153-.571-.3-1.148-.429-1.724a1.06,1.06,0,0,1,.4-.367,1.174,1.174,0,0,1,1.062-.052l1.863.824A3.758,3.758,0,0,1,1372.5,1857.15Z" transform="translate(-1366.985 -1852.308)" fill="#0e33c2"/>
      </g>
    </g>
    <g id="Group_959" data-name="Group 959" transform="translate(1470.992 1692.077)">
      <g id="Group_958" data-name="Group 958" transform="translate(0)">
        <path id="Path_2702" data-name="Path 2702" d="M1603.306,1713.575a2.95,2.95,0,0,1-.186.481,3.771,3.771,0,0,1-2.6,2.067,1.131,1.131,0,0,1-.253.028,1.192,1.192,0,0,1-.247-2.358,1.363,1.363,0,0,0,1.067-1.229l.029-.367.043-.6C1601.892,1712.237,1602.606,1712.9,1603.306,1713.575Z" transform="translate(-1599.083 -1711.598)" fill="#0e33c2"/>
      </g>
    </g>
    <g id="Group_961" data-name="Group 961" transform="translate(1431.006 1802.81)">
      <g id="Group_960" data-name="Group 960" transform="translate(0)">
        <path id="Path_2703" data-name="Path 2703" d="M1514.823,1957.24a3.764,3.764,0,0,1-2.978-1.456,1.191,1.191,0,0,1,1.888-1.453,1.367,1.367,0,0,0,1.57.438l1.9-.737a1.191,1.191,0,1,1,.863,2.22l-1.9.737A3.71,3.71,0,0,1,1514.823,1957.24Z" transform="translate(-1511.598 -1953.867)" fill="#0e33c2"/>
      </g>
    </g>
    <g id="Group_963" data-name="Group 963" transform="translate(1414.53 1710.784)">
      <g id="Group_962" data-name="Group 962" transform="translate(0 0)">
        <path id="Path_2704" data-name="Path 2704" d="M1478.775,1755.9a3.764,3.764,0,0,1-2.977-1.456,1.191,1.191,0,1,1,1.887-1.454,1.366,1.366,0,0,0,1.571.438l1.9-.737a1.191,1.191,0,1,1,.863,2.22l-1.9.737A3.7,3.7,0,0,1,1478.775,1755.9Z" transform="translate(-1475.551 -1752.526)" fill="#0e33c2"/>
      </g>
    </g>
    <g id="Group_965" data-name="Group 965" transform="translate(1394.223 1726.654)">
      <g id="Group_964" data-name="Group 964" transform="translate(0 0)">
        <path id="Path_2705" data-name="Path 2705" d="M1435.6,1793.214a1.184,1.184,0,0,1-.511-.116l-1.836-.876a3.762,3.762,0,0,1-2.083-3.973,1.191,1.191,0,0,1,2.351.379,1.367,1.367,0,0,0,.757,1.444l1.836.876a1.191,1.191,0,0,1-.514,2.266Z" transform="translate(-1431.122 -1787.248)" fill="#0e33c2"/>
      </g>
    </g>
    <g id="Group_967" data-name="Group 967" transform="translate(1406.852 1774.592)">
      <g id="Group_966" data-name="Group 966" transform="translate(0)">
        <path id="Path_2706" data-name="Path 2706" d="M1459.943,1904.568a1.191,1.191,0,0,1-.339-2.332,1.367,1.367,0,0,0,.972-1.309l-.008-2.034a3.762,3.762,0,0,1,2.683-3.6l2.229-.657a1.369,1.369,0,0,0,.976-1.307,1.191,1.191,0,0,1,1.189-1.193h0a1.19,1.19,0,0,1,1.191,1.189,3.763,3.763,0,0,1-2.683,3.595l-2.229.657a1.367,1.367,0,0,0-.975,1.31l.008,2.034a3.762,3.762,0,0,1-2.675,3.6A1.187,1.187,0,0,1,1459.943,1904.568Z" transform="translate(-1458.752 -1892.131)" fill="#0e33c2"/>
      </g>
    </g>
    <g id="Group_969" data-name="Group 969" transform="translate(1460.769 1748.103)">
      <g id="Group_968" data-name="Group 968" transform="translate(0 0)">
        <path id="Path_2707" data-name="Path 2707" d="M1589.381,1834.178a1.191,1.191,0,0,1,1.114,1.75,3.763,3.763,0,0,1-4.062,1.9l-2.275-.472a1.366,1.366,0,0,0-1.479.694l-.953,1.8a3.766,3.766,0,0,1-4.057,1.913,1.191,1.191,0,1,1,.478-2.333,1.366,1.366,0,0,0,1.475-.7l.953-1.8a3.762,3.762,0,0,1,4.067-1.912l2.275.472a1.369,1.369,0,0,0,1.477-.692A1.189,1.189,0,0,1,1589.381,1834.178Z" transform="translate(-1576.716 -1834.176)" fill="#0e33c2"/>
      </g>
    </g>
    <g id="Group_971" data-name="Group 971" transform="translate(1442.224 1743.156)">
      <g id="Group_970" data-name="Group 970" transform="translate(0)">
        <path id="Path_2708" data-name="Path 2708" d="M1537.331,1830.417a1.191,1.191,0,0,1-1.018-1.807,3.762,3.762,0,0,1,4.158-1.681l2.247.594a1.365,1.365,0,0,0,1.514-.614l1.049-1.743a3.765,3.765,0,0,1,4.155-1.692,1.191,1.191,0,1,1-.6,2.3,1.367,1.367,0,0,0-1.51.615l-1.049,1.743a3.761,3.761,0,0,1-4.164,1.689l-2.246-.594a1.37,1.37,0,0,0-1.512.612A1.189,1.189,0,0,1,1537.331,1830.417Z" transform="translate(-1536.141 -1823.354)" fill="#0e33c2"/>
      </g>
    </g>
    <g id="Group_973" data-name="Group 973" transform="translate(1401.776 1720.96)">
      <g id="Group_972" data-name="Group 972" transform="translate(0 0)">
        <path id="Path_2709" data-name="Path 2709" d="M1448.837,1781.854a1.191,1.191,0,0,1-1.018-1.808,3.764,3.764,0,0,1,4.159-1.681l2.247.594a1.366,1.366,0,0,0,1.513-.614l1.048-1.743a3.766,3.766,0,0,1,4.155-1.692,1.191,1.191,0,0,1-.6,2.3,1.367,1.367,0,0,0-1.511.615l-1.049,1.743a3.762,3.762,0,0,1-4.164,1.689l-2.245-.594a1.369,1.369,0,0,0-1.512.611A1.191,1.191,0,0,1,1448.837,1781.854Z" transform="translate(-1447.647 -1774.791)" fill="#0e33c2"/>
      </g>
    </g>
    <g id="Group_975" data-name="Group 975" transform="translate(1416.844 1675.643)">
      <g id="Group_974" data-name="Group 974" transform="translate(0)">
        <path id="Path_2710" data-name="Path 2710" d="M1493.371,1679.959a3.756,3.756,0,0,1-4.316-1.215l-1.415-1.843a1.366,1.366,0,0,0-1.572-.438l-1.9.734a3.809,3.809,0,0,1-3.558-.457,65.9,65.9,0,0,1,9.06-1.1l.357.457.915,1.2a1.366,1.366,0,0,0,1.567.443,1.19,1.19,0,0,1,.858,2.22Z" transform="translate(-1480.614 -1675.643)" fill="#0e33c2"/>
      </g>
    </g>
    <g id="Group_977" data-name="Group 977" transform="translate(1439.865 1677.267)">
      <g id="Group_976" data-name="Group 976" transform="translate(0 0)">
        <path id="Path_2711" data-name="Path 2711" d="M1539.508,1680.273a3.693,3.693,0,0,1-.548.329h0a3.317,3.317,0,0,1-.572.224l-2.229.657a1.374,1.374,0,0,0-.977,1.31l.01,2.034a3.769,3.769,0,0,1-2.677,3.6,1.208,1.208,0,0,1-.338.047,1.188,1.188,0,0,1-.338-2.329,1.375,1.375,0,0,0,.972-1.31l-.01-2.034a3.779,3.779,0,0,1,2.677-3.606h0C1536.84,1679.51,1538.184,1679.873,1539.508,1680.273Z" transform="translate(-1530.98 -1679.196)" fill="#0e33c2"/>
      </g>
    </g>
    <g id="Group_979" data-name="Group 979" transform="translate(1408.474 1686.163)">
      <g id="Group_978" data-name="Group 978" transform="translate(0)">
        <path id="Path_2712" data-name="Path 2712" d="M1463.49,1705.722a1.191,1.191,0,0,1-1.018-1.808,3.762,3.762,0,0,1,4.159-1.681l2.246.594a1.366,1.366,0,0,0,1.514-.614l1.049-1.743a3.764,3.764,0,0,1,4.155-1.692,1.191,1.191,0,1,1-.6,2.3,1.368,1.368,0,0,0-1.511.615l-1.048,1.743a3.762,3.762,0,0,1-4.164,1.689l-2.247-.594a1.366,1.366,0,0,0-1.512.611A1.19,1.19,0,0,1,1463.49,1705.722Z" transform="translate(-1462.3 -1698.658)" fill="#0e33c2"/>
      </g>
    </g>
    <g id="Group_981" data-name="Group 981" transform="translate(1434.656 1696.504)">
      <g id="Group_980" data-name="Group 980" transform="translate(0 0)">
        <path id="Path_2713" data-name="Path 2713" d="M1525.918,1735.244a1.193,1.193,0,0,1-1.166-1.439,1.368,1.368,0,0,0-.685-1.48l-1.789-.967a3.761,3.761,0,0,1-1.88-4.081l.49-2.271a1.368,1.368,0,0,0-.68-1.483,1.191,1.191,0,0,1,1.137-2.093,3.764,3.764,0,0,1,1.872,4.077l-.49,2.271a1.367,1.367,0,0,0,.683,1.484l1.79.967a3.763,3.763,0,0,1,1.882,4.072A1.191,1.191,0,0,1,1525.918,1735.244Z" transform="translate(-1519.584 -1721.285)" fill="#0e33c2"/>
      </g>
    </g>
    <g id="Group_983" data-name="Group 983" transform="translate(1410.34 1795.223)">
      <g id="Group_982" data-name="Group 982" transform="translate(0)">
        <path id="Path_2714" data-name="Path 2714" d="M1467.605,1946.959h-.047a1.191,1.191,0,0,1,.015-2.382h.032a1.368,1.368,0,0,0,1.3-.961l.6-1.944a3.762,3.762,0,0,1,3.578-2.643h.057l2.323.035a1.368,1.368,0,0,0,1.32-.958,1.191,1.191,0,1,1,2.274.705,3.731,3.731,0,0,1-3.631,2.634l-2.323-.035a1.359,1.359,0,0,0-1.321.961l-.6,1.944A3.762,3.762,0,0,1,1467.605,1946.959Z" transform="translate(-1466.383 -1937.269)" fill="#0e33c2"/>
      </g>
    </g>
    <g id="Group_985" data-name="Group 985" transform="translate(1433.023 1717.593)">
      <g id="Group_984" data-name="Group 984" transform="translate(0 0)">
        <path id="Path_2715" data-name="Path 2715" d="M1518.128,1781.892a1.172,1.172,0,0,1-.219.128,1.191,1.191,0,0,1-1.574-.6,3.763,3.763,0,0,1,.986-4.376l1.767-1.509a1.366,1.366,0,0,0,.357-1.594l-.836-1.855a3.762,3.762,0,0,1,.975-4.379,1.191,1.191,0,0,1,1.551,1.808,1.368,1.368,0,0,0-.355,1.591l.836,1.855a3.76,3.76,0,0,1-.982,4.385l-1.767,1.508a1.37,1.37,0,0,0-.358,1.592A1.191,1.191,0,0,1,1518.128,1781.892Z" transform="translate(-1516.012 -1767.424)" fill="#0e33c2"/>
      </g>
    </g>
    <g id="Group_988" data-name="Group 988" transform="translate(1451.508 1797.898)">
      <g id="Group_986" data-name="Group 986" transform="translate(0 5.754)">
        <path id="Path_2716" data-name="Path 2716" d="M1557.607,1955.723l.119.014c-.419.157-.843.314-1.271.467A1.19,1.19,0,0,1,1557.607,1955.723Z" transform="translate(-1556.454 -1955.708)" fill="#0e33c2"/>
      </g>
      <g id="Group_987" data-name="Group 987" transform="translate(2.343 0)">
        <path id="Path_2717" data-name="Path 2717" d="M1571.975,1943.224a65.6,65.6,0,0,1-5.983,3.306.015.015,0,0,0-.01,0,1.315,1.315,0,0,0-.9.429c-1.148.538-2.32,1.048-3.506,1.52a1.327,1.327,0,0,0,.248-.357l.148-.314.724-1.524a3.758,3.758,0,0,1,3.972-2.1l2.134.343h.005l.157.024a1.367,1.367,0,0,0,1.443-.757,1.012,1.012,0,0,1,.167-.252.2.2,0,0,1,.052-.057c0-.005,0-.005,0-.005v0s.005-.01.01,0a1.111,1.111,0,0,1,.515-.31A1.18,1.18,0,0,1,1571.975,1943.224Z" transform="translate(-1561.581 -1943.12)" fill="#0e33c2"/>
      </g>
    </g>
    <g id="Group_990" data-name="Group 990" transform="translate(1468.616 1772.855)">
      <g id="Group_989" data-name="Group 989">
        <path id="Path_2718" data-name="Path 2718" d="M1597.545,1903.31a1.191,1.191,0,0,1-1.031-1.786,1.369,1.369,0,0,0-.195-1.62l-1.4-1.471a3.762,3.762,0,0,1-.531-4.462l1.167-2.01a1.369,1.369,0,0,0-.191-1.619,1.191,1.191,0,0,1,1.727-1.641,3.763,3.763,0,0,1,.524,4.455l-1.166,2.01a1.367,1.367,0,0,0,.193,1.622l1.405,1.471a3.764,3.764,0,0,1,.535,4.454A1.19,1.19,0,0,1,1597.545,1903.31Z" transform="translate(-1593.884 -1888.33)" fill="#0e33c2"/>
      </g>
    </g>
    <g id="Group_992" data-name="Group 992" transform="translate(1478.93 1761.432)">
      <g id="Group_991" data-name="Group 991" transform="translate(0 0)">
        <path id="Path_2719" data-name="Path 2719" d="M1626.283,1872.857c-.352.724-.724,1.443-1.105,2.153a2.869,2.869,0,0,1-.438-.2,3.764,3.764,0,0,1-1.948-2.939l-.219-2.315a1.366,1.366,0,0,0-1.1-1.205l-2-.386a3.758,3.758,0,0,1-3.02-3.315,1.189,1.189,0,1,1,2.367-.229,1.361,1.361,0,0,0,1.1,1.205l2,.381a3.773,3.773,0,0,1,3.025,3.325l.219,2.315a1.368,1.368,0,0,0,.672,1.053,1.4,1.4,0,0,0,.424.157C1626.268,1872.852,1626.273,1872.857,1626.283,1872.857Z" transform="translate(-1616.449 -1863.338)" fill="#0e33c2"/>
      </g>
    </g>
    <g id="Group_994" data-name="Group 994" transform="translate(1484.016 1721.956)">
      <g id="Group_993" data-name="Group 993" transform="translate(0 0)">
        <path id="Path_2720" data-name="Path 2720" d="M1637.721,1783.188l-.462.124-1.291.347a3.764,3.764,0,0,1-4.173-1.672l-1.205-1.986a1.369,1.369,0,0,0-1.515-.6,1.191,1.191,0,0,1-.614-2.3,3.757,3.757,0,0,1,4.163,1.672l1.205,1.982a1.373,1.373,0,0,0,1.52.61l1.381-.372.462-.124C1637.382,1781.635,1637.558,1782.407,1637.721,1783.188Z" transform="translate(-1627.576 -1776.969)" fill="#0e33c2"/>
      </g>
    </g>
    <g id="Group_996" data-name="Group 996" transform="translate(1428.503 1757.364)">
      <g id="Group_995" data-name="Group 995" transform="translate(0 0)">
        <path id="Path_2721" data-name="Path 2721" d="M1507.315,1867.318a1.191,1.191,0,0,1-1.187-1.118,3.763,3.763,0,0,1,2.464-3.749l2.185-.789a1.368,1.368,0,0,0,.9-1.367l-.13-2.029a3.762,3.762,0,0,1,2.455-3.755,1.191,1.191,0,1,1,.814,2.238,1.369,1.369,0,0,0-.893,1.366l.13,2.029a3.76,3.76,0,0,1-2.464,3.758l-2.184.789a1.368,1.368,0,0,0-.9,1.363,1.191,1.191,0,0,1-1.116,1.262Z" transform="translate(-1506.121 -1854.438)" fill="#0e33c2"/>
      </g>
    </g>
    <g id="Group_998" data-name="Group 998" transform="translate(1477.541 1704.524)">
      <g id="Group_997" data-name="Group 997" transform="translate(0)">
        <path id="Path_2722" data-name="Path 2722" d="M1622.97,1743.7a1.392,1.392,0,0,1-.11-.133l-1.41-1.844a1.289,1.289,0,0,0-.424-.362,1.358,1.358,0,0,0-1.153-.081l-1.9.738a3.76,3.76,0,0,1-4.321-1.2,1.191,1.191,0,1,1,1.886-1.453,1.367,1.367,0,0,0,1.572.438l1.9-.738a2.653,2.653,0,0,1,.419-.129,2.794,2.794,0,0,1,.515-.1Q1621.56,1741.2,1622.97,1743.7Z" transform="translate(-1613.411 -1738.83)" fill="#0e33c2"/>
      </g>
    </g>
    <g id="Group_1000" data-name="Group 1000" transform="translate(1393.29 1688.302)">
      <g id="Group_999" data-name="Group 999" transform="translate(0 0)">
        <path id="Path_2723" data-name="Path 2723" d="M1432.409,1718.251a1.189,1.189,0,0,1-.829-.335,3.764,3.764,0,0,1-.71-4.43l1.08-2.057a1.367,1.367,0,0,0-.261-1.613l-1.465-1.411a3.764,3.764,0,0,1-.722-4.427,1.191,1.191,0,1,1,2.112,1.1,1.368,1.368,0,0,0,.262,1.61l1.466,1.411a3.762,3.762,0,0,1,.718,4.435l-1.08,2.057a1.368,1.368,0,0,0,.258,1.611,1.191,1.191,0,0,1-.828,2.047Z" transform="translate(-1429.081 -1703.339)" fill="#0e33c2"/>
      </g>
    </g>
    <g id="Group_1002" data-name="Group 1002" transform="translate(1456.086 1684.417)">
      <g id="Group_1001" data-name="Group 1001" transform="translate(0)">
        <path id="Path_2724" data-name="Path 2724" d="M1576.486,1697.136a3.457,3.457,0,0,1-.7.1,1.78,1.78,0,0,1-.276.01l-2.325-.038a1.38,1.38,0,0,0-1.319.963l-.6,1.943a3.756,3.756,0,0,1-3.578,2.644h-.047a1.191,1.191,0,0,1,.014-2.382h.033a1.365,1.365,0,0,0,1.3-.962l.6-1.943a3.752,3.752,0,0,1,2.5-2.491,3.3,3.3,0,0,1,.719-.138Q1574.689,1695.926,1576.486,1697.136Z" transform="translate(-1566.469 -1694.84)" fill="#0e33c2"/>
      </g>
    </g>
    <g id="Group_1004" data-name="Group 1004" transform="translate(1379.237 1782.3)">
      <g id="Group_1003" data-name="Group 1003" transform="translate(0 0)">
        <path id="Path_2725" data-name="Path 2725" d="M1410.768,1915.215a3.764,3.764,0,0,1-2.983-1.464l-1.413-1.844a1.37,1.37,0,0,0-1.573-.44l-1.9.737a3.764,3.764,0,0,1-4.322-1.2,1.191,1.191,0,1,1,1.887-1.453,1.369,1.369,0,0,0,1.571.438l1.9-.737a3.761,3.761,0,0,1,4.327,1.212l1.413,1.844a1.366,1.366,0,0,0,1.57.441,1.191,1.191,0,0,1,.858,2.222A3.708,3.708,0,0,1,1410.768,1915.215Z" transform="translate(-1398.334 -1908.995)" fill="#0e33c2"/>
      </g>
    </g>
    <g id="Group_1007" data-name="Group 1007" transform="translate(1367.676 1706.643)">
      <g id="Group_1005" data-name="Group 1005" transform="translate(0 9.256)">
        <path id="Path_2726" data-name="Path 2726" d="M1373.04,1765.528c.238-.61.481-1.21.738-1.81A3.651,3.651,0,0,1,1373.04,1765.528Z" transform="translate(-1373.04 -1763.718)" fill="#0e33c2"/>
      </g>
      <g id="Group_1006" data-name="Group 1006" transform="translate(2.644 0)">
        <path id="Path_2727" data-name="Path 2727" d="M1382.835,1744.654a3.767,3.767,0,0,1-2.687,3.6l-.691.2-.634.186c.9-1.772,1.882-3.5,2.934-5.173a1.14,1.14,0,0,1,.472.148A1.22,1.22,0,0,1,1382.835,1744.654Z" transform="translate(-1378.824 -1743.468)" fill="#0e33c2"/>
      </g>
    </g>
    <g id="Group_1009" data-name="Group 1009" transform="translate(1398.13 1705.057)">
      <g id="Group_1008" data-name="Group 1008" transform="translate(0)">
        <path id="Path_2728" data-name="Path 2728" d="M1440.86,1747.06a1.191,1.191,0,0,1-1.018-1.807,3.763,3.763,0,0,1,4.159-1.681l2.246.594a1.365,1.365,0,0,0,1.514-.614l1.048-1.743a3.766,3.766,0,0,1,4.155-1.692,1.191,1.191,0,1,1-.6,2.3,1.37,1.37,0,0,0-1.511.615l-1.048,1.743a3.762,3.762,0,0,1-4.164,1.689l-2.246-.594a1.366,1.366,0,0,0-1.512.611A1.191,1.191,0,0,1,1440.86,1747.06Z" transform="translate(-1439.67 -1739.996)" fill="#0e33c2"/>
      </g>
    </g>
    <g id="Group_1011" data-name="Group 1011" transform="translate(1481.376 1741.479)">
      <g id="Group_1010" data-name="Group 1010" transform="translate(0 0)">
        <path id="Path_2729" data-name="Path 2729" d="M1622.993,1830.253a1.191,1.191,0,0,1-1.165-1.443,3.762,3.762,0,0,1,3.386-2.942l2.317-.169a1.366,1.366,0,0,0,1.232-1.073l.425-1.99a3.764,3.764,0,0,1,3.38-2.95,1.191,1.191,0,0,1,.179,2.375,1.368,1.368,0,0,0-1.229,1.073l-.424,1.989a3.761,3.761,0,0,1-3.388,2.951l-2.318.168a1.368,1.368,0,0,0-1.231,1.069A1.191,1.191,0,0,1,1622.993,1830.253Z" transform="translate(-1621.801 -1819.684)" fill="#0e33c2"/>
      </g>
    </g>
  </g>
</svg>
