<svg xmlns="http://www.w3.org/2000/svg" width="581.819" height="573.072" viewBox="0 0 581.819 573.072">
  <g id="Group_1278" data-name="Group 1278" transform="translate(-1103.677 -1799.757)">
    <g id="Group_1237" data-name="Group 1237" transform="translate(1103.677 2163.519)">
      <path id="Path_2897" data-name="Path 2897" d="M1116.808,2231.944a13.13,13.13,0,1,1,13.13-13.13A13.146,13.146,0,0,1,1116.808,2231.944Zm0-21.838a8.708,8.708,0,1,0,8.707,8.708A8.717,8.717,0,0,0,1116.808,2210.106Z" transform="translate(-1103.677 -2205.683)" fill="#edf1ff"/>
    </g>
    <g id="Group_1238" data-name="Group 1238" transform="translate(1103.677 2097.83)">
      <path id="Path_2898" data-name="Path 2898" d="M1116.808,2124.091a13.13,13.13,0,1,1,13.13-13.13A13.146,13.146,0,0,1,1116.808,2124.091Zm0-21.838a8.708,8.708,0,1,0,8.707,8.708A8.718,8.718,0,0,0,1116.808,2102.253Z" transform="translate(-1103.677 -2097.83)" fill="#edf1ff"/>
    </g>
    <g id="Group_1239" data-name="Group 1239" transform="translate(1139.062 2163.519)">
      <path id="Path_2899" data-name="Path 2899" d="M1174.9,2231.944a13.13,13.13,0,1,1,13.131-13.13A13.145,13.145,0,0,1,1174.9,2231.944Zm0-21.838a8.708,8.708,0,1,0,8.707,8.708A8.717,8.717,0,0,0,1174.9,2210.106Z" transform="translate(-1161.774 -2205.683)" fill="#edf1ff"/>
    </g>
    <g id="Group_1240" data-name="Group 1240" transform="translate(1174.446 2163.519)">
      <path id="Path_2900" data-name="Path 2900" d="M1233,2231.944a13.13,13.13,0,1,1,13.131-13.13A13.145,13.145,0,0,1,1233,2231.944Zm0-21.838a8.708,8.708,0,1,0,8.708,8.708A8.717,8.717,0,0,0,1233,2210.106Z" transform="translate(-1219.87 -2205.683)" fill="#edf1ff"/>
    </g>
    <g id="Group_1241" data-name="Group 1241" transform="translate(1174.446 2097.83)">
      <path id="Path_2901" data-name="Path 2901" d="M1233,2124.091a13.13,13.13,0,1,1,13.131-13.13A13.145,13.145,0,0,1,1233,2124.091Zm0-21.838a8.708,8.708,0,1,0,8.708,8.708A8.718,8.718,0,0,0,1233,2102.253Z" transform="translate(-1219.87 -2097.83)" fill="#edf1ff"/>
    </g>
    <g id="Group_1242" data-name="Group 1242" transform="translate(1209.83 2163.519)">
      <path id="Path_2902" data-name="Path 2902" d="M1291.1,2231.944a13.13,13.13,0,1,1,13.131-13.13A13.145,13.145,0,0,1,1291.1,2231.944Zm0-21.838a8.708,8.708,0,1,0,8.708,8.708A8.717,8.717,0,0,0,1291.1,2210.106Z" transform="translate(-1277.966 -2205.683)" fill="#edf1ff"/>
    </g>
    <g id="Group_1243" data-name="Group 1243" transform="translate(1245.214 2163.519)">
      <path id="Path_2903" data-name="Path 2903" d="M1349.193,2231.944a13.13,13.13,0,1,1,13.13-13.13A13.145,13.145,0,0,1,1349.193,2231.944Zm0-21.838a8.708,8.708,0,1,0,8.707,8.708A8.717,8.717,0,0,0,1349.193,2210.106Z" transform="translate(-1336.062 -2205.683)" fill="#edf1ff"/>
    </g>
    <g id="Group_1244" data-name="Group 1244" transform="translate(1245.214 2097.83)">
      <path id="Path_2904" data-name="Path 2904" d="M1349.193,2124.091a13.13,13.13,0,1,1,13.13-13.13A13.145,13.145,0,0,1,1349.193,2124.091Zm0-21.838a8.708,8.708,0,1,0,8.707,8.708A8.718,8.718,0,0,0,1349.193,2102.253Z" transform="translate(-1336.062 -2097.83)" fill="#edf1ff"/>
    </g>
    <g id="Group_1245" data-name="Group 1245" transform="translate(1280.598 2163.519)">
      <path id="Path_2905" data-name="Path 2905" d="M1407.289,2231.944a13.13,13.13,0,1,1,13.13-13.13A13.146,13.146,0,0,1,1407.289,2231.944Zm0-21.838a8.708,8.708,0,1,0,8.707,8.708A8.717,8.717,0,0,0,1407.289,2210.106Z" transform="translate(-1394.158 -2205.683)" fill="#edf1ff"/>
    </g>
    <g id="Group_1246" data-name="Group 1246" transform="translate(1315.982 2163.519)">
      <path id="Path_2906" data-name="Path 2906" d="M1465.385,2231.944a13.13,13.13,0,1,1,13.131-13.13A13.145,13.145,0,0,1,1465.385,2231.944Zm0-21.838a8.708,8.708,0,1,0,8.708,8.708A8.717,8.717,0,0,0,1465.385,2210.106Z" transform="translate(-1452.255 -2205.683)" fill="#edf1ff"/>
    </g>
    <g id="Group_1247" data-name="Group 1247" transform="translate(1315.982 2097.83)">
      <path id="Path_2907" data-name="Path 2907" d="M1465.385,2124.091a13.13,13.13,0,1,1,13.131-13.13A13.145,13.145,0,0,1,1465.385,2124.091Zm0-21.838a8.708,8.708,0,1,0,8.708,8.708A8.718,8.718,0,0,0,1465.385,2102.253Z" transform="translate(-1452.255 -2097.83)" fill="#edf1ff"/>
    </g>
    <g id="Group_1250" data-name="Group 1250" transform="translate(1105.272 2132.757)">
      <g id="Group_1248" data-name="Group 1248">
        <path id="Path_2908" data-name="Path 2908" d="M1108.507,2178.248a2.211,2.211,0,0,1-1.564-3.775l18.649-18.649a2.211,2.211,0,0,1,3.128,3.127l-18.649,18.649A2.2,2.2,0,0,1,1108.507,2178.248Z" transform="translate(-1106.296 -2155.176)" fill="#edf1ff"/>
      </g>
      <g id="Group_1249" data-name="Group 1249">
        <path id="Path_2909" data-name="Path 2909" d="M1127.156,2178.248a2.206,2.206,0,0,1-1.564-.648l-18.649-18.649a2.211,2.211,0,0,1,3.128-3.127l18.649,18.649a2.211,2.211,0,0,1-1.563,3.775Z" transform="translate(-1106.296 -2155.176)" fill="#edf1ff"/>
      </g>
    </g>
    <g id="Group_1253" data-name="Group 1253" transform="translate(1140.656 2132.757)">
      <g id="Group_1251" data-name="Group 1251">
        <path id="Path_2910" data-name="Path 2910" d="M1166.6,2178.248a2.211,2.211,0,0,1-1.563-3.775l18.649-18.649a2.211,2.211,0,0,1,3.127,3.127l-18.649,18.649A2.2,2.2,0,0,1,1166.6,2178.248Z" transform="translate(-1164.392 -2155.176)" fill="#edf1ff"/>
      </g>
      <g id="Group_1252" data-name="Group 1252">
        <path id="Path_2911" data-name="Path 2911" d="M1185.252,2178.248a2.2,2.2,0,0,1-1.563-.648l-18.649-18.649a2.211,2.211,0,0,1,3.127-3.127l18.649,18.649a2.211,2.211,0,0,1-1.563,3.775Z" transform="translate(-1164.392 -2155.176)" fill="#edf1ff"/>
      </g>
    </g>
    <g id="Group_1256" data-name="Group 1256" transform="translate(1140.656 2099.425)">
      <g id="Group_1254" data-name="Group 1254" transform="translate(0 0)">
        <path id="Path_2912" data-name="Path 2912" d="M1166.6,2123.52a2.212,2.212,0,0,1-1.563-3.775l18.649-18.649a2.211,2.211,0,0,1,3.127,3.127l-18.649,18.648A2.2,2.2,0,0,1,1166.6,2123.52Z" transform="translate(-1164.392 -2100.448)" fill="#edf1ff"/>
      </g>
      <g id="Group_1255" data-name="Group 1255" transform="translate(0 0)">
        <path id="Path_2913" data-name="Path 2913" d="M1185.252,2123.52a2.2,2.2,0,0,1-1.563-.648l-18.649-18.648a2.211,2.211,0,0,1,3.127-3.127l18.649,18.649a2.212,2.212,0,0,1-1.563,3.775Z" transform="translate(-1164.392 -2100.448)" fill="#edf1ff"/>
      </g>
    </g>
    <g id="Group_1259" data-name="Group 1259" transform="translate(1176.041 2132.757)">
      <g id="Group_1257" data-name="Group 1257">
        <path id="Path_2914" data-name="Path 2914" d="M1224.7,2178.248a2.211,2.211,0,0,1-1.563-3.775l18.649-18.649a2.211,2.211,0,0,1,3.127,3.127l-18.649,18.649A2.2,2.2,0,0,1,1224.7,2178.248Z" transform="translate(-1222.489 -2155.176)" fill="#edf1ff"/>
      </g>
      <g id="Group_1258" data-name="Group 1258">
        <path id="Path_2915" data-name="Path 2915" d="M1243.349,2178.248a2.2,2.2,0,0,1-1.563-.648l-18.649-18.649a2.211,2.211,0,0,1,3.127-3.127l18.649,18.649a2.211,2.211,0,0,1-1.563,3.775Z" transform="translate(-1222.489 -2155.176)" fill="#edf1ff"/>
      </g>
    </g>
    <g id="Group_1262" data-name="Group 1262" transform="translate(1662.424 2349.757)">
      <g id="Group_1260" data-name="Group 1260" transform="translate(0)">
        <path id="Path_2916" data-name="Path 2916" d="M1282.8,2178.248a2.211,2.211,0,0,1-1.563-3.775l18.649-18.649a2.211,2.211,0,0,1,3.128,3.127L1284.36,2177.6A2.206,2.206,0,0,1,1282.8,2178.248Z" transform="translate(-1280.584 -2155.176)" fill="#edf1ff"/>
      </g>
      <g id="Group_1261" data-name="Group 1261" transform="translate(0)">
        <path id="Path_2917" data-name="Path 2917" d="M1301.444,2178.248a2.2,2.2,0,0,1-1.563-.648l-18.649-18.649a2.211,2.211,0,0,1,3.128-3.127l18.649,18.649a2.211,2.211,0,0,1-1.564,3.775Z" transform="translate(-1280.584 -2155.176)" fill="#edf1ff"/>
      </g>
    </g>
    <g id="Group_1265" data-name="Group 1265" transform="translate(1211.424 2099.425)">
      <g id="Group_1263" data-name="Group 1263" transform="translate(0 0)">
        <path id="Path_2918" data-name="Path 2918" d="M1282.8,2123.52a2.212,2.212,0,0,1-1.563-3.775l18.649-18.649a2.211,2.211,0,0,1,3.128,3.127l-18.649,18.648A2.2,2.2,0,0,1,1282.8,2123.52Z" transform="translate(-1280.584 -2100.448)" fill="#edf1ff"/>
      </g>
      <g id="Group_1264" data-name="Group 1264" transform="translate(0 0)">
        <path id="Path_2919" data-name="Path 2919" d="M1301.444,2123.52a2.2,2.2,0,0,1-1.563-.648l-18.649-18.648a2.211,2.211,0,0,1,3.128-3.127l18.649,18.649a2.212,2.212,0,0,1-1.564,3.775Z" transform="translate(-1280.584 -2100.448)" fill="#edf1ff"/>
      </g>
    </g>
    <g id="Group_1268" data-name="Group 1268" transform="translate(1246.809 2132.757)">
      <g id="Group_1266" data-name="Group 1266" transform="translate(0)">
        <path id="Path_2920" data-name="Path 2920" d="M1340.892,2178.248a2.211,2.211,0,0,1-1.564-3.775l18.649-18.649a2.211,2.211,0,0,1,3.128,3.127l-18.649,18.649A2.2,2.2,0,0,1,1340.892,2178.248Z" transform="translate(-1338.681 -2155.176)" fill="#edf1ff"/>
      </g>
      <g id="Group_1267" data-name="Group 1267" transform="translate(0)">
        <path id="Path_2921" data-name="Path 2921" d="M1359.541,2178.248a2.206,2.206,0,0,1-1.564-.648l-18.649-18.649a2.211,2.211,0,0,1,3.128-3.127l18.649,18.649a2.211,2.211,0,0,1-1.563,3.775Z" transform="translate(-1338.681 -2155.176)" fill="#edf1ff"/>
      </g>
    </g>
    <g id="Group_1271" data-name="Group 1271" transform="translate(1117.193 1799.757)">
      <g id="Group_1269" data-name="Group 1269" transform="translate(0)">
        <path id="Path_2922" data-name="Path 2922" d="M1398.988,2178.248a2.211,2.211,0,0,1-1.563-3.775l18.649-18.649a2.211,2.211,0,0,1,3.127,3.127l-18.649,18.649A2.2,2.2,0,0,1,1398.988,2178.248Z" transform="translate(-1396.777 -2155.176)" fill="#edf1ff"/>
      </g>
      <g id="Group_1270" data-name="Group 1270" transform="translate(0)">
        <path id="Path_2923" data-name="Path 2923" d="M1417.637,2178.248a2.2,2.2,0,0,1-1.563-.648l-18.649-18.649a2.211,2.211,0,0,1,3.127-3.127l18.649,18.649a2.211,2.211,0,0,1-1.563,3.775Z" transform="translate(-1396.777 -2155.176)" fill="#edf1ff"/>
      </g>
    </g>
    <g id="Group_1274" data-name="Group 1274" transform="translate(1282.193 2099.425)">
      <g id="Group_1272" data-name="Group 1272" transform="translate(0 0)">
        <path id="Path_2924" data-name="Path 2924" d="M1398.988,2123.52a2.212,2.212,0,0,1-1.563-3.775l18.649-18.649a2.211,2.211,0,0,1,3.127,3.127l-18.649,18.648A2.2,2.2,0,0,1,1398.988,2123.52Z" transform="translate(-1396.777 -2100.448)" fill="#edf1ff"/>
      </g>
      <g id="Group_1273" data-name="Group 1273" transform="translate(0 0)">
        <path id="Path_2925" data-name="Path 2925" d="M1417.637,2123.52a2.2,2.2,0,0,1-1.563-.648l-18.649-18.648a2.211,2.211,0,0,1,3.127-3.127l18.649,18.649a2.212,2.212,0,0,1-1.563,3.775Z" transform="translate(-1396.777 -2100.448)" fill="#edf1ff"/>
      </g>
    </g>
    <g id="Group_1277" data-name="Group 1277" transform="translate(1317.577 2132.757)">
      <g id="Group_1275" data-name="Group 1275">
        <path id="Path_2926" data-name="Path 2926" d="M1457.084,2178.248a2.211,2.211,0,0,1-1.563-3.775l18.649-18.649a2.211,2.211,0,0,1,3.127,3.127l-18.649,18.649A2.2,2.2,0,0,1,1457.084,2178.248Z" transform="translate(-1454.873 -2155.176)" fill="#edf1ff"/>
      </g>
      <g id="Group_1276" data-name="Group 1276">
        <path id="Path_2927" data-name="Path 2927" d="M1475.733,2178.248a2.2,2.2,0,0,1-1.563-.648l-18.649-18.649a2.211,2.211,0,0,1,3.127-3.127l18.649,18.649a2.211,2.211,0,0,1-1.563,3.775Z" transform="translate(-1454.873 -2155.176)" fill="#edf1ff"/>
      </g>
    </g>
  </g>
</svg>
