<svg xmlns="http://www.w3.org/2000/svg" width="108.445" height="81.929" viewBox="0 0 108.445 81.929">
  <g id="Group_1034" data-name="Group 1034" transform="translate(-366.793 -1853.823) rotate(59)">
    <path id="Path_2738" data-name="Path 2738" d="M1882.235,626.8l1.977,82.455,13.432-14.091-1.977-82.455Z" transform="translate(-41.643 -39.692)" fill="#1032bf"/>
    <path id="Path_2739" data-name="Path 2739" d="M1826.5,615.316l1.977,82.455.133.127,3.441,3.28.3.289,3.441,3.279.3.289,3.44,3.28.3.288,2.727,2.6-1.977-82.455-1.692-1.612-.3-.289-3.441-3.279-.3-.289-3.441-3.28-.3-.288Z" transform="translate(0 -41.643)" fill="#ed1556"/>
    <path id="Path_2740" data-name="Path 2740" d="M1827.611,573.647l12.349-12.956,12.956,12.349L1840.567,586l-12.956-12.349Zm-1.109.027,14.091,13.432,13.431-14.091-14.091-13.431L1826.5,573.673Z" transform="translate(-0.001)" fill="#38382e"/>
  </g>
</svg>
