<svg xmlns="http://www.w3.org/2000/svg" width="153.903" height="154.511" viewBox="0 0 153.903 154.511">
  <g id="Group_633" data-name="Group 633" transform="translate(-202.119 -936.496)">
    <g id="Group_579" data-name="Group 579" transform="translate(202.119 1019.547)">
      <path id="Path_2512" data-name="Path 2512" d="M274.254,1089.9l35.392,67.456H240.824L205.431,1089.9Zm1.211-2H202.119l37.494,71.46h73.346l-37.494-71.46Z" transform="translate(-202.119 -1087.899)" fill="#fff"/>
    </g>
    <g id="Group_580" data-name="Group 580" transform="translate(202.119 936.496)">
      <path id="Path_2513" data-name="Path 2513" d="M202.119,1019.547l153.9-83.051-80.557,83.051Z" transform="translate(-202.119 -936.496)" fill="#1433bf"/>
    </g>
    <g id="Group_631" data-name="Group 631" transform="translate(213.078 1023.616)">
      <g id="Group_582" data-name="Group 582" transform="translate(0 2.951)">
        <g id="Group_581" data-name="Group 581">
          <path id="Path_2514" data-name="Path 2514" d="M226.325,1104.349q.128-.245-.137.157l-.407.227a.471.471,0,0,1,.148-.047l-.516.1c.146-.016.3-.013.451-.016a1.414,1.414,0,0,0,1.224-2.126,3.311,3.311,0,0,0-2.885-1.945,2.016,2.016,0,0,0-1.959.9,2.437,2.437,0,0,0,1.177,2.879c1.077.68,2.48.75,2.9-.128Z" transform="translate(-222.098 -1100.695)" fill="#fff"/>
        </g>
      </g>
      <g id="Group_584" data-name="Group 584" transform="translate(17.202 2.18)">
        <g id="Group_583" data-name="Group 583">
          <path id="Path_2515" data-name="Path 2515" d="M257.913,1102.043l-.033-.173-.864,1.485a1.129,1.129,0,0,1,.193-.05l-.517.1a9.044,9.044,0,0,1,1-.038,1.424,1.424,0,0,0,1.239-2.126,3.281,3.281,0,0,0-2.872-1.946,6.419,6.419,0,0,0-1.717.185,1.294,1.294,0,0,0-.865,1.485l.033.173a3.247,3.247,0,0,0,2.442,2.442c1.118.187,2.171-.407,1.956-1.533Z" transform="translate(-253.458 -1099.29)" fill="#fff"/>
        </g>
      </g>
      <g id="Group_586" data-name="Group 586" transform="translate(34.193 1.154)">
        <g id="Group_585" data-name="Group 585">
          <path id="Path_2516" data-name="Path 2516" d="M285.926,1097.505l-.6.184a1.31,1.31,0,0,0-.874,1.485l.1.663a3.2,3.2,0,0,0,2.425,2.442c1.145.191,2.139-.412,1.965-1.533q-.052-.332-.1-.663l-.873,1.485.6-.183c.95-.29,1.182-1.563.448-2.568a3,3,0,0,0-3.09-1.312Z" transform="translate(-284.433 -1097.419)" fill="#fff"/>
        </g>
      </g>
      <g id="Group_588" data-name="Group 588" transform="translate(52.806 0.754)">
        <g id="Group_587" data-name="Group 587">
          <path id="Path_2517" data-name="Path 2517" d="M321.364,1100.776l.208-.009a1.443,1.443,0,0,0,1.266-2.127,3.221,3.221,0,0,0-2.844-1.947l-.208.009a1.441,1.441,0,0,0-1.265,2.127,3.224,3.224,0,0,0,2.844,1.947Z" transform="translate(-318.363 -1096.69)" fill="#fff"/>
        </g>
      </g>
      <g id="Group_590" data-name="Group 590" transform="translate(67.246)">
        <g id="Group_589" data-name="Group 589">
          <path id="Path_2518" data-name="Path 2518" d="M348.859,1098.974q.133-.246-.141.157l-.412.227a.478.478,0,0,1,.149-.047l-.518.1c.146-.016.3-.013.451-.016a1.448,1.448,0,0,0,1.277-2.128,3.2,3.2,0,0,0-2.833-1.947,2.065,2.065,0,0,0-1.98.9,2.391,2.391,0,0,0,1.1,2.882c1.058.681,2.458.751,2.9-.127Z" transform="translate(-344.688 -1095.316)" fill="#fff"/>
        </g>
      </g>
      <g id="Group_592" data-name="Group 592" transform="translate(5.752 17.009)">
        <g id="Group_591" data-name="Group 591">
          <path id="Path_2519" data-name="Path 2519" d="M236.793,1129.978q.126-.245-.136.157l-.4.227a.475.475,0,0,1,.148-.047l-.513.1c.145-.016.3-.013.448-.016a1.411,1.411,0,0,0,1.213-2.125,3.306,3.306,0,0,0-2.874-1.946,2,2,0,0,0-1.947.9,2.447,2.447,0,0,0,1.177,2.878c1.073.68,2.468.751,2.889-.127Z" transform="translate(-232.583 -1126.324)" fill="#fff"/>
        </g>
      </g>
      <g id="Group_594" data-name="Group 594" transform="translate(22.86 16.243)">
        <g id="Group_593" data-name="Group 593">
          <path id="Path_2520" data-name="Path 2520" d="M268.206,1127.68l-.033-.173-.856,1.485a1.081,1.081,0,0,1,.192-.05l-.514.1a8.955,8.955,0,0,1,1-.038,1.42,1.42,0,0,0,1.227-2.125,3.272,3.272,0,0,0-2.86-1.946,6.355,6.355,0,0,0-1.708.185,1.292,1.292,0,0,0-.856,1.484c.012.058.022.115.033.173a3.247,3.247,0,0,0,2.434,2.442c1.113.187,2.159-.406,1.942-1.532Z" transform="translate(-263.772 -1124.927)" fill="#fff"/>
        </g>
      </g>
      <g id="Group_596" data-name="Group 596" transform="translate(39.758 15.221)">
        <g id="Group_595" data-name="Group 595">
          <path id="Path_2521" data-name="Path 2521" d="M296.06,1123.149l-.6.183a1.308,1.308,0,0,0-.866,1.485q.052.331.1.663a3.207,3.207,0,0,0,2.417,2.443c1.139.191,2.126-.412,1.951-1.533l-.1-.663-.866,1.485.6-.183c.945-.29,1.172-1.563.44-2.568a2.986,2.986,0,0,0-3.076-1.312Z" transform="translate(-294.578 -1123.064)" fill="#fff"/>
        </g>
      </g>
      <g id="Group_598" data-name="Group 598" transform="translate(58.27 14.825)">
        <g id="Group_597" data-name="Group 597">
          <path id="Path_2522" data-name="Path 2522" d="M331.316,1126.428l.206-.009a1.44,1.44,0,0,0,1.255-2.127,3.213,3.213,0,0,0-2.833-1.947l-.207.009a1.438,1.438,0,0,0-1.254,2.127,3.217,3.217,0,0,0,2.833,1.947Z" transform="translate(-328.325 -1122.342)" fill="#fff"/>
        </g>
      </g>
      <g id="Group_600" data-name="Group 600" transform="translate(72.632 14.074)">
        <g id="Group_599" data-name="Group 599">
          <path id="Path_2523" data-name="Path 2523" d="M358.66,1124.632q.132-.245-.14.157l-.41.227a.483.483,0,0,1,.149-.047l-.515.1c.145-.016.3-.013.448-.015a1.445,1.445,0,0,0,1.266-2.127,3.2,3.2,0,0,0-2.821-1.948,2.046,2.046,0,0,0-1.968.9,2.4,2.4,0,0,0,1.1,2.882c1.054.681,2.446.752,2.889-.127Z" transform="translate(-354.507 -1120.974)" fill="#fff"/>
        </g>
      </g>
      <g id="Group_602" data-name="Group 602" transform="translate(11.503 31.068)">
        <g id="Group_601" data-name="Group 601">
          <path id="Path_2524" data-name="Path 2524" d="M247.26,1155.608c.083-.164.038-.111-.135.156l-.4.227a.468.468,0,0,1,.146-.047l-.51.1c.144-.016.3-.012.446-.016a1.408,1.408,0,0,0,1.2-2.124,3.3,3.3,0,0,0-2.863-1.946,1.976,1.976,0,0,0-1.934.9,2.456,2.456,0,0,0,1.177,2.878c1.069.681,2.456.752,2.872-.125Z" transform="translate(-243.068 -1151.954)" fill="#fff"/>
        </g>
      </g>
      <g id="Group_604" data-name="Group 604" transform="translate(28.518 30.306)">
        <g id="Group_603" data-name="Group 603">
          <path id="Path_2525" data-name="Path 2525" d="M278.5,1153.317l-.033-.172-.849,1.484a1.107,1.107,0,0,1,.19-.051l-.511.1a9,9,0,0,1,.995-.038,1.417,1.417,0,0,0,1.216-2.125,3.266,3.266,0,0,0-2.849-1.947,6.287,6.287,0,0,0-1.7.184,1.289,1.289,0,0,0-.849,1.484l.033.172a3.249,3.249,0,0,0,2.426,2.442c1.108.188,2.146-.406,1.928-1.532Z" transform="translate(-274.086 -1150.564)" fill="#fff"/>
        </g>
      </g>
      <g id="Group_606" data-name="Group 606" transform="translate(45.324 29.288)">
        <g id="Group_605" data-name="Group 605">
          <path id="Path_2526" data-name="Path 2526" d="M306.194,1148.794l-.595.183a1.3,1.3,0,0,0-.858,1.485l.105.663a3.209,3.209,0,0,0,2.41,2.443c1.133.191,2.114-.411,1.937-1.532q-.053-.331-.1-.663l-.858,1.485.594-.183c.939-.29,1.163-1.563.432-2.568a2.969,2.969,0,0,0-3.063-1.313Z" transform="translate(-304.723 -1148.708)" fill="#fff"/>
        </g>
      </g>
      <g id="Group_608" data-name="Group 608" transform="translate(63.735 28.896)">
        <g id="Group_607" data-name="Group 607">
          <path id="Path_2527" data-name="Path 2527" d="M341.267,1152.08l.206-.009a1.436,1.436,0,0,0,1.243-2.127,3.2,3.2,0,0,0-2.822-1.948l-.206.009a1.435,1.435,0,0,0-1.242,2.126,3.209,3.209,0,0,0,2.822,1.948Z" transform="translate(-338.287 -1147.994)" fill="#fff"/>
        </g>
      </g>
      <g id="Group_610" data-name="Group 610" transform="translate(78.018 28.15)">
        <g id="Group_609" data-name="Group 609">
          <path id="Path_2528" data-name="Path 2528" d="M368.461,1150.291q.131-.245-.139.157l-.407.227a.46.46,0,0,1,.148-.047l-.512.1c.145-.017.3-.013.446-.016a1.441,1.441,0,0,0,1.255-2.127,3.188,3.188,0,0,0-2.81-1.948,2.025,2.025,0,0,0-1.955.9,2.411,2.411,0,0,0,1.1,2.882c1.05.681,2.435.753,2.873-.126Z" transform="translate(-364.326 -1146.633)" fill="#fff"/>
        </g>
      </g>
      <g id="Group_612" data-name="Group 612" transform="translate(17.255 45.127)">
        <g id="Group_611" data-name="Group 611">
          <path id="Path_2529" data-name="Path 2529" d="M257.728,1181.237q.123-.245-.134.157l-.4.226a.458.458,0,0,1,.145-.047l-.507.1c.144-.016.295-.012.443-.015a1.4,1.4,0,0,0,1.191-2.124,3.288,3.288,0,0,0-2.852-1.947,1.958,1.958,0,0,0-1.922.9,2.469,2.469,0,0,0,1.177,2.879c1.064.68,2.445.752,2.857-.126Z" transform="translate(-253.554 -1177.583)" fill="#fff"/>
        </g>
      </g>
      <g id="Group_614" data-name="Group 614" transform="translate(34.176 44.369)">
        <g id="Group_613" data-name="Group 613">
          <path id="Path_2530" data-name="Path 2530" d="M288.792,1178.954l-.033-.173-.841,1.484a1.126,1.126,0,0,1,.189-.05l-.507.1a8.609,8.609,0,0,1,.988-.038,1.414,1.414,0,0,0,1.2-2.125,3.257,3.257,0,0,0-2.838-1.947,6.234,6.234,0,0,0-1.688.184,1.287,1.287,0,0,0-.841,1.484l.034.172a3.252,3.252,0,0,0,2.418,2.443c1.1.187,2.133-.406,1.914-1.531Z" transform="translate(-284.401 -1176.201)" fill="#fff"/>
        </g>
      </g>
      <g id="Group_616" data-name="Group 616" transform="translate(50.888 43.355)">
        <g id="Group_615" data-name="Group 615">
          <path id="Path_2531" data-name="Path 2531" d="M316.328,1174.438l-.591.183a1.3,1.3,0,0,0-.85,1.484c.036.221.071.442.106.663a3.212,3.212,0,0,0,2.4,2.443c1.127.193,2.1-.411,1.923-1.531l-.105-.663-.85,1.484.59-.183c.933-.289,1.152-1.562.424-2.567a2.954,2.954,0,0,0-3.049-1.313Z" transform="translate(-314.868 -1174.352)" fill="#fff"/>
        </g>
      </g>
      <g id="Group_618" data-name="Group 618" transform="translate(69.199 42.968)">
        <g id="Group_617" data-name="Group 617">
          <path id="Path_2532" data-name="Path 2532" d="M351.218,1177.732l.2-.009a1.433,1.433,0,0,0,1.231-2.126,3.2,3.2,0,0,0-2.811-1.948l-.2.009a1.431,1.431,0,0,0-1.232,2.126,3.2,3.2,0,0,0,2.811,1.948Z" transform="translate(-348.249 -1173.646)" fill="#fff"/>
        </g>
      </g>
      <g id="Group_620" data-name="Group 620" transform="translate(83.404 42.224)">
        <g id="Group_619" data-name="Group 619">
          <path id="Path_2533" data-name="Path 2533" d="M378.262,1175.95q.13-.245-.138.157l-.4.227a.469.469,0,0,1,.146-.047l-.509.1c.144-.016.294-.012.443-.015a1.438,1.438,0,0,0,1.244-2.126,3.181,3.181,0,0,0-2.8-1.949,2.008,2.008,0,0,0-1.943.9,2.422,2.422,0,0,0,1.1,2.882c1.046.681,2.423.753,2.857-.125Z" transform="translate(-374.145 -1172.291)" fill="#fff"/>
        </g>
      </g>
      <g id="Group_622" data-name="Group 622" transform="translate(23.007 59.186)">
        <g id="Group_621" data-name="Group 621">
          <path id="Path_2534" data-name="Path 2534" d="M268.926,1205.16a3.28,3.28,0,0,0-2.84-1.947,1.939,1.939,0,0,0-1.909.9,2.479,2.479,0,0,0,1.177,2.878c1.06.681,2.433.753,2.841-.125h0q.123-.245-.133.156l-.4.226a.452.452,0,0,1,.145-.047l-.5.1Z" transform="translate(-264.039 -1203.212)" fill="#fff"/>
        </g>
      </g>
      <g id="Group_624" data-name="Group 624" transform="translate(39.833 58.432)">
        <g id="Group_623" data-name="Group 623">
          <path id="Path_2535" data-name="Path 2535" d="M299.086,1204.591l-.034-.172-.833,1.483a1.093,1.093,0,0,1,.188-.05l-.5.1a8.682,8.682,0,0,1,.983-.037,1.411,1.411,0,0,0,1.194-2.124,3.25,3.25,0,0,0-2.827-1.948,6.176,6.176,0,0,0-1.679.184,1.283,1.283,0,0,0-.833,1.483c.012.057.022.115.034.173a3.253,3.253,0,0,0,2.41,2.443c1.1.188,2.121-.4,1.9-1.53Z" transform="translate(-294.715 -1201.838)" fill="#fff"/>
        </g>
      </g>
      <g id="Group_626" data-name="Group 626" transform="translate(56.453 57.422)">
        <g id="Group_625" data-name="Group 625">
          <path id="Path_2536" data-name="Path 2536" d="M326.462,1200.082l-.587.183a1.3,1.3,0,0,0-.843,1.484q.053.332.108.663a3.213,3.213,0,0,0,2.394,2.444c1.122.193,2.089-.41,1.909-1.531q-.053-.331-.106-.663l-.842,1.484.586-.183c.928-.289,1.143-1.562.416-2.567a2.937,2.937,0,0,0-3.035-1.314Z" transform="translate(-325.013 -1199.997)" fill="#fff"/>
        </g>
      </g>
      <g id="Group_628" data-name="Group 628" transform="translate(74.664 57.039)">
        <g id="Group_627" data-name="Group 627">
          <path id="Path_2537" data-name="Path 2537" d="M361.17,1203.384l.2-.009a1.43,1.43,0,0,0,1.221-2.126,3.19,3.19,0,0,0-2.8-1.949l-.2.009a1.428,1.428,0,0,0-1.22,2.125,3.194,3.194,0,0,0,2.8,1.949Z" transform="translate(-358.21 -1199.298)" fill="#fff"/>
        </g>
      </g>
      <g id="Group_630" data-name="Group 630" transform="translate(88.791 56.299)">
        <g id="Group_629" data-name="Group 629">
          <path id="Path_2538" data-name="Path 2538" d="M388.063,1201.609q.128-.245-.137.157l-.4.227a.463.463,0,0,1,.145-.047l-.506.1c.143-.016.292-.012.44-.015a1.435,1.435,0,0,0,1.233-2.126,3.174,3.174,0,0,0-2.788-1.949,1.987,1.987,0,0,0-1.93.9,2.432,2.432,0,0,0,1.1,2.882c1.041.682,2.411.754,2.841-.125Z" transform="translate(-383.964 -1197.95)" fill="#fff"/>
        </g>
      </g>
    </g>
    <g id="Group_632" data-name="Group 632" transform="translate(275.382 936.496)">
      <path id="Path_2539" data-name="Path 2539" d="M373.029,1091l-37.349-71.5,80.64-83Z" transform="translate(-335.679 -936.496)" fill="#ffe497"/>
    </g>
  </g>
</svg>
