<svg xmlns="http://www.w3.org/2000/svg" width="73.942" height="171.793" viewBox="0 0 73.942 171.793">
  <g id="Group_540" data-name="Group 540" transform="matrix(-0.999, -0.035, 0.035, -0.999, 117.213, 364.639)">
    <g id="Group_535" data-name="Group 535" transform="translate(97.71 189.551)">
      <g id="Group_534" data-name="Group 534">
        <g id="Group_533" data-name="Group 533">
          <g id="Group_532" data-name="Group 532">
            <path id="Path_2471" data-name="Path 2471" d="M104.213,198.412c-.049.206,0,.219.148-.181.048-.206.048-.206,0-.22A2.041,2.041,0,0,0,104.213,198.412Zm1.6-7.031.1.027c.048-.206.048-.206,0-.22C105.807,191.163,105.807,191.163,105.809,191.381Zm-1.189,1a2.114,2.114,0,0,0-.047.426c.05.013.1-.193.1-.193s.048-.206,0-.22Zm-1.647-.656c-.049.206-.1.413-.049.206l.1-.413ZM97.8,192.984c-.048.206,0,.22.1.247.05.013.148-.18.148-.18.048-.207,0-.22-.051-.233C97.948,192.585,97.849,192.778,97.8,192.984Zm-2.41-3.051v.22l.05.013c.048-.206.048-.206,0-.22Zm-1.914,4.316.05.013c.05.012.1-.194.147-.4l-.05-.013A2.088,2.088,0,0,0,93.476,194.249Zm23.43,22.734c.211.017.423.032.417.085.412.135-.011.1-.423-.033C116.483,216.951,116.483,216.951,116.905,216.983Zm.973-7.119c-.006.051-.006.051-.218.036s-.417-.085-.412-.136S117.677,209.745,117.878,209.864ZM116.8,207.97l.212.016c.206.068.412.136.2.119a2.011,2.011,0,0,1-.417-.085S116.59,207.953,116.8,207.97Zm.643-2.021-.006.051c-.006.051-.218.035-.218.035s-.211-.016-.205-.067A2.128,2.128,0,0,1,117.443,205.949Zm-.368-.545-.006.051c-.006.051-.006.051-.216.035l.006-.051Zm.055-.514-.006.051c-.006.052-.006.052-.216.036l.006-.051Zm.038-.359c.206.068.2.119-.011.1s-.211-.016-.205-.067C116.962,204.463,116.962,204.463,117.168,204.53Zm1.312-.312.206.068-.006.051c-.211-.017-.423-.032-.417-.084Zm-.145-.632c.211.017.205.068.205.068-.006.051-.006.051-.216.035,0,0-.212-.016-.206-.067Zm-.992-4.8a1.567,1.567,0,0,1,.429-.088l-.007.069c-.218.073-.436.145-.429.083Zm-.221-2.241c.127.033.127.033-.076.2s-.318.141-.376.126C116.805,196.69,117.057,196.533,117.122,196.549Zm-4.361-.912.1-.193.05.013c-.048.206-.1.413-.147.4Zm-.406-1.2a2.016,2.016,0,0,1,.146-.4l.05.013c-.049.205-.1.413-.147.4Zm-1.041.82c.05.013.05.013,0,.22a2.015,2.015,0,0,1-.146.4C111.119,195.859,111.265,195.46,111.314,195.253Zm-1.344.081.1-.193.05.013c-.049.206-.1.413-.147.4Zm-3.147-1.273.1-.193.05.013c-.049.206-.1.413-.147.4Zm-.3-.3c.049-.206.1-.193.051.233-.048.206-.048.206-.1.193A2.113,2.113,0,0,1,106.522,193.763Zm-.993.395c0-.22,0-.22.1-.194.049.013,0,.22,0,.22C105.58,194.39,105.578,194.171,105.529,194.158Zm-.948-.252c.048-.206.1-.193.1-.193.05.013.1.027.051.233,0,0-.049.206-.1.193S104.581,193.906,104.581,193.906Zm-.655-1.05.05.012c.049.013.049.013,0,.22l-.05-.013Zm-.547.293c.049-.206.1-.413.147-.4.1-.194.1.026-.047.425Zm-.64.926c-.05-.013.1-.193.147-.18l-.048.206C102.788,194.089,102.69,194.282,102.739,194.075Zm-.9-.677a2.042,2.042,0,0,1,.146-.4l.05.013c-.048.206-.1.413-.147.4Zm-.059-1.332c.148-.18.148-.18,0,.22l-.2.387C101.534,192.66,101.632,192.467,101.779,192.066Zm-1.586,1.114.2-.386c.245-.593.245-.593.148-.181a1.359,1.359,0,0,1-.245.593Zm.093-1.072c.048-.206.1-.193.148-.18l-.049.206-.1.193Zm-2.736.59c.049-.206.2-.386.247-.373s0,.219-.146.4Zm-2.648-1.36c.047-.426.047-.426.146-.4.05.012.1.026.051.232l-.049-.013c.048-.206-.05-.013-.049.206l-.1.413C94.854,191.764,94.852,191.545,94.9,191.339Zm-.551-.366c.049-.206.1-.193.148-.18s.05.013,0,.22c0,0-.1.193-.147.18Zm-.895.2v.219c-.145.619-.046.646.1.027s.146-.619.1-.193c-.1.413-.047.426,0,.439s.05.012,0,.22-.047.425,0,.438.05.013.1-.193c0-.22.1-.193.051.233,0,.22,0,.22.1-.193s.2-.386.149.039l.1.027c.05.013.1-.193.147-.4.1-.413.1-.413.1-.193a2.088,2.088,0,0,1-.047.426c-.049.206,0,.219.051.232s.149.04.2-.166,0,0-.049.206c.05.013,0,.22.05.013,0,0,.05.013.1.245s.3-.139.244-.592l.05.013c.05.013.1-.193.1-.193.049-.206.1-.193.148-.18l-.1.413c-.2.606-.144.839.051.232.049-.206,0,0-.048.206s0,.22.149.04c.05.013.2-.386.245-.592s.1-.193.1-.193c.05.012.05.012,0,.219-.1.413,0,.439.149.04l-.048.206c-.048.206-.047.426.251.286.2.054.349.093.3.3s.248-.153.444-.54c-.048.206,0,.22.1.247.149.04.149.04.1.246-.146.4-.146.4.05.012.146-.4.248-.153.151.26-.048.206,0,.22.1.245.1-.193.2-.166.3-.139.149.039.149.039.247-.374s.147-.4.247-.373c.05.013.1.027.051.233,0,0,0,.219.051.232s.1.027.051.233c0,0,0,.22.1.247s.2.052.152.259c.049.013.049.013.1-.193s.146-.4.3-.141c.1.027.25.067.3-.139.05.013.05.013,0,.219-.1.414,0,.439.2.054.049-.206.1-.193.1.027,0,0,.049.013.148-.181s.1-.193.149.04c-.049.206,0,.22.051.233.148-.18.7-.035.7.185.1-.193.1-.193.148-.18-.047.425.051.232.148-.181l-.05-.013-.05-.012c.1-.413.247-.374.1.245-.047.426-.047.426.1.027s.2-.386.151.039c-.1.414-.1.414.049.013.293-.8.492-.965.3-.139-.1.413-.095.632-.045.645s.1-.193.146-.4c.047-.426.1-.413.1.027,0,.659.1.685.35.312.3-.36.446-.32.2.052-.2.387-.2.387-.048.206l.249.067c.05.013.148-.181.2-.387h0c-.047.426,0,.659.2.273l.1.027c.05.012.05.012.148-.181s.1.027.1.246,0,.438.051.233a2.758,2.758,0,0,1,.294-.58c.1-.193.1.027,0,.22a.66.66,0,0,0,0,.439c.05.013.151.039.2-.167s.348-.127.349.093l.1.027c.049.013.148-.18.2-.166,0,0,.05.012.148-.181.05.013.1.027.051.233.147-.4.147-.4.1.027-.1.413-.1.413.049.013.1-.193.1-.193.1.026-.049.206,0,.22.05.013.146-.4.345-.566.248-.153,0,0,.05.013.148-.181.146-.4.146-.4.05.013q-.072.639.149.04s.1-.193.1.027c.051.232.3.519.349.093l.1.026c.051.233.1.247.2.054l.1-.193c-.049.206-.047.426,0,.438s.05.013.1-.193c0-.22.048-.206.1-.193s.051.233,0,.439l.05.013c.1-.413.147-.4.1-.193,0,.22.051.232.1.245.048-.206.05.013,0,0l-.048.206c0,.22.049.013.1-.193l.1.027c.05.013.1.027.1-.193.049-.206.1-.413.147-.4.048-.205.05.013,0,0-.048.207-.1.413-.047.426s0,.22,0,.22c-.146.4.1.247.2.054q.294-.581.149.039c-.1.413.1.027.3-.579l.2-.606-.146.619c-.143.839-.143.839.1.465.147-.18.147-.18.1.027s0,.22.152.259.2.054.248-.153l.1.027c-.047.425.1.245.148-.181l.1.027-.049.206c-.048.206.051.233.451.339.45.118.5.132.6-.281.147-.4.2-.386.1.027-.049.206-.047.426,0,.22,0,0,.1.027.1.245.052.453.151.26.2.054.047-.426.048-.206.05.013s0,.439.051.232c.1-.193.446-.319.349.094l.1.026c.049-.206.148-.18.249-.153s.149.039.1.245c-.1.194-.048.206.1.027.05.013.2-.386.247-.373.048-.206.146-.4.2-.387l-.048.206-.1.413c.05.013.1.027.148-.18h0c0,.22.051.233.151.26s.2.052.3-.141c-.047.426.253.505.4.106.049-.206.1-.193.1.026s0,.22.1.027.1.027.1.246c-.047.426,0,.439.1.245.148-.18.248-.153.3-.139.148-.181.2-.167.2-.386a1.975,1.975,0,0,1,.147-.4c.147-.18.1.027.049.013-.148.18-.1.193-.1.413s.1.247.151.26l.216.057c.1.245.143.257.216.056.139-.4.139-.4.069-.2-.071.421.456.561.736.192.107-.192,0,0-.107.193s-.056.206.045.233c.048.012.377-.122.541-.079.212.056.368.1.528-.084.056.014.056.014-.1.2-.211.167-.16.181-.11.194s.215-.166.381-.345.229-.164.166.044.133.258.441.115c.056.014.11.029-.093.2-.146.185-.272.377.26.068.052.013.051.013-.167.181-.171.18-.4.344.1.026l.019-.008c.2-.05.18.128-.051.373-.006.054-.011.1.212-.033l.223-.139c-.452.336-.451.327-.011.117.222-.134.216-.071-.007.058-.228.189-.233.241-.233.241a.933.933,0,0,1,.156.513c-.048.461-.066.63.152.571.211,0,.211,0-.012.119s-.229.17-.234.226-.012.115-.228.156c.21.013.21.016.2.073-.215.036-.22.087-.011.113.424,0,.423.006-.006.057-.215.03-.446.209-.226.135.214-.021.2.089.41.136-.007.059-.012.119-.225.125-.219.061-.035.329.171.408.211.012.205.076-.007.058s-.216.035-.222.086c.206.068-.006.051-.216.036-.206-.068-.212-.017-.223.086.206.068.184.273.168.427-.028.257.178.325.59.46l.417.084-.423-.032c-.212-.017-.639,0-.639,0-.006.051.205.068.417.084s.205.068-.017.154-.228.138-.022.206c-.006.05-.011.1-.228.137-.006.051-.006.051.206.068s.205.067-.011.1c-.428.018-.445.172-.233.189s.205.068.2.119-.011.1.2.171l-.011.1c-.006.052-.211-.016-.205-.067l-.218.035c-.01.1-.016.154.19.222.417.084.417.084-.006.051-.211-.017-.428.018-.222.086.417.085.2.119-.011.1-.417-.084-.417-.084-.017.154-.01.1.178.325.163.479-.022.205-.033.308-.25.344-.423-.033-.428.018-.212-.017.423.032.417.084.4.238-.228.138-.028.258.178.325-.006.051.205.068,0,0l.011-.1c.422.032.417.085.194.171-.006.051-.216.035-.428.018s-.427.019-.433.07-.011.1.205.068c.212.017.212.017.206.068s-.011.1.2.17c.211.017.205.068.2.119-.216.035-.228.137-.228.137l-.211-.016a2.077,2.077,0,0,0-.428.018c-.006.051.205.068.205.068.212.017.08,1.248.064,1.4-.222.087-.239.241-.021.205.211.017.184.273.151.581-.038.359-.066.616.146.632l-.017.154c-.011.1.19.222.184.273.205.068.2.119-.006.051-.211-.017-.423-.032-.428.019-.011.1.2.118.412.135s.206.068.206.068c-.006.051-.006.051-.218.035l-.422-.032-.006.051c.211.016.205.067.205.067-.006.051-.006.051-.428.019s-.427.019-.01.1l.2.119c-.428.018-.017.154.19.222h0q-.642.027-.017.154c.212.016.206.067-.011.1s-.222.086-.233.189c.206.068.168.427.124.838-.049.462-.081.77.129.786-.006.051-.006.051-.222.086-.212-.016-.216.036.2.119.205.068.417.084-.006.051-.212-.017-.223.086-.244.291-.017.154-.039.36.173.376.2.119.2.119-.006.051-.417-.084-.656.156-.25.344-.006.051-.011.1-.222.086-.006.051-.011.1.184.273l-.039.359c-.01.1.19.222.19.222l-.006.051c-.211-.017-.239.24-.277.6s-.071.668-.288.7c0,0-.006.051.2.119.418.084.413.135.2.17-.428.019-.45.224-.032.308.211.017,0,0-.212-.016-.427.018-.233.189.184.272-.216.036-.433.07-.228.138-.006.051-.006.051-.428.018-.211-.016-.423-.032-.428.019s.206.068.417.085l-.01.1s-.006.051.205.067.206.068.2.119c-.212-.017-.006.051.211.017.212.016.423.032.417.084l.423.033a1.883,1.883,0,0,0,.857-.038c.233-.189.461-.326.038-.359,0,0-.205-.068-.2-.119s.222-.086.222-.086c.211.017.233-.188.26-.445.033-.308.05-.463.267-.5s.222-.086.222-.086c-.211-.017-.178-.325-.139-.684s.076-.718-.135-.735l.011-.1c.211.016.222-.086.233-.19-.2-.118-.19-.221-.19-.221.211.016.216-.036.228-.138s.017-.154-.2-.17a.775.775,0,0,1,.272-.549c.216-.035.011-.1-.2-.171-.211-.016-.417-.084-.412-.135l.423.032c.205.068.205.068.216-.035l.011-.1c-.211-.017-.184-.273-.145-.632.049-.462.065-.616-.146-.632s-.206-.068.022-.205c.666-.259.666-.259.461-.327-.006.051-.218.036-.428.019-.423-.032-.417-.084.011-.1.423.032.293-.754-.124-.838l.211.017c.212.016.218-.036.239-.241l.017-.154c-.423-.032-.178-.325.033-.308.216-.035.216-.035.228-.137-.407-.187-.168-.427.043-.41l.011-.1c-.206-.068-.2-.171-.19-.222.017-.154.022-.205-.2-.171-.211-.017-.423-.032-.417-.084l.212.016c.211.017.228-.137.249-.342.028-.257.039-.359.255-.395l-.205-.067c-.206-.068-.2-.119.01-.1.218-.036.239-.241.039-.359l.011-.1c.427-.018.444-.172.027-.257.212.017.216-.035.222-.086-.2-.119-.178-.325.033-.308l.006-.051c-.206-.068-.2-.119-.2-.171s.011-.1-.2-.17-.2-.119-.2-.119c.006-.051.211.016.417.084.2.119.216-.035-.19-.222s-.406-.186.006-.051c.205.068.412.136.211.017,0,0,.011-.1-.2-.119l.016-.154c.223-.086.228-.137.233-.189-.205-.068-.205-.068.011-.1.212.017.218-.036-.205-.068-.206-.067-.2-.119.016-.154.423.032.428-.018.218-.035-.206-.068-.2-.119-.2-.119.212.017.261-.445.31-.908.006-.051-.2-.118-.412-.135-.423-.032-.212-.017.006-.051.639,0,.65-.1.01-.1-.427.019-.427.019.006-.051.218-.035.218-.035.011-.1-.211-.017-.205-.068.006-.051.216-.035.434-.07.222-.086,0,0,.006-.052.223-.087s.01-.1-.2-.171q-.609-.279.017-.154c.417.085.233-.188-.184-.272s-.417-.085-.206-.068.218-.035.218-.035c0-.051.01-.1.222-.087,0,0,.006-.051-.2-.171-.412-.135-.184-.272.244-.291l-.2-.119c-.417-.084-.622-.152-.2-.118.211.016.423.032.211.016-.417-.084-.184-.273.239-.24.212.017.212.017.216-.035l-.211-.017c-.211-.017-.423-.032-.417-.084.007-.075.016-.162.228-.149.219-.072.439-.159.228-.164,0,0,.008-.086.23-.176l.033-.365c-.205-.079-.189-.251.026-.273a.241.241,0,0,0-.19-.245c.017-.176.025-.264.241-.3s.215-.039.008-.091c-.215.04-.207-.048-.2-.136l.017-.177c-.218.051-.218.051-.209-.035s.25-.407.258-.5c.026-.268.026-.265-.2-.1-.009.085-.226.161.008-.087a3.505,3.505,0,0,0,.277-.7c.033-.358.033-.358-.187-.249-.45.3-.442.223.009-.086.458-.4.467-.508.245-.383-.213.032-.213.035-.205-.052.222-.126.231-.221.025-.261.009-.088.009-.088.232-.226l.017-.181c-.3.076-.26-.214-.126-.494a.163.163,0,0,1,.011-.18s-.088-.021-.386.125c-.51.315-.581.3-.166-.041s.415-.339-.083-.021c-.289.148-.685.048-.224-.278l.384-.346c-.282.149-.369.128-.369.128-.187.174-.272.153-.531.087-.176-.045-.68.05-.844.009s-.416-.106-.368-.313c-.085-.021-.177-.045-.472.1-.209.167-.367.127-.253-.064l-.084-.021c-.28.149-.358.129-.358.129.106-.193.12-.409-.065-.237-.1.2-.181.174-.345.133-.018-.059-.2-.147-.476-.243l-.465-.148-.41-.116c-.424-.113-.848-.17-.872-.067l-.149-.039-.149-.04c.1-.413-.2-.272-.4-.106-.1.193-.148.181-.2.167.1-.413-.054-.453-.2-.273-.146.4-.2.387-.1-.026s0-.439-.249.153c-.1.193-.1.193-.1-.027.047-.425,0-.438-.051-.232q-.221.6-.149-.04c0-.439,0-.439-.149-.039s-.347.346-.3-.08c-.05-.013-.051-.232-.1-.026l0-.22-.1-.027-.049.206a2.028,2.028,0,0,0-.649-.392c-.549-.146-.649-.172-.648.047-.047.426-.146.4-.1-.026-.05-.013-.1-.247-.2-.273s-.2-.052-.152-.259l-.05-.013c-.2.386-.5.307-.6.061-.1-.027-.149-.04-.3.139s-.148.181-.149-.039c.048-.206-.2-.493-.3-.079v-.22c0-.22-.1-.027-.148.18-.1.413-.146.4-.051-.233.1-.413.047-.426,0-.22-.1.194-.2.387-.2.167-.05-.013-.1-.027-.2.386-.048.206-.1.193-.148.18a1.153,1.153,0,0,1,.147-.4l-.1-.026c-.05-.013-.1-.247-.052-.453,0-.22-.051-.233-.1.193-.1.413-.1.413-.2.386-.049-.013-.1-.026-.051-.232s.049-.206-.051-.233c-.149-.04-.444.54-.591.939-.1.413-.1.413-.05-.013.049-.206,0-.22-.051-.233-.048.206-.049-.013,0,0,.049-.206.1-.193.148-.18l.049-.206q.07-.639-.151-.04c-.1.193-.1.193-.1-.026s0-.439-.051-.233c0,0-.1-.027-.1-.247-.1-.026-.149-.039-.2.167s-.1.193-.147.18-.1-.027-.148.18-.147.4-.247.374c-.148.18-.148.18-.1-.247.048-.206,0-.22-.051-.233,0,0-.05-.012-.051-.232s-.05-.013-.1.193l-.1.413a1.567,1.567,0,0,1,.046-.646c.047-.426.047-.426-.05-.013-.049.206-.147.4-.2.167-.1-.027-.2-.054-.151-.26,0-.22-.1-.027-.1-.027-.1.194-.148.181-.249-.066-.153-.479-.153-.479-.25-.066-.048.206-.1.413-.05-.013,0-.22-.1-.027-.248.153a4.661,4.661,0,0,0-.243.813c-.1.413-.1.413-.148.18-.05-.013-.051-.233,0-.44s.1-.193.1-.193l.05.013c.048-.206.1-.413,0-.439,0-.22-.051-.233-.1-.027,0-.22-.1-.245-.2-.272a.274.274,0,0,1-.251-.286c-.1-.027-.149-.04-.2.166-.1.413-.147.4-.1.193.047-.425-.553-.8-.7-.4l-.1-.027c-.051-.233-.351-.312-.45-.119l-.149-.04c-.051-.232-.1-.245-.2-.052s-.147.4-.1.193-.051-.233-.251-.286-.2-.054-.2.166h0c-.248.154-.2-.052-.151-.259.146-.4.047-.426-.148.18-.147.4-.247.374-.2.167s.1-.194.148-.181l.1-.413c-.05-.013-.05-.013-.148.181,0,0-.05-.013-.148.18a1.331,1.331,0,0,0-.145.619c0,.22-.048.206-.1.193a.915.915,0,0,1,.095-.632c.05.013.1-.193.147-.4s-.3.141-.445.54c-.048.206-.048.206.049-.206.048-.206-.051-.233-.152-.26s-.149-.039-.2.167-.1.413-.147.4h0c.05.013,0,.22-.047.426a2.5,2.5,0,0,1-.052-.453c0-.44-.055-.672-.254-.725a.271.271,0,0,1-.251-.286c-.1-.027-.149-.04-.2.166l-.1-.026c0-.22-.1-.247-.149-.04-.1.193-.1-.027-.149-.04,0-.438,0-.438-.1.194-.048.206,0,.438.054.452l.149.04-.2.166c-.049-.013-.2.167-.247.374,0,0-.048.206-.1.193l.1-.413a2.612,2.612,0,0,0,.2-.606c.047-.426-.055-.673-.152-.26-.049-.013-.049-.013-.051-.232.049-.207,0-.22-.147.18s-.2.386-.151-.04c0-.439-.2-.492-.251-.286-.1.413-.247.373-.248.154s-.051-.233-.149-.04c.048-.206.047-.426-.051-.233,0,0-.05-.013-.049.206l-.2.386h0c.05.013,0,.22-.047.426s-.2-.052-.154-.7l0-.438-.1.412c-.049-.012-.1-.026-.051-.232s.049-.206,0-.22c0,0-.05-.013-.1.193-.1.413-.1.413-.1.193q.07-.639-.149-.039c-.1.413-.1.413-.05-.013.048-.206.047-.426,0-.439l-.048.206c-.1.413-.147.4-.148.18q.072-.309-.149-.039c-.1-.027-.151-.04-.1-.247.1-.413.1-.413-.05-.013-.1.193-.1.193-.149-.039,0-.22,0-.22-.1-.027-.1.413-.145.619-.095.632s.05.013,0,.22l-.1-.027c-.05-.013-.1-.027-.249.153S93.307,191.355,93.456,191.175Z" transform="translate(-93.382 -189.551)" fill="#fff"/>
          </g>
        </g>
      </g>
    </g>
    <g id="Group_539" data-name="Group 539" transform="translate(55.889 196.635)">
      <g id="Group_538" data-name="Group 538">
        <g id="Group_537" data-name="Group 537">
          <g id="Group_536" data-name="Group 536">
            <path id="Path_2472" data-name="Path 2472" d="M62.618,249.959c-.191-.095-.34.226-.108.731.191.093.191.093.339-.225C62.849,250.465,62.808,250.054,62.618,249.959Zm6.6,2.891c-.139.3-.278.6-.278.6.19.093.19.093.329-.2C69.551,252.648,69.551,252.646,69.222,252.851Zm1.653-5.871c-.185-.1-.533.083-.533.083-.163.291.021.395.021.395s.185.1.348-.186Zm6.209-9.45-.172-.123.345.247ZM96.1,213.053c-.135-.16-.4.055-.914.5a1.509,1.509,0,0,0-.368.613c.138.161.392-.066.644-.292C96.109,213.592,96.235,213.217,96.1,213.053Zm17.312-10.007-.4,0-.282.181c.115.177.115.177.4,0Zm2.467-7.025-.3.177c-.294.178-.186.361-.078.543l.294-.177S115.983,196.2,115.876,196.021ZM90.039,357.739c.01-.212.022-.424.326-.412.613-.4.617.025-.014.423C90.02,358.162,90.015,358.162,90.039,357.739ZM66.985,325.588c-.029.322-.02.322-.234.307s-.4-.358-.369-.686S66.834,324.927,66.985,325.588Zm1.167-11.452.2.076c.076.382.182.765-.021.693,0,0-.2-.07-.291-.457C68.037,314.447,67.951,314.06,68.152,314.136Zm7.255-10.722-.234.217c-.232.219-.376.077-.376.077s-.157-.157.08-.38C74.877,303.328,75.262,303.259,75.407,303.414Zm2.207-2.375-.265.185c-.268.182-.264.187-.392.017a2.819,2.819,0,0,1,.268-.19Zm2.765-1.662-.287.143c-.286.148-.286.148-.384-.04l.288-.149Zm2.064-.838c-.235.3-.524.406-.6.209s-.074-.2.23-.31C82.685,298.236,82.683,298.242,82.443,298.54Zm2.564.737-.242.242-.265.041c-.033-.207-.068-.421.21-.462Zm3.105.071c-.068.2-.3.129-.3.129-.235-.065-.234-.066-.184-.271,0,0,.049-.205.3-.136A3.053,3.053,0,0,1,88.113,299.349Zm-6.76,18.182c-.095-.191.093-.531.093-.531l.284-.152c.1.186.2.373-.087.528Zm-12.478,1.334c.6.176.6.171.551.375s-.678.036-.985-.067C68.209,318.86,68.576,318.783,68.875,318.864ZM57.293,300.673l.243.312.032.33c-.211.021-.422.042-.454-.291Zm.829-4.372c.212,0,.429.322.429.322l0,.33c-.212.006-.424.012-.428-.32Zm-1.036-5.356c-.009.336-.009.336-.221.328s-.414-.355-.414-.355C56.461,290.579,56.875,290.936,57.086,290.944Zm.267-8.433.171.364-.039.335c-.211-.027-.421-.054-.381-.39Zm5.69-21.111.079.389L63,262.1c-.2-.074-.4-.147-.279-.463Zm1.03-2.123c.2.079.079.392-.434.55-.2-.079-.2-.079-.078-.394C63.56,259.434,63.875,259.2,64.072,259.278Zm1.68-5.511c.336-.216.335-.215.049.395-.143.306-.335.216-.335.216C65.273,254.288,65.609,254.071,65.752,253.766Zm2.847-5.75c.185.1.031.4.031.4-.154.3-.308.6-.494.5,0,0-.187-.1-.033-.4A1.45,1.45,0,0,1,68.6,248.016Zm3.577-4.534-.175.286c-.174.286-.174.286-.355.176l.174-.287Zm1.236-2.793c.177.116.355.232.17.511-.01.393-.359.566-.54.05Zm.611-2.847c.186-.283-.013.4-.2.686l-.175-.119C73.835,238.126,73.847,237.722,74.023,237.842Zm4.32-5.235c.167.131.129.529.129.529l-.2.268c-.168-.129-.337-.259-.131-.528Zm2.443-1.065c-.26.651-.26.651-.377.126l.1-.786C80.719,230.621,80.668,231.017,80.785,231.542Zm4.372-7.354s-.075.391-.151.783c.006.922.016.928-.3.64-.154-.141-.32-.291-.011-.928Zm1.462-.015c.154.146-.075.392-.3.637l-.155-.145.076-.392ZM97.79,211.9c.134.164-.249.764-.506.983s-.4.056-.012-.545Zm15.674-10.651c.511.177.51.177-.058.54-.284.182-.568.363-.682.184l.284-.182c.113.18.284-.181-.114-.178l-.228-.358C112.953,201.073,113.352,201.071,113.464,201.251Zm3.553-1.956c.108.183-.181.357-.468.531s-.289.174-.4-.008a1.485,1.485,0,0,1,.47-.531Zm4.46-3.09-.4-.018c-.307-.557-.9-.219-.588.336s.31.555-.191.354c-.207-.37-.5-.2-.8-.033s-.294.168-.4-.017-.505-.2-.8-.03-.3.168-.19.352c.4.012-.189.352-.69.166-.4-.007-.4-.007-.184.359s-.366.716-.873.528l-.582.351c-.291.175-.182.357-.073.539.219.364.219.364-.181.357s-.51-.187-.51-.187c-.11-.181-.4-.009-.688.177s-.86.55-.748.729,0,0-.112-.181c-.287.183-.4,0-.287.184a3.931,3.931,0,0,1-.974.369c-.689.189-1.32,1.094-.231.9l-.287.183c-.287.181-.17.361-.17.361.115.178-.165.367-.446.557l-.231-.355c-.066-.724-.747-.519-.679.2.116.177,0,0-.117-.176s-.4.013-.845.57a.816.816,0,0,0-.209.908c.118.175-.162.365-.162.365-.28.19-.28.19-.4.015-.242-.356-.8.04-.83.586l-.122-.174c-.119-.175-.519-.151-1.779,1.009-1.114.779-1.912,1.413-2.042,1.237s-.961.991-1.246,1.736h0c-.126-.166-.4.029-.936.451-.8.635-.8.635-.926.467.006-.547.006-.547-.265.212,0,.545-.929,1.013-1.195.683-.132-.165-.4.046-.93.473A3.9,3.9,0,0,1,97,212.013c-.78.658-.78.658-.506.983s.014.543-.5.979c-.259.218-.506.448-.646.287a1.473,1.473,0,0,0-.645.292c-.252.226-.505.452-.646.293a2.04,2.04,0,0,0-.9.521c-.509.453-1.014.909-1.153.757-.248.234-.248.234-.1.39s.04.545-1.09,1.326c-.493.467-1.233,1.17-1.085,1.322-.24.241-.24.241-.387.089-.294-.306-.776.181-.957.965.148.151-.09.392-.48.483a1.408,1.408,0,0,0-.328.631c-.088.392-.089.387-.715.725-.152-.148-.384.1-.616.349a20.637,20.637,0,0,1-3.21,3.512h0a.878.878,0,0,1-.289.653c-.542-.025-.608.371-.288.65l.223-.254.223-.255c.317.281-.349,1.043-.83.626-.543-.022-.544-.021-.446.511s-.108.8-.647.786c-.323-.274-.325-.273-.215.262.219,1.072-.254,1.982-.912,1.447a.636.636,0,0,0-.924.125c-.216.263-.05.4.115.53.542,0,.329.262-.412.54a2.537,2.537,0,0,0-1.82,2.028c-.481,1.34-1.047,2.182-.8,1.1.055-.806.055-.808-.171-.126l-.989,1.388c-.2.278-.223.678-.049.8h0a1.23,1.23,0,0,0-1.134,1.281l-.375.568a.872.872,0,0,0-.2.686c-.011.4-.375.566-.74.734s-.731.337-.553.452,0,.811,0,1.212-.354.579-.356.177c-.18-.113-.18-.114-.715.356-.177.291-.532.873-.351.984.165.1-.859,1.861-1.2,2.059l-.332.593c-.167.3-.148.7-.315.994a1.414,1.414,0,0,0-.147.695c-.167.294-.312.6-.5.5h0c.218.5.219.5-.311.6-.374-.2-.374-.2-.155.3.032.4.033.4-.31.6a.17.17,0,0,0-.155.3c.221.5-.052,1.494-.432,1.3a1.375,1.375,0,0,0-.1.706c.238.493.238.492-.143.307-.524.119-.669.429-.431.919a.67.67,0,0,1-.287.613c-.5.513-1.5,2.3-.969,2.161l-.264.624c-.457.539-.59.853-.526,1.247l.064.393c-.194-.081-.524.149-.654.463s-.12.317.076.4c.317-.238.2.079.078.395s-.436.554-.635.476l-.119.318c.395.154.276.47.078.394a1.755,1.755,0,0,0-.558.874c.2.075-.12.318,0,0l-.2-.074c-.319.244-.12.318.078.391l-.236.636c-.107.322-.214.642.093.394.2.071.4.144.292.463.2.071-.107.319,0,0-.2-.071-.4-.143-.508.178s-.307.252-.307.252c-.293-.463-.524.9-.432,1.286.187.776.081,1.094-.322.965s-.2.654.318,1.165l.513.511-.608-.187c-.9.075-.907.08-.784,1.176.015.709.015.708-.19.65s-.323.261-.559,1.251-.327,1.317-.122,1.37L59,272.5c-.493.228-.451.937.042.707h0l-.161.656-.206-.048c-.206-.049-.342.616-.888,3.276-.532,3.006-.554,3.347-.146,3.412.365.4.311.731-.107.667-.21-.032-.474.272-.264.3a2.413,2.413,0,0,1-.332.979c-.54.956-.37,1.324-.16,1.349.461-.284.21.026-.04.337s-.5.628-.29.651c.142.36.221,2.408-.205,2.373l-.05.678c.211.017.161.694.112,1.371s-.036,1.017-.252,1.007c-.2-.351-.212-.01-.02.68-.01.34.4.7.394,1.034.212.007.414.349.4.686l-.212,0-.424-.01c-.01.34-.02.679.192.683h0a2.266,2.266,0,0,0-.2,1.354,3.84,3.84,0,0,0,.24,1.694h0a2.9,2.9,0,0,0,.1,2.706c.212-.011.234.323.047.675s-.184.354.055.674.064.671-.115,1.031a.687.687,0,0,0-.09,1.036,6.748,6.748,0,0,1,.465,1.65c.323.632.4.955.54.589.209-.039.482.245.482.245.341.6.143.642.067.323-.341-.606-.277-.284-.415.086a2.727,2.727,0,0,0,.106,1.352c.086.326.269.973.376,1.292.109,1.024.244,1.344.441,1.269.4-.147.4-.148.2-.074a3.807,3.807,0,0,0,.574,2.118c.448.909,1.084,1.709,1.352,1.731.18-.113,0,0-.178.114s0,.4.39.955c.2.28,1.183,1.223,1.9,1.922.943.951,1.761,1.543,1.887,1.369.265.194.265.194.142.366-.394-.029-.128.177.154.367s.4.006.515-.172.377,0,.848.5a4.013,4.013,0,0,0,2.42,1.008c.317.089.631.184.581.383a1.444,1.444,0,0,0,1.643.312c.332.038.332.038.308.249.311.252.3.461.676.059a6.22,6.22,0,0,1,2.377-.012c.34-.023.678-.059.655-.274l-.022-.211c.376.378.389.382.658-.086a.167.167,0,0,1,.328-.057,1.227,1.227,0,0,0,.695.084,28.593,28.593,0,0,0,3.448-1.3c2.446-1.08,3.245-1.734,3.146-1.884.171-.356.166-.354.559-.36a1.6,1.6,0,0,0,.945-.394c.277-.19.539-.4.667-.226h0a.9.9,0,0,1,.407-.58c.128.166.4-.041.524-.422-.01-.543-.012-.541.259-.215.137.17,1.044-.339.649-.278-.137-.158.369-.606.47-.993.249-.224.486-.462.634-.306a4.052,4.052,0,0,0,1.5-1.828.167.167,0,0,1,.225-.245c.156.143.378-.109.6-.364.05-.395.212-.258.376-.123-.058.395.172.144.587-.4a22.219,22.219,0,0,1,1.287-2.4c.74-1.516.551-1.968.277-2.649a5.135,5.135,0,0,0-.366-.365l.419.063c.209.039.666-.239.666-.239.042-.335-.192-.346-.4-.356-.226-.018-.172-.3-.029-.938s.029-.991-.264-1.217a2.029,2.029,0,0,1-.193-.955c-.163-.28-.167-.279-.347-.17s-.334-.142-.355-.519c.161-.515-.567-1.266-.719-1.083-.145.156-.376-.06-.636-.248a1.285,1.285,0,0,0-.908-.344,4.873,4.873,0,0,0-.553-.29c-.282-.137.088-.194.379-.049l-.2-.333c-.6-.272-.922-.374-1.292-.26-.423.323-.409.327-.31-.085.059-.21-.229-.485-.595-.336-.389.368-.669.129-.657-.079.389-.373.358-.441-.994-.037a13.335,13.335,0,0,0-2.907.635,8.609,8.609,0,0,1-2.262.586c-.167-.389-.481-.25-.084-.2.168.394-.143.508-1.027.97a2.446,2.446,0,0,0-1.6,1.209c-.271.189-.153.365,0,0a5.041,5.041,0,0,1,.557-.355c.217.362-.061.512-.709.719-.268.186-.389.012-.511-.162s-.522-.156-.8.044c-.264.215-.528.428-.135.383.129.168.129.168-.131.378a1.619,1.619,0,0,0-.635.8c.138.161-.1.385-.341.609a1.564,1.564,0,0,0-.579.287,1.66,1.66,0,0,0-.283.244l-.151-.151c-.148-.151-.532-.051-.532-.051-.233.249-.079.395-.079.395.074.07-1.282,1.572-2.454,3.371a35.794,35.794,0,0,0-2.4,4.29c-.465.525-.881,1.458-.548,1.231.19.084-.466,1.625-1.078,3.545-.7,2.243-1,3.906-.8,3.946t-.2.984a16.229,16.229,0,0,0-.061,1.683c.166.363.124.69-.042.331-.211-.03-.421-.061-.464.272-.086.668.124.694.335.719s.174.355.174.355c-.03.33-.03.33-.24.308l-.423-.045-.03.335c.211.021.181.355.181.355-.03.334-.03.334-.453.3s-.452.308-.042.675l.177.687c-.451.316-.038,1.013.174,1.349h0c-.426.327-.436.672-.008,1,.212,0,.222.331.02.669a2.151,2.151,0,0,0-.156,1.349c.24.323.357,2.668.908,5.288.613,2.946,1.364,4.819,1.558,4.743a.842.842,0,0,1,.033.7c-.2.073-.089.4.444.539.328.224.523.139.132.3-.18.073.031.712.65,1.894.426.907,1.147,2.033,1.311,1.932.535.444.541.438.177.278-.533-.076.17,1.5,1.152,2.021.2.265.4.53.235.661a6,6,0,0,0,1.248,1.134c.228.242,1.14,1.216,1.644,1.653a4.609,4.609,0,0,0,.751.534,2.643,2.643,0,0,0,.381.191l.26.206c-.133.151,1.124,1.267,3.138,2.454s3.884,1.9,4.133,2.193a1.365,1.365,0,0,0,.7.025.7.7,0,0,1,1.015.085,1.332,1.332,0,0,0,.878.572,1.353,1.353,0,0,0,1.045-.117c.04-.209,0,0-.041.207.242.505,1.3.428,1.668.037h0c.3.247.619.512.968.3.331.012.332.012.309.436-.011.212-.023.424.323.436s.35-.2.355-.41a5.035,5.035,0,0,0,.678,0s.339-.014.334-.226.326-.226.658-.241c.013.211.33-.014-.013-.212-.013-.211-.026-.423.3-.436l-.033-.423c-.032-.422-.057-.634-.669-.821-1.211-.119-2.075-.455-2.106-.006a1.013,1.013,0,0,1-.624.165,1.251,1.251,0,0,1-.58-.282c.027-.2-1.166-.332-2.622-.731-1.748-.476-2.584-.875-2.776-1.183a1.141,1.141,0,0,0-.463-.434c-.09.212-1.749-.552-3.511-1.747s-3.3-2.686-3.45-2.536l-.428-.441c.161-.157-.3-.563-.68-1.036a4.008,4.008,0,0,1-.689-.515,2.164,2.164,0,0,1-.267-.278c.165-.132-.017-.375-.384-.858s-.526-.741-.7-.62a11.912,11.912,0,0,1-1.529-3.011c.054-.369-.276-.544-.606-.735-.192.089-.51-.112-.636-.4l.388-.168c.318.2.318.2.073-.367l-.247-.566c-.18.074-.8-1.359-1.366-3.478-.694-2.735-.736-3.7-.972-3.661-.211.031-.271-.287-.162-1.259.436-1.951.482-1.93.233-2.239.023.313-.189.326-.4.337-.418.025-.456-.3-.036-.636.224-.011.2-1.2.184-2.428a8.585,8.585,0,0,0-.289-2.7l.211.019c.22.019.223-.3.374-1.566l.123-.949c-.435-.064.1-1.934.313-1.887.273-.27.273-.268.4-.887-.225-1.024.4-2.514.61-2.444l.177-.6a2.371,2.371,0,0,1,.186-1.263c.3-.9.431-1.184.114-.967-.2-.075-.4-.149-.28-.448l.2.077c.206.08.52-.818,1.051-1.958.667-1.421.978-1.967,1.318-2.127l-.029-.375c-.029-.378.127-.654.308-.542a4.21,4.21,0,0,0,1.2-1.8l.361-.5a1.1,1.1,0,0,0,.959-1.19h0c.158.137.35-.1.561-.31a3.642,3.642,0,0,1,.66-.934c.276-.257.531-.423.6-.344l.218-.2a1.207,1.207,0,0,1,.539-.746,1.446,1.446,0,0,0,.57-.736,1.068,1.068,0,0,1,.371-.52c.25-.174.118.176,0,.516-.359.5.358.015.863-.859.56-.818.564-.821.259-.152-.146.334-.286.661.11.181,0,0,.511-.3.407-.483.259-.152.514-.311.779-.439a3.529,3.529,0,0,0,1.14-.3c.183-.3.189-.311.528-.207.074.2.33.1.2-.3a.621.621,0,0,1,.806-.25c.112.406.367.345.318.138a.865.865,0,0,1,.486-.325c.019.109.632.016,1.485.021a8.011,8.011,0,0,1,1.408.119,5.712,5.712,0,0,1,1.422.456.515.515,0,0,0,.612-.157c.21-.368.113-.181.211.122-.137.664.182.91.395.274.052-.493.065-.483.19.145.039.319.033.3.347.313.147-.153.317.021.161.164,0,.316-.041.6.124.471a.512.512,0,0,1,.051.454c-.079.27.18.313.451.415.609.4.616.68.171.544-.439-.081-.067.732.294,1.008.419.245.4.266.2.24a.221.221,0,0,0-.236.2c-.031.224-.09.458-.291.407a3.348,3.348,0,0,0-.008.754,1.056,1.056,0,0,1-.869,1.337,3.235,3.235,0,0,1-.113.589c.205.474.194.851-.149.6-.173-.123-.346-.247-.173-.123.2.493-.752,1.324-1.071,1.038-.163-.138-.158-.136-.357.088l.16.139c.16.141.319.28.116.512s-.422.457-.574.311c-.37.083-.745.164-.593.312a1.211,1.211,0,0,1-.6.3l-.908.872c-.086.373-.559.792-.7.628a2.221,2.221,0,0,0-.577.769c-.483.394-.729.582-.858.415s-.127-.17-.245.184c.126.167-.118.361-.37.535l-.5.354c.118.176.118.176-.138.347s-1.149.476-1.411.621c-.79.441-.8.431-.429.479.27-.143.368.043-.268.144-.273.136-1.17.357-2,.666-1.1.4-1.108.369-1.044.582.41.317.118.406-.282.087-.679-.257-.945-.192-.9.012-.239.268-.242.271-.529.33-.042-.213-.319-.152-.868.138-.29.036-.29.037-.313-.174,0,0-.286.036-.571.054a2.893,2.893,0,0,1-2.545-.035,1.159,1.159,0,0,0-.586.138c-.346.369-.646.321-.555-.1s.091-.414-.272-.062c-.336.183-1.678-.273-1.26-.586l.144-.4a.786.786,0,0,1-.564.01c-.079.191-.337.109-1.054-.264a11.825,11.825,0,0,1-1.946-1.06c-.445-.344-1.057-.956-1.1-1.306a3.378,3.378,0,0,0-.915-.727c-.351-.089-.7-.573-.533-.693l-.166-.242a2.239,2.239,0,0,1-.666-.627.359.359,0,0,0-.122-.618c-.184.1-.34-.152-.615-.687a38.609,38.609,0,0,1-1.688-5.305c-.591-2.581-.812-5.265-.922-5.256l-.07-.975-.055-.983c.41-.017.162-1.649-.061-2.64a1.7,1.7,0,0,1-.229-.992c.426,0,.395-.986.22-1.651-.414-.34-.4-.675.02-.661s.443-.641-.174-1.331c-.2-.341-.2-.342.02-.663.428-.309.447-.636.24-.649-.4-.356-.374-.69.074-.989.472-.628.471-.624.074-.989a1.674,1.674,0,0,1,.158-1.978c.039-.328.289-.632.078-.657l.25-.3.077-.656-.21-.026c.03-.331.465-2.272.868-4.548.635-3.576.837-4.211.542-3.937-.481.234-.347-.418.133-.648.056-.327.431-.919.589-1.561s.319-1.283.523-1.228l.079-.32c-.279-.755.3-2.666.775-3.556a5.143,5.143,0,0,0,.278-1.649c.009-.694.009-.7.316-.943.2.066,1.031-1.742.631-1.886l.3-.241c.3-.241.231-.62.03-.695-.4-.146-.279-.46.433-.545.4.149.513-.158.316-.233-.081-.385-.162-.772.153-1,.117-.31.234-.619-.16-.777-.2-.078-.079-.389.039-.7.2.079.2.08.276.47-.114.312-.01,0,.244-.616.129-.307.582-.835.777-.752.323-.221.453-.525-.066-.387-.39-.166-.39-.166-.132-.779.129-.307.259-.612.453-.527s.194.086.452-.524A3.49,3.49,0,0,0,67,253.61c-.384-.182-.383-.183.141-.3.192.091.332-.211.474-.513-.191-.093.142-.3,0,0,.191.093.049.395-.091.7l.191.093c.523-.118.663-.415.423-.9-.048-.394-.052-.4.284-.6s.682-.4.493-.5a2.326,2.326,0,0,1,.644-.788c.3-.589.453-.883.265-.983s-.035-.4.117-.692.307-.59.124-.69-.209-.5.119-1.079c.143-.687.143-.688.675-.77.184.106.347-.185.51-.475a1.338,1.338,0,0,1,.509-.473c.345-.182.162-.29-.02-.4l-.365-.216a.8.8,0,0,1,.891-.244c.535-.065.535-.064.173-.283-.182-.109-.189-.505.339-.964.347-.568.694-1.137.872-1.023a.649.649,0,0,0,.346-.568c.006-.392.191-.672.917-1.386,1.267-1.149,1.265-1.144.917-1.387-.175-.119-.349-.241.183-.277.351-.159.381-.543.592-1.211a.944.944,0,0,0-.5-.765c-.345-.247-.345-.248.219-.671.2-.274.561-.423.732-.3s-.023.4-.023.4l-.194.272c.172.124.344.249.731-.294.364-.145.557-.416.386-.542h0a4.1,4.1,0,0,0,1.169-1.2,5.383,5.383,0,0,1,1.38-1.453c.4-.531.61-.788.447-.919-.33-.267-.118-.525.047-.392.535,0,3.439-3.187,3.373-3.693,0,0,.219-.251.438-.5a7.982,7.982,0,0,0,2.009-2.225l.682-.731c.608-.341.834-.583.909-.975s-.069-.534.081-.387.621-.325,1.559-1.272.939-.946.557-.861h0c.793-1.1.962-.928,1.1-.781.051.535.533.079.338-.614-.048-.538.438-1,.583-.844s-.1.385-.34.615l.29.309a.846.846,0,0,0,.338-.613h0a1.379,1.379,0,0,0,.34-.615c.1-.386-.044-.543-.431-.468s-.144-.155.1-.387c.63-.306.772-.148.673.239-.243.231-.1.387.043.543s1.083-1.284,1.057-1.823c-.142-.158-.142-.158.141.158.141.158.639-.287,1.137-.733s.746-.668.609-.829-.28-.325-.023-.542h0c-.257.216-.389.061-.53-.1a5.565,5.565,0,0,1,1.043-.331,4.455,4.455,0,0,0,2.454-1.239,5.153,5.153,0,0,1,1.692-1.094c.522-.416.783-.624.653-.791l.523-.417c.388-.044.914-.453.789-.619.139-.369.534-.4.8-.6.788-.062.786-.062.139-.371-.126-.17-.79.065-1.057.267s-.54.4-.8.615l.671-.783c.269-.2.678-.777.552-.947,0,0-.126-.171.143-.374l.253.34a.625.625,0,0,0,.112.713c.522.137,1.446-.294,1.2-.637a.836.836,0,0,1,.659-.232c.124.171.389-.029.417-.566s.3-.735.819-.583c.79-.042,1.875-.818,1.756-.993-.244-.354.583-.928.984-.935a.874.874,0,0,0,.833-.562h0c.117.176.512.166.673-.2,0,0,.277-.187-.117-.177l.323-.729h0c-.279.187-.395.01-.511-.167s1.117-.76,2.03-.574l.793,0-.226-.359c.282-.181.566-.36.678-.181s.112.18.394,0c0,0,.282-.18.171-.36-.223-.36-.223-.36.172-.36.505.182.783,0,.852-.535-.221-.361-.22-.363.288-.173.109.181.506.19.792.017l-.108-.182c-.219-.364.069-.538.465-.529q.162.273.862-.521c.574-.347.861-.522.968-.336.212.367.212.368.291-.166.186-.35.187-.35.873-.5.4.018.4.019.583-.332-.207-.369-.311-.554-.6-.388s-.292.167-.4-.017l.586-.335a3.841,3.841,0,0,0,1.067-.854C122.165,196.055,121.963,195.682,121.476,196.2Z" transform="translate(-55.889 -195.902)" fill="#fff"/>
          </g>
        </g>
      </g>
    </g>
  </g>
</svg>
