<svg xmlns="http://www.w3.org/2000/svg" xmlns:xlink="http://www.w3.org/1999/xlink" width="153.799" height="92.298" viewBox="0 0 153.799 92.298">
  <defs>
    <linearGradient id="linear-gradient" x1="43.835" y1="1.232" x2="44.64" y2="0.414" gradientUnits="objectBoundingBox">
      <stop offset="0" stop-color="#fff"/>
      <stop offset="0.142" stop-color="#faf9f9"/>
      <stop offset="0.323" stop-color="#edebe9"/>
      <stop offset="0.525" stop-color="#d8d4cf"/>
      <stop offset="0.665" stop-color="#c6c0b9"/>
    </linearGradient>
    <linearGradient id="linear-gradient-2" x1="81.095" y1="23.753" x2="83.062" y2="22.617" gradientUnits="objectBoundingBox">
      <stop offset="0" stop-color="#fff"/>
      <stop offset="0.516" stop-color="#c6c0b9"/>
    </linearGradient>
  </defs>
  <g id="Group_4977" data-name="Group 4977" transform="translate(-202.622 -118.811)">
    <g id="Group_4936" data-name="Group 4936" transform="translate(249.737 135.401)">
      <path id="Path_8033" data-name="Path 8033" d="M269.047,163.32c-.007-.037-.019-.081-.033-.134h0a2.461,2.461,0,0,0-.242-.584h0a1.736,1.736,0,0,0-1.407-.912h0l.124-1.122a2.906,2.906,0,0,1,2.263,1.469h0a3.747,3.747,0,0,1,.394,1.027h0l.006.015h0a.506.506,0,0,1,.015.064h0c.006.025.006.039.008.053h0c0,.027.006.054.011.09h0l0,.042v.042h0v0h0c0,.026,0,.049,0,.075h0c.087,1.246.631,8.1,1.168,14.847h0c.59,7.414,1.184,14.766,1.185,14.781h0l-1.127.09c0-.023-2.263-28.142-2.366-29.844Z" transform="translate(-241.674 -130.201)" fill="#96a6bc"/>
      <path id="Path_8034" data-name="Path 8034" d="M248.27,193.489c0-.027,2.162-27.028,2.348-29.627h0a.541.541,0,0,1,0-.075h0a.5.5,0,0,1,.015-.124h0v-.013h0v-.032h0c0-.021.006-.047.011-.069h0a.138.138,0,0,1,.015-.052h0a3.627,3.627,0,0,1,.4-1.044h0a2.9,2.9,0,0,1,2.265-1.466h0l.124,1.118a1.946,1.946,0,0,0-1.69,1.67h0c-.133,2.05-2.357,29.785-2.357,29.806h0l-1.127-.092Z" transform="translate(-244.052 -130.149)" fill="#96a6bc"/>
      <g id="Group_4928" data-name="Group 4928" transform="translate(2.233 12.82)">
        <path id="Path_8035" data-name="Path 8035" d="M272.022,162.8a39.1,39.1,0,0,1,.59-11.879,6.041,6.041,0,0,0-.119-4.117c-1.261-1.78-6.824-1.968-11.029-1.778-4.2-.19-9.766,0-11.025,1.778a6.058,6.058,0,0,0-.119,4.117,39.171,39.171,0,0,1,.589,11.879c-.47,3.175-2.823,6.35-2,7.527.439.626,4.979.922,9.111,1.059h6.89c4.13-.137,8.672-.433,9.114-1.059C274.844,169.147,272.493,165.971,272.022,162.8Z" transform="translate(-246.227 -144.964)" fill="#96a6bc"/>
        <path id="Path_8036" data-name="Path 8036" d="M246.544,169.95a3.335,3.335,0,0,0,1.292,2.116c1.529,0,27.641.118,28.11-.235a3.9,3.9,0,0,0,.824-2.234c.116-.822,0-3.173-1.059-3.408a15.314,15.314,0,0,0-3.841-.161c-1.176.082-20.937-.079-20.937-.079s-3.091-.353-3.843.866A5.4,5.4,0,0,0,246.544,169.95Z" transform="translate(-246.505 -142.357)" fill="#96a6bc"/>
        <path id="Path_8037" data-name="Path 8037" d="M246.9,167.254a2.363,2.363,0,0,1,2.237-1.236c.587.118,25.519-.412,26.227-.061s1.116.71.941.884c-.687.686-10.41.295-15,.413S246.9,167.254,246.9,167.254Z" transform="translate(-246.455 -142.365)" fill="#b6c2d3"/>
      </g>
      <path id="Path_8038" data-name="Path 8038" d="M265.173,139.5c4.55-1.272,2.265,9.812.873,14.014a6.976,6.976,0,0,0,.641,5.837c-.2,1.119-1.99.078-1.99.078-5.307-13.389-.22-19.043.067-19.629S265.173,139.5,265.173,139.5Z" transform="translate(-242.306 -132.838)" fill="#380f01"/>
      <path id="Path_8039" data-name="Path 8039" d="M260.167,151.881l6.364-4.729s-2.309-.31-1.853-6.4l-2.214,1.52v0l-.011,0-.015,0v0l-2.246.047c.838,4.362-1.219,4.268-1.219,4.268Z" transform="translate(-242.719 -132.668)" fill="#d8a798"/>
      <path id="Path_8040" data-name="Path 8040" d="M262.2,142.2V142.2l-.009.006-.01-.006v.006l-1.986.046c-.007.153-.224.841-.327,1.483.476.746,4.616,5.3,5.57,5.4.334.039,1.094-1.57.544-2.153a5.929,5.929,0,0,1-1.452-3.524c-.036-.381-.024-1.9-.006-2.5Z" transform="translate(-242.607 -132.643)" fill="url(#linear-gradient)" style="mix-blend-mode: multiply;isolation: isolate"/>
      <path id="Path_8041" data-name="Path 8041" d="M275.2,195.83c0-1.57-1.112-26.59-1.527-30.266h0a42.529,42.529,0,0,0-.433-4.336h0c-.34-1.092-.548-1.447-1.683-1.5h0a20.572,20.572,0,0,0-6.409,1.152h0l-.36-1.364a21.933,21.933,0,0,1,6.769-1.2h0a2.982,2.982,0,0,1,3.052,2.584h0a40.394,40.394,0,0,1,.47,4.513h0c.424,3.861,1.53,28.7,1.533,30.423H275.2Z" transform="translate(-241.995 -130.482)" fill="#b6c2d3"/>
      <path id="Path_8042" data-name="Path 8042" d="M244.519,195.83c0-1.724,1.107-26.559,1.533-30.423h0a40.129,40.129,0,0,1,.468-4.513h0a2.975,2.975,0,0,1,3.054-2.581h0a21.9,21.9,0,0,1,6.767,1.2h0l-.359,1.364a20.614,20.614,0,0,0-6.409-1.154h0c-1.136.058-1.345.414-1.682,1.506h0a41.676,41.676,0,0,0-.437,4.336h0c-.413,3.679-1.529,28.7-1.526,30.266h-1.409Z" transform="translate(-244.519 -130.482)" fill="#b6c2d3"/>
      <path id="Path_8043" data-name="Path 8043" d="M267.578,161.148c2.6,2.115,3.3,4.846,3.035,6.305-.193,1.056-.653,4.842-.653,5.235,0,1.1-13.755,1.469-14.974.946-.509-.219.4-4.341-.6-5.163-.764-.629-.788-.513-.93-.581-3.762-1.8,1.713-7.136,3.2-7.631S267.578,161.148,267.578,161.148Z" transform="translate(-243.567 -130.253)" fill="#151823"/>
      <path id="Path_8044" data-name="Path 8044" d="M267.162,145.713a6.55,6.55,0,0,1-3.741,2.4c-1.345-.321-3.146-1.4-3.568-2.821,0,0-2.041,1.816-3.612,1.737,1.884,4.2.549,11.356-.987,13.506-1.357,1.893-.822,2.837-.822,2.837l4.033.061,5.78-1.127s3.207,1.378,2.739-.17,2.79-12.609,3.846-13.553Z" transform="translate(-243.297 -132.104)" fill="#fff"/>
      <path id="Path_8045" data-name="Path 8045" d="M266.607,145.6c1.65.877,4.047.914,4.46,1.382,0,0-1.092,6.62-1.417,7.36a22.824,22.824,0,0,1-.654,2.618,10.783,10.783,0,0,0-.927,4.016c.134,1.518,2.3,4.484,1.89,6.541-.118.584-.873-2.543-4.945-3.344-1.519-.3-6,1.108-5.837.142s3.585-8.39,3.585-8.39,2.29-4.8,2.871-6.251A33.5,33.5,0,0,0,266.607,145.6Z" transform="translate(-242.694 -132.065)" fill="#1e2d64"/>
      <path id="Path_8046" data-name="Path 8046" d="M265.261,144.959l2.472,1.162-.111,2.006-1.292-.353.744,1.256a9.6,9.6,0,0,1-1.959,3.852c-.651.784-3.529,5.83-3.529,5.83a50.083,50.083,0,0,1,2.294-6.193,18.615,18.615,0,0,0,1.744-5.743A2.659,2.659,0,0,0,265.261,144.959Z" transform="translate(-242.393 -132.145)" fill="#374781"/>
      <path id="Path_8047" data-name="Path 8047" d="M259.218,145.329c-2.745,1.256-3.813,1.057-4.361,1.364,0,0-.517,8.313-.46,9.121s1.382,2.8.751,4.181-3.763,5.84-3.708,9.014c.012.6,2.076-3.906,5.77-4.32,1.543-.173,6.225.108,6.225-.26a48.49,48.49,0,0,1,.726-8.36s-3.356-7.208-3.771-8.273A25.262,25.262,0,0,0,259.218,145.329Z" transform="translate(-243.657 -132.099)" fill="#1e2d64"/>
      <path id="Path_8048" data-name="Path 8048" d="M260.008,144.7l-2.6,1.184-.047,1.966,1.635-.142-.837,1.827s.492.157,2.069,2.286c.606.831,3.125,5.2,3.125,5.2a10.165,10.165,0,0,0-.982-3.673,32.217,32.217,0,0,1-2.317-5.523A5.689,5.689,0,0,1,260.008,144.7Z" transform="translate(-242.92 -132.177)" fill="#374781"/>
      <path id="Path_8049" data-name="Path 8049" d="M257.813,162.934c.07.079,3.153.073,3.238.144a5.449,5.449,0,0,0,2.405.734,2.051,2.051,0,0,1,1.382.514c.777.476.949.5,1.063.383.13-.138-.37-.435-.774-.792s-1.39-.737-1.189-.743a24.037,24.037,0,0,1,2.181,1.192c.282.126.965.281.724.007s-1.633-1.245-1.851-1.415,1.827,1.091,2.005,1.153c.22.081.261-.155-.076-.437-.224-.2-1.695-1.255-1.852-1.362a5.229,5.229,0,0,1,.753.328c.376.213.512.3.72.419.387.227.78.195.324-.175a9.891,9.891,0,0,0-.83-.716,8.376,8.376,0,0,0-1.306-.475c-.214-.054-2.586-.344-3.172-.462-1.735-.337-2.814-.428-3.072-.467Z" transform="translate(-242.863 -130.176)" fill="#d8a798"/>
      <path id="Path_8050" data-name="Path 8050" d="M258.956,160.331l1.554.687-.745,2.783-1.528,0,.652-3.118Z" transform="translate(-242.811 -130.231)" fill="#fff"/>
      <path id="Path_8051" data-name="Path 8051" d="M255.351,146.448c-1.146-.244-2.019.654-2.617,4.47-.463,2.953-2.212,9.929-1.636,11.014,1,1.881,7.574,4.526,8.65,4.288a26.219,26.219,0,0,0,.873-3.561l-4.99-1.983c-.171-.576.5-5.776.117-7.055C255.522,152.869,255.351,146.448,255.351,146.448Z" transform="translate(-243.714 -131.964)" fill="#0b1741"/>
      <path id="Path_8052" data-name="Path 8052" d="M270.891,158.915c-.062.084-3.136.332-3.216.408a5.433,5.433,0,0,1-2.333.929c-.9.2-.593.082-1.334.622s-.912.575-1.031.473c-.141-.129.331-.467.707-.852.36-.383,1.324-.849,1.123-.84a24.111,24.111,0,0,0-2.076,1.365c-.271.152-.938.359-.721.065s1.525-1.375,1.728-1.561-1.734,1.237-1.9,1.312c-.216.1-.276-.132.037-.441.207-.217,1.588-1.39,1.737-1.508a5.194,5.194,0,0,0-.724.387c-.358.245-.486.344-.684.48-.364.259-.762.259-.336-.151a10.3,10.3,0,0,1,.768-.782,8.044,8.044,0,0,1,1.265-.578c.206-.073,2.546-.553,3.121-.721,1.7-.477,2.772-.658,3.025-.714Z" transform="translate(-242.385 -130.669)" fill="#d8a798"/>
      <path id="Path_8053" data-name="Path 8053" d="M267.21,157.149l-.8.236.575,3.145,1.422-.133-1.025-3.016Z" transform="translate(-241.793 -130.627)" fill="#fff"/>
      <path id="Path_8054" data-name="Path 8054" d="M269.725,146.691c.764-.726,1.46.809,2.67,3.78,1.294,3.173,3.293,8.761,2.509,9.706s-5.385,2.862-6.487,2.943c-.245-.994-1.007-2.517-1.526-4.688l4.034-.874c0-.6-1.164-1.134-2.4-2.78C268.055,154.151,269.725,146.691,269.725,146.691Z" transform="translate(-241.733 -131.951)" fill="#1e2d64"/>
      <path id="Path_8055" data-name="Path 8055" d="M255.9,150.586c0,1.571-.392,6.821-.116,8.469.046.281,4.762,2.647,4.762,2.647l-.618,1.734a65.69,65.69,0,0,1-6.086-3.145.778.778,0,0,1-.03-.95l-.547-.391,1.254-.277-1.1-.038.943-.823Z" transform="translate(-243.43 -131.444)" fill="#374781"/>
      <g id="Group_4930" data-name="Group 4930" transform="translate(14.069 34.716)">
        <path id="Path_8056" data-name="Path 8056" d="M267.219,164.677c-3.948-1.177-3.266,2.236-4.381,4.12-3.964,6.688-2.1,17.6-4.235,22.144-.866,1.83-1.331,2.9-1.255,3.671A1.52,1.52,0,0,0,258.805,196c2.17.017,2.156-1.006,2.367-3.245a22.9,22.9,0,0,1,.458-2.83c.912-4.6,6.387-13.01,6.269-16.948s.8-2.363,1.163-5.005A2.857,2.857,0,0,0,267.219,164.677Z" transform="translate(-256.991 -164.435)" fill="#d8a798"/>
        <g id="Group_4929" data-name="Group 4929" transform="translate(0.85 0.168)">
          <path id="Path_8057" data-name="Path 8057" d="M262.7,168.935c-3.966,6.69-2.1,17.6-4.236,22.148-.241.509-.449.959-.626,1.362-.015.689-.029,1.362-.055,1.9a42.123,42.123,0,0,1,2.249-4.475c.861-1.649,1.647-12.939,2.2-15.212s1.8-3.88,1.724-4.9,0-4.252,1.67-5.176C263.31,164.623,263.654,167.328,262.7,168.935Z" transform="translate(-257.786 -164.585)" fill="#cc9483"/>
        </g>
        <path id="Path_8058" data-name="Path 8058" d="M261.14,190.3a1.957,1.957,0,0,1-3.561-.7c-1.4,3.171.214,4.522,1.09,4.453a3.155,3.155,0,0,0,2.46-2.162C261.376,190.873,261.292,190.1,261.14,190.3Z" transform="translate(-257.03 -161.3)" fill="#151823"/>
      </g>
      <g id="Group_4933" data-name="Group 4933" transform="translate(10.036 34.679)">
        <g id="Group_4931" data-name="Group 4931" transform="translate(0.129)">
          <path id="Path_8059" data-name="Path 8059" d="M261.036,164.457c-3.785-.5-3.066,2.5-4.019,4.469-3.39,7-.752,17.573-2.5,22.276-1.593,4.279-1.024,4.412.449,4.8,1.211.316,2.294.146,2.441-2.1.073-1.1.3-2.629.395-3.989.289-4.262,4.449-13.782,4.449-17.719,0-3,.758-1.948.9-4.612A2.854,2.854,0,0,0,261.036,164.457Z" transform="translate(-253.558 -164.402)" fill="#d8a798"/>
        </g>
        <g id="Group_4932" data-name="Group 4932" transform="translate(0.178 0.008)">
          <path id="Path_8060" data-name="Path 8060" d="M257.012,169c-3.39,7-.752,17.572-2.5,22.277a16.968,16.968,0,0,0-.908,3c.356.705.605,1.181.605,1.181s1.333-4.075,1.645-5.019.392-6.585.706-12.78,1.41-6.507,1.645-7.6-.372-4.432,1.824-5.607l-.1-.042C257.361,164.552,257.866,167.239,257.012,169Z" transform="translate(-253.602 -164.41)" fill="#cc9483"/>
        </g>
        <path id="Path_8061" data-name="Path 8061" d="M257.454,190.173a1.959,1.959,0,0,1-3.6-.464c-1.186,3.261.509,4.5,1.38,4.378a3.165,3.165,0,0,0,2.313-2.323C257.724,190.728,257.587,189.955,257.454,190.173Z" transform="translate(-253.444 -161.251)" fill="#151823"/>
      </g>
      <g id="Group_4934" data-name="Group 4934" transform="translate(14.804 0.529)">
        <path id="Path_8062" data-name="Path 8062" d="M265.73,140.276c-.328,2.884-2.646,5.276-4.563,5.026-1.33-.178-2.68-1.916-3.341-5.593-.548-3.024.414-5.632,4.245-5.673C265.676,134,266.073,137.253,265.73,140.276Z" transform="translate(-257.684 -134.035)" fill="#d8a798"/>
      </g>
      <g id="Group_4935" data-name="Group 4935" transform="translate(14.553)">
        <path id="Path_8063" data-name="Path 8063" d="M262.975,137.188c-1.677-1.094-5.1.415-5.326,1.7-.707-1.447.662-4.721,2.961-5.107,2.71-.446,3.457-.2,3.524.692A5.212,5.212,0,0,1,262.975,137.188Z" transform="translate(-257.46 -133.564)" fill="#380f01"/>
        <path id="Path_8064" data-name="Path 8064" d="M263.527,134.159c1.24-.412,4.166,1.678,2.815,6.227-.774,2.588-2.079,3.061-2.079,3.061l-.022-3.933L262.2,136.9Z" transform="translate(-256.87 -133.496)" fill="#380f01"/>
        <path id="Path_8065" data-name="Path 8065" d="M263.526,138.71c.347-.228.974-.472,1.069-.007s.058,2.048-.485,2.2S263.526,138.71,263.526,138.71Z" transform="translate(-256.704 -132.957)" fill="#dbab9c"/>
        <path id="Path_8066" data-name="Path 8066" d="M262.277,135.761c.508-.11,1.962,2.616,2.035,2.87s.253.073.253.073-1.344-2.979-1.962-3.271S262.277,135.761,262.277,135.761Z" transform="translate(-256.869 -133.341)" fill="#5b250e"/>
        <path id="Path_8067" data-name="Path 8067" d="M262.392,136.1c-.765-.4-4.69-.327-4.836,2.218-.255-.508.147-1.745,1.6-2.363a4.926,4.926,0,0,1,3.379-.182C262.647,135.952,262.392,136.1,262.392,136.1Z" transform="translate(-257.457 -133.315)" fill="#5b250e"/>
        <path id="Path_8068" data-name="Path 8068" d="M262.686,135.8c-.254-.291-3.836-1.446-5.226,1.826,0,0,1.082-3.132,3.735-2.878a2.625,2.625,0,0,1,1.635.76Z" transform="translate(-257.46 -133.418)" fill="#5b250e"/>
        <path id="Path_8069" data-name="Path 8069" d="M262.046,135.97c.436.055,2.126,2.863,2.126,2.863l.136-.082a21.64,21.64,0,0,0-2.128-2.972C261.91,135.752,262.046,135.97,262.046,135.97Z" transform="translate(-256.893 -133.288)" fill="#5b250e"/>
      </g>
    </g>
    <g id="Group_4945" data-name="Group 4945" transform="translate(202.622 118.811)">
      <path id="Path_8070" data-name="Path 8070" d="M220.491,134.906c.435.982,4.258,8.866,5.234,9.451s1.117,1.374.5,1.839-1.41,2.224-6.652-.731S220.491,134.906,220.491,134.906Z" transform="translate(-200.775 -116.807)" fill="#66bcf7"/>
      <g id="Group_4937" data-name="Group 4937" transform="translate(22.125 18.763)">
        <path id="Path_8071" data-name="Path 8071" d="M232.373,138.148a13.019,13.019,0,0,0,1.155-1.338c.234-.369.977-.552,1.469-1.134.179-.215.572-.281.521.048s-.457.628-.626,1.03c-.216.5,1.244.009,1.62-.139.323-.126,2.367-.6,2.43-.354.108.453-2.257.776-2.167.954.075.144,2.52-.661,2.527-.371.024.621-2.037.821-2.182,1.17,0,0,.5-.121,1.028-.255.487-.126.937-.36,1.049-.283.778.541-2.492.9-2.257,1.249.188.278,1.8-.36,1.8.031,0,.193-2.02.685-2.02.685A27.961,27.961,0,0,1,233.1,140.8a10.737,10.737,0,0,0-2.183,1.17l-.4-2.7A7.379,7.379,0,0,0,232.373,138.148Z" transform="translate(-221.275 -135.496)" fill="#d8a798"/>
        <path id="Path_8072" data-name="Path 8072" d="M228.633,139.455l3.108-1.261s1.276,3.173,1.527,3.564l-2.708,1.207Z" transform="translate(-221.508 -135.16)" fill="#66bcf7"/>
        <path id="Path_8073" data-name="Path 8073" d="M230.7,138.909c-.942-.228-5.258,2.419-7.014,3.347s-1.579,5.071-.926,5.3,10.126-2.3,9.5-5.282S230.7,138.909,230.7,138.909Z" transform="translate(-222.298 -135.073)" fill="#66bcf7"/>
      </g>
      <path id="Path_8074" data-name="Path 8074" d="M218.391,132.353a19.565,19.565,0,0,1,2.252,2.4l.509,2.908a20.073,20.073,0,0,0-3.27-2.4C217.229,135.116,218.391,132.353,218.391,132.353Z" transform="translate(-200.747 -117.125)" fill="#8acdff"/>
      <path id="Path_8075" data-name="Path 8075" d="M231.381,202.677a.663.663,0,0,0,.476-.775h0l-5.2-29.265c-.977-6.342-4.749-8.3-8.251-8.323h0l-.056,0c-4.41.289-6.8,3.421-7.507,8.322h0l-4.674,29.276a.658.658,0,0,0,.491.764h0a.612.612,0,0,0,.7-.539h0l4.671-29.276c.774-4.6,2.512-6.866,6.374-7.227h0c3.173.15,6.073,1.446,7.069,7.243h0l5.2,29.276a.619.619,0,0,0,.593.534h0a.586.586,0,0,0,.115-.012Z" transform="translate(-202.182 -113.144)" fill="#282a35"/>
      <path id="Path_8076" data-name="Path 8076" d="M224.08,185.76l3.292-.891a.465.465,0,0,0,.327-.572h0a.467.467,0,0,0-.569-.328h0l-3.294.89a.467.467,0,0,0-.326.572h0a.464.464,0,0,0,.449.344h0a.569.569,0,0,0,.121-.015Z" transform="translate(-200.023 -110.698)" fill="#151823"/>
      <path id="Path_8077" data-name="Path 8077" d="M225.988,175.5s5.148,2.46,3.907,4.153c-1.771,2.412-1.9,5.429-.606,8.705.444,1.13.324,1.536.057,1.957a1.258,1.258,0,0,1-1.191.77c-1.143-.027-3.724-2.514-5.176-5.319-.39-.765.093-1.631-1.788-2.78a7.128,7.128,0,0,1-1.01-1.534,7.893,7.893,0,0,1,1.607-2.046A20.063,20.063,0,0,1,225.988,175.5Z" transform="translate(-200.436 -111.751)" fill="#1e2d64"/>
      <path id="Path_8078" data-name="Path 8078" d="M232.823,189.5s4.606-.948,5.36,1.031c1.5,3.928,3.776,3.982,6.23,5.162,1.1.527,1.557,1.056,1.713,1.538a1.274,1.274,0,0,1-.173,1.42c-.761.872-3.926,2.071-8.15.541a3.1,3.1,0,0,0-2.318-.215,5.52,5.52,0,0,1-1.843-.208,15.947,15.947,0,0,1-.369-2.8A25.71,25.71,0,0,1,232.823,189.5Z" transform="translate(-198.868 -110.036)" fill="#1e2d64"/>
      <path id="Path_8079" data-name="Path 8079" d="M206,185.507l3.293-.89a.465.465,0,0,0,.327-.568h0a.465.465,0,0,0-.568-.329h0l-3.294.887a.466.466,0,0,0-.328.569h0a.462.462,0,0,0,.446.346h0a.526.526,0,0,0,.124-.016Z" transform="translate(-202.274 -110.729)" fill="#151823"/>
      <path id="Path_8080" data-name="Path 8080" d="M229.306,205.53a.682.682,0,0,0,.5-.8h0l-5.5-32.116c-1.035-6.925-5.01-9.072-8.725-9.1h0l-.062,0c-4.674.318-7.188,3.737-7.936,9.1h0l-4.949,32.125a.682.682,0,0,0,.511.788h0a.632.632,0,0,0,.722-.558h0l4.947-32.129c.82-5.071,2.687-7.573,6.765-7.956h0c3.348.154,6.433,1.582,7.5,7.971h0l5.5,32.126v0a.641.641,0,0,0,.612.556h0a.6.6,0,0,0,.119-.011Z" transform="translate(-202.622 -113.243)" fill="#282a35"/>
      <g id="Group_4938" data-name="Group 4938" transform="translate(2.225 49.338)">
        <path id="Path_8081" data-name="Path 8081" d="M204.6,165.411a1.863,1.863,0,0,1,1.762-1.95h20.851a1.863,1.863,0,0,1,1.763,1.95,1.973,1.973,0,0,1-.913,1.695c-.818.765-5.562,1.349-11.313,1.349-6.024,0-10.952-.643-11.408-1.459A2.012,2.012,0,0,1,204.6,165.411Z" transform="translate(-204.601 -162.588)" fill="#7f1c5c"/>
        <path id="Path_8082" data-name="Path 8082" d="M205.449,163.923c0,.686,5.029,1.242,11.23,1.242s11.239-.556,11.239-1.242-5.03-1.238-11.239-1.238S205.449,163.239,205.449,163.923Z" transform="translate(-204.495 -162.685)" fill="#992c75"/>
      </g>
      <path id="Path_8083" data-name="Path 8083" d="M222.045,152.619c.233.7,2.059,5.337,3.162,5.706,4.905,1.633,10.72,1.563,16.391,2.98,4.126,1.031,4.8,6.106,2.4,9.05-5.757,7.065-11.485,15.485-11.485,16.862-2.749.588-7.85-7.268-7.85-7.268s4.361-5.67,7.85-10.613c.964-1.364-19.7-3.1-20.482-6.242S222.045,152.619,222.045,152.619Z" transform="translate(-201.456 -114.601)" fill="#b6c2d3"/>
      <path id="Path_8084" data-name="Path 8084" d="M207.683,157.114c-.115,6.969,2.092,8.247,4.883,8.712,3.187.531,19.756,7.208,19.756,9.181,0,3.778,1.2,19.953,2.8,25.186.364,1.189,9.415-.909,9.415-.909-1.091-7.632-3.09-18.7-4.07-26.022-.525-3.922-1.158-4.487-2.727-5.888-2.884-2.576-9.85-5.158-14.284-8.359-2.232-1.614-5.544-6.4-5.544-6.4Z" transform="translate(-201.993 -114.601)" fill="#b6c2d3"/>
      <g id="Group_4941" data-name="Group 4941" transform="translate(10.481)">
        <path id="Path_8085" data-name="Path 8085" d="M222.729,124.689c.178,0,.372,0,.372.128s-.018,1.525-.4,1.7-.253-.026-.253-.026.533-1.152.38-1.525c-.035-.085-.38-.089-.38-.089l-.09-.165Z" transform="translate(-210.646 -118.079)" fill="#282a35"/>
        <path id="Path_8086" data-name="Path 8086" d="M217.861,124.524c0-.813-.842-1.236-1.322-.82-.488.433-1.247,2.483-.377,3.2S217.861,124.524,217.861,124.524Z" transform="translate(-211.467 -118.222)" fill="#d8a798"/>
        <g id="Group_4940" data-name="Group 4940">
          <path id="Path_8087" data-name="Path 8087" d="M214.317,123.85c-.506,1.04.1,8.233-1.357,9.217s6.78,5.288,6.78,5.288-1.506-4.532,2.364-6.1C223.324,131.759,214.317,123.85,214.317,123.85Z" transform="translate(-211.838 -118.184)" fill="#d8a798"/>
          <g id="Group_4939" data-name="Group 4939">
            <path id="Path_8088" data-name="Path 8088" d="M219.114,120.135c2.5-.02,3.676.91,4.219,4.618.035.233-.234.762-.215.993,0,.048.007.091.012.147a19.458,19.458,0,0,1,.9,2.568c-.034.193-.5.414-.942.469a10.772,10.772,0,0,1,.116,1.927c0,1.105-.066,1.7-.385,1.758-1.194.222-3.2-.938-4.525-1.2-1.8-.351-1.969-3-2.273-4.905C215.518,123.358,215.92,120.163,219.114,120.135Z" transform="translate(-211.458 -118.646)" fill="#d8a798"/>
            <path id="Path_8089" data-name="Path 8089" d="M218.068,126.863a9,9,0,0,0,2.139,3.074c.32.314,2.834-.054,2.834-.054a5.715,5.715,0,0,1,.073,3.054c-.135.3-1.763.38-3.269.344-.484-.011-1.9-1.643-2.374-2.034-.3-.249-.311-4.491-.353-4.927S218.068,126.863,218.068,126.863Z" transform="translate(-211.299 -117.89)" fill="#380f01"/>
            <path id="Path_8090" data-name="Path 8090" d="M223.29,122.294c.478-.485.03-.289.618-1.085a2.18,2.18,0,0,0,.184-1.069l-1.68.274s1.225-.15,1.536-.512c.079-.09-3.046-.382-3.046-.382a8.662,8.662,0,0,0-5.175-.491c-1.7.463-1.909,1.474-1.909,1.474s-3.457,2.34-.982,7.414a11.727,11.727,0,0,1,.434,3.068c.85.468,3.22-1.451,3.22-1.451s.671-1.383.383-2c-.616-1.316-.02-2.329.342-1.85.134.168.34,1.031.579,1.167.213.115.967,1.25.912,1.05a5.837,5.837,0,0,1,1.455-5.126c.6-.488-1.691-1.19-2.42-1.3s1.207-.124,3.083,1.078C221.206,122.8,223.29,122.294,223.29,122.294Z" transform="translate(-211.943 -118.811)" fill="#380f01"/>
            <path id="Path_8091" data-name="Path 8091" d="M216.983,125c-.183-.344-1.244-.595-1.263.255s.543,2.616,1.264,2.53S216.983,125,216.983,125Z" transform="translate(-211.473 -118.08)" fill="#d8a798"/>
          </g>
        </g>
        <path id="Path_8092" data-name="Path 8092" d="M216.422,124.628l4.592.108-.305.813-4.136-.665Z" transform="translate(-211.385 -118.087)" fill="#151823"/>
        <path id="Path_8093" data-name="Path 8093" d="M222.752,124.856c-.09-.509-1.723-.408-2.286-.228-.64.2-.547,2.3.182,2.363a2.575,2.575,0,0,0,1.644-.278C222.7,126.468,222.845,125.364,222.752,124.856Zm-.626,1.734a1.915,1.915,0,0,1-1.1.146c-.609-.051-.654-1.724-.118-1.895.471-.15,1.6-.251,1.683.174A1.927,1.927,0,0,1,222.126,126.59Z" transform="translate(-210.935 -118.105)" fill="#151823"/>
      </g>
      <path id="Path_8094" data-name="Path 8094" d="M214.075,131.028c-1.526,1.745-3.669,3.543-4.323,4.416s-2.292,9.613-1.419,15.21c.71,4.544-2.689,7.849-1.6,8.94a2.477,2.477,0,0,1,.836,2.182s12.975-3.6,16.137-2.4c1.645.623,1.066-1.429.836-4.87-.218-3.271.365-6.252-.29-9.959s-2.436-8.287-4.253-9.378S214.075,131.028,214.075,131.028Z" transform="translate(-202.137 -117.29)" fill="#66bcf7"/>
      <path id="Path_8095" data-name="Path 8095" d="M220.613,136.341c.436,1.255,1.418,3.709,1.908,5.181a12.237,12.237,0,0,1,.272,5.452,49.3,49.3,0,0,0,.437,9.375c.271,1.365-.164,2.073-.382,2.073s-.982-2.182-.708-4.088-1.527-12.323-2.234-15.1-.164-3.6-.164-3.6Z" transform="translate(-200.515 -116.716)" fill="#8acdff"/>
      <path id="Path_8096" data-name="Path 8096" d="M218.41,136.075l1.018,1.237s2.689,15.518,2.689,16.536,2.508,2.835,2.508,2.835l.109-3.926s-4.433-14.865-4.433-15.593a19.212,19.212,0,0,0-.292-2.327l-.89-.562Z" transform="translate(-200.656 -116.885)" fill="#151823"/>
      <path id="Path_8097" data-name="Path 8097" d="M213.707,130.431l-1.454,1.89s5.706,3.852,7.3,6.033l.327-3.6a10.452,10.452,0,0,1-2.544-1.272A12.7,12.7,0,0,1,213.707,130.431Z" transform="translate(-201.423 -117.364)" fill="#8acdff"/>
      <g id="Group_4942" data-name="Group 4942" transform="translate(24.203 26.523)">
        <path id="Path_8098" data-name="Path 8098" d="M230.753,143.108c.87.036,1.62.074,2.207.1,0,0,1.486.408,1.473.737s-1.009-.116-1.5-.136-1.062-.108-1.062-.108,2.474.238,2.672.739-.333.123-.928-.011a6.763,6.763,0,0,0-1.83.07,6.037,6.037,0,0,1,1.742.09c1.08.264.849.553.735.659a3.944,3.944,0,0,1-1.339-.119,9.825,9.825,0,0,0-1.527.009,6.951,6.951,0,0,1,2.421.355c.367.343-.265.226-.773.168a2.677,2.677,0,0,0-1.6.316,6.288,6.288,0,0,1-3.838.441c-.84-.234-2.784,1.412-2.953,1.512a21.593,21.593,0,0,1-.515-3.385S229.88,143.071,230.753,143.108Z" transform="translate(-224.145 -142.309)" fill="#d8a798"/>
        <path id="Path_8099" data-name="Path 8099" d="M226.264,144.114c.943-.4,1.781-.854,2.4-1.146a9.875,9.875,0,0,1,2.59-.571c.295,0,.245.335-1.717,1.062-.614.227.109.982.109.982Z" transform="translate(-223.881 -142.397)" fill="#d8a798"/>
      </g>
      <g id="Group_4943" data-name="Group 4943" transform="translate(7.481 17.443)">
        <path id="Path_8100" data-name="Path 8100" d="M226.806,144.619a40.517,40.517,0,0,0-8.442,1.7c-.413.152-.413-5.894-.977-8.671-.437-2.137-2.755-3.644-5.583-3.269a10.538,10.538,0,0,0-2.508,6.652c-.093,2.407,3.136,9.509,4.47,11.013a18.207,18.207,0,0,0,6.472-.1c2.168-.322,6.96-1.15,6.942-2.241S226.806,144.619,226.806,144.619Z" transform="translate(-209.273 -134.322)" fill="#8acdff"/>
        <path id="Path_8101" data-name="Path 8101" d="M223.9,143.9l2.82-.756s-.831,2.466.506,4.136l-2.378,1.346Z" transform="translate(-207.453 -133.223)" fill="#8acdff"/>
        <path id="Path_8102" data-name="Path 8102" d="M212.134,138.559c.326,2.291,1.852,10.358,3.271,10.9s10.357,1.418,10.575-2.726.545-1.635.545-.873.218,3.491.218,3.491-10.9,3.161-12.539,2.071-6-9.977-4.688-13.031,2.563-4.8,2.563-3.488S212.134,138.559,212.134,138.559Z" transform="translate(-209.275 -134.304)" fill="#66bcf7"/>
      </g>
      <g id="Group_4944" data-name="Group 4944" transform="translate(14.153 37.122)">
        <path id="Path_8103" data-name="Path 8103" d="M216.292,151.874c-.764.928-1.656,3.982-.6,3.6a11.659,11.659,0,0,1,3.387-.354c-.271.109-.526-.436-2.08-.653C215.847,154.3,216.292,151.874,216.292,151.874Z" transform="translate(-215.208 -151.816)" fill="#8acdff"/>
        <path id="Path_8104" data-name="Path 8104" d="M217.2,153.3c0-.819.544-2.023.654-1.2s-.054,1.581.708,1.745.764-.765,1.036-.382.955.872,1.609,1.636-1.146-.328-2.4.055S217.2,154.008,217.2,153.3Z" transform="translate(-214.961 -151.822)" fill="#8acdff"/>
      </g>
      <path id="Path_8105" data-name="Path 8105" d="M223.16,158.564c1.744,1.2,13.559,7.087,14.756,8.615s1.963,6.105,1.854,7.524,2.908,23.441,2.908,23.441a4.971,4.971,0,0,1-2.509.872c-1.526-9.595-2.522-23.866-2.653-26.349-.144-2.763-1.452-5.38-2.544-6.142S223.16,158.564,223.16,158.564Z" transform="translate(-200.065 -113.86)" fill="#96a6bc"/>
    </g>
    <g id="Group_4965" data-name="Group 4965" transform="translate(279.632 136.127)">
      <g id="Group_4948" data-name="Group 4948" transform="translate(0 10.861)">
        <path id="Path_8106" data-name="Path 8106" d="M305.17,180.092c-.924-6.781-1.886-13.727-2.076-14.951h0a.538.538,0,0,1-.044-.207h0a1.582,1.582,0,0,0-.043-.178h0a2.347,2.347,0,0,0-.228-.554h0a1.653,1.653,0,0,0-1.331-.86h0l.132-1.18a2.856,2.856,0,0,1,2.227,1.446h0a3.637,3.637,0,0,1,.39,1h0a.064.064,0,0,0,.009.03h0a.259.259,0,0,0,.016.061h0c.008.03.009.055.016.087h0c.009.066.027.152.042.259h0c.035.226.081.547.141.958h0c.118.822.281,1.989.479,3.391h0c.388,2.8.9,6.54,1.411,10.278h0c1.019,7.474,2.1,16.6,2.105,16.6h0l-1.177.16c0-.016-1.058-8.954-2.067-16.341Zm-2.114-15.13v0h0v0Z" transform="translate(-267.324 -141.589)" fill="#96a6bc"/>
        <path id="Path_8107" data-name="Path 8107" d="M272.5,196.655h0Zm-1.4-.136c.148-1.687,3.29-26.342,4.112-30.322h0a22.625,22.625,0,0,1,1.556-5.251h0a4.485,4.485,0,0,1,3.62-2.838h0c.081,0,.173-.011.262-.011h0a28.511,28.511,0,0,1,6.707.464h0l-.372,1.617a27.043,27.043,0,0,0-6.446-.466h0c-.055,0-.107.007-.166.01h0c-1.059.1-1.67.672-2.3,1.885h0a21.4,21.4,0,0,0-1.424,4.839h0c-.794,3.771-4.015,28.693-4.148,30.208h0l-1.4-.136Z" transform="translate(-271.103 -142.097)" fill="#b6c2d3"/>
        <g id="Group_4947" data-name="Group 4947" transform="translate(2.642)">
          <g id="Group_4946" data-name="Group 4946" transform="translate(13.566)">
            <path id="Path_8108" data-name="Path 8108" d="M310.214,145.067c1,.268,2.664.476,2.193,2.125-.623,2.171-3.712,8.735-4.073,11.91a75.106,75.106,0,0,0-.183,10.713c.078,2.665-3.46,1.66-3.46,1.66l-19.174-3.015a67.353,67.353,0,0,0,1.365-12.665,23.158,23.158,0,0,1,3.082-10.842,2.71,2.71,0,0,1,1.619-1.036C293.078,143.73,306.372,144.047,310.214,145.067Z" transform="translate(-285.516 -143.867)" fill="#96a6bc"/>
            <path id="Path_8109" data-name="Path 8109" d="M309.672,145.51c-1.483.228-2.816,3.577-3.613,7.225s-2.98,15.28-2.309,17.292c.3.912,2.209,1.354,2.285.138s.7-8.561,1.316-11.568c1.067-5.253,3.253-10.736,3.274-11.567C310.659,145.51,309.672,145.51,309.672,145.51Z" transform="translate(-283.261 -143.662)" fill="#b6c2d3"/>
          </g>
          <path id="Path_8110" data-name="Path 8110" d="M273.619,169.836c-.769,1.4,1.372,1.636,1.372,1.636s22.9,3.728,24.035,3.043,1.676-3.043,3.042-3.043,4.56,1.95,6.082,1.186c0,0,1.387-1.754.15-3.042-1.863-1.939-20.76-3.166-22.356-3.166s-8.08-.087-9.965.988A4.6,4.6,0,0,0,273.619,169.836Z" transform="translate(-273.453 -141.055)" fill="#96a6bc"/>
          <path id="Path_8111" data-name="Path 8111" d="M295.609,170.294c.874-.648,3.267-1.039,5.342-1.092,2.365-.06,5.057.486,5.192,1.3.128.783.281,2.083-.937,2.387s-3.84-.932-5.863-.209c-1.274.459-2.3,1.745-2.906,1.715C294.414,174.29,294.868,170.84,295.609,170.294Z" transform="translate(-270.771 -140.712)" fill="#b6c2d3"/>
        </g>
      </g>
      <path id="Path_8112" data-name="Path 8112" d="M298.831,161.157s-10.7-2.275-12.219-2.275a9.651,9.651,0,0,0-2.42,1.176c-1.064,1.369-5.429,5.229-4.082,7.679.837,1.523,3.912,2.326,4.566,2.492.848.711-.244.007.968.622,3.089,1.562,9.618.191,12.731-.127C300.58,170.5,300.543,165.986,298.831,161.157Z" transform="translate(-270.013 -131.136)" fill="#1e2d64"/>
      <path id="Path_8113" data-name="Path 8113" d="M290.15,147.124c-3.763.687-3.137,3.765-8.578,8.794-1.41,1.306-1.4,3.123-1.09,3.471.829.934,5.674.416,7.975-1.119a2.394,2.394,0,0,0,.841-1.1l2.611-6.464Z" transform="translate(-269.956 -132.601)" fill="#cc0a45"/>
      <path id="Path_8114" data-name="Path 8114" d="M300.19,146.024c-2.31-.956-3.919,3.928-5.623,3.717-.819-.1-1.452-3.374-1.452-3.374l-3.841,1.054.173,1.455c-.909,2.2-1.849,5.808-1.661,6.436.142.47-.423.813-.444,1.136l-.256,1.009c-.435.9-2.752,3.123-4.061,4.577-1.43,1.588-.8,1.6-.8,1.6s1.974-.95,2.725-1.2c2.575-.421,8.883,1.918,11.97,4.219,1.268,1.1,2.765,5.261,2.765,5.261a40.071,40.071,0,0,0,1.247-4.776c.425-2.272-.051-5.781,1.228-7.485,1.028-1.371,1.2-3.817,1.871-7.274l1.473-4.125S303.648,147.456,300.19,146.024Z" transform="translate(-269.735 -132.753)" fill="#ed1556"/>
      <g id="Group_4952" data-name="Group 4952" transform="translate(21.106 9.199)">
        <g id="Group_4950" data-name="Group 4950" transform="translate(2.445)">
          <path id="Path_8115" data-name="Path 8115" d="M292.61,143.979c-.018,1.164.323,2.609-.332,3.453s.255,3.725.529,3.507a22.211,22.211,0,0,1,6.022-3.1,34.631,34.631,0,0,1-.856-5.245C298.1,141.708,292.61,143.979,292.61,143.979Z" transform="translate(-292.047 -142.389)" fill="#cc9483"/>
          <g id="Group_4949" data-name="Group 4949" transform="translate(0.172 0.314)">
            <path id="Path_8116" data-name="Path 8116" d="M292.2,144.78c.333.834,3.377,5.66,4.323,5.864.784.173,1.741-1.592,2.356-2.014.067-.822-.99-5.557-.969-5.962C297.909,142.668,292.417,144.152,292.2,144.78Z" transform="translate(-292.2 -142.668)" fill="url(#linear-gradient-2)" style="mix-blend-mode: multiply;isolation: isolate"/>
          </g>
        </g>
        <g id="Group_4951" data-name="Group 4951" transform="translate(0 2.852)">
          <path id="Path_8117" data-name="Path 8117" d="M295.258,148.35a6.749,6.749,0,0,0,2.875-3.425l1.208,1.438a12.364,12.364,0,0,1-1.987,4.08C296.769,147.781,295.258,148.35,295.258,148.35Z" transform="translate(-289.201 -144.925)" fill="#fff"/>
          <path id="Path_8118" data-name="Path 8118" d="M292.933,145.678l-1.785,1.013-1.276,2.394s2.048-.905,2.527-.746a2.339,2.339,0,0,1,.349-1.811A3.636,3.636,0,0,0,292.933,145.678Z" transform="translate(-289.872 -144.831)" fill="#fff"/>
          <path id="Path_8119" data-name="Path 8119" d="M292.211,146.329c-.532,1.634.437,2.817.614,3.457a2.108,2.108,0,0,1-.106,1.275,7.847,7.847,0,0,0-.57-1.737c-.354-.675-.612-.449-.647-1.583A1.341,1.341,0,0,1,292.211,146.329Z" transform="translate(-289.669 -144.75)" fill="#fff"/>
          <path id="Path_8120" data-name="Path 8120" d="M296.961,147.275a10.328,10.328,0,0,0-3.141,2.112c-.676.675-1.224,1.331-1.224,1.331a18.073,18.073,0,0,1,1.65-1.19,13.8,13.8,0,0,0,2.784-1.721C297.281,147.381,296.961,147.275,296.961,147.275Z" transform="translate(-289.533 -144.632)" fill="#fff"/>
        </g>
      </g>
      <g id="Group_4955" data-name="Group 4955" transform="translate(22.09)">
        <path id="Path_8121" data-name="Path 8121" d="M299.938,139.392c-.047.821-1.3,5.27-1.287,5.43s.011.728.18.687-1.067,0-1.316-.287a19.868,19.868,0,0,1-.394-4.816A21.243,21.243,0,0,1,299.938,139.392Z" transform="translate(-289.958 -133.563)" fill="#151823"/>
        <g id="Group_4954" data-name="Group 4954">
          <path id="Path_8122" data-name="Path 8122" d="M298.357,140.881c.187-1.652,2.232-4.2-2.474-4.794a6.79,6.79,0,0,0-1.941-.011,5.038,5.038,0,0,0-.578-.251c-.807.036-1.321.5-1.866,1.477-.824,1.527-.459,3.69-.413,5.533.038,1.615.485,3.214,1.633,3.769a1.977,1.977,0,0,0,1.02.315,4.142,4.142,0,0,0,4.45-3.143,2.156,2.156,0,0,0,1.067-1.568C299.427,141.323,299.194,140.519,298.357,140.881Z" transform="translate(-290.719 -134.008)" fill="#d8a798"/>
          <g id="Group_4953" data-name="Group 4953">
            <path id="Path_8123" data-name="Path 8123" d="M294.721,136.11l.1-.2s.961-.432.788-.453c-.1-.01-.4-.333-.652.107l.489-.725-2.15.451a1.2,1.2,0,0,0-.821.117c-.362.225-.642.4-.642.4s.035.341.135-.123c-.478.1-.877,1.153-.946,1.943-.064.232-.121.5-.17.779a10.024,10.024,0,0,0-.051,2.489l.211.165s-.2-2.844.958-3.552,3.625.233,3.625.233Z" transform="translate(-290.747 -134.13)" fill="#282a35"/>
            <path id="Path_8124" data-name="Path 8124" d="M300.661,138.581c-.289-.732-.686-1.806-1.194-2.1-.213-.577-2.977-1.469-4.764-2.272,0,0,1.579.733,1.565,1.168l-.011,0c-.2-.362-2.327-1.035-2.212-.813.648,1.253.557.442.329.945-.054-.017.087.054.036.04.114-.509-.419-1.054-.813-1.193.106.7-.7.589-1.3,1.3-.721.578-1.324,1.728-.673,2.3,1.5,1.325,2.853.439,3.885.586a1.971,1.971,0,0,1,1.58,1.081,13.3,13.3,0,0,1,.2,2.728l.7-.37.748-.856,1.183.889S301.242,140.046,300.661,138.581Z" transform="translate(-290.672 -134.209)" fill="#151823"/>
          </g>
        </g>
      </g>
      <path id="Path_8125" data-name="Path 8125" d="M285.93,186.333a16.618,16.618,0,0,0-.074,6.691c.379,1.367-5.553-.839-5.553-.839a1.957,1.957,0,0,1,.226-1.672c.535-1.065.859-4.678,1.009-5.21S285.93,186.333,285.93,186.333Z" transform="translate(-269.968 -127.86)" fill="#282a35"/>
      <path id="Path_8126" data-name="Path 8126" d="M292.155,169.02c-.686,2.283-1.59,1.62-2.275,3.674,0,0-3.113,17.372-3.113,19.2a6.835,6.835,0,0,1-6.711-1.646c-1.367-1.369,2.039-15.332,2.039-16.929s.353-4.4,2.179-6.229S292.155,169.02,292.155,169.02Z" transform="translate(-270.028 -130.177)" fill="#1e2d64"/>
      <g id="Group_4956" data-name="Group 4956" transform="translate(10.335 62.331)">
        <path id="Path_8127" data-name="Path 8127" d="M290.05,194.922a2.973,2.973,0,0,1,.024.97,2.842,2.842,0,0,1-1.66,1.581c-.872.233-4.07-.108-5.243-1.021s-.972-1.934-1.366-2.2-1-.593-1-.593-.623-.971-.385-1.219S290.05,194.922,290.05,194.922Z" transform="translate(-280.284 -189.29)" fill="#1e2d64"/>
        <path id="Path_8128" data-name="Path 8128" d="M285.475,190.114c.265.968,2.1,2.673,2.756,3.335s1.924,1.267,1.754,2.145-1.515,1.694-2.629,1.768-3.779-.136-4.595-1.717a5.7,5.7,0,0,0-2.122-2.638c-.591-.277-.339-3.882.111-3.307s.426,1.4,1.2,1.526.882-.8,1.628-1.158A1.963,1.963,0,0,1,285.475,190.114Z" transform="translate(-280.293 -189.637)" fill="#1e2d64"/>
      </g>
      <path id="Path_8129" data-name="Path 8129" d="M295.14,197.792c0-1.671.793-25.187,1.257-28.961h0a19.646,19.646,0,0,1,1.14-5.125h0a3.918,3.918,0,0,1,3.5-2.7h0c.614-.025,1.138-.036,1.6-.036h0a52.263,52.263,0,0,1,6.286.439l-.192,1.446a50.143,50.143,0,0,0-6.094-.425h0c-.441,0-.948.013-1.552.031h0c-1.073.057-1.659.617-2.209,1.825h0a18.5,18.5,0,0,0-1.029,4.725h0c-.444,3.534-1.254,27.249-1.248,28.78H295.14Z" transform="translate(-268.109 -130.876)" fill="#b6c2d3"/>
      <g id="Group_4959" data-name="Group 4959" transform="translate(16.722 29.501)">
        <path id="Path_8130" data-name="Path 8130" d="M290.259,183.35c-.488.774-.192,1.218,2.4-.416,1.957-1.239,5.665-2.589,4.755-3.578S291.172,181.906,290.259,183.35Z" transform="translate(-285.464 -158.109)" fill="#1e2d64"/>
        <g id="Group_4957" data-name="Group 4957" transform="translate(4.878 19.475)">
          <path id="Path_8131" data-name="Path 8131" d="M290.311,178.141a77.244,77.244,0,0,1,1.968,8.011s5.935-.268,5.7-.628a31.738,31.738,0,0,1-3.341-7.168C294.182,177.156,290.311,178.141,290.311,178.141Z" transform="translate(-290.311 -177.761)" fill="#1e2d64"/>
        </g>
        <path id="Path_8132" data-name="Path 8132" d="M292.609,161.341c1.253.914,1.442,3.38,1.826,4.224,1.825,3.991,3.609,16.39,3.609,16.39a11.794,11.794,0,0,0-3.268,1.294c-.609.611-4.182,3.082-4.182,3.082s-3.652-12.589-4.262-16.851.381-7.377,2.053-8.595S292.609,161.341,292.609,161.341Z" transform="translate(-285.951 -160.443)" fill="#1e2d64"/>
        <g id="Group_4958" data-name="Group 4958" transform="translate(6.353 24.758)">
          <path id="Path_8133" data-name="Path 8133" d="M302.306,185.6a2.949,2.949,0,0,1,.323.916,3.1,3.1,0,0,1-1.36,1.814,7.681,7.681,0,0,1-4.869.572c-1.4-.507-1.685-1.266-2.142-1.4s-1.138-.254-1.138-.254-.892-.73-.743-1.04S302.306,185.6,302.306,185.6Z" transform="translate(-291.531 -182.067)" fill="#1e2d64"/>
          <path id="Path_8134" data-name="Path 8134" d="M296.447,182.506c.557.839,2.829,1.888,3.651,2.321s2.22.611,2.33,1.5-.567,1.335-1.6,1.754-3.909,1.4-5.176.151a4.505,4.505,0,0,0-2.913-1.48c-.645-.083-1.517-3.587-.914-3.18s.834,1.2,1.616,1.08.589-1.038,1.19-1.607A1.962,1.962,0,0,1,296.447,182.506Z" transform="translate(-291.623 -182.459)" fill="#1e2d64"/>
        </g>
        <path id="Path_8135" data-name="Path 8135" d="M288.211,160.79c2.053.57,3.279,3.252,3.393,4.394s4.792,17.115,4.489,17.5c-.151.188-4.945,2.815-4.945,2.815s-5.289-15.858-5.173-18.942S286.5,160.32,288.211,160.79Z" transform="translate(-285.973 -160.406)" fill="#1e2d64"/>
      </g>
      <path id="Path_8136" data-name="Path 8136" d="M288.867,150.033c-.363,1.308-1.837,3.362-2.327,5.815a42.4,42.4,0,0,0-.581,4.943c0,.726.8.289,1.017.073s.146-4.435.581-5.525S288.867,150.033,288.867,150.033Z" transform="translate(-269.253 -132.238)" fill="#992c75"/>
      <g id="Group_4961" data-name="Group 4961" transform="translate(10.728 22.956)">
        <g id="Group_4960" data-name="Group 4960" transform="translate(6.262 3.663)">
          <path id="Path_8137" data-name="Path 8137" d="M289.793,159.083a15.454,15.454,0,0,0,1.656.536c.351.1.73.873,1.417,1.794.138.183.28.376,0,.4s-.595-1.09-.947-.973c-.078.027.365.552.571.816.178.232.784,1.842.6,1.944-.342.183-.848-1.586-.975-1.473-.1.088.885,1.669.67,1.781-.4.215-.993-1.271-1.313-1.306,0,0,.21.341.441.732a1.184,1.184,0,0,1,.225.824c-.2.425-1.105-1.831-1.33-1.568-.177.208.525,1.388.21,1.47-.157.044-.885-1.647-.885-1.647a14.9,14.9,0,0,1-2.083-2.331c-.241-.458-1.065-.622-1.065-.622l1.61-.83A6.293,6.293,0,0,1,289.793,159.083Z" transform="translate(-286.115 -157.786)" fill="#cc0a45"/>
          <path id="Path_8138" data-name="Path 8138" d="M288.423,157.88c.2.156,1.99,1.265,1.99,1.265s-1.354.1-2.371,2.473c-.208.479-1.832-.726-1.832-.726Z" transform="translate(-286.211 -157.88)" fill="#cc0a45"/>
        </g>
        <path id="Path_8139" data-name="Path 8139" d="M290.043,158.337c1.03.132-5.967-3.714-5.967-3.714s-4.017,2.945-3.361,3.832c2.179,2.96,6.63,3,6.63,3S289.212,158.234,290.043,158.337Z" transform="translate(-280.643 -154.623)" fill="#cc0a45"/>
      </g>
      <g id="Group_4964" data-name="Group 4964" transform="translate(18.329 15.303)">
        <g id="Group_4963" data-name="Group 4963" transform="translate(0 10.799)">
          <g id="Group_4962" data-name="Group 4962">
            <path id="Path_8140" data-name="Path 8140" d="M290.072,157.573a1.641,1.641,0,0,0-1.094-.1s1.059,2.113.8,2.678c-.108.235,1.615.282,1.995.081,1.3-.247,1.254-.518,1.184-1.288C292.878,158.121,291.342,158.148,290.072,157.573Z" transform="translate(-287.206 -157.42)" fill="#cc0a45"/>
            <path id="Path_8141" data-name="Path 8141" d="M289.061,157.482a4.06,4.06,0,0,0-.8.608c-.244.21-.961.937-.849,1.087s.57-.287,1.065-.6c.53-.329.547-.289.695-.258,0,0-.414.253-.792.5-.28.183-1.071.657-.865.933.151.2.621-.31,1.035-.48s.91-.407.91-.407-.374.224-.758.49c-.416.3-.9.542-.829.7s.641-.081,1.128-.225a4.805,4.805,0,0,1,.846-.177s-1.758.672-1.416.847a4,4,0,0,0,2.135-.53c.311-.154.044-.948-.281-1.614C289.751,157.242,289.061,157.482,289.061,157.482Z" transform="translate(-287.402 -157.415)" fill="#cc0a45"/>
          </g>
          <path id="Path_8142" data-name="Path 8142" d="M291.3,158.241c1.04-.154,3.181-.138,3.764-.29s1.754,2.336,1.155,2.662-4.6-.193-5.018-.495S291.3,158.241,291.3,158.241Z" transform="translate(-286.95 -157.355)" fill="#cc0a45"/>
          <path id="Path_8143" data-name="Path 8143" d="M293.763,158.1c-.163-.014-1.852-.2-1.852-.2s.254,3.668-.048,3.856a3.547,3.547,0,0,0,2.184-.333Z" transform="translate(-286.847 -157.36)" fill="#cc0a45"/>
        </g>
        <path id="Path_8144" data-name="Path 8144" d="M303.712,147.841c1.353-.307,2.374,2.457,1.966,5.777-.382,3.131.169,9.409-1.864,9.409s-9.021,1.557-10.241,1.039a18.194,18.194,0,0,0-.984-4.912s6.445,0,7.189.137c.729.137.872-1.859.731-3.667C300.167,151.265,302.8,148.049,303.712,147.841Z" transform="translate(-286.757 -147.817)" fill="#cc0a45"/>
        <path id="Path_8145" data-name="Path 8145" d="M303.433,149.019c.746,1.384.2,6.367-.134,8.65s-.951,2.422-1.631,1.661-1.424-.9-.812-.209,1.968,1.526,1.154,1.593-1.358-1.732-1.221-1.109.27,2.077-.272,1.731-7.326-.9-7.326-.9l.306,3.53s10.478-.623,10.887-1.869,1.559-10.1.746-12.245S303.433,149.019,303.433,149.019Z" transform="translate(-286.681 -147.717)" fill="#cc0a45"/>
      </g>
    </g>
    <g id="Group_4976" data-name="Group 4976" transform="translate(307.945 133.991)">
      <g id="Group_4975" data-name="Group 4975">
        <path id="Path_8146" data-name="Path 8146" d="M340.126,200.029l-1.275.188h0c0-.013-2.472-22.946-2.895-25.709h0c-.213-1.382-.39-2.534-.518-3.338h0c-.065-.4-.117-.716-.152-.928h0l0-.013h0a.494.494,0,0,1-.043-.111h0a.192.192,0,0,1-.01-.031h0a.075.075,0,0,0,0-.021l-.009-.046-.006-.047h0v-.016h0a2.008,2.008,0,0,0-1.737-1.733l.142-1.281h0a3.106,3.106,0,0,1,2.418,1.573h0a4.046,4.046,0,0,1,.414,1.049h0c.076.181.029.119.062.222h0c.389,1.979,3.614,30.228,3.617,30.243ZM336.3,170.416l.017-.015h0l-.017.015Z" transform="translate(-291.649 -127.997)" fill="#96a6bc"/>
        <path id="Path_8147" data-name="Path 8147" d="M303.613,169.477a19.421,19.421,0,0,1,1.487-4.743h0a2.729,2.729,0,0,1,2.485-1.74h0c.071,0,.127,0,.186.006h0c3.5.2,8.324-.448,10.77.107l.309-1.355c-2.426-.55-7.484.061-10.983-.134h0a2.8,2.8,0,0,0-.281-.01h0a4.124,4.124,0,0,0-3.7,2.465h0a20.285,20.285,0,0,0-1.622,5.1h0c-.872,3.978-3.3,25.718-3.46,27.475h0l1.381.126c.15-1.658,2.606-23.562,3.433-27.3Z" transform="translate(-295.968 -128.673)" fill="#96a6bc"/>
        <g id="Group_4966" data-name="Group 4966" transform="translate(19.718 14.477)">
          <path id="Path_8148" data-name="Path 8148" d="M340.788,145.843c1.085.288,1.688,1.065,1.177,2.851-.672,2.357-2,12.245-2.393,15.69-.414,3.635-2.43,7.433-2.3,11.893.082,2.892-1.532,2.6-1.532,2.6l-21.925-4.334a64.649,64.649,0,0,0,2.684-12.469c.629-5.285,2.528-13.512,3.726-15.322a4.942,4.942,0,0,1,2.477-1.238C324.327,145.311,336.614,144.736,340.788,145.843Z" transform="translate(-313.816 -145.183)" fill="#96a6bc"/>
          <path id="Path_8149" data-name="Path 8149" d="M338.749,146.395c-1.61.247-2.4,3.071-3.263,7.035S332.772,173.818,333.5,176a1.042,1.042,0,0,0,1.99-.511c.084-1.319.905-8.317,1.569-11.586,1.159-5.7,2.7-14.958,2.726-15.861C339.824,146.395,338.749,146.395,338.749,146.395Z" transform="translate(-311.385 -145.033)" fill="#b6c2d3"/>
        </g>
        <path id="Path_8150" data-name="Path 8150" d="M301.4,172.924c-.837,1.516,1.484,1.779,1.484,1.779s19.657,3.261,20.894,2.517,2.48-.658,7.185-.948c1.483-.09,4.948.388,6.6-.44,0,0,2.293-.845,1.055-2.331s-21.936-4.415-23.675-4.415-8.938.073-10.983,1.24A4.972,4.972,0,0,0,301.4,172.924Z" transform="translate(-295.667 -127.73)" fill="#96a6bc"/>
        <path id="Path_8151" data-name="Path 8151" d="M321.572,138.7h0Z" transform="translate(-293.132 -131.515)" fill="#151823"/>
        <path id="Path_8152" data-name="Path 8152" d="M317.862,190.248s-3.661-1.158-4.166.663-1.986,3.622-4.568,5.635a3.513,3.513,0,0,0-1.387,1.662,1.127,1.127,0,0,0,.256,1.249c.74.719,3.567,1.15,6.666-.881.649-.428.837-.76,1.42-.52a7.05,7.05,0,0,0,1.979-.443,2.2,2.2,0,0,0,.582-1.748C318.9,194.223,318.088,191.4,317.862,190.248Z" transform="translate(-294.865 -125.14)" fill="#151823"/>
        <path id="Path_8153" data-name="Path 8153" d="M308.23,188.563s-3.939-1.23-4.25.675c-.445,2.708-3.319,4.17-6.3,5.429-1.027.433-1.213.774-1.32,1.218a1.151,1.151,0,0,0,.267,1.274c.75.734,4.043.825,6.81-.028.751-.237,1.01-1.105,2.973-.615a6.568,6.568,0,0,0,1.652-.328,7.2,7.2,0,0,0,.3-2.366A18.4,18.4,0,0,0,308.23,188.563Z" transform="translate(-296.281 -125.353)" fill="#151823"/>
        <path id="Path_8154" data-name="Path 8154" d="M309,175.432c0,1.317,1.4,19.264,1.4,23,3.377,1.2,8.624.353,8.624.353.551-9,.439-21.941,0-23.478a33.524,33.524,0,0,1,6.5-.153c3.13.268,6.4.3,7.016-2.682a35.36,35.36,0,0,0,.583-7.632l-11.18-2.771-2.2-1.376-3.554,4.91s-4.16.187-6.087,1.978S309,175.432,309,175.432Z" transform="translate(-294.72 -128.775)" fill="#1e2d64"/>
        <path id="Path_8155" data-name="Path 8155" d="M302.19,166.634c-1.447,2.274-2.229,3.442-1.575,7.357.617,3.705-.242,20.431-.242,21.586,2.3.495,8.8,1.006,8.8,1.006s.838-13.426-.436-21.518a13.186,13.186,0,0,1,6.4-1.017c3.721.31,7.8-5.074,7.8-5.074l.344-3.993s-11.455.2-15.7.2C303.128,165.179,302.19,166.634,302.19,166.634Z" transform="translate(-295.772 -128.241)" fill="#1e2d64"/>
        <path id="Path_8156" data-name="Path 8156" d="M321.851,174.069c1.244-.626,5.921-2.473,9.547-1.918,3.207.49,5.437,1.108,5.564,1.995a2.62,2.62,0,0,1-2.079,2.9c-1.692.226-6.034-1.526-7.737-.972-2.783.9-4.369,1.608-5.2,1.555C319.646,177.49,320.8,174.6,321.851,174.069Z" transform="translate(-293.251 -127.361)" fill="#b6c2d3"/>
        <g id="Group_4969" data-name="Group 4969" transform="translate(7.743 30.564)">
          <g id="Group_4968" data-name="Group 4968" transform="translate(0.774)">
            <g id="Group_4967" data-name="Group 4967">
              <path id="Path_8157" data-name="Path 8157" d="M307.939,160.041a31,31,0,0,0-3.012.778,5.452,5.452,0,0,0-.791,1.446s-.477,1.56-.191,1.663c.177.065.717-1.189.846-1.391a6,6,0,0,1,1.365-.713s-1.487.892-.9,1.285c.16.106.256-.278,1.014-.533s1.545.314,2.6-.732c.163-.161,3.778-.165,3.954-.41.328-.463-1.8-1.945-1.8-1.945Z" transform="translate(-303.855 -159.489)" fill="#d8a798"/>
            </g>
          </g>
          <path id="Path_8158" data-name="Path 8158" d="M304.854,160.741a2.274,2.274,0,0,0-.854.869,4,4,0,0,0-.435,1.09c-.073.4-.255,1.2-.036.982a12.211,12.211,0,0,0,.653-1.345A16.174,16.174,0,0,0,304.854,160.741Z" transform="translate(-303.134 -159.333)" fill="#d8a798"/>
          <path id="Path_8159" data-name="Path 8159" d="M304.549,160.988a4.853,4.853,0,0,0-.871,1.091c-.163.217-.708,1.418-.436,1.308a2.839,2.839,0,0,0,.819-1.091C304.06,162.188,304.549,160.988,304.549,160.988Z" transform="translate(-303.166 -159.302)" fill="#d8a798"/>
        </g>
        <g id="Group_4970" data-name="Group 4970" transform="translate(13.396 17.74)">
          <path id="Path_8160" data-name="Path 8160" d="M326.53,151.1c.8,1.174-.813,4.368-2.829,6.714s-2.378,4.95-4.166,5.478-8.852,1.613-9.34.728c-.443-.8-1.491.035-1.491.035l-.508-3.27,1.672-.437a66.319,66.319,0,0,0,6.688-2.507c.873-.653,1.892-3.2,2.742-5.437.368-.966,1.277-3.97,2.531-4.237C324.79,147.527,326.53,151.1,326.53,151.1Z" transform="translate(-308.194 -148.085)" fill="#4a75dd"/>
        </g>
        <g id="Group_4973" data-name="Group 4973" transform="translate(26.999)">
          <path id="Path_8161" data-name="Path 8161" d="M331.271,147.244c-.153-.168-1.091-2.188-1.189-2.439a6.342,6.342,0,0,1-.369-2.2,25.667,25.667,0,0,0,1.468-4.214s-.74-2.176-1.993-2.564c-.244-1.56-2.676-1.367-4.5-1.385-2.266-.024-3.121,1.454-3.621,4.822a6.616,6.616,0,0,0,.286,1.071c-.327,1.147-.791,2.012-.759,2.234a.961.961,0,0,0,.779.518c.066.523.312,1.252.381,1.634.18.991.482,1.179.776,1.234a4.168,4.168,0,0,0,1.717-.136,4.149,4.149,0,0,1,.639,1.853c.088.462-1.493,3.426-1.493,3.426l.878,1.147S332.338,148.429,331.271,147.244Z" transform="translate(-320.253 -132.044)" fill="#cc9483"/>
          <g id="Group_4972" data-name="Group 4972">
            <g id="Group_4971" data-name="Group 4971">
              <path id="Path_8162" data-name="Path 8162" d="M321.46,137.377c-.43-.445-1.15-.86-1.17-1.308-.035-1.171,1.789-2.928,1.789-2.928l.5,1.587s-.44.052-.35-.581c.108-.75.89-2,.719-1.493a1.157,1.157,0,0,0,1.059,1.654c1.04-.534.049-1.469,4.211-.334a3.678,3.678,0,0,1,2.159,1.508s3.2,1,.517,8.1a2.346,2.346,0,0,0-.171.969s-2.525-.182-2.6-.8c-.242-1.957-.47-3.48-1.065-3.506-.354-.011-.595,1.376-.674,1.2-.432-.95-1.083-1.642-1.137-2.341-.017-.193.083-1.962-1.179-2.034C323.662,137.04,321.46,137.377,321.46,137.377Z" transform="translate(-320.29 -132.282)" fill="#a0593a"/>
              <path id="Path_8163" data-name="Path 8163" d="M328.945,135.722c-.432-1.01-1.7-1.53-3.5-.94.893-.081,1.566-.37,2.282.421S328.945,135.722,328.945,135.722Z" transform="translate(-319.649 -132.033)" fill="#ba784a"/>
              <path id="Path_8164" data-name="Path 8164" d="M324.929,134.891a2.085,2.085,0,0,1-2.037-2.547c-.586,1.313-.412,2.554,1.087,2.943C325.133,135.588,324.929,134.891,324.929,134.891Z" transform="translate(-320.005 -132.306)" fill="#ba784a"/>
              <path id="Path_8165" data-name="Path 8165" d="M326.982,135.773c-4.359,1.015-5.586-.813-4.687-2.528-1.168,1.134-.864,2.463-.089,2.869C323.513,136.8,326.982,135.773,326.982,135.773Z" transform="translate(-320.137 -132.194)" fill="#ba784a"/>
              <path id="Path_8166" data-name="Path 8166" d="M326.085,134.278a2.811,2.811,0,0,1-1.786-1.517c-.226.163-.015.834-.015.834a2.555,2.555,0,0,1-.316-1.285.787.787,0,0,0-.35,1.221,1.046,1.046,0,0,1-.06-1.116s-.905,1.484-.155,2.106c1.062.876,3.3.141,3.587.034S326.085,134.278,326.085,134.278Z" transform="translate(-319.94 -132.31)" fill="#ba784a"/>
              <path id="Path_8167" data-name="Path 8167" d="M323.083,132.433a2.38,2.38,0,0,0,.828,2.3,2.181,2.181,0,0,1-1.156-1.307A3.787,3.787,0,0,1,323.083,132.433Z" transform="translate(-319.984 -132.295)" fill="#a0593a"/>
              <path id="Path_8168" data-name="Path 8168" d="M324,132.5a2.007,2.007,0,0,0,1.234,1.954c.315.082-.153.1-.279.054a1.336,1.336,0,0,1-1.057-1.469C323.908,132.536,324,132.5,324,132.5Z" transform="translate(-319.841 -132.287)" fill="#a0593a"/>
              <path id="Path_8169" data-name="Path 8169" d="M329.316,136.133a1.933,1.933,0,0,0-1.527-2.468.94.94,0,0,1,.771.789c.154.726.19.224.19.224s.093-.613-1.852-1.167c.886.486.385.48.715.93A21.331,21.331,0,0,0,329.316,136.133Z" transform="translate(-319.468 -132.16)" fill="#a0593a"/>
            </g>
            <path id="Path_8170" data-name="Path 8170" d="M326.118,139.658c.237-.849,1.41-.766,1.426.006s-.5,2.376-1.155,2.3S326.118,139.658,326.118,139.658Z" transform="translate(-319.579 -131.47)" fill="#cc9483"/>
          </g>
        </g>
        <path id="Path_8171" data-name="Path 8171" d="M336.652,148.466l-5.113-3.487a9,9,0,0,1-2.98,1.994c-.1-.363-5.526,1.656-3.718-1.021-.8.38-4.139,2.8-4.309,2.8-1,0-.751,3.7-1.059,4.964a30.9,30.9,0,0,1-2.665,9.7c-1.14,2.422.362,2.071.362,2.071a26.744,26.744,0,0,0,4.431.675c1.432-.054,3.181.183,3.418.17,1.584-.084,3.406,1.291,4.563,1.446,1.1.146,2.236,2.288,2.236,2.288,4.823-2.714-1.643-2.484,3.258-15.372C336.759,150.267,336.652,148.466,336.652,148.466Z" transform="translate(-293.778 -130.732)" fill="#4a75dd"/>
        <path id="Path_8172" data-name="Path 8172" d="M327.121,147.365l-1.942,1.131s-2.767,10.534-3.531,15.441a12.208,12.208,0,0,1-2.744,2.511l-.539-2.769s5.41-14.564,6.088-15.58c-.338-1.442.056-1.807.056-1.807s.713.773,2.107-.106C327.575,145.584,327.121,147.365,327.121,147.365Z" transform="translate(-293.531 -130.597)" fill="#fff" opacity="0.86"/>
        <path id="Path_8173" data-name="Path 8173" d="M325.2,146.409a14.878,14.878,0,0,0,4.877-2.959c.9,1.583,1.192,2.133,1.192,2.133l-4.494,3.718Z" transform="translate(-292.68 -130.923)" fill="#6597ef"/>
        <path id="Path_8174" data-name="Path 8174" d="M324.47,145.162a15.185,15.185,0,0,0-1.5,1.182l-.64,2.149,2.364-2.13a.918.918,0,0,1-.289-.753C324.452,145.144,324.47,145.162,324.47,145.162Z" transform="translate(-293.037 -130.709)" fill="#6597ef"/>
        <path id="Path_8175" data-name="Path 8175" d="M322.381,203.579c0-1.757.748-26.268,1.234-30.33h0a30.41,30.41,0,0,1,.966-6.066h0c.627-1.642,1.387-2.571,3.4-2.688h0q.484-.019,1.032-.019h0c3.464,0,8.478-.3,10.682.017h0l.213-1.665c-2.278-.319-7.29-.031-10.895-.031h0c-.38,0-.747.006-1.092.019h0a5.069,5.069,0,0,0-4.823,3.784h0a31.888,31.888,0,0,0-1.056,6.442h0c-.5,4.333-1.239,28.625-1.243,30.537h1.586Z" transform="translate(-293.229 -128.528)" fill="#b6c2d3"/>
        <path id="Path_8176" data-name="Path 8176" d="M334.535,159.073c-1.786.39-6.67,2.9-7.551,2.911a12.951,12.951,0,0,0-2.914.285,2.941,2.941,0,0,0-1.437,1.2c-.7.927-.752,1.436-.552,1.48.13.029.476-.43.742-.837a3.851,3.851,0,0,1,1-.83,3.69,3.69,0,0,0-.865.874c-.362.479-.757,1.393-.6,1.492.353.2.733-.887,1.13-1.218.445-.367,1.093-.833,1.093-.833s-1.924,2.015-1.654,2.154c.25.129.969-.694,1.317-.923.413-.27.859-.586.859-.586s-1.69,1.294-1.532,1.464c.26.267.957-.261,1.691-.641.579-.3,1.723-.147,2.663-.885,1.451-1.132,9.173-1.081,10.124-3.072C339.393,158.341,334.535,159.073,334.535,159.073Z" transform="translate(-293.081 -128.988)" fill="#cc9987"/>
        <g id="Group_4974" data-name="Group 4974" transform="translate(33.766 16.897)">
          <path id="Path_8177" data-name="Path 8177" d="M334.83,147.362c1.14.851,2.255,2.755,2.875,8.229.346,3.074,1.641,8.15.121,9.229s-6.637,1.864-7.387,1.188c-.679-.617-3.316.3-3.316.3l-.815-3.352,1.963-1.189s3.892-1.108,4.181-1.962c.277-.809-2.388-6.793-1.653-9.733A3.593,3.593,0,0,1,334.83,147.362Z" transform="translate(-326.308 -147.336)" fill="#6597ef"/>
        </g>
      </g>
      <path id="Path_8178" data-name="Path 8178" d="M318.753,166.335c-2.326-.29-6.4-.144-7.852,1.019a6.565,6.565,0,0,0-2.179,6.105c.436,2.617.873,5.67.873,5.67l.827,18.618s2.08.572,2.227-.009-1.309-23.842-1.309-26.168.436-3.2,1.744-3.78A46.3,46.3,0,0,1,318.753,166.335Z" transform="translate(-294.743 -128.089)" fill="#555d88"/>
    </g>
  </g>
</svg>
