<svg xmlns="http://www.w3.org/2000/svg" width="142.005" height="94.137" viewBox="0 0 142.005 94.137">
  <g id="Group_4378" data-name="Group 4378" transform="translate(-91.92 -59.6)">
    <g id="Group_4377" data-name="Group 4377" transform="translate(91.92 59.6)">
      <g id="Group_4301" data-name="Group 4301" transform="translate(6.311)">
        <path id="Path_7038" data-name="Path 7038" d="M522.829,243.492a.968.968,0,1,1-.967-.968A.968.968,0,0,1,522.829,243.492Zm-.48,0a.488.488,0,1,0-.488.488A.488.488,0,0,0,522.349,243.492Z" transform="translate(-419.609 -196.643)" fill="#91a8f6"/>
        <g id="Group_4293" data-name="Group 4293" transform="translate(110.95 11.423)">
          <path id="Path_7039" data-name="Path 7039" d="M576.369,105.148h-5.48a.24.24,0,0,0,0,.479h5.48a.24.24,0,1,0,0-.479Z" transform="translate(-567.835 -105.147)" fill="#91a8f6"/>
          <path id="Path_7040" data-name="Path 7040" d="M560.738,105.144h-1.07a.24.24,0,1,0,0,.48h1.07a.24.24,0,0,0,0-.48Z" transform="translate(-559.428 -105.144)" fill="#91a8f6"/>
          <path id="Path_7041" data-name="Path 7041" d="M565.389,112.044a.24.24,0,0,1-.24.24h-.685a.24.24,0,0,1,0-.48h.685A.24.24,0,0,1,565.389,112.044Zm-1.884,0a.24.24,0,0,1-.24.24h-1.2a.24.24,0,0,1,0-.48h1.2A.24.24,0,0,1,563.505,112.044Zm-2.4,0a.24.24,0,0,1-.24.24h-1.2a.24.24,0,0,1,0-.48h1.2A.24.24,0,0,1,561.108,112.044Z" transform="translate(-559.43 -110.134)" fill="#91a8f6"/>
        </g>
        <g id="Group_4294" data-name="Group 4294" transform="translate(29.157 25.74)">
          <path id="Path_7042" data-name="Path 7042" d="M238.285,169.04a.24.24,0,0,0-.24.24v.556a.24.24,0,0,0,.48,0v-.556A.24.24,0,0,0,238.285,169.04Z" transform="translate(-236.862 -167.33)" fill="#91a8f6"/>
          <path id="Path_7043" data-name="Path 7043" d="M234.123,166.816h-.556a.24.24,0,0,0,0,.48h.556a.24.24,0,0,0,0-.48Z" transform="translate(-233.327 -165.664)" fill="#91a8f6"/>
          <path id="Path_7044" data-name="Path 7044" d="M238.285,162.224a.24.24,0,0,0-.24.24v.556a.24.24,0,1,0,.48,0v-.556A.24.24,0,0,0,238.285,162.224Z" transform="translate(-236.862 -162.224)" fill="#91a8f6"/>
          <path id="Path_7045" data-name="Path 7045" d="M241.343,166.664h-.556a.24.24,0,0,0,0,.479h.556a.24.24,0,0,0,0-.479Z" transform="translate(-238.736 -165.55)" fill="#91a8f6"/>
        </g>
        <g id="Group_4295" data-name="Group 4295" transform="translate(89.454 10.198)">
          <path id="Path_7046" data-name="Path 7046" d="M478.686,107.076a.24.24,0,0,0-.24.24v.556a.24.24,0,1,0,.48,0v-.556A.24.24,0,0,0,478.686,107.076Z" transform="translate(-477.263 -105.366)" fill="#91a8f6"/>
          <path id="Path_7047" data-name="Path 7047" d="M474.524,104.852h-.556a.24.24,0,0,0,0,.479h.556a.24.24,0,0,0,0-.479Z" transform="translate(-473.728 -103.7)" fill="#91a8f6"/>
          <path id="Path_7048" data-name="Path 7048" d="M478.686,100.259a.24.24,0,0,0-.24.24v.556a.24.24,0,0,0,.48,0V100.5A.24.24,0,0,0,478.686,100.259Z" transform="translate(-477.263 -100.259)" fill="#91a8f6"/>
          <path id="Path_7049" data-name="Path 7049" d="M481.744,104.7h-.556a.24.24,0,0,0,0,.479h.556a.24.24,0,0,0,0-.479Z" transform="translate(-479.137 -103.586)" fill="#91a8f6"/>
        </g>
        <g id="Group_4296" data-name="Group 4296" transform="translate(59.994)">
          <path id="Path_7050" data-name="Path 7050" d="M373.213,59.6h-5.48a.24.24,0,0,0,0,.479h5.48a.24.24,0,1,0,0-.479Z" transform="translate(-364.679 -59.603)" fill="#91a8f6"/>
          <path id="Path_7051" data-name="Path 7051" d="M357.582,59.6h-1.071a.24.24,0,0,0,0,.479h1.071a.24.24,0,1,0,0-.479Z" transform="translate(-356.272 -59.6)" fill="#91a8f6"/>
          <path id="Path_7052" data-name="Path 7052" d="M362.232,66.5a.24.24,0,0,1-.24.24h-.685a.24.24,0,0,1,0-.479h.685A.24.24,0,0,1,362.232,66.5Zm-1.884,0a.24.24,0,0,1-.24.24h-1.2a.24.24,0,0,1,0-.479h1.2A.24.24,0,0,1,360.348,66.5Zm-2.4,0a.24.24,0,0,1-.24.24h-1.2a.24.24,0,1,1,0-.479h1.2A.24.24,0,0,1,357.951,66.5Z" transform="translate(-356.273 -64.59)" fill="#91a8f6"/>
        </g>
        <path id="Path_7053" data-name="Path 7053" d="M625.128,157.206a.847.847,0,1,0,.847-.847A.846.846,0,0,0,625.128,157.206Z" transform="translate(-497.699 -132.09)" fill="#91a8f6"/>
        <g id="Group_4297" data-name="Group 4297" transform="translate(13.404 66.112)">
          <path id="Path_7054" data-name="Path 7054" d="M181.986,323.661h5.48a.24.24,0,0,0,0-.479h-5.48a.24.24,0,1,0,0,.479Z" transform="translate(-178.931 -323.182)" fill="#91a8f6"/>
          <path id="Path_7055" data-name="Path 7055" d="M170.764,323.665h1.071a.24.24,0,0,0,0-.479h-1.071a.24.24,0,1,0,0,.479Z" transform="translate(-170.524 -323.185)" fill="#91a8f6"/>
        </g>
        <path id="Path_7056" data-name="Path 7056" d="M588.338,340.636s.327,2.335-2.4,2.281c0,0,2.343.024,2.281,2.215a2.658,2.658,0,0,1,2.361-2.109S588.763,343.44,588.338,340.636Z" transform="translate(-468.339 -270.146)" fill="#91a8f6"/>
        <path id="Path_7057" data-name="Path 7057" d="M640.257,209.323s.327,2.335-2.4,2.281c0,0,2.343.024,2.281,2.215a2.658,2.658,0,0,1,2.361-2.109S640.682,212.127,640.257,209.323Z" transform="translate(-507.236 -171.769)" fill="#91a8f6"/>
        <path id="Path_7058" data-name="Path 7058" d="M295.352,83.28s.327,2.335-2.4,2.281c0,0,2.343.024,2.281,2.215a2.658,2.658,0,0,1,2.361-2.109S295.777,86.084,295.352,83.28Z" transform="translate(-248.84 -77.341)" fill="#91a8f6"/>
        <path id="Path_7059" data-name="Path 7059" d="M201.74,108.99s.327,2.335-2.4,2.281c0,0,2.343.024,2.281,2.215a2.658,2.658,0,0,1,2.361-2.109S202.165,111.794,201.74,108.99Z" transform="translate(-178.708 -96.602)" fill="#91a8f6"/>
        <path id="Path_7060" data-name="Path 7060" d="M263.151,69.2s.114.814-.837.8c0,0,.817.008.795.772a.927.927,0,0,1,.823-.735S263.3,70.177,263.151,69.2Z" transform="translate(-225.887 -66.792)" fill="#91a8f6"/>
        <path id="Path_7061" data-name="Path 7061" d="M433.442,181.07s.114.814-.837.8c0,0,.817.008.795.772a.927.927,0,0,1,.823-.735S433.589,182.047,433.442,181.07Z" transform="translate(-353.465 -150.603)" fill="#91a8f6"/>
        <path id="Path_7062" data-name="Path 7062" d="M117.918,236.533s.114.814-.836.8c0,0,.817.008.795.772a.927.927,0,0,1,.823-.735S118.066,237.51,117.918,236.533Z" transform="translate(-117.082 -192.154)" fill="#91a8f6"/>
        <path id="Path_7063" data-name="Path 7063" d="M401.064,324.013s.114.814-.837.8c0,0,.817.008.795.772a.927.927,0,0,1,.823-.735S401.211,324.99,401.064,324.013Z" transform="translate(-329.208 -257.693)" fill="#91a8f6"/>
        <g id="Group_4298" data-name="Group 4298" transform="translate(32.984 48.857)">
          <path id="Path_7064" data-name="Path 7064" d="M255.139,258.733h-5.321a1.234,1.234,0,0,1-.04-2.468,1.91,1.91,0,0,1,3.51-1.011,1.385,1.385,0,0,1,1.539,1.01h.311a1.234,1.234,0,0,1,0,2.469Zm-5.321-2.1a.869.869,0,1,0,0,1.738h5.321a.869.869,0,0,0,0-1.738h-.614l-.024-.154a1.021,1.021,0,0,0-1.259-.841l-.134.032-.067-.121a1.545,1.545,0,0,0-2.9.751c0,.045,0,.09.007.134l.017.2Z" transform="translate(-248.584 -254.387)" fill="#91a8f6"/>
        </g>
        <g id="Group_4299" data-name="Group 4299" transform="translate(127.904 3.828)">
          <path id="Path_7065" data-name="Path 7065" d="M633.579,79.207h-5.321a1.234,1.234,0,0,1-.039-2.468,1.91,1.91,0,0,1,3.51-1.011,1.386,1.386,0,0,1,1.539,1.01h.311a1.234,1.234,0,0,1,0,2.469Zm-5.321-2.1a.869.869,0,0,0,0,1.738h5.321a.869.869,0,0,0,0-1.738h-.614l-.024-.154a1.022,1.022,0,0,0-1.259-.841l-.134.032-.068-.121a1.545,1.545,0,0,0-2.9.751c0,.045,0,.09.007.134l.017.2Z" transform="translate(-627.024 -74.861)" fill="#91a8f6"/>
        </g>
        <g id="Group_4300" data-name="Group 4300" transform="translate(45.518 17.413)">
          <path id="Path_7066" data-name="Path 7066" d="M305.113,133.368h-5.321a1.234,1.234,0,0,1-.039-2.468,1.91,1.91,0,0,1,3.51-1.011,1.386,1.386,0,0,1,1.539,1.01h.311a1.234,1.234,0,1,1,0,2.469Zm-5.321-2.1a.869.869,0,0,0,0,1.738h5.321a.869.869,0,0,0,0-1.738H304.5l-.024-.154a1.022,1.022,0,0,0-1.259-.841l-.134.032-.067-.121a1.545,1.545,0,0,0-2.9.751c0,.045,0,.09.007.134l.017.2Z" transform="translate(-298.558 -129.022)" fill="#91a8f6"/>
        </g>
      </g>
      <g id="Group_4332" data-name="Group 4332" transform="translate(44.61 41.805)">
        <g id="Group_4303" data-name="Group 4303" transform="translate(21.554 26.565)">
          <path id="Path_7067" data-name="Path 7067" d="M364.6,357.067h0a4.3,4.3,0,0,1-5.308-2.967l-3.412-12.059a4.3,4.3,0,0,1,2.967-5.309h0a4.3,4.3,0,0,1,5.309,2.967l3.412,12.059A4.3,4.3,0,0,1,364.6,357.067Z" transform="translate(-355.711 -335.47)" fill="#93c7ea"/>
          <path id="Path_7068" data-name="Path 7068" d="M367.866,369.148h0a4.3,4.3,0,0,1-.059-6.081l8.775-8.947a4.3,4.3,0,0,1,6.081-.059h0a4.3,4.3,0,0,1,.059,6.081l-8.775,8.947A4.3,4.3,0,0,1,367.866,369.148Z" transform="translate(-363.851 -347.652)" fill="#93c7ea"/>
          <g id="Group_4302" data-name="Group 4302" transform="translate(14.256)">
            <path id="Path_7069" data-name="Path 7069" d="M420.714,344.364a3.768,3.768,0,1,1-5.225-1.048A3.768,3.768,0,0,1,420.714,344.364Z" transform="translate(-413.493 -340.051)" fill="#ff8383"/>
            <path id="Path_7070" data-name="Path 7070" d="M414.108,345.894h0a.982.982,0,0,1-1.2-.706l-.334-1.3a.982.982,0,0,1,.706-1.2h0a.982.982,0,0,1,1.2.706l.334,1.3A.982.982,0,0,1,414.108,345.894Z" transform="translate(-412.547 -340.036)" fill="#ff8383"/>
            <path id="Path_7071" data-name="Path 7071" d="M423.975,333.578l-1.335,3.38a1.019,1.019,0,0,1-1.322.574h0a1.02,1.02,0,0,1-.574-1.323l1.335-3.38a1.019,1.019,0,0,1,1.322-.573h0A1.019,1.019,0,0,1,423.975,333.578Z" transform="translate(-418.634 -332.185)" fill="#ff8383"/>
            <path id="Path_7072" data-name="Path 7072" d="M432.63,336.17l-1.612,3.257a1.019,1.019,0,0,1-1.365.461h0a1.019,1.019,0,0,1-.461-1.366l1.612-3.257a1.02,1.02,0,0,1,1.366-.461h0A1.019,1.019,0,0,1,432.63,336.17Z" transform="translate(-424.937 -334.068)" fill="#ff8383"/>
            <path id="Path_7073" data-name="Path 7073" d="M438.038,342.865l-2.252,2.852a1.019,1.019,0,0,1-1.432.169h0a1.019,1.019,0,0,1-.168-1.432l2.251-2.852a1.02,1.02,0,0,1,1.432-.169h0A1.019,1.019,0,0,1,438.038,342.865Z" transform="translate(-428.595 -338.949)" fill="#ff8383"/>
          </g>
        </g>
        <g id="Group_4323" data-name="Group 4323" transform="translate(12.768 0)">
          <g id="Group_4304" data-name="Group 4304" transform="translate(5.12 13.652)">
            <path id="Rectangle_1826" data-name="Rectangle 1826" d="M0,0H5.024a0,0,0,0,1,0,0V7.044A2.512,2.512,0,0,1,2.512,9.556h0A2.512,2.512,0,0,1,0,7.044V0A0,0,0,0,1,0,0Z" transform="translate(0.376 0.273) rotate(2.253)" fill="#ff8383"/>
            <path id="Path_7074" data-name="Path 7074" d="M347.373,280.9l-5.02-.2-.078,1.972a3.3,3.3,0,0,0,3.425,3.487,3.46,3.46,0,0,0,1.483-.456Z" transform="translate(-341.978 -280.7)" fill="#d15e79"/>
          </g>
          <g id="Group_4322" data-name="Group 4322" transform="translate(0)">
            <ellipse id="Ellipse_154" data-name="Ellipse 154" cx="6.26" cy="4.821" rx="6.26" ry="4.821" transform="translate(0 5.715) rotate(-15.799)" fill="#1b2a67"/>
            <ellipse id="Ellipse_155" data-name="Ellipse 155" cx="5.562" cy="3.62" rx="5.562" ry="3.62" transform="translate(5.135 5.776) rotate(-9.641)" fill="#1b2a67"/>
            <ellipse id="Ellipse_156" data-name="Ellipse 156" cx="5.562" cy="3.62" rx="5.562" ry="3.62" transform="matrix(0.734, -0.679, 0.679, 0.734, 1.591, 7.55)" fill="#1b2a67"/>
            <path id="Path_7075" data-name="Path 7075" d="M348.072,257.077c.494,2.769-.955,5.344-3.237,5.751h0c-2.281.407-4.531-1.508-5.025-4.277l-.389-2.179c-.494-2.769.955-5.344,3.236-5.751h0c2.282-.407,4.532,1.508,5.026,4.277Z" transform="translate(-334.648 -244.473)" fill="#ff8383"/>
            <path id="Path_7076" data-name="Path 7076" d="M336.559,247.7c-1.262-1.142-3.458-.59-4.905,1.234s-1.6,4.228-.336,5.37,3.458.59,4.905-1.234S337.821,248.839,336.559,247.7Z" transform="translate(-328.009 -241.877)" fill="#1b2a67"/>
            <g id="Group_4321" data-name="Group 4321" transform="translate(1.671 10.032)">
              <g id="Group_4315" data-name="Group 4315" transform="translate(5.441 0.174)">
                <g id="Group_4308" data-name="Group 4308" transform="translate(2.042 1.112)">
                  <g id="Group_4305" data-name="Group 4305" transform="translate(0 0.001)">
                    <path id="Path_7077" data-name="Path 7077" d="M357.4,272.07a.229.229,0,0,1-.131-.417,1.485,1.485,0,0,1,1.53-.065.23.23,0,0,1-.231.4,1.018,1.018,0,0,0-1.038.045A.229.229,0,0,1,357.4,272.07Z" transform="translate(-357.174 -271.4)" fill="#86294e"/>
                  </g>
                  <g id="Group_4306" data-name="Group 4306" transform="translate(2.675)">
                    <path id="Path_7078" data-name="Path 7078" d="M369.352,272.067a.226.226,0,0,1-.13-.04h0a1.018,1.018,0,0,0-1.038-.045.23.23,0,0,1-.231-.4,1.476,1.476,0,0,1,1.53.065.229.229,0,0,1-.131.417Z" transform="translate(-367.84 -271.395)" fill="#86294e"/>
                  </g>
                  <g id="Group_4307" data-name="Group 4307" transform="translate(0.786 1.04)">
                    <path id="Path_7079" data-name="Path 7079" d="M360.787,275.79a.239.239,0,1,1-.23-.248A.239.239,0,0,1,360.787,275.79Z" transform="translate(-360.308 -275.541)" fill="#86294e"/>
                  </g>
                  <path id="Path_7080" data-name="Path 7080" d="M369.939,276.15a.239.239,0,1,1-.23-.248A.239.239,0,0,1,369.939,276.15Z" transform="translate(-366.379 -274.771)" fill="#86294e"/>
                </g>
                <g id="Group_4312" data-name="Group 4312">
                  <g id="Group_4309" data-name="Group 4309" transform="translate(4.276 0.391)">
                    <path id="Path_7081" data-name="Path 7081" d="M367.964,272.284l-.076,0a1.864,1.864,0,1,1,.076,0Zm0-3.447a1.564,1.564,0,0,0-.06,3.128,1.588,1.588,0,0,0,1.124-.415,1.564,1.564,0,0,0-1-2.712Z" transform="translate(-366.079 -268.519)" fill="#ffd2d4"/>
                  </g>
                  <g id="Group_4310" data-name="Group 4310">
                    <path id="Path_7082" data-name="Path 7082" d="M351.148,271.19l-.085,0a2.114,2.114,0,0,1-1.352-3.664,2.114,2.114,0,0,1,2.987.117,2.114,2.114,0,0,1-1.55,3.549Zm0-3.87a1.756,1.756,0,0,0-1.753,1.687h0a1.758,1.758,0,0,0,1.686,1.824,1.756,1.756,0,1,0,.138-3.51Z" transform="translate(-349.032 -266.962)" fill="#ffd2d4"/>
                  </g>
                  <g id="Group_4311" data-name="Group 4311" transform="translate(3.705 2.117)">
                    <path id="Path_7083" data-name="Path 7083" d="M363.963,275.729l.778.031a.164.164,0,0,0,.17-.157h0a.164.164,0,0,0-.157-.17l-.778-.031a.164.164,0,0,0-.17.157h0A.164.164,0,0,0,363.963,275.729Z" transform="translate(-363.806 -275.402)" fill="#ffd2d4"/>
                  </g>
                </g>
                <g id="Group_4313" data-name="Group 4313" transform="translate(4.082 3.109)">
                  <path id="Path_7084" data-name="Path 7084" d="M366.645,279.8a.742.742,0,0,1-.708.556c-.369.034-.65-.16-.628-.433a.742.742,0,0,1,.709-.556C366.386,279.329,366.667,279.523,366.645,279.8Z" transform="translate(-365.307 -279.359)" fill="#86294e"/>
                </g>
                <g id="Group_4314" data-name="Group 4314" transform="translate(2.916 4.747)">
                  <path id="Path_7085" data-name="Path 7085" d="M363,286.158a1.2,1.2,0,0,1-1.288,1.1,1.216,1.216,0,0,1-1.058-1.341A5.946,5.946,0,0,1,363,286.158Z" transform="translate(-360.657 -285.888)" fill="#86294e"/>
                  <path id="Path_7086" data-name="Path 7086" d="M362.559,286.552c-.543-.063-.878-.249-.91-.657a5.914,5.914,0,0,1,1.981.22C363.537,286.483,363.091,286.613,362.559,286.552Z" transform="translate(-361.4 -285.886)" fill="#ffd2d4"/>
                </g>
              </g>
              <g id="Group_4320" data-name="Group 4320" transform="translate(0 0)">
                <g id="Group_4318" data-name="Group 4318" transform="translate(4.19 4.927)">
                  <g id="Group_4316" data-name="Group 4316">
                    <path id="Path_7087" data-name="Path 7087" d="M347.767,287.527h-1.35a2.191,2.191,0,0,1-1.472-.566l-.844-.762a.164.164,0,0,1,.219-.243l.845.762a1.865,1.865,0,0,0,1.252.482h1.35a.164.164,0,0,1,0,.328Z" transform="translate(-344.047 -285.912)" fill="#201028"/>
                  </g>
                  <g id="Group_4317" data-name="Group 4317" transform="translate(2.845 1.123)">
                    <path id="Path_7088" data-name="Path 7088" d="M356.265,291.045h-.548a.328.328,0,0,1,0-.655h.548a.328.328,0,0,1,0,.655Z" transform="translate(-355.39 -290.389)" fill="#ffd2d4"/>
                  </g>
                </g>
                <g id="Group_4319" data-name="Group 4319">
                  <circle id="Ellipse_157" data-name="Ellipse 157" cx="2.744" cy="2.744" r="2.744" transform="matrix(0.341, -0.94, 0.94, 0.341, 0, 5.16)" fill="#445eea"/>
                  <ellipse id="Ellipse_158" data-name="Ellipse 158" cx="2.342" cy="2.142" rx="2.342" ry="2.142" transform="matrix(0.039, -0.999, 0.999, 0.039, 0.881, 5.755)" fill="#91a8f6"/>
                  <path id="Path_7089" data-name="Path 7089" d="M336.688,277.348a.76.76,0,1,1-.7-.977A.863.863,0,0,1,336.688,277.348Z" transform="translate(-333.241 -273.836)" fill="#e0eef7"/>
                </g>
              </g>
            </g>
          </g>
        </g>
        <g id="Group_4324" data-name="Group 4324" transform="translate(7.647 19.071)">
          <path id="Path_7090" data-name="Path 7090" d="M317.2,339.448l-13.125.37a3.965,3.965,0,0,1-3.806-4.118l.829-21.965a2.73,2.73,0,0,1,1.9-2.494l9.785-3.116,7.822,3.749a2.729,2.729,0,0,1,1.548,2.569l-.834,21.2A3.965,3.965,0,0,1,317.2,339.448Z" transform="translate(-300.266 -306.665)" fill="#93c7ea"/>
          <path id="Path_7091" data-name="Path 7091" d="M372.734,333.313c.045,2.291.019,4.578-.019,6.865s-.112,4.573-.193,6.858c-.1,2.285-.2,4.569-.345,6.852a6.1,6.1,0,0,1-.271,1.748,3.979,3.979,0,0,1-4.123,2.682,3.981,3.981,0,0,0,2.951-1.385,3.724,3.724,0,0,0,.778-1.424,5.678,5.678,0,0,0,.161-1.641c.03-2.287.112-4.573.194-6.858.1-2.285.2-4.569.346-6.852S372.51,335.593,372.734,333.313Z" transform="translate(-350.848 -325.535)" fill="#6eacce"/>
          <path id="Rectangle_1827" data-name="Rectangle 1827" d="M3.549,0h0A3.549,3.549,0,0,1,7.1,3.549v1.62a0,0,0,0,1,0,0H0a0,0,0,0,1,0,0V3.549A3.549,3.549,0,0,1,3.549,0Z" transform="translate(9.358 0) rotate(3.691)" fill="#93c7ea"/>
        </g>
        <g id="Group_4331" data-name="Group 4331" transform="translate(0 25.569)">
          <g id="Group_4325" data-name="Group 4325">
            <path id="Path_7092" data-name="Path 7092" d="M272.429,348.058h0a4.3,4.3,0,0,1-2.322-5.62l4.806-11.574a4.3,4.3,0,0,1,5.621-2.322h0a4.3,4.3,0,0,1,2.322,5.62l-4.807,11.574A4.3,4.3,0,0,1,272.429,348.058Z" transform="translate(-269.777 -328.212)" fill="#93c7ea"/>
            <path id="Path_7093" data-name="Path 7093" d="M305.244,329.528a4.227,4.227,0,0,1,1.987,1.4,4.442,4.442,0,0,1,.9,2.323,4.87,4.87,0,0,1-.466,2.464l-.908,2.233c-.623,1.481-1.248,2.962-1.919,4.423l-1.009,2.191c-.358.721-.7,1.451-1.073,2.164.24-.77.518-1.525.776-2.287l.84-2.261c.561-1.507,1.17-2.995,1.779-4.481l.941-2.22a6.269,6.269,0,0,0,.407-1.08,4.174,4.174,0,0,0,.13-1.118A4.368,4.368,0,0,0,305.244,329.528Z" transform="translate(-294.486 -329.198)" fill="#6eacce"/>
          </g>
          <g id="Group_4330" data-name="Group 4330" transform="translate(0.269 8.148)">
            <g id="Group_4328" data-name="Group 4328" transform="translate(18.812)">
              <g id="Group_4326" data-name="Group 4326" transform="translate(0 1.524)">
                <path id="Path_7094" data-name="Path 7094" d="M349.436,370.882l-2.19-.141a1.493,1.493,0,0,1-1.393-1.585l.064-.987a1.493,1.493,0,0,1,1.584-1.392l2.19.141Zm-2-3.125a.509.509,0,0,0-.54.475l-.064.987a.509.509,0,0,0,.475.54l1.209.078.129-2Z" transform="translate(-345.85 -366.774)" fill="#86294e"/>
              </g>
              <g id="Group_4327" data-name="Group 4327" transform="translate(1.868)">
                <path id="Path_7095" data-name="Path 7095" d="M357.146,369.481l-1.894-.122a2.087,2.087,0,0,1-1.948-2.217l.393-6.088c.044-.679,6.1-.288,6.059.391l-.393,6.088A2.087,2.087,0,0,1,357.146,369.481Z" transform="translate(-353.299 -360.699)" fill="#d15e79"/>
                <path id="Path_7096" data-name="Path 7096" d="M361.793,362.441c-.016.245-1.141.371-2.512.283s-2.471-.358-2.455-.6,1.141-.371,2.512-.283S361.809,362.2,361.793,362.441Z" transform="translate(-355.941 -361.531)" fill="#86294e"/>
              </g>
            </g>
            <path id="Path_7097" data-name="Path 7097" d="M270.848,379.28h0a4.3,4.3,0,0,1,4.368-4.232l12.53.2a4.3,4.3,0,0,1,4.232,4.368h0a4.3,4.3,0,0,1-4.368,4.232l-12.53-.2A4.3,4.3,0,0,1,270.848,379.28Z" transform="translate(-270.848 -371.449)" fill="#93c7ea"/>
            <path id="Path_7098" data-name="Path 7098" d="M288.263,374.468c1.609-.11,3.217-.148,4.825-.175s3.215-.018,4.822,0l2.41.055a4.882,4.882,0,0,1,2.446.553,4.45,4.45,0,0,1,1.771,1.755,4.23,4.23,0,0,1,.488,2.379,4.37,4.37,0,0,0-2.486-3.683,4.225,4.225,0,0,0-1.077-.326,6.3,6.3,0,0,0-1.153-.056l-2.411-.021c-1.607-.034-3.214-.067-4.82-.153S289.868,374.628,288.263,374.468Z" transform="translate(-283.895 -370.868)" fill="#6eacce"/>
            <g id="Group_4329" data-name="Group 4329" transform="translate(16.398 1.919)">
              <circle id="Ellipse_159" data-name="Ellipse 159" cx="3.768" cy="3.768" r="3.768" transform="translate(0 5.799) rotate(-50.316)" fill="#ff8383"/>
              <path id="Path_7099" data-name="Path 7099" d="M347.8,373.6h0a.9.9,0,0,1-.557-1.146l.4-1.161a.9.9,0,0,1,1.146-.557h0a.9.9,0,0,1,.557,1.146l-.4,1.161A.9.9,0,0,1,347.8,373.6Z" transform="translate(-344.44 -370.102)" fill="#ff8383"/>
              <path id="Path_7100" data-name="Path 7100" d="M365.31,378.655l-3.344.311a.942.942,0,0,1-1.025-.851h0a.942.942,0,0,1,.851-1.025l3.344-.311a.942.942,0,0,1,1.025.851h0A.942.942,0,0,1,365.31,378.655Z" transform="translate(-354.738 -374.663)" fill="#ff8383"/>
              <path id="Path_7101" data-name="Path 7101" d="M362.906,390.262l-3.351-.216a.942.942,0,0,1-.879-1h0a.942.942,0,0,1,1-.879l3.351.216a.942.942,0,0,1,.879,1h0A.942.942,0,0,1,362.906,390.262Z" transform="translate(-353.042 -383.195)" fill="#ff8383"/>
            </g>
          </g>
        </g>
      </g>
      <g id="Group_4342" data-name="Group 4342" transform="translate(62.994 64.689)">
        <g id="Group_4337" data-name="Group 4337" transform="translate(39.16)">
          <g id="Group_4333" data-name="Group 4333" transform="translate(2.671 3.856)">
            <path id="Path_7102" data-name="Path 7102" d="M510.243,337.421a.393.393,0,0,1-.278-.671L513.717,333a.393.393,0,0,1,.556.556l-3.752,3.752A.39.39,0,0,1,510.243,337.421Z" transform="translate(-509.85 -332.883)" fill="#445eea"/>
          </g>
          <g id="Group_4336" data-name="Group 4336">
            <g id="Group_4334" data-name="Group 4334">
              <path id="Path_7103" data-name="Path 7103" d="M499.592,323.6a.393.393,0,0,1-.393-.393V317.9a.393.393,0,1,1,.786,0v5.306A.393.393,0,0,1,499.592,323.6Z" transform="translate(-499.199 -317.509)" fill="#445eea"/>
            </g>
            <g id="Group_4335" data-name="Group 4335" transform="translate(4.973 10.28)">
              <path id="Path_7104" data-name="Path 7104" d="M524.727,359.281H519.42a.393.393,0,1,1,0-.786h5.307a.393.393,0,1,1,0,.786Z" transform="translate(-519.027 -358.495)" fill="#445eea"/>
            </g>
          </g>
        </g>
        <g id="Group_4341" data-name="Group 4341" transform="translate(0 10.046)">
          <g id="Group_4339" data-name="Group 4339">
            <path id="Path_7105" data-name="Path 7105" d="M348.95,422.535h32.466c.905,0,1.185-.734,1.185-1.64H347.31A1.64,1.64,0,0,0,348.95,422.535Z" transform="translate(-346.247 -405.009)" fill="#6eacce"/>
            <path id="Path_7106" data-name="Path 7106" d="M343.891,420.9H355.4a1.761,1.761,0,0,1-1.862,1.64h-9.695A.82.82,0,0,1,343.891,420.9Z" transform="translate(-343.07 -405.009)" fill="#6eacce"/>
            <g id="Group_4338" data-name="Group 4338" transform="translate(11.606)">
              <path id="Path_7107" data-name="Path 7107" d="M390.782,373.923h23.308a1.441,1.441,0,0,0,1.415-1.172l3.142-13.48a1.441,1.441,0,0,0-1.416-1.71H393.924a1.441,1.441,0,0,0-1.416,1.173l-3.141,13.48A1.441,1.441,0,0,0,390.782,373.923Z" transform="translate(-389.34 -357.56)" fill="#e0eef7"/>
              <path id="Path_7108" data-name="Path 7108" d="M392.507,359.545a.781.781,0,1,1,1.15.538l-3.141,13.48a.781.781,0,1,1-1.15-.538Z" transform="translate(-389.34 -358.372)" fill="#6eacce"/>
              <path id="Path_7109" data-name="Path 7109" d="M444.751,388.554h-3.822a1.42,1.42,0,0,1-1.42-1.42h0a1.42,1.42,0,0,1,1.42-1.42h3.822a1.42,1.42,0,0,1,1.42,1.42h0A1.42,1.42,0,0,1,444.751,388.554Z" transform="translate(-426.926 -378.652)" fill="#fff"/>
            </g>
          </g>
          <g id="Group_4340" data-name="Group 4340" transform="translate(2.739 15.519)">
            <path id="Path_7110" data-name="Path 7110" d="M355.546,420.25H354.4a.41.41,0,0,1-.41-.41h0a.41.41,0,0,1,.41-.41h1.147a.41.41,0,0,1,.41.41h0A.41.41,0,0,1,355.546,420.25Z" transform="translate(-353.99 -419.431)" fill="#6eacce"/>
            <path id="Path_7111" data-name="Path 7111" d="M364.472,420.25h-1.147a.41.41,0,0,1-.41-.41h0a.41.41,0,0,1,.41-.41h1.147a.41.41,0,0,1,.41.41h0A.41.41,0,0,1,364.472,420.25Z" transform="translate(-360.677 -419.431)" fill="#6eacce"/>
            <path id="Path_7112" data-name="Path 7112" d="M373.4,420.25h-1.147a.41.41,0,0,1-.41-.41h0a.41.41,0,0,1,.41-.41H373.4a.41.41,0,0,1,.41.41h0A.41.41,0,0,1,373.4,420.25Z" transform="translate(-367.364 -419.431)" fill="#6eacce"/>
            <path id="Path_7113" data-name="Path 7113" d="M382.324,420.25h-1.147a.41.41,0,0,1-.41-.41h0a.41.41,0,0,1,.41-.41h1.147a.41.41,0,0,1,.41.41h0A.41.41,0,0,1,382.324,420.25Z" transform="translate(-374.052 -419.431)" fill="#6eacce"/>
          </g>
        </g>
      </g>
      <path id="Path_7114" data-name="Path 7114" d="M261.423,429.044H163.352a.983.983,0,0,1-.983-.983h0a.983.983,0,0,1,.983-.983h98.071a.983.983,0,0,1,.983.983h0A.983.983,0,0,1,261.423,429.044Z" transform="translate(-144.699 -334.907)" fill="#1b2a67"/>
      <g id="Group_4349" data-name="Group 4349" transform="translate(27.673 75.541)">
        <g id="Group_4347" data-name="Group 4347">
          <path id="Path_7115" data-name="Path 7115" d="M218.757,382.8s-.722-5.423-2.029-6.756" transform="translate(-213.096 -372.217)" fill="none" stroke="#1b2a67" stroke-linecap="round" stroke-miterlimit="10" stroke-width="0.827"/>
          <g id="Group_4345" data-name="Group 4345" transform="translate(0.88)">
            <path id="Path_7116" data-name="Path 7116" d="M212.7,361.378c.349,1.156.278,2.2-.16,2.332s-1.075-.7-1.424-1.854l-.01-.035a.827.827,0,0,1,1.583-.478Z" transform="translate(-209.737 -360.774)" fill="#ffd2d4"/>
            <g id="Group_4343" data-name="Group 4343" transform="translate(0 1.556)">
              <path id="Path_7117" data-name="Path 7117" d="M218.832,368.61c-1.156.349-2.2.278-2.332-.159s.7-1.075,1.854-1.424l.035-.01a.827.827,0,0,1,.478,1.583Z" transform="translate(-213.795 -366.979)" fill="#ffd2d4"/>
              <path id="Path_7118" data-name="Path 7118" d="M206.841,372.853c1.156-.349,1.986-.987,1.853-1.424s-1.176-.509-2.332-.16l-.034.011a.827.827,0,0,0,.478,1.583Z" transform="translate(-205.759 -370.028)" fill="#ffd2d4"/>
            </g>
            <g id="Group_4344" data-name="Group 4344" transform="translate(1.394 3.173)">
              <path id="Path_7119" data-name="Path 7119" d="M212.949,376.492c.325-1.163.232-2.2-.208-2.328s-1.06.72-1.385,1.883l-.009.035a.827.827,0,0,0,1.592.445Z" transform="translate(-211.315 -373.97)" fill="#ffd2d4"/>
              <path id="Path_7120" data-name="Path 7120" d="M218.689,375.609c-.914-.788-1.414-1.708-1.116-2.054s1.281.013,2.2.8l.027.024a.827.827,0,0,1-1.08,1.252Z" transform="translate(-215.939 -373.424)" fill="#ffd2d4"/>
            </g>
            <path id="Path_7121" data-name="Path 7121" d="M215.8,371.883a.565.565,0,1,1-.7-.378A.565.565,0,0,1,215.8,371.883Z" transform="translate(-212.454 -368.796)" fill="#d15e79"/>
          </g>
          <g id="Group_4346" data-name="Group 4346" transform="translate(0 5.111)">
            <path id="Path_7122" data-name="Path 7122" d="M205.778,385.757c1.5,1.183,2.356,2.6,1.908,3.17s-2.027.069-3.529-1.114a6.026,6.026,0,0,1-1.909-3.17A6.029,6.029,0,0,1,205.778,385.757Z" transform="translate(-202.249 -383.767)" fill="#445eea"/>
            <path id="Path_7123" data-name="Path 7123" d="M225.2,384.933c-1.585,1.489-3.326,2.209-3.889,1.61s.265-2.292,1.85-3.781a6.856,6.856,0,0,1,3.889-1.61A6.855,6.855,0,0,1,225.2,384.933Z" transform="translate(-216.397 -381.152)" fill="#445eea"/>
          </g>
        </g>
        <g id="Group_4348" data-name="Group 4348" transform="translate(0.904 9.681)">
          <path id="Path_7124" data-name="Path 7124" d="M214.5,408.9h-5.186l-.908-6.524h7Z" transform="translate(-207.764 -401.62)" fill="#1b2a67"/>
          <rect id="Rectangle_1828" data-name="Rectangle 1828" width="8.281" height="2.426" rx="1.213" fill="#1b2a67"/>
        </g>
      </g>
      <g id="Group_4376" data-name="Group 4376" transform="translate(0 8.225)">
        <g id="Group_4353" data-name="Group 4353" transform="translate(0 4.934)">
          <g id="Group_4350" data-name="Group 4350" transform="translate(43.295 14.946)">
            <path id="Path_7125" data-name="Path 7125" d="M285.44,191.756l2.572,2.758,19.6-8.176Z" transform="translate(-280.196 -182.655)" fill="#445eea"/>
            <path id="Path_7126" data-name="Path 7126" d="M270.691,171.655l-1.936,2.921,1.309,2.862-2.936.5-2.595,5.7,28.047-8.487Z" transform="translate(-264.533 -171.655)" fill="#91a8f6"/>
            <path id="Path_7127" data-name="Path 7127" d="M282.676,186.162l-1.309-2.862,15.192.71Z" transform="translate(-277.145 -180.379)" fill="#445eea"/>
          </g>
          <g id="Group_4351" data-name="Group 4351" transform="translate(22.2 25.227)">
            <path id="Path_7128" data-name="Path 7128" d="M205.581,236.453q-.324,0-.648,0a.392.392,0,0,1-.389-.4.384.384,0,0,1,.4-.389c1.018.012,2.028,0,3.137-.051h.017a.393.393,0,0,1,.017.786C207.224,236.435,206.4,236.453,205.581,236.453Zm-3.8-.155h-.035c-1.083-.093-2.148-.232-3.166-.413a.393.393,0,0,1-.318-.456.4.4,0,0,1,.456-.318c.994.177,2.036.313,3.1.4a.393.393,0,0,1-.033.785Zm-6.2-1.134a.379.379,0,0,1-.115-.018,22.738,22.738,0,0,1-3-1.152.393.393,0,1,1,.334-.712,22.084,22.084,0,0,0,2.893,1.112.393.393,0,0,1-.115.769Zm-5.694-2.682a.392.392,0,0,1-.218-.066,20.845,20.845,0,0,1-2.53-1.987.393.393,0,1,1,.533-.578,20.078,20.078,0,0,0,2.433,1.911.393.393,0,0,1-.219.72Zm-4.633-4.257a.394.394,0,0,1-.308-.148,20.974,20.974,0,0,1-1.8-2.664.393.393,0,1,1,.683-.389,20.158,20.158,0,0,0,1.737,2.563.393.393,0,0,1-.308.638Zm-3.114-5.469a.394.394,0,0,1-.368-.255,19.3,19.3,0,0,1-.884-3.1.393.393,0,1,1,.772-.151,18.5,18.5,0,0,0,.848,2.972.394.394,0,0,1-.368.532Zm-1.254-6.169a.393.393,0,0,1-.392-.368c-.041-.642-.061-1.319-.061-2.009v-.159q0-.512.018-1.027a.393.393,0,0,1,.393-.38h.013a.393.393,0,0,1,.38.406q-.016.5-.019,1v.158c0,.674.021,1.334.06,1.959a.392.392,0,0,1-.367.417Z" transform="translate(-180.431 -212.643)" fill="#445eea"/>
          </g>
          <g id="Group_4352" data-name="Group 4352">
            <path id="Path_7129" data-name="Path 7129" d="M117.879,135q-.9,0-1.772-.022a.393.393,0,0,1,.01-.786h.01q1.522.038,3.141.008a.372.372,0,0,1,.4.385.392.392,0,0,1-.385.4Q118.573,135,117.879,135Zm4.553-.132a.393.393,0,0,1-.021-.785c1.017-.058,2.073-.134,3.139-.228a.393.393,0,1,1,.069.783c-1.075.095-2.139.172-3.164.229Zm-9.469-.05h-.031c-1.094-.085-2.159-.2-3.165-.346a.393.393,0,0,1-.333-.445.4.4,0,0,1,.445-.333c.989.141,2.037.256,3.115.339a.393.393,0,0,1-.03.785Zm15.762-.5a.393.393,0,0,1-.045-.783q1.532-.179,3.123-.406a.393.393,0,0,1,.111.778q-1.6.228-3.143.408A.354.354,0,0,1,128.726,134.318Zm-22.011-.4a.407.407,0,0,1-.087-.01c-.76-.171-1.5-.363-2.2-.571q-.447-.134-.88-.277a.393.393,0,0,1,.247-.746q.421.139.857.269c.684.2,1.407.391,2.149.558a.393.393,0,0,1-.085.777Zm-5.972-2.019a.391.391,0,0,1-.172-.04A19.129,19.129,0,0,1,97.8,130.22a.393.393,0,1,1,.457-.64,18.4,18.4,0,0,0,2.661,1.568.393.393,0,0,1-.171.747Zm13.534-.351a.393.393,0,0,1-.393-.393v-.139c0-.991-.04-2-.118-2.994a.393.393,0,0,1,.785-.061c.079,1.016.12,2.044.12,3.055v.139A.393.393,0,0,1,114.277,131.544ZM95.66,128.21a.393.393,0,0,1-.29-.128,13.681,13.681,0,0,1-1.89-2.636.393.393,0,1,1,.69-.379,12.877,12.877,0,0,0,1.781,2.485.393.393,0,0,1-.29.658Zm18.111-2.97a.393.393,0,0,1-.387-.326,26.782,26.782,0,0,0-.694-3.038.393.393,0,1,1,.754-.221,27.621,27.621,0,0,1,.716,3.126.394.394,0,0,1-.321.454A.407.407,0,0,1,113.771,125.239Zm-21.125-2.512a.393.393,0,0,1-.379-.288q-.073-.265-.137-.534a7.613,7.613,0,0,1-.21-1.743A6.7,6.7,0,0,1,92,119.154a.393.393,0,0,1,.777.118,5.96,5.96,0,0,0-.066.891,6.827,6.827,0,0,0,.189,1.562c.04.17.083.339.129.505a.393.393,0,0,1-.274.484A.4.4,0,0,1,92.646,122.728Zm19.3-3.526a.394.394,0,0,1-.355-.223,13.316,13.316,0,0,0-1.613-2.6.393.393,0,0,1,.613-.493,14.17,14.17,0,0,1,1.709,2.754.394.394,0,0,1-.354.564Zm-18.327-2.464a.389.389,0,0,1-.238-.08.393.393,0,0,1-.075-.551,8.91,8.91,0,0,1,2.462-2.175.393.393,0,0,1,.411.671,8.125,8.125,0,0,0-2.247,1.98A.392.392,0,0,1,93.622,116.738Zm14.35-2.338a.39.39,0,0,1-.215-.064A8.884,8.884,0,0,0,105,113.143a.393.393,0,0,1,.188-.764,9.683,9.683,0,0,1,3,1.3.393.393,0,0,1-.216.722Zm-9.108-1a.393.393,0,0,1-.111-.771,14.836,14.836,0,0,1,3.091-.559l.118,0a.419.419,0,0,1,.4.385.393.393,0,0,1-.385.4l-.086,0a13.993,13.993,0,0,0-2.916.527A.4.4,0,0,1,98.864,113.4Z" transform="translate(-91.92 -112.065)" fill="#445eea"/>
          </g>
        </g>
        <g id="Group_4363" data-name="Group 4363" transform="translate(79.269 8.944)">
          <g id="Group_4360" data-name="Group 4360" transform="translate(17.515)">
            <path id="Path_7130" data-name="Path 7130" d="M482.545,128.051h21.015a4.757,4.757,0,0,1,4.756,4.757v10.839a4.756,4.756,0,0,1-4.756,4.756H489.817l-4.943,4.361V148.4h-2.33a4.756,4.756,0,0,1-4.757-4.756V132.808A4.757,4.757,0,0,1,482.545,128.051Z" transform="translate(-477.788 -128.051)" fill="#ed1556"/>
            <g id="Group_4359" data-name="Group 4359" transform="translate(7.218 5.516)">
              <g id="Group_4354" data-name="Group 4354">
                <path id="Path_7131" data-name="Path 7131" d="M507.16,151.234h14.9a.6.6,0,0,0,0-1.193h-14.9a.6.6,0,0,0,0,1.193Z" transform="translate(-506.564 -150.041)" fill="#fc7ba1"/>
              </g>
              <g id="Group_4355" data-name="Group 4355" transform="translate(0 3.974)">
                <path id="Path_7132" data-name="Path 7132" d="M507.16,167.075h14.9a.6.6,0,1,0,0-1.192h-14.9a.6.6,0,0,0,0,1.192Z" transform="translate(-506.564 -165.883)" fill="#fc7ba1"/>
              </g>
              <g id="Group_4356" data-name="Group 4356" transform="translate(12.715 7.947)">
                <path id="Path_7133" data-name="Path 7133" d="M557.854,182.917h2.185a.6.6,0,0,0,0-1.193h-2.185a.6.6,0,0,0,0,1.193Z" transform="translate(-557.258 -181.724)" fill="#fc7ba1"/>
              </g>
              <g id="Group_4357" data-name="Group 4357" transform="translate(7.748 7.947)">
                <path id="Path_7134" data-name="Path 7134" d="M538.052,182.917h2.185a.6.6,0,0,0,0-1.193h-2.185a.6.6,0,0,0,0,1.193Z" transform="translate(-537.456 -181.724)" fill="#fc7ba1"/>
              </g>
              <g id="Group_4358" data-name="Group 4358" transform="translate(0 7.947)">
                <path id="Path_7135" data-name="Path 7135" d="M507.16,182.917h4.967a.6.6,0,0,0,0-1.193H507.16a.6.6,0,0,0,0,1.193Z" transform="translate(-506.564 -181.724)" fill="#fc7ba1"/>
              </g>
            </g>
          </g>
          <g id="Group_4362" data-name="Group 4362" transform="translate(0 21.646)">
            <path id="Path_7136" data-name="Path 7136" d="M427.572,214.35H411.486a2.864,2.864,0,0,0-2.865,2.864v9.276a2.863,2.863,0,0,0,2.655,2.854l-3.317,5.436,8.742-5.425h10.871a2.864,2.864,0,0,0,2.864-2.865v-9.276A2.864,2.864,0,0,0,427.572,214.35Z" transform="translate(-407.959 -214.35)" fill="#91a8f6"/>
            <g id="Group_4361" data-name="Group 4361" transform="translate(7.068 2.558)">
              <circle id="Ellipse_160" data-name="Ellipse 160" cx="1.905" cy="1.905" r="1.905" transform="translate(1.808 2.693) rotate(-45)" stroke-width="2.761" stroke="#445eea" stroke-linecap="round" stroke-linejoin="round" fill="#445eea"/>
              <path id="Path_7137" data-name="Path 7137" d="M445.143,252.209h-9a2.885,2.885,0,0,1,2.885-2.885h3.232a2.886,2.886,0,0,1,2.886,2.885Z" transform="translate(-436.14 -243.11)" fill="#445eea" stroke="#445eea" stroke-linecap="round" stroke-linejoin="round" stroke-width="2.761"/>
            </g>
          </g>
        </g>
        <g id="Group_4375" data-name="Group 4375" transform="translate(71.697)">
          <g id="Group_4366" data-name="Group 4366">
            <g id="Group_4364" data-name="Group 4364">
              <path id="Path_7138" data-name="Path 7138" d="M385.538,107.9a7.878,7.878,0,0,1-1.585-.161.394.394,0,0,1-.306-.465.4.4,0,0,1,.465-.306,7.115,7.115,0,0,0,2.468.068.393.393,0,0,1,.116.778A7.937,7.937,0,0,1,385.538,107.9Zm3.569-.918a.394.394,0,0,1-.191-.738,6.98,6.98,0,0,0,1.915-1.558.393.393,0,1,1,.595.513,7.79,7.79,0,0,1-2.129,1.733A.394.394,0,0,1,389.106,106.979Zm-7.493-.211a.389.389,0,0,1-.208-.06,7.794,7.794,0,0,1-2.03-1.848.393.393,0,0,1,.623-.48,7.02,7.02,0,0,0,1.825,1.662.393.393,0,0,1-.21.726Zm10.841-3.679a.394.394,0,0,1-.368-.53,6.956,6.956,0,0,0,.434-2.429.393.393,0,0,1,.786,0,7.737,7.737,0,0,1-.483,2.7A.394.394,0,0,1,392.454,103.089Zm-13.965-.39a.393.393,0,0,1-.376-.278,7.784,7.784,0,0,1-.343-2.291c0-.146,0-.291.012-.435a.4.4,0,0,1,.415-.37.393.393,0,0,1,.37.415c-.007.128-.011.259-.011.39a7.015,7.015,0,0,0,.309,2.06.393.393,0,0,1-.26.491A.38.38,0,0,1,378.489,102.7ZM392.7,98.744a.393.393,0,0,1-.382-.3,6.923,6.923,0,0,0-1.01-2.251.393.393,0,1,1,.649-.444,7.7,7.7,0,0,1,1.124,2.506.392.392,0,0,1-.287.476A.378.378,0,0,1,392.7,98.744Zm-13.921-1.17a.394.394,0,0,1-.36-.551,7.713,7.713,0,0,1,1.527-2.282.393.393,0,1,1,.566.545,6.952,6.952,0,0,0-1.372,2.052A.393.393,0,0,1,378.776,97.574ZM389.8,94.5a.389.389,0,0,1-.227-.072,6.917,6.917,0,0,0-2.232-1.049.393.393,0,1,1,.2-.76,7.7,7.7,0,0,1,2.485,1.168.393.393,0,0,1-.229.714Zm-7.466-.627a.393.393,0,0,1-.171-.747,7.711,7.711,0,0,1,2.645-.735.393.393,0,1,1,.073.783,6.941,6.941,0,0,0-2.377.66A.388.388,0,0,1,382.335,93.878Z" transform="translate(-377.77 -92.393)" fill="#445eea"/>
            </g>
            <g id="Group_4365" data-name="Group 4365" transform="translate(2.614 4.002)">
              <path id="Path_7139" data-name="Path 7139" d="M393.346,108.347c-2.846,0-5.153,1.525-5.153,3.407v.01c0,.491.39.828.752.673l1.353-.577a.812.812,0,0,0,.337-1.012l-.166-.454a20.413,20.413,0,0,0,5.737,0l-.168.582a.821.821,0,0,0,.313.933l1.338.73c.325.178.705-.061.78-.505a2.286,2.286,0,0,0,.032-.38C398.5,109.872,396.193,108.347,393.346,108.347Z" transform="translate(-388.193 -108.347)" fill="#445eea"/>
              <path id="Path_7140" data-name="Path 7140" d="M401.636,125.1h-7.143l1.058-3.316a1.5,1.5,0,0,1,1.429-1.044h2.169a1.5,1.5,0,0,1,1.429,1.044Z" transform="translate(-392.913 -117.632)" fill="#91a8f6"/>
            </g>
          </g>
          <g id="Group_4374" data-name="Group 4374" transform="translate(46.036 40.394)">
            <g id="Group_4367" data-name="Group 4367">
              <path id="Path_7141" data-name="Path 7141" d="M569.08,268.942a7.82,7.82,0,0,1-1.587-.162.394.394,0,0,1-.305-.465.4.4,0,0,1,.465-.305,7.069,7.069,0,0,0,2.468.068.393.393,0,0,1,.116.778A8,8,0,0,1,569.08,268.942Zm3.568-.918a.393.393,0,0,1-.191-.737,7,7,0,0,0,1.915-1.558.393.393,0,0,1,.6.513,7.779,7.779,0,0,1-2.129,1.732A.387.387,0,0,1,572.648,268.024Zm-7.492-.212a.391.391,0,0,1-.209-.06,7.8,7.8,0,0,1-2.029-1.848.393.393,0,0,1,.623-.48,7,7,0,0,0,1.824,1.662.393.393,0,0,1-.21.726ZM576,264.134a.4.4,0,0,1-.137-.025.393.393,0,0,1-.232-.506,6.955,6.955,0,0,0,.435-2.429.393.393,0,1,1,.786,0,7.734,7.734,0,0,1-.483,2.7A.393.393,0,0,1,576,264.134Zm-13.966-.392a.393.393,0,0,1-.375-.278,7.771,7.771,0,0,1-.343-2.29c0-.146,0-.29.012-.435a.412.412,0,0,1,.414-.37.393.393,0,0,1,.37.414c-.007.13-.011.26-.011.391a6.977,6.977,0,0,0,.309,2.059.393.393,0,0,1-.26.492A.387.387,0,0,1,562.03,263.743Zm14.209-3.953a.393.393,0,0,1-.382-.3,6.941,6.941,0,0,0-1.01-2.251.393.393,0,1,1,.649-.444,7.7,7.7,0,0,1,1.123,2.505.393.393,0,0,1-.287.476A.377.377,0,0,1,576.239,259.789Zm-13.921-1.17a.394.394,0,0,1-.36-.551,7.747,7.747,0,0,1,1.528-2.282.393.393,0,1,1,.566.545,6.97,6.97,0,0,0-1.372,2.052A.394.394,0,0,1,562.318,258.619Zm11.026-3.068a.389.389,0,0,1-.227-.072,6.9,6.9,0,0,0-2.232-1.05.393.393,0,1,1,.2-.76,7.714,7.714,0,0,1,2.485,1.169.393.393,0,0,1-.229.714Zm-7.466-.629a.393.393,0,0,1-.171-.747,7.709,7.709,0,0,1,2.646-.735.393.393,0,0,1,.073.783,6.92,6.92,0,0,0-2.377.659A.385.385,0,0,1,565.877,254.922Z" transform="translate(-561.311 -253.438)" fill="#445eea"/>
            </g>
            <g id="Group_4373" data-name="Group 4373" transform="translate(3.135 4.434)">
              <rect id="Rectangle_1829" data-name="Rectangle 1829" width="9.143" height="5.184" transform="translate(0 1.903)" fill="#91a8f6"/>
              <g id="Group_4372" data-name="Group 4372" transform="translate(1.673)">
                <g id="Group_4368" data-name="Group 4368">
                  <path id="Path_7142" data-name="Path 7142" d="M605.264,272.645v-.634a.845.845,0,0,1,.846-.846h0a.846.846,0,0,1,.846.846v1.052h-1.691" transform="translate(-599.047 -271.153)" fill="#445eea"/>
                  <path id="Path_7143" data-name="Path 7143" d="M586.712,271.962v5.388h-6.233v-5.388a.846.846,0,0,1,.845-.846h6.163l-.171.036A.846.846,0,0,0,586.712,271.962Z" transform="translate(-580.479 -271.116)" fill="#e0eef7"/>
                </g>
                <g id="Group_4371" data-name="Group 4371" transform="translate(0.388 0.869)">
                  <rect id="Rectangle_1830" data-name="Rectangle 1830" width="1.382" height="1.419" transform="translate(0 0.008)" fill="#445eea"/>
                  <g id="Group_4370" data-name="Group 4370">
                    <g id="Group_4369" data-name="Group 4369" transform="translate(1.806)">
                      <line id="Line_91" data-name="Line 91" x2="3.514" stroke-width="0.658" stroke="#445eea" stroke-linecap="round" stroke-linejoin="round" fill="none"/>
                      <line id="Line_92" data-name="Line 92" x2="3.514" transform="translate(0 0.478)" fill="none" stroke="#445eea" stroke-linecap="round" stroke-linejoin="round" stroke-width="0.658"/>
                      <line id="Line_93" data-name="Line 93" x2="3.514" transform="translate(0 0.956)" fill="none" stroke="#445eea" stroke-linecap="round" stroke-linejoin="round" stroke-width="0.658"/>
                      <line id="Line_94" data-name="Line 94" x2="3.514" transform="translate(0.033 1.433)" fill="none" stroke="#445eea" stroke-linecap="round" stroke-linejoin="round" stroke-width="0.658"/>
                    </g>
                    <line id="Line_95" data-name="Line 95" x2="5.319" transform="translate(0 1.905)" fill="none" stroke="#445eea" stroke-linecap="round" stroke-linejoin="round" stroke-width="0.658"/>
                    <line id="Line_96" data-name="Line 96" x2="5.319" transform="translate(0 2.383)" fill="none" stroke="#445eea" stroke-linecap="round" stroke-linejoin="round" stroke-width="0.658"/>
                    <line id="Line_97" data-name="Line 97" x2="5.319" transform="translate(0 2.85)" fill="none" stroke="#445eea" stroke-linecap="round" stroke-linejoin="round" stroke-width="0.658"/>
                    <line id="Line_98" data-name="Line 98" x2="2.585" transform="translate(0 3.328)" fill="none" stroke="#445eea" stroke-linecap="round" stroke-linejoin="round" stroke-width="0.658"/>
                  </g>
                </g>
              </g>
              <path id="Path_7144" data-name="Path 7144" d="M580.707,283.889h-6.9V278.7Z" transform="translate(-573.811 -276.801)" fill="#445eea"/>
              <path id="Path_7145" data-name="Path 7145" d="M582.765,283.889h6.9V278.7Z" transform="translate(-580.519 -276.801)" fill="#445eea"/>
              <path id="Path_7146" data-name="Path 7146" d="M582.954,292.39h-9.143l4.106-2.193a.817.817,0,0,1,.931,0Z" transform="translate(-573.811 -285.302)" fill="#445eea"/>
            </g>
          </g>
        </g>
      </g>
    </g>
  </g>
</svg>
