<svg xmlns="http://www.w3.org/2000/svg" width="144.813" height="85.356" viewBox="0 0 144.813 85.356">
  <g id="Group_5566" data-name="Group 5566" transform="translate(-315.822 -1230.323)">
    <g id="Group_1179" data-name="Group 1179" transform="translate(448.102 1265.823) rotate(-90)">
      <g id="Group_1174" data-name="Group 1174" transform="translate(0 0)">
        <g id="Group_1168" data-name="Group 1168">
          <path id="Path_2811" data-name="Path 2811" d="M0,6.075V0L6.075,2.982Z" fill="#ffd300"/>
        </g>
        <g id="Group_1169" data-name="Group 1169" transform="translate(5.885)">
          <path id="Path_2812" data-name="Path 2812" d="M0,6.075V0L6.075,2.982Z" fill="#03297e"/>
        </g>
        <g id="Group_1170" data-name="Group 1170" transform="translate(11.77)">
          <path id="Path_2813" data-name="Path 2813" d="M0,6.075V0L6.075,2.982Z" fill="#ffd300"/>
        </g>
        <g id="Group_1171" data-name="Group 1171" transform="translate(17.655)">
          <path id="Path_2814" data-name="Path 2814" d="M0,6.075V0L6.075,2.982Z" transform="translate(0)" fill="#03297e"/>
        </g>
        <g id="Group_1172" data-name="Group 1172" transform="translate(23.54)">
          <path id="Path_2815" data-name="Path 2815" d="M0,6.075V0L6.075,2.982Z" fill="#03297e"/>
        </g>
        <g id="Group_1173" data-name="Group 1173" transform="translate(29.425)">
          <path id="Path_2816" data-name="Path 2816" d="M0,6.075V0L6.075,2.982Z" fill="#ffd300"/>
        </g>
      </g>
      <g id="Group_1175" data-name="Group 1175" transform="translate(0.058 6.459)">
        <path id="Path_2817" data-name="Path 2817" d="M0,6.075V0L6.075,2.982Z" fill="#ffd300"/>
      </g>
      <g id="Group_1176" data-name="Group 1176" transform="translate(5.943 6.459)">
        <path id="Path_2818" data-name="Path 2818" d="M0,6.075V0L6.075,2.982Z" fill="#03297e"/>
      </g>
      <g id="Group_1177" data-name="Group 1177" transform="translate(11.828 6.459)">
        <path id="Path_2819" data-name="Path 2819" d="M0,6.075V0L6.075,2.982Z" transform="translate(0)" fill="#ffd300"/>
      </g>
      <g id="Group_1178" data-name="Group 1178" transform="translate(17.713 6.459)">
        <path id="Path_2820" data-name="Path 2820" d="M0,6.075V0L6.075,2.982Z" fill="#ffd300"/>
      </g>
    </g>
    <path id="Path_4245" data-name="Path 4245" d="M90.533,263.242s1.4-56.9,71.622-56.9S232.964,263.5,232.964,263.5Z" transform="translate(225.289 1052.176)" fill="#ffdde7"/>
    <g id="Group_2808" data-name="Group 2808" transform="translate(406.639 1286.205)">
      <rect id="Rectangle_311" data-name="Rectangle 311" width="3.312" height="12.375" transform="translate(0 1.983) rotate(-35.541)" fill="#03297e"/>
      <rect id="Rectangle_312" data-name="Rectangle 312" width="3.312" height="14.476" transform="translate(14.212 13.806) rotate(-144.459)" fill="#03297e"/>
      <path id="Rectangle_313" data-name="Rectangle 313" d="M0,0H9.172a0,0,0,0,1,0,0V24.8a4.586,4.586,0,0,1-4.586,4.586h0A4.586,4.586,0,0,1,0,24.8V0A0,0,0,0,1,0,0Z" transform="translate(6.188 0.001)" fill="#03297e"/>
      <rect id="Rectangle_314" data-name="Rectangle 314" width="6.114" height="29.384" transform="translate(8.246 0.001)" fill="#0d31c0"/>
      <path id="Rectangle_315" data-name="Rectangle 315" d="M.764,0h0a.764.764,0,0,1,.764.764v16.3a.764.764,0,0,1-.764.764h0A.764.764,0,0,1,0,17.067V.764A.764.764,0,0,1,.764,0Z" transform="translate(12.236 5.535)" fill="#edf1ff"/>
    </g>
    <g id="Group_2820" data-name="Group 2820" transform="translate(346.911 1286.205)">
      <rect id="Rectangle_311-2" data-name="Rectangle 311" width="3.312" height="12.375" transform="translate(0 1.983) rotate(-35.541)" fill="#03297e"/>
      <rect id="Rectangle_312-2" data-name="Rectangle 312" width="3.312" height="14.476" transform="translate(14.212 13.806) rotate(-144.459)" fill="#03297e"/>
      <path id="Rectangle_313-2" data-name="Rectangle 313" d="M0,0H9.172a0,0,0,0,1,0,0V24.8a4.586,4.586,0,0,1-4.586,4.586h0A4.586,4.586,0,0,1,0,24.8V0A0,0,0,0,1,0,0Z" transform="translate(6.188 0.001)" fill="#03297e"/>
      <rect id="Rectangle_314-2" data-name="Rectangle 314" width="6.114" height="29.384" transform="translate(8.246 0.001)" fill="#0d31c0"/>
      <path id="Rectangle_315-2" data-name="Rectangle 315" d="M.764,0h0a.764.764,0,0,1,.764.764v16.3a.764.764,0,0,1-.764.764h0A.764.764,0,0,1,0,17.067V.764A.764.764,0,0,1,.764,0Z" transform="translate(12.237 5.535)" fill="#edf1ff"/>
    </g>
    <g id="Group_2813" data-name="Group 2813" transform="translate(330.492 1241.063)">
      <rect id="Rectangle_316" data-name="Rectangle 316" width="107.404" height="47.306" transform="translate(4.714 -0.001)" fill="#03297e"/>
      <rect id="Rectangle_317" data-name="Rectangle 317" width="110.978" height="3.046" transform="translate(1.14 49.993)" fill="#03297e"/>
      <rect id="Rectangle_318" data-name="Rectangle 318" width="2.389" height="53.04" transform="translate(0 -0.001)" fill="#03297e"/>
      <rect id="Rectangle_319" data-name="Rectangle 319" width="6.092" height="2.509" transform="translate(0 -0.001)" fill="#03297e"/>
      <rect id="Rectangle_320" data-name="Rectangle 320" width="6.092" height="2.509" transform="translate(109.609 53.04) rotate(-90)" fill="#03297e"/>
      <g id="Group_2809" data-name="Group 2809" transform="translate(1.669 1.011)">
        <path id="Path_4143" data-name="Path 4143" d="M1342.157,248.41l-.539.776-2.989-4.3.539-.777Z" transform="translate(-1338.629 -244.105)" fill="#03297e"/>
        <path id="Path_4144" data-name="Path 4144" d="M1342.182,312.877l-.535.771-2.989-4.3.535-.771Z" transform="translate(-1338.656 -304.443)" fill="#03297e"/>
        <path id="Path_4145" data-name="Path 4145" d="M1342.208,377.343l-.532.766-2.989-4.3.531-.766Z" transform="translate(-1338.684 -364.78)" fill="#03297e"/>
        <path id="Path_4146" data-name="Path 4146" d="M1342.234,441.81l-.528.76-2.989-4.3.528-.76Z" transform="translate(-1338.711 -425.117)" fill="#03297e"/>
        <path id="Path_4147" data-name="Path 4147" d="M1342.259,506.277l-.524.755-2.989-4.3.524-.755Z" transform="translate(-1338.739 -485.455)" fill="#03297e"/>
        <path id="Path_4148" data-name="Path 4148" d="M1342.285,570.744l-.52.749-2.989-4.3.52-.749Z" transform="translate(-1338.766 -545.792)" fill="#03297e"/>
        <path id="Path_4149" data-name="Path 4149" d="M1342.311,635.211l-.516.744-2.989-4.3.516-.744Z" transform="translate(-1338.794 -606.129)" fill="#03297e"/>
        <path id="Path_4150" data-name="Path 4150" d="M1342.336,699.677l-.513.738-2.989-4.3.513-.739Z" transform="translate(-1338.821 -666.466)" fill="#03297e"/>
        <path id="Path_4151" data-name="Path 4151" d="M1342.362,764.144l-.509.733-2.989-4.3.509-.733Z" transform="translate(-1338.849 -726.804)" fill="#03297e"/>
        <path id="Path_4152" data-name="Path 4152" d="M1342.387,828.611l-.505.728-2.989-4.3.505-.728Z" transform="translate(-1338.876 -787.141)" fill="#03297e"/>
        <path id="Path_4153" data-name="Path 4153" d="M1342.413,893.078l-.5.722-2.989-4.3.5-.722Z" transform="translate(-1338.904 -847.478)" fill="#03297e"/>
        <path id="Path_4154" data-name="Path 4154" d="M1342.439,957.544l-.5.717-2.989-4.3.5-.717Z" transform="translate(-1338.932 -907.815)" fill="#03297e"/>
      </g>
      <g id="Group_2810" data-name="Group 2810" transform="translate(1.669 1.011)">
        <path id="Path_4155" data-name="Path 4155" d="M1338.629,248.41l.539.776,2.989-4.3-.539-.777Z" transform="translate(-1338.629 -244.105)" fill="#03297e"/>
        <path id="Path_4156" data-name="Path 4156" d="M1338.658,312.877l.535.771,2.989-4.3-.535-.771Z" transform="translate(-1338.656 -304.443)" fill="#03297e"/>
        <path id="Path_4157" data-name="Path 4157" d="M1338.688,377.343l.531.766,2.989-4.3-.532-.766Z" transform="translate(-1338.684 -364.78)" fill="#03297e"/>
        <path id="Path_4158" data-name="Path 4158" d="M1338.717,441.81l.528.76,2.989-4.3-.528-.76Z" transform="translate(-1338.711 -425.117)" fill="#03297e"/>
        <path id="Path_4159" data-name="Path 4159" d="M1338.746,506.277l.524.755,2.989-4.3-.524-.755Z" transform="translate(-1338.739 -485.455)" fill="#03297e"/>
        <path id="Path_4160" data-name="Path 4160" d="M1338.775,570.744l.52.749,2.989-4.3-.52-.749Z" transform="translate(-1338.766 -545.792)" fill="#03297e"/>
        <path id="Path_4161" data-name="Path 4161" d="M1338.805,635.211l.516.744,2.989-4.3-.516-.744Z" transform="translate(-1338.794 -606.129)" fill="#03297e"/>
        <path id="Path_4162" data-name="Path 4162" d="M1338.834,699.677l.513.738,2.989-4.3-.513-.739Z" transform="translate(-1338.821 -666.466)" fill="#03297e"/>
        <path id="Path_4163" data-name="Path 4163" d="M1338.864,764.144l.509.733,2.989-4.3-.509-.733Z" transform="translate(-1338.849 -726.804)" fill="#03297e"/>
        <path id="Path_4164" data-name="Path 4164" d="M1338.893,828.611l.505.728,2.989-4.3-.505-.728Z" transform="translate(-1338.876 -787.141)" fill="#03297e"/>
        <path id="Path_4165" data-name="Path 4165" d="M1338.923,893.078l.5.722,2.989-4.3-.5-.722Z" transform="translate(-1338.904 -847.478)" fill="#03297e"/>
        <path id="Path_4166" data-name="Path 4166" d="M1338.952,957.544l.5.717,2.989-4.3-.5-.717Z" transform="translate(-1338.932 -907.815)" fill="#03297e"/>
      </g>
      <g id="Group_2811" data-name="Group 2811" transform="translate(1.69 46.436)">
        <path id="Path_4167" data-name="Path 4167" d="M1338.952,957.083l.5.64,2.989-3.844-.5-.64Z" transform="translate(-1338.952 -953.24)" fill="#03297e"/>
        <path id="Path_4168" data-name="Path 4168" d="M1392.012,957.083l.5.64,2.989-3.844-.5-.64Z" transform="translate(-1388.613 -953.24)" fill="#03297e"/>
        <path id="Path_4169" data-name="Path 4169" d="M1445.072,957.083l.5.64,2.989-3.844-.5-.64Z" transform="translate(-1438.274 -953.24)" fill="#03297e"/>
        <path id="Path_4170" data-name="Path 4170" d="M1498.132,957.083l.5.64,2.989-3.844-.5-.64Z" transform="translate(-1487.936 -953.24)" fill="#03297e"/>
        <path id="Path_4171" data-name="Path 4171" d="M1551.192,957.083l.5.64,2.989-3.844-.5-.64Z" transform="translate(-1537.597 -953.24)" fill="#03297e"/>
        <path id="Path_4172" data-name="Path 4172" d="M1604.252,957.083l.5.64,2.989-3.844-.5-.64Z" transform="translate(-1587.258 -953.24)" fill="#03297e"/>
        <path id="Path_4173" data-name="Path 4173" d="M1657.312,957.083l.5.64,2.989-3.844-.5-.64Z" transform="translate(-1636.919 -953.24)" fill="#03297e"/>
        <path id="Path_4174" data-name="Path 4174" d="M1710.372,957.083l.5.64,2.989-3.844-.5-.64Z" transform="translate(-1686.58 -953.24)" fill="#03297e"/>
        <path id="Path_4175" data-name="Path 4175" d="M1763.432,957.083l.5.64,2.989-3.844-.5-.64Z" transform="translate(-1736.241 -953.24)" fill="#03297e"/>
        <path id="Path_4176" data-name="Path 4176" d="M1816.491,957.083l.5.64,2.989-3.844-.5-.64Z" transform="translate(-1785.902 -953.24)" fill="#03297e"/>
        <path id="Path_4177" data-name="Path 4177" d="M1869.551,957.083l.5.64,2.989-3.844-.5-.64Z" transform="translate(-1835.563 -953.24)" fill="#03297e"/>
        <path id="Path_4178" data-name="Path 4178" d="M1922.611,957.083l.5.64,2.989-3.844-.5-.64Z" transform="translate(-1885.224 -953.24)" fill="#03297e"/>
        <path id="Path_4179" data-name="Path 4179" d="M1975.671,957.083l.5.64,2.989-3.844-.5-.64Z" transform="translate(-1934.885 -953.24)" fill="#03297e"/>
        <path id="Path_4180" data-name="Path 4180" d="M2028.731,957.083l.5.64,2.989-3.844-.5-.64Z" transform="translate(-1984.547 -953.24)" fill="#03297e"/>
        <path id="Path_4181" data-name="Path 4181" d="M2081.791,957.083l.5.64,2.989-3.844-.5-.64Z" transform="translate(-2034.208 -953.24)" fill="#03297e"/>
        <path id="Path_4182" data-name="Path 4182" d="M2134.851,957.083l.5.64,2.989-3.844-.5-.64Z" transform="translate(-2083.869 -953.24)" fill="#03297e"/>
        <path id="Path_4183" data-name="Path 4183" d="M2187.911,957.083l.5.64,2.989-3.844-.5-.64Z" transform="translate(-2133.53 -953.24)" fill="#03297e"/>
        <path id="Path_4184" data-name="Path 4184" d="M2240.971,957.083l.5.64,2.989-3.844-.5-.64Z" transform="translate(-2183.191 -953.24)" fill="#03297e"/>
        <path id="Path_4185" data-name="Path 4185" d="M2294.031,957.083l.5.64,2.989-3.844-.5-.64Z" transform="translate(-2232.852 -953.24)" fill="#03297e"/>
        <path id="Path_4186" data-name="Path 4186" d="M2347.091,957.083l.5.64,2.989-3.844-.5-.64Z" transform="translate(-2282.513 -953.24)" fill="#03297e"/>
        <path id="Path_4187" data-name="Path 4187" d="M2400.15,957.083l.5.64,2.989-3.844-.5-.64Z" transform="translate(-2332.174 -953.24)" fill="#03297e"/>
        <path id="Path_4188" data-name="Path 4188" d="M2453.21,957.083l.5.64,2.989-3.844-.5-.64Z" transform="translate(-2381.835 -953.24)" fill="#03297e"/>
        <path id="Path_4189" data-name="Path 4189" d="M2506.27,957.083l.5.64,2.989-3.844-.5-.64Z" transform="translate(-2431.496 -953.24)" fill="#03297e"/>
        <path id="Path_4190" data-name="Path 4190" d="M2559.33,957.083l.5.64,2.989-3.844-.5-.64Z" transform="translate(-2481.157 -953.24)" fill="#03297e"/>
        <path id="Path_4191" data-name="Path 4191" d="M2612.39,957.083l.5.64,2.989-3.844-.5-.64Z" transform="translate(-2530.819 -953.24)" fill="#03297e"/>
        <path id="Path_4192" data-name="Path 4192" d="M2665.45,957.083l.5.64,2.989-3.844-.5-.64Z" transform="translate(-2580.479 -953.24)" fill="#03297e"/>
        <path id="Path_4193" data-name="Path 4193" d="M2718.51,957.083l.5.64L2722,953.88l-.5-.64Z" transform="translate(-2630.14 -953.24)" fill="#03297e"/>
        <path id="Path_4194" data-name="Path 4194" d="M2771.57,957.083l.5.64,2.989-3.844-.5-.64Z" transform="translate(-2679.802 -953.24)" fill="#03297e"/>
        <path id="Path_4195" data-name="Path 4195" d="M2824.63,957.083l.5.64,2.989-3.844-.5-.64Z" transform="translate(-2729.463 -953.24)" fill="#03297e"/>
        <path id="Path_4196" data-name="Path 4196" d="M2877.69,957.083l.5.64,2.989-3.844-.5-.64Z" transform="translate(-2779.124 -953.24)" fill="#03297e"/>
        <path id="Path_4197" data-name="Path 4197" d="M2930.75,957.083l.5.64,2.989-3.844-.5-.64Z" transform="translate(-2828.785 -953.24)" fill="#03297e"/>
        <path id="Path_4198" data-name="Path 4198" d="M2983.809,957.083l.5.64,2.989-3.844-.5-.64Z" transform="translate(-2878.446 -953.24)" fill="#03297e"/>
      </g>
      <g id="Group_2812" data-name="Group 2812" transform="translate(1.69 46.436)">
        <path id="Path_4199" data-name="Path 4199" d="M2987.3,957.083l-.5.64-2.989-3.844.5-.64Z" transform="translate(-2878.446 -953.24)" fill="#03297e"/>
        <path id="Path_4200" data-name="Path 4200" d="M2934.236,957.083l-.5.64-2.989-3.844.5-.64Z" transform="translate(-2828.785 -953.24)" fill="#03297e"/>
        <path id="Path_4201" data-name="Path 4201" d="M2881.177,957.083l-.5.64-2.989-3.844.5-.64Z" transform="translate(-2779.124 -953.24)" fill="#03297e"/>
        <path id="Path_4202" data-name="Path 4202" d="M2828.116,957.083l-.5.64-2.989-3.844.5-.64Z" transform="translate(-2729.463 -953.24)" fill="#03297e"/>
        <path id="Path_4203" data-name="Path 4203" d="M2775.057,957.083l-.5.64-2.989-3.844.5-.64Z" transform="translate(-2679.802 -953.24)" fill="#03297e"/>
        <path id="Path_4204" data-name="Path 4204" d="M2722,957.083l-.5.64-2.989-3.844.5-.64Z" transform="translate(-2630.14 -953.24)" fill="#03297e"/>
        <path id="Path_4205" data-name="Path 4205" d="M2668.937,957.083l-.5.64-2.989-3.844.5-.64Z" transform="translate(-2580.479 -953.24)" fill="#03297e"/>
        <path id="Path_4206" data-name="Path 4206" d="M2615.877,957.083l-.5.64-2.989-3.844.5-.64Z" transform="translate(-2530.819 -953.24)" fill="#03297e"/>
        <path id="Path_4207" data-name="Path 4207" d="M2562.817,957.083l-.5.64-2.989-3.844.5-.64Z" transform="translate(-2481.157 -953.24)" fill="#03297e"/>
        <path id="Path_4208" data-name="Path 4208" d="M2509.757,957.083l-.5.64-2.989-3.844.5-.64Z" transform="translate(-2431.496 -953.24)" fill="#03297e"/>
        <path id="Path_4209" data-name="Path 4209" d="M2456.7,957.083l-.5.64-2.989-3.844.5-.64Z" transform="translate(-2381.835 -953.24)" fill="#03297e"/>
        <path id="Path_4210" data-name="Path 4210" d="M2403.637,957.083l-.5.64-2.989-3.844.5-.64Z" transform="translate(-2332.174 -953.24)" fill="#03297e"/>
        <path id="Path_4211" data-name="Path 4211" d="M2350.577,957.083l-.5.64-2.989-3.844.5-.64Z" transform="translate(-2282.513 -953.24)" fill="#03297e"/>
        <path id="Path_4212" data-name="Path 4212" d="M2297.517,957.083l-.5.64-2.989-3.844.5-.64Z" transform="translate(-2232.852 -953.24)" fill="#03297e"/>
        <path id="Path_4213" data-name="Path 4213" d="M2244.457,957.083l-.5.64-2.989-3.844.5-.64Z" transform="translate(-2183.191 -953.24)" fill="#03297e"/>
        <path id="Path_4214" data-name="Path 4214" d="M2191.4,957.083l-.5.64-2.989-3.844.5-.64Z" transform="translate(-2133.53 -953.24)" fill="#03297e"/>
        <path id="Path_4215" data-name="Path 4215" d="M2138.338,957.083l-.5.64-2.989-3.844.5-.64Z" transform="translate(-2083.869 -953.24)" fill="#03297e"/>
        <path id="Path_4216" data-name="Path 4216" d="M2085.277,957.083l-.5.64-2.989-3.844.5-.64Z" transform="translate(-2034.208 -953.24)" fill="#03297e"/>
        <path id="Path_4217" data-name="Path 4217" d="M2032.218,957.083l-.5.64-2.989-3.844.5-.64Z" transform="translate(-1984.547 -953.24)" fill="#03297e"/>
        <path id="Path_4218" data-name="Path 4218" d="M1979.157,957.083l-.5.64-2.989-3.844.5-.64Z" transform="translate(-1934.885 -953.24)" fill="#03297e"/>
        <path id="Path_4219" data-name="Path 4219" d="M1926.1,957.083l-.5.64-2.989-3.844.5-.64Z" transform="translate(-1885.224 -953.24)" fill="#03297e"/>
        <path id="Path_4220" data-name="Path 4220" d="M1873.038,957.083l-.5.64-2.989-3.844.5-.64Z" transform="translate(-1835.563 -953.24)" fill="#03297e"/>
        <path id="Path_4221" data-name="Path 4221" d="M1819.978,957.083l-.5.64-2.989-3.844.5-.64Z" transform="translate(-1785.902 -953.24)" fill="#03297e"/>
        <path id="Path_4222" data-name="Path 4222" d="M1766.918,957.083l-.5.64-2.989-3.844.5-.64Z" transform="translate(-1736.241 -953.24)" fill="#03297e"/>
        <path id="Path_4223" data-name="Path 4223" d="M1713.858,957.083l-.5.64-2.989-3.844.5-.64Z" transform="translate(-1686.58 -953.24)" fill="#03297e"/>
        <path id="Path_4224" data-name="Path 4224" d="M1660.8,957.083l-.5.64-2.989-3.844.5-.64Z" transform="translate(-1636.919 -953.24)" fill="#03297e"/>
        <path id="Path_4225" data-name="Path 4225" d="M1607.738,957.083l-.5.64-2.989-3.844.5-.64Z" transform="translate(-1587.258 -953.24)" fill="#03297e"/>
        <path id="Path_4226" data-name="Path 4226" d="M1554.678,957.083l-.5.64-2.989-3.844.5-.64Z" transform="translate(-1537.597 -953.24)" fill="#03297e"/>
        <path id="Path_4227" data-name="Path 4227" d="M1501.619,957.083l-.5.64-2.989-3.844.5-.64Z" transform="translate(-1487.936 -953.24)" fill="#03297e"/>
        <path id="Path_4228" data-name="Path 4228" d="M1448.558,957.083l-.5.64-2.989-3.844.5-.64Z" transform="translate(-1438.274 -953.24)" fill="#03297e"/>
        <path id="Path_4229" data-name="Path 4229" d="M1395.5,957.083l-.5.64-2.989-3.844.5-.64Z" transform="translate(-1388.613 -953.24)" fill="#03297e"/>
        <path id="Path_4230" data-name="Path 4230" d="M1342.439,957.083l-.5.64-2.989-3.844.5-.64Z" transform="translate(-1338.952 -953.24)" fill="#03297e"/>
      </g>
      <rect id="Rectangle_321" data-name="Rectangle 321" width="5.017" height="5.465" transform="translate(1.381 46.355)" fill="#03297e"/>
    </g>
    <rect id="Rectangle_322" data-name="Rectangle 322" width="103.93" height="45.776" transform="translate(336.943 1241.826)" fill="#fff"/>
    <g id="Group_2814" data-name="Group 2814" transform="translate(341.882 1237.869)">
      <path id="Path_4231" data-name="Path 4231" d="M1490.378,183.537l.8.421,4.48-2.748-.189-.926Z" transform="translate(-1490.378 -180.169)" fill="#03297e"/>
      <path id="Path_4232" data-name="Path 4232" d="M1565.42,180.794l-4.267-.534a.719.719,0,0,1-.622-.8l.044-.356a.719.719,0,0,1,.8-.622l4.267.534a.719.719,0,0,1,.622.8l-.045.356A.719.719,0,0,1,1565.42,180.794Z" transform="translate(-1556.032 -178.476)" fill="#03297e"/>
    </g>
    <g id="Group_2815" data-name="Group 2815" transform="translate(359.441 1237.869)">
      <path id="Path_4233" data-name="Path 4233" d="M1764.52,183.537l.8.421,4.48-2.748-.189-.926Z" transform="translate(-1764.52 -180.169)" fill="#03297e"/>
      <path id="Path_4234" data-name="Path 4234" d="M1839.564,180.794l-4.267-.534a.719.719,0,0,1-.622-.8l.044-.356a.719.719,0,0,1,.8-.622l4.267.534a.719.719,0,0,1,.622.8l-.045.356A.719.719,0,0,1,1839.564,180.794Z" transform="translate(-1830.175 -178.476)" fill="#03297e"/>
    </g>
    <g id="Group_2816" data-name="Group 2816" transform="translate(377.601 1237.869)">
      <path id="Path_4235" data-name="Path 4235" d="M2047.988,183.537l.8.421,4.48-2.748-.189-.926Z" transform="translate(-2047.988 -180.169)" fill="#03297e"/>
      <path id="Path_4236" data-name="Path 4236" d="M2123.031,180.794l-4.267-.534a.719.719,0,0,1-.622-.8l.044-.356a.719.719,0,0,1,.8-.622l4.267.534a.719.719,0,0,1,.622.8l-.044.356A.719.719,0,0,1,2123.031,180.794Z" transform="translate(-2113.643 -178.476)" fill="#03297e"/>
    </g>
    <g id="Group_2817" data-name="Group 2817" transform="translate(395.16 1237.869)">
      <path id="Path_4237" data-name="Path 4237" d="M2322.131,183.537l.8.421,4.48-2.748-.189-.926Z" transform="translate(-2322.131 -180.169)" fill="#03297e"/>
      <path id="Path_4238" data-name="Path 4238" d="M2397.175,180.794l-4.267-.534a.719.719,0,0,1-.622-.8l.044-.356a.719.719,0,0,1,.8-.622l4.267.534a.719.719,0,0,1,.622.8l-.045.356A.719.719,0,0,1,2397.175,180.794Z" transform="translate(-2387.786 -178.476)" fill="#03297e"/>
    </g>
    <g id="Group_2818" data-name="Group 2818" transform="translate(415.827 1237.869)">
      <path id="Path_4239" data-name="Path 4239" d="M2644.761,183.537l.8.421,4.479-2.748-.189-.926Z" transform="translate(-2644.762 -180.169)" fill="#03297e"/>
      <path id="Path_4240" data-name="Path 4240" d="M2719.805,180.794l-4.267-.534a.719.719,0,0,1-.622-.8l.044-.356a.719.719,0,0,1,.8-.622l4.267.534a.719.719,0,0,1,.622.8l-.044.356A.719.719,0,0,1,2719.805,180.794Z" transform="translate(-2710.417 -178.476)" fill="#03297e"/>
    </g>
    <g id="Group_2819" data-name="Group 2819" transform="translate(433.388 1237.869)">
      <path id="Path_4241" data-name="Path 4241" d="M2918.9,183.537l.8.421,4.48-2.748-.189-.926Z" transform="translate(-2918.904 -180.169)" fill="#03297e"/>
      <path id="Path_4242" data-name="Path 4242" d="M2993.947,180.794l-4.267-.534a.719.719,0,0,1-.622-.8l.045-.356a.719.719,0,0,1,.8-.622l4.267.534a.719.719,0,0,1,.622.8l-.044.356A.719.719,0,0,1,2993.947,180.794Z" transform="translate(-2984.559 -178.476)" fill="#03297e"/>
    </g>
    <rect id="Rectangle_294" data-name="Rectangle 294" width="39" height="24" rx="9" transform="translate(402 1252)" fill="#fff"/>
    <g id="Group_2682" data-name="Group 2682" transform="translate(341.27 1247.621)">
      <path id="Path_2801" data-name="Path 2801" d="M596.336,1740.47h-.643a3.467,3.467,0,0,1-3.467-3.467h0a3.467,3.467,0,0,1,3.467-3.467h.643A3.467,3.467,0,0,1,599.8,1737h0A3.467,3.467,0,0,1,596.336,1740.47Z" transform="translate(-524.5 -1719.55)" fill="#edf1ff"/>
      <g id="Group_1160" data-name="Group 1160" transform="translate(0 0)">
        <path id="Path_2802" data-name="Path 2802" d="M337.149,1655.292h-66.1a3.467,3.467,0,0,0-3.467,3.467h0a3.467,3.467,0,0,0,3.467,3.467h66.1a3.467,3.467,0,0,0,3.467-3.467h0A3.467,3.467,0,0,0,337.149,1655.292Z" transform="translate(-257.886 -1655.292)" fill="#edf1ff"/>
        <path id="Path_2803" data-name="Path 2803" d="M278.5,1704.492h0a3.467,3.467,0,0,0-3.467-3.468h-6.311a3.467,3.467,0,0,1,.649-6.873h.024v-.061H232.124v.068c.074-.005.149-.007.225-.007h.643a3.467,3.467,0,0,1,.649,6.873H216.787a3.467,3.467,0,0,0-3.467,3.468h0a3.467,3.467,0,0,0,3.467,3.467h58.242A3.467,3.467,0,0,0,278.5,1704.492Z" transform="translate(-213.32 -1687.156)" fill="#edf1ff"/>
        <path id="Path_2804" data-name="Path 2804" d="M314.89,1778.62h-7.624v-.072c-.049,0-.1,0-.149,0h-.643a3.468,3.468,0,0,1-.689-6.866H264.145a3.468,3.468,0,0,1-.688,6.866h-.007v.068h-4.532a3.467,3.467,0,0,0-3.467,3.467h0a3.467,3.467,0,0,0,3.467,3.467H314.89a3.467,3.467,0,0,0,3.467-3.467h0A3.467,3.467,0,0,0,314.89,1778.62Z" transform="translate(-247.92 -1750.881)" fill="#edf1ff"/>
      </g>
      <path id="Path_2805" data-name="Path 2805" d="M622.9,1817.417h-3.608a3.467,3.467,0,0,1-3.467-3.468h0a3.466,3.466,0,0,1,3.467-3.467H622.9a3.467,3.467,0,0,1,3.467,3.467h0A3.468,3.468,0,0,1,622.9,1817.417Z" transform="translate(-543.881 -1782.744)" fill="#edf1ff"/>
      <path id="Path_2806" data-name="Path 2806" d="M690.312,1817.417h0a3.467,3.467,0,0,1-3.467-3.468h0a3.467,3.467,0,0,1,3.467-3.467h0a3.464,3.464,0,0,1,3.467,3.467h0A3.467,3.467,0,0,1,690.312,1817.417Z" transform="translate(-602.206 -1782.744)" fill="#edf1ff"/>
    </g>
    <g id="Group_2681" data-name="Group 2681" transform="translate(376.053 1249.816)">
      <g id="Group_1150" data-name="Group 1150" transform="translate(8.335 8.341)">
        <path id="Path_2792" data-name="Path 2792" d="M1129.946,712.912a.353.353,0,0,1,0-.706h.1a.353.353,0,0,1,.009.706l-.109,0Zm-1-.114a.352.352,0,0,1-.081-.009l-.106-.026a.353.353,0,0,1,.178-.684l.09.022a.353.353,0,0,1-.08.7Zm2.1-.032a.353.353,0,0,1-.091-.694l.09-.025a.353.353,0,1,1,.2.678l-.105.029A.353.353,0,0,1,1131.043,712.766Zm-3.133-.358a.352.352,0,0,1-.167-.042l-.1-.053a.353.353,0,1,1,.348-.615l.081.044a.353.353,0,0,1-.167.665Zm4.157-.064a.353.353,0,0,1-.176-.659l.08-.047a.353.353,0,1,1,.366.6l-.094.056A.352.352,0,0,1,1132.067,712.343Zm-5.057-.58a.353.353,0,0,1-.24-.094l-.08-.076a.353.353,0,0,1,.494-.5l.066.063a.353.353,0,0,1-.241.612Zm5.937-.092a.353.353,0,0,1-.249-.6l.066-.067a.353.353,0,1,1,.507.491l-.058.059-.018.018A.353.353,0,0,1,1132.947,711.672Zm-6.644-.759a.353.353,0,0,1-.3-.165l-.057-.093a.353.353,0,0,1,.605-.364l.049.079a.353.353,0,0,1-.3.542Zm7.324-.113a.353.353,0,0,1-.3-.531l.047-.082a.353.353,0,0,1,.617.345l-.053.093A.353.353,0,0,1,1133.627,710.8Zm-7.789-.891a.353.353,0,0,1-.337-.248c-.011-.035-.021-.07-.031-.1a.353.353,0,0,1,.679-.194c.009.03.017.059.026.089a.353.353,0,0,1-.337.459Zm8.223-.127a.354.354,0,0,1-.34-.449c.008-.03.016-.059.024-.089a.353.353,0,0,1,.685.174c-.009.035-.018.07-.028.106A.353.353,0,0,1,1134.061,709.781Zm-8.415-.964a.353.353,0,0,1-.353-.338c0-.036,0-.072,0-.108a.353.353,0,1,1,.706-.016c0,.031,0,.062,0,.094a.353.353,0,0,1-.337.368Zm8.573-.132h0a.353.353,0,0,1-.348-.358v-.093a.353.353,0,0,1,.35-.356h0a.353.353,0,0,1,.353.351v.109A.353.353,0,0,1,1134.219,708.685Zm-8.479-.971a.359.359,0,0,1-.075-.008.353.353,0,0,1-.271-.42q.011-.053.024-.107a.353.353,0,0,1,.687.165q-.011.045-.021.09A.353.353,0,0,1,1125.739,707.714Zm8.353-.129a.353.353,0,0,1-.343-.268c-.007-.03-.015-.06-.023-.09a.353.353,0,0,1,.682-.186c.01.035.019.071.027.106a.353.353,0,0,1-.343.438Zm-7.983-.914a.353.353,0,0,1-.314-.514l.051-.1a.353.353,0,0,1,.622.336l-.043.082A.353.353,0,0,1,1126.11,706.672Zm7.579-.117a.354.354,0,0,1-.309-.182c-.015-.027-.031-.055-.046-.082a.353.353,0,1,1,.611-.355l.053.094a.353.353,0,0,1-.308.525Zm-6.952-.8a.353.353,0,0,1-.263-.589l.074-.081a.353.353,0,0,1,.515.484l-.062.068A.353.353,0,0,1,1126.737,705.76Zm6.3-.1a.353.353,0,0,1-.256-.109l-.064-.066a.362.362,0,0,1-.06-.078.358.358,0,0,1-.08-.055l-.07-.062a.353.353,0,1,1,.463-.534l.081.072a.42.42,0,0,0,.166.158l.077.078a.353.353,0,0,1-.256.6Zm-5.458-.625a.353.353,0,0,1-.195-.648l.092-.059a.353.353,0,0,1,.375.6l-.078.05A.352.352,0,0,1,1127.576,705.037Zm4.326-.224a.351.351,0,0,1-.162-.039l-.083-.042a.353.353,0,1,1,.31-.635l.1.049a.353.353,0,0,1-.162.667Zm-3.33-.259a.353.353,0,0,1-.111-.688l.1-.033a.353.353,0,1,1,.206.676l-.088.028A.353.353,0,0,1,1128.572,704.554Zm2.29-.118a.358.358,0,0,1-.076-.008l-.091-.019a.353.353,0,0,1,.137-.693l.107.022a.353.353,0,0,1-.076.7Zm-1.2-.093a.353.353,0,0,1-.022-.706l.109-.006a.353.353,0,0,1,.028.706l-.093,0Z" transform="translate(-1125.29 -703.631)" fill="#0d31c0"/>
      </g>
      <g id="Group_1151" data-name="Group 1151" transform="translate(9.841 9.812)">
        <path id="Path_2793" data-name="Path 2793" d="M1150.347,731.766a.4.4,0,0,1-.061,0l-.115-.02a.4.4,0,1,1,.151-.793l.084.014a.4.4,0,0,1-.06.8Zm1-.032a.4.4,0,0,1-.085-.8l.084-.02a.4.4,0,1,1,.2.782l-.113.026A.4.4,0,0,1,1151.349,731.734Zm-2.038-.348a.4.4,0,0,1-.211-.06l-.1-.062a.4.4,0,0,1,.447-.672l.073.046a.4.4,0,0,1-.211.748Zm3.049-.094a.4.4,0,0,1-.232-.734l.07-.051a.4.4,0,1,1,.487.644l-.093.068A.4.4,0,0,1,1152.36,731.292Zm-3.855-.658a.4.4,0,0,1-.329-.17q-.033-.047-.065-.095a.4.4,0,0,1,.674-.444l.049.072a.4.4,0,0,1-.329.638Zm4.612-.143a.4.4,0,0,1-.342-.617l.044-.073a.4.4,0,1,1,.7.4q-.029.051-.059.1A.4.4,0,0,1,1153.118,730.491Zm-5.062-.864a.4.4,0,0,1-.393-.315q-.013-.057-.023-.114a.4.4,0,0,1,.794-.147c.005.028.011.056.017.083a.4.4,0,0,1-.305.482A.415.415,0,0,1,1148.055,729.628Zm5.45-.169a.414.414,0,0,1-.064-.005.4.4,0,0,1-.335-.462c0-.028.009-.056.012-.085a.4.4,0,0,1,.8.1c0,.038-.01.077-.016.115A.4.4,0,0,1,1153.505,729.459Zm-5.472-.934a.4.4,0,0,1-.4-.476q.01-.057.023-.114a.5.5,0,0,0,.262-.74q.026-.052.054-.1a.4.4,0,1,1,.708.387q-.021.038-.04.076a.323.323,0,0,0-.2.554c-.006.028-.012.056-.017.084A.4.4,0,0,1,1148.034,728.525Zm5.424-.168a.4.4,0,0,1-.392-.308c-.007-.028-.014-.055-.022-.082a.4.4,0,0,1,.776-.222c.011.037.021.075.03.113a.4.4,0,0,1-.392.5Zm-.47-1a.4.4,0,0,1-.324-.163l-.053-.068a.4.4,0,1,1,.63-.505q.036.045.071.092a.4.4,0,0,1-.323.645Zm-4.026-.45a.4.4,0,0,1-.262-.711l.09-.074a.4.4,0,0,1,.5.633l-.066.055A.4.4,0,0,1,1148.962,726.911Zm3.2-.285a.4.4,0,0,1-.2-.055l-.075-.042a.4.4,0,0,1,.382-.711l.1.057a.4.4,0,0,1-.2.752Zm-2.239-.25a.4.4,0,0,1-.122-.789l.11-.033a.4.4,0,1,1,.217.778l-.083.025A.4.4,0,0,1,1149.926,726.376Zm1.2-.107a.4.4,0,0,1-.052,0l-.086-.01a.4.4,0,0,1,.075-.8l.115.013a.4.4,0,0,1-.051.8Z" transform="translate(-1147.629 -725.45)" fill="#0d31c0"/>
      </g>
      <g id="Group_1152" data-name="Group 1152" transform="translate(11.347 11.35)">
        <path id="Path_2794" data-name="Path 2794" d="M1172.051,751.439a.454.454,0,0,1-.174-.873c.019-.008.037-.017.056-.026a.454.454,0,0,1,.42.805c-.042.022-.084.042-.127.059A.454.454,0,0,1,1172.051,751.439Zm-.98-.031a.45.45,0,0,1-.2-.048l0,0c-.04-.02-.078-.041-.116-.064a.454.454,0,1,1,.47-.777l.052.029a.455.455,0,0,1-.2.862Zm1.672-.784a.455.455,0,0,1-.442-.559c0-.02.009-.041.012-.061a.454.454,0,0,1,.9.134c-.007.046-.016.092-.026.137A.454.454,0,0,1,1172.743,750.624Zm-2.31-.074a.454.454,0,0,1-.447-.377c-.008-.046-.014-.092-.018-.139a.916.916,0,0,0,.167-.868c.021-.042.044-.082.067-.122a.454.454,0,1,1,.775.473c-.011.018-.021.036-.03.055a.225.225,0,0,0-.074.384c0,.021,0,.041.008.061a.454.454,0,0,1-.448.531Zm2.057-.966a.453.453,0,0,1-.345-.159c-.013-.015-.027-.03-.042-.045a.454.454,0,1,1,.636-.648q.05.049.1.1a.454.454,0,0,1-.345.749Zm-1.089-.4a.454.454,0,0,1-.075-.9q.069-.012.139-.017a.454.454,0,0,1,.073.905l-.061.008A.457.457,0,0,1,1171.4,749.189Z" transform="translate(-1169.967 -748.269)" fill="#0d31c0"/>
      </g>
      <g id="Group_1153" data-name="Group 1153" transform="translate(6.876 6.873)">
        <path id="Path_2795" data-name="Path 2795" d="M1110.246,694.052a.3.3,0,0,1-.026-.6l.1-.009a.3.3,0,0,1,.062.6l-.106.01Zm-1.007,0h-.028l-.106-.01a.3.3,0,1,1,.065-.6l.095.009a.3.3,0,0,1-.026.6Zm2.1-.2a.3.3,0,0,1-.083-.594l.092-.027a.3.3,0,1,1,.176.579l-.1.03A.3.3,0,0,1,1111.337,693.852Zm-3.187-.006a.3.3,0,0,1-.084-.012l-.1-.03a.3.3,0,0,1,.177-.579l.092.027a.3.3,0,0,1-.084.594Zm4.22-.4a.3.3,0,0,1-.137-.573l.085-.044a.3.3,0,0,1,.281.536l-.094.048A.3.3,0,0,1,1112.369,693.448Zm-5.251-.009a.3.3,0,0,1-.137-.033l-.095-.049a.3.3,0,1,1,.285-.534l.084.044a.3.3,0,0,1-.137.573Zm6.188-.582a.3.3,0,0,1-.185-.542l.075-.059a.3.3,0,0,1,.378.473l-.083.066A.3.3,0,0,1,1113.307,692.857Zm-7.124-.012a.3.3,0,0,1-.186-.064l-.084-.066a.3.3,0,1,1,.381-.471l.074.059a.3.3,0,0,1-.186.542Zm7.931-.746a.3.3,0,0,1-.228-.5l.062-.072a.3.3,0,1,1,.462.391l-.069.08A.3.3,0,0,1,1114.114,692.1Zm-8.735-.015a.3.3,0,0,1-.228-.1l-.069-.08a.3.3,0,0,1,.463-.39l.062.072a.3.3,0,0,1-.228.5Zm9.382-.884a.3.3,0,0,1-.261-.455l.047-.083a.3.3,0,1,1,.528.3l-.053.092A.3.3,0,0,1,1114.761,691.2Zm-10.026-.017a.3.3,0,0,1-.262-.151l-.053-.092a.3.3,0,0,1,.529-.294l.047.083a.3.3,0,0,1-.262.455Zm10.492-.988a.3.3,0,0,1-.286-.4l.031-.091a.3.3,0,0,1,.574.192c-.011.033-.022.067-.034.1A.3.3,0,0,1,1115.227,690.194Zm-10.954-.019a.3.3,0,0,1-.286-.2q-.018-.051-.034-.1a.3.3,0,0,1,.576-.188c.01.03.02.06.03.09a.3.3,0,0,1-.186.386A.3.3,0,0,1,1104.272,690.175Zm11.222-1.057a.3.3,0,0,1-.046,0,.3.3,0,0,1-.254-.344c0-.031.009-.062.013-.094a.3.3,0,1,1,.6.078c0,.035-.009.071-.015.106A.3.3,0,0,1,1115.494,689.119Zm-11.485-.02a.3.3,0,0,1-.3-.259q-.008-.053-.014-.105a.3.3,0,0,1,.6-.076c0,.032.008.063.013.095a.3.3,0,0,1-.256.343A.311.311,0,0,1,1104.008,689.1Zm11.543-1.087a.3.3,0,0,1-.3-.289q0-.048-.005-.1a.3.3,0,0,1,.6-.037q0,.053.005.106a.3.3,0,0,1-.289.316Zm-11.594-.02h-.016a.3.3,0,0,1-.287-.317c0-.035,0-.07.006-.105a.3.3,0,0,1,.6.039c0,.032,0,.064-.006.1A.3.3,0,0,1,1103.956,687.991Zm11.439-1.077a.3.3,0,0,1-.294-.232c-.007-.031-.015-.062-.023-.093a.3.3,0,1,1,.586-.152q.013.052.026.1a.3.3,0,0,1-.295.374Zm-11.28-.019a.3.3,0,0,1-.072-.009.3.3,0,0,1-.222-.366q.013-.052.026-.1a.3.3,0,0,1,.586.154q-.012.046-.023.093A.3.3,0,0,1,1104.116,686.895Zm10.919-1.028a.3.3,0,0,1-.276-.177l-.041-.087a.3.3,0,1,1,.547-.26l.045.1a.3.3,0,0,1-.275.429Zm-10.555-.019a.3.3,0,0,1-.275-.429l.045-.1a.3.3,0,0,1,.546.261c-.014.029-.027.058-.041.087A.3.3,0,0,1,1104.479,685.848Zm10.1-.808a.3.3,0,0,1-.252-.134l-.054-.08a.3.3,0,1,1,.5-.345l.059.087a.3.3,0,0,1-.251.472Zm-9.54-.15a.3.3,0,0,1-.246-.479l.063-.086a.3.3,0,0,1,.486.361l-.056.077A.3.3,0,0,1,1105.035,684.889Zm8.838-.708a.3.3,0,0,1-.215-.09l-.067-.066a.3.3,0,1,1,.422-.434l.076.075a.3.3,0,0,1-.216.516Zm-8.11-.127a.3.3,0,0,1-.208-.523l.078-.072a.3.3,0,0,1,.408.448l-.069.065A.3.3,0,0,1,1105.763,684.054Zm7.258-.581a.3.3,0,0,1-.17-.052l-.079-.053a.3.3,0,1,1,.331-.506l.089.059a.3.3,0,0,1-.171.553Zm-6.384-.1a.3.3,0,0,1-.162-.558l.089-.056a.3.3,0,1,1,.317.516l-.082.051A.3.3,0,0,1,1106.637,683.374Zm5.412-.433a.3.3,0,0,1-.12-.025l-.088-.037a.3.3,0,0,1,.23-.56l.1.041a.3.3,0,0,1-.12.581Zm-4.425-.07a.3.3,0,0,1-.112-.584l.1-.039a.3.3,0,1,1,.212.567l-.089.034A.3.3,0,0,1,1107.625,682.871Zm3.37-.27a.307.307,0,0,1-.065-.007l-.094-.02a.3.3,0,0,1,.12-.594l.1.022a.3.3,0,0,1-.065.6Zm-2.306-.038a.3.3,0,0,1-.055-.6l.1-.019a.3.3,0,0,1,.1.6l-.094.017A.3.3,0,0,1,1108.689,682.563Zm1.205-.1h-.008l-.1,0a.3.3,0,0,1,0-.605h0l.107,0a.3.3,0,0,1-.008.605Z" transform="translate(-1103.653 -681.86)" fill="#0d31c0"/>
      </g>
      <g id="Group_1154" data-name="Group 1154" transform="translate(5.418 5.41)">
        <path id="Path_2796" data-name="Path 2796" d="M1089.777,675.291a.252.252,0,0,1-.007-.5l.1,0a.252.252,0,1,1,.022.5l-.1,0Zm-1.007-.04h-.028l-.1-.012a.252.252,0,1,1,.062-.5l.1.011a.252.252,0,0,1-.027.5Zm2.11-.076a.252.252,0,0,1-.045-.5l.1-.018a.252.252,0,1,1,.1.5l-.1.019A.252.252,0,0,1,1090.88,675.175Zm-3.2-.129a.252.252,0,0,1-.065-.009l-.1-.028a.252.252,0,1,1,.138-.485l.094.026a.252.252,0,0,1-.065.5Zm4.272-.151a.252.252,0,0,1-.082-.491l.092-.032a.252.252,0,1,1,.171.475l-.1.035A.255.255,0,0,1,1091.953,674.895Zm-5.318-.217a.253.253,0,0,1-.1-.021l-.095-.043a.252.252,0,1,1,.21-.459l.089.04a.252.252,0,0,1-.1.483Zm6.337-.222a.252.252,0,0,1-.118-.476l.087-.046a.252.252,0,1,1,.24.444l-.092.049A.251.251,0,0,1,1092.971,674.456Zm-7.316-.3a.252.252,0,0,1-.135-.039l-.088-.056a.252.252,0,0,1,.275-.423l.082.053a.252.252,0,0,1-.135.466Zm8.256-.288a.252.252,0,0,1-.15-.455l.079-.059a.252.252,0,1,1,.3.4l-.083.062A.251.251,0,0,1,1093.912,673.869Zm-9.146-.373a.251.251,0,0,1-.165-.062l-.079-.069a.252.252,0,0,1,.336-.376l.073.065a.252.252,0,0,1-.166.443Zm9.987-.35a.252.252,0,0,1-.179-.43l.069-.07A.252.252,0,1,1,1095,673l-.073.074A.252.252,0,0,1,1094.752,673.145Zm-10.766-.439a.251.251,0,0,1-.193-.089l-.067-.08a.252.252,0,1,1,.389-.321l.063.075a.252.252,0,0,1-.193.415Zm11.486-.4a.252.252,0,0,1-.2-.4l.057-.079a.252.252,0,1,1,.411.292l-.061.084A.251.251,0,0,1,1095.473,672.3Zm-12.136-.495a.253.253,0,0,1-.215-.12l-.054-.09a.252.252,0,0,1,.434-.257l.05.083a.252.252,0,0,1-.215.384Zm12.721-.447a.252.252,0,0,1-.224-.369l.044-.086a.252.252,0,0,1,.451.227l-.048.093A.252.252,0,0,1,1096.058,671.36Zm-13.228-.54a.252.252,0,0,1-.232-.154l-.04-.1a.252.252,0,1,1,.468-.189l.037.09a.252.252,0,0,1-.232.351Zm13.666-.479a.252.252,0,0,1-.239-.334c.011-.031.021-.061.031-.092a.252.252,0,0,1,.48.157l-.033.1A.252.252,0,0,1,1096.5,670.342Zm-14.018-.573a.252.252,0,0,1-.244-.19c-.009-.034-.017-.068-.025-.1a.252.252,0,0,1,.491-.117l.023.094a.252.252,0,0,1-.245.314Zm14.3-.5a.252.252,0,0,1-.249-.3q.008-.048.016-.1a.252.252,0,1,1,.5.081q-.008.051-.018.1A.252.252,0,0,1,1096.775,669.269Zm-14.487-.592a.252.252,0,0,1-.251-.228c0-.035-.007-.069-.009-.1a.252.252,0,1,1,.5-.041c0,.032.006.065.009.1a.252.252,0,0,1-.227.276Zm14.6-.511h-.006a.253.253,0,0,1-.246-.258c0-.033,0-.065,0-.1a.252.252,0,0,1,.252-.249h0a.252.252,0,0,1,.249.255c0,.035,0,.069,0,.1A.252.252,0,0,1,1096.887,668.165Zm-14.621-.6h-.014a.252.252,0,0,1-.238-.266q0-.052.006-.1a.252.252,0,0,1,.5.034q0,.049-.006.1A.252.252,0,0,1,1082.266,667.568Zm14.564-.51a.252.252,0,0,1-.25-.221c0-.032-.008-.064-.013-.1a.252.252,0,0,1,.5-.071c0,.034.01.069.014.1a.253.253,0,0,1-.219.282Zm-14.419-.589a.249.249,0,0,1-.052-.005.252.252,0,0,1-.2-.3c.007-.034.015-.068.022-.1a.252.252,0,1,1,.492.111c-.007.032-.014.063-.021.095A.252.252,0,0,1,1082.411,666.469Zm14.2-.5a.252.252,0,0,1-.243-.184l-.027-.093a.252.252,0,1,1,.483-.145c.01.034.02.067.03.1a.252.252,0,0,1-.174.312A.256.256,0,0,1,1096.607,665.972Zm-13.886-.567a.252.252,0,0,1-.236-.341l.038-.1a.252.252,0,1,1,.469.185l-.035.09A.252.252,0,0,1,1082.722,665.4Zm13.5-.473a.253.253,0,0,1-.23-.147l-.041-.089a.252.252,0,1,1,.456-.216l.044.094a.252.252,0,0,1-.229.358Zm-13.035-.532a.252.252,0,0,1-.22-.376l.051-.09a.252.252,0,0,1,.437.252l-.049.085A.252.252,0,0,1,1083.19,664.4Zm12.5-.439a.252.252,0,0,1-.211-.114l-.055-.082a.252.252,0,1,1,.419-.282l.057.086a.252.252,0,0,1-.211.391Zm-11.886-.485a.252.252,0,0,1-.2-.407l.065-.082a.252.252,0,1,1,.393.316l-.06.076A.252.252,0,0,1,1083.8,663.476Zm11.209-.394a.252.252,0,0,1-.188-.084l-.066-.072a.252.252,0,0,1,.37-.343l.071.078a.252.252,0,0,1-.187.421Zm-10.463-.427a.252.252,0,0,1-.173-.436l.077-.071a.252.252,0,1,1,.341.372l-.071.067A.252.252,0,0,1,1084.549,662.655Zm9.66-.338a.252.252,0,0,1-.16-.057l-.076-.061a.252.252,0,0,1,.313-.4l.082.066a.252.252,0,0,1-.16.448Zm-8.8-.359a.252.252,0,0,1-.143-.46l.086-.059a.252.252,0,1,1,.281.419l-.081.055A.251.251,0,0,1,1085.411,661.957Zm7.888-.275a.25.25,0,0,1-.128-.035l-.084-.049a.238.238,0,0,0-.312-.169l-.087-.044a.252.252,0,0,1,.223-.452l.093.047a.266.266,0,0,0,.333.18l.09.053a.252.252,0,0,1-.129.469Zm-6.93-.284a.252.252,0,0,1-.111-.479l.095-.045a.252.252,0,0,1,.214.457l-.088.042A.252.252,0,0,1,1086.369,661.4Zm5.5-.369a.25.25,0,0,1-.079-.013l-.092-.03a.252.252,0,1,1,.152-.481l.1.032a.252.252,0,0,1-.079.492Zm-4.468-.038a.252.252,0,0,1-.074-.493l.1-.03a.252.252,0,0,1,.144.484l-.094.028A.248.248,0,0,1,1087.4,660.991Zm3.392-.229a.251.251,0,0,1-.042,0l-.1-.016a.252.252,0,0,1,.077-.5l.1.017a.252.252,0,0,1-.042.5Zm-2.311-.019a.252.252,0,0,1-.037-.5l.1-.015a.252.252,0,1,1,.068.5l-.1.014Zm1.207-.082h-.1a.252.252,0,0,1,0-.5h.1a.252.252,0,0,1,0,.5Z" transform="translate(-1082.013 -660.155)" fill="#0d31c0"/>
      </g>
      <g id="Group_1155" data-name="Group 1155" transform="translate(3.95 3.946)">
        <path id="Path_2797" data-name="Path 2797" d="M1069.167,656.513h0l-.1,0a.2.2,0,0,1-.2-.206.2.2,0,0,1,.206-.2l.1,0a.2.2,0,0,1,0,.4Zm1.007-.046a.2.2,0,0,1-.021-.4l.1-.011a.2.2,0,0,1,.046.4l-.1.011Zm-2.113-.037-.028,0-.1-.015a.2.2,0,0,1,.06-.4l.1.014a.2.2,0,0,1-.028.4Zm3.206-.146a.2.2,0,0,1-.046-.4l.1-.023a.2.2,0,1,1,.1.392l-.1.024A.2.2,0,0,1,1071.267,656.284Zm-4.286-.073a.205.205,0,0,1-.052-.007l-.1-.027a.2.2,0,1,1,.109-.389l.1.026a.2.2,0,0,1-.052.4Zm5.348-.247a.2.2,0,0,1-.07-.391l.092-.035a.2.2,0,0,1,.145.377l-.1.036A.2.2,0,0,1,1072.328,655.964Zm-6.4-.106a.2.2,0,0,1-.076-.015l-.1-.039a.2.2,0,1,1,.156-.372l.091.038a.2.2,0,0,1-.076.389Zm7.413-.344a.2.2,0,0,1-.093-.381l.087-.046a.2.2,0,0,1,.19.356l-.091.048A.2.2,0,0,1,1073.342,655.514Zm-8.412-.138a.2.2,0,0,1-.1-.026l-.09-.052a.2.2,0,1,1,.2-.349l.086.049a.2.2,0,0,1-.1.378Zm9.362-.435a.2.2,0,0,1-.115-.368l.081-.057a.2.2,0,0,1,.233.329l-.084.059A.2.2,0,0,1,1074.292,654.942Zm-10.293-.17a.2.2,0,0,1-.12-.04l-.083-.062a.2.2,0,1,1,.244-.321l.079.06a.2.2,0,0,1-.12.364Zm11.164-.517a.2.2,0,0,1-.135-.352l.073-.066a.2.2,0,0,1,.273.3l-.077.07A.2.2,0,0,1,1075.163,654.255Zm-12.011-.2a.2.2,0,0,1-.14-.056l-.074-.072a.2.2,0,0,1,.283-.288l.071.069a.2.2,0,0,1-.14.348Zm12.789-.591a.2.2,0,0,1-.153-.334l.064-.075a.2.2,0,0,1,.308.261l-.067.078A.2.2,0,0,1,1075.941,653.464Zm-13.539-.227a.2.2,0,0,1-.157-.075l-.065-.081a.2.2,0,0,1,.317-.25l.061.077a.2.2,0,0,1-.157.329Zm14.212-.656a.2.2,0,0,1-.168-.314l.054-.082a.2.2,0,1,1,.338.22l-.057.087A.2.2,0,0,1,1076.614,652.581Zm-14.854-.249a.2.2,0,0,1-.172-.1l-.054-.089a.2.2,0,1,1,.346-.208l.051.084a.2.2,0,0,1-.171.308Zm15.41-.712a.2.2,0,0,1-.181-.292l.044-.089a.2.2,0,1,1,.363.176l-.045.093A.2.2,0,0,1,1077.17,651.621Zm-15.933-.266a.2.2,0,0,1-.184-.118l-.042-.094a.2.2,0,1,1,.368-.164l.041.09a.2.2,0,0,1-.183.286Zm16.364-.757a.205.205,0,0,1-.066-.011.2.2,0,0,1-.124-.257c.011-.031.021-.062.032-.093a.2.2,0,1,1,.383.129l-.033.1A.2.2,0,0,1,1077.6,650.6Zm-16.762-.278a.2.2,0,0,1-.193-.141l-.03-.1a.2.2,0,0,1,.387-.117l.029.094a.2.2,0,0,1-.193.262Zm17.062-.79a.2.2,0,0,1-.2-.244c.007-.032.014-.064.02-.1a.2.2,0,1,1,.4.081q-.01.051-.021.1A.2.2,0,0,1,1077.9,649.53Zm-17.327-.287a.2.2,0,0,1-.2-.166l-.017-.1a.2.2,0,1,1,.4-.067l.017.1a.2.2,0,0,1-.163.234A.209.209,0,0,1,1060.573,649.244Zm17.492-.81h-.018a.2.2,0,0,1-.183-.219q0-.049.008-.1a.2.2,0,1,1,.4.031c0,.034-.005.069-.008.1A.2.2,0,0,1,1078.065,648.434Zm-17.619-.291a.2.2,0,0,1-.2-.191c0-.035,0-.069,0-.1a.2.2,0,0,1,.4-.015c0,.033,0,.065,0,.1a.2.2,0,0,1-.191.212Zm17.645-.818a.2.2,0,0,1-.2-.194c0-.033,0-.065,0-.1a.2.2,0,1,1,.4-.021c0,.035,0,.069.005.1a.2.2,0,0,1-.194.209Zm-17.632-.29h-.015a.2.2,0,0,1-.187-.216c0-.034.005-.069.008-.1a.2.2,0,0,1,.4.035c0,.033-.005.065-.008.1A.2.2,0,0,1,1060.458,647.034Zm17.517-.812a.2.2,0,0,1-.2-.168l-.017-.1a.2.2,0,0,1,.4-.071l.018.1a.2.2,0,0,1-.165.233Zm-17.365-.287a.2.2,0,0,1-.04,0,.2.2,0,0,1-.158-.238l.021-.1a.2.2,0,1,1,.395.084l-.02.1A.2.2,0,0,1,1060.61,645.935Zm17.114-.792a.2.2,0,0,1-.193-.143l-.029-.094a.2.2,0,1,1,.385-.121l.03.1a.2.2,0,0,1-.135.252A.2.2,0,0,1,1077.724,645.143Zm-16.826-.279a.2.2,0,0,1-.064-.011.2.2,0,0,1-.127-.256l.033-.1a.2.2,0,0,1,.381.133l-.032.094A.2.2,0,0,1,1060.9,644.864Zm16.441-.76a.2.2,0,0,1-.185-.12l-.041-.09a.2.2,0,0,1,.367-.168l.042.094a.2.2,0,0,1-.184.284Zm-16.023-.267a.2.2,0,0,1-.182-.289l.045-.093a.2.2,0,1,1,.361.18l-.043.088A.2.2,0,0,1,1061.315,643.837Zm15.511-.717a.2.2,0,0,1-.173-.1l-.051-.084a.2.2,0,1,1,.343-.213l.054.088a.2.2,0,0,1-.173.306Zm-14.967-.251a.2.2,0,0,1-.169-.312l.057-.087a.2.2,0,0,1,.336.224l-.054.082A.2.2,0,0,1,1061.859,642.87Zm14.335-.662a.2.2,0,0,1-.159-.077l-.062-.077a.2.2,0,1,1,.314-.254l.065.081a.2.2,0,0,1-.158.327Zm-13.673-.229a.2.2,0,0,1-.154-.332l.067-.078a.2.2,0,1,1,.306.264l-.064.076A.2.2,0,0,1,1062.521,641.979Zm12.933-.6a.2.2,0,0,1-.141-.058l-.071-.069a.2.2,0,1,1,.28-.291l.074.072a.2.2,0,0,1-.141.346Zm-12.163-.2a.2.2,0,0,1-.137-.351l.077-.07a.2.2,0,1,1,.269.3l-.073.066A.2.2,0,0,1,1063.291,641.179Zm11.324-.524a.2.2,0,0,1-.122-.041l-.079-.059a.2.2,0,1,1,.241-.324l.083.062a.2.2,0,0,1-.123.362Zm-10.461-.173a.2.2,0,0,1-.117-.367l.084-.059a.2.2,0,1,1,.23.332l-.081.057A.2.2,0,0,1,1064.154,640.482Zm9.538-.442a.2.2,0,0,1-.1-.027l-.086-.049a.2.2,0,0,1,.2-.352l.09.052a.2.2,0,0,1-.1.376Zm-8.595-.141a.2.2,0,0,1-.1-.38l.091-.048a.2.2,0,0,1,.187.358l-.088.046A.2.2,0,0,1,1065.1,639.9Zm7.6-.352a.2.2,0,0,1-.078-.016l-.091-.038a.2.2,0,1,1,.153-.374l.095.039a.2.2,0,0,1-.078.388Zm-6.593-.109a.2.2,0,0,1-.072-.39l.1-.036a.2.2,0,0,1,.14.378l-.092.035A.2.2,0,0,1,1066.1,639.437Zm5.546-.256a.206.206,0,0,1-.054-.007l-.1-.026a.2.2,0,1,1,.1-.39l.1.027a.2.2,0,0,1-.054.4Zm-4.489-.076a.2.2,0,0,1-.048-.4l.1-.024a.2.2,0,1,1,.092.393l-.1.023A.2.2,0,0,1,1067.163,639.1Zm3.4-.157-.03,0-.1-.014a.2.2,0,1,1,.055-.4l.1.015a.2.2,0,0,1-.03.4Zm-2.314-.04a.2.2,0,0,1-.023-.4l.1-.011a.2.2,0,1,1,.042.4l-.1.011Zm1.209-.056h0l-.1,0a.2.2,0,1,1,0-.4l.1,0a.2.2,0,0,1,0,.4Z" transform="translate(-1060.239 -638.447)" fill="#0d31c0"/>
      </g>
      <g id="Group_1156" data-name="Group 1156" transform="translate(2.482 2.487)">
        <path id="Path_2798" data-name="Path 2798" d="M1048.488,637.773h-.007l-.1-.005a.151.151,0,0,1-.143-.16.15.15,0,0,1,.16-.143l.1.005a.151.151,0,0,1-.007.3Zm1.008,0a.151.151,0,0,1-.008-.3l.1-.005a.151.151,0,0,1,.018.3l-.1.006Zm-2.112-.108-.023,0-.1-.016a.151.151,0,1,1,.049-.3l.1.016a.151.151,0,0,1-.023.3Zm3.216-.008a.151.151,0,0,1-.024-.3l.1-.016a.151.151,0,0,1,.05.3l-.1.017Zm-4.3-.219a.148.148,0,0,1-.039-.005l-.1-.027a.151.151,0,0,1,.081-.292l.1.026a.151.151,0,0,1-.039.3Zm5.387-.014a.151.151,0,0,1-.039-.3l.1-.027a.151.151,0,0,1,.083.291l-.1.027A.152.152,0,0,1,1051.685,637.421Zm-6.442-.328a.152.152,0,0,1-.054-.01l-.1-.037a.151.151,0,0,1,.111-.282l.093.036a.151.151,0,0,1-.054.293Zm7.5-.021a.151.151,0,0,1-.055-.292l.093-.037a.151.151,0,0,1,.113.281l-.1.038A.152.152,0,0,1,1052.739,637.072Zm-8.508-.432a.151.151,0,0,1-.069-.017l-.091-.047a.151.151,0,0,1,.141-.268l.088.046a.151.151,0,0,1-.069.286Zm9.518-.029a.151.151,0,0,1-.07-.286l.088-.047a.151.151,0,1,1,.143.267l-.091.048A.149.149,0,0,1,1053.749,636.612Zm-10.475-.53a.151.151,0,0,1-.083-.025L1043.1,636a.151.151,0,0,1,.169-.251l.083.055a.151.151,0,0,1-.083.278Zm11.43-.037a.151.151,0,0,1-.084-.277l.083-.056a.151.151,0,1,1,.171.25l-.085.058A.151.151,0,0,1,1054.7,636.045Zm-12.321-.622a.151.151,0,0,1-.1-.035l-.078-.065a.151.151,0,0,1,.2-.232l.076.064a.151.151,0,0,1-.1.268Zm13.21-.043a.151.151,0,0,1-.1-.268l.076-.064a.151.151,0,0,1,.2.231l-.078.066A.15.15,0,0,1,1055.592,635.38Zm-14.026-.708a.151.151,0,0,1-.108-.046l-.071-.074a.151.151,0,1,1,.219-.209l.069.071a.151.151,0,0,1-.108.257Zm14.838-.047a.151.151,0,0,1-.109-.257l.069-.072a.151.151,0,1,1,.219.208l-.071.074A.151.151,0,0,1,1056.4,634.625Zm-15.57-.788a.15.15,0,0,1-.119-.058l-.063-.081a.151.151,0,0,1,.24-.184l.061.078a.151.151,0,0,1-.119.245Zm16.3-.049a.151.151,0,0,1-.12-.244l.061-.079a.151.151,0,1,1,.241.183l-.062.081A.151.151,0,0,1,1057.131,633.788Zm-16.937-.858a.151.151,0,0,1-.128-.071l-.054-.087a.151.151,0,1,1,.258-.158l.053.085a.151.151,0,0,1-.128.232Zm17.569-.052a.152.152,0,0,1-.129-.231l.052-.085a.151.151,0,1,1,.259.156l-.053.087A.152.152,0,0,1,1057.764,632.878Zm-18.108-.918a.151.151,0,0,1-.136-.085l-.045-.093a.151.151,0,1,1,.274-.13l.043.09a.151.151,0,0,1-.07.2A.149.149,0,0,1,1039.656,631.96Zm18.639-.055a.151.151,0,0,1-.136-.217l.042-.09a.151.151,0,0,1,.274.128l-.044.092A.151.151,0,0,1,1058.295,631.9Zm-19.07-.967a.152.152,0,0,1-.142-.1l-.034-.1a.151.151,0,1,1,.286-.1l.033.094a.151.151,0,0,1-.142.2Zm19.494-.058a.151.151,0,0,1-.143-.2l.032-.094a.151.151,0,0,1,.286.1l-.034.1A.151.151,0,0,1,1058.718,630.879Zm-19.812-1.006a.151.151,0,0,1-.147-.116l-.024-.1a.151.151,0,1,1,.295-.068l.023.1a.151.151,0,0,1-.147.187Zm20.123-.059a.153.153,0,0,1-.035,0,.152.152,0,0,1-.112-.182c.008-.032.015-.064.022-.1a.151.151,0,1,1,.3.066q-.011.05-.023.1A.151.151,0,0,1,1059.03,629.815Zm-20.325-1.032a.152.152,0,0,1-.15-.132l-.013-.1a.151.151,0,0,1,.3-.036l.012.1a.151.151,0,0,1-.131.17Zm20.521-.06h-.019a.151.151,0,0,1-.132-.169l.012-.1a.151.151,0,1,1,.3.035l-.012.1A.151.151,0,0,1,1059.226,628.723Zm-20.6-1.047a.151.151,0,0,1-.151-.148q0-.051,0-.1a.151.151,0,0,1,.149-.153h0a.152.152,0,0,1,.151.15c0,.033,0,.066,0,.1a.152.152,0,0,1-.148.155Zm20.683-.06h0a.151.151,0,0,1-.149-.154v-.1a.151.151,0,0,1,.3,0v.1A.152.152,0,0,1,1059.3,627.616Zm-20.648-1.049h-.013a.151.151,0,0,1-.138-.164l.009-.1a.151.151,0,1,1,.3.028l-.009.1A.151.151,0,0,1,1038.656,626.567Zm20.608-.06a.151.151,0,0,1-.151-.138c0-.033-.006-.066-.009-.1a.151.151,0,1,1,.3-.03c0,.034.007.068.01.1a.152.152,0,0,1-.138.164Zm-20.456-1.039a.144.144,0,0,1-.029,0,.151.151,0,0,1-.12-.177q.01-.05.02-.1a.151.151,0,1,1,.3.061q-.01.048-.02.1A.151.151,0,0,1,1038.808,625.469Zm20.3-.059a.151.151,0,0,1-.148-.122l-.02-.1a.151.151,0,0,1,.3-.062l.021.1a.152.152,0,0,1-.149.181Zm-20.029-1.017a.152.152,0,0,1-.145-.2l.031-.1a.151.151,0,0,1,.289.092l-.03.095A.151.151,0,0,1,1039.077,624.392Zm19.754-.058a.152.152,0,0,1-.145-.106l-.03-.094a.151.151,0,1,1,.288-.094l.031.1a.151.151,0,0,1-.144.2Zm-19.372-.983a.151.151,0,0,1-.139-.211l.041-.094a.151.151,0,1,1,.277.122l-.04.091A.152.152,0,0,1,1039.459,623.351Zm18.982-.056a.152.152,0,0,1-.139-.091l-.04-.091a.151.151,0,1,1,.276-.124l.042.094a.151.151,0,0,1-.078.2A.15.15,0,0,1,1058.441,623.3Zm-18.49-.938a.151.151,0,0,1-.132-.226l.051-.089a.151.151,0,0,1,.262.151l-.049.086A.151.151,0,0,1,1039.951,622.357Zm17.991-.053a.151.151,0,0,1-.131-.076l-.05-.086a.151.151,0,0,1,.261-.153l.052.089a.151.151,0,0,1-.131.227Zm-17.4-.882a.151.151,0,0,1-.123-.24l.06-.083a.151.151,0,1,1,.244.179l-.058.08A.151.151,0,0,1,1040.547,621.422Zm16.792-.05a.152.152,0,0,1-.123-.062l-.059-.08a.151.151,0,1,1,.243-.18l.061.083a.151.151,0,0,1-.122.24Zm-16.1-.815a.151.151,0,0,1-.113-.252l.069-.076a.151.151,0,0,1,.224.2l-.067.074A.151.151,0,0,1,1041.24,620.557Zm15.4-.047a.151.151,0,0,1-.113-.05l-.067-.073a.151.151,0,1,1,.223-.205l.069.076a.151.151,0,0,1-.113.252Zm-14.618-.739a.151.151,0,0,1-.1-.264l.076-.068a.151.151,0,0,1,.2.227l-.074.066A.152.152,0,0,1,1042.022,619.77Zm13.833-.044a.151.151,0,0,1-.1-.039l-.074-.066a.151.151,0,0,1,.2-.227l.076.068a.151.151,0,0,1-.1.264Zm-13.359-.359a.151.151,0,0,1-.095-.269l.08-.064a.151.151,0,1,1,.187.238l-.078.062A.15.15,0,0,1,1042.5,619.367Zm12.495-.335a.15.15,0,0,1-.088-.028l-.081-.057a.151.151,0,1,1,.174-.248l.083.059a.151.151,0,0,1-.088.274Zm-11.593-.312a.151.151,0,0,1-.082-.279l.087-.055a.151.151,0,1,1,.161.256l-.084.054A.152.152,0,0,1,1043.4,618.72Zm10.658-.285a.15.15,0,0,1-.074-.02l-.087-.048a.151.151,0,1,1,.146-.265l.089.05a.151.151,0,0,1-.075.283Zm-9.693-.262a.151.151,0,0,1-.067-.287l.092-.045a.151.151,0,1,1,.132.273l-.089.044A.15.15,0,0,1,1044.364,618.173Zm8.7-.231a.151.151,0,0,1-.06-.012l-.091-.039a.151.151,0,0,1,.117-.279l.094.04a.151.151,0,0,1-.06.29Zm-7.68-.209a.151.151,0,0,1-.052-.293l.1-.035a.151.151,0,0,1,.1.285l-.094.034A.147.147,0,0,1,1045.382,617.733Zm6.64-.174a.149.149,0,0,1-.045-.007l-.1-.029a.151.151,0,1,1,.086-.29l.1.03a.151.151,0,0,1-.045.3Zm-5.58-.153a.151.151,0,0,1-.037-.3l.1-.024a.151.151,0,0,1,.071.294l-.1.024A.155.155,0,0,1,1046.443,617.406Zm4.5-.117-.029,0-.1-.019a.151.151,0,1,1,.055-.3l.1.019a.151.151,0,0,1-.029.3Zm-3.414-.094a.151.151,0,0,1-.021-.3l.1-.014a.151.151,0,1,1,.039.3l-.1.013Zm2.316-.06h-.013l-.1-.008a.151.151,0,0,1,.023-.3l.1.008a.151.151,0,0,1-.013.3Zm-1.21-.034a.151.151,0,0,1,0-.3l.1,0h0a.151.151,0,0,1,0,.3l-.1,0Z" transform="translate(-1038.468 -616.796)" fill="#0d31c0"/>
      </g>
      <g id="Group_1157" data-name="Group 1157" transform="translate(1.025 1.021)">
        <path id="Path_2799" data-name="Path 2799" d="M1028.479,618.978h0l-.1,0a.1.1,0,0,1,.008-.2l.1,0a.1.1,0,0,1,0,.2Zm1.008-.016a.1.1,0,0,1-.006-.2l.1-.006a.1.1,0,0,1,.108.094.1.1,0,0,1-.094.107l-.1.006Zm-2.115-.066h-.012l-.1-.013a.1.1,0,1,1,.026-.2l.1.013a.1.1,0,0,1-.012.2Zm3.218-.051a.1.1,0,0,1-.015-.2l.1-.016a.1.1,0,0,1,.032.2l-.1.016Zm-4.312-.135-.021,0-.1-.022a.1.1,0,1,1,.045-.2l.1.022a.1.1,0,0,1-.021.2Zm5.4-.083a.1.1,0,0,1-.024-.2l.1-.024a.1.1,0,1,1,.05.2l-.1.025A.1.1,0,0,1,1031.679,618.627Zm-6.472-.2a.1.1,0,0,1-.031,0l-.1-.031a.1.1,0,1,1,.063-.192l.1.031a.1.1,0,0,1-.031.2Zm7.535-.113a.1.1,0,0,1-.033-.2l.094-.034a.1.1,0,1,1,.068.19l-.1.034A.1.1,0,0,1,1032.742,618.31Zm-8.575-.274a.1.1,0,0,1-.04-.008l-.093-.04a.1.1,0,0,1,.081-.185l.092.04a.1.1,0,0,1-.04.194Zm9.6-.142a.1.1,0,0,1-.042-.193l.091-.042a.1.1,0,0,1,.086.183l-.092.043A.1.1,0,0,1,1033.771,617.894Zm-10.6-.341a.1.1,0,0,1-.048-.012l-.089-.049a.1.1,0,0,1,.1-.177l.088.048a.1.1,0,0,1-.048.19Zm11.588-.17a.1.1,0,0,1-.05-.188l.086-.05a.1.1,0,0,1,.1.174l-.088.051A.1.1,0,0,1,1034.756,617.383Zm-12.538-.4a.1.1,0,0,1-.056-.017l-.084-.057a.1.1,0,0,1,.114-.167l.083.056a.1.1,0,0,1-.056.185Zm13.47-.2a.1.1,0,0,1-.058-.183l.081-.058a.1.1,0,0,1,.119.163l-.083.059A.1.1,0,0,1,1035.688,616.783Zm-14.363-.461a.1.1,0,0,1-.063-.023l-.079-.065a.1.1,0,1,1,.129-.155l.077.063a.1.1,0,0,1-.064.179Zm15.235-.224a.1.1,0,0,1-.066-.177l.075-.066a.1.1,0,0,1,.133.152l-.076.067A.1.1,0,0,1,1036.559,616.1Zm-16.062-.515a.1.1,0,0,1-.071-.029l-.072-.071a.1.1,0,0,1,.142-.143l.071.07a.1.1,0,0,1-.071.173Zm16.866-.25a.1.1,0,0,1-.073-.171l.069-.073a.1.1,0,1,1,.147.138l-.07.074A.1.1,0,0,1,1037.363,615.333Zm-17.62-.563a.1.1,0,0,1-.077-.036l-.065-.078a.1.1,0,0,1,.156-.129l.064.076a.1.1,0,0,1-.077.166Zm18.35-.273a.1.1,0,0,1-.079-.163l.062-.079a.1.1,0,0,1,.159.124l-.063.08A.1.1,0,0,1,1038.092,614.5Zm-19.025-.607a.1.1,0,0,1-.083-.043l-.058-.084a.1.1,0,0,1,.167-.114l.057.082a.1.1,0,0,1-.083.159Zm19.673-.293a.1.1,0,0,1-.084-.156l.054-.084a.1.1,0,1,1,.17.109l-.055.086A.1.1,0,0,1,1038.741,613.6Zm-20.263-.646a.1.1,0,0,1-.088-.051l-.05-.089a.1.1,0,1,1,.177-.1l.049.087a.1.1,0,0,1-.088.151Zm20.825-.31a.1.1,0,0,1-.047-.012.1.1,0,0,1-.042-.136l.046-.089a.1.1,0,0,1,.179.093l-.047.09A.1.1,0,0,1,1039.3,612.64Zm-21.324-.68a.1.1,0,0,1-.092-.06l-.041-.093a.1.1,0,0,1,.185-.08l.04.091a.1.1,0,0,1-.092.142Zm21.795-.324a.1.1,0,0,1-.093-.139l.038-.093a.1.1,0,0,1,.187.076l-.038.094A.1.1,0,0,1,1039.774,611.635Zm-22.2-.709a.1.1,0,0,1-.1-.069l-.032-.1a.1.1,0,0,1,.192-.063l.031.095a.1.1,0,0,1-.1.133Zm22.573-.336a.1.1,0,0,1-.029,0,.1.1,0,0,1-.067-.126l.029-.1a.1.1,0,1,1,.193.058l-.029.1A.1.1,0,0,1,1040.148,610.591Zm-22.878-.731a.1.1,0,0,1-.1-.078l-.023-.1a.1.1,0,1,1,.2-.045l.023.1a.1.1,0,0,1-.075.121Zm23.154-.344-.021,0a.1.1,0,0,1-.078-.119l.02-.1a.1.1,0,0,1,.2.039l-.02.1A.1.1,0,0,1,1040.424,609.516Zm-23.359-.746a.1.1,0,0,1-.1-.087l-.014-.1a.1.1,0,1,1,.2-.027l.014.1a.1.1,0,0,1-.086.114Zm23.531-.35h-.011a.1.1,0,0,1-.089-.111l.01-.1a.1.1,0,0,1,.2.02l-.011.1A.1.1,0,0,1,1040.6,608.419Zm-23.635-.755a.1.1,0,0,1-.1-.1l0-.1a.1.1,0,0,1,.1-.1.1.1,0,0,1,.1.1l0,.1a.1.1,0,0,1-.1.106Zm23.7-.353h0a.1.1,0,0,1-.1-.1v-.1a.1.1,0,1,1,.2,0v.1A.1.1,0,0,1,1040.665,607.312Zm-23.7-.757h0a.1.1,0,0,1-.1-.106l.005-.1a.1.1,0,0,1,.2.011l-.005.1A.1.1,0,0,1,1016.961,606.555Zm23.668-.352a.1.1,0,0,1-.1-.093l-.008-.1a.1.1,0,0,1,.2-.018l.008.1a.1.1,0,0,1-.093.109Zm-23.564-.752h-.014a.1.1,0,0,1-.086-.114l.015-.1a.1.1,0,1,1,.2.03l-.015.1A.1.1,0,0,1,1017.066,605.451Zm23.425-.349a.1.1,0,0,1-.1-.084l-.017-.1a.094.094,0,0,1,0-.025.108.108,0,0,1-.008-.024l-.018-.1a.1.1,0,1,1,.2-.039l.019.1a.105.105,0,0,0,.009.049l.018.1a.1.1,0,0,1-.082.117Zm-23.217-.742a.1.1,0,0,1-.024,0,.1.1,0,0,1-.075-.122l.024-.1a.1.1,0,0,1,.2.049l-.024.1A.1.1,0,0,1,1017.273,604.36Zm22.938-.487a.1.1,0,0,1-.1-.073l-.028-.1a.1.1,0,0,1,.194-.057l.028.1a.1.1,0,0,1-.07.125A.1.1,0,0,1,1040.211,603.873Zm-22.628-.579a.1.1,0,0,1-.1-.134l.033-.1a.1.1,0,0,1,.191.067l-.033.1A.1.1,0,0,1,1017.583,603.295Zm22.276-.473a.1.1,0,0,1-.094-.065l-.036-.093a.1.1,0,0,1,.188-.074l.037.095a.1.1,0,0,1-.094.137Zm-21.868-.559a.1.1,0,0,1-.092-.142l.042-.093a.1.1,0,0,1,.183.085l-.042.091A.1.1,0,0,1,1017.991,602.263Zm21.419-.455a.1.1,0,0,1-.09-.056l-.045-.089a.1.1,0,0,1,.18-.092l.046.091a.1.1,0,0,1-.09.146Zm-20.916-.534a.1.1,0,0,1-.05-.013.1.1,0,0,1-.038-.138l.051-.088a.1.1,0,0,1,.175.1l-.05.087A.1.1,0,0,1,1018.493,601.273Zm20.374-.433a.1.1,0,0,1-.085-.047l-.053-.084a.1.1,0,0,1,.17-.109l.054.086a.1.1,0,0,1-.085.155Zm-19.781-.5a.1.1,0,0,1-.083-.159l.059-.083a.1.1,0,0,1,.164.117l-.058.081A.1.1,0,0,1,1019.085,600.335Zm19.15-.407a.1.1,0,0,1-.08-.04l-.061-.079a.1.1,0,0,1,.159-.124l.062.08a.1.1,0,0,1-.019.142A.1.1,0,0,1,1038.235,599.928Zm-18.473-.472a.1.1,0,0,1-.077-.166l.066-.077a.1.1,0,1,1,.153.132l-.065.076A.1.1,0,0,1,1019.762,599.456Zm17.759-.376a.1.1,0,0,1-.074-.032l-.068-.073a.1.1,0,1,1,.147-.138l.069.074a.1.1,0,0,1-.074.169Zm-17-.436a.1.1,0,0,1-.071-.173l.073-.071a.1.1,0,0,1,.14.146l-.071.069A.1.1,0,0,1,1020.518,598.644Zm16.213-.342a.1.1,0,0,1-.068-.026l-.074-.066a.1.1,0,1,1,.133-.151l.076.068a.1.1,0,0,1-.068.176Zm-15.385-.4a.1.1,0,0,1-.064-.179l.079-.064a.1.1,0,0,1,.125.158l-.077.062A.1.1,0,0,1,1021.345,597.905Zm14.525-.305a.1.1,0,0,1-.06-.02l-.081-.059a.1.1,0,0,1,.119-.163l.082.06a.1.1,0,0,1-.06.182Zm-13.632-.352a.1.1,0,0,1-.056-.185l.085-.056a.1.1,0,1,1,.11.169l-.083.055A.1.1,0,0,1,1022.239,597.248Zm12.711-.267a.1.1,0,0,1-.052-.015l-.086-.052a.1.1,0,1,1,.1-.173l.087.052a.1.1,0,0,1-.052.187Zm-11.76-.3a.1.1,0,0,1-.048-.19l.09-.048a.1.1,0,1,1,.094.179l-.088.047A.1.1,0,0,1,1023.19,596.677Zm10.786-.227a.1.1,0,0,1-.044-.01l-.09-.043a.1.1,0,0,1,.087-.182l.092.044a.1.1,0,0,1-.044.192Zm-9.785-.252a.1.1,0,0,1-.039-.194l.094-.039a.1.1,0,0,1,.077.187l-.092.038A.1.1,0,0,1,1024.191,596.2Zm8.765-.185a.1.1,0,0,1-.036-.006l-.094-.035a.1.1,0,1,1,.069-.19l.1.035a.1.1,0,0,1-.035.2Zm-7.724-.2a.1.1,0,0,1-.03-.2l.1-.03a.1.1,0,0,1,.059.193l-.1.03A.1.1,0,0,1,1025.232,595.817Zm6.668-.143a.1.1,0,0,1-.026,0l-.1-.026a.1.1,0,1,1,.051-.2l.1.026a.1.1,0,0,1-.026.2Zm-5.6-.14a.1.1,0,0,1-.021-.2l.1-.021a.1.1,0,1,1,.041.2l-.1.021Zm4.512-.1h-.017l-.1-.017a.1.1,0,0,1,.032-.2l.1.017a.1.1,0,0,1-.017.2Zm-3.418-.085a.1.1,0,0,1-.012-.2l.1-.012a.1.1,0,1,1,.022.2l-.1.012Zm2.317-.052h-.008l-.1-.007a.1.1,0,0,1,.014-.2l.1.007a.1.1,0,0,1-.008.2Zm-1.21-.03a.1.1,0,0,1,0-.2l.1,0h0a.1.1,0,0,1,0,.2l-.1,0Z" transform="translate(-1016.856 -595.064)" fill="#0d31c0"/>
      </g>
      <g id="Group_1158" data-name="Group 1158" transform="translate(0 0)">
        <path id="Path_2800" data-name="Path 2800" d="M1015.028,605.871a.05.05,0,0,1,0-.1l.1,0h0a.05.05,0,0,1,0,.1l-.1,0Zm-1.009-.009h0l-.1-.005a.05.05,0,1,1,.006-.1l.1.005a.05.05,0,0,1,0,.1Zm2.115-.072a.05.05,0,0,1-.006-.1l.1-.012a.05.05,0,0,1,.012.1l-.1.012Zm-3.22-.028h-.007l-.1-.014a.05.05,0,1,1,.014-.1l.1.014a.05.05,0,0,1-.007.1Zm4.316-.147a.05.05,0,0,1-.01-.1l.1-.02a.05.05,0,1,1,.021.1l-.1.021Zm-5.409-.046h-.011l-.1-.022a.051.051,0,0,1,.023-.1l.1.022a.05.05,0,0,1-.011.1Zm6.486-.222a.05.05,0,0,1-.014-.1l.1-.029a.051.051,0,1,1,.03.1l-.1.029Zm-7.557-.065-.015,0-.1-.031a.05.05,0,1,1,.031-.1l.1.03a.05.05,0,0,1-.015.1Zm8.607-.3a.05.05,0,0,1-.018-.1l.094-.037a.05.05,0,0,1,.037.094l-.094.037A.052.052,0,0,1,1019.358,604.987Zm-9.65-.082a.052.052,0,0,1-.019,0l-.093-.039a.05.05,0,0,1,.039-.093l.093.039a.05.05,0,0,1-.019.1Zm10.666-.367a.051.051,0,0,1-.045-.028.05.05,0,0,1,.023-.068l.09-.045a.05.05,0,1,1,.046.09l-.091.045A.049.049,0,0,1,1020.373,604.538Zm-11.672-.1a.051.051,0,0,1-.023-.006l-.09-.047a.05.05,0,0,1,.047-.089l.089.046a.05.05,0,0,1-.023.1Zm12.644-.436a.05.05,0,0,1-.026-.094l.086-.053a.05.05,0,1,1,.053.086l-.087.053A.049.049,0,0,1,1021.346,604Zm-13.606-.115a.05.05,0,0,1-.027-.008l-.085-.054a.05.05,0,1,1,.055-.085l.084.054a.05.05,0,0,1-.027.093Zm14.53-.5a.05.05,0,0,1-.03-.091l.081-.06a.051.051,0,1,1,.06.081l-.082.06A.051.051,0,0,1,1022.269,603.385Zm-15.44-.13a.049.049,0,0,1-.03-.01l-.08-.061a.05.05,0,1,1,.062-.08l.079.061a.05.05,0,0,1-.031.091Zm16.307-.565a.05.05,0,0,1-.033-.088l.076-.067a.05.05,0,1,1,.067.075l-.076.067A.05.05,0,0,1,1023.135,602.691Zm-17.161-.143a.05.05,0,0,1-.034-.013l-.075-.068a.05.05,0,0,1,.068-.074l.074.068a.05.05,0,0,1-.034.088Zm17.965-.622a.05.05,0,0,1-.035-.014.05.05,0,0,1,0-.071l.07-.073a.05.05,0,0,1,.073.07l-.07.073A.05.05,0,0,1,1023.939,601.926Zm-18.756-.156a.05.05,0,0,1-.037-.016l-.069-.074a.05.05,0,1,1,.074-.068l.069.074a.051.051,0,0,1-.037.085Zm19.492-.674a.049.049,0,0,1-.032-.011.051.051,0,0,1-.007-.071l.063-.078a.05.05,0,1,1,.079.063l-.064.079A.049.049,0,0,1,1024.675,601.1Zm-20.214-.169a.051.051,0,0,1-.04-.019l-.062-.08a.05.05,0,1,1,.08-.062l.062.08a.05.05,0,0,1-.039.082Zm20.877-.72a.049.049,0,0,1-.028-.009.05.05,0,0,1-.013-.07l.056-.083a.051.051,0,0,1,.084.056l-.057.084A.05.05,0,0,1,1025.337,600.206Zm-21.525-.181a.051.051,0,0,1-.042-.023l-.055-.085a.051.051,0,0,1,.085-.055l.055.084a.05.05,0,0,1-.015.07A.049.049,0,0,1,1003.813,600.025Zm22.108-.761a.05.05,0,0,1-.025-.006.051.051,0,0,1-.019-.069l.049-.088a.05.05,0,0,1,.089.049l-.049.088A.051.051,0,0,1,1025.92,599.264Zm-22.676-.193a.05.05,0,0,1-.044-.027l-.048-.09a.05.05,0,0,1,.089-.047l.047.089a.051.051,0,0,1-.021.068A.051.051,0,0,1,1003.245,599.071Zm23.176-.8a.05.05,0,0,1-.021,0,.051.051,0,0,1-.025-.067l.041-.092a.05.05,0,0,1,.092.041l-.041.092A.051.051,0,0,1,1026.42,598.274Zm-23.659-.2a.05.05,0,0,1-.046-.031l-.04-.093a.05.05,0,1,1,.093-.039l.039.093a.05.05,0,0,1-.026.066A.049.049,0,0,1,1002.761,598.071Zm24.071-.827a.049.049,0,0,1-.017,0,.05.05,0,0,1-.031-.064l.033-.095a.05.05,0,0,1,.1.033l-.033.1A.05.05,0,0,1,1026.833,597.244Zm-24.466-.21a.05.05,0,0,1-.048-.035l-.032-.1a.05.05,0,0,1,.1-.031l.031.1a.051.051,0,0,1-.032.064Zm24.789-.851-.013,0a.051.051,0,0,1-.036-.061l.025-.1a.05.05,0,1,1,.1.024l-.025.1A.051.051,0,0,1,1027.155,596.183Zm-25.093-.216a.05.05,0,0,1-.049-.039l-.023-.1a.051.051,0,0,1,.1-.023l.023.1a.051.051,0,0,1-.037.061Zm25.323-.869h-.008a.051.051,0,0,1-.042-.058l.016-.1a.05.05,0,0,1,.058-.042.051.051,0,0,1,.042.058l-.016.1A.05.05,0,0,1,1027.385,595.1Zm-25.535-.22a.05.05,0,0,1-.05-.043l-.015-.1a.05.05,0,1,1,.1-.014l.015.1a.05.05,0,0,1-.042.057Zm25.671-.88h0a.05.05,0,0,1-.046-.054l.008-.1a.05.05,0,0,1,.054-.047.05.05,0,0,1,.047.054l-.008.1A.05.05,0,0,1,1027.522,594Zm-25.789-.223a.051.051,0,0,1-.05-.047l-.006-.1a.05.05,0,0,1,.048-.053.049.049,0,0,1,.053.048l.006.1a.05.05,0,0,1-.047.054Zm25.831-.886a.051.051,0,0,1-.051-.05v-.1a.051.051,0,0,1,.05-.051h0a.051.051,0,0,1,.051.05v.1a.05.05,0,0,1-.05.051Zm-25.854-.224h0a.05.05,0,0,1-.05-.051l0-.1a.053.053,0,0,1,.052-.049.05.05,0,0,1,.049.052l0,.1A.05.05,0,0,1,1001.71,592.664Zm25.8-.885a.051.051,0,0,1-.05-.046l-.009-.1a.051.051,0,0,1,.045-.055.052.052,0,0,1,.055.045l.009.1a.051.051,0,0,1-.046.055Zm-25.73-.222h-.006a.05.05,0,0,1-.045-.056l.011-.1a.05.05,0,0,1,.1.011l-.011.1A.051.051,0,0,1,1001.782,591.557Zm25.583-.878a.05.05,0,0,1-.05-.042l-.018-.1a.05.05,0,1,1,.1-.018l.018.1a.05.05,0,0,1-.041.059Zm-25.417-.219h-.01a.051.051,0,0,1-.04-.059l.02-.1a.051.051,0,0,1,.06-.039.05.05,0,0,1,.039.059l-.02.1A.05.05,0,0,1,1001.947,590.46Zm25.177-.864a.05.05,0,0,1-.049-.037l-.026-.1a.051.051,0,0,1,.1-.027l.027.1a.05.05,0,0,1-.036.062Zm-24.918-.215-.014,0a.05.05,0,0,1-.035-.062l.028-.1a.05.05,0,1,1,.1.028l-.028.1A.05.05,0,0,1,1002.206,589.381Zm24.585-.844a.05.05,0,0,1-.047-.033l-.035-.095a.05.05,0,1,1,.095-.035l.035.1a.05.05,0,0,1-.03.065A.048.048,0,0,1,1026.791,588.537Zm-24.234-.208a.05.05,0,0,1-.047-.068l.037-.094a.05.05,0,1,1,.094.037l-.036.094A.051.051,0,0,1,1002.557,588.329Zm23.812-.818a.05.05,0,0,1-.046-.029l-.043-.091a.05.05,0,0,1,.091-.043l.043.092a.05.05,0,0,1-.024.067A.052.052,0,0,1,1026.369,587.511Zm-23.372-.2a.051.051,0,0,1-.022-.005.05.05,0,0,1-.023-.067l.044-.091a.05.05,0,1,1,.09.045l-.044.09A.05.05,0,0,1,1003,587.311Zm22.862-.786a.05.05,0,0,1-.044-.025l-.051-.087a.051.051,0,0,1,.087-.051l.051.088a.05.05,0,0,1-.019.069A.049.049,0,0,1,1025.859,586.525Zm-22.336-.19a.05.05,0,0,1-.043-.076l.052-.087a.05.05,0,0,1,.086.052l-.052.086A.05.05,0,0,1,1003.523,586.335Zm21.743-.749a.05.05,0,0,1-.041-.022l-.058-.083a.05.05,0,0,1,.083-.058l.058.083a.05.05,0,0,1-.042.079Zm-21.134-.178a.05.05,0,0,1-.041-.08l.059-.082a.05.05,0,1,1,.081.06l-.059.081A.05.05,0,0,1,1004.131,585.408Zm20.462-.706a.051.051,0,0,1-.039-.018l-.065-.077a.05.05,0,0,1,.077-.065l.065.078a.051.051,0,0,1-.007.071A.05.05,0,0,1,1024.594,584.7Zm-19.776-.166a.051.051,0,0,1-.038-.083l.067-.077a.05.05,0,1,1,.076.067l-.066.076A.051.051,0,0,1,1004.817,584.536Zm19.031-.658a.05.05,0,0,1-.036-.015l-.071-.071a.05.05,0,0,1,.071-.071l.071.072a.051.051,0,0,1-.036.086Zm-18.273-.152a.05.05,0,0,1-.036-.086l.073-.071a.05.05,0,1,1,.07.072l-.072.07A.051.051,0,0,1,1005.575,583.726Zm18.119,0a.051.051,0,0,1-.035-.014l-.072-.07a.05.05,0,1,1,.07-.073l.072.07a.05.05,0,0,1-.035.087Zm-17.3-.743a.05.05,0,0,1-.032-.089l.078-.064a.05.05,0,1,1,.064.078l-.078.064A.05.05,0,0,1,1006.4,582.982Zm16.472,0a.051.051,0,0,1-.032-.012l-.078-.064a.05.05,0,0,1,.064-.078l.078.064a.05.05,0,0,1-.032.089Zm-.883-.67a.05.05,0,0,1-.029-.009l-.083-.057a.05.05,0,1,1,.057-.083l.083.057a.05.05,0,0,1-.029.092Zm-14.7,0a.05.05,0,0,1-.029-.092l.084-.057a.05.05,0,1,1,.057.083l-.083.057A.051.051,0,0,1,1007.284,582.311Zm13.766-.591a.05.05,0,0,1-.025-.007l-.087-.049a.05.05,0,1,1,.049-.088l.088.05a.051.051,0,0,1-.025.094Zm-12.827,0a.05.05,0,0,1-.025-.094l.089-.05a.05.05,0,0,1,.049.088l-.088.05A.051.051,0,0,1,1008.223,581.718Zm11.842-.507a.049.049,0,0,1-.021,0l-.091-.042a.05.05,0,0,1,.042-.092l.092.042a.05.05,0,0,1-.021.1Zm-10.855,0a.05.05,0,0,1-.021-.1l.092-.042a.05.05,0,0,1,.042.092l-.091.042A.051.051,0,0,1,1009.21,581.21Zm9.829-.42a.049.049,0,0,1-.017,0l-.095-.034a.05.05,0,1,1,.034-.1l.095.034a.05.05,0,0,1-.017.1Zm-8.8,0a.051.051,0,0,1-.017-.1l.1-.034a.05.05,0,1,1,.034.1l-.095.034A.048.048,0,0,1,1010.237,580.788Zm7.744-.33-.013,0-.1-.026a.05.05,0,1,1,.025-.1l.1.026a.05.05,0,0,1-.013.1Zm-6.684,0a.05.05,0,0,1-.013-.1l.1-.026a.05.05,0,0,1,.025.1l-.1.025Zm5.6-.238h-.009l-.1-.017a.051.051,0,0,1-.041-.058.051.051,0,0,1,.058-.041l.1.017a.05.05,0,0,1-.009.1Zm-4.518,0a.05.05,0,0,1-.009-.1l.1-.017a.051.051,0,0,1,.017.1l-.1.017Zm3.418-.145h0l-.1-.009a.051.051,0,0,1-.046-.055.053.053,0,0,1,.054-.046l.1.009a.05.05,0,0,1,0,.1Zm-2.318,0a.05.05,0,0,1,0-.1l.1-.009a.051.051,0,0,1,.054.046.05.05,0,0,1-.046.054l-.1.009Zm1.21-.051h-.1a.05.05,0,0,1,0-.1h.1a.05.05,0,0,1,0,.1Z" transform="translate(-1001.66 -579.919)" fill="#0d31c0"/>
      </g>
    </g>
    <g id="Group_2683" data-name="Group 2683" transform="translate(366.948 1248.065) rotate(45)">
      <g id="Group_1041" data-name="Group 1041" transform="translate(4.056 0)">
        <path id="Path_2742" data-name="Path 2742" d="M21.106,4.253,16.853,0l-6.3,6.3L4.253,0,0,4.253l6.3,6.3L0,16.853l4.253,4.253,6.3-6.3,6.3,6.3,4.253-4.253-6.3-6.3Z" transform="translate(0 0)" fill="#03297e"/>
      </g>
      <g id="Group_1044" data-name="Group 1044" transform="translate(0 1.67)">
        <g id="Group_1042" data-name="Group 1042" transform="translate(0.313 0.313)">
          <path id="Path_2743" data-name="Path 2743" d="M0,16.54,6.143,10.4a.221.221,0,0,0,0-.313L4.618,8.56l-.345-.346L4.261,8.2,3.42,7.361,3.1,7.045l-.712-.711-.315-.316L0,3.941,3.941,0,8.755,4.814l.271.272.484.483.27.271.3.3a.221.221,0,0,0,.313,0L16.54,0l1.455,1.455.315.316,2.17,2.17L17.172,7.248l-2.835,2.836a.221.221,0,0,0,0,.313l6.143,6.143-1.813,1.813-.874.875-1.245,1.245-.008.007L10.4,14.337a.221.221,0,0,0-.313,0L8.031,16.389l-.884.885-.353.352-.918.918-.775.776-1.16,1.16Z" transform="translate(0 0)" fill="#fff"/>
        </g>
        <g id="Group_1043" data-name="Group 1043" transform="translate(0 0)">
          <path id="Path_2744" data-name="Path 2744" d="M4.253.626,8.91,5.283l.272.273.482.482.271.272.3.3a.443.443,0,0,0,.626,0l.424-.424.317-.317L12.669,4.81l.895-.895.355-.355.492-.492.857-.857L16.853.626l1.3,1.3.316.316,1.027,1.027.721.721.266.266L17.327,7.406,16.036,8.7l0,0-1.539,1.539a.443.443,0,0,0,0,.626l.127.127.407.407,1.07,1.07.334.334,1.663,1.663.279.279,1.211,1.211.729.729.167.167-1.338,1.338-.319.319-.566.567-.307.307-1.1,1.1-.688-.688-.374-.374-1.677-1.677-.273-.273-2.975-2.975a.443.443,0,0,0-.626,0l-.674.674-.053.053-.265.265-.743.743-.318.318L7.3,17.43l-.354.353-.918.918-.3.3-.173.174-.3.3-1,1-.271-.271-.316-.316L1.611,17.837.9,17.127l-.274-.274,3.166-3.166,2.82-2.82a.443.443,0,0,0,0-.626L5.088,8.717,4.743,8.37l-.017-.017L3.89,7.518,3.573,7.2l-.711-.71-.316-.316L.808,4.435.626,4.253,4.253.626ZM16.853,0l-1.9,1.9-.857.857-.492.492-.355.355-.895.895L11.294,5.559l-.317.317-.424.424-.3-.3-.271-.272-.483-.482L9.224,4.97,4.253,0,3.987.266,0,4.253l.178.178.317.317L2.233,6.487l.315.316.712.711.316.317.852.852h0l.345.346L6.3,10.554l-2.82,2.82L0,16.853l.271.271.316.316.711.711,2.055,2.056.316.316.584.584L5.57,19.79l.3-.3.173-.174.3-.3.918-.918.353-.352.884-.885.318-.318.743-.743h0l.264-.264.053-.053.674-.674,2.975,2.975.273.273,1.677,1.677.374.374.964.964.037.037L17,20.954l0,0L18.262,19.7l.307-.307.567-.567.319-.319,1.651-1.651-.158-.159-.321-.321-.729-.728-1.211-1.211-.279-.279-1.663-1.663-.334-.334-1.07-1.07-.407-.407-.127-.127,1.539-1.539h0L17.64,7.719l0,0,3.464-3.464-.258-.258-.32-.32-.721-.721L18.779,1.927l-.315-.316L16.853,0Z" fill="#03297e"/>
        </g>
      </g>
      <g id="Group_1045" data-name="Group 1045" transform="translate(4.253 16.476)">
        <path id="Path_2745" data-name="Path 2745" d="M0,6.3,4.056,4.63,7.484,1.186,6.3,0Z" transform="translate(0 0)" fill="#fb5f88"/>
      </g>
      <g id="Group_1046" data-name="Group 1046" transform="translate(16.852 16.853)">
        <path id="Path_2746" data-name="Path 2746" d="M0,5.923l4.056-1.67L8.309,0,4.253,1.67Z" transform="translate(0 0)" fill="#fb5f88"/>
      </g>
      <g id="Group_1047" data-name="Group 1047" transform="translate(4.253 0)">
        <path id="Path_2747" data-name="Path 2747" d="M0,1.67,4.056,0,9.165,5.1,6.3,7.97Z" transform="translate(0 0)" fill="#ffd300"/>
      </g>
      <g id="Group_1048" data-name="Group 1048" transform="translate(16.852 0)">
        <path id="Path_2748" data-name="Path 2748" d="M0,1.67,4.056,0,8.309,4.253,4.253,5.923Z" transform="translate(0 0)" fill="#ffd300"/>
      </g>
      <g id="Group_1148" data-name="Group 1148" transform="translate(0.991 3.014)">
        <g id="Group_1053" data-name="Group 1053" transform="translate(2.358 3.809)">
          <g id="Group_1050" data-name="Group 1050" transform="translate(0 0.332)">
            <g id="Group_1049" data-name="Group 1049" transform="translate(0 0)">
              <path id="Path_2749" data-name="Path 2749" d="M.884,2.238A.194.194,0,0,1,.7,2.116L.011.242A.18.18,0,0,1,.13.01.2.2,0,0,1,.377.123L1.068,2a.18.18,0,0,1-.12.232A.2.2,0,0,1,.884,2.238Z" fill="#03297e"/>
            </g>
          </g>
          <g id="Group_1052" data-name="Group 1052" transform="translate(1.018 0)">
            <g id="Group_1051" data-name="Group 1051" transform="translate(0 0)">
              <path id="Path_2750" data-name="Path 2750" d="M.884,2.238A.194.194,0,0,1,.7,2.116L.011.243A.18.18,0,0,1,.131.01.2.2,0,0,1,.377.123L1.068,2a.18.18,0,0,1-.12.232A.2.2,0,0,1,.884,2.238Z" fill="#03297e"/>
            </g>
          </g>
        </g>
        <g id="Group_1058" data-name="Group 1058" transform="translate(4.794 11.495)">
          <g id="Group_1055" data-name="Group 1055" transform="translate(0.395 0)">
            <g id="Group_1054" data-name="Group 1054" transform="translate(0 0)">
              <path id="Path_2751" data-name="Path 2751" d="M2.153,1.093a.205.205,0,0,1-.071-.013L.123.353A.179.179,0,0,1,.014.116a.2.2,0,0,1,.252-.1L2.225.74a.179.179,0,0,1,.109.237A.194.194,0,0,1,2.153,1.093Z" fill="#03297e"/>
            </g>
          </g>
          <g id="Group_1057" data-name="Group 1057" transform="translate(0 0.944)">
            <g id="Group_1056" data-name="Group 1056" transform="translate(0 0)">
              <path id="Path_2752" data-name="Path 2752" d="M2.154,1.093a.2.2,0,0,1-.071-.013L.123.353A.179.179,0,0,1,.014.116a.2.2,0,0,1,.252-.1L2.225.74a.179.179,0,0,1,.109.237A.194.194,0,0,1,2.154,1.093Z" fill="#03297e"/>
            </g>
          </g>
        </g>
        <g id="Group_1063" data-name="Group 1063" transform="translate(2.631 0)">
          <g id="Group_1060" data-name="Group 1060" transform="translate(0.224 0.941)">
            <g id="Group_1059" data-name="Group 1059" transform="translate(0 0)">
              <path id="Path_2753" data-name="Path 2753" d="M.194.777A.192.192,0,0,1,0,.632.183.183,0,0,1,.154.416L2.214,0a.2.2,0,0,1,.23.141.183.183,0,0,1-.149.217L.234.773A.206.206,0,0,1,.194.777Z" fill="#03297e"/>
            </g>
          </g>
          <g id="Group_1062" data-name="Group 1062" transform="translate(0 0)">
            <g id="Group_1061" data-name="Group 1061" transform="translate(0 0)">
              <path id="Path_2754" data-name="Path 2754" d="M2.288.312.234.721a.21.21,0,0,1-.041,0A.192.192,0,0,1,0,.581.183.183,0,0,1,.154.364L1.977,0Z" fill="#03297e"/>
            </g>
          </g>
        </g>
        <g id="Group_1068" data-name="Group 1068" transform="translate(2.892 14.157)">
          <g id="Group_1065" data-name="Group 1065" transform="translate(0 0)">
            <g id="Group_1064" data-name="Group 1064">
              <path id="Path_2755" data-name="Path 2755" d="M.194,2.108A.2.2,0,0,1,.1,2.086a.177.177,0,0,1-.078-.248L1.027.1A.2.2,0,0,1,1.29.022.177.177,0,0,1,1.369.27l-1,1.743A.2.2,0,0,1,.194,2.108Z" fill="#03297e"/>
            </g>
          </g>
          <g id="Group_1067" data-name="Group 1067" transform="translate(0.947 0.483)">
            <g id="Group_1066" data-name="Group 1066" transform="translate(0 0)">
              <path id="Path_2756" data-name="Path 2756" d="M.194,2.108A.2.2,0,0,1,.1,2.086a.177.177,0,0,1-.078-.248L1.027.1A.2.2,0,0,1,1.291.022.177.177,0,0,1,1.369.27l-1,1.743A.2.2,0,0,1,.194,2.108Z" fill="#03297e"/>
            </g>
          </g>
        </g>
        <g id="Group_1073" data-name="Group 1073" transform="translate(10.115 9.911)">
          <g id="Group_1070" data-name="Group 1070" transform="translate(0 0.352)">
            <g id="Group_1069" data-name="Group 1069" transform="translate(0 0)">
              <path id="Path_2757" data-name="Path 2757" d="M.925,2.225a.194.194,0,0,1-.182-.119L.012.246A.18.18,0,0,1,.127.011.2.2,0,0,1,.376.119l.731,1.859a.18.18,0,0,1-.115.235A.2.2,0,0,1,.925,2.225Z" fill="#03297e"/>
            </g>
          </g>
          <g id="Group_1072" data-name="Group 1072" transform="translate(1.011 0)">
            <g id="Group_1071" data-name="Group 1071" transform="translate(0 0)">
              <path id="Path_2758" data-name="Path 2758" d="M.925,2.225a.194.194,0,0,1-.182-.119L.012.246A.18.18,0,0,1,.127.011.2.2,0,0,1,.376.119l.731,1.859a.18.18,0,0,1-.115.235A.206.206,0,0,1,.925,2.225Z" fill="#03297e"/>
            </g>
          </g>
        </g>
        <g id="Group_1078" data-name="Group 1078" transform="translate(12.537 15.483)">
          <g id="Group_1075" data-name="Group 1075" transform="translate(0 0)">
            <g id="Group_1074" data-name="Group 1074" transform="translate(0 0)">
              <path id="Path_2759" data-name="Path 2759" d="M1.845.339.273,1.226,0,.954,1.646.026a.2.2,0,0,1,.266.063A.177.177,0,0,1,1.845.339Z" fill="#03297e"/>
            </g>
          </g>
          <g id="Group_1077" data-name="Group 1077" transform="translate(0.757 0.87)">
            <g id="Group_1076" data-name="Group 1076" transform="translate(0 0)">
              <path id="Path_2760" data-name="Path 2760" d="M1.642.339l-1.37.773L0,.84,1.443.026a.2.2,0,0,1,.266.063A.177.177,0,0,1,1.642.339Z" transform="translate(0)" fill="#03297e"/>
            </g>
          </g>
        </g>
        <g id="Group_1083" data-name="Group 1083" transform="translate(12.483 0.553)">
          <g id="Group_1080" data-name="Group 1080" transform="translate(0.624 0)">
            <g id="Group_1079" data-name="Group 1079" transform="translate(0 0)">
              <path id="Path_2761" data-name="Path 2761" d="M.923.336,0,.857.857,0A.19.19,0,0,1,.99.086.177.177,0,0,1,.923.336Z" fill="#03297e"/>
            </g>
          </g>
          <g id="Group_1082" data-name="Group 1082" transform="translate(0 0.867)">
            <g id="Group_1081" data-name="Group 1081" transform="translate(0 0)">
              <path id="Path_2762" data-name="Path 2762" d="M.194,1.384A.2.2,0,0,1,.028,1.3a.177.177,0,0,1,.067-.25L1.9.026a.2.2,0,0,1,.266.063A.177.177,0,0,1,2.1.339L.294,1.358A.2.2,0,0,1,.194,1.384Z" fill="#03297e"/>
            </g>
          </g>
        </g>
        <g id="Group_1088" data-name="Group 1088" transform="translate(15.273 1.943)">
          <g id="Group_1085" data-name="Group 1085" transform="translate(0 0.663)">
            <g id="Group_1084" data-name="Group 1084" transform="translate(0 0)">
              <path id="Path_2763" data-name="Path 2763" d="M1.61,1.829a.2.2,0,0,1-.066.177.177.177,0,0,1-.257-.033L.041.313A.2.2,0,0,1,.068.041.177.177,0,0,1,.325.074L1.571,1.733A.2.2,0,0,1,1.61,1.829Z" fill="#03297e"/>
            </g>
          </g>
          <g id="Group_1087" data-name="Group 1087" transform="translate(0.79 0)">
            <g id="Group_1086" data-name="Group 1086" transform="translate(0 0)">
              <path id="Path_2764" data-name="Path 2764" d="M1.61,1.829a.2.2,0,0,1-.066.177.177.177,0,0,1-.257-.033L.04.313A.2.2,0,0,1,.068.041.177.177,0,0,1,.325.075L1.571,1.733A.2.2,0,0,1,1.61,1.829Z" fill="#03297e"/>
            </g>
          </g>
        </g>
        <g id="Group_1093" data-name="Group 1093" transform="translate(16.869 15.77)">
          <g id="Group_1090" data-name="Group 1090" transform="translate(0 0.239)">
            <g id="Group_1089" data-name="Group 1089" transform="translate(0 0)">
              <path id="Path_2765" data-name="Path 2765" d="M.709,2.035.4,2.343a.184.184,0,0,1-.026-.066L0,.237A.2.2,0,0,1,.149,0,.178.178,0,0,1,.365.15Z" fill="#03297e"/>
            </g>
          </g>
          <g id="Group_1092" data-name="Group 1092" transform="translate(1.003 0)">
            <g id="Group_1091" data-name="Group 1091" transform="translate(0 0)">
              <path id="Path_2766" data-name="Path 2766" d="M.591,1.389l-.319.319L0,.236A.2.2,0,0,1,.149,0,.176.176,0,0,1,.364.15Z" fill="#03297e"/>
            </g>
          </g>
        </g>
        <g id="Group_1098" data-name="Group 1098" transform="translate(11.168 5.827)">
          <g id="Group_1095" data-name="Group 1095" transform="translate(0 0.938)">
            <g id="Group_1094" data-name="Group 1094" transform="translate(0 0)">
              <path id="Path_2767" data-name="Path 2767" d="M2.142,1.12a.2.2,0,0,1-.074-.014L.12.351A.179.179,0,0,1,.015.113a.2.2,0,0,1,.253-.1L2.216.769a.179.179,0,0,1,.106.238A.2.2,0,0,1,2.142,1.12Z" fill="#03297e"/>
            </g>
          </g>
          <g id="Group_1097" data-name="Group 1097" transform="translate(0.41 0)">
            <g id="Group_1096" data-name="Group 1096" transform="translate(0 0)">
              <path id="Path_2768" data-name="Path 2768" d="M2.142,1.12a.2.2,0,0,1-.074-.014L.12.351A.179.179,0,0,1,.015.113a.2.2,0,0,1,.253-.1L2.216.769a.179.179,0,0,1,.105.238A.2.2,0,0,1,2.142,1.12Z" fill="#03297e"/>
            </g>
          </g>
        </g>
        <g id="Group_1103" data-name="Group 1103" transform="translate(7.511 3.626)">
          <g id="Group_1100" data-name="Group 1100" transform="translate(0.88 0.754)">
            <g id="Group_1099" data-name="Group 1099" transform="translate(0 0)">
              <path id="Path_2769" data-name="Path 2769" d="M.867.272.353.958a.2.2,0,0,1-.158.077A.2.2,0,0,1,.082,1,.175.175,0,0,1,.036.747L.6,0Z" fill="#03297e"/>
            </g>
          </g>
          <g id="Group_1102" data-name="Group 1102" transform="translate(0 0)">
            <g id="Group_1101" data-name="Group 1101" transform="translate(0 0)">
              <path id="Path_2770" data-name="Path 2770" d="M.993.272l-.641.855A.2.2,0,0,1,.194,1.2a.2.2,0,0,1-.112-.033A.176.176,0,0,1,.036.916L.722,0Z" fill="#03297e"/>
            </g>
          </g>
        </g>
        <g id="Group_1108" data-name="Group 1108" transform="translate(13.487 11.753)">
          <g id="Group_1105" data-name="Group 1105" transform="translate(0 0)">
            <g id="Group_1104" data-name="Group 1104">
              <path id="Path_2771" data-name="Path 2771" d="M.194,1.633a.2.2,0,0,1-.149-.066A.175.175,0,0,1,.07,1.31L1.69.042a.2.2,0,0,1,.273.024.175.175,0,0,1-.025.257L.318,1.591A.2.2,0,0,1,.194,1.633Z" fill="#03297e"/>
            </g>
          </g>
          <g id="Group_1107" data-name="Group 1107" transform="translate(0.689 0.78)">
            <g id="Group_1106" data-name="Group 1106" transform="translate(0 0)">
              <path id="Path_2772" data-name="Path 2772" d="M.194,1.633a.2.2,0,0,1-.149-.066A.175.175,0,0,1,.07,1.31L1.69.042a.2.2,0,0,1,.273.024.175.175,0,0,1-.025.257L.318,1.59A.2.2,0,0,1,.194,1.633Z" fill="#03297e"/>
            </g>
          </g>
        </g>
        <g id="Group_1113" data-name="Group 1113" transform="translate(6.215 7.365)">
          <g id="Group_1110" data-name="Group 1110" transform="translate(1.046 0)">
            <g id="Group_1109" data-name="Group 1109" transform="translate(0 0)">
              <path id="Path_2773" data-name="Path 2773" d="M.706,2.288A.192.192,0,0,1,.518,2.15L.006.227A.182.182,0,0,1,.147.005.2.2,0,0,1,.382.138L.894,2.061a.182.182,0,0,1-.141.221A.207.207,0,0,1,.706,2.288Z" fill="#03297e"/>
            </g>
          </g>
          <g id="Group_1112" data-name="Group 1112" transform="translate(0 0.246)">
            <g id="Group_1111" data-name="Group 1111" transform="translate(0 0)">
              <path id="Path_2774" data-name="Path 2774" d="M.706,2.288A.192.192,0,0,1,.518,2.15L.006.227A.182.182,0,0,1,.147.006.2.2,0,0,1,.382.138L.894,2.061a.182.182,0,0,1-.141.222A.207.207,0,0,1,.706,2.288Z" fill="#03297e"/>
            </g>
          </g>
        </g>
        <g id="Group_1115" data-name="Group 1115" transform="translate(4.278 10.234)">
          <g id="Group_1114" data-name="Group 1114" transform="translate(0 0)">
            <path id="Path_2775" data-name="Path 2775" d="M.349.657H.384a.372.372,0,0,0,.247-.1.325.325,0,0,0,.1-.232A.323.323,0,0,0,.631.1.375.375,0,0,0,.384,0H.349A.372.372,0,0,0,.1.1.324.324,0,0,0,0,.329.323.323,0,0,0,.1.561a.375.375,0,0,0,.247.1Z" fill="#03297e"/>
          </g>
        </g>
        <g id="Group_1117" data-name="Group 1117" transform="translate(5.631 5.072)">
          <g id="Group_1116" data-name="Group 1116" transform="translate(0 0)">
            <path id="Path_2776" data-name="Path 2776" d="M.349.657H.384a.372.372,0,0,0,.247-.1.324.324,0,0,0,.1-.232A.322.322,0,0,0,.631.1.375.375,0,0,0,.384,0H.349A.372.372,0,0,0,.1.1.324.324,0,0,0,0,.329.322.322,0,0,0,.1.561a.375.375,0,0,0,.247.1Z" fill="#03297e"/>
          </g>
        </g>
        <g id="Group_1119" data-name="Group 1119" transform="translate(10.591 8.578)">
          <g id="Group_1118" data-name="Group 1118" transform="translate(0 0)">
            <path id="Path_2777" data-name="Path 2777" d="M0,.329V.361A.329.329,0,0,0,.1.594.365.365,0,0,0,.6.594.332.332,0,0,0,.7.361V.329A.329.329,0,0,0,.6.1.365.365,0,0,0,.1.1.332.332,0,0,0,0,.329Z" fill="#03297e"/>
          </g>
        </g>
        <g id="Group_1121" data-name="Group 1121" transform="translate(0.87 2.591)">
          <g id="Group_1120" data-name="Group 1120" transform="translate(0 0)">
            <path id="Path_2778" data-name="Path 2778" d="M0,.329V.361A.329.329,0,0,0,.1.594.365.365,0,0,0,.6.594.332.332,0,0,0,.7.361V.329A.329.329,0,0,0,.6.1.365.365,0,0,0,.1.1.332.332,0,0,0,0,.329Z" fill="#03297e"/>
          </g>
        </g>
        <g id="Group_1123" data-name="Group 1123" transform="translate(4.956 2.732)">
          <g id="Group_1122" data-name="Group 1122" transform="translate(0 0)">
            <path id="Path_2779" data-name="Path 2779" d="M0,.329V.361A.329.329,0,0,0,.1.594.365.365,0,0,0,.6.594.332.332,0,0,0,.7.361V.329A.329.329,0,0,0,.6.1.365.365,0,0,0,.1.1.332.332,0,0,0,0,.329Z" fill="#03297e"/>
          </g>
        </g>
        <g id="Group_1125" data-name="Group 1125" transform="translate(15.662 0.196)">
          <g id="Group_1124" data-name="Group 1124" transform="translate(0 0)">
            <path id="Path_2780" data-name="Path 2780" d="M0,.329V.361A.329.329,0,0,0,.1.594.365.365,0,0,0,.6.594.332.332,0,0,0,.7.361V.329A.329.329,0,0,0,.6.1.365.365,0,0,0,.1.1.332.332,0,0,0,0,.329Z" fill="#03297e"/>
          </g>
        </g>
        <g id="Group_1127" data-name="Group 1127" transform="translate(18.268 2.239)">
          <g id="Group_1126" data-name="Group 1126" transform="translate(0 0)">
            <path id="Path_2781" data-name="Path 2781" d="M0,.329V.361A.329.329,0,0,0,.1.594.365.365,0,0,0,.6.594.332.332,0,0,0,.7.361V.329A.329.329,0,0,0,.6.1.365.365,0,0,0,.1.1.332.332,0,0,0,0,.329Z" fill="#03297e"/>
          </g>
        </g>
        <g id="Group_1129" data-name="Group 1129" transform="translate(15.592 14.917)">
          <g id="Group_1128" data-name="Group 1128" transform="translate(0 0)">
            <path id="Path_2782" data-name="Path 2782" d="M0,.329V.361A.329.329,0,0,0,.1.594.365.365,0,0,0,.6.594.332.332,0,0,0,.7.361V.329A.329.329,0,0,0,.6.1.365.365,0,0,0,.1.1.332.332,0,0,0,0,.329Z" fill="#03297e"/>
          </g>
        </g>
        <g id="Group_1131" data-name="Group 1131" transform="translate(17 12.804)">
          <g id="Group_1130" data-name="Group 1130" transform="translate(0 0)">
            <path id="Path_2783" data-name="Path 2783" d="M.7.329V.361A.328.328,0,0,1,.6.593.364.364,0,0,1,.1.593.327.327,0,0,1,0,.361V.329A.33.33,0,0,1,.1.1.363.363,0,0,1,.35,0,.287.287,0,0,1,.416.006L.695.284A.256.256,0,0,1,.7.329Z" fill="#03297e"/>
          </g>
        </g>
        <g id="Group_1133" data-name="Group 1133" transform="translate(11.192 13.625)">
          <g id="Group_1132" data-name="Group 1132" transform="translate(0 0)">
            <path id="Path_2784" data-name="Path 2784" d="M.337.657A.329.329,0,1,0,.337,0a.329.329,0,1,0,0,.657Z" fill="#03297e"/>
          </g>
        </g>
        <g id="Group_1135" data-name="Group 1135" transform="translate(8.531 10.916)">
          <g id="Group_1134" data-name="Group 1134" transform="translate(0 0)">
            <path id="Path_2785" data-name="Path 2785" d="M.349.657H.384a.372.372,0,0,0,.247-.1.324.324,0,0,0,.1-.232A.322.322,0,0,0,.631.1.375.375,0,0,0,.384,0H.349A.372.372,0,0,0,.1.1.324.324,0,0,0,0,.329.322.322,0,0,0,.1.561a.375.375,0,0,0,.247.1Z" fill="#03297e"/>
          </g>
        </g>
        <g id="Group_1137" data-name="Group 1137" transform="translate(12.832 4.098)">
          <g id="Group_1136" data-name="Group 1136" transform="translate(0 0)">
            <path id="Path_2786" data-name="Path 2786" d="M.7.426V.415L.688.5A.087.087,0,0,1,.695.481L.66.56A.182.182,0,0,1,.678.532L.623.6A.262.262,0,0,1,.657.567L.586.618.6.612a.258.258,0,0,0,.1-.085A.243.243,0,0,0,.756.416.319.319,0,0,0,.721.162.35.35,0,0,0,.512.011.357.357,0,0,0,.243.044.607.607,0,0,0,.071.2.433.433,0,0,0,0,.426.319.319,0,0,0,.1.658.365.365,0,0,0,.6.658L.652.591A.313.313,0,0,0,.7.426Z" fill="#03297e"/>
          </g>
        </g>
        <g id="Group_1139" data-name="Group 1139" transform="translate(1.177 17.173)">
          <g id="Group_1138" data-name="Group 1138" transform="translate(0 0)">
            <path id="Path_2787" data-name="Path 2787" d="M.337.657A.329.329,0,1,0,.337,0a.329.329,0,1,0,0,.657Z" fill="#03297e"/>
          </g>
        </g>
        <g id="Group_1141" data-name="Group 1141" transform="translate(0 14.844)">
          <g id="Group_1140" data-name="Group 1140" transform="translate(0 0)">
            <path id="Path_2788" data-name="Path 2788" d="M.7.394V.384L.687.471a.075.075,0,0,1,0-.018L.656.532A.1.1,0,0,1,.67.508L.616.575.631.561a.321.321,0,0,0,.1-.232A.325.325,0,0,0,.631.1.363.363,0,0,0,.384,0L.291.012A.355.355,0,0,0,.137.1.4.4,0,0,0,0,.394.342.342,0,0,0,.35.723.347.347,0,0,0,.7.394Z" fill="#03297e"/>
          </g>
        </g>
        <g id="Group_1143" data-name="Group 1143" transform="translate(8.106 13.806)">
          <g id="Group_1142" data-name="Group 1142" transform="translate(0 0)">
            <path id="Path_2789" data-name="Path 2789" d="M.733.328a.226.226,0,0,1,0,.054L.465.646h0a.352.352,0,0,1-.08.01H.35A.373.373,0,0,1,.1.56.326.326,0,0,1,0,.328.329.329,0,0,1,.1.1.374.374,0,0,1,.35,0H.384A.377.377,0,0,1,.631.1.323.323,0,0,1,.733.328Z" fill="#03297e"/>
          </g>
        </g>
        <g id="Group_1145" data-name="Group 1145" transform="translate(13.819 10.04)">
          <g id="Group_1144" data-name="Group 1144" transform="translate(0 0)">
            <path id="Path_2790" data-name="Path 2790" d="M.337.657A.329.329,0,1,0,.337,0a.329.329,0,1,0,0,.657Z" fill="#03297e"/>
          </g>
        </g>
        <g id="Group_1147" data-name="Group 1147" transform="translate(8.141 6.209)">
          <g id="Group_1146" data-name="Group 1146" transform="translate(0 0)">
            <path id="Path_2791" data-name="Path 2791" d="M.442.709A.425.425,0,0,0,.755.415.326.326,0,0,0,.72.162.354.354,0,0,0,.511.011.373.373,0,0,0,.242.044a.34.34,0,0,0-.16.2A.085.085,0,0,1,.075.259L.111.181A.079.079,0,0,1,.1.2L.155.131A.077.077,0,0,1,.14.144L.211.093.194.1.277.07.257.076A.356.356,0,0,0,.048.227.319.319,0,0,0,.013.48a.36.36,0,0,0,.43.23Z" fill="#03297e"/>
          </g>
        </g>
      </g>
    </g>
    <rect id="Rectangle_295" data-name="Rectangle 295" width="21" height="12" rx="6" transform="translate(412 1248)" fill="#ed1556"/>
    <g id="Group_2821" data-name="Group 2821" transform="translate(342.35 1246.307)">
      <path id="Path_4053" data-name="Path 4053" d="M454.906,325.438a.617.617,0,0,1-.324-.031.629.629,0,0,1-.4-.484l-1.289-7.6a.629.629,0,0,1,.839-.694l7.229,2.685a.627.627,0,0,1,.181,1.072L455.2,325.3A.629.629,0,0,1,454.906,325.438Zm-.593-7.255.925,5.456,4.262-3.529Z" transform="translate(-452.883 -316.586)" fill="#ed1556"/>
    </g>
    <path id="Path_4246" data-name="Path 4246" d="M409.164,334.3l-1.881-.985.984-1.88a.5.5,0,1,0-.89-.466l-.984,1.881-1.881-.984a.5.5,0,1,0-.466.89l1.881.984-.984,1.881a.5.5,0,0,0,.89.465l.984-1.881,1.881.985a.5.5,0,1,0,.465-.89Z" transform="translate(21.376 935.588)" fill="#0e34c4"/>
  </g>
</svg>
