<svg xmlns="http://www.w3.org/2000/svg" width="159" height="85.452" viewBox="0 0 159 85.452">
  <g id="Group_3053" data-name="Group 3053" transform="translate(-2345.068 -1583.589)">
    <path id="Path_4587" data-name="Path 4587" d="M2598.007,2292.246a12.421,12.421,0,0,1,10.889-7.783c8.339-.482,12.972-6.959,21.589-5.444s9.263,7.876,12.891,9.631,21.887-2.277,28.813-.365,10.172-2.847,16.614-4.906,10.668.763,15.3,3.975,11.123-.361,10.838,4.742Z" transform="translate(-226.746 -623.21)" fill="#b8e0af"/>
    <rect id="Rectangle_828" data-name="Rectangle 828" width="79.773" height="60.272" transform="translate(2402.497 1602.115)" fill="#cbd9ef" opacity="0.4"/>
    <g id="Group_3012" data-name="Group 3012" transform="translate(2416.365 1596.899)">
      <path id="Path_4588" data-name="Path 4588" d="M3035,1712.124l-.014,2.028-.421,60.978c0,.147-.053.265-.117.265h-.031c-.126,0-.229-.231-.232-.521l-.583-58.86-.039-3.889Z" transform="translate(-3033.56 -1712.124)" fill="#e58638"/>
      <path id="Path_4589" data-name="Path 4589" d="M3035,1712.124l-.014,2.028a4.336,4.336,0,0,0-1.385,1.861l-.039-3.889Z" transform="translate(-3033.56 -1712.124)" fill="#cc621b"/>
    </g>
    <path id="Path_4590" data-name="Path 4590" d="M2979.418,1792.6v30.156h-79.773v-60.272h23.442C2930.277,1769.393,2955.5,1791.909,2979.418,1792.6Z" transform="translate(-497.148 -160.372)" fill="#c4d2e8" opacity="0.4"/>
    <path id="Path_4591" data-name="Path 4591" d="M3807.529,2329.586h-7.866c-.421-.357.292-1.17,1.037-1.224a4.593,4.593,0,0,1,1.2.142c.108-1.438.727-7.9,3.056-7.641,2.62.291,0,2.846-.74,4.359a35.951,35.951,0,0,0-1.392,3.486c.213.046.433.091.658.133.347-1.066,1.639-4.652,3.282-4.443,1.929.244,1.154,1.682-.213,2.536-1,.627-2.235,1.52-2.82,1.95a8.374,8.374,0,0,0,1.539.123A3.315,3.315,0,0,1,3807.529,2329.586Z" transform="translate(-1303.851 -660.919)" fill="#b8e0af"/>
    <path id="Path_4592" data-name="Path 4592" d="M2349.3,2332.435c-.427-.671-1.712-2.412-3.424-2.181-1.865.251,2.06,1.48,3.261,2.187a1.993,1.993,0,0,1-.665-.078,4.483,4.483,0,0,0-2.619.455h7.648a1.213,1.213,0,0,0-.547-.7,1.367,1.367,0,0,0-.7-.062c.455-.536.771-2.249-.5-1.808-.925.322-.922,1.368-.832,1.987-.2.031-.4.062-.593.09-.381-1.94-1.728-7.628-4.458-7.78-2.767-.154,2.347,5.9,4.05,7.834C2349.705,2332.406,2349.495,2332.426,2349.3,2332.435Z" transform="translate(0 -664.225)" fill="#b8e0af"/>
    <g id="Group_3016" data-name="Group 3016" transform="translate(2405.593 1647.583)">
      <g id="Group_3015" data-name="Group 3015" transform="translate(4.2 5.137)">
        <g id="Group_3013" data-name="Group 3013" transform="translate(63.873)">
          <path id="Path_4593" data-name="Path 4593" d="M3588.318,2251.167l-.045,2.01-.318,14.01a.16.16,0,0,1-.16.157h0a.279.279,0,0,1-.28-.269l-.515-13.265-.1-2.644Z" transform="translate(-3586.898 -2251.167)" fill="#cc621b"/>
          <path id="Path_4594" data-name="Path 4594" d="M3588.318,2251.167l-.045,2.01a4.58,4.58,0,0,0-1.273.633l-.1-2.644Z" transform="translate(-3586.898 -2251.167)" fill="#b25414"/>
        </g>
        <g id="Group_3014" data-name="Group 3014">
          <path id="Path_4595" data-name="Path 4595" d="M2971.518,2251.167l-.045,2.01-.317,14.01a.16.16,0,0,1-.161.157h0a.28.28,0,0,1-.279-.269l-.515-13.265-.1-2.644Z" transform="translate(-2970.098 -2251.167)" fill="#cc621b"/>
          <path id="Path_4596" data-name="Path 4596" d="M2971.518,2251.167l-.045,2.01a4.582,4.582,0,0,0-1.272.633l-.1-2.644Z" transform="translate(-2970.098 -2251.167)" fill="#b25414"/>
        </g>
      </g>
      <path id="Rectangle_829" data-name="Rectangle 829" d="M2.905,0H70.788a2.905,2.905,0,0,1,2.905,2.905v0a2.906,2.906,0,0,1-2.906,2.906H2.905A2.905,2.905,0,0,1,0,2.906v0A2.905,2.905,0,0,1,2.905,0Z" fill="#e58638"/>
    </g>
    <g id="Group_3025" data-name="Group 3025" transform="translate(2431.57 1612.128)">
      <path id="Path_4597" data-name="Path 4597" d="M3252.658,1877.19c-.463-.7-2.3-.309-4.108.879s-2.894,2.723-2.43,3.426,2.3.31,4.107-.879S3253.121,1877.894,3252.658,1877.19Z" transform="translate(-3239.218 -1875.013)" fill="#233862"/>
      <g id="Group_3017" data-name="Group 3017" transform="translate(4.008 11.002)">
        <path id="Path_4598" data-name="Path 4598" d="M3219.094,1982.733l.356.021a69.5,69.5,0,0,1,.684-8.74,24.77,24.77,0,0,1,3.7-8.386l-.638-.2a20.75,20.75,0,0,0-1.249,2.253,23.161,23.161,0,0,0-2.18,6.109C3219.308,1976.327,3219.081,1982.7,3219.094,1982.733Z" transform="translate(-3219.094 -1965.424)" fill="#233862"/>
      </g>
      <path id="Path_4599" data-name="Path 4599" d="M3223.713,1879.168a3.34,3.34,0,0,0-3.448,1.4c-1.118,1.895-1.181,5.188-1.926,6.265s-2.06,5.622-.663,6.639,10.009-.037,10.492-.5-.029-5.237-.87-6.619S3228.508,1878.464,3223.713,1879.168Z" transform="translate(-3213.263 -1877.045)" fill="#a53d38"/>
      <path id="Path_4600" data-name="Path 4600" d="M3204.511,1948.105c-1.642-5.25.209-8.363.031-10.99-.133-1.966.248-2.016-.094-2.556s-2.263-.892-2.438-.908c-.136-.072-.169-.685-.167-1.288,0-.723.057-1.491.057-1.491l-2.439-.483-.145-.029a4.675,4.675,0,0,1-.764,3.071,11.688,11.688,0,0,0-2.406.479,1.125,1.125,0,0,0-.613.406,38.184,38.184,0,0,0-1.809,7.035,24.78,24.78,0,0,1-.566,2.573c-.291.609-1.179,3.956-1.938,5.608l.837.032s3.33-4.532,3.621-5.771c.092-.392.314-1.165.576-2.038a9.634,9.634,0,0,1,.859,2.868c-.019.8-.561,1.517-1.693,4.057C3194.794,1950.086,3206.188,1953.467,3204.511,1948.105Z" transform="translate(-3190.099 -1922.991)" fill="#ffb27d"/>
      <path id="Path_4601" data-name="Path 4601" d="M3253.081,2137.469c.16.639.337,1.247.517,1.813.039.121.077.241.115.357l.057.172q.057.168.113.329.073.21.145.409c.035.1.071.194.105.288.535,1.434.983,2.342.983,2.342l1.065-.073a28.974,28.974,0,0,1-.48-4.627c0-.1-.005-.2-.007-.294,0-.211-.007-.427-.007-.647,0-.09,0-.181,0-.273a24.471,24.471,0,0,1,1.239-7.768,50.684,50.684,0,0,0,1.7-5.988,37.119,37.119,0,0,0,.976-9.737l-5.992.7-.279.033c-.025,2.752-.1,6.489-.158,9.41-.011.507-.021.99-.031,1.438-.042,1.875-.073,3.158-.073,3.158C3251.914,2130.992,3252.333,2134.494,3253.081,2137.469Z" transform="translate(-3244.9 -2087.407)" fill="#ffb27d"/>
      <path id="Path_4602" data-name="Path 4602" d="M3273.234,1931.122s-.055.768-.057,1.491a2.894,2.894,0,0,1-2.382-1.974Z" transform="translate(-3261.433 -1923.239)" fill="#ef9e67"/>
      <path id="Path_4603" data-name="Path 4603" d="M3315.324,2079.018s-.284,3.961-.189,4.434-.031,2.16-.678,2.471S3312.531,2078.078,3315.324,2079.018Z" transform="translate(-3299.802 -2056.186)" fill="#ffb27d"/>
      <path id="Path_4604" data-name="Path 4604" d="M3270.461,1894.743s-3.229.053-3.231-1.958-.421-3.359,1.641-3.478,2.463.648,2.627,1.319S3271.3,1894.677,3270.461,1894.743Z" transform="translate(-3258.205 -1886.176)" fill="#ffb27d"/>
      <path id="Path_4605" data-name="Path 4605" d="M3261.353,1885.4s-.884,2.36-2.241,2.709a2.672,2.672,0,0,1-1.946-.015,3.842,3.842,0,0,0,1.257-2.27S3260.686,1884.274,3261.353,1885.4Z" transform="translate(-3249.216 -1882.316)" fill="#a53d38"/>
      <path id="Path_4606" data-name="Path 4606" d="M3295.48,1887.456a2.853,2.853,0,0,1,.822,1.039c.161.512.233,1.567.541,1.531,0,0,.666-1.6-.083-2.511C3295.966,1886.552,3295.48,1887.456,3295.48,1887.456Z" transform="translate(-3283.562 -1884.183)" fill="#a53d38"/>
      <path id="Path_4607" data-name="Path 4607" d="M3307.964,1971.511s2.452,10.448,1.694,11.335a3.592,3.592,0,0,1-2.982.839C3306.392,1983.5,3307.964,1971.511,3307.964,1971.511Z" transform="translate(-3293.567 -1959.879)" fill="#ffa412"/>
      <path id="Path_4608" data-name="Path 4608" d="M3276.39,1885.995s-.63,2.471-2.342,3.263a5.912,5.912,0,0,0,1.857-3.15C3276.051,1884.476,3276.39,1885.995,3276.39,1885.995Z" transform="translate(-3264.35 -1882.642)" fill="#a53d38"/>
      <path id="Path_4609" data-name="Path 4609" d="M3225.455,2126.03a14.746,14.746,0,0,0,1.862,6.055l.518.471s.472-2.692.813-5.774c.324-2.93.77-6.03,1.273-6.976.752-1.414,1.307-4.305,1.706-7.36.66-5.055.894-10.559.894-10.559l-6.075-.3a10.4,10.4,0,0,0-.94,4.628,46.713,46.713,0,0,0,.312,6.312c.307,2.839.735,5.206.834,5.738a0,0,0,0,0,0,0,.316.316,0,0,1-.04.2A13.939,13.939,0,0,0,3225.455,2126.03Z" transform="translate(-3220.712 -2076.484)" fill="#ffb27d"/>
      <path id="Path_4610" data-name="Path 4610" d="M3200.917,2095.246c-5.232,1.967-13.105-.311-13.105-.311s.29-1.627.716-3.99c1.07-5.931,3-16.5,3.335-17.623.473-1.566,2.195-5.221,2.195-5.221a10.154,10.154,0,0,0,2.438.469,15,15,0,0,0,4.271-.321s.321,1.074,1.007,3.32S3200.917,2095.246,3200.917,2095.246Z" transform="translate(-3187.043 -2046.467)" fill="#bc3f3f"/>
      <path id="Path_4611" data-name="Path 4611" d="M3201.75,1970.578c-.261,2.584-.979,6.088-.979,6.088a5.8,5.8,0,0,1-1.2.472,8.649,8.649,0,0,1-5.507-.619s0-.08-.011-.177c-.005-.08-.013-.17-.023-.236-.021-.146-.68-1.714-.68-1.714s-.025.122-.068.33c-.241,1.146-1.068,4.914-1.575,5.254a3.447,3.447,0,0,1-2.116-.041c-.918-.25-1.773-.764-1.773-1.6,0-1.07,1.945-5.907,3.347-9.222v-.005c.746-1.767,1.179-3,1.75-3.134,0,0,3.839,1.563,5.966,1.323a13.384,13.384,0,0,0,2.483-.853c.012.012.023.025.034.038a.317.317,0,0,1,.024.031c.008.011.016.023.022.034a3.04,3.04,0,0,1,.279,1.511A13.324,13.324,0,0,1,3201.75,1970.578Z" transform="translate(-3187.047 -1954.916)" fill="#ffb93e"/>
      <path id="Path_4612" data-name="Path 4612" d="M3241.237,2008.484s.659,1.573.68,1.72c.009.066.017.156.023.236a3.25,3.25,0,0,0,1.1.577c1.115.338,1.6-1.8,1.533-2.866s-1.644-4.11-2.169-4.174S3241.237,2008.484,3241.237,2008.484Z" transform="translate(-3234.936 -1988.983)" fill="#ffa412"/>
      <path id="Path_4613" data-name="Path 4613" d="M3240.581,2047.837c.043-.208.068-.331.068-.331A1.694,1.694,0,0,0,3240.581,2047.837Z" transform="translate(-3234.348 -2028.004)" fill="#e58638"/>
      <g id="Group_3018" data-name="Group 3018" transform="translate(6.896 20.886)">
        <path id="Path_4614" data-name="Path 4614" d="M3250.924,2062.452a5.052,5.052,0,0,0,2.905-.619l.132-.959c-.02.015-2.751,1.655-6.978.084l.09.726A10.593,10.593,0,0,0,3250.924,2062.452Z" transform="translate(-3246.983 -2060.874)" fill="#a53232"/>
      </g>
      <path id="Path_4615" data-name="Path 4615" d="M3187.814,2005.625c0,.839.855,1.354,1.773,1.6-1.265-1.506,1.5-10.621,1.573-10.854C3189.76,1999.7,3187.814,2004.552,3187.814,2005.625Z" transform="translate(-3187.045 -1982.168)" fill="#ffa412"/>
      <g id="Group_3019" data-name="Group 3019" transform="translate(9.05 54.2)">
        <path id="Path_4616" data-name="Path 4616" d="M3268.34,2385.041h.68c.228-.036.4-.1.629-.132a.631.631,0,0,1,.551.132l.006.007h2.888c.073-.1,0-.344-.065-.521a.411.411,0,0,0-.27-.247,3.116,3.116,0,0,1-1.463-.668c-.311-.281-1.5-1.033-1.5-1.033l-.006,0c-.026,0-.151.039-.693.5-.28.236-.757-.333-.757-.333a.681.681,0,0,0-.156.212.715.715,0,0,0-.062.443,2.877,2.877,0,0,1-.207,1.071c-.067.2-.124.339-.124.339S3267.755,2384.967,3268.34,2385.041Z" transform="translate(-3267.787 -2382.576)" fill="#233862"/>
        <path id="Path_4617" data-name="Path 4617" d="M3271.585,2382.951a2.156,2.156,0,0,0,.732.369c.307.04.88-.743.88-.743l-.006,0c-.026,0-.151.039-.692.5-.28.236-.757-.333-.757-.333A.679.679,0,0,0,3271.585,2382.951Z" transform="translate(-3271.192 -2382.576)" fill="#466aa5"/>
        <path id="Path_4618" data-name="Path 4618" d="M3268.34,2401.4h.68c.228-.036.4-.1.629-.132a.631.631,0,0,1,.551.132l.006.007h2.888c.073-.1,0-.344-.065-.521-.088-.078-.112.339-.161.405a12.878,12.878,0,0,1-2.489-.073,1.394,1.394,0,0,0-1.09-.133,2.624,2.624,0,0,1-1.377-.26c-.067.2-.124.339-.124.339S3267.755,2401.323,3268.34,2401.4Z" transform="translate(-3267.787 -2398.932)" fill="#466aa5"/>
      </g>
      <g id="Group_3020" data-name="Group 3020" transform="translate(5.422 54.2)">
        <path id="Path_4619" data-name="Path 4619" d="M3233.3,2385.041h.68c.228-.036.4-.1.629-.132a.631.631,0,0,1,.551.132l.006.007h2.888c.073-.1,0-.344-.065-.521a.411.411,0,0,0-.27-.247,3.117,3.117,0,0,1-1.463-.668c-.311-.281-1.5-1.033-1.5-1.033l-.006,0c-.026,0-.151.039-.692.5-.28.236-.758-.333-.758-.333a.681.681,0,0,0-.156.212.717.717,0,0,0-.062.443,2.872,2.872,0,0,1-.207,1.071c-.067.2-.124.339-.124.339S3232.719,2384.967,3233.3,2385.041Z" transform="translate(-3232.752 -2382.576)" fill="#233862"/>
        <path id="Path_4620" data-name="Path 4620" d="M3236.55,2382.951a2.154,2.154,0,0,0,.732.369c.307.04.881-.743.881-.743l-.007,0c-.026,0-.151.039-.692.5-.28.236-.758-.333-.758-.333A.683.683,0,0,0,3236.55,2382.951Z" transform="translate(-3236.157 -2382.576)" fill="#466aa5"/>
        <path id="Path_4621" data-name="Path 4621" d="M3233.3,2401.4h.68c.228-.036.4-.1.629-.132a.631.631,0,0,1,.551.132l.006.007h2.888c.073-.1,0-.344-.065-.521-.088-.078-.112.339-.161.405a12.878,12.878,0,0,1-2.489-.073,1.394,1.394,0,0,0-1.09-.133,2.625,2.625,0,0,1-1.377-.26c-.067.2-.124.339-.124.339S3232.719,2401.323,3233.3,2401.4Z" transform="translate(-3232.752 -2398.932)" fill="#466aa5"/>
      </g>
      <path id="Path_4622" data-name="Path 4622" d="M3194.726,2090.945c1.07-5.931,3-16.5,3.335-17.623.473-1.566,2.195-5.221,2.195-5.221a10.156,10.156,0,0,0,2.438.469C3202.786,2069.849,3203.459,2082.633,3194.726,2090.945Z" transform="translate(-3193.241 -2046.467)" fill="#a53232"/>
      <g id="Group_3021" data-name="Group 3021" transform="translate(7.234 10.486)">
        <path id="Path_4623" data-name="Path 4623" d="M3252.649,1978.3l-.356-.027a70.708,70.708,0,0,0,.493-8.827,25.129,25.129,0,0,0-2.543-8.881l.66-.118a21,21,0,0,1,.935,2.421,23.523,23.523,0,0,1,1.342,6.4C3253.3,1971.867,3252.667,1978.267,3252.649,1978.3Z" transform="translate(-3250.243 -1960.445)" fill="#233862"/>
      </g>
      <g id="Group_3024" data-name="Group 3024" transform="translate(2.659 25.203)">
        <path id="Path_4624" data-name="Path 4624" d="M3231.811,2110.428s.346-.852.9-1.064l2.808.53s-.693.659-.758,1.09Z" transform="translate(-3229.145 -2108.66)" fill="#d2e4ff"/>
        <path id="Path_4625" data-name="Path 4625" d="M3221.376,2123.531l-4.8-.9a.415.415,0,0,1-.331-.485l.6-3.182a.416.416,0,0,1,.485-.332l4.8.9a.416.416,0,0,1,.332.485l-.6,3.182A.416.416,0,0,1,3221.376,2123.531Z" transform="translate(-3215.184 -2116.958)" fill="#233862"/>
        <g id="Group_3022" data-name="Group 3022" transform="translate(2.012)">
          <rect id="Rectangle_830" data-name="Rectangle 830" width="2.295" height="2.942" transform="translate(0.157 0.001) rotate(0.503)" fill="#e58638"/>
          <rect id="Rectangle_831" data-name="Rectangle 831" width="2.295" height="2.943" transform="translate(0.026) rotate(0.5)" fill="#ee9849"/>
        </g>
        <g id="Group_3023" data-name="Group 3023" transform="translate(1.914 0.227)">
          <rect id="Rectangle_832" data-name="Rectangle 832" width="2.295" height="2.943" transform="matrix(0.794, 0.608, -0.608, 0.794, 1.992, 0.156)" fill="#578e9b"/>
          <rect id="Rectangle_833" data-name="Rectangle 833" width="2.295" height="2.943" transform="matrix(0.794, 0.608, -0.608, 0.794, 1.788, 0)" fill="#74acbe"/>
        </g>
        <path id="Path_4626" data-name="Path 4626" d="M3211.086,2121.715l-4.6-.866a.519.519,0,0,1-.414-.606l.561-2.978a.52.52,0,0,1,.607-.414l4.6.866a.52.52,0,0,1,.414.607l-.561,2.978A.519.519,0,0,1,3211.086,2121.715Z" transform="translate(-3206.067 -2115.363)" fill="#2b478b"/>
      </g>
      <path id="Path_4627" data-name="Path 4627" d="M3239.637,1863.92s-1.469-2.924.584-4.08,3.556-.7,4.686.712Z" transform="translate(-3233.045 -1859.183)" fill="#233862"/>
      <path id="Path_4628" data-name="Path 4628" d="M3239.658,1865.384c-.423-.677-1.9-.568-3.685.163a14.689,14.689,0,0,0-2.186,1.131,14.1,14.1,0,0,0-2.369,1.831c-1.182,1.156-1.758,2.261-1.375,2.875a.875.875,0,0,0,.556.378c.261-.563,1.012-1.091,1.225-1.53a6.7,6.7,0,0,1,2.451-2.613,6.854,6.854,0,0,1,2.863-1.106c.426-.027.739.062.877.283a.739.739,0,0,1-.015.677,3.312,3.312,0,0,1,.32.75C3239.477,1867.081,3240.037,1865.991,3239.658,1865.384Z" transform="translate(-3224.795 -1864.337)" fill="#2b478b"/>
      <path id="Path_4629" data-name="Path 4629" d="M3181.512,2115.508s-.8.814-.922.908a1.556,1.556,0,0,0-.157,1.026c.229.178.4-.234.757-.439s.568-.493.568-.4-.459.458-.4.536.679-.355.821-.45.174-1.152.174-1.152Z" transform="translate(-3180.391 -2088.964)" fill="#ffb27d"/>
    </g>
    <g id="Group_3034" data-name="Group 3034" transform="translate(2408.388 1614.045)">
      <path id="Path_4630" data-name="Path 4630" d="M3068.8,1882.463l.192-.013.234-.754c.9-2.232.1-3.045-.463-3.422a3.493,3.493,0,0,0-1.448-.547,2.874,2.874,0,0,0-1.079.031h0c-3.361-.693-3.682,5.5-3.182,5.88a3.529,3.529,0,0,0,1.711.334,1.009,1.009,0,0,1-.139-.212c.367.3,1.45.194,1.45.194a1.759,1.759,0,0,1-.547-1.261l.877-.062a3.438,3.438,0,0,0,.883,1.367,3.06,3.06,0,0,0,1.741.328.751.751,0,0,1-.1-.242c.042.117.253.2.253.2a1.533,1.533,0,0,0,.444-.147S3068.94,1884.134,3068.8,1882.463Z" transform="translate(-3051.85 -1877.691)" fill="#233862"/>
      <path id="Path_4631" data-name="Path 4631" d="M3116.275,1975.229c2.636-.671,5.534-4.76,5.534-4.76l-.742-.644c-.769.906-3.964,2.466-3.964,2.466.017-.829,0-1.585-.057-2.274-.354-4.678-2.118-6.237-2.6-6.579a1.161,1.161,0,0,0-.122-.079s0,.034,0,.1c-.007.139-.02.419-.033.8C3114.189,1967.125,3114.073,1975.791,3116.275,1975.229Z" transform="translate(-3097.913 -1954.489)" fill="#ffb27d"/>
      <path id="Path_4632" data-name="Path 4632" d="M3180.126,2002.289c.011-.111.085-1.718.4-2.024a2.646,2.646,0,0,1,1.131-.689,1.806,1.806,0,0,1,.506,1.762,6,6,0,0,1-1.3,1.594Z" transform="translate(-3156.972 -1986.953)" fill="#ffb27d"/>
      <g id="Group_3026" data-name="Group 3026" transform="translate(22.399 12.004)">
        <path id="Path_4633" data-name="Path 4633" d="M3172.934,1997.128l1.736.073a.1.1,0,0,0,.109-.1l.138-3.311a.1.1,0,0,0-.1-.109l-1.736-.073a.1.1,0,0,0-.109.1l-.138,3.31A.1.1,0,0,0,3172.934,1997.128Z" transform="translate(-3172.834 -1993.609)" fill="#f1a34f"/>
        <path id="Path_4634" data-name="Path 4634" d="M3176.6,1997.306l1.6.067a.173.173,0,0,0,.18-.166l.133-3.173a.173.173,0,0,0-.166-.18l-1.6-.067a.173.173,0,0,0-.18.166l-.133,3.173A.173.173,0,0,0,3176.6,1997.306Z" transform="translate(-3176.064 -1993.768)" fill="#d86713"/>
      </g>
      <path id="Path_4635" data-name="Path 4635" d="M3186.376,1998.385s-.474-.528-.947-.125.031,1.266.442,1.5a3.3,3.3,0,0,1,.542.359Z" transform="translate(-3161.555 -1985.639)" fill="#ffb27d"/>
      <path id="Path_4636" data-name="Path 4636" d="M3072.115,2135.479c.161.639.337,1.247.517,1.812.039.122.077.241.115.357l.057.172c.038.112.075.222.113.329.049.14.1.277.145.408.035.1.071.194.105.288.535,1.434.982,2.342.982,2.342l1.065-.073a28.974,28.974,0,0,1-.48-4.627c0-.1-.005-.2-.007-.295,0-.211-.007-.427-.007-.646,0-.09,0-.181,0-.273a24.478,24.478,0,0,1,1.239-7.769,50.66,50.66,0,0,0,1.7-5.987,37.1,37.1,0,0,0,.976-9.737l-5.992.7-.279.032c-.025,2.752-.1,6.489-.158,9.41-.01.507-.021.99-.031,1.438-.042,1.876-.073,3.158-.073,3.158C3070.949,2129,3071.368,2132.5,3072.115,2135.479Z" transform="translate(-3059.494 -2087.54)" fill="#cb7d45"/>
      <path id="Path_4637" data-name="Path 4637" d="M3050.6,1946.694c1.133-2.54,1.674-3.258,1.693-4.057a10.239,10.239,0,0,0-.9-2.985,6.22,6.22,0,0,1-.3-1.208c-.479-3.223,1.385-6.707,2.543-6.944.322-.085.869-1.249.862-3.125l.145.028,2.439.483s-.056.767-.057,1.491c0,.6.031,1.216.167,1.288.176.016.335.048.335.048s2.064,1.45,2.2,3.416c.178,2.626-1.673,5.74-.031,10.989C3061.365,1951.478,3049.971,1948.1,3050.6,1946.694Z" transform="translate(-3040.834 -1923.125)" fill="#ffb27d"/>
      <path id="Path_4638" data-name="Path 4638" d="M3092.268,1929.131s-.055.767-.057,1.491a2.894,2.894,0,0,1-2.382-1.974Z" transform="translate(-3076.026 -1923.371)" fill="#ef9e67"/>
      <path id="Path_4639" data-name="Path 4639" d="M3089.5,1892.752s-3.229.053-3.231-1.958-.42-3.359,1.641-3.479,2.463.648,2.627,1.319S3090.337,1892.687,3089.5,1892.752Z" transform="translate(-3072.799 -1886.308)" fill="#ffb27d"/>
      <path id="Path_4640" data-name="Path 4640" d="M3080.388,1883.407s-.884,2.36-2.241,2.709a2.671,2.671,0,0,1-1.946-.015,3.843,3.843,0,0,0,1.257-2.27S3079.721,1882.284,3080.388,1883.407Z" transform="translate(-3063.809 -1882.449)" fill="#233862"/>
      <path id="Path_4641" data-name="Path 4641" d="M3114.515,1885.465a2.853,2.853,0,0,1,.821,1.039c.161.512.233,1.567.541,1.531,0,0,.666-1.6-.083-2.512C3115,1884.561,3114.515,1885.465,3114.515,1885.465Z" transform="translate(-3098.156 -1884.315)" fill="#233862"/>
      <path id="Path_4642" data-name="Path 4642" d="M3010.255,1975.92l.969.291s3.2-5.306,3.489-6.687c.095-.449.327-1.349.6-2.357.562-2.087,1.286-4.641,1.286-4.641l.238-1.034.814-3.526a11.048,11.048,0,0,0-2.471.541,1.133,1.133,0,0,0-.613.453,46.591,46.591,0,0,0-1.809,7.841c-.262,1.478-.462,2.625-.566,2.868C3011.9,1970.348,3011.014,1974.079,3010.255,1975.92Z" transform="translate(-3004.692 -1949.654)" fill="#ffb27d"/>
      <path id="Path_4643" data-name="Path 4643" d="M3095.424,1884s-.63,2.471-2.342,3.263a5.91,5.91,0,0,0,1.858-3.15C3095.085,1882.486,3095.424,1884,3095.424,1884Z" transform="translate(-3078.942 -1882.774)" fill="#233862"/>
      <path id="Path_4644" data-name="Path 4644" d="M3044.49,2124.04a14.748,14.748,0,0,0,1.862,6.055l.518.471s.472-2.692.813-5.774c.324-2.929.77-6.03,1.273-6.976.752-1.414,1.307-4.305,1.706-7.36.66-5.055.894-10.559.894-10.559l-6.076-.3a10.4,10.4,0,0,0-.94,4.628,46.711,46.711,0,0,0,.312,6.312c.307,2.84.735,5.207.834,5.738a0,0,0,0,0,0,0,.316.316,0,0,1-.04.2A13.944,13.944,0,0,0,3044.49,2124.04Z" transform="translate(-3035.305 -2076.617)" fill="#d9935c"/>
      <path id="Path_4645" data-name="Path 4645" d="M3113.309,1966.367c.137,3.337.636,6.642,2.089,6.429,1.781-.26,2.245-1.922,2.34-3.158a7.109,7.109,0,0,0-.026-1.373,3.156,3.156,0,0,1-1.019-.135c-.673-.622-.473-6.721-.807-7.354s-2.5-1.04-2.5-1.04S3113.173,1963.068,3113.309,1966.367Z" transform="translate(-3097.034 -1951.241)" fill="#ed7d2b"/>
      <path id="Path_4646" data-name="Path 4646" d="M3113.7,2003.931c.137,3.337.636,6.642,2.089,6.429,1.781-.26,2.245-1.922,2.34-3.158a1.994,1.994,0,0,1-1.513-.6,50.125,50.125,0,0,1-1.8-4.967S3114.269,2002.6,3113.7,2003.931Z" transform="translate(-3097.421 -1988.804)" fill="#ed7d2b"/>
      <path id="Path_4647" data-name="Path 4647" d="M3072.115,2218.566c.161.638.337,1.246.517,1.812.039.121.077.241.115.357l.057.172c.038.112.075.222.113.329.049.14.1.277.145.408.035.1.071.194.105.288.535,1.434.982,2.342.982,2.342l1.065-.073a28.974,28.974,0,0,1-.48-4.627c0-.1-.005-.2-.007-.295,0-.211-.007-.427-.007-.646,0-.09,0-.181,0-.273a24.48,24.48,0,0,1,1.239-7.769,50.634,50.634,0,0,0,1.7-5.987,11.308,11.308,0,0,1-2.809-.138,7.833,7.833,0,0,0-1.786,2.325,4.312,4.312,0,0,1-.962,2.817C3070.949,2212.089,3071.368,2215.591,3072.115,2218.566Z" transform="translate(-3059.494 -2170.627)" fill="#233862"/>
      <path id="Path_4648" data-name="Path 4648" d="M3044.49,2218.051a14.748,14.748,0,0,0,1.862,6.055l.518.471s.472-2.692.813-5.774c.324-2.929.77-6.029,1.273-6.976.752-1.414,1.307-4.305,1.706-7.36-.559.233-2.462.837-5.81.08.307,2.839.735,5.207.834,5.738a0,0,0,0,0,0,0,.316.316,0,0,1-.04.2A13.943,13.943,0,0,0,3044.49,2218.051Z" transform="translate(-3035.305 -2170.628)" fill="#2b478b"/>
      <path id="Path_4649" data-name="Path 4649" d="M3033.992,2076.131a21.942,21.942,0,0,0,3.144.652,17.815,17.815,0,0,0,8.454-.652,25.324,25.324,0,0,0-.448-6.552c-.686-2.246-1.006-3.32-1.006-3.32a14.513,14.513,0,0,1-5.539.155,8.981,8.981,0,0,1-1.17-.3s-1.722,3.655-2.2,5.221S3033.992,2076.131,3033.992,2076.131Z" transform="translate(-3025.971 -2046.598)" fill="#2b478b"/>
      <path id="Path_4650" data-name="Path 4650" d="M3033.992,2076.131a21.942,21.942,0,0,0,3.144.652c3.434-1.947,1.76-10.14,1.76-10.14q-.153-.124-.3-.229a8.981,8.981,0,0,1-1.17-.3s-1.722,3.655-2.2,5.221S3033.992,2076.131,3033.992,2076.131Z" transform="translate(-3025.971 -2046.598)" fill="#233862"/>
      <path id="Path_4651" data-name="Path 4651" d="M3006.85,1959.012c0,.839.855,1.354,1.773,1.6a3.434,3.434,0,0,0,2.116.042c.507-.34,1.334-4.119,1.575-5.27.043-.209.068-.331.068-.331s.659,1.573.68,1.72c.01.066.018.156.023.237.007.1.011.177.011.177s3.577,1.806,6.708.147c0,0,1.273-7.357.721-8.624a14.257,14.257,0,0,0-2.28-2.487.68.68,0,0,1-.066-.6.264.264,0,0,0-.323-.312,3.4,3.4,0,0,1-1.742-.154,4.2,4.2,0,0,1-1.065-.521.163.163,0,0,0-.253.115c-.054.439-.187,1.24-.429,1.24a8.648,8.648,0,0,0-2.774.559c-.058.1-.649,1.436-1.4,3.208a.017.017,0,0,0,0,0C3008.8,1953.088,3006.85,1957.94,3006.85,1959.012Z" transform="translate(-3001.64 -1937.679)" fill="#f99746"/>
      <path id="Path_4652" data-name="Path 4652" d="M3060.272,2006.495s.659,1.573.68,1.72c.01.066.018.156.023.237a3.249,3.249,0,0,0,1.1.576c1.115.338,1.6-1.8,1.533-2.866s-1.644-4.111-2.169-4.174S3060.272,2006.495,3060.272,2006.495Z" transform="translate(-3049.53 -1989.115)" fill="#ed7d2b"/>
      <path id="Path_4653" data-name="Path 4653" d="M3059.615,2045.848c.043-.209.068-.331.068-.331A1.692,1.692,0,0,0,3059.615,2045.848Z" transform="translate(-3048.941 -2028.138)" fill="#e58638"/>
      <g id="Group_3027" data-name="Group 3027" transform="translate(11.337 18.763)">
        <path id="Path_4654" data-name="Path 4654" d="M3069.927,2060.591a4.623,4.623,0,0,0,2.937-.748l.132-.959c-.02.014-2.751,1.655-6.978.084l.09.726A11.088,11.088,0,0,0,3069.927,2060.591Z" transform="translate(-3066.018 -2058.884)" fill="#b64c41"/>
      </g>
      <path id="Path_4655" data-name="Path 4655" d="M3006.85,2003.635c0,.839.855,1.354,1.773,1.6-1.265-1.506,1.5-10.621,1.574-10.854C3008.8,1997.71,3006.85,2002.562,3006.85,2003.635Z" transform="translate(-3001.64 -1982.301)" fill="#ed7d2b"/>
      <path id="Path_4656" data-name="Path 4656" d="M3079.446,1945.992a5.147,5.147,0,0,0,2.991.823s.309-.2-.117-.392c-.4-.184-1.332-.729-1.128-1.266a4.2,4.2,0,0,1-1.065-.521.163.163,0,0,0-.253.115C3079.821,1945.191,3079.688,1945.992,3079.446,1945.992Z" transform="translate(-3066.718 -1937.679)" fill="#ed7d2b"/>
      <g id="Group_3028" data-name="Group 3028" transform="translate(13.492 52.077)">
        <path id="Path_4657" data-name="Path 4657" d="M3087.375,2383.051h.68c.228-.036.4-.1.63-.132a.63.63,0,0,1,.551.132l.006.007h2.888c.073-.1,0-.344-.065-.521a.412.412,0,0,0-.271-.247,3.116,3.116,0,0,1-1.463-.668c-.311-.281-1.5-1.034-1.5-1.034h-.006c-.026,0-.151.039-.692.5-.28.236-.758-.333-.758-.333a.683.683,0,0,0-.156.212.717.717,0,0,0-.062.444,2.876,2.876,0,0,1-.207,1.071c-.067.2-.124.339-.124.339S3086.79,2382.978,3087.375,2383.051Z" transform="translate(-3086.822 -2380.586)" fill="#233862"/>
        <path id="Path_4658" data-name="Path 4658" d="M3090.62,2380.961a2.147,2.147,0,0,0,.732.369c.307.041.88-.743.88-.743h-.006c-.026,0-.151.039-.693.5-.28.236-.757-.333-.757-.333A.682.682,0,0,0,3090.62,2380.961Z" transform="translate(-3090.227 -2380.586)" fill="#466aa5"/>
        <path id="Path_4659" data-name="Path 4659" d="M3087.375,2399.406h.68c.228-.036.4-.1.63-.132a.632.632,0,0,1,.551.132l.006.007h2.888c.073-.1,0-.344-.065-.521-.088-.078-.112.339-.161.405a12.878,12.878,0,0,1-2.489-.073,1.394,1.394,0,0,0-1.09-.133,2.623,2.623,0,0,1-1.377-.26c-.067.2-.124.339-.124.339S3086.79,2399.333,3087.375,2399.406Z" transform="translate(-3086.822 -2396.942)" fill="#466aa5"/>
      </g>
      <g id="Group_3029" data-name="Group 3029" transform="translate(9.864 52.077)">
        <path id="Path_4660" data-name="Path 4660" d="M3052.339,2383.051h.68c.228-.036.4-.1.63-.132a.63.63,0,0,1,.55.132l.006.007h2.888c.073-.1,0-.344-.065-.521a.411.411,0,0,0-.27-.247,3.116,3.116,0,0,1-1.463-.668c-.311-.281-1.5-1.034-1.5-1.034h-.006c-.026,0-.151.039-.692.5-.28.236-.757-.333-.757-.333a.68.68,0,0,0-.157.212.719.719,0,0,0-.062.444,2.871,2.871,0,0,1-.207,1.071c-.067.2-.124.339-.124.339S3051.754,2382.978,3052.339,2383.051Z" transform="translate(-3051.786 -2380.586)" fill="#233862"/>
        <path id="Path_4661" data-name="Path 4661" d="M3055.585,2380.961a2.147,2.147,0,0,0,.732.369c.307.041.881-.743.881-.743h-.006c-.026,0-.151.039-.692.5-.28.236-.757-.333-.757-.333A.68.68,0,0,0,3055.585,2380.961Z" transform="translate(-3055.192 -2380.586)" fill="#466aa5"/>
        <path id="Path_4662" data-name="Path 4662" d="M3052.339,2399.406h.68c.228-.036.4-.1.63-.132a.631.631,0,0,1,.55.132l.006.007h2.888c.073-.1,0-.344-.065-.521-.087-.078-.112.339-.161.405a12.878,12.878,0,0,1-2.489-.073,1.394,1.394,0,0,0-1.09-.133,2.624,2.624,0,0,1-1.377-.26c-.067.2-.124.339-.124.339S3051.754,2399.333,3052.339,2399.406Z" transform="translate(-3051.786 -2396.942)" fill="#466aa5"/>
      </g>
      <g id="Group_3033" data-name="Group 3033" transform="translate(0 28.41)">
        <path id="Path_4663" data-name="Path 4663" d="M2967.254,2162.922a.985.985,0,0,1,.627-.732,3.828,3.828,0,0,1,2.434-.06c1.779.523,1.953,1.616,1.835,2.4s.231,2.039.18,2.931-.306,3.132-1.623,3.014-5.562-1.258-5.562-1.258-.733-1.4.773-3.417A7.278,7.278,0,0,0,2967.254,2162.922Z" transform="translate(-2964.093 -2160.935)" fill="#233862"/>
        <g id="Group_3032" data-name="Group 3032">
          <g id="Group_3030" data-name="Group 3030" transform="translate(3.976)">
            <path id="Path_4664" data-name="Path 4664" d="M2994.928,2153l.352.032a.8.8,0,0,1,.2-.4.573.573,0,0,1,.51-.125.532.532,0,0,1,.422.275.847.847,0,0,1,.046.485l.343.079a1.4,1.4,0,0,0-.076-.831.842.842,0,0,0-.651-.461.884.884,0,0,0-.793.229A1.363,1.363,0,0,0,2994.928,2153Z" transform="translate(-2994.928 -2152.043)" fill="#233862"/>
          </g>
          <g id="Group_3031" data-name="Group 3031" transform="translate(0 0.83)">
            <path id="Path_4665" data-name="Path 4665" d="M2956.715,2167.316s4.245,1.144,5.563,1.259,1.573-2.12,1.622-3.015-.3-2.143-.18-2.931a2.16,2.16,0,0,0,.027-.48c-.034-.7-.427-1.5-1.859-1.919a3.824,3.824,0,0,0-2.437.061.987.987,0,0,0-.628.73c-.015.069-.03.152-.048.235a7.352,7.352,0,0,1-1.288,2.647C2955.98,2165.921,2956.715,2167.316,2956.715,2167.316Z" transform="translate(-2956.536 -2160.06)" fill="#2b478b"/>
            <path id="Path_4666" data-name="Path 4666" d="M2999.3,2209.972a1.579,1.579,0,0,1-1.388.368,1.968,1.968,0,0,1-1.171-.947Z" transform="translate(-2992.581 -2204.284)" fill="#233862"/>
            <path id="Path_4667" data-name="Path 4667" d="M2969.582,2203.246a1.579,1.579,0,0,1-1.388.368,1.968,1.968,0,0,1-1.171-.947Z" transform="translate(-2965.937 -2198.255)" fill="#233862"/>
            <path id="Path_4668" data-name="Path 4668" d="M2978.207,2161.02c-.015.069-.03.152-.048.235a3.052,3.052,0,0,0,2.065,1.8,3.119,3.119,0,0,0,2.907-.9c-.034-.7-.427-1.5-1.859-1.919a3.823,3.823,0,0,0-2.437.061A.987.987,0,0,0,2978.207,2161.02Z" transform="translate(-2975.92 -2160.06)" fill="#233862"/>
            <path id="Path_4669" data-name="Path 4669" d="M2996.392,2187.342h0a.216.216,0,0,0,.258-.163l.043-.191a.216.216,0,0,0-.162-.257h0a.216.216,0,0,0-.258.163l-.043.191A.216.216,0,0,0,2996.392,2187.342Z" transform="translate(-2992.115 -2183.964)" fill="#d86713"/>
          </g>
        </g>
      </g>
      <path id="Path_4670" data-name="Path 4670" d="M2999.833,2129.779a2.526,2.526,0,0,1-.6.888,1.718,1.718,0,0,0-.662,1.034.914.914,0,0,0,.8,1.115c.387,0,.758-.529.986-1.791.012-.069.38-.793.38-.793Z" transform="translate(-2994.202 -2103.674)" fill="#ffb27d"/>
    </g>
    <g id="Group_3036" data-name="Group 3036" transform="translate(2457.653 1616.15)">
      <g id="Group_3035" data-name="Group 3035" transform="translate(13.721 25.074)">
        <path id="Path_4671" data-name="Path 4671" d="M3566.642,2167.832l.241-25.813s.208-1.859,1.83-1.859c1.731,0,1.83,1.859,1.83,1.859a.2.2,0,0,1-.2.161.21.21,0,0,1-.217-.161s-.077-1.433-1.411-1.433c-1.25,0-1.411,1.433-1.411,1.433v25.813Z" transform="translate(-3566.448 -2140.16)" fill="#233862"/>
        <path id="Path_4672" data-name="Path 4672" d="M3565.846,2396.134h-1.076l.1-1.125s-.009-.156.208-.165c.2-.008.6-.037.639.085S3565.846,2396.134,3565.846,2396.134Z" transform="translate(-3564.77 -2368.462)" fill="#233862"/>
      </g>
      <path id="Path_4673" data-name="Path 4673" d="M3577.194,2126.95l.074.369a2.365,2.365,0,0,1,2.252,1.949s.116.814-.471.64-.5-.589-1.326-.817-1.372-.4-1.5-1.007l-.136-.673Z" transform="translate(-3561.194 -2103.244)" fill="#ffb27d"/>
      <path id="Path_4674" data-name="Path 4674" d="M3524.449,1972.4s.483,1.9.9,3.636c.168.7.324,1.372.435,1.884a4.328,4.328,0,0,1,.152.921c-.362.588.3,4.171.823,5.472.046.115.11.25.186.4.732,1.434,2.679,4.249,2.679,4.249a2.439,2.439,0,0,0,.909-.078,1.2,1.2,0,0,0,.5-.48,50.691,50.691,0,0,0-1.786-5.449c-.388-.794-.959-8.164-1.711-9.156C3526.914,1972.969,3524.449,1972.4,3524.449,1972.4Z" transform="translate(-3514.903 -1964.695)" fill="#f99746"/>
      <path id="Path_4675" data-name="Path 4675" d="M3537.485,2020.738c-.362.588.3,4.171.822,5.472.046.115.11.25.186.4.7-3.093-.459-7.474-.459-7.474a1.435,1.435,0,0,0-.7.68A4.356,4.356,0,0,1,3537.485,2020.738Z" transform="translate(-3526.453 -2006.595)" fill="#ed7d2b"/>
      <path id="Path_4676" data-name="Path 4676" d="M3489.612,2372.782s-.186,2.8.343,2.838c.07.005,2.681.005,2.681.005H3496a1.151,1.151,0,0,0-1.031-.992,4.518,4.518,0,0,1-3.195-2.142C3491.157,2371.137,3489.612,2372.782,3489.612,2372.782Z" transform="translate(-3483.646 -2322.879)" fill="#0f2949"/>
      <path id="Path_4677" data-name="Path 4677" d="M3440.7,2372.782s-.186,2.8.343,2.838c.07.005,2.681.005,2.681.005h3.367a1.151,1.151,0,0,0-1.031-.992,4.519,4.519,0,0,1-3.195-2.142C3442.249,2371.137,3440.7,2372.782,3440.7,2372.782Z" transform="translate(-3439.802 -2322.879)" fill="#163560"/>
      <path id="Path_4678" data-name="Path 4678" d="M3480.759,2133.1a36.583,36.583,0,0,0-.192,4.077c.084,1.918.145,3.536.145,3.536a8.737,8.737,0,0,0,3.585-.092s.823-4.848,1.5-8.718c.3-1.734.557-3.234.651-3.942.305-2.289-.325-14.462-.325-14.462s-3.422-2.193-4.836-1.062-2.284,2.236-.006,14.623C3481.456,2128,3480.944,2130.447,3480.759,2133.1Z" transform="translate(-3474.951 -2089.941)" fill="#2b478b"/>
      <path id="Path_4679" data-name="Path 4679" d="M3480.759,2133.1a43.942,43.942,0,0,0-.176,4.45c1.19-1.259,3.534-3.916,5.215-5.646.3-1.734.557-3.234.651-3.942.305-2.289-.325-14.462-.325-14.462s-3.422-2.193-4.836-1.062-2.284,2.236-.006,14.623C3481.456,2128,3480.944,2130.447,3480.759,2133.1Z" transform="translate(-3474.951 -2089.941)" fill="#233862"/>
      <path id="Path_4680" data-name="Path 4680" d="M3446.661,2113.356s-.308,12.186-.788,14.445-2.987,12.6-2.987,12.6a9.666,9.666,0,0,1-3.577-.312s.078-4.79.495-7.6c.389-2.629,1.087-5.033.987-5.983-1.32-12.525-.367-13.56,1.129-14.579S3446.661,2113.356,3446.661,2113.356Z" transform="translate(-3438.58 -2089.552)" fill="#2b478b"/>
      <path id="Path_4681" data-name="Path 4681" d="M3450.422,2133.027a2.365,2.365,0,0,1-.751,2.882s-.679.464-.782-.139.016-.393-.148-1.239a2.223,2.223,0,0,1,.532-2.1Z" transform="translate(-3446.986 -2108.156)" fill="#ffb27d"/>
      <path id="Path_4682" data-name="Path 4682" d="M3491.449,1935.927a4.722,4.722,0,0,0-.752,2.761l-1.39,3.35-2.508-3.835a8.807,8.807,0,0,0,1.82-3.409Z" transform="translate(-3481.151 -1930.986)" fill="#ffb27d"/>
      <path id="Path_4683" data-name="Path 4683" d="M3503.689,1909.685s-3.422.148-3.484-1.906-.987-3.42,1.572-3.6c2.1-.148,2.8.729,2.991,1.41S3504.957,1909.575,3503.689,1909.685Z" transform="translate(-3492.979 -1903.526)" fill="#ffb27d"/>
      <path id="Path_4684" data-name="Path 4684" d="M3441.713,1984.869c.735.068,1.747.153,2.975.23q.368.023.761.045c3.708.208,5.181-.393,5.181-.393s.1-.079.067-.515a33.254,33.254,0,0,0-.58-3.331c.129-.958,2.452-8.772,2.452-8.772a4.092,4.092,0,0,0-2.7-3.627,6.448,6.448,0,0,0-.94-.313,1.133,1.133,0,0,1-1.293.755,4.408,4.408,0,0,1-2.514-1.257c-.069,0-.1,0-.1,0a7.585,7.585,0,0,0-.23.814,6.854,6.854,0,0,1-.952,2.754,20.945,20.945,0,0,0-1.52,2.223,18.5,18.5,0,0,0-.925,1.777C3438.968,1980.635,3440.848,1984.787,3441.713,1984.869Z" transform="translate(-3439.379 -1960.478)" fill="#f99746"/>
      <path id="Path_4685" data-name="Path 4685" d="M3449.132,2033.139c.735.069,1.747.153,2.975.23a29.929,29.929,0,0,0-2.1-11.831,2.18,2.18,0,0,0-.263.218,3.822,3.822,0,0,0-.926,1.777C3448.085,2026.271,3448.7,2030.716,3449.132,2033.139Z" transform="translate(-3446.798 -2008.749)" fill="#ed7d2b"/>
      <path id="Path_4686" data-name="Path 4686" d="M3506.571,1937.273s.666,2.642-.464,3.015a3.154,3.154,0,0,1-4.13-3.166,6.765,6.765,0,0,0,2.327.915c.752-.024,1.238-.458,1.933-.119C3506.237,1937.919,3506.491,1937.9,3506.571,1937.273Z" transform="translate(-3494.758 -1933.073)" fill="#2b478b"/>
      <path id="Path_4687" data-name="Path 4687" d="M3437.913,1967.711a5.211,5.211,0,0,0-3.656,1.7c-.968,1.26-1.992,8.02-1.992,9.038s1.09,6.635,1.7,7.246a2.3,2.3,0,0,0,.922,0,1.867,1.867,0,0,0,.889-.432s-.3-6.254-.3-6.841c0-.849,2.655-6.048,2.655-6.048A4.586,4.586,0,0,0,3437.913,1967.711Z" transform="translate(-3432.266 -1960.495)" fill="#f99746"/>
      <path id="Path_4688" data-name="Path 4688" d="M3492.571,1899.316a.594.594,0,0,1,.316-.32,3.659,3.659,0,0,1,3.335.079c-1.181-1.586-4.031-1.253-4.632.177-.98,2.335.813,2.821.813,2.821s1.791-.753.754-1.7a1.687,1.687,0,0,1-.565-.832h0A.833.833,0,0,1,3492.571,1899.316Z" transform="translate(-3485.184 -1898.025)" fill="#2b478b"/>
    </g>
    <g id="Group_3043" data-name="Group 3043" transform="translate(2382.876 1615.116)">
      <path id="Path_4689" data-name="Path 4689" d="M2752.625,2344.517l-.418,1.758-.555,2.331h-1.733l-.1-2.233-.08-1.723Z" transform="translate(-2745.64 -2297.246)" fill="#ffb27d"/>
      <path id="Path_4690" data-name="Path 4690" d="M2809.323,1968.473s1.371-1.467,2.262-.317a12.078,12.078,0,0,0,3.248,2.812c1.368.885-1.209,7.82-2.922,7.677S2803.2,1973.035,2809.323,1968.473Z" transform="translate(-2796.846 -1959.465)" fill="#ed7d2b"/>
      <path id="Path_4691" data-name="Path 4691" d="M2764.725,1961.942a9.436,9.436,0,0,1,6.566-.274c3.072,1.064-2.38,4.028-2.38,4.028l-1.767.076Z" transform="translate(-2759.076 -1953.632)" fill="#a53232"/>
      <path id="Path_4692" data-name="Path 4692" d="M2764.907,1940.412a16.235,16.235,0,0,1-.3,2.735l-1.914,4.125,7.2-1.712-1.718-2.373a11.546,11.546,0,0,1-.247-3.469C2768.2,1938.78,2764.907,1940.412,2764.907,1940.412Z" transform="translate(-2757.252 -1934.106)" fill="#ffb27d"/>
      <path id="Path_4693" data-name="Path 4693" d="M2783.994,1951.46s.57,1.371,1.642,1.341,1.317-1.244,1.317-1.244Z" transform="translate(-2776.349 -1944.892)" fill="#ed985f"/>
      <path id="Path_4694" data-name="Path 4694" d="M2771.58,1893.5a17.188,17.188,0,0,0-.588-2.253,2.2,2.2,0,0,1,2.237-2.982,3.087,3.087,0,0,0,1.592-.222s0,.343-.141.463a1.781,1.781,0,0,1,1.652.584c.725.806-.484,3.627-.423,4.292Z" transform="translate(-2764.575 -1888.04)" fill="#2c3a64"/>
      <path id="Path_4695" data-name="Path 4695" d="M2779.551,1914.43a2.646,2.646,0,0,1-2.208-2.331v-2a.8.8,0,0,1,.725-.851h2.966a.8.8,0,0,1,.725.851v1.887A2.578,2.578,0,0,1,2779.551,1914.43Z" transform="translate(-2770.386 -1907.052)" fill="#ffb27d"/>
      <path id="Path_4696" data-name="Path 4696" d="M2776.486,1907.245s0-1.2.956-1.387,3.083.586,3.385-.291-4.119-.861-4.341-.3A5.649,5.649,0,0,0,2776.486,1907.245Z" transform="translate(-2769.53 -1903.13)" fill="#2c3a64"/>
      <path id="Path_4697" data-name="Path 4697" d="M2749.771,2124.884l-4.217.263c-.024-.04-.052-.04-.082.005l-1.24.077-5.288-.33a56.174,56.174,0,0,0-.807,14.159c.167,2.581.431,6.025.485,8.494h3.922c.47-3.056,1.124-6.214,1.416-7.524q.2-.892.371-1.767a11.19,11.19,0,0,1,.171,1.54,13.753,13.753,0,0,0,.372,2.424c.3,1.452.729,3.252,1,5h3.979c.046-2.408.548-5.693.591-8.167A138.5,138.5,0,0,0,2749.771,2124.884Z" transform="translate(-2735.132 -2100.358)" fill="#2b478b"/>
      <path id="Path_4698" data-name="Path 4698" d="M2741.85,2155.079s1.51,1.83,5.614,1.566a24.1,24.1,0,0,0,6.062-.978Z" transform="translate(-2738.57 -2127.426)" fill="#233862"/>
      <path id="Path_4699" data-name="Path 4699" d="M2751.14,1994.26c-1.341.182-10.46.656-11.676-.588s1.985-18.214,1.985-18.214.363-.1.974-.22c.312-.059.688-.12,1.114-.171a3.6,3.6,0,0,0,1.771,2.959,2.954,2.954,0,0,0,1.8-2.927c0-.025,0-.049-.008-.073.266.028.536.065.806.112a11.447,11.447,0,0,1,1.651.409S2752.481,1994.078,2751.14,1994.26Z" transform="translate(-2736.184 -1966.019)" fill="#bc3f3f"/>
      <path id="Path_4700" data-name="Path 4700" d="M2713.528,1989.309a4.34,4.34,0,0,0,.823,1.264c1.055,1.379,2.743,3.386,2.743,3.386a6.881,6.881,0,0,1-.117,1.119,25.389,25.389,0,0,1-4.926-2.943,7.648,7.648,0,0,1-1.88-1.917c2.343-9.91,5.348-10.942,5.348-10.942l.981,5.972S2713.692,1989.094,2713.528,1989.309Z" transform="translate(-2710.171 -1969.829)" fill="#bc3f3f"/>
      <path id="Path_4701" data-name="Path 4701" d="M2775.9,1975.139l-.6,1.838-.805,1.183-1.156.627-1.088-.627-1.829-2.921c.312-.059.688-.12,1.114-.171a3.6,3.6,0,0,0,1.772,2.959,2.954,2.954,0,0,0,1.8-2.927c0-.025-.005-.049-.009-.073C2775.364,1975.055,2775.634,1975.093,2775.9,1975.139Z" transform="translate(-2764.183 -1966.019)" fill="#ee9849"/>
      <path id="Path_4702" data-name="Path 4702" d="M2733.369,2091.745c0,.019,0,.038,0,.057-.005.125-.012.243-.022.349a1.915,1.915,0,0,1-.193.227,2.039,2.039,0,0,1-.339.275l-.175-.085a24.306,24.306,0,0,1-4.312-2.646,5.176,5.176,0,0,0,2.3-1.563C2731.681,2089.737,2733.369,2091.745,2733.369,2091.745Z" transform="translate(-2726.446 -2067.614)" fill="#ffb27d"/>
      <path id="Path_4703" data-name="Path 4703" d="M2828.921,1988.627a7.648,7.648,0,0,1-1.843,1.952,25.4,25.4,0,0,1-4.868,3.037,6.934,6.934,0,0,1-.139-1.117s1.649-2.039,2.678-3.438a4.337,4.337,0,0,0,.8-1.28c-.13-.164-1.89-2.479-2.676-3.511l-.373-.491.994-5.871S2826.389,1978.764,2828.921,1988.627Z" transform="translate(-2810.483 -1968.602)" fill="#bc3f3f"/>
      <path id="Path_4704" data-name="Path 4704" d="M2827.751,2087.129a24.42,24.42,0,0,1-4.281,2.74l-.149.076a2.752,2.752,0,0,1-.5-.992c.033-.041.076-.095.128-.159.474-.591,1.664-2.084,2.471-3.183A5.169,5.169,0,0,0,2827.751,2087.129Z" transform="translate(-2811.157 -2065.152)" fill="#ffb27d"/>
      <path id="Path_4705" data-name="Path 4705" d="M2784.734,1967.384a15.961,15.961,0,0,0-3.562.04s0-.007,0-.007S2784.468,1965.378,2784.734,1967.384Z" transform="translate(-2773.819 -1958.376)" fill="#ffb27d"/>
      <g id="Group_3038" data-name="Group 3038" transform="translate(7.395 11.597)">
        <g id="Group_3037" data-name="Group 3037" transform="translate(0.096)">
          <path id="Path_4706" data-name="Path 4706" d="M2782.626,2003.209h-.068l-.05-3.178h.171Z" transform="translate(-2782.509 -2000.03)" fill="#bbd4ff"/>
        </g>
        <path id="Path_4707" data-name="Path 4707" d="M2781.723,2029.629c-.062.093-.2.4-.108.433a.391.391,0,0,0,.3-.009C2781.954,2030.01,2781.839,2029.454,2781.723,2029.629Z" transform="translate(-2781.584 -2026.534)" fill="#ee9849"/>
      </g>
      <g id="Group_3040" data-name="Group 3040" transform="translate(10.516 11.597)">
        <g id="Group_3039" data-name="Group 3039" transform="translate(0.096)">
          <path id="Path_4708" data-name="Path 4708" d="M2812.769,2003.209h-.068l-.05-3.178h.171Z" transform="translate(-2812.651 -2000.03)" fill="#bbd4ff"/>
        </g>
        <path id="Path_4709" data-name="Path 4709" d="M2811.864,2029.629c-.062.093-.2.4-.108.433a.39.39,0,0,0,.3-.009C2812.1,2030.01,2811.98,2029.454,2811.864,2029.629Z" transform="translate(-2811.725 -2026.534)" fill="#ee9849"/>
      </g>
      <path id="Path_4710" data-name="Path 4710" d="M2762.115,1971.629l-2.8-2.7s-.631-.448.366-1.118S2762.115,1971.629,2762.115,1971.629Z" transform="translate(-2754.047 -1959.489)" fill="#a53232"/>
      <path id="Path_4711" data-name="Path 4711" d="M2809.754,1971.629l2.8-2.7s.631-.448-.366-1.118S2809.754,1971.629,2809.754,1971.629Z" transform="translate(-2799.442 -1959.489)" fill="#a53232"/>
      <g id="Group_3041" data-name="Group 3041" transform="translate(4.82 22.617)">
        <path id="Path_4712" data-name="Path 4712" d="M2765.728,2108.879a1.732,1.732,0,0,1-1.353-.405,1.687,1.687,0,0,1-.164-.168,2.677,2.677,0,0,1-.52-1.075,3.64,3.64,0,0,1-.111-.708l0-.079h-4.527l0,.084a2.532,2.532,0,0,1-.235,1.248,1.786,1.786,0,0,1-.329.46,1.9,1.9,0,0,1-.4.305,2.747,2.747,0,0,1-1.289.338l-.084,0v1.913h9.1v-1.917Z" transform="translate(-2756.717 -2106.443)" fill="#a53232"/>
      </g>
      <path id="Path_4713" data-name="Path 4713" d="M2844.424,2036.044s-2.524-3.312-.526-4.276c.793-.383,1.909,4.162,1.311,4.589s-1.583.966-1.583.966Z" transform="translate(-2829.36 -2016.864)" fill="#a53232"/>
      <path id="Path_4714" data-name="Path 4714" d="M2733.529,2033.126s.877-4.158.108-3.73-1.91,4.162-1.311,4.589,1.583.966,1.583.966Z" transform="translate(-2729.881 -2014.731)" fill="#a53232"/>
      <g id="Group_3042" data-name="Group 3042" transform="translate(13.18 9.538)">
        <path id="Path_4715" data-name="Path 4715" d="M2838.98,1989.775c-1.153-1.431-1.583-3.754-1.524-6.151a27.965,27.965,0,0,1,.307-3.481l.945.736a6.536,6.536,0,0,0-.584,2.75,13.658,13.658,0,0,0,.792,5.61Z" transform="translate(-2837.45 -1980.142)" fill="#ed7d2b"/>
      </g>
      <path id="Path_4716" data-name="Path 4716" d="M2744.86,2331.347h-2.031c-.18.02-.461-.243-.461-.619a7.449,7.449,0,0,0-.064-1.062c-.261-.7.127-.741.5-.741h3.7c.376,0-.2,1.163-.2,1.539l.133.493C2746.447,2331.332,2745.236,2331.347,2744.86,2331.347Z" transform="translate(-2738.901 -2283.268)" fill="#233862"/>
      <path id="Path_4717" data-name="Path 4717" d="M2747.306,2363.823h0l.555-2.331a3.618,3.618,0,0,1-2.391.1l.1,2.233h0s-.443,1.148-.564,1.43a4.616,4.616,0,0,0-.121,1.13h2.76s.02-.828,0-1.171A10.572,10.572,0,0,0,2747.306,2363.823Z" transform="translate(-2741.293 -2312.464)" fill="#233862"/>
      <path id="Path_4718" data-name="Path 4718" d="M2818.424,2344.517l.418,1.758.554,2.331h1.733l.1-2.233.08-1.723Z" transform="translate(-2807.214 -2297.246)" fill="#ffb27d"/>
      <path id="Path_4719" data-name="Path 4719" d="M2812.919,2331.347h2.031c.18.02.461-.243.461-.619a7.48,7.48,0,0,1,.064-1.062c.261-.7-.127-.741-.5-.741h-3.7c-.376,0,.2,1.163.2,1.539l-.133.493C2811.333,2331.332,2812.543,2331.347,2812.919,2331.347Z" transform="translate(-2800.683 -2283.268)" fill="#233862"/>
      <path id="Path_4720" data-name="Path 4720" d="M2825.307,2365.254c-.121-.282-.564-1.43-.564-1.43h0l.1-2.233a3.618,3.618,0,0,1-2.391-.1l.555,2.331h0a10.61,10.61,0,0,0-.342,1.39c-.02.342,0,1.171,0,1.171h2.76A4.616,4.616,0,0,0,2825.307,2365.254Z" transform="translate(-2810.831 -2312.464)" fill="#233862"/>
    </g>
    <g id="Group_3049" data-name="Group 3049" transform="translate(2352.42 1583.589)">
      <g id="Group_3044" data-name="Group 3044" transform="translate(6.279 19.322)">
        <path id="Path_4721" data-name="Path 4721" d="M2479.24,1836.309h-2.55l1.009-57.5.152-8.625h1.207l.022,7.759Z" transform="translate(-2476.69 -1770.18)" fill="#4375e5"/>
        <path id="Path_4722" data-name="Path 4722" d="M2487.818,1777.939a8.3,8.3,0,0,0-1.381.866l.151-8.625h1.208Z" transform="translate(-2485.428 -1770.18)" fill="#0f47cb"/>
      </g>
      <g id="Group_3047" data-name="Group 3047" transform="translate(0)">
        <rect id="Rectangle_834" data-name="Rectangle 834" width="15.107" height="20.659" rx="6.998" fill="#4375e5"/>
        <rect id="Rectangle_835" data-name="Rectangle 835" width="13.348" height="18.772" rx="6.271" transform="translate(0.88 0.922)" fill="#edf4ff"/>
        <g id="Group_3045" data-name="Group 3045" transform="translate(2.131 4.121)">
          <path id="Path_4723" data-name="Path 4723" d="M2448.382,1654.57a.953.953,0,1,0,.778.778A.954.954,0,0,0,2448.382,1654.57Zm-.161,1.364a.424.424,0,1,1,.424-.424A.424.424,0,0,1,2448.22,1655.934Z" transform="translate(-2446.167 -1651.329)" fill="#ed1556"/>
          <path id="Path_4724" data-name="Path 4724" d="M2510.12,1654.571a.953.953,0,1,0,.776.779A.954.954,0,0,0,2510.12,1654.571Zm-.1,1.358a.424.424,0,1,1,.351-.352A.425.425,0,0,1,2510.025,1655.929Z" transform="translate(-2501.511 -1651.329)" fill="#ed1556"/>
          <path id="Path_4725" data-name="Path 4725" d="M2446.4,1623.386h-8.254a.6.6,0,0,0-.5.268l-.886,1.336a.724.724,0,0,0-.121.4v1.681a.5.5,0,0,0,.5.495h0a.408.408,0,0,0,.392-.309,1.207,1.207,0,0,1,2.322-.037.489.489,0,0,0,.47.346h3.209a.408.408,0,0,0,.392-.31,1.207,1.207,0,0,1,2.325-.025.47.47,0,0,0,.454.334h.355a.431.431,0,0,0,.431-.431v-1.849a.736.736,0,0,0-.046-.256l-.46-1.244A.615.615,0,0,0,2446.4,1623.386Zm-7.456,1.5a.256.256,0,0,1-.256.256h-1.074a.217.217,0,0,1-.188-.324l.482-.845a.54.54,0,0,1,.469-.272h.312a.256.256,0,0,1,.256.256Zm2.441,0a.256.256,0,0,1-.256.256h-1.477a.256.256,0,0,1-.256-.256v-.93a.256.256,0,0,1,.256-.256h1.477a.256.256,0,0,1,.256.256Zm2.445,0a.256.256,0,0,1-.256.256H2442.1a.256.256,0,0,1-.256-.256v-.93a.256.256,0,0,1,.256-.256h1.478a.256.256,0,0,1,.256.256Zm2.461,0a.256.256,0,0,1-.256.256h-1.477a.256.256,0,0,1-.256-.256v-.93a.256.256,0,0,1,.256-.256h1.477a.256.256,0,0,1,.256.256Z" transform="translate(-2436.641 -1623.386)" fill="#ed1556"/>
        </g>
        <g id="Group_3046" data-name="Group 3046" transform="translate(3.591 11.481)">
          <path id="Path_4726" data-name="Path 4726" d="M2461.232,1694.744h.956a.742.742,0,0,1,.538.182.507.507,0,0,1-.129.8.505.505,0,0,1,.385.512c0,.376-.306.565-.77.565h-.979Zm.859.832c.2,0,.326-.065.326-.224,0-.135-.106-.212-.3-.212h-.447v.435Zm.121.829c.2,0,.321-.071.321-.229,0-.138-.1-.224-.335-.224h-.523v.453Z" transform="translate(-2460.146 -1694.715)" fill="#0f47cb"/>
          <path id="Path_4727" data-name="Path 4727" d="M2481.42,1695.92v-1.176h.453v1.164c0,.335.167.509.444.509s.444-.167.444-.494v-1.179h.453v1.161a.829.829,0,0,1-.9.929A.817.817,0,0,1,2481.42,1695.92Z" transform="translate(-2478.243 -1694.715)" fill="#0f47cb"/>
          <path id="Path_4728" data-name="Path 4728" d="M2501.836,1696.248l.268-.321a.944.944,0,0,0,.615.25c.185,0,.3-.074.3-.2s-.071-.173-.415-.262c-.415-.106-.682-.22-.682-.635a.644.644,0,0,1,.72-.62,1.192,1.192,0,0,1,.765.262l-.235.341a.966.966,0,0,0-.535-.2c-.173,0-.265.079-.265.185,0,.135.088.179.444.271.417.109.653.259.653.623,0,.409-.312.638-.755.638A1.31,1.31,0,0,1,2501.836,1696.248Z" transform="translate(-2496.545 -1694.46)" fill="#0f47cb"/>
          <path id="Path_4729" data-name="Path 4729" d="M2450.74,1730.322l.268-.321a.943.943,0,0,0,.614.25c.185,0,.3-.073.3-.2s-.071-.173-.415-.262c-.415-.106-.682-.22-.682-.635a.644.644,0,0,1,.72-.62,1.191,1.191,0,0,1,.764.261l-.235.341a.966.966,0,0,0-.535-.2c-.174,0-.265.079-.265.185,0,.135.088.179.444.271.417.109.653.259.653.623,0,.409-.312.638-.756.638A1.31,1.31,0,0,1,2450.74,1730.322Z" transform="translate(-2450.74 -1725.006)" fill="#0f47cb"/>
          <path id="Path_4730" data-name="Path 4730" d="M2469.056,1729.235h-.626v-.418h1.705v.418h-.626v1.641h-.453Z" transform="translate(-2466.598 -1725.259)" fill="#0f47cb"/>
          <path id="Path_4731" data-name="Path 4731" d="M2486.518,1729.542a1.094,1.094,0,1,1,1.091,1.064A1.064,1.064,0,0,1,2486.518,1729.542Zm1.714,0a.625.625,0,0,0-.624-.647.617.617,0,0,0-.617.647.625.625,0,0,0,.623.647A.617.617,0,0,0,2488.232,1729.542Z" transform="translate(-2482.813 -1724.954)" fill="#0f47cb"/>
          <path id="Path_4732" data-name="Path 4732" d="M2511.534,1728.817h.841a.706.706,0,0,1,.788.717.735.735,0,0,1-.832.723h-.344v.618h-.453Zm.812,1.038a.32.32,0,0,0,.359-.318c0-.2-.141-.312-.368-.312h-.35v.629Z" transform="translate(-2505.239 -1725.259)" fill="#0f47cb"/>
        </g>
      </g>
      <g id="Group_3048" data-name="Group 3048" transform="translate(5.044 77.665)">
        <path id="Path_4733" data-name="Path 4733" d="M2469.79,2341.22h-5.018l.359-6.951a.73.73,0,0,1,.729-.692h2.8a.777.777,0,0,1,.776.737Z" transform="translate(-2464.772 -2333.577)" fill="#0e34c4"/>
        <path id="Path_4734" data-name="Path 4734" d="M2467.087,2341.22h-2.315l.362-7.009a.669.669,0,0,1,.668-.635h.722a1.016,1.016,0,0,1,1.014,1.086Z" transform="translate(-2464.772 -2333.577)" fill="#4f6ee5"/>
      </g>
    </g>
    <g id="Group_3050" data-name="Group 3050" transform="translate(2377.1 1596.899)">
      <path id="Path_4735" data-name="Path 4735" d="M2658.15,1712.124l-.037,2.307-1.1,69.389a.306.306,0,0,1-.306.3h-.082a.607.607,0,0,1-.606-.593l-1.524-66.979-.1-4.426Z" transform="translate(-2654.395 -1712.124)" fill="#ed1556"/>
      <path id="Path_4736" data-name="Path 4736" d="M2658.15,1712.124l-.037,2.307a8.862,8.862,0,0,0-3.618,2.118l-.1-4.426Z" transform="translate(-2654.395 -1712.124)" fill="#d10946"/>
    </g>
    <g id="Group_3051" data-name="Group 3051" transform="translate(2480.393 1596.899)">
      <path id="Path_4737" data-name="Path 4737" d="M3655.617,1712.124l-.037,2.307-1.1,69.389a.306.306,0,0,1-.306.3h-.082a.607.607,0,0,1-.606-.593l-1.524-66.979-.1-4.426Z" transform="translate(-3651.861 -1712.124)" fill="#ed1556"/>
      <path id="Path_4738" data-name="Path 4738" d="M3655.617,1712.124l-.037,2.307a8.864,8.864,0,0,0-3.618,2.118l-.1-4.426Z" transform="translate(-3651.861 -1712.124)" fill="#d10946"/>
    </g>
    <g id="Group_3052" data-name="Group 3052" transform="translate(2372.818 1587.333)">
      <path id="Path_4739" data-name="Path 4739" d="M2729.352,1620.641v8.175a.835.835,0,0,1-.119.429.984.984,0,0,1-.848.465h-114.38a.934.934,0,0,1-.965-.894v-8.175a.934.934,0,0,1,.965-.894h114.38A.935.935,0,0,1,2729.352,1620.641Z" transform="translate(-2613.04 -1619.747)" fill="#ed1556"/>
      <path id="Path_4740" data-name="Path 4740" d="M3028.581,1620.641v8.175a.833.833,0,0,1-.119.429q-.516.237-1.05.465h-48.3a311.473,311.473,0,0,1-32.279-9.963h80.779A.935.935,0,0,1,3028.581,1620.641Z" transform="translate(-2912.27 -1619.747)" fill="#d10946"/>
    </g>
    <path id="Path_4741" data-name="Path 4741" d="M2600.208,2326.044s-3.219-4.917-5.208-3.975S2600.208,2326.044,2600.208,2326.044Z" transform="translate(-223.739 -661.9)" fill="#b8e0af"/>
    <path id="Path_4742" data-name="Path 4742" d="M2643.963,2322.778s-.189-3.551-1.231-3.409S2643.963,2322.778,2643.963,2322.778Z" transform="translate(-266.595 -659.583)" fill="#b8e0af"/>
  </g>
</svg>
