<svg id="Group_5559" data-name="Group 5559" xmlns="http://www.w3.org/2000/svg" xmlns:xlink="http://www.w3.org/1999/xlink" width="93.581" height="104.084" viewBox="0 0 93.581 104.084">
  <defs>
    <linearGradient id="linear-gradient" x1="-4.084" y1="0.596" x2="-1.985" y2="-0.584" gradientUnits="objectBoundingBox">
      <stop offset="0" stop-color="#fff"/>
      <stop offset="0.516" stop-color="#c6c0b9"/>
    </linearGradient>
  </defs>
  <g id="Group_5000" data-name="Group 5000" transform="translate(0 0)">
    <path id="Path_8179" data-name="Path 8179" d="M304.532,422.541a.972.972,0,0,1-.918,1.023h0a.972.972,0,0,1-1.025-.919l-1.64-30.821a.975.975,0,0,1,.92-1.023h0a.972.972,0,0,1,1.021.921Z" transform="translate(-247.273 -323.039)" fill="#b6c2d3"/>
    <path id="Path_8180" data-name="Path 8180" d="M260.579,423.033a.978.978,0,0,0,.921,1.023h0a.976.976,0,0,0,1.023-.921l1.639-30.821a.968.968,0,0,0-.919-1.021h0a.972.972,0,0,0-1.023.919Z" transform="translate(-252.711 -322.973)" fill="#b6c2d3"/>
    <path id="Path_8181" data-name="Path 8181" d="M312.643,399.208l-57.688-.271,2.884-66.265,52.628.007Z" transform="translate(-253.468 -330.869)" fill="#96a6bc"/>
    <path id="Path_8182" data-name="Path 8182" d="M311.55,399.208l-55.843-.271,2.791-66.265,50.945.007Z" transform="translate(-253.367 -330.869)" fill="#e4eef4"/>
    <path id="Path_8183" data-name="Path 8183" d="M311.179,332.643a.6.6,0,0,1-.649.523l-53.165-.008a.579.579,0,0,1-.633-.522l.016-1.038a.6.6,0,0,1,.647-.515h53.137a.593.593,0,0,1,.648.517Z" transform="translate(-253.229 -331.083)" fill="#96a6bc"/>
    <path id="Path_8184" data-name="Path 8184" d="M313.205,392.817a.625.625,0,0,1-.659.591l-58.258-.283a.618.618,0,0,1-.643-.6l.019-1.172a.629.629,0,0,1,.663-.583l58.22.275a.626.626,0,0,1,.658.591Z" transform="translate(-253.645 -323.043)" fill="#96a6bc"/>
    <g id="Group_4984" data-name="Group 4984" transform="translate(7.561 10.245)">
      <path id="Path_8185" data-name="Path 8185" d="M282.362,340.48a11.023,11.023,0,0,0-10.99,10.9,10.847,10.847,0,0,0,10.81,11,11.014,11.014,0,0,0,11-10.969A10.844,10.844,0,0,0,282.362,340.48Zm-.129,15.613a4.642,4.642,0,0,1-4.627-4.7,4.716,4.716,0,0,1,4.706-4.674,4.639,4.639,0,0,1,4.627,4.687A4.712,4.712,0,0,1,282.232,356.093Z" transform="translate(-258.818 -340.062)" fill="#fff"/>
      <g id="Group_4980" data-name="Group 4980" transform="translate(14.521 2.426)">
        <path id="Path_8186" data-name="Path 8186" d="M282.146,342.25a8.979,8.979,0,0,0-8.952,8.886A8.837,8.837,0,0,0,282,360.1a8.972,8.972,0,0,0,8.963-8.931A8.833,8.833,0,0,0,282.146,342.25Zm-.115,14.315a5.348,5.348,0,0,1-5.336-5.422,5.438,5.438,0,0,1,5.425-5.391,5.353,5.353,0,0,1,5.341,5.407A5.433,5.433,0,0,1,282.031,356.565Z" transform="translate(-273.094 -342.25)" fill="#6597ef" opacity="0.7"/>
        <g id="Group_4979" data-name="Group 4979" transform="translate(8.538 9.154)">
          <path id="Path_8187" data-name="Path 8187" d="M289.895,350.323h0l-3.418,0h0a5.3,5.3,0,0,1-5.294,5.272c-.174,0-.352-.01-.526-.026L280.63,359c.175.01.351.027.526.027A8.747,8.747,0,0,0,289.895,350.323Z" transform="translate(-280.63 -350.317)" fill="#e64a00"/>
        </g>
        <path id="Path_8188" data-name="Path 8188" d="M273.106,350.931a8.827,8.827,0,0,0,8.537,8.944l.028-3.528a5.345,5.345,0,0,1-5.066-5.408,5.439,5.439,0,0,1,1.965-4.141c-.716-.983-1.457-1.969-2.107-2.778A8.982,8.982,0,0,0,273.106,350.931Z" transform="translate(-273.106 -342.011)" fill="#6597ef"/>
      </g>
      <path id="Path_8189" data-name="Path 8189" d="M294.182,340.779a.663.663,0,1,1-.657-.667A.659.659,0,0,1,294.182,340.779Z" transform="translate(-255.924 -340.112)" fill="#6597ef" opacity="0.7"/>
      <path id="Path_8190" data-name="Path 8190" d="M294.394,351.558a.667.667,0,1,1-.665-.672A.67.67,0,0,1,294.394,351.558Z" transform="translate(-255.897 -338.661)" fill="#e64a00"/>
      <path id="Path_8191" data-name="Path 8191" d="M268.815,341.654a.68.68,0,0,1-.673.665.655.655,0,0,1-.654-.666.673.673,0,0,1,.671-.665A.661.661,0,0,1,268.815,341.654Z" transform="translate(-259.341 -339.994)" fill="#6597ef"/>
      <path id="Path_8192" data-name="Path 8192" d="M293.493,341.291c.037.045-.066.185-.224.313l-6.5,5.26c-.162.129-.323.2-.357.154h0c-.036-.044.065-.186.225-.314l6.5-5.26c.16-.129.317-.2.354-.153Z" transform="translate(-256.794 -339.955)" fill="#72859b"/>
      <path id="Path_8193" data-name="Path 8193" d="M269.139,342.113c-.037.044.061.185.218.314l6.4,5.271c.158.129.312.2.348.153h0c.039-.043-.059-.185-.214-.313l-6.4-5.27c-.158-.13-.313-.2-.349-.155Z" transform="translate(-259.12 -339.844)" fill="#72859b"/>
      <path id="Path_8194" data-name="Path 8194" d="M293.445,351.6c0,.057-.093.109-.214.112l-4.889.166c-.12,0-.216-.039-.222-.1h0c0-.058.1-.108.217-.112l4.888-.167c.12,0,.217.039.221.1Z" transform="translate(-256.563 -338.577)" fill="#72859b"/>
      <g id="Group_4981" data-name="Group 4981" transform="translate(39.105 0.289)">
        <rect id="Rectangle_1910" data-name="Rectangle 1910" width="7.267" height="0.833" transform="translate(0.014)" fill="#b6c2d3"/>
        <rect id="Rectangle_1911" data-name="Rectangle 1911" width="7.269" height="0.319" transform="translate(0.009 1.568)" fill="#b6c2d3"/>
        <path id="Path_8195" data-name="Path 8195" d="M302.048,342.654l-7.273-.008,0-.319,7.268.008Z" transform="translate(-294.771 -340.103)" fill="#b6c2d3"/>
        <path id="Path_8196" data-name="Path 8196" d="M302.048,343.238l-7.275-.008v-.319l7.275.009Z" transform="translate(-294.771 -340.024)" fill="#b6c2d3"/>
        <path id="Path_8197" data-name="Path 8197" d="M302.047,343.822l-7.276-.009,0-.318,7.274.009Z" transform="translate(-294.771 -339.945)" fill="#b6c2d3"/>
      </g>
      <g id="Group_4982" data-name="Group 4982" transform="translate(39.315 12.435)">
        <rect id="Rectangle_1912" data-name="Rectangle 1912" width="0.839" height="7.292" transform="matrix(0.002, -1, 1, 0.002, 0.01, 0.839)" fill="#b6c2d3"/>
        <path id="Path_8198" data-name="Path 8198" d="M302.256,352.8l-7.295-.012,0-.32,7.295.011Z" transform="translate(-294.955 -350.884)" fill="#b6c2d3"/>
        <path id="Path_8199" data-name="Path 8199" d="M302.256,353.384l-7.3-.014,0-.321,7.295.013Z" transform="translate(-294.956 -350.805)" fill="#b6c2d3"/>
        <path id="Path_8200" data-name="Path 8200" d="M302.254,353.97l-7.3-.012v-.322l7.3.013Z" transform="translate(-294.956 -350.726)" fill="#b6c2d3"/>
        <path id="Path_8201" data-name="Path 8201" d="M302.252,354.557l-7.3-.013v-.32l7.3.014Z" transform="translate(-294.956 -350.647)" fill="#b6c2d3"/>
      </g>
      <g id="Group_4983" data-name="Group 4983" transform="translate(0 1.059)">
        <path id="Path_8202" data-name="Path 8202" d="M267.577,341.883l-7.228-.007.012-.831,7.228.007Z" transform="translate(-260.303 -341.045)" fill="#b6c2d3"/>
        <path id="Path_8203" data-name="Path 8203" d="M267.566,342.749l-7.231-.008,0-.318,7.231.007Z" transform="translate(-260.305 -340.859)" fill="#b6c2d3"/>
        <path id="Path_8204" data-name="Path 8204" d="M267.561,343.329l-7.234-.009,0-.315,7.234.007Z" transform="translate(-260.306 -340.781)" fill="#b6c2d3"/>
        <path id="Path_8205" data-name="Path 8205" d="M267.552,343.912l-7.236-.007,0-.318,7.236.007Z" transform="translate(-260.307 -340.702)" fill="#b6c2d3"/>
        <path id="Path_8206" data-name="Path 8206" d="M267.544,344.495l-7.236-.008,0-.317,7.236.007Z" transform="translate(-260.309 -340.624)" fill="#b6c2d3"/>
      </g>
    </g>
    <g id="Group_4988" data-name="Group 4988" transform="translate(32.186 50.229)">
      <g id="Group_4985" data-name="Group 4985" transform="translate(12.378 9.588)">
        <path id="Path_8207" data-name="Path 8207" d="M301.561,384.522l-8.607-.021.012-.7,8.6.02Z" transform="translate(-292.913 -383.8)" fill="#b6c2d3"/>
        <path id="Path_8208" data-name="Path 8208" d="M301.551,385.254l-8.61-.023,0-.268,8.61.023Z" transform="translate(-292.915 -383.643)" fill="#b6c2d3"/>
        <path id="Path_8209" data-name="Path 8209" d="M301.544,385.746l-8.61-.021,0-.269,8.61.022Z" transform="translate(-292.916 -383.577)" fill="#b6c2d3"/>
        <path id="Path_8210" data-name="Path 8210" d="M301.538,386.238l-8.612-.022,0-.267,8.614.022Z" transform="translate(-292.917 -383.51)" fill="#b6c2d3"/>
        <path id="Path_8211" data-name="Path 8211" d="M301.529,386.731l-8.611-.022,0-.27,8.612.025Z" transform="translate(-292.918 -383.444)" fill="#b6c2d3"/>
      </g>
      <g id="Group_4986" data-name="Group 4986" transform="translate(0 9.558)">
        <path id="Path_8212" data-name="Path 8212" d="M291.728,384.5l-9.673-.024.016-.7,9.669.022Z" transform="translate(-282.004 -383.773)" fill="#b6c2d3"/>
        <path id="Path_8213" data-name="Path 8213" d="M291.713,385.229l-9.673-.023.007-.268,9.671.024Z" transform="translate(-282.006 -383.616)" fill="#b6c2d3"/>
        <path id="Path_8214" data-name="Path 8214" d="M291.709,385.721l-9.679-.024.007-.268,9.676.023Z" transform="translate(-282.007 -383.55)" fill="#b6c2d3"/>
        <path id="Path_8215" data-name="Path 8215" d="M291.7,386.211l-9.678-.024.007-.266,9.676.026Z" transform="translate(-282.009 -383.484)" fill="#b6c2d3"/>
        <path id="Path_8216" data-name="Path 8216" d="M291.69,386.706l-9.68-.026.008-.268,9.676.024Z" transform="translate(-282.01 -383.418)" fill="#b6c2d3"/>
      </g>
      <g id="Group_4987" data-name="Group 4987" transform="translate(0.095)">
        <path id="Path_8217" data-name="Path 8217" d="M284.014,383.415l-1.92,0,.154-7.37,1.915,0Z" transform="translate(-282.094 -375.257)" fill="#6597ef"/>
        <path id="Path_8218" data-name="Path 8218" d="M286.22,383.142l-1.917,0,.1-5.023,1.916,0Z" transform="translate(-281.796 -374.977)" fill="#6597ef"/>
        <path id="Path_8219" data-name="Path 8219" d="M288.678,383.31l-1.916-.008.121-6.374,1.917,0Z" transform="translate(-281.465 -375.137)" fill="#6597ef" opacity="0.7"/>
        <path id="Path_8220" data-name="Path 8220" d="M291.1,383.05l-1.915,0,.076-4.142,1.913,0Z" transform="translate(-281.139 -374.871)" fill="#6597ef" opacity="0.7"/>
        <path id="Path_8221" data-name="Path 8221" d="M293.522,383.19l-1.918,0,.092-5.279,1.913,0Z" transform="translate(-280.813 -375.005)" fill="#6597ef" opacity="0.7"/>
        <path id="Path_8222" data-name="Path 8222" d="M295.948,383.277l-1.923,0,.1-5.986,1.916,0Z" transform="translate(-280.487 -375.088)" fill="#ff781d" opacity="0.68"/>
        <path id="Path_8223" data-name="Path 8223" d="M298.368,383.443l-1.919-.006.113-7.317,1.913,0Z" transform="translate(-280.16 -375.246)" fill="#ff781d"/>
        <path id="Path_8224" data-name="Path 8224" d="M300.794,383.553l-1.923-.006.117-8.2,1.918,0Z" transform="translate(-279.834 -375.35)" fill="#e64a00"/>
      </g>
    </g>
    <g id="Group_4999" data-name="Group 4999" transform="translate(16.2 34.306)">
      <g id="Group_4989" data-name="Group 4989" transform="translate(22.054 1.037)">
        <path id="Path_8225" data-name="Path 8225" d="M290.658,362.506a.333.333,0,1,1-.391-.269A.336.336,0,0,1,290.658,362.506Z" transform="translate(-287.002 -362.231)" fill="#6597ef" opacity="0.7"/>
        <path id="Path_8226" data-name="Path 8226" d="M290.308,362.891c.02.019-.016.1-.085.175l-2.7,3.2c-.067.078-.137.129-.161.109h0c-.019-.018.017-.1.083-.177l2.7-3.2c.066-.077.137-.125.159-.107Z" transform="translate(-287.357 -362.143)" fill="#72859b"/>
      </g>
      <g id="Group_4990" data-name="Group 4990" transform="translate(9.155)">
        <path id="Path_8227" data-name="Path 8227" d="M276.027,361.5a.336.336,0,0,0,.14.449.326.326,0,0,0,.447-.14.332.332,0,1,0-.587-.31Z" transform="translate(-275.99 -361.317)" fill="#ff781d"/>
        <path id="Path_8228" data-name="Path 8228" d="M276.5,362.061c-.028.01-.017.1.022.189l1.62,3.865c.041.1.094.163.12.151h0c.024-.011.015-.1-.026-.189l-1.619-3.867c-.039-.093-.093-.159-.117-.149Z" transform="translate(-275.924 -361.217)" fill="#72859b"/>
      </g>
      <g id="Group_4996" data-name="Group 4996" transform="translate(3.25 5.223)">
        <path id="Path_8229" data-name="Path 8229" d="M291.755,370.223l0-3.126L284,366.218l-8.354.125-4.828.689-.023,3.254c0,.014-.011.026-.014.039s.011.027.014.041v.048l.014,0c.27,1,4.824,1.434,10.449,1.455,5.805.02,10.252-.481,10.252-1.52C291.515,370.294,291.784,370.281,291.755,370.223Z" transform="translate(-270.786 -365.879)" fill="#e64a00"/>
        <g id="Group_4992" data-name="Group 4992" transform="translate(10.824 1.218)">
          <g id="Group_4991" data-name="Group 4991">
            <path id="Path_8230" data-name="Path 8230" d="M290.47,370.369a.659.659,0,0,0,0-.25l0-3.126-3.85.365-6.242.4-.057,4.378C285.979,372.124,290.359,371.214,290.47,370.369Z" transform="translate(-280.325 -366.993)" fill="#4a75dd"/>
          </g>
        </g>
        <g id="Group_4993" data-name="Group 4993" transform="translate(0 1.152)">
          <path id="Path_8231" data-name="Path 8231" d="M270.822,366.935l-.023,3.254c0,.014-.011.026-.014.039s.011.027.014.041v.048l.014,0c.27,1,4.84,1.8,10.468,1.825l.34,0,.019-4.181-7.368-.415Z" transform="translate(-270.786 -366.935)" fill="#66bcf7"/>
        </g>
        <g id="Group_4995" data-name="Group 4995" transform="translate(0.02)">
          <path id="Path_8232" data-name="Path 8232" d="M270.8,367.022c0,.626,4.65,1.147,10.4,1.169s10.418-.475,10.421-1.1-4.661-1.149-10.411-1.166S270.811,366.4,270.8,367.022Zm4.1.011c0-.379,2.828-.676,6.31-.665s6.309.327,6.308.707-2.829.677-6.315.666S274.9,367.413,274.9,367.033Z" transform="translate(-270.804 -365.92)" fill="#ff781d"/>
          <g id="Group_4994" data-name="Group 4994" transform="translate(0.075 1.134)">
            <path id="Path_8233" data-name="Path 8233" d="M270.87,366.919h0l4,.012h0c0,.37,2.748.677,6.147.69.205,0,.412,0,.613,0v.437h-.616C275.41,368.037,270.867,367.53,270.87,366.919Z" transform="translate(-270.87 -366.919)" fill="#8acdff"/>
          </g>
          <path id="Path_8234" data-name="Path 8234" d="M290.459,367.058c0,.616-4.5,1.1-10.107,1.1v-.448c3.337-.006,5.865-.313,5.865-.681,0-.213-.745-.389-2.13-.52.856-.124,1.735-.245,2.505-.345C288.952,366.381,290.459,366.7,290.459,367.058Z" transform="translate(-269.518 -365.887)" fill="#6597ef"/>
        </g>
        <path id="Path_8235" data-name="Path 8235" d="M277.536,367.472l-.525.45,3.8.057-.013-.443Z" transform="translate(-269.948 -365.711)" fill="#fff"/>
        <path id="Path_8236" data-name="Path 8236" d="M277.014,367.868l-.023,4.026s3.732.143,3.794.124c0-1.438.045-4.119.045-4.119Z" transform="translate(-269.95 -365.657)" fill="#e6edf4" opacity="0.55"/>
      </g>
      <g id="Group_4997" data-name="Group 4997" transform="translate(0 4.341)">
        <path id="Path_8237" data-name="Path 8237" d="M267.937,365.58a.33.33,0,0,0,.414.219.34.34,0,0,0,.221-.422.336.336,0,0,0-.419-.219A.341.341,0,0,0,267.937,365.58Z" transform="translate(-267.922 -365.143)" fill="#8acdff"/>
        <path id="Path_8238" data-name="Path 8238" d="M268.678,365.6c-.013.026.056.078.152.117l3.863,1.544c.094.039.179.047.192.019h0c.006-.027-.059-.077-.153-.117l-3.863-1.542c-.094-.039-.18-.049-.191-.022Z" transform="translate(-267.82 -365.082)" fill="#72859b"/>
      </g>
      <g id="Group_4998" data-name="Group 4998" transform="translate(10.2 11.078)">
        <path id="Path_8239" data-name="Path 8239" d="M277.293,376.544a.378.378,0,0,1-.305-.154.387.387,0,0,1,.076-.54.385.385,0,0,1,.461.616A.378.378,0,0,1,277.293,376.544Zm0-.675a.275.275,0,0,0-.169.058.288.288,0,0,0,.344.462.29.29,0,0,0-.175-.52Z" transform="translate(-276.911 -370.447)" fill="#a0aaaf"/>
        <path id="Path_8240" data-name="Path 8240" d="M277.39,376.247c-.027-.008-.03-.094-.007-.2l.908-4.8c.024-.1.068-.175.1-.168h0c.027.009.03.094.006.194l-.911,4.8c-.026.1-.067.177-.092.17Z" transform="translate(-276.85 -371.079)" fill="#72859b"/>
      </g>
    </g>
  </g>
  <g id="Group_5016" data-name="Group 5016" transform="translate(37.374 10.569)">
    <g id="Group_5002" data-name="Group 5002" transform="translate(0 15.337)">
      <path id="Path_8241" data-name="Path 8241" d="M297.967,361.18c-3.816-1.183-3.966-2.226-7.02-3.609-.168-.073.37-2.022.37-2.022a63.661,63.661,0,0,0,9.106,2.022C300.925,357.526,299.532,361.667,297.967,361.18Z" transform="translate(-285.998 -353.694)" fill="#d8a798"/>
      <g id="Group_5001" data-name="Group 5001">
        <path id="Path_8242" data-name="Path 8242" d="M289.744,354.872c-.63-.262-3.07-.633-3.159-.366s1.459.486,2.179.836c0,0-2.106-.609-2.14-.334-.058.449,2.151.719,2.151.719s-1.619-.3-1.685-.1c-.108.342,1.547.241,3.519,1.531C291.106,357.479,289.744,354.872,289.744,354.872Z" transform="translate(-286.582 -353.847)" fill="#cc9987"/>
        <path id="Path_8243" data-name="Path 8243" d="M291.928,355.594a13.236,13.236,0,0,0-2.121-1.069l-1.577-.413-1.353-.2s-.31.313.412.546a9.821,9.821,0,0,1,1.178.342,2.577,2.577,0,0,1,1.349,1.227c.356.825-1.172.883-1.793,1.2-.3.153-.171.349.588.3,1.055-.079,2.309.746,3.878.272s1.709-.871,1.173-1.136S291.928,355.594,291.928,355.594Z" transform="translate(-286.551 -353.914)" fill="#d8a798"/>
      </g>
    </g>
    <g id="Group_5003" data-name="Group 5003" transform="translate(27.361 35.64)">
      <path id="Path_8244" data-name="Path 8244" d="M320.146,419.865c-.11-.948-.589-1.964-.169-6.85.056-.589-5.007-.9-5.007-.9.2,2.4.829,3.9-1.494,6.79-.508.631-1.97,1.793-2.484,2.309-.365.363-.789,2.037,1.391,2.037,2.752,0,4.854-.826,5.551-2.132.059-.107.233-.065.233-.065S320.374,421.789,320.146,419.865Z" transform="translate(-310.695 -366.377)" fill="#0e34c4"/>
      <path id="Path_8245" data-name="Path 8245" d="M325.174,414.8l4.168-.567s-.5.551-.178,1.991c.609,2.665,1.544,3.13,3.2,4.737a2.542,2.542,0,0,1,.558,2.32,2.216,2.216,0,0,1-1.235.631c-1.117.208-3.561-.186-3.985-.793a7.135,7.135,0,0,0-.862-1.046c-.39-.3-.959-.259-1.073-.538a3.756,3.756,0,0,1-.042-2.55C326.205,417.651,325.174,414.8,325.174,414.8Z" transform="translate(-308.745 -366.092)" fill="#0e34c4"/>
      <path id="Path_8246" data-name="Path 8246" d="M311.928,372.051a49.017,49.017,0,0,0-1.063,6.615c-.043,2.562-.066,4.8-.066,5.986,0,1.295,1.135,15.721,2.1,18.957s1.194,16.143.545,17.115-.465,3.774-.465,3.774,7.432-.194,7.6,1.1a39.618,39.618,0,0,0,.4-4.206c.32-5.608-.449-10.049-1.075-17.75-.447-5.559-.121-13.094-.121-15.035,0-1.448,3.226,14.356,4.52,18.886,0,0,2.137,9.577,1.6,13.75-.485,3.76.669,4.733.669,4.733s4.045-2.086,6.309-.791a12.925,12.925,0,0,0-.064-3.78c-.36-2.911-1.043-9.939-2.284-15.4-1.075-4.732-1.105-15.61-1.429-21.431a33.111,33.111,0,0,0-3.075-12.115C325.359,371.291,311.928,372.051,311.928,372.051Z" transform="translate(-310.681 -371.807)" fill="#0e34c4"/>
      <path id="Path_8247" data-name="Path 8247" d="M311.985,384.083a96.668,96.668,0,0,0,1.937,16.459c.724,2.913,1.181,4.809,1.546,6.506s.239,10.312.239,10.919,3.965,4.044,3.168,3.683c-2.141-.979-3.774-1.345-3.774-.979s2.748,1.306,2.748,1.306-4.7.121-4.937,0,.047-2.153.209-3.443,1.131-10.03.161-13.184-2.639-22.3-2.276-24.362S311.985,384.083,311.985,384.083Z" transform="translate(-310.66 -370.636)" fill="#0e34c4"/>
      <path id="Path_8248" data-name="Path 8248" d="M318.879,385.105c1.332,2.67,4.137,16.713,4.743,18.656a15.36,15.36,0,0,0,2.1,4.286c.487.608,3.218,10.313,2.849,12.01-1.213.121-2.427-.119-2.547.488s3.153.363,3.153.363l-4.123,2.182s-.244-2.061-.244-3.638-.261-9.02-1.471-12.9a64.492,64.492,0,0,1-2.5-10.446C320.352,392.705,318.879,385.105,318.879,385.105Z" transform="translate(-309.593 -370.016)" fill="#0e34c4"/>
    </g>
    <path id="Path_8249" data-name="Path 8249" d="M320.149,351.607c-.23-.447-.424-.8-.906-.726s-5.367,1.063-5.487,1.947,1.153,1.719,1.974,1.811S320.149,351.607,320.149,351.607Z" transform="translate(-282.923 -338.987)" fill="#66bcf7"/>
    <g id="Group_5005" data-name="Group 5005" transform="translate(30.965 9.12)">
      <path id="Path_8250" data-name="Path 8250" d="M314.046,350.857a5.329,5.329,0,0,1,.047,3.3c-.336,1,1.316,2.458,1.909,2.392s3.872-3.309,3.872-3.309-.721-3.715-.887-4.585S314.046,350.857,314.046,350.857Z" transform="translate(-313.847 -348.426)" fill="#cc9987"/>
      <g id="Group_5004" data-name="Group 5004">
        <path id="Path_8251" data-name="Path 8251" d="M313.871,351.332a9.072,9.072,0,0,1,.213,1.569c.578.672,4.5,3.218,5.448,3.108.787-.1.068-1.472.508-2.062-.2-.784-1.034-5.329-1.056-5.512Z" transform="translate(-313.871 -348.435)" fill="url(#linear-gradient)" style="mix-blend-mode: multiply;isolation: isolate"/>
      </g>
    </g>
    <path id="Path_8252" data-name="Path 8252" d="M311.846,362.94l-3.242-7.654,5.807-2.381c.277.33,1.4,2.129,2.2,2.017s.479,1.384.479,1.384l.037,20.771-5.353.125a45.036,45.036,0,0,1-.46-5.47C311.282,370.645,311.522,365.832,311.846,362.94Z" transform="translate(-283.615 -338.712)" fill="#8acdff"/>
    <path id="Path_8253" data-name="Path 8253" d="M315.537,370.149c-.107-5.627.054-14.673.891-15.124.715-.386,3.135-2.117,3.384-2.7l.2-.382c3.277,1.231,5.957,1.663,5.786,2.2,0,0-.13,4.411-.264,6.509-.163,2.545-2.125,7.718-1.894,10.135a33.584,33.584,0,0,0,1.534,5.081s-6.855,1.5-8.974,1.282C315.6,377.083,315.587,373.343,315.537,370.149Z" transform="translate(-282.685 -338.843)" fill="#66bcf7"/>
    <g id="Group_5008" data-name="Group 5008" transform="translate(31.305 15.609)">
      <g id="Group_5007" data-name="Group 5007">
        <g id="Group_5006" data-name="Group 5006">
          <path id="Path_8254" data-name="Path 8254" d="M315.8,374.784l-.239-20.514,1.537-.116.563.272-1.135,1.315,1.5,17.143Z" transform="translate(-313.983 -354.153)" fill="#d1203d"/>
          <path id="Path_8255" data-name="Path 8255" d="M314.171,373.267l.923-17.52-.814-1.187.417-.37,1.285.072-.054,1.474h-.009l.074,19.044Z" transform="translate(-314.171 -354.148)" fill="#aa0031"/>
        </g>
      </g>
    </g>
    <g id="Group_5011" data-name="Group 5011" transform="translate(35.861 12.65)">
      <g id="Group_5010" data-name="Group 5010">
        <g id="Group_5009" data-name="Group 5009">
          <path id="Path_8256" data-name="Path 8256" d="M319.79,384.843s8.9.591,8.947-.405c.075-1.66-1.859-9.933-2.191-12.029-.631-3.969-.1-8.97-.29-9.687-1.016-3.962.37-8.708-.272-8.918-1.532-.5-2.646-.96-6.037-2.258,0,0,1.126,5.95-1.743,16.134C317.986,368.392,319.79,384.843,319.79,384.843Z" transform="translate(-318.186 -351.546)" fill="#151823"/>
        </g>
      </g>
    </g>
    <path id="Path_8257" data-name="Path 8257" d="M309.882,375.464c.066-.761-.938-11.3-1.846-13.26-.857-1.856.736-4.925.293-7.8-.01-.064,3.555-.44,5.856-2.458l-1.056,4.339c.353,4.992,1.131,10.241,1.131,10.241s.446,20.305.184,20.406c-.761.278-4.935-.208-4.935-.208S309.629,378.262,309.882,375.464Z" transform="translate(-283.727 -338.842)" fill="#151823"/>
    <path id="Path_8258" data-name="Path 8258" d="M319.5,351.049c.051.542-1.658,2.875-3.326,3.544,1.292-.355,2.946,2.592,3.415,3.125-.093-2.732,1.59-5.679,1.349-5.839C320.472,351.56,319.5,351.049,319.5,351.049Z" transform="translate(-282.596 -338.963)" fill="#8acdff"/>
    <path id="Path_8259" data-name="Path 8259" d="M314.205,352.161a4.052,4.052,0,0,0,1.294,2.259c-1.13-.228-2.634,2.794-2.634,2.794l-.4-3.746S314.229,351.858,314.205,352.161Z" transform="translate(-283.096 -338.818)" fill="#66bcf7"/>
    <path id="Path_8260" data-name="Path 8260" d="M333.559,365.973l-.377-2.339c-3.165-4.25-5.637-7.495-5.637-7.495-1.582-2.187-2.1-3.215-2.723-2.518-.938,1.048-2.07,5.31-1.294,7.079.7,1.6,4.265,5.188,6.264,6.875,0,0,1.5,1.709,2.677,1.188Z" transform="translate(-281.64 -338.645)" fill="#151823"/>
    <path id="Path_8261" data-name="Path 8261" d="M319.562,351.006c1.614,1.726-1.14,13.944-1.384,16.984,0,0,4.106-10.817,4.916-11.383l-1.409-1.548,1.547-.559s-1.323-1.85-1.694-2.277A10.244,10.244,0,0,0,319.562,351.006Z" transform="translate(-282.326 -338.968)" fill="#282a35"/>
    <path id="Path_8262" data-name="Path 8262" d="M310.968,353.989c-.365-.111-.927.1-2.361.777a68.326,68.326,0,0,1-6.679,2.339c-2.789-.226-8.749-1.17-8.749-1.17-1.056-.225-.379,4.791.076,5.243s8.413,1.774,8.413,1.774c1.244.112,9.52-.314,10.3-1.189C312.768,360.847,310.968,353.989,310.968,353.989Z" transform="translate(-285.769 -338.57)" fill="#151823"/>
    <path id="Path_8263" data-name="Path 8263" d="M312.926,353.987c-.452,1.584.791,11.693.942,13.127l-3.47-9.507,1.508-1.961-1.206-.831a17.009,17.009,0,0,1,1.436-1.509,22.152,22.152,0,0,0,1.77-1.961Z" transform="translate(-283.374 -338.922)" fill="#282a35"/>
    <g id="Group_5015" data-name="Group 5015" transform="translate(27.579)">
      <g id="Group_5014" data-name="Group 5014" transform="translate(1.169 1.587)">
        <path id="Path_8264" data-name="Path 8264" d="M319.728,345.294c.091.766-.37,3.583-.33,3.729s.134.672.28.6-.818.893-1.1.669a15.833,15.833,0,0,1-.959-4.061A12.094,12.094,0,0,1,319.728,345.294Z" transform="translate(-311.149 -341.324)" fill="#380f01"/>
        <path id="Path_8265" data-name="Path 8265" d="M312.5,349.616a8.909,8.909,0,0,1-.349-5.046c.338-.99,2.508-1.962,3.034-1.989,3.243-.18,3.5,1.863,3.644,3.973.715-.477,1.063.225,1.052,1.068a2.032,2.032,0,0,1-.715,1.624,3.872,3.872,0,0,1-3.563,3.64,1.731,1.731,0,0,1-1.1-.16,2.389,2.389,0,0,1-1.188-1.152A15.546,15.546,0,0,1,312.5,349.616Z" transform="translate(-311.917 -341.691)" fill="#d8a798"/>
        <g id="Group_5012" data-name="Group 5012" transform="translate(4.377)">
          <path id="Path_8266" data-name="Path 8266" d="M318.367,342.371c-.293-.5-2.25-.788-2.189-.387-.466-.405-.4.637-.4.637-.065-.748.876,1.211.851,1.376,1.876-.061.861,2.258,1.075,2.566a1.173,1.173,0,0,1,.227.789l.426-.228.438-.722.984.759S320.851,343.264,318.367,342.371Z" transform="translate(-315.774 -341.796)" fill="#380f01"/>
        </g>
        <path id="Path_8267" data-name="Path 8267" d="M312.216,348.133c.014.739.153,3.825.561,4.5s1.736,2.132,2.477,2.117c.37-.62-.246-4.005-.246-4.005a1.669,1.669,0,0,1-1.671-.374A4.774,4.774,0,0,1,312.216,348.133Z" transform="translate(-311.876 -340.942)" fill="#59140a"/>
        <g id="Group_5013" data-name="Group 5013" transform="translate(1.18 8.252)">
          <path id="Path_8268" data-name="Path 8268" d="M313.68,349.23c-.339.087-.7,1.141-.723,1.543s1.121-.954,1.456-.848l-.025-.837Z" transform="translate(-312.957 -349.066)" fill="#59140a"/>
          <path id="Path_8269" data-name="Path 8269" d="M314.218,349.091s.739-.108,1.044.15,1.115,1.029,1.115,1.029-.351.382-1.161-.119a1.739,1.739,0,0,0-.974-.222Z" transform="translate(-312.787 -349.068)" fill="#380f01"/>
        </g>
        <path id="Path_8270" data-name="Path 8270" d="M318.386,345.2a19.945,19.945,0,0,1-.955,4.509c-.439.949-2.7,1.383-3.091,1.507-.049.452.5,4.04.5,4.04a4.027,4.027,0,0,0,2.874-2.048,12.9,12.9,0,0,0,1.113-3.944C318.761,348.4,318.386,345.2,318.386,345.2Z" transform="translate(-311.591 -341.337)" fill="#380f01"/>
      </g>
      <path id="Path_8271" data-name="Path 8271" d="M311.987,347.1a6.647,6.647,0,0,1-.37-2.806c.07-.637-.958-1.42-.448-2.436s1.222-.588,1.222-.588,1.606-1.287,2.644-.726c.915.488.77.113,1.3.445.113.07.415.432.525.514.06.036.129-.057.185-.016a2.164,2.164,0,0,1,1,2.134c-.4,1.471-.9.305-1.811.154s-2.06.886-2.06.886.179-.239-.555-.253C311.8,344.375,311.987,347.1,311.987,347.1Z" transform="translate(-310.868 -340.397)" fill="#5b250e"/>
      <path id="Path_8272" data-name="Path 8272" d="M316.527,343.947c.359-.495.848-2.191,1.895-1.682a.91.91,0,0,0-.894.5c.495-.7,1.137-.431,1.7-.087-1.156-.175-1.285.556-1.206,1.038s.46-1.038.431-.711a12.27,12.27,0,0,1-.185,1.734,1.815,1.815,0,0,1-.641,1.176,3.9,3.9,0,0,0-.4-1.564A1.273,1.273,0,0,0,316.527,343.947Z" transform="translate(-310.127 -340.158)" fill="#5b250e"/>
      <path id="Path_8273" data-name="Path 8273" d="M314.007,344.1c-.249-.583-.386-.668-1.331-1.726s-.768-1.551-.364-1.351c-.24-.357-.573,0-.49.289a4.283,4.283,0,0,0,1.205,2C313.635,343.838,314.007,344.1,314.007,344.1Z" transform="translate(-310.762 -340.334)" fill="#380f01"/>
      <path id="Path_8274" data-name="Path 8274" d="M313.3,343.911a1.889,1.889,0,0,1-1.679-1.353,2.526,2.526,0,0,1,.266-1.463s-.532.424-.565.836.286,1.717.936,1.97A1.236,1.236,0,0,0,313.3,343.911Z" transform="translate(-310.829 -340.303)" fill="#380f01"/>
      <path id="Path_8275" data-name="Path 8275" d="M313.07,343.95a2.138,2.138,0,0,1-1.844-1.072,1.977,1.977,0,0,1,.049-1.337,1.76,1.76,0,0,0,.157,2.359c.953.8,1.229.5,1.363.426A1.191,1.191,0,0,0,313.07,343.95Z" transform="translate(-310.887 -340.243)" fill="#380f01"/>
      <path id="Path_8276" data-name="Path 8276" d="M313.977,344.64a9.409,9.409,0,0,0,.07-2.547c-.217-1.053-1.235-1.412-1.557-1.039a.734.734,0,0,1,1.333-.18,2.458,2.458,0,0,1,.573,2.707C313.92,344.688,313.977,344.64,313.977,344.64Z" transform="translate(-310.671 -340.38)" fill="#380f01"/>
      <path id="Path_8277" data-name="Path 8277" d="M314.09,344.258a2.681,2.681,0,0,0,.424-2.681c-.551-1.088-1.3-.957-1.723-.776a1.633,1.633,0,0,1,1.845.259c.47.558,1.123,1.915.39,2.7S314.09,344.258,314.09,344.258Z" transform="translate(-310.63 -340.366)" fill="#380f01"/>
      <path id="Path_8278" data-name="Path 8278" d="M317,344.244c.309-.921,1.072-1.56-.774-3.008.534.332.857,1.878.574,2.115-.191-1.538-.567-2.218-1.237-2.512.432.326,1.255,2.468.837,2.869s.141.424.26.419A.984.984,0,0,1,317,344.244Z" transform="translate(-310.257 -340.338)" fill="#380f01"/>
    </g>
    <path id="Path_8279" data-name="Path 8279" d="M333.963,361.437c.528.829-.039,5.732-1.623,6.261s-2.528.452-2.528-4.15S333.963,361.437,333.963,361.437Z" transform="translate(-280.759 -337.654)" fill="#151823"/>
    <path id="Path_8280" data-name="Path 8280" d="M324.667,354.759a21.576,21.576,0,0,1,3.908,4.652c1.017,1.923,2.323,3.291,2.037,3.738s-.453,3.221-.058,2.146.508-2.037,1.019-1.924,1.245-.452.281-2.036-5.544-6.973-6.45-7.425S324.329,354.477,324.667,354.759Z" transform="translate(-281.474 -338.593)" fill="#282a35"/>
    <path id="Path_8281" data-name="Path 8281" d="M331.322,363.659c-.473-.284-.545-.966-.9-1.424a3.391,3.391,0,0,0-1.39-1.18c-.192-.086.054-.521.491-.444.58.1,1.325.831,1.8.708,0,0,.944-.749,1.5-1.269a6.35,6.35,0,0,1,.967-.85c.844-.595,1.345-.74,1.417-.658.261.3-.6.665-1.04,1.147-.262.294-.334.43-.6.732a15.956,15.956,0,0,1,1.478-1.07,2.468,2.468,0,0,1,1.424-.349c.267.277-.32.521-1.14.982a5.943,5.943,0,0,0-.984.845,11.364,11.364,0,0,1,1.043-.759c.478-.305,1.438-.52,1.557-.38.235.268-.378.5-.977.841a6.484,6.484,0,0,0-1.089.8,4.564,4.564,0,0,1,1.325-.642c.533-.136.811-.183.85-.117.213.33-.82.637-1.562,1.184-.595.437-.408,1.508-2.017,2.059S331.322,363.659,331.322,363.659Z" transform="translate(-280.873 -337.956)" fill="#d8a798"/>
    <path id="Path_8282" data-name="Path 8282" d="M318.351,368.283c.115,2.491.37,13.412,1.954,15.109s9.081-.538,8.41-1.208c-.152-.151-3.772,1.6-7,.869-1.657-.378-2.886-8.319-3-11.26A13.034,13.034,0,0,0,318.351,368.283Z" transform="translate(-282.302 -336.641)" fill="#282a35"/>
    <path id="Path_8283" data-name="Path 8283" d="M314.17,368.634c.111,2.829.716,13.163.377,14.407a2.2,2.2,0,0,1-2.226,1.7c-.905,0-3.017-.264-3.017-.264a14.152,14.152,0,0,0,3.79-.849c.961-.566,1.017-3.893,1.017-7.356C314.109,372.989,314.17,368.634,314.17,368.634Z" transform="translate(-283.521 -336.594)" fill="#282a35"/>
  </g>
</svg>
