<?xml version="1.0" encoding="utf-8"?><svg viewBox="0 0 27.187 25.471" xmlns="http://www.w3.org/2000/svg" xmlns:xlink="http://www.w3.org/1999/xlink"><style>:root>svg{display:none}:root>svg:target{display:block}</style><svg data-name="025-announcer" viewBox="0 0 20 20" id="ic_service1" xmlns="http://www.w3.org/2000/svg"><g data-name="Group 33"><g data-name="Group 32"><path data-name="Path 43" d="M9.167 10a5 5 0 1 0-5-5 5.005 5.005 0 0 0 5 5zm0-9.167A4.167 4.167 0 1 1 5 5 4.172 4.172 0 0 1 9.167.833z"/><path data-name="Path 44" d="M8.982 17.5H1.667a.834.834 0 0 1-.833-.833v-.61a2.919 2.919 0 0 1 1.6-2.6 15.191 15.191 0 0 1 6.735-1.787 14.3 14.3 0 0 1 5.776 1.334.417.417 0 0 0 .339-.762 15.123 15.123 0 0 0-6.115-1.406 16.028 16.028 0 0 0-7.116 1.879A3.749 3.749 0 0 0 0 16.056v.61a1.669 1.669 0 0 0 1.667 1.667h7.315a.417.417 0 1 0 0-.833z"/><path data-name="Path 45" d="M19.583 15.833h-.833a.417.417 0 0 0 0 .833h.833a.417.417 0 1 0 0-.833z"/><path data-name="Path 46" d="M18.75 14.166a.415.415 0 0 0 .295-.122l.833-.833a.417.417 0 0 0-.589-.589l-.833.833a.417.417 0 0 0 .295.711z"/><path data-name="Path 47" d="M19.045 18.455a.417.417 0 1 0-.589.589l.833.833a.417.417 0 0 0 .589-.589z"/><path data-name="Path 48" d="M17.083 12.5a.416.416 0 0 0-.417.417v.527l-5.862 1.832a.414.414 0 0 0-.8.141v1.667a.414.414 0 0 0 .8.141l.863.27v.006a1.654 1.654 0 0 0 3.024.939l1.976.618v.527a.417.417 0 0 0 .833 0v-6.667a.416.416 0 0 0-.417-.418zm-3.75 5.833a.827.827 0 0 1-.778-.562l1.269.4a.819.819 0 0 1-.491.162zm3.333-.15l-5.833-1.823v-.221l5.833-1.823z"/></g></g></svg><svg data-name="032-ad-1" viewBox="0 0 25.471 25.471" id="ic_service10" xmlns="http://www.w3.org/2000/svg"><g data-name="Group 47"><g data-name="Group 46"><path data-name="Path 72" d="M24.893 17.367a.579.579 0 0 0 .579-.579V2.894a.579.579 0 0 0-.579-.579h-1.737V1.158h.579a.579.579 0 1 0 0-1.158h-2.316a.579.579 0 0 0 0 1.158H22v1.158h-8.685V1.158h.579a.579.579 0 1 0 0-1.158h-2.316a.579.579 0 0 0 0 1.158h.579v1.158H3.473V1.158h.579a.579.579 0 1 0 0-1.158H1.737a.579.579 0 1 0 0 1.158h.579v1.158H.579A.579.579 0 0 0 0 2.894v13.894a.579.579 0 0 0 .579.579h1.737v1.158H.579a.579.579 0 1 0 0 1.158h1.737v5.21a.579.579 0 0 0 1.158 0v-5.21H22v5.21a.579.579 0 0 0 1.158 0v-5.21h1.737a.579.579 0 1 0 0-1.158h-1.739v-1.158zM22 18.525H3.473v-1.158H22zM1.158 16.209V3.473h23.156v12.736z"/><path data-name="Path 73" d="M21.419 6.947H4.052a.579.579 0 0 0 0 1.158h17.367a.579.579 0 0 0 0-1.158z"/><path data-name="Path 74" d="M21.419 11.578H4.052a.579.579 0 0 0 0 1.158h17.367a.579.579 0 0 0 0-1.158z"/></g></g></svg><svg viewBox="0 0 25.472 19.104" id="ic_service11" xmlns="http://www.w3.org/2000/svg"><g data-name="026-truck"><g data-name="Group 49"><g data-name="Group 48"><path data-name="Path 75" d="M25.316 7.585L20.01 2.278a.53.53 0 0 0-.375-.155h-4.777A2.125 2.125 0 0 0 12.736 0H2.123A2.125 2.125 0 0 0 0 2.123v13.8a1.063 1.063 0 0 0 1.061 1.061h1.788a3.165 3.165 0 0 0 5.977 0h7.82a3.165 3.165 0 0 0 5.977 0h.726a2.125 2.125 0 0 0 2.123-2.123v-6.9a.531.531 0 0 0-.156-.376zM2.653 15.92H1.061v-1.062h1.788a3.147 3.147 0 0 0-.196 1.062zm3.184 2.123A2.123 2.123 0 1 1 7.96 15.92a2.125 2.125 0 0 1-2.123 2.122zM13.8 15.92H9.021a3.146 3.146 0 0 0-.2-1.061H13.8zm0-2.123H8.2a3.145 3.145 0 0 0-4.712 0H1.061V2.123a1.063 1.063 0 0 1 1.061-1.061h10.614A1.063 1.063 0 0 1 13.8 2.123zm5.837 4.245a2.123 2.123 0 1 1 2.123-2.123 2.125 2.125 0 0 1-2.126 2.123zm4.776-3.184a1.063 1.063 0 0 1-1.061 1.061h-.531a3.184 3.184 0 1 0-6.368 0h-1.595V3.184h4.556l5 5z"/><path data-name="Path 76" d="M18.042 4.776a.531.531 0 0 0-1.061 0v4.245a.53.53 0 0 0 .531.531h5.307a.531.531 0 0 0 0-1.061h-4.776z"/><path data-name="Path 77" d="M5.307 4.245a1.594 1.594 0 0 0-1.592 1.592v3.184a.531.531 0 1 0 1.061 0V8.49h1.062v.531a.531.531 0 1 0 1.061 0V5.837a1.594 1.594 0 0 0-1.592-1.592zm.531 3.184H4.776V5.837a.531.531 0 1 1 1.061 0v1.592z"/><path data-name="Path 78" d="M9.552 4.245H8.491a.53.53 0 0 0-.531.531v4.245a.53.53 0 0 0 .531.531h1.061a1.594 1.594 0 0 0 1.592-1.592V5.837a1.594 1.594 0 0 0-1.592-1.592zm.531 3.715a.531.531 0 0 1-.531.531h-.531V5.307h.531a.531.531 0 0 1 .531.531z"/></g></g></g></svg><svg viewBox="0 0 25.736 13.656" id="ic_service12" xmlns="http://www.w3.org/2000/svg"><g data-name="Group 66"><g data-name="Group 65"><path data-name="Rectangle 30" d="M0 12.868h25.736v.788H0z"/></g></g><g data-name="Group 68"><g data-name="Group 67"><path data-name="Rectangle 31" d="M0 3.357h.839v.788H0z"/></g></g><g data-name="Group 70"><g data-name="Group 69"><path data-name="Path 112" d="M23.756 7.928l-3.243-3.243a4.5 4.5 0 0 0-3.206-1.328H1.678v.788h11.376a3.756 3.756 0 0 0 3.73 3.357h5.432l.983.983a1.584 1.584 0 0 1-1.12 2.7H5.594v.788h16.485a2.372 2.372 0 0 0 1.677-4.05zm-6.969-1.217a2.968 2.968 0 0 1-2.937-2.569h3.46a3.721 3.721 0 0 1 2.649 1.1l1.472 1.472z"/></g></g><g data-name="Group 72"><g data-name="Group 71"><path data-name="Path 113" d="M8.558 5.035v2.462h3.585V5.031zm2.8 1.678h-2.01v-.891h2.01z"/></g></g><g data-name="Group 74"><g data-name="Group 73"><path data-name="Path 114" d="M4.082 5.035v2.462h3.585V5.031zm2.8 1.678h-2.01v-.891h2.003z"/></g></g><g data-name="Group 76"><g data-name="Group 75"><path data-name="Path 115" d="M0 5.035v.788h2.4v.891H0v.788h3.191V5.036z"/></g></g><g data-name="Group 78"><g data-name="Group 77"><path data-name="Rectangle 32" d="M1.678 11.189h2.797v.788H1.678z"/></g></g><g data-name="Group 80"><g data-name="Group 79"><path data-name="Rectangle 33" d="M0 11.189h.839v.788H0z"/></g></g><g data-name="Group 82"><g data-name="Group 81"><path data-name="Rectangle 34" d="M3.357 9.511h5.035v.788H3.357z"/></g></g><g data-name="Group 84"><g data-name="Group 83"><path data-name="Rectangle 35" d="M1.678 9.511h.839v.788h-.839z"/></g></g><g data-name="Group 86"><g data-name="Group 85"><path data-name="Rectangle 36" d="M9.511 1.679h5.035v.788H9.511z"/></g></g><g data-name="Group 88"><g data-name="Group 87"><path data-name="Rectangle 37" d="M7.833 1.679h.839v.788h-.839z"/></g></g><g data-name="Group 90"><g data-name="Group 89"><path data-name="Rectangle 38" d="M6.714 0h3.357v.788H6.714z"/></g></g><g data-name="Group 92"><g data-name="Group 91"><path data-name="Rectangle 39" d="M5.035 0h.839v.788h-.839z"/></g></g><g data-name="Group 94"><g data-name="Group 93"><path data-name="Rectangle 40" d="M17.881 8.392h.788v.788h-.788z"/></g></g><g data-name="Group 96"><g data-name="Group 95"><path data-name="Rectangle 41" d="M16.305 8.392h.788v.788h-.788z"/></g></g><g data-name="Group 98"><g data-name="Group 97"><path data-name="Rectangle 42" d="M21.032 8.392h.788v.788h-.788z"/></g></g><g data-name="Group 100"><g data-name="Group 99"><path data-name="Rectangle 43" d="M19.456 8.392h.788v.788h-.788z"/></g></g></svg><svg viewBox="0 0 16.648 24.972" id="ic_service13" xmlns="http://www.w3.org/2000/svg"><g data-name="022-bus-stop-1"><g data-name="Group 53"><g data-name="Group 52"><path data-name="Path 82" d="M14.046 0H2.601a2.6 2.6 0 0 0-2.6 2.6.52.52 0 0 0 .52.52h.52v18.21a.52.52 0 0 0 .52.52h3.642v2.081h-2.6a.52.52 0 0 0 0 1.041h11.444a.52.52 0 1 0 0-1.041h-2.6V21.85h3.642a.52.52 0 0 0 .52-.52V3.121h.52a.52.52 0 0 0 .52-.52A2.6 2.6 0 0 0 14.046 0zm-3.641 23.931H6.243V21.85h4.162zm4.162-3.121H2.081V3.121h12.486zM1.129 2.081a1.564 1.564 0 0 1 1.472-1.04h11.446a1.564 1.564 0 0 1 1.472 1.04z"/><path data-name="Path 83" d="M4.682 10.925v3.121a.52.52 0 0 0 1.041 0v-.52h1.04v.52a.52.52 0 0 0 1.041 0v-3.121a1.561 1.561 0 0 0-3.122 0zm2.081 0v1.561h-1.04v-1.561a.52.52 0 1 1 1.04 0z"/><path data-name="Path 84" d="M9.364 14.564h1.04a1.562 1.562 0 0 0 1.561-1.561v-2.081a1.562 1.562 0 0 0-1.56-1.558h-1.04a.52.52 0 0 0-.52.52v4.162a.52.52 0 0 0 .519.518zm.52-4.162h.52a.521.521 0 0 1 .52.52v2.081a.521.521 0 0 1-.52.52h-.52z"/><path data-name="Path 85" d="M3.642 6.243a.519.519 0 0 0 .368-.152l1.04-1.04a.52.52 0 1 0-.736-.736l-1.04 1.04a.52.52 0 0 0 .368.888z"/><path data-name="Path 86" d="M4.314 8.172a.52.52 0 0 0 .736 0l2.081-2.081a.52.52 0 0 0-.736-.736L4.314 7.436a.52.52 0 0 0 0 .736z"/></g></g></g></svg><svg data-name="030-ad-2" viewBox="0 0 20 20" id="ic_service14" xmlns="http://www.w3.org/2000/svg"><g data-name="Group 41"><g data-name="Group 40"><path data-name="Path 62" d="M19.583 0H.417A.416.416 0 0 0 0 .417v1.666a.416.416 0 0 0 .417.417h.416v12.083A.416.416 0 0 0 1.25 15H2.5v4.583a.416.416 0 0 0 .417.417h1.666A.416.416 0 0 0 5 19.583V15h10v4.583a.416.416 0 0 0 .417.417h1.667a.416.416 0 0 0 .417-.417V15h1.25a.416.416 0 0 0 .417-.417V2.5h.417A.416.416 0 0 0 20 2.083V.417A.416.416 0 0 0 19.583 0zM4.167 19.167h-.834V15h.833v4.167zm12.5 0h-.833V15h.833zm1.667-5h-4.167v-.833h.417a.417.417 0 0 0 0-.833h-1.667a.417.417 0 0 0 0 .833h.417v.833H6.667v-.833h.417a.417.417 0 0 0 0-.833H5.417a.417.417 0 0 0 0 .833h.417v.833H1.667V2.5h16.666v11.667zm.833-12.5H.833V.833h18.334v.833z"/><path data-name="Path 63" d="M4.584 5.833h10.833a.417.417 0 1 0 0-.833H4.584a.417.417 0 1 0 0 .833z"/><path data-name="Path 64" d="M4.584 9.166h10.833a.417.417 0 0 0 0-.833H4.584a.417.417 0 0 0 0 .833z"/></g></g></svg><svg viewBox="0 0 16.648 24.972" id="ic_service15" xmlns="http://www.w3.org/2000/svg"><g data-name="028-board-2"><g data-name="Group 51"><g data-name="Group 50"><path data-name="Path 79" d="M5.202 17.686a.52.52 0 0 0 .52-.52v-.52h1.04v.52a.52.52 0 0 0 1.041 0v-3.121a1.561 1.561 0 1 0-3.121 0v3.121a.52.52 0 0 0 .52.52zm.52-3.642a.52.52 0 1 1 1.041 0v1.561h-1.04v-1.561z"/><path data-name="Path 80" d="M9.364 17.686h1.04a1.562 1.562 0 0 0 1.561-1.561v-2.081a1.562 1.562 0 0 0-1.56-1.558h-1.04a.52.52 0 0 0-.52.52v4.162a.52.52 0 0 0 .519.518zm.52-4.162h.52a.521.521 0 0 1 .52.52v2.081a.521.521 0 0 1-.52.52h-.52z"/><path data-name="Path 81" d="M16.127 8.324a.52.52 0 0 0 .52-.52V5.723a.52.52 0 0 0-.52-.52h-1.24a7.248 7.248 0 0 0-5.538-4.086c0-.026.015-.049.015-.076a1.04 1.04 0 0 0-2.081 0c0 .027.013.05.015.076A7.247 7.247 0 0 0 1.761 5.2H.52a.52.52 0 0 0-.52.52V7.8a.52.52 0 0 0 .52.52h.52v14.06A2.59 2.59 0 0 0 0 24.448a.52.52 0 0 0 .52.52h15.607a.52.52 0 0 0 .52-.52 2.59 2.59 0 0 0-1.04-2.068V8.324zm-7.8-6.243a6.221 6.221 0 0 1 5.4 3.121h-10.8a6.221 6.221 0 0 1 5.397-3.121zm-7.194 21.85a1.564 1.564 0 0 1 1.472-1.04h11.442a1.564 1.564 0 0 1 1.472 1.04zm.952-2.028V8.324h12.482V21.9a2.6 2.6 0 0 0-.52-.053H2.601a2.6 2.6 0 0 0-.52.053zM1.041 7.283v-1.04h14.566v1.04H1.041z"/></g></g></g></svg><svg viewBox="0 0 27.187 16.485" id="ic_service16" xmlns="http://www.w3.org/2000/svg"><g data-name="Group 110"><g data-name="Group 109"><path data-name="Path 122" d="M26.788 15.689H24.08V11.8a1.725 1.725 0 0 0-1.28-1.669l-1.005-.269h-.01L5.894 5.603v-.495a.4.4 0 0 1 .3-.384l14.6-3.913a.4.4 0 0 1 .383.1.389.389 0 0 1 .118.284v7.459a.4.4 0 1 0 .8 0V1.196a1.195 1.195 0 0 0-1.5-1.154l-5.619 1.506v-.062A1.2 1.2 0 0 0 13.781.291H7.376a1.2 1.2 0 0 0-1.195 1.195v2.416l-.2.053a1.2 1.2 0 0 0-.886 1.154v.8a.394.394 0 0 0 0 .049v.016a.4.4 0 0 0 .29.318l17.2 4.61a.93.93 0 0 1 .689.9v3.889h-7.7v-1.195a1.195 1.195 0 0 0-1.195-1.195H12.8a1.195 1.195 0 0 0-1.195 1.195v1.195H3.9V6.415a.4.4 0 0 1 .225-.358.4.4 0 0 0-.349-.716 1.194 1.194 0 0 0-.671 1.074v9.276H.4a.4.4 0 0 0 0 .8H12a.4.4 0 0 0 .4-.4v-1.593a.4.4 0 0 1 .4-.4h1.59a.4.4 0 0 1 .4.4v1.593a.4.4 0 0 0 .4.4h11.6a.4.4 0 1 0 0-.8zm-19.81-14.2a.4.4 0 0 1 .4-.4h6.392a.4.4 0 0 1 .4.4v.276L6.98 3.692z"/></g></g></svg><svg viewBox="0 0 15.245 22.868" id="ic_service17" xmlns="http://www.w3.org/2000/svg"><g data-name="018-lamp-post"><g data-name="Group 58"><path data-name="Path 98" d="M14.767 8.575H4.288a.476.476 0 0 0-.476.476v1.429h-.953V7.146a.476.476 0 0 0-.476-.476h-.452A6.2 6.2 0 0 1 8.099.953h.953v1.954a2.857 2.857 0 0 0-2.385 2.81v.476a.476.476 0 0 0 .476.476h4.764a.476.476 0 0 0 .476-.476v-.476a2.857 2.857 0 0 0-2.382-2.81V.476A.476.476 0 0 0 9.528 0H8.099A7.149 7.149 0 0 0 .977 6.67h-.5a.476.476 0 0 0-.476.476v15.245a.476.476 0 0 0 .953 0V7.623h.953v14.768a.476.476 0 0 0 .953 0v-3.335h.953v1.429a.476.476 0 0 0 .476.476h10.478a.476.476 0 0 0 .476-.476V9.052a.476.476 0 0 0-.476-.477zm-3.333-2.858H7.623a1.906 1.906 0 1 1 3.811 0zM3.811 18.1h-.953v-6.67h.953zm10.481 1.906H4.767V9.528h9.528z"/></g></g></svg><svg viewBox="0 0 20 20" id="ic_service18" xmlns="http://www.w3.org/2000/svg"><g data-name="004-tv"><g data-name="Group 60"><g data-name="Group 59"><path data-name="Path 99" d="M18.182 4.546h-6.846l4.85-3.731a.455.455 0 1 0-.554-.721L9.996 4.427 4.368.094a.455.455 0 1 0-.554.721l4.85 3.73H1.818A1.82 1.82 0 0 0-.004 6.364v10.909a1.821 1.821 0 0 0 1.364 1.76v.512a.454.454 0 0 0 .458.455h16.364a.454.454 0 0 0 .455-.455v-.512a1.821 1.821 0 0 0 1.359-1.76V6.364a1.82 1.82 0 0 0-1.814-1.818zm.909 12.727a.91.91 0 0 1-.909.909.454.454 0 0 0-.455.455v.455H2.273v-.455a.454.454 0 0 0-.455-.455.91.91 0 0 1-.909-.909V6.364a.91.91 0 0 1 .909-.909h16.364a.91.91 0 0 1 .909.909v10.909z"/><path data-name="Path 100" d="M16.637 6.716a54.3 54.3 0 0 0-6.559-.352 54.323 54.323 0 0 0-6.559.352A1.471 1.471 0 0 0 2.21 7.8a25.78 25.78 0 0 0 0 8.947 1.471 1.471 0 0 0 1.309 1.084 54.307 54.307 0 0 0 6.559.352 54.3 54.3 0 0 0 6.559-.352 1.47 1.47 0 0 0 1.309-1.084 25.747 25.747 0 0 0 0-8.946 1.47 1.47 0 0 0-1.309-1.085zm.422 9.829a.588.588 0 0 1-.535.383 53.374 53.374 0 0 1-6.447.345 53.394 53.394 0 0 1-6.447-.345.589.589 0 0 1-.535-.383 24.925 24.925 0 0 1 0-8.544.588.588 0 0 1 .535-.383 53.393 53.393 0 0 1 6.447-.345 53.373 53.373 0 0 1 6.447.345.588.588 0 0 1 .535.383 24.9 24.9 0 0 1 0 8.545z"/><path data-name="Path 101" d="M8.182 10a1.365 1.365 0 0 0-1.368 1.364v2.727a.455.455 0 0 0 .909 0v-.455h.909v.455a.455.455 0 1 0 .909 0v-2.727A1.365 1.365 0 0 0 8.182 10zm.455 2.727h-.909v-1.364a.455.455 0 0 1 .909 0v1.363z"/><path data-name="Path 102" d="M11.818 10h-.909a.454.454 0 0 0-.455.455v3.636a.454.454 0 0 0 .455.455h.909a1.365 1.365 0 0 0 1.364-1.364v-1.818A1.365 1.365 0 0 0 11.818 10zm.455 3.182a.455.455 0 0 1-.455.455h-.455V10.91h.455a.455.455 0 0 1 .455.455z"/></g></g></g></svg><svg data-name="034-leaflet" viewBox="0 0 20 20" id="ic_service19" xmlns="http://www.w3.org/2000/svg"><g data-name="Group 62"><g data-name="Group 61"><path data-name="Path 103" d="M18.333 3.333h-8.145L9.144.282A.417.417 0 0 0 8.75 0H1.667A1.668 1.668 0 0 0 0 1.667V15a1.668 1.668 0 0 0 1.667 1.667h8.044l1.149 3.063a.417.417 0 0 0 .39.27h7.083A1.668 1.668 0 0 0 20 18.333V5a1.668 1.668 0 0 0-1.667-1.667zm-16.666 12.5A.834.834 0 0 1 .833 15V1.667a.834.834 0 0 1 .834-.834h6.785l5.131 15H1.667zm10.517-6.666h4.483v5h-2.773zm-1.582 7.5h2.647L11.4 18.784zm8.565 1.667a.834.834 0 0 1-.833.833h-6.166l2.312-2.642-.006-.005c.009-.01.023-.015.031-.027a.416.416 0 0 0 .055-.377L14.179 15h2.9a.416.416 0 0 0 .417-.417V8.75a.416.416 0 0 0-.417-.417H11.9l-1.427-4.166h7.86a.834.834 0 0 1 .834.833v13.333z"/><path data-name="Path 104" d="M2.917 9.167a.416.416 0 0 0 .417-.417v-.417h.833v.417a.417.417 0 1 0 .833 0v-2.5a1.25 1.25 0 0 0-2.5 0v2.5a.416.416 0 0 0 .417.417zm.417-2.917a.417.417 0 1 1 .833 0V7.5h-.833z"/><path data-name="Path 105" d="M6.25 9.167h.833a1.251 1.251 0 0 0 1.25-1.25V6.25A1.251 1.251 0 0 0 7.083 5H6.25a.416.416 0 0 0-.417.417V8.75a.416.416 0 0 0 .417.417zm.417-3.333h.417a.417.417 0 0 1 .417.417v1.667a.417.417 0 0 1-.417.417h-.417z"/><path data-name="Path 106" d="M9.583 10.833H2.917a.417.417 0 0 0 0 .833h6.667a.417.417 0 1 0 0-.833z"/></g></g></svg><svg viewBox="0 0 20 21.818" id="ic_service2" xmlns="http://www.w3.org/2000/svg"><g data-name="021-t-shirt"><g data-name="Group 35"><g data-name="Group 34"><path data-name="Path 49" d="M19.994 9.926c-.095-.568-.952-5.591-1.888-7A8.756 8.756 0 0 0 13.78.024a.452.452 0 0 0-.465.11A8.65 8.65 0 0 1 10 .91 8.65 8.65 0 0 1 6.685.134a.451.451 0 0 0-.465-.11A8.756 8.756 0 0 0 1.895 2.93C.959 4.33.101 9.358.007 9.93a.455.455 0 0 0 .245.481 5.96 5.96 0 0 0 2.476.5 6.577 6.577 0 0 0 .909-.071v9.616a.455.455 0 0 0 .2.378c.06.04 1.531.985 6.161.985s6.1-.945 6.161-.985a.455.455 0 0 0 .2-.378v-9.617a6.577 6.577 0 0 0 .909.071 5.96 5.96 0 0 0 2.476-.5.454.454 0 0 0 .25-.484zM10 1.819a11.757 11.757 0 0 0 2.615-.436A3.307 3.307 0 0 1 10 2.728a3.307 3.307 0 0 1-2.615-1.345A11.754 11.754 0 0 0 10 1.819zm7.273 8.182a5.634 5.634 0 0 1-.909-.082V7.728a3.66 3.66 0 0 1 .338-1.968.455.455 0 0 0-.659-.626c-.1.1-.588.684-.588 2.594v12.447A14.508 14.508 0 0 1 10 20.91a14.513 14.513 0 0 1-5.455-.735V7.728c0-1.91-.49-2.5-.588-2.594a.467.467 0 0 0-.652-.01.443.443 0 0 0-.009.633 3.58 3.58 0 0 1 .34 1.971v2.191a5.639 5.639 0 0 1-.909.082 5.5 5.5 0 0 1-1.762-.286c.3-1.7 1.035-5.3 1.686-6.28a7.524 7.524 0 0 1 3.461-2.4A4.358 4.358 0 0 0 10 3.642a4.358 4.358 0 0 0 3.888-2.607 7.524 7.524 0 0 1 3.461 2.4c.651.976 1.385 4.578 1.686 6.281a5.468 5.468 0 0 1-1.762.285z"/><path data-name="Path 50" d="M8.18 8.182a1.365 1.365 0 0 0-1.364 1.364v2.728a.455.455 0 1 0 .909 0v-.455h.909v.455a.455.455 0 0 0 .909 0V9.547A1.365 1.365 0 0 0 8.18 8.182zm.455 2.727h-.909V9.545a.455.455 0 0 1 .909 0v1.364z"/><path data-name="Path 51" d="M11.819 8.182h-.909a.454.454 0 0 0-.455.455v3.637a.454.454 0 0 0 .455.455h.909a1.365 1.365 0 0 0 1.364-1.364V9.547a1.365 1.365 0 0 0-1.364-1.365zm.455 3.182a.455.455 0 0 1-.455.455h-.455V9.092h.455a.455.455 0 0 1 .455.455z"/></g></g></g></svg><svg data-name="012-online" viewBox="0 0 20 20" id="ic_service20" xmlns="http://www.w3.org/2000/svg"><g data-name="Group 57"><g data-name="Group 56"><path data-name="Path 90" d="M18.182 0H1.818A1.82 1.82 0 0 0 0 1.818v16.364A1.82 1.82 0 0 0 1.818 20h16.364A1.82 1.82 0 0 0 20 18.182V1.818A1.82 1.82 0 0 0 18.182 0zm.909 18.182a.91.91 0 0 1-.909.909H1.818a.91.91 0 0 1-.909-.909V4.545h18.182zm0-14.545H.909V1.818a.91.91 0 0 1 .909-.909h16.364a.91.91 0 0 1 .909.909v1.818z"/><circle data-name="Ellipse 7" cx=".455" cy=".455" r=".455" transform="translate(1.818 1.818)"/><circle data-name="Ellipse 8" cx=".455" cy=".455" r=".455" transform="translate(3.636 1.818)"/><circle data-name="Ellipse 9" cx=".455" cy=".455" r=".455" transform="translate(5.455 1.818)"/><path data-name="Path 91" d="M3.182 14.546h9.091a.454.454 0 0 0 .454-.455V6.818a.454.454 0 0 0-.455-.455h-9.09a.454.454 0 0 0-.455.455v7.273a.454.454 0 0 0 .455.455zm.455-7.273h8.182v6.364H3.636z"/><path data-name="Path 92" d="M5.909 8.182a1.365 1.365 0 0 0-1.364 1.364v2.727a.455.455 0 0 0 .909 0v-.455h.909v.455a.455.455 0 1 0 .909 0V9.546a1.365 1.365 0 0 0-1.363-1.364zm.455 2.727h-.909V9.545a.455.455 0 0 1 .909 0v1.364z"/><path data-name="Path 93" d="M9.546 8.182h-.909a.454.454 0 0 0-.455.455v3.636a.454.454 0 0 0 .455.455h.909a1.365 1.365 0 0 0 1.364-1.364V9.546a1.365 1.365 0 0 0-1.364-1.364zm.455 3.182a.455.455 0 0 1-.455.455h-.455V9.092h.455a.455.455 0 0 1 .455.455z"/><path data-name="Path 94" d="M3.182 17.273h13.636a.455.455 0 1 0 0-.909H3.182a.455.455 0 1 0 0 .909z"/><path data-name="Path 95" d="M14.091 9.091h2.727a.455.455 0 1 0 0-.909h-2.727a.455.455 0 1 0 0 .909z"/><path data-name="Path 96" d="M14.091 11.818h2.727a.455.455 0 1 0 0-.909h-2.727a.455.455 0 1 0 0 .909z"/><path data-name="Path 97" d="M14.091 14.545h2.727a.455.455 0 0 0 0-.909h-2.727a.455.455 0 1 0 0 .909z"/></g></g></svg><svg data-name="017-message" viewBox="0 0 20 20" id="ic_service3" xmlns="http://www.w3.org/2000/svg"><g data-name="Group 64"><g data-name="Group 63"><path data-name="Path 107" d="M18.182 0H1.818A1.82 1.82 0 0 0 0 1.818v17.727a.454.454 0 0 0 .776.321l4.412-4.412h12.994A1.82 1.82 0 0 0 20 13.636V1.818A1.82 1.82 0 0 0 18.182 0zm.909 13.636a.91.91 0 0 1-.909.909H5a.454.454 0 0 0-.321.133l-3.77 3.77V1.818a.91.91 0 0 1 .909-.909h16.364a.91.91 0 0 1 .909.909v11.818z"/><path data-name="Path 108" d="M15 7.273h-.909a.455.455 0 0 0 0 .909H15a.455.455 0 1 0 0-.909z"/><path data-name="Path 109" d="M14.679 3.77l-.909.909a.455.455 0 1 0 .643.643l.909-.909a.455.455 0 0 0-.643-.643z"/><path data-name="Path 110" d="M14.413 10.133a.455.455 0 1 0-.643.643l.909.909a.455.455 0 1 0 .643-.643z"/><path data-name="Path 111" d="M12.272 3.636a.454.454 0 0 0-.455.455v.575l-6.395 2a.452.452 0 0 0-.878.154v1.818a.452.452 0 0 0 .878.154l.941.294v.007a1.8 1.8 0 0 0 3.3 1.024l2.156.674v.575a.455.455 0 1 0 .909 0V4.091a.454.454 0 0 0-.456-.455zm-4.093 6.367a.9.9 0 0 1-.849-.613l1.385.433a.893.893 0 0 1-.536.18zm3.636-.164L5.451 7.851v-.248l6.364-1.988z"/></g></g></svg><svg data-name="013-store" viewBox="0 0 20 20" id="ic_service4" xmlns="http://www.w3.org/2000/svg"><g data-name="Group 39"><g data-name="Group 38"><path data-name="Path 57" d="M19.583 8.333h-3.75V7.5h2.083a.416.416 0 0 0 .417-.417V.417A.416.416 0 0 0 17.917 0H2.083a.416.416 0 0 0-.417.417v6.666a.416.416 0 0 0 .417.417h2.084v.833H.417A.416.416 0 0 0 0 8.75v1.667a.416.416 0 0 0 .417.417h.416v8.75A.416.416 0 0 0 1.25 20h17.5a.416.416 0 0 0 .417-.417v-8.75h.417a.416.416 0 0 0 .416-.416V8.75a.416.416 0 0 0-.417-.417zM2.5 6.667V.833h15v5.834h-15zM15 7.5v.833H5V7.5zm3.333 11.667H1.667v-8.334h16.666v8.333zM19.167 10H.833v-.833h18.334V10z"/><path data-name="Path 58" d="M8.333 1.667a1.251 1.251 0 0 0-1.25 1.25v2.5a.417.417 0 1 0 .833 0V5h.834v.417a.417.417 0 1 0 .833 0v-2.5a1.251 1.251 0 0 0-1.25-1.25zm.417 2.5h-.833v-1.25a.417.417 0 1 1 .833 0z"/><path data-name="Path 59" d="M11.667 1.667h-.833a.416.416 0 0 0-.417.417v3.333a.416.416 0 0 0 .417.417h.833a1.251 1.251 0 0 0 1.25-1.25V2.917a1.251 1.251 0 0 0-1.25-1.25zm.417 2.917a.417.417 0 0 1-.417.417h-.417V2.5h.417a.417.417 0 0 1 .417.417v1.667z"/><path data-name="Path 60" d="M3.75 17.5h5a.416.416 0 0 0 .417-.417v-4.167a.416.416 0 0 0-.417-.416h-5a.416.416 0 0 0-.417.417v4.167a.416.416 0 0 0 .417.416zm.417-4.167h4.167v3.333H4.166z"/><path data-name="Path 61" d="M11.25 17.5h5a.416.416 0 0 0 .417-.417v-4.167a.416.416 0 0 0-.417-.417h-5a.416.416 0 0 0-.417.417v4.167a.416.416 0 0 0 .417.417zm.417-4.167h4.167v3.333h-4.167z"/></g></g></svg><svg data-name="025-announcer" viewBox="0 0 23.414 19.333" id="ic_service5" xmlns="http://www.w3.org/2000/svg"><g data-name="Group 33"><g data-name="Group 32"><path data-name="Path 43" d="M9.167 10a5 5 0 1 0-5-5 5.005 5.005 0 0 0 5 5zm0-9.167A4.167 4.167 0 1 1 5 5 4.172 4.172 0 0 1 9.167.833z"/><path data-name="Path 117" d="M18.328 12.672a4 4 0 1 0-4-4 4 4 0 0 0 4 4zm0-7.328a3.331 3.331 0 1 1-3.331 3.334 3.335 3.335 0 0 1 3.331-3.334z"/><path data-name="Path 44" d="M8.982 17.5H1.667a.834.834 0 0 1-.833-.833v-.61a2.919 2.919 0 0 1 1.6-2.6 15.191 15.191 0 0 1 6.735-1.787 14.3 14.3 0 0 1 5.776 1.334.417.417 0 0 0 .339-.762 15.123 15.123 0 0 0-6.115-1.406 16.028 16.028 0 0 0-7.116 1.879A3.749 3.749 0 0 0 0 16.056v.61a1.669 1.669 0 0 0 1.667 1.667h7.315a.417.417 0 1 0 0-.833z"/><path data-name="Path 116" d="M18.18 18.667h-5.848a.667.667 0 0 1-.666-.662v-.488a2.334 2.334 0 0 1 1.278-2.081 12.144 12.144 0 0 1 5.384-1.431 11.428 11.428 0 0 1 4.618 1.067.333.333 0 0 0 .271-.609 12.089 12.089 0 0 0-4.888-1.124 12.813 12.813 0 0 0-5.688 1.5A3 3 0 0 0 11 17.514v.491a1.334 1.334 0 0 0 1.332 1.332h5.848a.333.333 0 1 0 0-.666z"/></g></g></svg><svg data-name="027-ad-3" viewBox="0 0 20 20" id="ic_service6" xmlns="http://www.w3.org/2000/svg"><g data-name="Group 37"><g data-name="Group 36"><path data-name="Path 52" d="M5.417 9.166A1.667 1.667 0 1 0 3.75 7.5a1.668 1.668 0 0 0 1.667 1.666zm0-2.5a.833.833 0 1 1-.833.833.834.834 0 0 1 .833-.833z"/><path data-name="Path 53" d="M19.583 0H.417a.417.417 0 0 0 0 .833h.416v10.834A1.668 1.668 0 0 0 2.5 13.333v1.25a.416.416 0 0 0 .417.417h.417v4.583A.416.416 0 0 0 3.75 20h3.333a.416.416 0 0 0 .417-.417V15h.417a.416.416 0 0 0 .417-.417v-1.25h1.25v1.795a.822.822 0 0 0-.417.705.833.833 0 1 0 1.667 0 .822.822 0 0 0-.417-.705v-1.795H17.5a1.668 1.668 0 0 0 1.667-1.667V.833h.417a.417.417 0 1 0 0-.833zM7.5 14.167h-.417a.416.416 0 0 0-.417.417v4.583h-2.5v-4.584a.416.416 0 0 0-.417-.417h-.416v-2.9a.405.405 0 0 1 .2-.358l.142-.08a2.893 2.893 0 0 1 1.74-.413 2.893 2.893 0 0 1 1.74.413l.142.08a.4.4 0 0 1 .2.358v2.9zm10.833-2.5a.834.834 0 0 1-.833.833H8.333v-1.231A1.237 1.237 0 0 0 7.7 10.18l-.13-.074a3.71 3.71 0 0 0-2.154-.523 3.71 3.71 0 0 0-2.154.523l-.131.074a1.237 1.237 0 0 0-.631 1.089V12.5a.834.834 0 0 1-.833-.833V.833h16.666v10.834z"/><path data-name="Path 54" d="M10.417 7.5a.416.416 0 0 0 .417-.417v-.417h.833v.417a.417.417 0 1 0 .833 0v-2.5a1.25 1.25 0 0 0-2.5 0v2.5a.416.416 0 0 0 .417.417zm.417-2.917a.417.417 0 0 1 .833 0v1.25h-.833v-1.25z"/><path data-name="Path 55" d="M13.75 7.5h.833a1.251 1.251 0 0 0 1.25-1.25V4.583a1.251 1.251 0 0 0-1.25-1.25h-.833a.416.416 0 0 0-.417.417v3.333a.416.416 0 0 0 .417.417zm.417-3.333h.417a.417.417 0 0 1 .417.417V6.25a.417.417 0 0 1-.417.417h-.417z"/><path data-name="Path 56" d="M9.584 10.001h6.667a.417.417 0 0 0 0-.833H9.584a.417.417 0 0 0 0 .833z"/></g></g></svg><svg viewBox="0 0 16 21.333" id="ic_service7" xmlns="http://www.w3.org/2000/svg"><g data-name="036-advertising"><g data-name="Group 55"><g data-name="Group 54"><path data-name="Path 87" d="M6.222 7.111a1.335 1.335 0 0 0-1.333 1.333v2.667a.445.445 0 0 0 .889 0v-.444h.889v.444a.445.445 0 1 0 .889 0V8.444a1.335 1.335 0 0 0-1.334-1.333zm.444 2.667h-.889V8.444a.445.445 0 1 1 .889 0z"/><path data-name="Path 88" d="M9.777 7.111h-.889a.444.444 0 0 0-.444.444v3.556a.444.444 0 0 0 .444.444h.889a1.335 1.335 0 0 0 1.333-1.333V8.444a1.335 1.335 0 0 0-1.333-1.333zm.444 3.111a.445.445 0 0 1-.444.444h-.444V7.999h.444a.445.445 0 0 1 .444.444z"/><path data-name="Path 89" d="M15.556 1.778h-.444v-.445a.444.444 0 0 0-.444-.444H8.444V.444a.445.445 0 1 0-.889 0v.445H1.333a.444.444 0 0 0-.444.444v.444H.445a.445.445 0 1 0 0 .889h.444v.444a.444.444 0 0 0 .444.444h.444v11.557h-.444a.444.444 0 0 0-.444.444v1.778a.444.444 0 0 0 .444.444h6.222v1.075L4.668 20.5a.445.445 0 1 0 .441.772l2.446-1.4v1.012a.445.445 0 0 0 .889 0v-1.007l2.446 1.4a.44.44 0 0 0 .22.059.444.444 0 0 0 .221-.83l-2.887-1.65v-1.078h6.222a.444.444 0 0 0 .444-.444v-1.778a.444.444 0 0 0-.444-.444h-.444V3.556h.444a.444.444 0 0 0 .444-.444v-.445h.444a.445.445 0 1 0 0-.889zm-1.334 15.111H1.778V16h12.444v.889zM2.667 15.111V3.556h10.666v11.555H2.667zM14.222 2.667H1.778v-.889h12.444v.889z"/></g></g></g></svg><svg data-name="001-worldwide" viewBox="0 0 20 20" id="ic_service8" xmlns="http://www.w3.org/2000/svg"><g data-name="Group 45"><g data-name="Group 44"><path data-name="Path 67" d="M19.583 15.833h-.833a.417.417 0 1 0 0 .833h.833a.417.417 0 0 0 0-.833z"/><path data-name="Path 68" d="M18.456 14.044a.417.417 0 0 0 .589 0l.833-.833a.417.417 0 0 0-.589-.589l-.833.833a.417.417 0 0 0 0 .589z"/><path data-name="Path 69" d="M19.045 18.456a.417.417 0 1 0-.589.589l.833.833a.417.417 0 0 0 .589-.589z"/><path data-name="Path 70" d="M17.083 12.5a.416.416 0 0 0-.417.417v.527l-5.862 1.832a.414.414 0 0 0-.8.141v1.667a.414.414 0 0 0 .8.141l.863.27v.006a1.654 1.654 0 0 0 3.024.939l1.976.618v.527a.417.417 0 0 0 .833 0v-6.667a.416.416 0 0 0-.417-.418zm-3.75 5.833a.827.827 0 0 1-.778-.562l1.27.4a.819.819 0 0 1-.492.162zm3.333-.15l-5.833-1.823v-.221l5.833-1.823z"/><path data-name="Path 71" d="M17.484 5.337a.411.411 0 0 0-.1-.2 9.147 9.147 0 0 0-16.438 0 .411.411 0 0 0-.1.2 9 9 0 0 0-.01 7.611.411.411 0 0 0 .131.274 9.209 9.209 0 0 0 8 5.1h.008a.418.418 0 0 0 .353-.207.428.428 0 0 0 .006-.423.415.415 0 0 0-.315-.214c-1.038-.127-2.131-1.654-2.728-4.147h5.742c0 .008 0 .018-.005.026a.417.417 0 0 0 .811.2c.017-.072.029-.149.046-.221h1.7a.417.417 0 0 0 0-.833h-1.53a19.787 19.787 0 0 0 .278-3.333 19.583 19.583 0 0 0-.283-3.333h3.75a8.278 8.278 0 0 1 .7 3.333 8.372 8.372 0 0 1-.273 2.08.417.417 0 1 0 .807.208 9.22 9.22 0 0 0 .3-2.287 9.1 9.1 0 0 0-.85-3.834zM9.167.833c1.1 0 2.259 1.573 2.878 4.167H6.289C6.908 2.406 8.064.833 9.167.833zm-1.987.24A9.338 9.338 0 0 0 5.45 5H1.957A8.362 8.362 0 0 1 7.18 1.073zM.833 9.167a8.279 8.279 0 0 1 .7-3.333h3.75a19.792 19.792 0 0 0 0 6.667h-3.74a8.2 8.2 0 0 1-.71-3.334zm6.339 8.081a8.418 8.418 0 0 1-5.2-3.915h3.477a9.3 9.3 0 0 0 1.723 3.915zm5.033-4.748h-6.09a18.914 18.914 0 0 1-.282-3.333 18.943 18.943 0 0 1 .283-3.333h6.1a18.939 18.939 0 0 1 .284 3.333 18.788 18.788 0 0 1-.295 3.333zm.678-7.5a9.338 9.338 0 0 0-1.73-3.927A8.362 8.362 0 0 1 16.376 5z"/></g></g></svg><svg viewBox="0 0 16 21.333" id="ic_service9" xmlns="http://www.w3.org/2000/svg"><g data-name="035-flag"><g data-name="Group 43"><g data-name="Group 42"><path data-name="Path 65" d="M7.5 6.888A4.759 4.759 0 0 0 3.24 0H1.333a.444.444 0 0 0-.444.444v20H.445a.445.445 0 1 0 0 .889h1.778a.445.445 0 1 0 0-.889h-.444v-2.117zm-5.72-6h1.46A3.87 3.87 0 0 1 6.7 6.49l-4.924 9.849z"/><path data-name="Path 66" d="M12.889 0H9.333a.444.444 0 0 0-.444.444v20h-.444a.445.445 0 1 0 0 .889h1.778a.445.445 0 1 0 0-.889h-.444v-2.666h3.111a3.115 3.115 0 0 0 3.111-3.111V3.111A3.115 3.115 0 0 0 12.889 0zm2.222 14.667a2.225 2.225 0 0 1-2.222 2.222H9.778v-16h3.111a2.225 2.225 0 0 1 2.222 2.222z"/></g></g></g></svg></svg>