<svg xmlns="http://www.w3.org/2000/svg" width="144.362" height="78.016" viewBox="0 0 144.362 78.016">
  <g id="Group_5569" data-name="Group 5569" transform="translate(-326.191 -2794)">
    <g id="Group_5553" data-name="Group 5553" transform="translate(326.191 2805.713)">
      <path id="Path_2801" data-name="Path 2801" d="M598.706,1744.468h-1.014a5.466,5.466,0,0,1-5.466-5.466h0a5.466,5.466,0,0,1,5.466-5.466h1.014a5.466,5.466,0,0,1,5.466,5.466h0A5.466,5.466,0,0,1,598.706,1744.468Z" transform="translate(-485.457 -1711.488)" fill="#edf4ff"/>
      <g id="Group_1160" data-name="Group 1160" transform="translate(0 0)">
        <path id="Path_2802" data-name="Path 2802" d="M377.251,1655.292h-104.2a5.466,5.466,0,0,0-5.466,5.466h0a5.466,5.466,0,0,0,5.466,5.466h104.2a5.466,5.466,0,0,0,5.466-5.466h0A5.466,5.466,0,0,0,377.251,1655.292Z" transform="translate(-252.295 -1655.292)" fill="#edf4ff"/>
        <path id="Path_2803" data-name="Path 2803" d="M316.07,1710.489h0a5.467,5.467,0,0,0-5.466-5.467h-9.949a5.466,5.466,0,0,1,1.024-10.836h.037v-.1H242.964v.108c.117-.008.235-.012.354-.012h1.014a5.466,5.466,0,0,1,1.024,10.836H218.786a5.467,5.467,0,0,0-5.466,5.467h0a5.466,5.466,0,0,0,5.466,5.466H310.6A5.466,5.466,0,0,0,316.07,1710.489Z" transform="translate(-213.32 -1683.158)" fill="#edf4ff"/>
        <path id="Path_2804" data-name="Path 2804" d="M349.156,1782.617H337.137v-.114c-.078,0-.156.006-.235.006h-1.014a5.467,5.467,0,0,1-1.086-10.824H269.157a5.467,5.467,0,0,1-1.085,10.824h-.011v.108h-7.144a5.466,5.466,0,0,0-5.466,5.466h0a5.466,5.466,0,0,0,5.466,5.466h88.24a5.466,5.466,0,0,0,5.466-5.466h0A5.466,5.466,0,0,0,349.156,1782.617Z" transform="translate(-243.579 -1738.888)" fill="#edf4ff"/>
      </g>
      <path id="Path_2805" data-name="Path 2805" d="M626.979,1821.415h-5.687a5.466,5.466,0,0,1-5.466-5.466h0a5.465,5.465,0,0,1,5.466-5.466h5.687a5.466,5.466,0,0,1,5.466,5.466h0A5.466,5.466,0,0,1,626.979,1821.415Z" transform="translate(-502.407 -1766.753)" fill="#edf4ff"/>
      <path id="Path_2806" data-name="Path 2806" d="M692.311,1821.415h0a5.466,5.466,0,0,1-5.466-5.466h0a5.466,5.466,0,0,1,5.466-5.466h0a5.461,5.461,0,0,1,5.466,5.466h0A5.466,5.466,0,0,1,692.311,1821.415Z" transform="translate(-553.414 -1766.753)" fill="#edf4ff"/>
    </g>
    <g id="moscow" transform="translate(337.144 2782.288)">
      <g id="Group_2784" data-name="Group 2784" transform="translate(0 11.712)">
        <path id="Path_4132" data-name="Path 4132" d="M51.7,11.712C23.146,11.712,0,35.078,0,63.9,0,79.531,6.745,89.723,6.745,89.723l89.882,0A54.637,54.637,0,0,0,103.391,63.9C103.391,35.078,80.245,11.712,51.7,11.712ZM92.835,83.37l-82.114-.036a45.587,45.587,0,1,1,86.672-19.6A44.009,44.009,0,0,1,92.835,83.37Z" transform="translate(0 -11.712)" fill="#0e34c4"/>
        <path id="Path_4133" data-name="Path 4133" d="M65.309,24.523H64.66L50.871,51.543,36.585,24.291,17.026,73.522H11.971v3.954H39.663V73.522H34.168l5.495-15.386,11.208,19.34L61.64,58.136l5.493,15.386H61.64v3.954H89.11V73.522H84.351Z" transform="translate(0.997 -10.664)" fill="#0e34c4"/>
      </g>
    </g>
  </g>
</svg>
