<svg xmlns="http://www.w3.org/2000/svg" width="137.54" height="65.127" viewBox="0 0 137.54 65.127">
  <g id="Group_3111" data-name="Group 3111" transform="translate(-287.607 -63.75)">
    <path id="Path_4794" data-name="Path 4794" d="M451.6,79l-8.1.884.295,2.357H451.6Z" transform="translate(-64.046 -6.265)" fill="#a1b2b0"/>
    <rect id="Rectangle_860" data-name="Rectangle 860" width="0.442" height="21.063" transform="translate(374.667 66.99)" fill="#638481"/>
    <rect id="Rectangle_861" data-name="Rectangle 861" width="0.442" height="21.063" transform="translate(377.171 63.75)" fill="#638481"/>
    <path id="Path_4795" data-name="Path 4795" d="M419.828,82.667H305.333v4.124l114.495,5.7Z" transform="translate(-7.283 -7.772)" fill="#edd8ae"/>
    <path id="Path_4796" data-name="Path 4796" d="M416.828,85.167H302.333v4.124l114.494,5.7Z" transform="translate(-6.05 -8.799)" fill="#ed1556"/>
    <rect id="Rectangle_862" data-name="Rectangle 862" width="112.692" height="13.236" transform="translate(301.223 114.287)" fill="#ffd69f"/>
    <rect id="Rectangle_863" data-name="Rectangle 863" width="10.321" height="12.029" transform="translate(301.182 115.481)" fill="#4f4743"/>
    <rect id="Rectangle_864" data-name="Rectangle 864" width="33.937" height="12.029" transform="translate(334.175 115.481)" fill="#4f4743"/>
    <rect id="Rectangle_865" data-name="Rectangle 865" width="9.732" height="7.365" transform="translate(301.182 118.1)" fill="#639390"/>
    <rect id="Rectangle_866" data-name="Rectangle 866" width="9.438" height="6.972" transform="translate(301.182 118.297)" fill="#95c1bf"/>
    <rect id="Rectangle_867" data-name="Rectangle 867" width="32.906" height="7.365" transform="translate(334.691 118.1)" fill="#639390"/>
    <rect id="Rectangle_868" data-name="Rectangle 868" width="32.268" height="6.775" transform="translate(335.01 118.395)" fill="#95c1bf"/>
    <rect id="Rectangle_869" data-name="Rectangle 869" width="0.221" height="10.752" transform="translate(357.581 116.186)" fill="#4f4743"/>
    <rect id="Rectangle_870" data-name="Rectangle 870" width="0.221" height="10.752" transform="translate(345.871 116.186)" fill="#4f4743"/>
    <rect id="Rectangle_871" data-name="Rectangle 871" width="41.989" height="12.029" transform="translate(370.311 115.481)" fill="#4f4743"/>
    <rect id="Rectangle_872" data-name="Rectangle 872" width="40.713" height="7.365" transform="translate(370.949 118.1)" fill="#639390"/>
    <rect id="Rectangle_873" data-name="Rectangle 873" width="40.123" height="6.873" transform="translate(371.244 118.346)" fill="#95c1bf"/>
    <rect id="Rectangle_874" data-name="Rectangle 874" width="0.274" height="10.752" transform="translate(399.27 116.186)" fill="#4f4743"/>
    <rect id="Rectangle_875" data-name="Rectangle 875" width="0.273" height="10.752" transform="translate(384.782 116.186)" fill="#4f4743"/>
    <rect id="Rectangle_876" data-name="Rectangle 876" width="16.338" height="2.718" transform="translate(314.733 115.481)" fill="#4f4743"/>
    <rect id="Rectangle_877" data-name="Rectangle 877" width="1.257" height="19.829" transform="translate(294.729 108.435)" fill="#ffbc8a"/>
    <rect id="Rectangle_878" data-name="Rectangle 878" width="1.257" height="17.031" transform="translate(294.729 101.512)" fill="#d88b56"/>
    <rect id="Rectangle_879" data-name="Rectangle 879" width="1.257" height="19.829" transform="translate(419.222 108.435)" fill="#ffbc8a"/>
    <rect id="Rectangle_880" data-name="Rectangle 880" width="1.257" height="17.031" transform="translate(419.222 101.512)" fill="#d88b56"/>
    <rect id="Rectangle_881" data-name="Rectangle 881" width="16.338" height="8.892" transform="translate(314.733 119.065)" fill="#4f4743"/>
    <rect id="Rectangle_882" data-name="Rectangle 882" width="15.106" height="6.969" transform="translate(315.349 119.671)" fill="#639390"/>
    <rect id="Rectangle_883" data-name="Rectangle 883" width="14.517" height="6.674" transform="translate(315.643 119.819)" fill="#95c1bf"/>
    <path id="Path_4797" data-name="Path 4797" d="M348.732,158.667H344.3l-3.617,6.9h6.2Z" transform="translate(-21.804 -38.995)" fill="#bad8d6" opacity="0.6" style="mix-blend-mode: overlay;isolation: isolate"/>
    <path id="Path_4798" data-name="Path 4798" d="M320.485,156H318.09l-3.813,7.221h3.348Z" transform="translate(-10.957 -37.9)" fill="#bad8d6" opacity="0.6" style="mix-blend-mode: overlay;isolation: isolate"/>
    <path id="Path_4799" data-name="Path 4799" d="M394.272,156H382.654l-10.46,7.306h16.248Z" transform="translate(-34.751 -37.9)" fill="#bad8d6" opacity="0.6" style="mix-blend-mode: overlay;isolation: isolate"/>
    <path id="Path_4800" data-name="Path 4800" d="M464.022,156H452.4l-10.46,7.306h16.248Z" transform="translate(-63.407 -37.9)" fill="#bad8d6" opacity="0.6" style="mix-blend-mode: overlay;isolation: isolate"/>
    <rect id="Rectangle_884" data-name="Rectangle 884" width="0.491" height="7.757" transform="translate(322.796 119.304)" fill="#4f4743"/>
    <rect id="Rectangle_885" data-name="Rectangle 885" width="15.613" height="0.23" transform="translate(315.137 121.14)" fill="#4f4743"/>
    <rect id="Rectangle_886" data-name="Rectangle 886" width="135.734" height="1.84" transform="translate(287.607 127.037)" fill="#fff5d9"/>
    <rect id="Rectangle_887" data-name="Rectangle 887" width="135.734" height="0.859" transform="translate(287.607 128.018)" fill="#d6af7c"/>
    <rect id="Rectangle_888" data-name="Rectangle 888" width="2.651" height="1.031" transform="translate(415.393 116.407)" fill="#37727c"/>
    <rect id="Rectangle_889" data-name="Rectangle 889" width="0.221" height="2.725" transform="translate(416.424 114.197)" fill="#37727c"/>
    <rect id="Rectangle_890" data-name="Rectangle 890" width="112.732" height="7.861" transform="translate(301.182 112.551)" fill="#a08157" opacity="0.8" style="mix-blend-mode: multiply;isolation: isolate"/>
    <path id="Path_4801" data-name="Path 4801" d="M419.628,94.977,294.33,89.25v35.794H427.09Z" transform="translate(-2.762 -10.476)" fill="#37727c"/>
    <path id="Path_4802" data-name="Path 4802" d="M419.876,86.973,292.94,80.584v39.933h134.4Z" transform="translate(-2.191 -6.916)" fill="#4b98ff"/>
    <g id="Group_3107" data-name="Group 3107" transform="translate(292.994 73.781)">
      <path id="Path_4803" data-name="Path 4803" d="M391.9,122.447V85.565l-5.6-.282v37.164Z" transform="translate(-333.543 -82.627)" fill="#b2dbd9" opacity="0.219"/>
      <path id="Path_4804" data-name="Path 4804" d="M369.514,121.984V84.438l-5.6-.282v37.828Z" transform="translate(-324.344 -82.164)" fill="#b2dbd9" opacity="0.219"/>
      <path id="Path_4805" data-name="Path 4805" d="M347.125,121.521V83.311l-5.6-.282v38.492Z" transform="translate(-315.146 -81.701)" fill="#b2dbd9" opacity="0.219"/>
      <path id="Path_4806" data-name="Path 4806" d="M324.736,121.058V82.184l-5.6-.282v39.156Z" transform="translate(-305.948 -81.238)" fill="#b2dbd9" opacity="0.219"/>
      <path id="Path_4807" data-name="Path 4807" d="M302.347,120.6V81.057l-5.6-.282V120.6Z" transform="translate(-296.75 -80.775)" fill="#b2dbd9" opacity="0.219"/>
      <path id="Path_4808" data-name="Path 4808" d="M503.847,124.762V91.2l-5.6-.282v33.844Z" transform="translate(-379.533 -84.943)" fill="#b2dbd9" opacity="0.219"/>
      <path id="Path_4809" data-name="Path 4809" d="M481.458,124.3V90.073l-5.6-.282V124.3Z" transform="translate(-370.335 -84.48)" fill="#b2dbd9" opacity="0.219"/>
      <path id="Path_4810" data-name="Path 4810" d="M459.069,123.836V88.946l-5.6-.282v35.172Z" transform="translate(-361.137 -84.016)" fill="#b2dbd9" opacity="0.219"/>
      <path id="Path_4811" data-name="Path 4811" d="M436.681,123.373V87.819l-5.6-.282v35.836Z" transform="translate(-351.939 -83.553)" fill="#b2dbd9" opacity="0.219"/>
      <path id="Path_4812" data-name="Path 4812" d="M414.291,122.91V86.692l-5.6-.282v36.5Z" transform="translate(-342.741 -83.09)" fill="#b2dbd9" opacity="0.219"/>
    </g>
    <path id="Path_4813" data-name="Path 4813" d="M420.063,87.817l-.188-.843L292.94,80.584v1.168Z" transform="translate(-2.191 -6.916)" fill="#8fedef"/>
    <g id="Group_3108" data-name="Group 3108" transform="translate(315.842 78.479)">
      <rect id="Rectangle_891" data-name="Rectangle 891" width="7.641" height="3.24" fill="#fff"/>
      <rect id="Rectangle_892" data-name="Rectangle 892" width="7.052" height="2.553" transform="translate(0.295 0.344)" fill="#fff"/>
    </g>
    <g id="Group_3109" data-name="Group 3109" transform="translate(306.317 78.479)">
      <rect id="Rectangle_893" data-name="Rectangle 893" width="7.641" height="3.24" fill="#fff"/>
      <rect id="Rectangle_894" data-name="Rectangle 894" width="7.052" height="2.553" transform="translate(0.295 0.344)" fill="#fff"/>
    </g>
    <g id="Group_3110" data-name="Group 3110" transform="translate(296.792 78.479)">
      <rect id="Rectangle_895" data-name="Rectangle 895" width="7.641" height="3.24" fill="#fff"/>
      <rect id="Rectangle_896" data-name="Rectangle 896" width="7.052" height="2.553" transform="translate(0.295 0.344)" fill="#fff"/>
    </g>
    <path id="Path_4814" data-name="Path 4814" d="M292.94,126.3v2.8H425.07l-.623-2.8Z" transform="translate(-2.191 -25.7)" fill="#fff"/>
    <path id="Path_4815" data-name="Path 4815" d="M425.414,133.3l-.11-.491H292.94v.491Z" transform="translate(-2.191 -28.37)" fill="#fff"/>
    <rect id="Rectangle_897" data-name="Rectangle 897" width="2.357" height="0.81" transform="translate(317.002 123.882)" fill="#e1f9f7"/>
    <rect id="Rectangle_898" data-name="Rectangle 898" width="2.357" height="0.81" transform="translate(326.134 123.882)" fill="#e1f9f7"/>
  </g>
</svg>
