<svg xmlns="http://www.w3.org/2000/svg" width="114.788" height="86.894" viewBox="0 0 114.788 86.894">
  <g id="Group_5561" data-name="Group 5561" transform="translate(-329.093 -1229.051)">
    <path id="Path_7378" data-name="Path 7378" d="M624.018,159.749a3.4,3.4,0,0,0-3.139,2.079,3.4,3.4,0,0,0-3.749.344c-1.8,1.481-.878,2.931-.878,2.931,1.274,3.108,7.427,4.681,7.427,4.681s3.812-5.079,2.86-8.3C626.538,161.483,626.353,159.773,624.018,159.749Z" transform="translate(-221.74 1076.178)" fill="#ffca55"/>
    <g id="Group_4538" data-name="Group 4538" transform="translate(383.304 1244.084)">
      <g id="Group_4508" data-name="Group 4508" transform="translate(0.068 5.049)">
        <path id="Path_7381" data-name="Path 7381" d="M646.933,219.631c-.009,23.335-.663,27.9-6.523,33.13-2.295,2.048-6.515,6.3-18.692,8.418a91.222,91.222,0,0,1-13.278,1.213,44.254,44.254,0,0,1-5.908-.219,30.811,30.811,0,0,1-4.176-.73c-13.383-3.353-14.383-14.82-8.53-24.466a55.592,55.592,0,0,1,5.179-7.092c2.867-3.381,5.94-6.385,8.723-9.188a62.094,62.094,0,0,0,6.57-7.38,18.569,18.569,0,0,0,1.766-3.006c.108-.237.218-.473.328-.705.361-.758.731-1.487,1.1-2.185.7-1.309,1.419-2.506,2.11-3.578.55-.855,1.085-1.63,1.582-2.318a38.185,38.185,0,0,1,2.978-3.688s.158-.074.451-.2c.155-.065.35-.144.579-.231.092-.035.189-.072.292-.11l.321-.116.32-.111c.13-.045.265-.09.405-.136l.253-.08.154-.048.059-.018a26.562,26.562,0,0,1,6.714-1.18C637.406,195.337,646.942,199.13,646.933,219.631Z" transform="translate(-586.424 -195.599)" fill="#eb4747"/>
      </g>
      <g id="Group_4509" data-name="Group 4509" transform="translate(24.924 63.03)">
        <path id="Path_7382" data-name="Path 7382" d="M658.411,354.159a14.47,14.47,0,0,0,.445,2.254c.255.69,1.635,2.282,1.051,3.812-.632,1.659-3.391.06-4.517-.446s-.869-1.424-.989-2.549-.669-1.155-.466-1.946a9.572,9.572,0,0,1,1.433-2.305Z" transform="translate(-653.891 -352.978)" fill="#b7ceff"/>
      </g>
      <g id="Group_4511" data-name="Group 4511" transform="translate(26.246 62.212)">
        <g id="Group_4510" data-name="Group 4510">
          <path id="Path_7383" data-name="Path 7383" d="M658.167,350.757s-.707.988-.687,1.016,3.025,1.857,3.235,1.263a6.117,6.117,0,0,0,.236-1.155Z" transform="translate(-657.48 -350.757)" fill="#eea886"/>
        </g>
      </g>
      <g id="Group_4512" data-name="Group 4512" transform="translate(11.897 65.267)">
        <path id="Path_7384" data-name="Path 7384" d="M623.378,359.1a11.371,11.371,0,0,0-1.74,2.039c-.823,1.235-3.01,1.3-3.1,2.987s2.972,1.738,4.582,1.189,1.853-2.2,2.826-2.608,1.479-.745,1.4-1.549a9.79,9.79,0,0,0-.613-2.109,6.745,6.745,0,0,1-.96.232A7.978,7.978,0,0,1,623.378,359.1Z" transform="translate(-618.532 -359.049)" fill="#b7ceff"/>
      </g>
      <g id="Group_4513" data-name="Group 4513" transform="translate(16.391 14.712)">
        <path id="Path_7385" data-name="Path 7385" d="M642.116,226.746s-.617,3.669-1.114,6.092h0a14.556,14.556,0,0,1-.5,2.005,28.315,28.315,0,0,1-2.717,3.011c-2.487,2.559-5.772,5.783-5.772,5.783l-1.285-2.438s2.918-3.421,4.9-5.7c.916-1.056,1.63-1.869,1.761-1.986.413-.37.894-4.016,1.569-7.019a12.1,12.1,0,0,1,2.026-4.664Z" transform="translate(-630.731 -221.826)" fill="#e8e8e8"/>
      </g>
      <g id="Group_4514" data-name="Group 4514" transform="translate(16.391 28.381)">
        <path id="Path_7386" data-name="Path 7386" d="M637.788,261.288c-2.487,2.559-5.772,5.783-5.772,5.783l-1.285-2.438s2.918-3.421,4.9-5.7A4.15,4.15,0,0,1,637.788,261.288Z" transform="translate(-630.731 -258.929)" fill="#eea886"/>
      </g>
      <g id="Group_4515" data-name="Group 4515" transform="translate(16.743 64.193)">
        <path id="Path_7387" data-name="Path 7387" d="M631.829,356.135l-.144,1.124a5.541,5.541,0,0,0,3.355-.05l.036-1Z" transform="translate(-631.685 -356.135)" fill="#eea886"/>
      </g>
      <g id="Group_4516" data-name="Group 4516" transform="translate(22.639 12.622)">
        <path id="Path_7388" data-name="Path 7388" d="M664.594,239.559c.092.326-16.9,0-16.9,0s4.7-3.422,5.006-4.336-1.2-6.4-1.393-8.184c-.157-1.428-.549-7.818.392-8.794.984-1.02,4.527-2.09,4.527-2.09l5.167.192a8.076,8.076,0,0,1,1.462.461c.609.283,4.095,1.525,4.661,3.266s-3.478,7.34-3.478,7.34-.008.252-.02.664h0c-.016.55-.039,1.385-.06,2.292-.027,1.174-.05,2.467-.05,3.41A33.8,33.8,0,0,0,664.594,239.559Z" transform="translate(-647.69 -216.154)" fill="#e8e8e8"/>
      </g>
      <g id="Group_4517" data-name="Group 4517" transform="translate(10.674 35.147)">
        <path id="Path_7389" data-name="Path 7389" d="M644.083,278.175s2.312,3.4,2.345,5.713-4.1,10.083-4.729,11.193c-1.881,3.339-7.041,10.541-7.041,10.541a13.871,13.871,0,0,1-3.664-1.1s3.432-9.514,3.867-10.5c1.845-4.189,2.875-7.16,2.255-7.879a21.816,21.816,0,0,0-2.8-1.863c-.49-.424-9.021,1.613-9.915,1.844-2.315.6-1.26,4.628-.748,6.434.857,3.021,1.606,13.93,1.606,13.93a7.861,7.861,0,0,1-4.411.109s-5.423-19.7-5.6-21.659-.26-5.189,13.1-7.645Z" transform="translate(-615.213 -277.294)" fill="#303669"/>
      </g>
      <g id="Group_4518" data-name="Group 4518" transform="translate(28.977 1.328)">
        <path id="Path_7390" data-name="Path 7390" d="M668.5,185.567s-4.485-1.012-3.46,4.632,2.1,6.087,4.808,4.919,2.464-4.784,2.6-6.557S669.936,185.629,668.5,185.567Z" transform="translate(-664.893 -185.497)" fill="#eea886"/>
      </g>
      <g id="Group_4519" data-name="Group 4519" transform="translate(31.403 6.961)">
        <path id="Path_7391" data-name="Path 7391" d="M671.477,207.9s1.986,2.105,5.125.192a30.372,30.372,0,0,1-.332-6.785c.37-2.223-4.1,3.443-4.1,3.443.058.031.1.243.106.545a5.934,5.934,0,0,1-.046.9C672.142,206.935,671.912,207.716,671.477,207.9Z" transform="translate(-671.477 -200.787)" fill="#eea886"/>
      </g>
      <g id="Group_4520" data-name="Group 4520" transform="translate(28.716 0)">
        <path id="Path_7392" data-name="Path 7392" d="M671.787,189.181s-.115-1.778-.765-1.834-.749.661-.749.661l-.656.124s.207-1.558-.442-1.831-4.2.858-4.722.4-.276-3.619.666-4.051,3.541-1.4,5.446-.112c0,0,1.485-.169,1.705,1.029A16.437,16.437,0,0,1,671.787,189.181Z" transform="translate(-664.185 -181.892)" fill="#3a3f47"/>
      </g>
      <g id="Group_4521" data-name="Group 4521" transform="translate(32.16 9.392)">
        <path id="Path_7393" data-name="Path 7393" d="M673.531,210.364c3.238-1,3.482-2.948,3.486-2.979a4.888,4.888,0,0,1-3.439,2.075A5.934,5.934,0,0,1,673.531,210.364Z" transform="translate(-673.531 -207.385)" fill="#a77860"/>
      </g>
      <g id="Group_4522" data-name="Group 4522" transform="translate(29.77 12.318)">
        <path id="Path_7394" data-name="Path 7394" d="M675.127,216.311s-2.372,4.721-6.2,4.416-.653-5.05-.479-5.094C668.637,215.585,672.375,214.654,675.127,216.311Z" transform="translate(-667.044 -215.329)" fill="#eea886"/>
      </g>
      <g id="Group_4523" data-name="Group 4523" transform="translate(20.694 34.329)">
        <path id="Path_7395" data-name="Path 7395" d="M642.411,276.533s11.738,1.447,18.85.24l-13.588-1.7S647.592,275.421,642.411,276.533Z" transform="translate(-642.411 -275.074)" fill="#e8e8e8"/>
      </g>
      <g id="Group_4524" data-name="Group 4524" transform="translate(28.6 33.795)">
        <path id="Path_7396" data-name="Path 7396" d="M664.743,273.623l-.874.443a4.006,4.006,0,0,0,.678,1.81l.981-.25A4.076,4.076,0,0,0,664.743,273.623Z" transform="translate(-663.869 -273.623)" fill="#eea886"/>
      </g>
      <g id="Group_4525" data-name="Group 4525" transform="translate(29.474 16.094)">
        <path id="Path_7397" data-name="Path 7397" d="M679.825,240.434a44.251,44.251,0,0,1-5.09,2.135h0c-3.561,1.372-7.578,2.67-7.578,2.67l-.914-1.961s4.207-2.286,7.05-3.889c1.343-.757,2.381-1.362,2.528-1.5.457-.435.576-1.133.24-2.351s-1.111-6.813-1.2-7.466.217-2.394,1.85-2.482a4.9,4.9,0,0,1,2.464.374s.41.17.714,4.132S680.238,239.955,679.825,240.434Z" transform="translate(-666.242 -225.577)" fill="#e8e8e8"/>
      </g>
      <g id="Group_4526" data-name="Group 4526" transform="translate(37.968 19.763)">
        <path id="Path_7398" data-name="Path 7398" d="M690.291,240.318h0c-.016.55-.039,1.385-.06,2.292a11.454,11.454,0,0,1-.657-7.075A23.049,23.049,0,0,0,690.291,240.318Z" transform="translate(-689.296 -235.535)" fill="#b0b0b0"/>
      </g>
      <g id="Group_4527" data-name="Group 4527" transform="translate(25.909 21.723)">
        <path id="Path_7399" data-name="Path 7399" d="M657.317,244.857h0a14.565,14.565,0,0,1-.5,2.005,20.726,20.726,0,0,1-.055-6.006A33.925,33.925,0,0,0,657.317,244.857Z" transform="translate(-656.564 -240.857)" fill="#b0b0b0"/>
      </g>
      <g id="Group_4528" data-name="Group 4528" transform="translate(29.474 29.905)">
        <path id="Path_7400" data-name="Path 7400" d="M674.735,266.246h0c-3.561,1.372-7.708,2.712-7.708,2.712l-.785-2s4.207-2.286,7.05-3.889C673.292,263.066,674.326,263.57,674.735,266.246Z" transform="translate(-666.242 -263.066)" fill="#eea886"/>
      </g>
      <g id="Group_4529" data-name="Group 4529" transform="translate(12.537 35.668)">
        <path id="Path_7401" data-name="Path 7401" d="M636.953,278.954l-16.684-.246,8.423,4.277Z" transform="translate(-620.269 -278.708)" fill="#444c94"/>
      </g>
      <g id="Group_4530" data-name="Group 4530" transform="translate(20.307 35.914)">
        <path id="Path_7402" data-name="Path 7402" d="M642.013,283.406l8.261-3.2v-.831l-8.914,3.215Z" transform="translate(-641.36 -279.375)" fill="#303669"/>
      </g>
      <g id="Group_4532" data-name="Group 4532" transform="translate(22.974 33.896)">
        <g id="Group_4531" data-name="Group 4531">
          <path id="Path_7403" data-name="Path 7403" d="M654.412,274.27s-1.042-.162-1.762-.33a3.609,3.609,0,0,0-2.3.406c-.353.358-1.476,2.85-1.688,3s.109.5.482.327c0,0,.343,1.091,1.187.683s1.419-1.3,1.862-1.457,3.02-.949,3.02-.949S655.076,274,654.412,274.27Z" transform="translate(-648.597 -273.898)" fill="#eea886"/>
        </g>
      </g>
      <g id="Group_4534" data-name="Group 4534" transform="translate(23.049 34.182)">
        <g id="Group_4533" data-name="Group 4533">
          <path id="Path_7404" data-name="Path 7404" d="M650.737,274.673a7.26,7.26,0,0,0-.844.467c-.175.144-.884.675-1.056.8s.259.479,1.526-.069S650.737,274.673,650.737,274.673Z" transform="translate(-648.802 -274.673)" fill="#eea886"/>
        </g>
      </g>
      <g id="Group_4535" data-name="Group 4535" transform="translate(0 26.396)">
        <path id="Path_7405" data-name="Path 7405" d="M607.2,267.088l-4.962-13.549-16,.261,4.729,12.487Z" transform="translate(-586.239 -253.539)" fill="#303669"/>
      </g>
      <g id="Group_4536" data-name="Group 4536" transform="translate(8.164 31.128)">
        <path id="Path_7406" data-name="Path 7406" d="M611.115,267.646c.488.976.34,2.039-.33,2.374s-1.609-.185-2.1-1.161-.34-2.038.329-2.374S610.626,266.67,611.115,267.646Z" transform="translate(-608.4 -266.384)" fill="#518afa"/>
      </g>
      <g id="Group_4537" data-name="Group 4537" transform="translate(34.777 4.927)">
        <path id="Path_7407" data-name="Path 7407" d="M680.676,195.7a.572.572,0,0,1,1.122.066c.079.746-.447,2.057-.821,1.928S680.595,196.388,680.676,195.7Z" transform="translate(-680.635 -195.267)" fill="#eea886"/>
      </g>
    </g>
    <g id="Group_4590" data-name="Group 4590" transform="translate(357.599 1229.051)">
      <g id="Group_4546" data-name="Group 4546" transform="translate(5.896 0)">
        <g id="Group_4545" data-name="Group 4545">
          <g id="Group_4544" data-name="Group 4544">
            <path id="Path_7431" data-name="Path 7431" d="M537.841,141.094a3.41,3.41,0,0,1,3.471,2.2c.919,2.464,1.785,3.27,1.893,4.565.438,5.235,2.883,4.051,2.2,7.068s-1.164,3.475-1.164,3.475l-5.844-1.146-5.922.019a3.4,3.4,0,0,0,1.8-3.62c-.516-2.464-1.8-6.5-1.075-9.253S536.316,141.305,537.841,141.094Z" transform="translate(-532.47 -141.086)" fill="#464240"/>
          </g>
        </g>
      </g>
      <g id="Group_4548" data-name="Group 4548" transform="translate(8.055 76.8)">
        <g id="Group_4547" data-name="Group 4547">
          <path id="Path_7432" data-name="Path 7432" d="M539.927,353.647s-1.833,2.517-1.572,2.922,2.261.463,3.477,0,1.246-3.463,1.8-4.751c.231-.54-.263-2.132-.956-2.248a3.119,3.119,0,0,0-1.507.248S541.876,351.652,539.927,353.647Z" transform="translate(-538.329 -349.548)" fill="#eb4747"/>
        </g>
      </g>
      <g id="Group_4550" data-name="Group 4550" transform="translate(9.093 76.705)">
        <g id="Group_4549" data-name="Group 4549">
          <path id="Path_7433" data-name="Path 7433" d="M542.945,349.656a17.13,17.13,0,0,1-.376,2.029c-.232.84-1.477,2.752-1.42,2.984a2.237,2.237,0,0,0,2.26-.156,6.253,6.253,0,0,0,1.188-3.375,5.563,5.563,0,0,0-.145-1.73A1.416,1.416,0,0,0,542.945,349.656Z" transform="translate(-541.147 -349.29)" fill="#eea886"/>
        </g>
      </g>
      <g id="Group_4552" data-name="Group 4552" transform="translate(13.006 79.071)">
        <g id="Group_4551" data-name="Group 4551">
          <path id="Path_7434" data-name="Path 7434" d="M552.117,355.71v2.679h-.348v-2.071Z" transform="translate(-551.769 -355.71)" fill="#eb4747"/>
        </g>
      </g>
      <g id="Group_4554" data-name="Group 4554" transform="translate(12.85 76.8)">
        <g id="Group_4553" data-name="Group 4553">
          <path id="Path_7435" data-name="Path 7435" d="M552.944,353.647s-1.832,2.517-1.572,2.922,2.261.463,3.477,0,1.246-3.463,1.8-4.751c.23-.54-.263-2.132-.956-2.248a3.117,3.117,0,0,0-1.506.248S554.892,351.652,552.944,353.647Z" transform="translate(-551.346 -349.548)" fill="#eb4747"/>
        </g>
      </g>
      <g id="Group_4556" data-name="Group 4556" transform="translate(13.888 76.705)">
        <g id="Group_4555" data-name="Group 4555">
          <path id="Path_7436" data-name="Path 7436" d="M555.961,349.656a17.179,17.179,0,0,1-.377,2.029c-.231.84-1.478,2.752-1.42,2.984a2.237,2.237,0,0,0,2.26-.156,6.255,6.255,0,0,0,1.188-3.375,5.553,5.553,0,0,0-.145-1.73A1.415,1.415,0,0,0,555.961,349.656Z" transform="translate(-554.163 -349.29)" fill="#eea886"/>
        </g>
      </g>
      <g id="Group_4558" data-name="Group 4558" transform="translate(17.801 79.071)">
        <g id="Group_4557" data-name="Group 4557">
          <path id="Path_7437" data-name="Path 7437" d="M565.133,355.71v2.679h-.348v-2.071Z" transform="translate(-564.785 -355.71)" fill="#eb4747"/>
        </g>
      </g>
      <g id="Group_4560" data-name="Group 4560" transform="translate(2.985 27.789)">
        <g id="Group_4559" data-name="Group 4559">
          <path id="Path_7438" data-name="Path 7438" d="M527.868,224.084s-1.386,7.638-1.761,9.548-1.423,11.164-1.536,12.738,3.418,9.141,3.638,9.663c3.694,8.739,4.12,10.716,4.12,10.716s1.213.76,1.773-.147c.17-.276-2.274-10.3-2.676-13.077-.375-2.586-1.35-6.578-1.087-7.486s2.66-13.412,3.11-13.936,1.124.3,1.386,1.462.824,11.2,1.161,12.475.076,5.583.263,7.755.968,12.316.968,12.316,1.509.27,1.659.028,1.457-11.265,1.494-13.85.077-6.15.15-7.268c.694-10.712,2.005-12.113-.287-19.823C534.637,206.333,527.868,224.084,527.868,224.084Z" transform="translate(-524.569 -216.515)" fill="#eea886"/>
        </g>
      </g>
      <g id="Group_4562" data-name="Group 4562" transform="translate(2.985 27.789)">
        <g id="Group_4561" data-name="Group 4561">
          <path id="Path_7439" data-name="Path 7439" d="M527.868,224.084s-1.386,7.638-1.761,9.548-1.423,11.164-1.536,12.738,3.3,9.141,3.372,9.7,2.883,8.606,2.883,8.606,2.836-.049,3.609-.784c.155-.147-2.605-7.589-3.007-10.369-.375-2.586-1.35-6.578-1.087-7.486s2.66-13.412,3.11-13.936,1.124.3,1.386,1.462.824,11.2,1.16,12.475.076,5.583.263,7.755-.208,9.893-.208,9.893,3.715.195,3.864-.046.427-8.768.464-11.353.077-6.15.15-7.268c.694-10.712,2.005-12.113-.287-19.823C534.637,206.333,527.868,224.084,527.868,224.084Z" transform="translate(-524.569 -216.515)" fill="#faa146"/>
        </g>
      </g>
      <g id="Group_4564" data-name="Group 4564" transform="translate(0 13.18)">
        <g id="Group_4563" data-name="Group 4563">
          <path id="Path_7440" data-name="Path 7440" d="M535.684,201.609c.216-.087-1.518-5.823-1.862-7.537-.31-1.546-1.367-2.962-.335-5.6a9.793,9.793,0,0,0,.551-3.291,38.008,38.008,0,0,1,1.729,4.383c.15.9-5.457-.737-5.535-.613a9.462,9.462,0,0,0-.312,2.279c0,.434,8.14,2.357,9.1.652.273-.483-1.495-9.734-2.635-10.966-1.873-2.023-6.793-3.747-6.793-3.747a5.07,5.07,0,0,0-3.722.025,22.162,22.162,0,0,0-6.269,3.647c-.574.6-2.873,9.632-3.073,10.8-.188,1.1-.114,3.416,2.4,3.119l6.781-1.553-.421-2.067-5.083.4c-1.037.177-.54-.734-.407-1.24s1.4-5.093,1.4-5.093a31.363,31.363,0,0,0,1.387,6.9c.5,1.449-.605,9.2-.68,10.049C521.91,202.17,525.993,205.523,535.684,201.609Z" transform="translate(-516.467 -176.859)" fill="#eb4747"/>
        </g>
      </g>
      <g id="Group_4566" data-name="Group 4566" transform="translate(8.774 13.243)">
        <g id="Group_4565" data-name="Group 4565">
          <path id="Path_7441" data-name="Path 7441" d="M545.742,177.706s-1.673,3.452-3.07,4.464c0,0-2.515-3.769-2.387-4.638A6.786,6.786,0,0,1,545.742,177.706Z" transform="translate(-540.281 -177.031)" fill="#eea886"/>
        </g>
      </g>
      <g id="Group_4567" data-name="Group 4567" transform="translate(11.608 24.609)">
        <path id="Path_7442" data-name="Path 7442" d="M550.663,208.831a3.155,3.155,0,0,1-.981-.594,1.484,1.484,0,0,0-1.4-.3c-.508.152-.227,2.336-.227,2.336l2.684.347Z" transform="translate(-547.976 -207.883)" fill="#eea886"/>
      </g>
      <g id="Group_4569" data-name="Group 4569" transform="translate(9.438 25.274)">
        <g id="Group_4568" data-name="Group 4568">
          <path id="Path_7443" data-name="Path 7443" d="M542.085,211.639a10.183,10.183,0,0,0,.2-1.672c-.062-.26.458-.522.531.122s.111,1.054.111,1.054Z" transform="translate(-542.085 -209.687)" fill="#eea886"/>
        </g>
      </g>
      <g id="Group_4570" data-name="Group 4570" transform="translate(9.732 22.909)">
        <path id="Path_7444" data-name="Path 7444" d="M543.7,208.566l1.953-.08a.471.471,0,0,0,.452-.464l.052-4.277a.469.469,0,0,0-.485-.475l-2.339.076a.471.471,0,0,0-.454.507l.333,4.28A.47.47,0,0,0,543.7,208.566Z" transform="translate(-542.881 -203.269)" fill="#51578c"/>
      </g>
      <g id="Group_4572" data-name="Group 4572" transform="translate(7.219 25.697)">
        <g id="Group_4571" data-name="Group 4571">
          <path id="Path_7445" data-name="Path 7445" d="M538.237,212.479s-.036-.4.734-.768a7.02,7.02,0,0,1,2.619-.855c.336.184.163.44-.483.652s-.859.281-.859.281a5.416,5.416,0,0,1,1.548.031c.284.152.3.5.092.558a5.3,5.3,0,0,1-.7.092s.536.02.59.235c.039.16.059.388-.448.482a.373.373,0,0,1-.172.627,8.957,8.957,0,0,1-1.921.545,21.665,21.665,0,0,1-3.18.041l.906-1.532a2.589,2.589,0,0,0,.85-.078C538.284,212.631,538.237,212.479,538.237,212.479Z" transform="translate(-536.06 -210.835)" fill="#eea886"/>
        </g>
      </g>
      <g id="Group_4573" data-name="Group 4573" transform="translate(4.755 27.467)">
        <path id="Path_7446" data-name="Path 7446" d="M533.441,215.642l.421,2.067-4.321.99-.167-2.735Z" transform="translate(-529.374 -215.642)" fill="#eb4747"/>
      </g>
      <g id="Group_4574" data-name="Group 4574" transform="translate(13.45 25.275)">
        <path id="Path_7447" data-name="Path 7447" d="M553.289,209.691a5.467,5.467,0,0,0-.312,2.279,24.961,24.961,0,0,0,4.761,1.206v-2.629Z" transform="translate(-552.974 -209.691)" fill="#eb4747"/>
      </g>
      <g id="Group_4575" data-name="Group 4575" transform="translate(6.214 29.534)">
        <path id="Path_7448" data-name="Path 7448" d="M536.363,221.252l-3.029,1.684c.021-.351.036-.687.043-1Z" transform="translate(-533.334 -221.252)" fill="#b33636"/>
      </g>
      <g id="Group_4576" data-name="Group 4576" transform="translate(13.454 27.554)">
        <path id="Path_7449" data-name="Path 7449" d="M556.736,218.081a10.62,10.62,0,0,1-3.671-2.113,1.154,1.154,0,0,1-.082-.091l3.451,1.007h0C556.522,217.3,556.635,217.694,556.736,218.081Z" transform="translate(-552.984 -215.877)" fill="#b33636"/>
      </g>
      <g id="Group_4579" data-name="Group 4579" transform="translate(7.577 1.422)">
        <g id="Group_4578" data-name="Group 4578">
          <g id="Group_4577" data-name="Group 4577">
            <path id="Path_7450" data-name="Path 7450" d="M541.059,144.974s3.379.488,2.885,5.475-3.477,4.593-3.676,4.588-2.992.1-3.233-5.983C537.034,149.054,536.922,144.554,541.059,144.974Z" transform="translate(-537.034 -144.946)" fill="#eea886"/>
          </g>
        </g>
      </g>
      <g id="Group_4582" data-name="Group 4582" transform="translate(9.257 10.402)">
        <g id="Group_4581" data-name="Group 4581">
          <g id="Group_4580" data-name="Group 4580">
            <path id="Path_7451" data-name="Path 7451" d="M545.44,169.547s-.209,2.6.291,3.372-.427,1.833-2.338,1.471-1.8-1.443-1.8-1.443a7.923,7.923,0,0,0,.378-2.883C541.816,168.782,545.44,169.547,545.44,169.547Z" transform="translate(-541.594 -169.32)" fill="#eea886"/>
          </g>
        </g>
      </g>
      <g id="Group_4585" data-name="Group 4585" transform="translate(7.242 0.633)">
        <g id="Group_4584" data-name="Group 4584">
          <g id="Group_4583" data-name="Group 4583">
            <path id="Path_7452" data-name="Path 7452" d="M540.1,145.43s1.579,1.66,2.313,2.5a4.849,4.849,0,0,1,.817,2.464,3.888,3.888,0,0,0,.719-3.266c-.516-1.757-1.739-5.176-4.833-4.126s-3.208,5.673-2.846,7.965C536.268,150.966,537.657,145.907,540.1,145.43Z" transform="translate(-536.123 -142.805)" fill="#464240"/>
          </g>
        </g>
      </g>
      <g id="Group_4587" data-name="Group 4587" transform="translate(9.885 10.963)">
        <g id="Group_4586" data-name="Group 4586">
          <path id="Path_7453" data-name="Path 7453" d="M543.3,171.167a2.952,2.952,0,0,0,2.841-.325,1.828,1.828,0,0,1-1.421.918A1.4,1.4,0,0,1,543.3,171.167Z" transform="translate(-543.298 -170.842)" fill="#a77860"/>
        </g>
      </g>
      <g id="Group_4588" data-name="Group 4588" transform="translate(5.752 12.192)">
        <path id="Path_7454" data-name="Path 7454" d="M535.722,174.18s-4.649,4.136-3.442,6.717c1.029,2.2,4.681.852,4.078-1.456A25.966,25.966,0,0,1,535.722,174.18Z" transform="translate(-532.08 -174.18)" fill="#464240"/>
      </g>
      <g id="Group_4589" data-name="Group 4589" transform="translate(10.079 23.52)">
        <path id="Path_7455" data-name="Path 7455" d="M544.405,205.217a.291.291,0,1,1-.29-.291A.291.291,0,0,1,544.405,205.217Z" transform="translate(-543.824 -204.926)" fill="#48484d"/>
      </g>
    </g>
    <g id="Group_4603" data-name="Group 4603" transform="translate(329.093 1230.473)">
      <path id="Path_7479" data-name="Path 7479" d="M478.324,182.973s3.526,1.035,3.31,5.828S478.324,182.973,478.324,182.973Z" transform="translate(-463.871 -168.963)" fill="#eea886"/>
      <g id="Group_4597" data-name="Group 4597" transform="translate(13.962 14.01)">
        <path id="Path_7480" data-name="Path 7480" d="M477.158,182.973s.272.37-.068,2.754.3,3.382.381,4.374,1.241,7.4,1.273,7.685.188,3.695.642,4.6,3.791,6.036,3.836,6.291,1.62-.893,1.62-.893-3-6.234-3.19-6.848a19.1,19.1,0,0,1-1.024-3.643c-.111-2.418.108-8.034.024-9.257C480.491,185.747,478.686,183.337,477.158,182.973Z" transform="translate(-476.991 -182.973)" fill="#eea886"/>
      </g>
      <g id="Group_4600" data-name="Group 4600" transform="translate(16.84 34.474)">
        <g id="Group_4599" data-name="Group 4599">
          <g id="Group_4598" data-name="Group 4598">
            <path id="Path_7481" data-name="Path 7481" d="M486.585,238.518s.525,1.153.835,1.225.68.456.946.574,1.1.182,1.327.4a8.37,8.37,0,0,0,.65,1.02c.206.161.663.438.522.612s-.616.038-.616.038a.339.339,0,0,1,.1.35c-.149.373-.4.389-.4.389s.08.28-.021.419a.673.673,0,0,1-.465.315.64.64,0,0,1-.215.385.571.571,0,0,1-.556.093s-.248.343-.477.276a2.045,2.045,0,0,1-.526-.338,7.829,7.829,0,0,1-1.732-2.649,9.441,9.441,0,0,0-1.156-2.233Z" transform="translate(-484.803 -238.518)" fill="#eea987"/>
          </g>
        </g>
      </g>
      <rect id="Rectangle_1868" data-name="Rectangle 1868" width="9.933" height="16.576" transform="matrix(0.63, 0.777, -0.777, 0.63, 22.016, 25.197)" fill="#214361"/>
      <g id="Group_4602" data-name="Group 4602" transform="translate(18.999 37.101)">
        <g id="Group_4601" data-name="Group 4601">
          <path id="Path_7482" data-name="Path 7482" d="M493.885,246.737s-1-1.109-1.495-1.088-.158.441-.158.441-.329-.421-.682-.2.068.694.068.694a.411.411,0,0,0-.594.1c-.262.351.175.662.175.662s-.659-.1-.517.44a2.357,2.357,0,0,0,1.218,1.351s.274.076.5-.279a.575.575,0,0,0,.784-.477s.72-.166.491-.741A.516.516,0,0,0,493.885,246.737Z" transform="translate(-490.661 -245.649)" fill="#db9c7c"/>
        </g>
      </g>
      <path id="Path_7483" data-name="Path 7483" d="M460.878,144.954s-5.1-.424-4.959,4.939.99,6.17,0,9.96,4.971-2.153,4.971-2.153Z" transform="translate(-449.647 -144.946)" fill="#fccca2"/>
      <path id="Path_7484" data-name="Path 7484" d="M444.768,233.518a23.454,23.454,0,0,0-2.54,3.976,20.481,20.481,0,0,0-1.62,7.739c.147,2.688,1.03,7.731.773,8.872s-.515,3.5-.791,4.307a18.733,18.733,0,0,0-1.492,5.6c-.11,2.43,1.547,13.106,1.473,14.1s1.878.4,1.878.4.662-9.645,1.03-11.3.81-7.289,1.142-7.694a18.82,18.82,0,0,0,1.1-5.264c-.14-.663,3.615-10.6,3.836-12.591s5.758-8.145,5.758-8.145A17.208,17.208,0,0,0,444.768,233.518Z" transform="translate(-439.093 -200.367)" fill="#eea987"/>
      <path id="Path_7485" data-name="Path 7485" d="M466.23,232.456a11.189,11.189,0,0,0,.206,1.371c.111.368,2.651,9.756,2.908,13.364a71.33,71.33,0,0,0,1.03,7.438,15.968,15.968,0,0,1-.331,4.011c-.22.662,1.1,16.308,1.215,16.677s-.884.479-1.583.368-4.233-11.486-4.013-13.4.441-6-.184-7.656-6.258-13.66-6.3-14.4S456.746,226.814,466.23,232.456Z" transform="translate(-451.594 -199.305)" fill="#eea987"/>
      <path id="Path_7486" data-name="Path 7486" d="M443.717,353.09a7.88,7.88,0,0,0,.38,1.618c.2.347.742,2.112.991,2.443s.792,2.805,0,3.1-2.658.792-3.285-.2a4.074,4.074,0,0,1-.611-2.74c.1-.759.852-4.244.842-4.589S443.717,353.09,443.717,353.09Z" transform="translate(-440.396 -276.117)" fill="#eea987"/>
      <path id="Path_7487" data-name="Path 7487" d="M444.653,363.034s.085,1.924-1.368,1.924-2.1-1.751-2.1-1.751a3.767,3.767,0,0,0,0,2.692c.5,1.832,2.559,1.452,3.021,1.386S446.862,366.639,444.653,363.034Z" transform="translate(-440.277 -282.687)" fill="#fff"/>
      <path id="Path_7488" data-name="Path 7488" d="M487.426,349.185a9.138,9.138,0,0,0,1.636,2.209c.76.464,2.234,1.951,2.75,2.02s2.367.4,2.009,1.442c-.293.856-4.709.734-5.208.3s-1.988-1.97-2.589-1.936-.377,2.223-.377,2.223h-.653s-.228-2.129-.256-2.5c-.081-1.083.692-1.881.726-2.5s.069-1.08.069-1.08Z" transform="translate(-467.918 -273.94)" fill="#fff"/>
      <path id="Path_7489" data-name="Path 7489" d="M492.221,353.171a3.521,3.521,0,0,1-2.576-.14,13.78,13.78,0,0,0-4.031-1.629s.414-1.268.423-1.41.054-.809.054-.809l1.88-.3a16.3,16.3,0,0,0,1.756,2.211A30.455,30.455,0,0,1,492.221,353.171Z" transform="translate(-468.474 -273.748)" fill="#eea987"/>
      <path id="Path_7490" data-name="Path 7490" d="M457.116,234.053s.524,2.181.717,2.816,1.434,10.487,1.739,16.649a48.285,48.285,0,0,1-17.643,2.346s-.248-11.32.69-14.523,2.639-6.2,3.921-7.124C447.682,233.4,457.116,234.053,457.116,234.053Z" transform="translate(-440.866 -201.067)" fill="#5779d4"/>
      <path id="Path_7491" data-name="Path 7491" d="M463.011,187.549a9.3,9.3,0,0,1-.725,2.6c-.111.47,0,1.547-.138,2.624a66.239,66.239,0,0,0-.414,7.676c.137,1.463-10.045.8-10.817.36,0,0,1.715-3.066,1.761-4.337a4.164,4.164,0,0,0-.442-2.788c-.379-.525-1.082-2.195-1.784-3.416h0c-.272-.474-.557-.946-.756-1.3h0a4.888,4.888,0,0,1-.4-1s-.453-5.633.789-6.267a6.326,6.326,0,0,1,3.12-.8,8.838,8.838,0,0,0,2.016-.3l2.843.3a6.358,6.358,0,0,0,1.722.526c.718.055,1.595,1.614,2.029,2.744C462.171,185.1,463.094,186.251,463.011,187.549Z" transform="translate(-445.485 -167.46)" fill="#e8e8e8"/>
      <path id="Path_7492" data-name="Path 7492" d="M445.925,182a3.878,3.878,0,0,0-3.1,2.255,20.1,20.1,0,0,0-.958,4.933c-.184.764-.452,5.19-.645,5.844a36.924,36.924,0,0,0-1,6.138c-.148,2.452.217,7.622.217,7.622l1.247-.606s1.111-7.667,1.592-9.288c.412-1.386.412-3.743.643-4.594s1.644-5.974,1.872-6.493C446.142,187.011,447.86,181.97,445.925,182Z" transform="translate(-439.784 -168.346)" fill="#eea886"/>
      <path id="Path_7493" data-name="Path 7493" d="M461.707,146.357a4.334,4.334,0,0,1,4.975,3.428,10.557,10.557,0,0,1-.138,1.658c-.138.738.741,2.769.587,2.892a4.653,4.653,0,0,1-.829.334s-.478,2.383-1.288,2.455a6.731,6.731,0,0,1-5.7-2.9C457.549,151.528,456.6,147.193,461.707,146.357Z" transform="translate(-450.974 -145.806)" fill="#eea886"/>
      <path id="Path_7494" data-name="Path 7494" d="M466.809,169.477s-.062.333-.12.824c-.029.251-.058.543-.077.851a5.71,5.71,0,0,0,.267,2.473s-1.586.965-3.283-1.395c0,0,.168-2.928-.807-4.484S466.809,169.477,466.809,169.477Z" transform="translate(-453.98 -159.082)" fill="#eea886"/>
      <path id="Path_7495" data-name="Path 7495" d="M466.123,148.93a11.509,11.509,0,0,1-3.917,2.16,5.518,5.518,0,0,0-3.081,2.781s-3.564-3.555-1.413-7.005S466.119,144.954,466.123,148.93Z" transform="translate(-450.416 -144.95)" fill="#fccca2"/>
      <path id="Path_7496" data-name="Path 7496" d="M468.734,173.354c-.029.251-.058.543-.077.851a8.9,8.9,0,0,1-2.756-2.044A10.116,10.116,0,0,0,468.734,173.354Z" transform="translate(-456.024 -162.135)" fill="#a77860"/>
      <path id="Path_7497" data-name="Path 7497" d="M461.779,161.182s-2.061,5.542-1.814,6.875a7.261,7.261,0,0,0-3.033.406S457.871,158.577,461.779,161.182Z" transform="translate(-450.36 -154.924)" fill="#fccca2"/>
      <path id="Path_7498" data-name="Path 7498" d="M463.3,180.565s.679,4.156,3.191,3.687.607-3.515.607-3.515S465.979,179.8,463.3,180.565Z" transform="translate(-454.38 -167.253)" fill="#eea886"/>
      <path id="Path_7499" data-name="Path 7499" d="M441.91,252.506a10.935,10.935,0,0,0,.508,1.32,19.419,19.419,0,0,1,.386,2.784c.007.237-.16.109-.252-.041-.053-.086-.252-.83-.422-1.22-.143-.328-.253-.446-.3-.333a7.381,7.381,0,0,0,.12,2.114c.174.589.143,1.98-.187,1.8a8.484,8.484,0,0,1-1.265-3.562,18.535,18.535,0,0,1,.136-2.087Z" transform="translate(-439.977 -212.879)" fill="#eea886"/>
    </g>
  </g>
</svg>
