<svg xmlns="http://www.w3.org/2000/svg" xmlns:xlink="http://www.w3.org/1999/xlink" width="115.76" height="101.237" viewBox="0 0 115.76 101.237">
  <defs>
    <linearGradient id="linear-gradient" x1="0.5" y1="-0.509" x2="0.5" y2="0.25" gradientUnits="objectBoundingBox">
      <stop offset="0" stop-color="#9084d9"/>
      <stop offset="1" stop-color="#fff"/>
    </linearGradient>
    <linearGradient id="linear-gradient-2" x1="1.157" y1="-0.606" x2="0.3" y2="0.293" gradientUnits="objectBoundingBox">
      <stop offset="0" stop-color="#b76fd1"/>
      <stop offset="1" stop-color="#96cbff"/>
    </linearGradient>
  </defs>
  <g id="Group_5564" data-name="Group 5564" transform="translate(-800 -1214.468)">
    <g id="Group_5083" data-name="Group 5083" transform="translate(800 1214.467)">
      <g id="Group_5053" data-name="Group 5053" transform="translate(0 0.001)">
        <g id="Group_5052" data-name="Group 5052" transform="translate(26.48)">
          <path id="Path_8359" data-name="Path 8359" d="M2083.827,973.981a6,6,0,0,0,.489,1.051c.329.491.606,1.185.485,1.2-.454.07-.9-.833-1.377-1C2082.039,974.757,2083.827,973.981,2083.827,973.981Z" transform="translate(-2077.21 -933.019)" fill="#eea886"/>
          <path id="Path_8360" data-name="Path 8360" d="M2037.66,972.311a5.36,5.36,0,0,1-1.517,1c-1.144.544-2.621.732-2.78,1.131s.186.369.186.369a33.827,33.827,0,0,0,4.177-.035c.106-.173,1.7-.927,2.069-1.944C2040.035,972.163,2037.66,972.311,2037.66,972.311Z" transform="translate(-2033.321 -931.528)" fill="#eea886"/>
          <path id="Path_8361" data-name="Path 8361" d="M2361.867,977.779a3.484,3.484,0,0,0,.178,1.1c.29.564.795,1.029.886.948.342-.307-.245-.756-.072-1.227C2363.366,977.219,2361.867,977.779,2361.867,977.779Z" transform="translate(-2324.171 -936.281)" fill="#eea886"/>
          <path id="Path_8362" data-name="Path 8362" d="M2363.969,970.5a2.973,2.973,0,0,0,2,1.217,3.643,3.643,0,0,1,2.276,1.337c.16.4-.789.215-.789.215a18.548,18.548,0,0,1-3.071-.087c-.106-.173-1.836-1.022-2.2-2.039C2361.942,970.48,2363.969,970.5,2363.969,970.5Z" transform="translate(-2324.433 -929.94)" fill="#eea886"/>
          <path id="Path_8363" data-name="Path 8363" d="M2104.95,1383.436s-2.249,3.036-1.943,3.511,2.649.543,4.075,0,1.46-4.059,2.106-5.57c.27-.632-.308-2.5-1.121-2.635a3.425,3.425,0,0,0-1.7.262S2107.234,1381.1,2104.95,1383.436Z" transform="translate(-2094.986 -1291.315)" fill="#494f80"/>
          <path id="Path_8364" data-name="Path 8364" d="M2115.73,1378.649a23.3,23.3,0,0,0-.5,2.43c-.142,1.012-1.732,3.226-1.664,3.5a2.621,2.621,0,0,0,2.649-.183c.747-.7,1.226-2.738,1.393-3.956a9.767,9.767,0,0,1,.346-1.7S2116.444,1377.9,2115.73,1378.649Z" transform="translate(-2104.361 -1290.984)" fill="#494f80"/>
          <path id="Path_8365" data-name="Path 8365" d="M2153.955,1401.922v3.141h-.408v-2.427Z" transform="translate(-2139.753 -1311.86)" fill="#494f80"/>
          <path id="Path_8366" data-name="Path 8366" d="M2296.6,1383.533s2.148,2.95,1.842,3.426-2.649.543-4.075,0-1.46-4.059-2.106-5.57c-.27-.632.308-2.5,1.121-2.635a3.651,3.651,0,0,1,1.766.291S2294.319,1381.195,2296.6,1383.533Z" transform="translate(-2262.495 -1291.328)" fill="#494f80"/>
          <path id="Path_8367" data-name="Path 8367" d="M2302.914,1378.188a20.046,20.046,0,0,0,.441,2.377c.271.985,1.732,3.226,1.665,3.5a2.623,2.623,0,0,1-2.649-.183,7.324,7.324,0,0,1-1.393-3.956,6.53,6.53,0,0,1,.17-2.028A1.659,1.659,0,0,1,2302.914,1378.188Z" transform="translate(-2270.257 -1290.469)" fill="#494f80"/>
          <path id="Path_8368" data-name="Path 8368" d="M2292.783,1401.922v3.141h.408v-2.427Z" transform="translate(-2263.014 -1311.86)" fill="#494f80"/>
          <path id="Path_8369" data-name="Path 8369" d="M2139.777,886.868s-1.625,8.953-2.064,11.192-1.669,13.087-1.8,14.931-2,8.794-1.907,9.453-2.763,13.891-2.763,13.891a1.714,1.714,0,0,0,2,.071c.527-.367,4.85-11.345,5.678-14.533.808-3.111,2.447-4.856,4.278-12.029.274-1.073,2.6-12.962,3.123-13.576s1.318.351,1.625,1.713.965,13.131,1.36,14.624.089,6.544.308,9.09,1.156,14,1.156,14a1.281,1.281,0,0,0,1.875.105c.244-.227,1.756-12.845,1.8-15.875s.091-7.209.176-8.52c.814-12.557,2.35-14.2-.336-23.237C2147.711,866.061,2139.777,886.868,2139.777,886.868Z" transform="translate(-2120.007 -848.046)" fill="#2b223d"/>
          <path id="Path_8370" data-name="Path 8370" d="M2085.1,737.652l-.012.022c-.24.433-4.583,8.732-4.889,9.227a20.565,20.565,0,0,1-3.138,5.361l-3.793,4.8-2.127-.371,4.084-7.064c1.916-3.816,1.048-1.918,3.112-6,.628-1.242,3.874-9.517,4.547-10.22a17.479,17.479,0,0,1,2.455-1.8,26.459,26.459,0,0,1,4.005-2.149c.3-.123.594-.231.877-.321l.011,0a5.941,5.941,0,0,1,4.363-.03,30.312,30.312,0,0,0,5.172,1.625l.184.031a1.1,1.1,0,0,1,.43.209h0c2.338,1.669,5.618,12.895,5.682,14.11.215,4.066.024,1.689.279,11.534.016.614-1.921,1.014-1.844.794.069-.2-1.414-10.932-1.668-11.97a66.25,66.25,0,0,0-2.449-7.655,13.1,13.1,0,0,0-1.5,4.786,21.09,21.09,0,0,0-.276,5.629,8.94,8.94,0,0,0,1.217,4.141l-13.245,2.393a16.871,16.871,0,0,0,.264-1.8c.32-2.829.925-8.647.016-9.833a5.516,5.516,0,0,1-1.45-2.572,12.923,12.923,0,0,1-.255-2.722Z" transform="translate(-2066.801 -715.909)" fill="#eea886"/>
          <path id="Path_8371" data-name="Path 8371" d="M2237.453,730.171s-2.758,6.588-4.4,7.773c0,0-2.15-6.959-2-7.978A7.951,7.951,0,0,1,2237.453,730.171Z" transform="translate(-2208.363 -716.482)" fill="#eea886"/>
          <path id="Path_8372" data-name="Path 8372" d="M2259.021,683.032s3.042,6.565.94,6.737-4-4.743-4-4.743Z" transform="translate(-2230.414 -675.452)" fill="#323657"/>
          <path id="Path_8373" data-name="Path 8373" d="M2240.288,700.728s-.24,2.983.334,3.876-.491,2.107-2.687,1.692-2.068-1.66-2.068-1.66a9.1,9.1,0,0,0,.435-3.314C2236.122,699.848,2240.288,700.728,2240.288,700.728Z" transform="translate(-2212.626 -690.887)" fill="#eea886"/>
          <path id="Path_8374" data-name="Path 8374" d="M2219.43,656.368s-.4-.476-.545,0a6.221,6.221,0,0,0,.39,2.112s.24.8.336.7A25.894,25.894,0,0,0,2219.43,656.368Z" transform="translate(-2197.57 -651.661)" fill="#eea886"/>
          <path id="Path_8375" data-name="Path 8375" d="M2282.678,656.885s.4-.476.544,0a6.208,6.208,0,0,1-.39,2.112s-.24.8-.336.7A25.957,25.957,0,0,1,2282.678,656.885Z" transform="translate(-2253.889 -652.118)" fill="#eea886"/>
          <path id="Path_8376" data-name="Path 8376" d="M2226,618.01s3.641.561,3.108,6.3-3.746,5.279-3.961,5.274-3.223.119-3.484-6.878C2221.667,622.7,2221.545,617.527,2226,618.01Z" transform="translate(-2200.057 -617.862)" fill="#eea886"/>
          <path id="Path_8377" data-name="Path 8377" d="M2221.884,621.462s4.041,1.2,5.975.817c0,0,.353.768.63.812s.19-1.418.19-1.418.1-4.663-4.124-4.707-3.361,5.051-3.361,5.051l.057.871S2221.856,623.126,2221.884,621.462Z" transform="translate(-2199.575 -616.966)" fill="#323657"/>
          <path id="Path_8378" data-name="Path 8378" d="M2187.333,767.894c-.138,7.69,1.046,11.024,1.046,11.024s-3.915,1.966-12.362,1.543c-3.8-.19-7.25-2.134-9.156-1.4,0,0,.277-1.945,1.1-6.439.992-5.443.931-4.351,1.132-6.12a60.838,60.838,0,0,1,2.394-10.9c.321-2.829.6-8.816-.309-10a5.345,5.345,0,0,1-1.427-2.924,15.635,15.635,0,0,1,.083-2.045v0a.433.433,0,0,1-.005-.108,60.78,60.78,0,0,0,.706-6.356c.664-.791,2.329-1.4,3.55-1.862.474-.181.812-.3.877-.321l.011,0a11.258,11.258,0,0,0,4.363-.03,22.29,22.29,0,0,1,4.247,1.293,5.717,5.717,0,0,0,.571.192,4.481,4.481,0,0,1,.472.16c-.633,2.464.652,7.437.652,7.437a12.149,12.149,0,0,0-1.507,4.348,20.246,20.246,0,0,0-.324,5.1,12.15,12.15,0,0,0,1.261,4.915S2187.5,758.818,2187.333,767.894Z" transform="translate(-2151.539 -718.753)" fill="#ed1556"/>
          <path id="Path_8379" data-name="Path 8379" d="M2229.2,729.307s-.49,6.018,1.01,6.816,4.928.268,6.075-6.731c0,0-1.5-.436-2.07-.616A7.5,7.5,0,0,0,2229.2,729.307Z" transform="translate(-2206.656 -715.761)" fill="#eea886"/>
          <g id="Group_5051" data-name="Group 5051" transform="translate(19.72 35.859)">
            <path id="Path_8380" data-name="Path 8380" d="M2209.639,931.65a16.615,16.615,0,0,1-4.443-.529l.284-1.175.2.087c.027.015,2.678,1.4,12.582-.531l.48.92A42.824,42.824,0,0,1,2209.639,931.65Z" transform="translate(-2205.196 -929.502)" fill="#e55353"/>
          </g>
          <path id="Path_8381" data-name="Path 8381" d="M2242.369,713.531a2.857,2.857,0,0,0,3.228-.357,2.239,2.239,0,0,1-1.669,1.13A1.917,1.917,0,0,1,2242.369,713.531Z" transform="translate(-2218.384 -702.135)" fill="#a77860"/>
        </g>
        <rect id="Rectangle_1915" data-name="Rectangle 1915" width="97.95" height="45.161" transform="translate(7.33 52.16)" fill="url(#linear-gradient)"/>
        <path id="Path_8382" data-name="Path 8382" d="M1809.861,1047.049v-45.16h97.95v-9.032H1802.531v54.193Z" transform="translate(-1802.531 -949.729)" fill="url(#linear-gradient-2)"/>
      </g>
      <g id="Group_5082" data-name="Group 5082" transform="translate(68.628 2.513)">
        <path id="Path_8383" data-name="Path 8383" d="M2390.948,864.4s-.691,9.689,1.2,10.849c1.186.726,5.914,3.177,5.774,3.636s-2.67,4.088-2.67,4.088-9.083-5.981-9.375-7.866c-.286-1.842.447-14.187,1.7-14.755.935-.426,1.429-.073,2.607.8A2.758,2.758,0,0,1,2390.948,864.4Z" transform="translate(-2385.696 -843.914)" fill="#323657"/>
        <g id="Group_5055" data-name="Group 5055" transform="translate(0.485 90.742)">
          <g id="Group_5054" data-name="Group 5054">
            <path id="Path_8384" data-name="Path 8384" d="M2392.7,1509.625s-.282,1.96-.317,2.255-3.142-.173-3.142-.173l-.252-2.334A18.4,18.4,0,0,1,2392.7,1509.625Z" transform="translate(-2388.984 -1509.372)" fill="#424773"/>
          </g>
        </g>
        <g id="Group_5057" data-name="Group 5057" transform="translate(0 92.868)">
          <g id="Group_5056" data-name="Group 5056">
            <path id="Path_8385" data-name="Path 8385" d="M2388.666,1528.034a8.387,8.387,0,0,0,1.936,1.7c.952.515,2.448.719,3.011,1.252.406.385,1.48,2.041-2.474,2.007s-5.86.234-6.284-.4.613-4.687.613-4.687A8.37,8.37,0,0,0,2388.666,1528.034Z" transform="translate(-2384.753 -1527.901)" fill="#292c47"/>
          </g>
        </g>
        <g id="Group_5059" data-name="Group 5059" transform="translate(16.033 90.742)">
          <g id="Group_5058" data-name="Group 5058">
            <path id="Path_8386" data-name="Path 8386" d="M2528.208,1509.625s-.282,1.96-.318,2.255-3.142-.173-3.142-.173l-.251-2.334A18.4,18.4,0,0,1,2528.208,1509.625Z" transform="translate(-2524.496 -1509.372)" fill="#424773"/>
          </g>
        </g>
        <g id="Group_5061" data-name="Group 5061" transform="translate(15.548 92.868)">
          <g id="Group_5060" data-name="Group 5060">
            <path id="Path_8387" data-name="Path 8387" d="M2524.176,1528.034a8.387,8.387,0,0,0,1.936,1.7c.952.515,4.455.938,5.018,1.471.407.385,1.082,1.934-4.481,1.789-3.952-.1-5.86.234-6.284-.4s.613-4.687.613-4.687A7.6,7.6,0,0,0,2524.176,1528.034Z" transform="translate(-2520.263 -1527.901)" fill="#292c47"/>
          </g>
        </g>
        <g id="Group_5063" data-name="Group 5063" transform="translate(0 40.621)">
          <g id="Group_5062" data-name="Group 5062">
            <path id="Path_8388" data-name="Path 8388" d="M2390.064,1072.525s-2.918,4.638-2.7,8.83a88.394,88.394,0,0,1-.7,13.05c-.489,4.882-1.821,15.042-1.893,17.654s.1,12.438.1,12.438l5.063-.038s1.8-19.852,2.668-21.914,4.447-16.977,4.592-18.626S2390.064,1072.525,2390.064,1072.525Z" transform="translate(-2384.753 -1072.525)" fill="#292c47"/>
          </g>
        </g>
        <g id="Group_5065" data-name="Group 5065" transform="translate(3.842 39.822)">
          <g id="Group_5064" data-name="Group 5064">
            <path id="Path_8389" data-name="Path 8389" d="M2435.077,1066.989s1.153,11.4,1.443,13.963.091,13.684.236,15.288-.97,18.565-1.245,21.8l-5.565-.035s-.384-13.721-.384-20.387a52.182,52.182,0,0,0-3.67-18.825c-1.96-4.4-6.446-4.5-7.651-12.663C2418.241,1066.123,2433.446,1064.4,2435.077,1066.989Z" transform="translate(-2418.241 -1065.561)" fill="#292c47"/>
          </g>
        </g>
        <g id="Group_5067" data-name="Group 5067" transform="translate(6.699 0.533)">
          <g id="Group_5066" data-name="Group 5066">
            <path id="Path_8390" data-name="Path 8390" d="M2444.833,724.112s3.478-2.323,5.92.165,3.643,8.34,1.889,9.508-4.729,1.474-6.142-.11a14.944,14.944,0,0,1-3.291-5.766A3.929,3.929,0,0,1,2444.833,724.112Z" transform="translate(-2443.137 -723.127)" fill="#eea886"/>
          </g>
        </g>
        <g id="Group_5069" data-name="Group 5069" transform="translate(8.845 9.109)">
          <g id="Group_5068" data-name="Group 5068">
            <path id="Path_8391" data-name="Path 8391" d="M2468.022,800.351a12.64,12.64,0,0,0,.224,2.966c.269.521-5.076.535-5.076.535a35.243,35.243,0,0,0-1.257-5.229C2461.09,796.227,2468.022,800.351,2468.022,800.351Z" transform="translate(-2461.845 -797.874)" fill="#eea886"/>
          </g>
        </g>
        <g id="Group_5071" data-name="Group 5071" transform="translate(6.231)">
          <g id="Group_5070" data-name="Group 5070">
            <path id="Path_8392" data-name="Path 8392" d="M2441.875,728.3s.5.508,1.91-.067,2.74-2.947,3.3-3.305.482-.719.482-.719l.515.469.66-.112s-1-1.6-.277-2.527-2.259-5.428-6.573-2.677c0,0-3.376,1.846-2.761,3.869S2440.825,727.469,2441.875,728.3Z" transform="translate(-2439.058 -718.484)" fill="#754836"/>
          </g>
        </g>
        <g id="Group_5073" data-name="Group 5073" transform="translate(9.559 13.024)">
          <g id="Group_5072" data-name="Group 5072">
            <path id="Path_8393" data-name="Path 8393" d="M2474.073,833.461s-.017-1-.468-1.091a32.234,32.234,0,0,0-5.535-.313v1.16S2469.137,833.873,2474.073,833.461Z" transform="translate(-2468.07 -831.997)" fill="#e2d2ca"/>
          </g>
        </g>
        <g id="Group_5075" data-name="Group 5075" transform="translate(13.106 4.437)">
          <g id="Group_5074" data-name="Group 5074">
            <path id="Path_8394" data-name="Path 8394" d="M2500.344,757.724c-.163-.325-1.271-1.1-1.358.03s1.089,2.352,1.53,2.12S2500.758,758.548,2500.344,757.724Z" transform="translate(-2498.981 -757.16)" fill="#eea886"/>
          </g>
        </g>
        <g id="Group_5077" data-name="Group 5077" transform="translate(33.535 26.251)">
          <g id="Group_5076" data-name="Group 5076">
            <path id="Path_8395" data-name="Path 8395" d="M2677.041,947.286h-.007C2677.064,947.3,2677.069,947.3,2677.041,947.286Z" transform="translate(-2677.033 -947.285)" fill="#323657"/>
          </g>
        </g>
        <g id="Group_5079" data-name="Group 5079" transform="translate(5.554 2.116)">
          <g id="Group_5078" data-name="Group 5078">
            <path id="Path_8396" data-name="Path 8396" d="M2435,736.929s-4.975,1.334,1.456,7.508Z" transform="translate(-2433.163 -736.929)" fill="#754836"/>
          </g>
        </g>
        <path id="Path_8397" data-name="Path 8397" d="M2746.693,1038.11a1.994,1.994,0,0,1-.632-.078s-.34-.188-.59-.308a1.91,1.91,0,0,0-.2-.084,3.647,3.647,0,0,1-1.083-.432c-.431-.286-1.853-1.453-1.853-1.453l.779-1.388.314-1.344a23.71,23.71,0,0,1,3.577.328,1.241,1.241,0,0,1,.12.069,4.651,4.651,0,0,1,.684.672c.062.051.644.6.629.836a.78.78,0,0,1-.366.664,1.865,1.865,0,0,1-.381.953,1.158,1.158,0,0,1-.54.869S2747.044,1038.016,2746.693,1038.11Z" transform="translate(-2701.312 -996.934)" fill="#efaa88"/>
        <g id="Group_5081" data-name="Group 5081" transform="translate(1.107 14.244)">
          <g id="Group_5080" data-name="Group 5080">
            <path id="Path_8398" data-name="Path 8398" d="M2415.478,844.254c-3.224-.567-6.617-1.38-6.617-1.38l-6-.245a58.4,58.4,0,0,0-7.68,2.193c-.206.093-.207,4.916-.772,6.18l1.8,3.8s1.039,7.519,1.255,10.863c.1,1.535-2.144,14.394-2.144,14.394a41.441,41.441,0,0,0,6.5,1.159c4.1.452,14.335-.163,14.4-.647s-1.983-18.021-2.074-18.929c-.139-1.394.4-7.834.4-7.834.772,1.037,4.443,5.546,6.494,7.774,1.207,1.311,5.645,3.587,6.673,4.047,2.225.994,5.788,3.275,5.919,3.037.1-.143,2.5-4.19,2.217-4.284-.245-.082-7.7-4.641-9.828-5.77-.778-.413-3.81-5.612-3.81-5.612S2417.256,845.053,2415.478,844.254Z" transform="translate(-2394.405 -842.629)" fill="#323657"/>
          </g>
        </g>
      </g>
    </g>
    <g id="Group_5085" data-name="Group 5085" transform="translate(816.138 1286.863)">
      <g id="Group_1698" data-name="Group 1698" transform="translate(8.712 0.001)">
        <g id="Group_1697" data-name="Group 1697" transform="translate(0 0)">
          <circle id="Ellipse_45" data-name="Ellipse 45" cx="10.197" cy="10.197" r="10.197" transform="translate(0 14.42) rotate(-45)" fill="#ffd300"/>
        </g>
      </g>
      <g id="Group_1701" data-name="Group 1701" transform="translate(10.18 1.469)">
        <g id="Group_1700" data-name="Group 1700" transform="translate(0 0)">
          <g id="Group_1699" data-name="Group 1699">
            <path id="Path_3205" data-name="Path 3205" d="M1736.485,1167.24a12.952,12.952,0,1,1,12.952-12.952A12.967,12.967,0,0,1,1736.485,1167.24Zm0-24.723a11.771,11.771,0,1,0,11.771,11.771A11.784,11.784,0,0,0,1736.485,1142.517Z" transform="translate(-1723.532 -1141.335)" fill="#ffd300"/>
          </g>
        </g>
      </g>
      <g id="Group_1707" data-name="Group 1707" transform="translate(0 12.335)">
        <g id="Group_1706" data-name="Group 1706">
          <g id="Group_1702" data-name="Group 1702" transform="translate(10.864 10.864)">
            <path id="Path_3206" data-name="Path 3206" d="M1735.989,1311.394a.6.6,0,0,1-.6-.6,2.716,2.716,0,0,0-5.432,0,.6.6,0,1,1-1.207,0,3.923,3.923,0,1,1,7.846,0A.6.6,0,0,1,1735.989,1311.394Z" transform="translate(-1728.746 -1306.867)" fill="#0e34c4"/>
          </g>
          <g id="Group_1703" data-name="Group 1703" transform="translate(7.243 7.242)">
            <path id="Path_3207" data-name="Path 3207" d="M1715.645,1287.429a.6.6,0,0,1-.6-.6,6.337,6.337,0,1,0-12.674,0,.6.6,0,0,1-1.207,0,7.544,7.544,0,0,1,15.089,0A.6.6,0,0,1,1715.645,1287.429Z" transform="translate(-1701.16 -1279.281)" fill="#0e34c4"/>
          </g>
          <g id="Group_1704" data-name="Group 1704" transform="translate(3.621 3.621)">
            <path id="Path_3208" data-name="Path 3208" d="M1695.3,1263.464a.6.6,0,0,1-.6-.6,9.958,9.958,0,0,0-19.917,0,.6.6,0,1,1-1.207,0,11.166,11.166,0,0,1,22.331,0A.6.6,0,0,1,1695.3,1263.464Z" transform="translate(-1673.574 -1251.695)" fill="#0e34c4"/>
          </g>
          <g id="Group_1705" data-name="Group 1705">
            <path id="Path_3209" data-name="Path 3209" d="M1674.958,1239.5a.6.6,0,0,1-.6-.6,13.58,13.58,0,0,0-27.16,0,.6.6,0,1,1-1.207,0,14.787,14.787,0,0,1,29.573,0A.6.6,0,0,1,1674.958,1239.5Z" transform="translate(-1645.988 -1224.109)" fill="#0e34c4"/>
          </g>
        </g>
      </g>
    </g>
  </g>
</svg>
