<svg xmlns="http://www.w3.org/2000/svg" width="166.522" height="87.314" viewBox="0 0 166.522 87.314">
  <g id="Group_5563" data-name="Group 5563" transform="translate(-291.621 -1601.197)">
    <g id="Group_3844" data-name="Group 3844" transform="translate(291.621 1615.492)">
      <path id="Path_2801" data-name="Path 2801" d="M599.7,1746.146h-1.169a6.3,6.3,0,0,1-6.3-6.305h0a6.305,6.305,0,0,1,6.3-6.305H599.7a6.305,6.305,0,0,1,6.305,6.305h0A6.3,6.3,0,0,1,599.7,1746.146Z" transform="translate(-469.068 -1708.104)" fill="#edf4ff"/>
      <g id="Group_1160" data-name="Group 1160" transform="translate(0 0)">
        <path id="Path_2802" data-name="Path 2802" d="M394.085,1655.292H273.891a6.3,6.3,0,0,0-6.305,6.305h0a6.305,6.305,0,0,0,6.305,6.305H394.085a6.305,6.305,0,0,0,6.305-6.305h0A6.3,6.3,0,0,0,394.085,1655.292Z" transform="translate(-249.948 -1655.292)" fill="#edf4ff"/>
        <path id="Path_2803" data-name="Path 2803" d="M331.843,1713.006h0a6.306,6.306,0,0,0-6.305-6.306H314.062a6.305,6.305,0,0,1,1.181-12.5h.043v-.111H247.515v.125c.135-.01.271-.013.409-.013h1.17a6.306,6.306,0,0,1,1.181,12.5H219.625a6.306,6.306,0,0,0-6.305,6.306h0a6.305,6.305,0,0,0,6.305,6.306H325.538A6.305,6.305,0,0,0,331.843,1713.006Z" transform="translate(-213.32 -1681.48)" fill="#edf4ff"/>
        <path id="Path_2804" data-name="Path 2804" d="M363.541,1784.3H349.677v-.131c-.089,0-.18.006-.271.006h-1.169a6.306,6.306,0,0,1-1.252-12.486H271.261a6.306,6.306,0,0,1-1.252,12.486H270v.125h-8.241a6.305,6.305,0,0,0-6.305,6.305h0a6.305,6.305,0,0,0,6.305,6.305H363.541a6.305,6.305,0,0,0,6.305-6.305h0A6.305,6.305,0,0,0,363.541,1784.3Z" transform="translate(-241.756 -1733.853)" fill="#edf4ff"/>
      </g>
      <path id="Path_2805" data-name="Path 2805" d="M628.691,1823.093h-6.56a6.306,6.306,0,0,1-6.305-6.306h0a6.3,6.3,0,0,1,6.305-6.305h6.56a6.305,6.305,0,0,1,6.306,6.305h0A6.306,6.306,0,0,1,628.691,1823.093Z" transform="translate(-484.997 -1760.04)" fill="#edf4ff"/>
      <path id="Path_2806" data-name="Path 2806" d="M693.15,1823.093h0a6.306,6.306,0,0,1-6.305-6.306h0a6.3,6.3,0,0,1,6.305-6.305h0a6.3,6.3,0,0,1,6.3,6.305h0A6.305,6.305,0,0,1,693.15,1823.093Z" transform="translate(-532.932 -1760.04)" fill="#edf4ff"/>
    </g>
    <path id="Path_4246" data-name="Path 4246" d="M409.255,334.36l-1.913-1,1-1.912a.511.511,0,0,0-.905-.474l-1,1.913-1.913-1a.511.511,0,1,0-.474.905l1.913,1-1,1.913a.511.511,0,0,0,.905.473l1-1.913,1.913,1a.511.511,0,1,0,.473-.905Z" transform="translate(-30.174 1270.498)" fill="#0e34c4"/>
    <g id="Group_5049" data-name="Group 5049" transform="translate(311.689 1614.498)">
      <ellipse id="Ellipse_190" data-name="Ellipse 190" cx="62.72" cy="1.564" rx="62.72" ry="1.564" transform="translate(0 70.885)" fill="#eff1f3"/>
      <g id="Group_5022" data-name="Group 5022" transform="translate(29.54 4.297)">
        <path id="Path_8285" data-name="Path 8285" d="M396,123.324A39.877,39.877,0,0,1,398.577,120c.264-.306.6-.635,1-.591a1.462,1.462,0,0,1-.282.793l-.686,1.152a.152.152,0,0,0-.031.106c.021.1.166.062.246.006l.813-.559a.758.758,0,0,1-.118.393,5.2,5.2,0,0,1-1.541,1.358A5.323,5.323,0,0,0,396.8,123.9" transform="translate(-352.774 -119.404)" fill="#f19e84"/>
        <path id="Path_8286" data-name="Path 8286" d="M331.639,143.995a2.855,2.855,0,0,1-.915,3.053c-.043.034-.091.088-.063.135a.11.11,0,0,0,.061.039,7.05,7.05,0,0,0,5.15-.043,3.9,3.9,0,0,1-1.514-1.542,3.582,3.582,0,0,1-.051-1.2,17.051,17.051,0,0,1,.569-3.179" transform="translate(-308.25 -134.294)" fill="#e5917a"/>
        <path id="Path_8287" data-name="Path 8287" d="M265.394,191.516a39.9,39.9,0,0,0-4.095.964c-.388.113-.826.281-.953.665a1.467,1.467,0,0,0,.839.073l1.332-.147a.152.152,0,0,1,.11.016c.078.059-.013.176-.1.227l-.846.507a.757.757,0,0,0,.406.056,5.2,5.2,0,0,0,1.875-.838,5.325,5.325,0,0,1,1.624-.551" transform="translate(-260.346 -168.537)" fill="#f19e84"/>
        <g id="Group_5018" data-name="Group 5018" transform="translate(19.64 0.178)">
          <path id="Path_8288" data-name="Path 8288" d="M326.985,131.3a8.859,8.859,0,0,0-.592,2.118,8.333,8.333,0,0,0,.56,3.392,4.164,4.164,0,0,0,.22.578,2.145,2.145,0,0,0,.647.77.961.961,0,0,0,.5.211,1.216,1.216,0,0,0,.536-.135,9.285,9.285,0,0,0,2.887-1.745,3.9,3.9,0,0,0,1.288-3.02" transform="translate(-324.969 -127.686)" fill="#f19e84"/>
          <path id="Path_8289" data-name="Path 8289" d="M326.68,133.076a8.322,8.322,0,0,0-.187.865c-.028.267,1.441.165,2,.2s2.364.573,2.495,1.732.582-2.446.582-2.446l-1.874-.961-1.7-.233" transform="translate(-325.055 -128.326)" fill="#e5917a"/>
          <path id="Path_8290" data-name="Path 8290" d="M327.786,127.531c-.1.337.244.219.384.157a.664.664,0,0,0,.293-.341,2.618,2.618,0,0,1,.479-.829.581.581,0,0,1,.847,0,.707.707,0,0,1-.077.717c-.392.681-1.1,1.169-1.37,1.906a.369.369,0,0,0,0,.35c.089.116.266.1.407.064a2.548,2.548,0,0,0,1.121-.64,7.538,7.538,0,0,0,1.571-2.623,4.538,4.538,0,0,0,.011-1.222,2.117,2.117,0,0,0-.409-1.262,6.406,6.406,0,0,1-.612-.573,2.03,2.03,0,0,1-.237-.7,2.65,2.65,0,0,0-.736-1.358,1.535,1.535,0,0,0-1.45-.378,2.287,2.287,0,0,1-.534.163,1.191,1.191,0,0,1-.571-.167l-.878-.428a3.507,3.507,0,0,0-1.112-.394,2.238,2.238,0,0,0-1.009.139,3.1,3.1,0,0,0-1.074.661,2.714,2.714,0,0,0-.8,1.367,2.168,2.168,0,0,0,.226,1.552,2.372,2.372,0,0,0,1.265.992,4.029,4.029,0,0,0,1.619.183,4.465,4.465,0,0,1,1.584.014,1.785,1.785,0,0,1,1.127,1.076,2.079,2.079,0,0,1-.07,1.572" transform="translate(-321.981 -119.963)" fill="#020226"/>
        </g>
        <g id="Group_5021" data-name="Group 5021" transform="translate(4.167 3.148)">
          <path id="Path_8291" data-name="Path 8291" d="M351.821,138.848c.653-.368,2.571-.976,3.224-1.344a39.609,39.609,0,0,0,4.854-3.058c2.105-1.629,3.9-3.69,6.183-5.043a.656.656,0,0,1,.333-.12.682.682,0,0,1,.393.2l.445.364a.337.337,0,0,1,.043.59c-2.469,2.8-4.485,5.254-7.184,7.82a39.074,39.074,0,0,0-2.851,2.87c-.462.571-1.913,2.17-2.318,2.785A9.53,9.53,0,0,0,353.888,146a9.069,9.069,0,0,1-1.115-4.629" transform="translate(-326.839 -129.283)" fill="#06063d"/>
          <path id="Path_8292" data-name="Path 8292" d="M287.489,162.722c-2.2,2.145-3.888,4.026-6.084,6.171a5.256,5.256,0,0,1-3.133,1.767l-4.119,1.052a.743.743,0,0,0-.728.918l.048,1.222,6.426-.991a8.389,8.389,0,0,0,5.515-2.6l2.367-2.036" transform="translate(-273.422 -152.067)" fill="#020226"/>
          <path id="Path_8293" data-name="Path 8293" d="M327.137,159.059a12.71,12.71,0,0,0,5.013-.151.379.379,0,0,1,.29.01.367.367,0,0,1,.124.27c.4,2.788-.139,5.613-.374,8.42a38.711,38.711,0,0,0,.121,7.683.505.505,0,0,1-.066.4.5.5,0,0,1-.318.122,34.215,34.215,0,0,1-4.227.275,1.246,1.246,0,0,1-.763-.167,1.278,1.278,0,0,1-.367-.943l-.441-4.582c-.359-3.733-.7-7.608.554-11.141" transform="translate(-309.108 -149.452)" fill="#fff"/>
          <g id="Group_5019" data-name="Group 5019" transform="translate(9.708 26.852)">
            <path id="Path_8294" data-name="Path 8294" d="M311.493,314.788a6.091,6.091,0,0,1-2.226,3.78c1.176-.52,2.521-.512,3.737-.93a.4.4,0,0,0,.191-.111.433.433,0,0,0,.016-.38,7.4,7.4,0,0,1-.21-2.612" transform="translate(-307.553 -282.357)" fill="#f19e84"/>
            <path id="Path_8295" data-name="Path 8295" d="M309.432,321.164a3.966,3.966,0,0,1,.387,1.3.994.994,0,0,1-.1.719c-.238.337-.728.318-1.137.368a7.579,7.579,0,0,0-1.546.485,7.04,7.04,0,0,1-2.963.365.2.2,0,0,1-.14-.317,3.406,3.406,0,0,1,.965-.685,8.142,8.142,0,0,0,1.37-.985.655.655,0,0,1,.286-.179.711.711,0,0,1,.282.024,3.914,3.914,0,0,0,2.6-1.1" transform="translate(-303.887 -286.873)" fill="#020226"/>
            <path id="Path_8296" data-name="Path 8296" d="M313.617,213.551l-1.8,8.273a46.392,46.392,0,0,0-1.024,5.95,39.742,39.742,0,0,0-.027,5.024q.293,6.836,1.259,13.621a1.56,1.56,0,0,0,.105.472c.073.04.18.041.633.01s.874-.1,1.311-.156c1.038-5.032-.092-10.326.981-15.351a46.882,46.882,0,0,1,1.909-5.908,74.03,74.03,0,0,0,2.958-10.822" transform="translate(-308.531 -213.551)" fill="#06063d"/>
          </g>
          <g id="Group_5020" data-name="Group 5020" transform="translate(17.942 25.248)">
            <path id="Path_8297" data-name="Path 8297" d="M342.778,313.852a6.09,6.09,0,0,1-1.867,3.97c1.123-.626,2.462-.743,3.635-1.271a.4.4,0,0,0,.18-.128.432.432,0,0,0-.019-.38,7.39,7.39,0,0,1-.451-2.581" transform="translate(-337.348 -280.021)" fill="#f19e84"/>
            <path id="Path_8298" data-name="Path 8298" d="M341.117,320.032a3.956,3.956,0,0,1,.506,1.262.993.993,0,0,1-.036.726c-.206.357-.7.384-1.1.472a7.558,7.558,0,0,0-1.495.626,7.045,7.045,0,0,1-2.917.638.2.2,0,0,1-.169-.3,3.4,3.4,0,0,1,.9-.771,8.151,8.151,0,0,0,1.273-1.108.655.655,0,0,1,.268-.2.71.71,0,0,1,.283,0,3.912,3.912,0,0,0,2.488-1.336" transform="translate(-333.918 -284.498)" fill="#020226"/>
            <path id="Path_8299" data-name="Path 8299" d="M329.76,208.518c-.449,11.437,4.1,23.138,4.72,34.567a.5.5,0,0,0,.1.339.482.482,0,0,0,.344.093,9.1,9.1,0,0,0,1.711-.158.721.721,0,0,0,.336-.127.757.757,0,0,0,.188-.577c.235-7.262-.885-14.533-.408-21.783.27-4.1,1.037-8.327-.178-12.256" transform="translate(-329.728 -208.518)" fill="#020226"/>
          </g>
          <path id="Path_8300" data-name="Path 8300" d="M336.243,158.417a.194.194,0,0,0-.038-.114.292.292,0,0,0-.3-.04.646.646,0,0,0-.23.172c-.683.695-1.39-.021-2.378.435-.913-.444-1.881.308-2.522-.344a.645.645,0,0,0-.23-.172.291.291,0,0,0-.3.04.2.2,0,0,0-.038.114,21.591,21.591,0,0,0-.092,3.222.169.169,0,0,0,.1.174.324.324,0,0,0,.2-.021A12.492,12.492,0,0,0,333.3,160.5a12.57,12.57,0,0,0,2.738,1.29.323.323,0,0,0,.2.02.168.168,0,0,0,.1-.174A21.625,21.625,0,0,0,336.243,158.417Z" transform="translate(-312.038 -149.014)" fill="#e2e2ed"/>
          <path id="Path_8301" data-name="Path 8301" d="M329.057,195.885a4.251,4.251,0,0,0,3.791,1.951c2.789.027,0,2.253,0,2.253L328,199.838" transform="translate(-310.612 -174.662)" fill="#e2e2ed"/>
          <path id="Path_8302" data-name="Path 8302" d="M320.176,158.884a159.977,159.977,0,0,1,.617,20.306,3.51,3.51,0,0,1-.268,1.56,2.782,2.782,0,0,1-1.665,1.233,6.237,6.237,0,0,1-3.071.222.445.445,0,0,1-.454-.482,20.2,20.2,0,0,1,.167-4.241,116.66,116.66,0,0,0,.5-17.375,25.543,25.543,0,0,1,4.169-1.223" transform="translate(-301.939 -149.452)" fill="#020226"/>
          <path id="Path_8303" data-name="Path 8303" d="M340.324,157.755c-.25,1.317-.493,2.781-.782,4.091a18.3,18.3,0,0,0-.313,2.319q-.551,6.14-.759,12.3a8.675,8.675,0,0,0,.106,2.125,3,3,0,0,0,1.06,1.8,3.592,3.592,0,0,0,1.424.567,9.028,9.028,0,0,0,3.824-.031l.121-6.854c.016-.917.062-1.834.113-2.75.134-2.4-.06-4.286-.033-5.474.077-3.312-.9-4.652-.509-7.942a14.321,14.321,0,0,1-4.254-.153" transform="translate(-317.732 -148.682)" fill="#06063d"/>
          <path id="Path_8304" data-name="Path 8304" d="M334.612,153.3a.248.248,0,0,0-.028-.114.17.17,0,0,0-.218-.04.521.521,0,0,0-.169.172,6.725,6.725,0,0,1-1.865,1.748,6.722,6.722,0,0,1-1.734-1.657.52.52,0,0,0-.169-.172.171.171,0,0,0-.218.04.248.248,0,0,0-.028.114,29.367,29.367,0,0,0-.068,3.222c0,.067.013.147.074.174a.182.182,0,0,0,.144-.021,8.417,8.417,0,0,0,2.116-1.382,8.432,8.432,0,0,0,2.011,1.291.18.18,0,0,0,.144.02c.061-.027.072-.107.074-.174A29.47,29.47,0,0,0,334.612,153.3Z" transform="translate(-312.038 -145.527)" fill="#db0037"/>
        </g>
      </g>
      <path id="Path_8305" data-name="Path 8305" d="M510.128,148.422a4.625,4.625,0,0,1-.4,3.5c-.029.053-.059.123-.018.168s.092.031.141.021l2.31-.46a3.469,3.469,0,0,0,1.316-.453,3.592,3.592,0,0,1-1.066-2.429,10.647,10.647,0,0,1,.263-2.7" transform="translate(-400.698 -133.273)" fill="#d88673"/>
      <g id="Group_5028" data-name="Group 5028" transform="translate(95.627 16.027)">
        <g id="Group_5023" data-name="Group 5023" transform="translate(0 2.701)">
          <path id="Path_8306" data-name="Path 8306" d="M467.745,164.695l4.7.8-2.72,2.074Z" transform="translate(-467.745 -164.695)" fill="#dd562a"/>
        </g>
        <g id="Group_5024" data-name="Group 5024" transform="translate(1.249 4.859)">
          <rect id="Rectangle_1913" data-name="Rectangle 1913" width="5.26" height="0.194" transform="translate(0 5.204) rotate(-81.596)" fill="#dd562a"/>
        </g>
        <g id="Group_5025" data-name="Group 5025" transform="translate(0.262 9.886)">
          <ellipse id="Ellipse_191" data-name="Ellipse 191" cx="0.128" cy="1.048" rx="0.128" ry="1.048" transform="matrix(0.116, -0.993, 0.993, 0.116, 0, 0.254)" fill="#dd562a"/>
        </g>
        <g id="Group_5026" data-name="Group 5026" transform="translate(0.484)">
          <path id="Path_8307" data-name="Path 8307" d="M470.339,159.673c-.023-.109-.656-2.091-1.076-3.4l.185-.06c.107.334,1.049,3.262,1.081,3.416Z" transform="translate(-469.263 -156.217)" fill="#dd562a"/>
        </g>
        <g id="Group_5027" data-name="Group 5027" transform="translate(0.753 1.383)">
          <ellipse id="Ellipse_192" data-name="Ellipse 192" cx="0.39" cy="0.39" rx="0.39" ry="0.39" transform="translate(0 0.765) rotate(-78.929)" fill="#04407c"/>
        </g>
      </g>
      <g id="Group_5029" data-name="Group 5029" transform="translate(105.408 5.963)">
        <path id="Path_8308" data-name="Path 8308" d="M502.436,129.789a10.884,10.884,0,0,0-1.327,1.969,3.656,3.656,0,0,0-.363,2.308,4.369,4.369,0,0,1,.193.987,2.278,2.278,0,0,1-.563,1.252.108.108,0,0,0,.04.16,1.128,1.128,0,0,0,.494.076.232.232,0,0,1,.225.2q.163,1.043.424,2.068a.277.277,0,0,0,.438.234,10.363,10.363,0,0,0,2.5-1.155,6.113,6.113,0,0,0,1.887-3.059" transform="translate(-499.745 -128.146)" fill="#f19e84"/>
        <path id="Path_8309" data-name="Path 8309" d="M501.47,138.1a4.553,4.553,0,0,0-.081.753c.01.273,1.755.112,2.335.439a2.433,2.433,0,0,1,.9,1.448,19.172,19.172,0,0,0,1.25-2.031l-.87-.983" transform="translate(-500.448 -133.552)" fill="#d88673"/>
        <path id="Path_8310" data-name="Path 8310" d="M502.919,132.159c.394-.03.557-.271.629-.645a1.529,1.529,0,0,1,.06-.344.44.44,0,0,1,.694-.062.767.767,0,0,1,.1.776,3.607,3.607,0,0,1-.414.709,1.3,1.3,0,0,0-.258.767,1.044,1.044,0,0,0,1.213.82,2.593,2.593,0,0,0,1.382-.836,2.406,2.406,0,0,0,.742-1.132c.12-.552-.117-1.139.02-1.688.141-.564.641-.959.918-1.472a1.992,1.992,0,0,0-1.547-2.926,2.657,2.657,0,0,1-1.28-.207,2.146,2.146,0,0,1-.383-.4,2.457,2.457,0,0,0-1.366-.845,1.782,1.782,0,0,0-1.53.389,3.9,3.9,0,0,1-.376.351,2.36,2.36,0,0,1-1.018.259,2.571,2.571,0,0,0-1.734,1.013,1.8,1.8,0,0,0-.091,1.945,2.1,2.1,0,0,0,1.414.845,7.584,7.584,0,0,0,1.69.03.84.84,0,0,1,.553.107.709.709,0,0,1,.216.344,2.12,2.12,0,0,1,.073,1.1,2.349,2.349,0,0,0-.1.647.465.465,0,0,0,.393.454" transform="translate(-498.44 -124.632)" fill="#020226"/>
        <path id="Path_8311" data-name="Path 8311" d="M506.394,143.1q-1.357.278-2.735.425a.785.785,0,0,0-.741-.7.851.851,0,1,0,.754.846c0-.018,0-.035,0-.052q1.385-.149,2.752-.427C506.479,143.177,506.454,143.085,506.394,143.1Zm-3.476,1.338a.772.772,0,1,1,.675-.766A.725.725,0,0,1,502.918,144.435Z" transform="translate(-500.977 -137.027)" fill="#231f20"/>
      </g>
      <path id="Path_8312" data-name="Path 8312" d="M472.681,177.562c-.423-.432-.077-1.209-.371-1.738a1.672,1.672,0,0,0-1.324-.68,1.553,1.553,0,0,0-.977.805,1.158,1.158,0,0,0-.255.631,1.026,1.026,0,0,0,.148.458,1.415,1.415,0,0,0,.514.59c.229.128.5.145.743.249a2.192,2.192,0,0,1,.757.671" transform="translate(-373.486 -153.082)" fill="#f19e84"/>
      <g id="Group_5032" data-name="Group 5032" transform="translate(97.98 16.537)">
        <path id="Path_8313" data-name="Path 8313" d="M525.484,162.408a3.654,3.654,0,0,1,1.567,2.113,51.933,51.933,0,0,1,1.878,6.164,5.028,5.028,0,0,1,.181,1.206,4.791,4.791,0,0,1-.9,2.407q-.474.759-1,1.481a3.425,3.425,0,0,1-1.145,1.11,1.291,1.291,0,0,1-1.493-.16" transform="translate(-508.817 -160.945)" fill="#020219"/>
        <g id="Group_5030" data-name="Group 5030" transform="translate(8.309 49.108)">
          <path id="Path_8314" data-name="Path 8314" d="M509.747,312.065a6.368,6.368,0,0,1-2.638,3.75c1.269-.442,2.669-.321,3.971-.652a.417.417,0,0,0,.208-.1.453.453,0,0,0,.048-.395,7.731,7.731,0,0,1,0-2.739" transform="translate(-505.228 -311.93)" fill="#f19e84"/>
          <path id="Path_8315" data-name="Path 8315" d="M507.238,318.859a4.141,4.141,0,0,1,.293,1.391,1.037,1.037,0,0,1-.168.741c-.276.331-.785.27-1.216.287a7.9,7.9,0,0,0-1.652.375,7.359,7.359,0,0,1-3.118.13.208.208,0,0,1-.119-.342,3.567,3.567,0,0,1,1.063-.632,8.531,8.531,0,0,0,1.51-.911.684.684,0,0,1,.313-.162.739.739,0,0,1,.292.049c.824.24,2.1-.433,2.8-.926" transform="translate(-501.205 -316.651)" fill="#020226"/>
        </g>
        <path id="Path_8316" data-name="Path 8316" d="M510.131,159.565l.393-1.017,2.39-.731.631.848S512.062,159.019,510.131,159.565Z" transform="translate(-498.977 -157.816)" fill="#e2e2ed"/>
        <g id="Group_5031" data-name="Group 5031" transform="translate(7.22 48.667)">
          <path id="Path_8317" data-name="Path 8317" d="M503.709,311.176a6.366,6.366,0,0,1-1.319,4.391c1.065-.82,2.431-1.147,3.562-1.873a.422.422,0,0,0,.167-.16.454.454,0,0,0-.079-.39,7.724,7.724,0,0,1-.863-2.6" transform="translate(-500.923 -310.545)" fill="#f19e84"/>
          <path id="Path_8318" data-name="Path 8318" d="M502.663,317.2a4.145,4.145,0,0,1,.717,1.227,1.037,1.037,0,0,1,.075.756c-.157.4-.66.5-1.063.657a7.892,7.892,0,0,0-1.449.877,7.366,7.366,0,0,1-2.918,1.108.208.208,0,0,1-.221-.287,3.564,3.564,0,0,1,.809-.935,8.534,8.534,0,0,0,1.146-1.341.68.68,0,0,1,.246-.253.742.742,0,0,1,.292-.046c.858-.033,1.855-1.074,2.367-1.764" transform="translate(-497.786 -315.077)" fill="#020226"/>
        </g>
        <path id="Path_8319" data-name="Path 8319" d="M513.1,215.433c-.168,3.548-.1,7.1-.04,10.653l.059,3.287.263,14.708a.3.3,0,0,0,.367.353l1,.052a.791.791,0,0,0,.45-.065.778.778,0,0,0,.287-.5,34.35,34.35,0,0,0,.807-5.059q1.179-10.969,1.974-21.975a12.776,12.776,0,0,0-.365-5.279" transform="translate(-500.927 -194.466)" fill="#020226"/>
        <path id="Path_8320" data-name="Path 8320" d="M503.288,162.916a9.894,9.894,0,0,1,.856,4.705,8,8,0,0,1-.246,2.311,4.7,4.7,0,0,0-.174.626,3.261,3.261,0,0,0,.024.85,24.268,24.268,0,0,1-.379,7.655.687.687,0,0,0,.01.464.676.676,0,0,0,.48.267c2.6.588,5.386.953,7.881.011a.616.616,0,0,0,.25-.145.647.647,0,0,0,.1-.469,76.6,76.6,0,0,1,.192-10.929c.211-2.034.535-4.187-.315-6.046a2.65,2.65,0,0,0-.568-.846,3.573,3.573,0,0,0-1.546-.71,3.235,3.235,0,0,0-2.361.016l-1.922.575" transform="translate(-494.315 -159.608)" fill="#06063d"/>
        <path id="Path_8321" data-name="Path 8321" d="M497.086,216.952a27.916,27.916,0,0,0-1.725,5.253c-.695,2.832-1.247,5.7-1.795,8.56a14.376,14.376,0,0,0-.339,2.67,13.3,13.3,0,0,0,.418,2.927,87.717,87.717,0,0,0,3.311,11.172.919.919,0,0,0,.253.423.846.846,0,0,0,.6.113,4.885,4.885,0,0,0,1.5-.371c-.082-1.159-.164-2.319-.358-3.464-.528-3.1-1.88-6.111-1.713-9.256a19.492,19.492,0,0,1,2.149-6.885l2.068-4.546a24.892,24.892,0,0,0,2.376-7" transform="translate(-487.46 -197.835)" fill="#06063d"/>
        <path id="Path_8322" data-name="Path 8322" d="M484.1,168.2a10.052,10.052,0,0,0-1.732,3.611,45.8,45.8,0,0,0-1.517,5.534,17.537,17.537,0,0,0-1.782-2.252l-2.438-2.756a.216.216,0,0,0-.144-.092c-.066,0-.115.057-.155.109l-1.067,1.4a.386.386,0,0,0-.052.539l1.177,2.087a23.557,23.557,0,0,0,2.285,3.542,4.635,4.635,0,0,0,1.858,1.474.652.652,0,0,0,.378.051.721.721,0,0,0,.331-.242,15.136,15.136,0,0,0,3.495-5.849,9.726,9.726,0,0,0-.636-7.159" transform="translate(-475.128 -164.889)" fill="#06063d"/>
      </g>
      <g id="Group_5042" data-name="Group 5042" transform="translate(3.76 3.855)">
        <path id="Path_8323" data-name="Path 8323" d="M199.59,155.682c-1.344.683-4.588-.268-4.823,1.224-.146.922-.327,3.027-.344,3.961a28.682,28.682,0,0,1-.841,6.334,14.664,14.664,0,0,0-.331,3.142,23.1,23.1,0,0,0,.4,2.981c.069.877-.88-1.578-1-.9l.355,3.2a.18.18,0,0,1-.3.151,5.975,5.975,0,0,1-1.257-3.634,39.069,39.069,0,0,1,.272-4.558c.078-2.433.358-4.187.512-6.521a25.094,25.094,0,0,0,.132-2.813c-.063-1.734-.006-2.96.083-4.692a8.735,8.735,0,0,1,.351-1.923c.3-.724,1.271-1.189,1.968-1.546a17.406,17.406,0,0,1,2.119-.729" transform="translate(-187.598 -139.37)" fill="#f19e84"/>
        <g id="Group_5038" data-name="Group 5038" transform="translate(26.297 6.581)">
          <g id="Group_5033" data-name="Group 5033" transform="translate(0.031 2.542)">
            <path id="Path_8324" data-name="Path 8324" d="M262.064,146.765l4.564-.117-2.173,2.447Z" transform="translate(-262.064 -146.648)" fill="#dd562a"/>
          </g>
          <g id="Group_5034" data-name="Group 5034" transform="translate(2.322 4.306)">
            <rect id="Rectangle_1914" data-name="Rectangle 1914" width="0.186" height="5.033" transform="translate(0 0.009) rotate(-2.666)" fill="#dd562a"/>
          </g>
          <g id="Group_5035" data-name="Group 5035" transform="translate(1.625 9.198)">
            <ellipse id="Ellipse_193" data-name="Ellipse 193" cx="1.003" cy="0.123" rx="1.003" ry="0.123" transform="matrix(0.997, -0.077, 0.077, 0.997, 0, 0.154)" fill="#dd562a"/>
          </g>
          <g id="Group_5036" data-name="Group 5036">
            <path id="Path_8325" data-name="Path 8325" d="M263.6,141.751c-.042-.1-1-1.842-1.634-2.991l.163-.09c.162.293,1.584,2.87,1.643,3.009Z" transform="translate(-261.967 -138.67)" fill="#dd562a"/>
          </g>
          <g id="Group_5037" data-name="Group 5037" transform="translate(0.637 1.257)">
            <ellipse id="Ellipse_194" data-name="Ellipse 194" cx="0.372" cy="0.372" rx="0.372" ry="0.372" fill="#04407c"/>
          </g>
        </g>
        <g id="Group_5039" data-name="Group 5039" transform="translate(12.98 34.536)">
          <path id="Path_8326" data-name="Path 8326" d="M220.18,231.817c-.092,4.347.886,8.634,1.5,12.938q.474,3.339.655,6.71a9.583,9.583,0,0,1-.223,3.266,26.271,26.271,0,0,0,4.384,2.964,6.826,6.826,0,0,1-2.121-4,19.551,19.551,0,0,1-.133-4.6c.4-7.562,1.046-15.131.727-22.7" transform="translate(-220.174 -226.399)" fill="#e5917a"/>
          <path id="Path_8327" data-name="Path 8327" d="M226.107,313.217a5.92,5.92,0,0,0,.071,3.054,1,1,0,0,0,.208.51.34.34,0,0,0,.491.024l.065-1.09c.471.087.728.577,1.031.949a4.594,4.594,0,0,0,3.005,1.373c.229.033.538.011.594-.214.044-.175-.108-.332-.246-.448l-1.264-1.065a3.387,3.387,0,0,0-.5-.372c-.124-.07-.256-.124-.386-.181a7.619,7.619,0,0,1-3.1-2.521" transform="translate(-224.096 -285.552)" fill="#040333"/>
        </g>
        <g id="Group_5040" data-name="Group 5040" transform="translate(2.733 29.725)">
          <path id="Path_8328" data-name="Path 8328" d="M196.31,216.941a4.423,4.423,0,0,1,.857,2.989,13.159,13.159,0,0,1-.645,3.1l-4.32,14.728a14.674,14.674,0,0,1-2.291,5.194.59.59,0,0,0-.189.443.564.564,0,0,0,.25.311c.969.735,1.692,1.75,2.661,2.485a11.662,11.662,0,0,1-.281-3.026,10.779,10.779,0,0,1,.965-2.7l8.15-17.654a8.223,8.223,0,0,0,.712-1.966,8.841,8.841,0,0,0-.317-3.4q-.661-3.047-1.019-6.15" transform="translate(-189.176 -211.302)" fill="#f19e84"/>
          <path id="Path_8329" data-name="Path 8329" d="M189.315,308.134a5.078,5.078,0,0,0-1.256,2.538.992.992,0,0,0-.006.551.341.341,0,0,0,.444.213l.482-.98c.4.263.448.815.582,1.276a4.6,4.6,0,0,0,2.239,2.434c.2.119.491.219.63.033.108-.144.029-.348-.053-.508l-.753-1.473a3.381,3.381,0,0,0-.318-.537c-.087-.113-.188-.214-.286-.317a6.4,6.4,0,0,1-1.705-3.23" transform="translate(-188.016 -277.279)" fill="#040333"/>
        </g>
        <path id="Path_8330" data-name="Path 8330" d="M206.6,259.275l-.422,1.356,3.832.254,1.087-2.214" transform="translate(-197.656 -213.852)" fill="#db8a75"/>
        <path id="Path_8331" data-name="Path 8331" d="M220.753,258.305l4.06.1.167-3.52-4.805.385" transform="translate(-207.194 -211.272)" fill="#db8a75"/>
        <path id="Path_8332" data-name="Path 8332" d="M195.185,185.571c-.889,1.848-1.78,3.7-2.489,5.623-1.971,5.355-2.478,11.122-2.968,16.808a.873.873,0,0,0,.051.487.784.784,0,0,0,.308.281,7.706,7.706,0,0,0,3.849.787c1.527.033,3.056.024,4.581-.075,1.082-.07,2.161-.186,3.24-.3l6.6-.71c.147-.016.318-.047.386-.179a.461.461,0,0,0-.03-.362c-1.74-4.7-2.3-9.76-3.96-14.485a17.555,17.555,0,0,0-1.12-2.6c-.257-.471-.546-.925-.814-1.39a36.234,36.234,0,0,1-1.923-4.1" transform="translate(-186.443 -163.896)" fill="#004696"/>
        <path id="Path_8333" data-name="Path 8333" d="M194.784,192.116c.549-2.081,1.286-4.1,2.022-6.113l4.13-.491-.04-.094-5.712.219c-.889,1.847-1.78,3.7-2.489,5.623-1.971,5.355-2.478,11.122-2.968,16.808a.872.872,0,0,0,.051.487.783.783,0,0,0,.308.281,6.579,6.579,0,0,0,3.113.762C193.225,203.717,193.294,197.764,194.784,192.116Z" transform="translate(-186.443 -163.941)" fill="#04407c"/>
        <path id="Path_8334" data-name="Path 8334" d="M217.078,120.726a5.722,5.722,0,0,1,3,6.24c-.224,1.1-.775,2.178-.614,3.291.066.459.251.892.343,1.347a3.363,3.363,0,0,1-.1,1.689.538.538,0,0,1-.156.269.544.544,0,0,1-.334.083,4,4,0,0,1-4-4.5c.1-.771.418-1.5.474-2.279.089-1.227-.489-2.413-.509-3.643" transform="translate(-203.796 -119.863)" fill="#840338"/>
        <path id="Path_8335" data-name="Path 8335" d="M213.1,141.123a5.78,5.78,0,0,0-.052,3.535c.021.067.039.152-.014.2a.182.182,0,0,1-.088.035,6.636,6.636,0,0,1-3.323,0,.366.366,0,0,1-.214-.131.4.4,0,0,1,0-.311,11.17,11.17,0,0,0,.379-3.9" transform="translate(-199.841 -133.372)" fill="#db8a75"/>
        <path id="Path_8336" data-name="Path 8336" d="M218.779,155.956c1.6.367,2.479,1.94,3.337,3.274a20.023,20.023,0,0,0,1.88,2.477,1.622,1.622,0,0,0,.972.641,1.579,1.579,0,0,0,1.132-.5,25.049,25.049,0,0,0,3.718-4.229c.64-.888,1.125-1.835,2.243-2.007.633-.1,1.341.052,1.876-.282.767-.479.651-1.561.445-2.41a.846.846,0,0,0-.125-.318.769.769,0,0,0-.6-.241,3.889,3.889,0,0,0-2.748,1.643l-4.944,5.414a.5.5,0,0,1-.261.183c-.2.036-.352-.144-.458-.3a50.6,50.6,0,0,1-2.946-5.01,8.415,8.415,0,0,0-1.815-2.688,6.46,6.46,0,0,0-3.843-1.3" transform="translate(-204.785 -140.017)" fill="#f19e84"/>
        <path id="Path_8337" data-name="Path 8337" d="M204.623,149.576c-1.214,2.131-3.114,5.492-2.99,6.962.291.862.561,1.361.836,2.227a5.54,5.54,0,0,1,.269,2.688,36.443,36.443,0,0,0,6.865-.079c-.374-1.75.17-3.546.576-5.289a2.676,2.676,0,0,0,.042-.646,2.1,2.1,0,0,0-.145-.555c-.769-1.735-1.528-3.234-2.3-4.953a1.332,1.332,0,0,1-.1-.362l-.118-.859-.041-.68a4.324,4.324,0,0,1-2.933-.067" transform="translate(-194.557 -138.421)" fill="#004696"/>
        <path id="Path_8338" data-name="Path 8338" d="M204.511,167.075l-.431-7.72.216-3.293-.648.327a27.473,27.473,0,0,0-1.925,4.734s-.247.781-.037,1.137.766,2.024.766,2.024a5.158,5.158,0,0,1,.193,2.68c-.372.984.142.36.142.36" transform="translate(-194.539 -143.939)" fill="#04407c"/>
        <g id="Group_5041" data-name="Group 5041" transform="translate(7.298)">
          <path id="Path_8339" data-name="Path 8339" d="M211.061,122.074a2.837,2.837,0,0,1,1.254,2.683,2.386,2.386,0,0,0-.033.54c.058.467.478.788.846,1.081a.164.164,0,0,1,.054.061c.031.075-.052.143-.118.19a1.582,1.582,0,0,0-.551,1.1,6.637,6.637,0,0,1-.193,1.251.3.3,0,0,1-.069.125.314.314,0,0,1-.212.06,9.287,9.287,0,0,1-2.607-.43,3.336,3.336,0,0,1-.828-.3,3.969,3.969,0,0,0-.449-.265c-.188-.078-1.86-2.991-1.991-3.148" transform="translate(-204.946 -120.781)" fill="#f19e84"/>
          <path id="Path_8340" data-name="Path 8340" d="M207.727,127.343a4.9,4.9,0,0,0,3.494-1.86,3.472,3.472,0,0,0,.347-3.259l-1.1-.662-4.3,1.424" transform="translate(-204.946 -120.432)" fill="#db8a75"/>
          <path id="Path_8341" data-name="Path 8341" d="M208.946,119.46a4.126,4.126,0,0,1-2.088,3.938c-.249-.314-.559-.657-.959-.644-.56.018-.838.718-.788,1.277.178,2,2.555,3.313,2.616,5.322.036,1.157-.726,2.187-.915,3.329a6.49,6.49,0,0,0,.3,2.709,8.4,8.4,0,0,1,.438,2.7,2.594,2.594,0,0,1-1.349,2.238,1.747,1.747,0,0,0-.575-1.509c-.391-.4-.876-.7-1.268-1.1a3.533,3.533,0,0,1-.733-3.7c.293-.728.845-1.429.709-2.2a3.077,3.077,0,0,0-.78-1.3,3.98,3.98,0,0,1-1.051-3.287,11.494,11.494,0,0,1,.416-1.131,4.421,4.421,0,0,0,.082-2.686,15.614,15.614,0,0,1-.632-1.94,2.841,2.841,0,0,1,.546-2.122,3.4,3.4,0,0,1,1.552-1.091,4.36,4.36,0,0,1,4.694,1.257" transform="translate(-202.342 -118.017)" fill="#930136"/>
        </g>
        <ellipse id="Ellipse_195" data-name="Ellipse 195" cx="0.372" cy="0.372" rx="0.372" ry="0.372" transform="translate(18.209 0.757)" fill="#5584b9"/>
        <ellipse id="Ellipse_196" data-name="Ellipse 196" cx="0.265" cy="0.265" rx="0.265" ry="0.265" transform="translate(0 45.108)" fill="#ff9600"/>
      </g>
      <g id="Group_5043" data-name="Group 5043" transform="translate(1.518 0)">
        <ellipse id="Ellipse_197" data-name="Ellipse 197" cx="0.372" cy="0.372" rx="0.372" ry="0.372" transform="translate(80.958)" fill="#5584b9"/>
        <ellipse id="Ellipse_198" data-name="Ellipse 198" cx="0.372" cy="0.372" rx="0.372" ry="0.372" transform="translate(75.895 14.103)" fill="#5584b9"/>
        <ellipse id="Ellipse_199" data-name="Ellipse 199" cx="0.372" cy="0.372" rx="0.372" ry="0.372" transform="translate(31.619 51.7)" fill="#ff9600"/>
        <ellipse id="Ellipse_200" data-name="Ellipse 200" cx="0.372" cy="0.372" rx="0.372" ry="0.372" transform="translate(95.841 33.304)" fill="#ff9600"/>
        <ellipse id="Ellipse_201" data-name="Ellipse 201" cx="0.487" cy="0.487" rx="0.487" ry="0.487" transform="translate(35.202 1.232)" fill="#ff9600"/>
        <ellipse id="Ellipse_202" data-name="Ellipse 202" cx="0.487" cy="0.487" rx="0.487" ry="0.487" transform="translate(66.078 38.39)" fill="#ff9600"/>
        <ellipse id="Ellipse_203" data-name="Ellipse 203" cx="0.487" cy="0.487" rx="0.487" ry="0.487" transform="translate(0 33.093)" fill="#5584b9"/>
        <ellipse id="Ellipse_204" data-name="Ellipse 204" cx="0.487" cy="0.487" rx="0.487" ry="0.487" transform="translate(55.159 0.745)" fill="#5584b9"/>
        <ellipse id="Ellipse_205" data-name="Ellipse 205" cx="0.487" cy="0.487" rx="0.487" ry="0.487" transform="translate(122.949 13.605)" fill="#5584b9"/>
        <ellipse id="Ellipse_206" data-name="Ellipse 206" cx="0.487" cy="0.487" rx="0.487" ry="0.487" transform="translate(34.715 36.337)" fill="#5584b9"/>
        <ellipse id="Ellipse_207" data-name="Ellipse 207" cx="0.487" cy="0.487" rx="0.487" ry="0.487" transform="translate(69.114 55.51)" fill="#5584b9"/>
        <ellipse id="Ellipse_208" data-name="Ellipse 208" cx="0.487" cy="0.487" rx="0.487" ry="0.487" transform="translate(98.328 1.719)" fill="#5584b9"/>
        <ellipse id="Ellipse_209" data-name="Ellipse 209" cx="0.487" cy="0.487" rx="0.487" ry="0.487" transform="translate(122.462 57.132)" fill="#5584b9"/>
        <ellipse id="Ellipse_210" data-name="Ellipse 210" cx="0.265" cy="0.265" rx="0.265" ry="0.265" transform="translate(41.631 14.476)" fill="#ff9600"/>
        <ellipse id="Ellipse_211" data-name="Ellipse 211" cx="0.265" cy="0.265" rx="0.265" ry="0.265" transform="translate(97.411 51.435)" fill="#ff9600"/>
        <ellipse id="Ellipse_212" data-name="Ellipse 212" cx="0.265" cy="0.265" rx="0.265" ry="0.265" transform="translate(127.108 38.877)" fill="#ff9600"/>
        <ellipse id="Ellipse_213" data-name="Ellipse 213" cx="0.265" cy="0.265" rx="0.265" ry="0.265" transform="translate(1.976 20.62)" fill="#ff9600"/>
      </g>
      <g id="Group_5048" data-name="Group 5048" transform="translate(72.242 7.019)">
        <path id="Path_8342" data-name="Path 8342" d="M428.674,150.52a2.085,2.085,0,0,1,.315,2.153,7.636,7.636,0,0,1-1.232,1.927,20.7,20.7,0,0,0-2.2,3.6.2.2,0,0,0-.028.142c.025.076.123.092.2.095a8.059,8.059,0,0,0,2.153-.107c.5-.117.975-.328,1.475-.448a16.244,16.244,0,0,1,2.741-.184c.314-.02.691-.107.788-.407a.837.837,0,0,0,.015-.336,7.564,7.564,0,0,0-.619-2.779c-.182-.356-.421-.683-.57-1.053a3.81,3.81,0,0,1-.2-1.628,9.178,9.178,0,0,1,1.106-3.894" transform="translate(-415.591 -141.339)" fill="#c9796b"/>
        <g id="Group_5044" data-name="Group 5044" transform="translate(12.642 38.151)">
          <path id="Path_8343" data-name="Path 8343" d="M435.081,250.955l2.063,12.6a23.441,23.441,0,0,1,.388,3.409,11.775,11.775,0,0,1-1.33,5.608,28.824,28.824,0,0,0,3.945-3.159c-.862-.607-.986-1.815-1.007-2.869-.125-6.291.6-12.579.412-18.869" transform="translate(-434.746 -247.675)" fill="#d88673"/>
          <path id="Path_8344" data-name="Path 8344" d="M439.24,315.308c.92,1.271.393,1.862.19,2.87a.989.989,0,0,1-.208.509.341.341,0,0,1-.491.024l-.065-1.088c-.471.087-.729.576-1.031.947a4.6,4.6,0,0,1-3.005,1.369c-.229.033-.537.011-.594-.214-.044-.174.108-.331.246-.446l1.264-1.062a3.377,3.377,0,0,1,.5-.371c.124-.07.256-.124.386-.181a6.443,6.443,0,0,0,2.807-2.357" transform="translate(-434.029 -293.757)" fill="#040333"/>
        </g>
        <g id="Group_5045" data-name="Group 5045" transform="translate(3.379 39.441)">
          <path id="Path_8345" data-name="Path 8345" d="M415.273,253.972l-.675,12.75a23.5,23.5,0,0,1-.349,3.414,11.776,11.776,0,0,1-2.5,5.195,28.813,28.813,0,0,0,4.529-2.244c-.712-.777-.576-1.984-.371-3.018,1.221-6.173,3.269-12.162,4.431-18.346" transform="translate(-409.589 -251.722)" fill="#f19e84"/>
          <path id="Path_8346" data-name="Path 8346" d="M413.261,315.308c.92,1.271.393,1.862.19,2.87a.993.993,0,0,1-.208.509.341.341,0,0,1-.491.024l-.065-1.088c-.47.087-.728.576-1.031.947a4.6,4.6,0,0,1-3.005,1.369c-.229.033-.538.011-.594-.214-.044-.174.108-.331.246-.446l1.264-1.062a3.375,3.375,0,0,1,.5-.371c.124-.07.256-.124.386-.181a6.445,6.445,0,0,0,2.807-2.357" transform="translate(-407.065 -295.046)" fill="#040333"/>
          <path id="Path_8347" data-name="Path 8347" d="M404.961,307.909" transform="translate(-404.961 -290.005)" fill="none" stroke="#f19e84" stroke-miterlimit="10" stroke-width="1"/>
        </g>
        <g id="Group_5046" data-name="Group 5046" transform="translate(9.548)">
          <path id="Path_8348" data-name="Path 8348" d="M427.508,137.51a5,5,0,0,0-2.8,2.567,4.284,4.284,0,0,0,.107,3.763,6.648,6.648,0,0,1,.648,1.21,1.816,1.816,0,0,1-.111,1.323c-.125.251-.307.471-.415.729a1.437,1.437,0,0,0,.362,1.585,1.941,1.941,0,0,1,.479-1.5,8.871,8.871,0,0,0,.967-1.3,2.862,2.862,0,0,0,.18-1.909c-.1-.415-.263-.813-.33-1.233a3.394,3.394,0,0,1,.308-1.906,7.851,7.851,0,0,1,1.064-1.638" transform="translate(-424.32 -134.463)" fill="#930136"/>
          <path id="Path_8349" data-name="Path 8349" d="M430.783,137.084a4.584,4.584,0,0,0-2.634,2.4,1.685,1.685,0,0,0-.19.913c.031.225.136.434.184.656a1.347,1.347,0,0,1-.319,1.175c-.112.122-.255.3-.143.426a.45.45,0,0,0,.166.086.929.929,0,0,1,.422.66l.328,1.168a.741.741,0,0,0,.194.381c.217.185.547.065.8-.061l1.967-.975a6.857,6.857,0,0,0,1.046-.6,3.533,3.533,0,0,0,.95-4.41" transform="translate(-426.583 -134.173)" fill="#f19e84"/>
          <path id="Path_8350" data-name="Path 8350" d="M442.789,130.771a3.177,3.177,0,0,1,1.848-2.65,1.512,1.512,0,0,1,1.09-.115,1.228,1.228,0,0,1,.737.856,2.227,2.227,0,0,1-.048,1.161,3.854,3.854,0,0,1-2.14,2.466" transform="translate(-436.904 -127.948)" fill="#930136"/>
          <path id="Path_8351" data-name="Path 8351" d="M430.049,140.67s-1.581,1.327-.139,2.568a5.545,5.545,0,0,0,3.561,1.179c.483-.082-.188-1.417-.188-1.417a10.815,10.815,0,0,0-1.349-1.605c-.337-.194-1.751-.859-1.751-.859" transform="translate(-427.715 -136.525)" fill="#d88673"/>
          <path id="Path_8352" data-name="Path 8352" d="M432.727,135.544a3.955,3.955,0,0,0-.978.7,2.3,2.3,0,0,0-.348,2.42,3.113,3.113,0,0,0,1.894,1.647,1.384,1.384,0,0,1,.3-.657.594.594,0,0,1,.661-.169c.307.146.346.575.252.9a2.985,2.985,0,0,0-.255.981,1.271,1.271,0,0,0,.326.707,1.019,1.019,0,0,0,.288.257,1.128,1.128,0,0,0,1.232-.364,5.449,5.449,0,0,0,1.4-2.536,4.6,4.6,0,0,0,.185-1.121,3.315,3.315,0,0,0-1.862-2.967,3.612,3.612,0,0,0-3.523.3,2.242,2.242,0,0,0-.915,1.119" transform="translate(-429.013 -132.764)" fill="#930136"/>
        </g>
        <path id="Path_8353" data-name="Path 8353" d="M397.371,160.314a2.683,2.683,0,0,1-.576-.745,8.559,8.559,0,0,0-1.664-2.73c-.151-.166-.348-.34-.565-.3q.513,1.37,1.084,2.715c.025.153-.328.1-.479-.011a.866.866,0,0,0-.514-.183c-.187,0-.386.041-.264.187a.364.364,0,0,0,.116.082,6.23,6.23,0,0,1,2.1,1.835c.474.654,1.161,1.628,1.581,2.32a19.46,19.46,0,0,0,4.556,4.889,1.128,1.128,0,0,0,.365.234.686.686,0,0,0,.526-.022,10.542,10.542,0,0,0,3.349-2.426.426.426,0,0,0,.075-.66l-.7-1.061c-.1-.152-.224-.319-.4-.337a.594.594,0,0,0-.332.1c-.712.386.06.334-.57.847-.1.085-1.154.887-1.8.684a1.41,1.41,0,0,1-.271-.089,7.572,7.572,0,0,1-1.678-1.406c-1.562-1.59-2.376-2.34-3.939-3.93" transform="translate(-394.356 -147.427)" fill="#d88673"/>
        <g id="Group_5047" data-name="Group 5047" transform="translate(2.288 14.689)">
          <path id="Path_8354" data-name="Path 8354" d="M431.1,174.045a4.094,4.094,0,0,1-1.8.721c-.271.038-.545.049-.814.1a13.392,13.392,0,0,0-1.288.393,9.072,9.072,0,0,1-2.787.247.461.461,0,0,0-.22.03.442.442,0,0,0-.141.131,5.761,5.761,0,0,0-.889,1.593,2,2,0,0,0-.14.6,2.836,2.836,0,0,0,.5,1.385,8.379,8.379,0,0,1,.938,4.9c1.4.4,2.853-.3,4.286-.585a1.394,1.394,0,0,0,.924-.416,1.476,1.476,0,0,0,.1-1.024,4.66,4.66,0,0,1,.159-1.808,13.19,13.19,0,0,1,.765-1.772,6.922,6.922,0,0,0,.551-2.973" transform="translate(-416.175 -174.045)" fill="#ed1556"/>
          <path id="Path_8355" data-name="Path 8355" d="M410.133,202.008a80.317,80.317,0,0,0-8.451,19.708,1.715,1.715,0,0,0,.116,1.63,1.54,1.54,0,0,0,.447.3,8.455,8.455,0,0,0,4.388.867c1.733-.129,3.437-.794,5.164-.591,1.77.208,3.321,1.3,5.067,1.658a12.281,12.281,0,0,0,2.363.173.3.3,0,0,0,.372-.365l-.313-11.455c-.029-1.069-.058-2.141-.183-3.2a18.009,18.009,0,0,0-4.018-9.357" transform="translate(-401.536 -192.666)" fill="#ed1556"/>
          <path id="Path_8356" data-name="Path 8356" d="M442.149,225.389q-.156-5.728-.313-11.455c-.029-1.069-.058-2.141-.183-3.2a18.01,18.01,0,0,0-4.018-9.357l-2.89.168-.112.258c1.4,2.927,3.366,6.555,3.5,10.177.04,1.126-.022,2.252-.085,3.376l-.538,9.6a10.667,10.667,0,0,0,1.908.628,12.28,12.28,0,0,0,2.363.173.3.3,0,0,0,.372-.365Z" transform="translate(-424.086 -192.666)" fill="#ed1556"/>
          <path id="Path_8357" data-name="Path 8357" d="M434.056,174.58a1.791,1.791,0,0,1-1.084,1.08,1.55,1.55,0,0,0-.444.184,1.038,1.038,0,0,0-.316.611,11.468,11.468,0,0,0,.813,7.643.991.991,0,0,0,.224.332.786.786,0,0,0,.433.163,1.59,1.59,0,0,0,1.528-2.419" transform="translate(-422.221 -174.41)" fill="#ed1556"/>
        </g>
        <path id="Path_8358" data-name="Path 8358" d="M433.678,168.048c-1.244-.639-1.938.82-2.114,1.311a3.8,3.8,0,0,0-.122,1.548,21.937,21.937,0,0,0,.57,3.641,10.635,10.635,0,0,1,.51,3.065,8.521,8.521,0,0,1-.327,1.7l-1.447,5.486a9.956,9.956,0,0,1-.41,1.306,8.8,8.8,0,0,1-1.412,2.151c-.053.065-.111.146-.083.225.048.139.257.086.381.008l.867-.546a8.542,8.542,0,0,0-.774,3,1.977,1.977,0,0,0,1.2-.853,9.861,9.861,0,0,0,1.176-2.849c.775-2.376,2.043-4.581,2.647-7.006a26.84,26.84,0,0,0,.274-8.452l-.137-1.861c-.052-.707-.178-1.534-.8-1.867" transform="translate(-417.849 -155.161)" fill="#d88673"/>
      </g>
    </g>
  </g>
</svg>
