<svg xmlns="http://www.w3.org/2000/svg" width="159.084" height="80.022" viewBox="0 0 159.084 80.022">
  <g id="Group_2680" data-name="Group 2680" transform="translate(-41.711 -104.525)">
    <g id="Group_2629" data-name="Group 2629" transform="translate(41.711 128.035)">
      <g id="Group_2617" data-name="Group 2617" transform="translate(0 0)">
        <path id="Path_3941" data-name="Path 3941" d="M662.293,205.881H651.721a.815.815,0,0,1-.815-.815h0a.815.815,0,0,1,.815-.815h10.572a.815.815,0,0,1,.815.815h0A.815.815,0,0,1,662.293,205.881Z" transform="translate(-507.289 -204.251)" fill="#ffdde7"/>
        <path id="Path_3942" data-name="Path 3942" d="M50.779,331.161H42.526a.815.815,0,0,1-.815-.815h0a.815.815,0,0,1,.815-.815h8.253a.815.815,0,0,1,.815.815h0A.815.815,0,0,1,50.779,331.161Z" transform="translate(-41.711 -299.996)" fill="#ffdde7"/>
      </g>
    </g>
    <g id="Group_2679" data-name="Group 2679" transform="translate(43.217 104.525)">
      <path id="Path_3950" data-name="Path 3950" d="M90.533,261.367s1.356-55.029,69.262-55.029S228.27,261.62,228.27,261.62Z" transform="translate(-80.53 -182.336)" fill="#ffdde7"/>
      <g id="Group_2678" data-name="Group 2678" transform="translate(9.024 0)">
        <g id="Group_2652" data-name="Group 2652" transform="translate(34.627 10.275)">
          <g id="Group_2647" data-name="Group 2647" transform="translate(0)">
            <g id="Group_2634" data-name="Group 2634" transform="translate(1.001 35.817)">
              <g id="Group_2631" data-name="Group 2631" transform="translate(68.114)">
                <g id="Group_2630" data-name="Group 2630">
                  <rect id="Rectangle_277" data-name="Rectangle 277" width="6.469" height="33.192" transform="translate(6.826)" fill="#7a98c5"/>
                  <path id="Rectangle_278" data-name="Rectangle 278" d="M3.49,0h9.626a3.49,3.49,0,0,1,3.49,3.49v0a0,0,0,0,1,0,0H0a0,0,0,0,1,0,0v0A3.49,3.49,0,0,1,3.49,0Z" transform="translate(1.843 29.702)" fill="#7a98c5"/>
                  <rect id="Rectangle_279" data-name="Rectangle 279" width="6.469" height="33.192" transform="translate(4.983)" fill="#0e34c4"/>
                  <path id="Rectangle_280" data-name="Rectangle 280" d="M3.49,0h9.626a3.49,3.49,0,0,1,3.49,3.49v0a0,0,0,0,1,0,0H0a0,0,0,0,1,0,0v0A3.49,3.49,0,0,1,3.49,0Z" transform="translate(0 29.702)" fill="#2f3052"/>
                </g>
                <path id="Path_3951" data-name="Path 3951" d="M547.57,300.038v4.3l8.312-2.8v-1.495Z" transform="translate(-542.586 -300.038)" fill="#acacac" style="mix-blend-mode: multiply;isolation: isolate"/>
              </g>
              <g id="Group_2633" data-name="Group 2633">
                <g id="Group_2632" data-name="Group 2632">
                  <rect id="Rectangle_281" data-name="Rectangle 281" width="6.469" height="33.192" transform="translate(6.826)" fill="#7a98c5"/>
                  <path id="Rectangle_282" data-name="Rectangle 282" d="M3.49,0h9.626a3.49,3.49,0,0,1,3.49,3.49v0a0,0,0,0,1,0,0H0a0,0,0,0,1,0,0v0A3.49,3.49,0,0,1,3.49,0Z" transform="translate(1.843 29.702)" fill="#7a98c5"/>
                  <rect id="Rectangle_283" data-name="Rectangle 283" width="6.469" height="33.192" transform="translate(4.983)" fill="#0e34c4"/>
                  <path id="Rectangle_284" data-name="Rectangle 284" d="M3.49,0h9.626a3.49,3.49,0,0,1,3.49,3.49v0a0,0,0,0,1,0,0H0a0,0,0,0,1,0,0v0A3.49,3.49,0,0,1,3.49,0Z" transform="translate(0 29.702)" fill="#0e34c4"/>
                </g>
                <path id="Path_3952" data-name="Path 3952" d="M258.644,300.038v4.3l8.312-2.8v-1.495Z" transform="translate(-253.661 -300.038)" fill="#acacac" style="mix-blend-mode: multiply;isolation: isolate"/>
              </g>
            </g>
            <g id="Group_2639" data-name="Group 2639" transform="translate(0 9.36)">
              <g id="Group_2636" data-name="Group 2636" transform="translate(69.461)">
                <path id="Path_3953" data-name="Path 3953" d="M527.9,187.815h16.868a3.794,3.794,0,0,1,3.305,1.932l4.94,8.875a1.624,1.624,0,0,1-1.415,2.421H533.632Z" transform="translate(-527.899 -187.815)" fill="#0e34c4"/>
                <path id="Path_3954" data-name="Path 3954" d="M544.243,187.815l7.429,13.228h-5.952L538.5,187.815Z" transform="translate(-536.004 -187.815)" fill="#acacac" style="mix-blend-mode: multiply;isolation: isolate"/>
                <g id="Group_2635" data-name="Group 2635" transform="translate(11.953 3.237)">
                  <path id="Path_3955" data-name="Path 3955" d="M578.6,201.546l.838,1.477h4.45l-.862-1.477Z" transform="translate(-578.6 -201.546)" fill="#7a98c5"/>
                  <path id="Path_3956" data-name="Path 3956" d="M583.285,209.874l.247.441h4.45l-.271-.441Z" transform="translate(-582.18 -207.91)" fill="#f3e2d9"/>
                  <path id="Path_3957" data-name="Path 3957" d="M585.194,213.243l.247.441h4.45l-.271-.441Z" transform="translate(-583.639 -210.485)" fill="#f3e2d9"/>
                  <path id="Path_3958" data-name="Path 3958" d="M586.764,216.6l.247.441h4.45l-.271-.441Z" transform="translate(-584.839 -213.047)" fill="#f3e2d9"/>
                  <path id="Path_3959" data-name="Path 3959" d="M591.508,224.7l.247.441h4.45l-.271-.441Z" transform="translate(-588.465 -219.239)" fill="#f3e2d9"/>
                  <path id="Path_3960" data-name="Path 3960" d="M593.417,228.066l.247.441h4.45l-.271-.441Z" transform="translate(-589.924 -221.814)" fill="#f3e2d9"/>
                  <path id="Path_3961" data-name="Path 3961" d="M588.624,220.015l.382.681h6.875l-.419-.681Z" transform="translate(-586.261 -215.661)" fill="#7a98c5"/>
                  <path id="Path_3962" data-name="Path 3962" d="M601.033,201.546l2.255,3.905h1.536l-2.279-3.905Z" transform="translate(-595.744 -201.546)" fill="#7a98c5"/>
                  <path id="Path_3963" data-name="Path 3963" d="M613.342,224.7l.742,1.235h1.536l-.765-1.235Z" transform="translate(-605.151 -219.239)" fill="#7a98c5"/>
                </g>
              </g>
              <g id="Group_2638" data-name="Group 2638">
                <path id="Path_3964" data-name="Path 3964" d="M259.031,214.272h79.607v-5.018a11.245,11.245,0,0,0-1.343-5.329l-7.435-13.812a4.368,4.368,0,0,0-3.846-2.3H259.031Z" transform="translate(-252.955 -187.815)" fill="#5a9cff"/>
                <path id="Path_3965" data-name="Path 3965" d="M233.259,214.272h19.319v-5.018a11.244,11.244,0,0,0-1.343-5.329l-7.474-13.884a4.231,4.231,0,0,0-3.726-2.226h-6.777Z" transform="translate(-233.259 -187.815)" fill="#0e34c4"/>
                <g id="Group_2637" data-name="Group 2637" transform="translate(23.424 4.488)">
                  <path id="Path_3966" data-name="Path 3966" d="M337.078,214.777l-4.461-7.927h42.509l5.658,9.531" transform="translate(-332.618 -206.85)" fill="none" stroke="#2f3052" stroke-miterlimit="10" stroke-width="1.062"/>
                  <line id="Line_9" data-name="Line 9" x2="42.656" transform="translate(2.068 3.668)" fill="none" stroke="#2f3052" stroke-miterlimit="10" stroke-width="2.123"/>
                  <path id="Path_3967" data-name="Path 3967" d="M348.272,234.659H391l1.75,2.975-43.707-1.6Z" transform="translate(-344.581 -228.103)" fill="#2f3052"/>
                </g>
              </g>
            </g>
            <g id="Group_2646" data-name="Group 2646" transform="translate(6.861)">
              <g id="Group_2645" data-name="Group 2645">
                <g id="Group_2640" data-name="Group 2640" transform="translate(10.928)">
                  <rect id="Rectangle_285" data-name="Rectangle 285" width="2.046" height="9.36" transform="translate(5.113)" fill="#7a98c5"/>
                  <rect id="Rectangle_286" data-name="Rectangle 286" width="5.113" height="9.36" fill="#2f3052"/>
                </g>
                <g id="Group_2641" data-name="Group 2641" transform="translate(7.394)">
                  <rect id="Rectangle_287" data-name="Rectangle 287" width="2.046" height="9.36" transform="translate(5.113)" fill="#7a98c5"/>
                  <rect id="Rectangle_288" data-name="Rectangle 288" width="5.113" height="9.36" fill="#2f3052"/>
                </g>
                <g id="Group_2642" data-name="Group 2642" transform="translate(3.814)">
                  <rect id="Rectangle_289" data-name="Rectangle 289" width="2.046" height="9.36" transform="translate(5.113)" fill="#7a98c5"/>
                  <rect id="Rectangle_290" data-name="Rectangle 290" width="5.113" height="9.36" fill="#2f3052"/>
                </g>
                <g id="Group_2643" data-name="Group 2643">
                  <rect id="Rectangle_291" data-name="Rectangle 291" width="2.046" height="9.36" transform="translate(5.113)" fill="#7a98c5"/>
                  <rect id="Rectangle_292" data-name="Rectangle 292" width="5.113" height="9.36" fill="#2f3052"/>
                </g>
                <g id="Group_2644" data-name="Group 2644" transform="translate(5.606 0.925)">
                  <path id="Path_3968" data-name="Path 3968" d="M287.2,152.565a.53.53,0,1,1-.53-.53A.53.53,0,0,1,287.2,152.565Z" transform="translate(-286.14 -152.035)" fill="#fdffff"/>
                  <path id="Path_3969" data-name="Path 3969" d="M303.379,152.565a.53.53,0,1,1-.53-.53A.53.53,0,0,1,303.379,152.565Z" transform="translate(-298.505 -152.035)" fill="#fdffff"/>
                  <path id="Path_3970" data-name="Path 3970" d="M318.563,152.565a.53.53,0,1,1-.53-.53A.53.53,0,0,1,318.563,152.565Z" transform="translate(-310.109 -152.035)" fill="#fdffff"/>
                  <circle id="Ellipse_87" data-name="Ellipse 87" cx="0.53" cy="0.53" r="0.53" transform="translate(10.913 0)" fill="#fdffff"/>
                </g>
              </g>
              <rect id="Rectangle_293" data-name="Rectangle 293" width="18.087" height="1.359" transform="translate(0 8.002)" fill="#acacac" style="mix-blend-mode: multiply;isolation: isolate"/>
            </g>
          </g>
          <g id="Group_2651" data-name="Group 2651" transform="translate(27.884 21.774)">
            <g id="Group_2649" data-name="Group 2649">
              <path id="Path_3971" data-name="Path 3971" d="M367.83,381.345h0a7.972,7.972,0,0,0,7.972,7.972h17.481v-7.972Z" transform="translate(-363.989 -348.134)" fill="#fff"/>
              <path id="Path_3972" data-name="Path 3972" d="M351.539,240.473h40.553s5.648.452,5.648,7.681v25.529H355.38V248.522a9.762,9.762,0,0,0-2.43-6.445Z" transform="translate(-351.539 -240.473)" fill="#fdffff"/>
              <g id="Group_2648" data-name="Group 2648" transform="translate(14.942 7.658)">
                <circle id="Ellipse_88" data-name="Ellipse 88" cx="6.783" cy="6.783" r="6.783" transform="translate(4.475)" fill="#61abeb" style="mix-blend-mode: multiply;isolation: isolate"/>
                <circle id="Ellipse_89" data-name="Ellipse 89" cx="6.783" cy="6.783" r="6.783" transform="translate(0 7.608)" fill="#c80788" style="mix-blend-mode: multiply;isolation: isolate"/>
                <circle id="Ellipse_90" data-name="Ellipse 90" cx="6.783" cy="6.783" r="6.783" transform="translate(9.639 7.608)" fill="#f8f039" style="mix-blend-mode: multiply;isolation: isolate"/>
              </g>
            </g>
            <g id="Group_2650" data-name="Group 2650" transform="translate(19.347 33.204)">
              <path id="Path_3973" data-name="Path 3973" d="M440.57,381.323a3.387,3.387,0,0,0-3.75,3.634c0,3.964-3.216,4.338-3.216,4.338h9.946v-7.972Z" transform="translate(-433.605 -381.317)" fill="#5f70a1"/>
              <path id="Path_3974" data-name="Path 3974" d="M463.15,381.345h42.629a4.286,4.286,0,0,1,3.975,4.582v5.167H466.131v-5.445S466.108,381.345,463.15,381.345Z" transform="translate(-456.185 -381.338)" fill="#5a9cff"/>
              <path id="Path_3975" data-name="Path 3975" d="M552.63,408.518s.523,3.215-4.711,4.233H506.562l5.03-4.233v-4.374h41.052Z" transform="translate(-489.362 -398.762)" fill="#fff"/>
              <path id="Path_3976" data-name="Path 3976" d="M475.8,422.7h0a4.233,4.233,0,0,0,4.233,4.233h3.817a4.233,4.233,0,0,0,4.233-4.233H475.8Z" transform="translate(-465.849 -412.942)" fill="#5a9cff"/>
            </g>
          </g>
        </g>
        <g id="Group_2677" data-name="Group 2677">
          <g id="Group_2676" data-name="Group 2676">
            <g id="Group_2660" data-name="Group 2660" transform="translate(6.31 31.458)">
              <g id="Group_2655" data-name="Group 2655" transform="translate(0 38.057)">
                <g id="Group_2654" data-name="Group 2654" transform="translate(0 5.065)">
                  <path id="Path_3977" data-name="Path 3977" d="M113.975,420.876h3.593l5.941,3.178-10.216-.122Z" transform="translate(-113.258 -420.876)" fill="#ed1556"/>
                  <g id="Group_2653" data-name="Group 2653" transform="translate(0 3.057)">
                    <path id="Path_3978" data-name="Path 3978" d="M113.142,435.186l.036-1.344,10.216.122-.036,1.344Z" transform="translate(-113.142 -433.842)" fill="#fff"/>
                  </g>
                  <line id="Line_10" data-name="Line 10" x1="1.177" y2="0.322" transform="translate(5.616 1.171)" fill="none" stroke="#fff" stroke-linecap="round" stroke-linejoin="round" stroke-width="0.959"/>
                  <line id="Line_11" data-name="Line 11" x1="1.177" y2="0.322" transform="translate(4.466 0.58)" fill="none" stroke="#fff" stroke-linecap="round" stroke-linejoin="round" stroke-width="0.959"/>
                </g>
                <path id="Path_3979" data-name="Path 3979" d="M120.682,399.391H117.02l-.834,5.065h3.662Z" transform="translate(-115.468 -399.391)" fill="#fdffff"/>
              </g>
              <g id="Group_2658" data-name="Group 2658" transform="translate(11.106 38.167)">
                <g id="Group_2657" data-name="Group 2657" transform="translate(0 5.065)">
                  <path id="Path_3980" data-name="Path 3980" d="M161.083,421.345h3.593l5.941,3.178L160.4,424.4Z" transform="translate(-160.366 -421.345)" fill="#ed1556"/>
                  <g id="Group_2656" data-name="Group 2656" transform="translate(0 3.057)">
                    <path id="Path_3981" data-name="Path 3981" d="M160.251,435.654l.036-1.344,10.216.122-.036,1.344Z" transform="translate(-160.251 -434.31)" fill="#fff"/>
                  </g>
                  <line id="Line_12" data-name="Line 12" x1="1.177" y2="0.322" transform="translate(5.616 1.171)" fill="none" stroke="#fff" stroke-linecap="round" stroke-linejoin="round" stroke-width="0.959"/>
                  <line id="Line_13" data-name="Line 13" x1="1.177" y2="0.322" transform="translate(4.466 0.58)" fill="none" stroke="#fff" stroke-linecap="round" stroke-linejoin="round" stroke-width="0.959"/>
                </g>
                <path id="Path_3982" data-name="Path 3982" d="M166.7,399.859H163.04l.06,5.065h3.662Z" transform="translate(-162.382 -399.859)" fill="#fdffff"/>
              </g>
              <g id="Group_2659" data-name="Group 2659" transform="translate(0.243)">
                <path id="Path_3983" data-name="Path 3983" d="M128.848,237.962s.3.647.859,6.608c.114,1.225.185,2.932.173,4.163l.283,30.6-5.24-.056-1-32.321-4.286,32.642-5.464-.2,3.414-40.5,2.467-.428Z" transform="translate(-114.175 -237.962)" fill="#0e34c4"/>
                <line id="Line_14" data-name="Line 14" y1="1.032" x2="2.24" transform="translate(9.75 7.958)" fill="none" stroke="#7b7b7b" stroke-linecap="round" stroke-linejoin="round" stroke-width="1.11"/>
              </g>
            </g>
            <g id="Group_2672" data-name="Group 2672" transform="translate(0 13.902)">
              <g id="Group_2664" data-name="Group 2664" transform="translate(20.2 1.613)">
                <g id="Group_2663" data-name="Group 2663">
                  <g id="Group_2662" data-name="Group 2662">
                    <g id="Group_2661" data-name="Group 2661">
                      <path id="Path_3984" data-name="Path 3984" d="M172.779,170.336s3.079,1.835,3.677,6.8l-4.4,2.415Z" transform="translate(-172.06 -170.336)" fill="#fdffff"/>
                    </g>
                  </g>
                </g>
              </g>
              <g id="Group_2665" data-name="Group 2665" transform="translate(8.914)">
                <path id="Path_3985" data-name="Path 3985" d="M130.312,163.556a15.423,15.423,0,0,0-4.422,1.027,10.9,10.9,0,0,0-1,.453c-.981.514-.688,1.623-.564,2.756l.577,15.319,12.36-.314.491-14.5a3.482,3.482,0,0,0-2.271-3.54,23.994,23.994,0,0,0-4.456-1.262Z" transform="translate(-124.187 -163.495)" fill="#fdffff"/>
                <line id="Line_15" data-name="Line 15" y1="4.486" x2="0.308" transform="translate(13.205 5.576)" fill="none" stroke="#7a98c5" stroke-miterlimit="10" stroke-width="0.984"/>
                <path id="Path_3986" data-name="Path 3986" d="M146.07,164.5a17.34,17.34,0,0,0-3.727-1.009,16.282,16.282,0,0,0-3.348.5s.757,1.614,4.239,1.879S146.07,164.5,146.07,164.5Z" transform="translate(-135.504 -163.495)" fill="#e3a299"/>
              </g>
              <g id="Group_2667" data-name="Group 2667" transform="translate(16.068 7.196)">
                <g id="Group_2666" data-name="Group 2666">
                  <path id="Path_3987" data-name="Path 3987" d="M168.467,195.256l-2.582,12a.883.883,0,0,1-.879.7l-9.6-.169a.883.883,0,0,1-.846-1.077l2.7-12a.883.883,0,0,1,.877-.689l9.488.167A.883.883,0,0,1,168.467,195.256Z" transform="translate(-154.533 -194.019)" fill="#131314"/>
                  <path id="Path_3988" data-name="Path 3988" d="M168.784,195.711l.567.586L155.9,209.353l-.607-.629Z" transform="translate(-155.112 -195.312)" fill="#131314"/>
                  <path id="Path_3989" data-name="Path 3989" d="M170.634,197.477l-2.582,12a.883.883,0,0,1-.879.7l-9.6-.169a.884.884,0,0,1-.846-1.077l2.7-12a.883.883,0,0,1,.877-.69l9.488.167A.883.883,0,0,1,170.634,197.477Z" transform="translate(-156.189 -195.717)" fill="#404366"/>
                  <path id="Path_3990" data-name="Path 3990" d="M186.764,217.116a1.026,1.026,0,1,1-1.128-.911A1.026,1.026,0,0,1,186.764,217.116Z" transform="translate(-177.602 -210.97)" fill="#9297b7"/>
                </g>
                <path id="Path_3991" data-name="Path 3991" d="M206.1,213.4l-.723,2.929a.788.788,0,0,1-.78.6h0a1.747,1.747,0,0,1-1.686-2.074l.186-.976a1.747,1.747,0,0,1,1.6-1.416l.583-.038A.789.789,0,0,1,206.1,213.4Z" transform="translate(-191.486 -208.086)" fill="#e3a299"/>
              </g>
              <g id="Group_2671" data-name="Group 2671" transform="translate(0 0.925)">
                <g id="Group_2668" data-name="Group 2668" transform="translate(0.557 7.824)">
                  <path id="Path_3992" data-name="Path 3992" d="M90.907,200.607l5.812,8.876-1.565,1.776-6.416-6.521Z" transform="translate(-88.738 -200.607)" fill="#e3a299"/>
                  <path id="Path_3993" data-name="Path 3993" d="M122.86,231.6l-2.486-1.311.244-.566a.513.513,0,0,0-.134-.591.47.47,0,0,0-.6-.01l-2.448,1.995-1.48,1.856c1.343,1.193,2.221,1.178,2.726.947.059.02.117.043.177.061l2.066.615a.387.387,0,0,0,.507-.191c.068-.14.092-.364-.306-.573l.4.209a.4.4,0,0,0,.531-.207.49.49,0,0,0-.254-.581l.3.124a.415.415,0,0,0,.563-.257.457.457,0,0,0-.227-.542l-.439-.231.522.131a.452.452,0,0,0,.587-.306A.5.5,0,0,0,122.86,231.6Z" transform="translate(-109.538 -222.319)" fill="#e3a299"/>
                  <line id="Line_16" data-name="Line 16" x1="1.47" y1="0.72" transform="translate(11.126 9.372)" fill="none" stroke="#171717" stroke-linecap="round" stroke-linejoin="round" stroke-width="0.414"/>
                  <line id="Line_17" data-name="Line 17" x1="1.417" y1="0.612" transform="translate(10.784 10.293)" fill="none" stroke="#171717" stroke-linecap="round" stroke-linejoin="round" stroke-width="0.414"/>
                  <line id="Line_18" data-name="Line 18" x1="1.201" y1="0.491" transform="translate(10.519 11.073)" fill="none" stroke="#171717" stroke-linecap="round" stroke-linejoin="round" stroke-width="0.414"/>
                </g>
                <g id="Group_2670" data-name="Group 2670">
                  <path id="Path_3994" data-name="Path 3994" d="M97.255,176.819l-7.391,6.613a1.984,1.984,0,0,1-2.591.264h0a2.163,2.163,0,0,1-.373-3.164l6.95-7.044a2.282,2.282,0,0,1,3.207-.269h0A2.489,2.489,0,0,1,97.255,176.819Z" transform="translate(-86.377 -171.442)" fill="#e3a299"/>
                  <g id="Group_2669" data-name="Group 2669" transform="translate(4.387)">
                    <path id="Path_3995" data-name="Path 3995" d="M111.64,167.418s-2.968.6-6.653,5.173l3.156,4.235,4.809-3.572Z" transform="translate(-104.987 -167.418)" fill="#fdffff"/>
                    <line id="Line_19" data-name="Line 19" y1="2.072" x2="2.789" transform="translate(4.788 6.124)" fill="none" stroke="#7a98c5" stroke-miterlimit="10" stroke-width="0.984"/>
                  </g>
                </g>
              </g>
            </g>
            <g id="Group_2675" data-name="Group 2675" transform="translate(12.358)">
              <path id="Path_3996" data-name="Path 3996" d="M171.3,130.221a1.2,1.2,0,1,0,.906-1.435A1.2,1.2,0,0,0,171.3,130.221Z" transform="translate(-163.611 -123.044)" fill="#1e0b02"/>
              <path id="Path_3997" data-name="Path 3997" d="M151.737,136.973l-.108,4.718-3.545-.308.873-7.668Z" transform="translate(-145.895 -126.834)" fill="#e3a299"/>
              <path id="Path_3998" data-name="Path 3998" d="M155.114,148.343l-2.529-3.365,2.575.857Z" transform="translate(-149.335 -135.441)" fill="#1e0b02"/>
              <path id="Path_3999" data-name="Path 3999" d="M154.249,113.15c1.212.162,1.8,1.446,1.923,2.6a11.54,11.54,0,0,1-.151,4.392,3.116,3.116,0,0,1-4.04,1.916s-2.4-.292-2.744-3.908C148.826,113.871,151.67,112.805,154.249,113.15Z" transform="translate(-146.745 -111.071)" fill="#e3a299"/>
              <g id="Group_2673" data-name="Group 2673" transform="translate(5.181 4.174)">
                <path id="Path_4000" data-name="Path 4000" d="M175.777,130.545a.275.275,0,1,0,.219-.32A.275.275,0,0,0,175.777,130.545Z" transform="translate(-172.236 -128.336)" fill="#1e0b02"/>
                <path id="Path_4001" data-name="Path 4001" d="M165.946,130.545a.275.275,0,1,0,.219-.32A.274.274,0,0,0,165.946,130.545Z" transform="translate(-164.722 -128.336)" fill="#1e0b02"/>
                <path id="Path_4002" data-name="Path 4002" d="M173.119,132.891l.251.912a.152.152,0,0,1-.119.186l-.29.056" transform="translate(-170.088 -130.378)" fill="none" stroke="#1e0b02" stroke-linecap="round" stroke-linejoin="round" stroke-width="0.604"/>
                <path id="Path_4003" data-name="Path 4003" d="M174.728,122.456s-.108.326.3.392a2.956,2.956,0,0,1,.676.153.219.219,0,0,0,.27-.081h0a.216.216,0,0,0,0-.236,1,1,0,0,0-.674-.438C174.819,122.16,174.728,122.456,174.728,122.456Z" transform="translate(-171.428 -122.23)" fill="#1f1e2d"/>
                <path id="Path_4004" data-name="Path 4004" d="M162.652,122.484s.124.328-.4.385a6.267,6.267,0,0,0-1.1.264.323.323,0,0,1-.343-.087h0a.177.177,0,0,1,.008-.236,2.157,2.157,0,0,1,1.106-.55C162.548,122.186,162.652,122.484,162.652,122.484Z" transform="translate(-160.772 -122.244)" fill="#1f1e2d"/>
                <path id="Path_4005" data-name="Path 4005" d="M167.465,139.951a1.752,1.752,0,0,0,1.447.26" transform="translate(-165.887 -135.773)" fill="none" stroke="#1e0b02" stroke-linecap="round" stroke-linejoin="round" stroke-width="0.604"/>
              </g>
              <path id="Path_4006" data-name="Path 4006" d="M142.284,115.327l.529-2.641a5.021,5.021,0,0,0-.209-1.863c2.32.006,5.048-.029,5.048-.24,0,0-.66-2.636-4.948-1.893-6.45,1.118-3.5,7.134-1.146,8.454Z" transform="translate(-138.797 -107.606)" fill="#1f1e2d"/>
              <g id="Group_2674" data-name="Group 2674" transform="translate(1.137 5.806)">
                <path id="Path_4007" data-name="Path 4007" d="M143.653,130.757a1.314,1.314,0,1,0,.992-1.571A1.314,1.314,0,0,0,143.653,130.757Z" transform="translate(-143.621 -129.153)" fill="#e3a299"/>
                <path id="Path_4008" data-name="Path 4008" d="M146.806,132.871a.963.963,0,0,1,1.16.869" transform="translate(-146.055 -131.983)" fill="none" stroke="#1e0b02" stroke-linecap="round" stroke-linejoin="round" stroke-width="0.545"/>
              </g>
              <path id="Path_4009" data-name="Path 4009" d="M154.946,107.738s6.262.768,6.174-1.225-3.81-2.831-5.443-.882Z" transform="translate(-151.139 -104.525)" fill="#1f1e2d"/>
            </g>
          </g>
        </g>
      </g>
      <line id="Line_20" data-name="Line 20" x2="157.578" transform="translate(0 79.284)" fill="none" stroke="#2f3052" stroke-miterlimit="10" stroke-width="1.476"/>
    </g>
  </g>
</svg>
