<svg xmlns="http://www.w3.org/2000/svg" width="99.861" height="80.464" viewBox="0 0 99.861 80.464">
  <g id="Group_5562" data-name="Group 5562" transform="translate(-1275.005 -1240.943)">
    <path id="Path_8813" data-name="Path 8813" d="M624.018,159.749a3.4,3.4,0,0,0-3.139,2.079,3.4,3.4,0,0,0-3.749.344c-1.8,1.481-.878,2.931-.878,2.931,1.274,3.108,7.427,4.681,7.427,4.681s3.812-5.079,2.86-8.3C626.538,161.483,626.353,159.773,624.018,159.749Z" transform="translate(679.26 1138.178)" fill="#ffca55"/>
    <path id="Path_8814" data-name="Path 8814" d="M639.158,159.749a9.819,9.819,0,0,0-9.076,6.012,9.822,9.822,0,0,0-10.84.995c-5.219,4.284-2.539,8.477-2.539,8.477,3.684,8.987,21.474,13.535,21.474,13.535s11.024-14.687,8.269-24C646.446,164.765,645.909,159.818,639.158,159.749Z" transform="translate(844.2 791.863) rotate(31)" fill="#ffca55"/>
    <g id="Group_4873" data-name="Group 4873" transform="translate(1039.422 1024.09)">
      <g id="Group_4868" data-name="Group 4868" transform="translate(330.09 290.94)">
        <path id="Path_7885" data-name="Path 7885" d="M423.927,434.2s.487,1.506.854,2.324.883,1.316.724,1.729-1.425.1-2.6,1.31a2.986,2.986,0,0,1-1.992.732c-.542-.193.513-1.075,1.144-1.351s1.171-2.181.721-4.188Z" transform="translate(-420.508 -434.203)" fill="#ffb49b"/>
        <path id="Path_7886" data-name="Path 7886" d="M423.266,442.131a3.446,3.446,0,0,1-1.118.306,1.884,1.884,0,0,1-.745,1.233c-.677.3-1.812,1.246-1.23,1.452a3.21,3.21,0,0,0,2.141-.787c1.262-1.3,2.624-.964,2.794-1.408.157-.408-.3-.9-.68-1.657A3.317,3.317,0,0,1,423.266,442.131Z" transform="translate(-420.012 -438.861)" fill="#695a6e"/>
        <path id="Rectangle_1905" data-name="Rectangle 1905" d="M0,0H1.912a0,0,0,0,1,0,0V.192A.51.51,0,0,1,1.4.7H.51A.51.51,0,0,1,0,.192V0A0,0,0,0,1,0,0Z" transform="translate(3.325 4.382) rotate(-24.632)" fill="#695a6e"/>
        <path id="Path_7887" data-name="Path 7887" d="M423.317,448.264s.5-.248.764.037" transform="translate(-422.19 -443.405)" fill="none" stroke="#828291" stroke-linecap="round" stroke-miterlimit="10" stroke-width="0.457"/>
        <path id="Path_7888" data-name="Path 7888" d="M424.913,446.965s.5-.249.764.037" transform="translate(-423.242 -442.549)" fill="none" stroke="#828291" stroke-linecap="round" stroke-miterlimit="10" stroke-width="0.457"/>
        <path id="Path_7889" data-name="Path 7889" d="M425.772,445.312s.5-.248.764.037" transform="translate(-423.809 -441.459)" fill="none" stroke="#828291" stroke-linecap="round" stroke-miterlimit="10" stroke-width="0.457"/>
      </g>
      <g id="Group_4869" data-name="Group 4869" transform="translate(295.444 292.671)">
        <path id="Path_7890" data-name="Path 7890" d="M324.6,439.283s-.185,1.572-.192,2.468.254,1.564-.062,1.873-1.338-.5-2.909.108a2.988,2.988,0,0,1-2.116-.165c-.412-.4.915-.764,1.6-.752s1.974-1.5,2.4-3.507Z" transform="translate(-318.949 -439.283)" fill="#ffb49b"/>
        <path id="Path_7891" data-name="Path 7891" d="M322.514,447.225a3.434,3.434,0,0,1-1.144-.187,1.883,1.883,0,0,1-1.191.81c-.739-.013-2.167.377-1.723.808a3.212,3.212,0,0,0,2.275.177c1.688-.654,2.787.217,3.127-.116.313-.306.1-.94.073-1.789A3.315,3.315,0,0,1,322.514,447.225Z" transform="translate(-318.372 -444.322)" fill="#695a6e"/>
        <path id="Rectangle_1906" data-name="Rectangle 1906" d="M0,0H1.912a0,0,0,0,1,0,0V.192A.51.51,0,0,1,1.4.7H.51A.51.51,0,0,1,0,.192V0A0,0,0,0,1,0,0Z" transform="translate(3.743 3.944)" fill="#695a6e"/>
        <path id="Path_7892" data-name="Path 7892" d="M322.907,449.439s.556-.019.679.352" transform="translate(-321.361 -445.977)" fill="none" stroke="#828291" stroke-linecap="round" stroke-miterlimit="10" stroke-width="0.457"/>
        <path id="Path_7893" data-name="Path 7893" d="M324.9,448.922s.556-.018.679.352" transform="translate(-322.674 -445.636)" fill="none" stroke="#828291" stroke-linecap="round" stroke-miterlimit="10" stroke-width="0.457"/>
        <path id="Path_7894" data-name="Path 7894" d="M326.369,447.778s.556-.019.679.352" transform="translate(-323.643 -444.882)" fill="none" stroke="#828291" stroke-linecap="round" stroke-miterlimit="10" stroke-width="0.457"/>
      </g>
      <path id="Path_7895" data-name="Path 7895" d="M366.008,226.147a7.9,7.9,0,1,0-12.609,8.878,8.5,8.5,0,0,1,2.865,5.481,9.942,9.942,0,1,0,14.1-9.882A8.6,8.6,0,0,1,366.008,226.147Z" transform="translate(-44.313 -2.924)" fill="#1e2d64"/>
      <path id="Path_7896" data-name="Path 7896" d="M321.879,251.475s6.858-2.607,9.243-2.051c3.507.817,4.155,4.308-.01,5.579s-14.474,2.347-14.961,1.238C315.188,254.047,321.879,251.475,321.879,251.475Z" transform="translate(-21.402 -21.417)" fill="#c76d7d"/>
      <path id="Path_7897" data-name="Path 7897" d="M299.748,268.169c-2.009.431-6.9,4.352-6.9,4.352s-.116.094-.308.257h0l-4.557,3.659.945,1.448,1.375-.558a21.064,21.064,0,0,0,2.207-.9h0a61.124,61.124,0,0,0,8.405-4.7C303.956,269.551,302.7,267.536,299.748,268.169Z" transform="translate(-2.899 -33.747)" fill="#c76d7d"/>
      <path id="Path_7898" data-name="Path 7898" d="M363.252,221.095a3.728,3.728,0,1,1-7.432,0c0-5.645,1.664-4.027,3.716-4.027A3.881,3.881,0,0,1,363.252,221.095Z" transform="translate(-47.611 0)" fill="#281923"/>
      <path id="Path_7899" data-name="Path 7899" d="M363.252,221.095a3.728,3.728,0,1,1-7.432,0c0-5.645,1.664-4.027,3.716-4.027A3.881,3.881,0,0,1,363.252,221.095Z" transform="translate(-47.611 0)" fill="#1e2d64"/>
      <path id="Path_7900" data-name="Path 7900" d="M335.2,326.481s1.705,5.264,5.878.358c.58-.764,7.267-7.131,7.965-7.788,1.765-1.664,9.042-6.773,5.238-11.715-.857-1.114-5.831-5.968-8.036-3.577-3.5,3.792-6.664,8.089-10.863,20.333C334.989,325.246,335.636,325.343,335.2,326.481Z" transform="translate(-34.022 -56.852)" fill="#aec5c9"/>
      <path id="Path_7901" data-name="Path 7901" d="M361.363,307.675c-.6-.777-3.2-3.368-5.467-4.055,0,0,0,.007,0,.011.031.587.041,1.177.034,1.769a12.626,12.626,0,0,1-.389,5.113,11.112,11.112,0,0,1-.774,1.847,14.146,14.146,0,0,1-3.265,5.2c-1.612,1.619-2.49,3.17-4.025,6.111-.6,1.158-3.491,8.418.682,3.512.58-.764,7.267-7.131,7.965-7.788C357.891,317.726,365.168,312.616,361.363,307.675Z" transform="translate(-41.102 -57.191)" opacity="0.24" style="mix-blend-mode: overlay;isolation: isolate"/>
      <path id="Path_7902" data-name="Path 7902" d="M375.788,330.012s5.023.446,3.772-5.872c-.238-.929-1.616-10.24-1.153-11.08,2.252-4.091.312-11.294-5.924-11.383-1.405-.02-8.572-1.756-7.183,6.34.872,5.084,1.584,7.982,8.569,18.88C374.527,327.924,375.165,328.966,375.788,330.012Z" transform="translate(-53.743 -55.799)" fill="#ed1556"/>
      <path id="Path_7903" data-name="Path 7903" d="M395.594,368.62c-.875.33-2.195,1.906-1.215,4.609,4.126,6.817,7.5,13.922,10.275,18.424a.327.327,0,0,0,.3.154,3.031,3.031,0,0,0,1.722-.532.323.323,0,0,0,.132-.343c-1.15-8.112-3.047-15.879-6.1-20.4C398.616,368.131,397.586,367.869,395.594,368.62Z" transform="translate(-72.799 -99.789)" fill="#ed1556"/>
      <path id="Path_7904" data-name="Path 7904" d="M354.311,270.45s-3.115-9.689-2.523-13.605c.365-2.414.306-8.781,4.947-9,3.095-.148,7.766-.011,7.925,5.95a18.163,18.163,0,0,1-.95,5.163,7.383,7.383,0,0,0,.554,5.665l.969,1.8C364.653,267.892,357.665,272.071,354.311,270.45Z" transform="translate(-44.904 -20.405)" fill="#c76d7d"/>
      <path id="Path_7905" data-name="Path 7905" d="M365.18,241.729h0a1.626,1.626,0,0,0,1.546-1.7l-.651-5.357-1.673.156-.864,5.017a1.6,1.6,0,0,0,.236,1.2A1.625,1.625,0,0,0,365.18,241.729Z" transform="translate(-52.68 -11.744)" fill="#ffa587"/>
      <path id="Path_7906" data-name="Path 7906" d="M366.647,236.618l-.23-1.892-.42.02-1.255.117-.715,4.152c.02,0,.04,0,.06,0h0A3.192,3.192,0,0,0,366.647,236.618Z" transform="translate(-53.021 -11.781)" fill="#f5876e"/>
      <path id="Path_7907" data-name="Path 7907" d="M358.97,230.6h0c1.421-.069,3.594-1.927,3.526-3.348a7.315,7.315,0,0,0-.3-2.838c-.752-1.133-3.8-1.538-4.722-.853-.806.6-.475,3.987-.475,3.987C357.068,228.969,358.348,230.63,358.97,230.6Z" transform="translate(-48.344 -4.201)" fill="#ffb49b"/>
      <path id="Path_7908" data-name="Path 7908" d="M364.524,225.312a2.235,2.235,0,0,0-.964-.724c.024.187.053.374.081.561.006.037.015.074.021.112s.01.1.016.144c.049.33.1.665.131,1.012a5.494,5.494,0,0,1-.47,2.942A2.953,2.953,0,0,1,360.964,231a2.525,2.525,0,0,1-.5-.029,1.325,1.325,0,0,0,.834.531c1.421-.069,3.594-1.927,3.526-3.348A7.315,7.315,0,0,0,364.524,225.312Z" transform="translate(-50.672 -5.099)" fill="#ffa587"/>
      <path id="Path_7909" data-name="Path 7909" d="M373.1,230.94a.978.978,0,0,1-1.035.882l-.08-1.661A.978.978,0,0,1,373.1,230.94Z" transform="translate(-58.265 -8.771)" fill="#ffa587"/>
      <path id="Path_7910" data-name="Path 7910" d="M348.238,260.442s-3.57,4.292-2.884,6.165,5.842,1.623,5.842,1.623Z" transform="translate(-40.655 -28.731)" fill="#c76d7d"/>
      <path id="Path_7911" data-name="Path 7911" d="M365.017,248c0,1.392-3.167,4.159-4.772,4.159a2.733,2.733,0,0,1-2.906-2.52c0-1.392,2.234-2.313,3.839-2.313C364.127,247.322,365.017,248,365.017,248Z" transform="translate(-48.613 -20.083)" fill="#ffa587"/>
      <path id="Path_7912" data-name="Path 7912" d="M367.1,251.761s.358-.8.694-.7a17.089,17.089,0,0,0,1.834.156,6.626,6.626,0,0,0-1.776.346C367.6,251.774,367.008,251.944,367.1,251.761Z" transform="translate(-55.041 -22.54)" fill="#f5876e"/>
      <path id="Path_7913" data-name="Path 7913" d="M360.442,251.761s-.357-.8-.694-.7a14.737,14.737,0,0,1-1.537.186,4.759,4.759,0,0,1,1.479.317C359.943,251.774,360.536,251.944,360.442,251.761Z" transform="translate(-49.188 -22.54)" fill="#f5876e"/>
      <path id="Path_7914" data-name="Path 7914" d="M389.911,317.237a41.759,41.759,0,0,1,3.375,12.888,20.857,20.857,0,0,0,3.346,9.379l.1.147c2.318,3.424,4.654,11.73,5.479,15.8" transform="translate(-70.082 -66.167)" fill="none" stroke="#000" stroke-miterlimit="10" stroke-width="1.37" opacity="0.4" style="mix-blend-mode: overlay;isolation: isolate"/>
      <path id="Path_7915" data-name="Path 7915" d="M372.978,231.166s.285.269.223.488-.256.427-.346.344-.058-.1.123-.344A.419.419,0,0,0,372.978,231.166Z" transform="translate(-58.807 -9.434)" fill="#f5876e"/>
      <path id="Path_7916" data-name="Path 7916" d="M351.995,281.73a9.4,9.4,0,0,1,3.412-.314,26.134,26.134,0,0,1,3,.959s-.2.77-2.779-.02-3.567-.119-3.567-.119Z" transform="translate(-45.09 -42.507)" fill="#b85e6e"/>
      <path id="Path_7917" data-name="Path 7917" d="M333.728,369.194c-.915-.19-3.373.067-3.5,3.24-.171,7.967-1.131,15.774-1.2,21.061a.327.327,0,0,0,.167.289,3.032,3.032,0,0,0,1.739.473.323.323,0,0,0,.3-.219c3.377-7.464,5.941-15.037,5.785-20.5C336.541,370.4,335.812,369.628,333.728,369.194Z" transform="translate(-29.951 -100.382)" fill="#ed1556"/>
      <path id="Path_7918" data-name="Path 7918" d="M361.913,221.687a28.036,28.036,0,0,0-4.98-.208,5.749,5.749,0,0,0,2.418,2.163,6.975,6.975,0,0,0,1.577.51,1.469,1.469,0,0,1,1.135,1.1h0l.021-.141a.815.815,0,0,1,.849-.69h0S362.981,222.02,361.913,221.687Z" transform="translate(-48.345 -3.034)" fill="#1e2d64"/>
      <path id="Path_7919" data-name="Path 7919" d="M380.212,315.267s1.116,5.824,4.507,4.517" transform="translate(-63.689 -64.868)" fill="none" stroke="#000" stroke-miterlimit="10" stroke-width="1.37" opacity="0.4" style="mix-blend-mode: overlay;isolation: isolate"/>
      <g id="Group_4870" data-name="Group 4870" transform="translate(284.309 228.011)">
        <path id="Path_7920" data-name="Path 7920" d="M320.453,384.907l-3.582,1.864,4.139,11.316,3.76-1.375Z" transform="translate(-306.248 -338.782)" fill="#0073aa"/>
        <path id="Path_7921" data-name="Path 7921" d="M396.679,356.137l-4.6-.928,4.981,13.619,3.76-1.375Z" transform="translate(-355.818 -319.206)" fill="#0073aa"/>
        <path id="Path_7922" data-name="Path 7922" d="M316.871,386.771l.407,1.113,3.76-1.375-.586-1.6Z" transform="translate(-306.248 -338.782)" fill="#1e2d64"/>
        <path id="Path_7923" data-name="Path 7923" d="M392.076,355.208l1.25,3.416,3.76-1.375-.407-1.113Z" transform="translate(-355.818 -319.206)" fill="#1e2d64"/>
        <path id="Path_7924" data-name="Path 7924" d="M327.337,287.871l-29.015,10.612-9.25-25.292a15.448,15.448,0,0,1,9.2-19.814h0a15.448,15.448,0,0,1,19.814,9.2Z" transform="translate(-287.302 -251.464)" fill="#0091c8"/>
        <path id="Path_7925" data-name="Path 7925" d="M291.464,279.735a6.579,6.579,0,0,0,4.937,1.225c1.735-.136,3.543-.737,4.267-2.443.833-1.964-.065-4.166-.467-6.114-1.07-5.193-1.294-11.3,2.286-15.6a11.931,11.931,0,0,1,5.678-3.66,15.376,15.376,0,0,0-9.893.241h0a15.448,15.448,0,0,0-9.2,19.814Z" transform="translate(-287.302 -251.467)" opacity="0.07"/>
        <path id="Path_7926" data-name="Path 7926" d="M329.565,272.543a15.393,15.393,0,0,0-3-4.994c-3.513.409-7.5,1.039-9,4.343-1.788,3.922-.057,8.583.55,12.553.642,4.194-.645,8.494-4.459,10.755a13.71,13.71,0,0,1-8.116,1.6l4.258,11.643,29.015-10.612Z" transform="translate(-298.78 -261.427)" opacity="0.12"/>
        <path id="Path_7927" data-name="Path 7927" d="M324.1,251.62a16.014,16.014,0,0,1,5.234,7.175l9.64,26.357-26.477,9.684,1.493,4.081,30.238-11.059-9.64-26.357A16.066,16.066,0,0,0,324.1,251.62Z" transform="translate(-303.361 -250.928)" opacity="0.08"/>
        <g id="Path_7928" data-name="Path 7928" transform="translate(-285.705 -249.589)" fill="none" stroke-miterlimit="10">
          <path d="M326.566,286.519l-30.238,11.059-9.64-26.357a16.1,16.1,0,0,1,9.59-20.648h0a16.1,16.1,0,0,1,20.648,9.589Z" stroke="none"/>
          <path d="M 298.7109680175781 292.4473266601563 L 321.4354858398438 284.1361694335938 L 313.1697387695313 261.5357360839844 C 312.3009033203125 259.1601257324219 310.74462890625 257.1509704589844 308.6691589355469 255.7254943847656 C 306.6339416503906 254.32763671875 304.2607421875 253.5887756347656 301.8061828613281 253.5887756347656 C 300.3930969238281 253.5887756347656 298.9954528808594 253.837890625 297.6520080566406 254.3292236328125 C 294.6169738769531 255.439208984375 292.1958923339844 257.6646118164063 290.8347473144531 260.5955505371094 C 289.4735717773438 263.5264282226563 289.3352661132813 266.8119506835938 290.4452209472656 269.8468933105469 L 298.7109680175781 292.4473266601563 M 296.3282470703125 297.577880859375 L 286.6885986328125 271.2208251953125 C 283.634765625 262.8710021972656 287.927978515625 253.6264038085938 296.2781372070313 250.5725708007813 C 298.1026306152344 249.9053039550781 299.9701538085938 249.5887756347656 301.80615234375 249.5887756347656 C 308.3727111816406 249.5887756347656 314.5398254394531 253.636474609375 316.9263916015625 260.1618041992188 L 326.5660400390625 286.5188598632813 L 296.3282470703125 297.577880859375 Z" stroke="none" fill="#fff"/>
        </g>
        <text id="OPEN" transform="matrix(0.939, -0.343, 0.343, 0.939, 10.879, 30.706)" fill="#fff" font-size="6" font-family="GloriaHallelujah, Gloria Hallelujah" letter-spacing="0.075em"><tspan x="0" y="0">OPEN</tspan></text>
        <text id="WE_ARE" data-name="WE ARE" transform="matrix(0.939, -0.343, 0.343, 0.939, 6.159, 22.884)" fill="#fff" font-size="4" font-family="GloriaHallelujah, Gloria Hallelujah" letter-spacing="0.075em"><tspan x="0" y="0">WE ARE</tspan></text>
      </g>
      <path id="Path_7929" data-name="Path 7929" d="M341.506,289.469c-.653-.061-.62,1.7-1.857,2.547a46.068,46.068,0,0,1-6.923,3.55s-.139.055-.371.153h0l-5.445,2.124.079.282-.191.04a1.85,1.85,0,0,1-1.31-.211c-.455-.266-1.032-.566-1.181-.482-.209.117.567.683.516.829-.073.21-1.95.178-1.914.5.026.236,1.628.128,1.628.128s-1.873.262-1.838.493c.057.367,1.578.067,1.925-.006-.322.071-1.6.367-1.517.584.1.248,1.633-.164,1.633-.164s-1.171.318-1.1.533,1.878-.337,1.878-.337l1.822-.64.032.114,1.479-.119a21.119,21.119,0,0,0,2.375-.192h0a61.157,61.157,0,0,0,9.428-1.961C344.211,296.063,344.515,289.752,341.506,289.469Z" transform="translate(-25.78 -47.863)" opacity="0.36" style="mix-blend-mode: overlay;isolation: isolate"/>
      <path id="Path_7930" data-name="Path 7930" d="M370.273,267.2s-.192-7.334,1.122-9.4c1.932-3.04,5.441-2.5,5.261,1.855s-1.985,13.708-3.193,13.8C371.075,273.638,370.273,267.2,370.273,267.2Z" transform="translate(-57.131 -25.726)" fill="#c76d7d"/>
      <path id="Path_7931" data-name="Path 7931" d="M326.678,311.618l-.792.166a1.848,1.848,0,0,1-1.31-.211c-.455-.266-1.032-.566-1.182-.482-.209.117.567.683.516.829-.072.21-1.95.178-1.914.5.027.236,1.628.129,1.628.129s-1.873.262-1.837.493c.064.414,2-.022,2-.022s-1.686.351-1.589.6,1.633-.164,1.633-.164-1.171.318-1.1.533,1.878-.337,1.878-.337l2.355-.827Z" transform="translate(-25.179 -62.106)" fill="#ffb49b"/>
      <path id="Path_7932" data-name="Path 7932" d="M347.723,296.889c-2.046-.192-7.768,2.941-7.768,2.941s-.139.055-.371.153h0l-5.445,2.124.467,1.664,1.479-.119a21.105,21.105,0,0,0,2.374-.192h0a61.156,61.156,0,0,0,9.428-1.961C351.44,300.327,350.732,297.171,347.723,296.889Z" transform="translate(-33.321 -52.749)" fill="#c76d7d"/>
      <g id="Group_4871" data-name="Group 4871" transform="translate(283.669 243.133)" opacity="0.36" style="mix-blend-mode: overlay;isolation: isolate">
        <path id="Path_7933" data-name="Path 7933" d="M285.879,300.25c0,.191-.4.346-.9.346s-.9,0-.9-.346.405-.346.9-.346S285.879,300.059,285.879,300.25Z" transform="translate(-283.987 -297.875)"/>
        <ellipse id="Ellipse_185" data-name="Ellipse 185" cx="1.074" cy="0.346" rx="1.074" ry="0.346" transform="translate(0 1.352)"/>
        <ellipse id="Ellipse_186" data-name="Ellipse 186" cx="1.136" cy="0.346" rx="1.136" ry="0.346" transform="translate(0 0.676)"/>
        <ellipse id="Ellipse_187" data-name="Ellipse 187" cx="1.074" cy="0.346" rx="1.074" ry="0.346" transform="translate(0)"/>
      </g>
      <g id="Group_4872" data-name="Group 4872" transform="translate(283.587 243.01)">
        <ellipse id="Ellipse_188" data-name="Ellipse 188" cx="0.905" cy="0.346" rx="0.905" ry="0.346" transform="translate(0.082 2.029)" fill="#ffb49b"/>
        <path id="Path_7934" data-name="Path 7934" d="M285.735,297.9c0,.191-.481.346-1.074.346s-1.074.049-1.074-.346c0-.346.481-.346,1.074-.346S285.735,297.711,285.735,297.9Z" transform="translate(-283.587 -296.204)" fill="#ffb49b"/>
        <path id="Path_7935" data-name="Path 7935" d="M285.859,295.919c0,.191-.509.346-1.136.346s-1.136.049-1.136-.346c0-.346.508-.346,1.136-.346S285.859,295.728,285.859,295.919Z" transform="translate(-283.587 -294.897)" fill="#ffb49b"/>
        <path id="Path_7936" data-name="Path 7936" d="M285.735,293.936c0,.191-.481.346-1.074.346s-1.074.049-1.074-.346c0-.346.481-.346,1.074-.346S285.735,293.745,285.735,293.936Z" transform="translate(-283.587 -293.59)" fill="#ffb49b"/>
      </g>
    </g>
  </g>
</svg>
