<svg xmlns="http://www.w3.org/2000/svg" xmlns:xlink="http://www.w3.org/1999/xlink" width="166.522" height="80.725" viewBox="0 0 166.522 80.725">
  <defs>
    <clipPath id="clip-path">
      <path id="Path_7966" data-name="Path 7966" d="M427.01,413.239a15.212,15.212,0,0,1-.78,1.883,3.116,3.116,0,0,0-.8.379.4.4,0,0,0-.167.5,12.542,12.542,0,0,0,1.711,3.086c.557.356,2.047.581,2.033.286s-1.107-.939-1.107-.939l-.78-2.835,1.144-1.918-1.189-.465" transform="translate(-425.232 -413.218)" fill="#feceac"/>
    </clipPath>
    <clipPath id="clip-path-2">
      <path id="Path_7970" data-name="Path 7970" d="M499.034,398.6c.006.1,1.511,1.828,1.511,1.828a4.039,4.039,0,0,1,.989.6,16.742,16.742,0,0,1-3.08,3.442c-.064-.248,1.179-3.236,1.126-3.283s-1.541-1.475-1.541-1.475Z" transform="translate(-498.039 -398.602)" fill="#feceac"/>
    </clipPath>
    <clipPath id="clip-path-3">
      <path id="Path_7977" data-name="Path 7977" d="M443.864,292.144l-7.412-9.514c1.232-3.5,2.394-6.716,3.024-8.263,1.766-4.331-.57-7.008-.57-7.008s-4.186.29-5.349.155c-1.434-.167-1.2,14.318-1.2,14.318l-3.248,13.618,2.678.684s1.577-4.64,3.346-9.727c1.894,2.217,6.853,7.619,6.853,7.619Z" transform="translate(-429.107 -267.358)" fill="#2d6c8c"/>
    </clipPath>
    <clipPath id="clip-path-4">
      <path id="Path_7980" data-name="Path 7980" d="M434.4,147.289c.85,1.774.6,3.663-.563,4.219s-2.792-.43-3.642-2.2-.6-3.663.563-4.219S433.55,145.515,434.4,147.289Z" transform="translate(-429.692 -144.93)" fill="#feceac"/>
    </clipPath>
    <clipPath id="clip-path-5">
      <path id="Path_8003" data-name="Path 8003" d="M349.005,412.661c.031.112,2.152,1.706,2.152,1.706a4.681,4.681,0,0,1,1.265.44c.173.194-2.524,4.907-2.656,4.642s.554-3.949.482-3.99-2.1-1.3-2.1-1.3Z" transform="translate(-348.147 -412.661)" fill="#a56f6f"/>
    </clipPath>
    <clipPath id="clip-path-6">
      <path id="Path_8007" data-name="Path 8007" d="M272.575,430.74c-.009.116,1.46,2.326,1.46,2.326s.947.6,1.046.837-4.017,3.785-4.053,3.49,1.839-3.539,1.786-3.6-1.548-1.924-1.548-1.924Z" transform="translate(-271.028 -430.74)" fill="#a56f6f"/>
    </clipPath>
  </defs>
  <g id="Group_5565" data-name="Group 5565" transform="translate(-291.621 -1966.197)">
    <g id="Group_5539" data-name="Group 5539" transform="translate(291.621 1980.492)">
      <path id="Path_2801" data-name="Path 2801" d="M599.7,1746.146h-1.169a6.3,6.3,0,0,1-6.3-6.305h0a6.305,6.305,0,0,1,6.3-6.305H599.7a6.305,6.305,0,0,1,6.305,6.305h0A6.3,6.3,0,0,1,599.7,1746.146Z" transform="translate(-469.068 -1708.104)" fill="#edf4ff"/>
      <g id="Group_1160" data-name="Group 1160" transform="translate(0 0)">
        <path id="Path_2802" data-name="Path 2802" d="M394.085,1655.292H273.891a6.3,6.3,0,0,0-6.305,6.305h0a6.305,6.305,0,0,0,6.305,6.305H394.085a6.305,6.305,0,0,0,6.305-6.305h0A6.3,6.3,0,0,0,394.085,1655.292Z" transform="translate(-249.948 -1655.292)" fill="#edf4ff"/>
        <path id="Path_2803" data-name="Path 2803" d="M331.843,1713.006h0a6.306,6.306,0,0,0-6.305-6.306H314.062a6.305,6.305,0,0,1,1.181-12.5h.043v-.111H247.515v.125c.135-.01.271-.013.409-.013h1.17a6.306,6.306,0,0,1,1.181,12.5H219.625a6.306,6.306,0,0,0-6.305,6.306h0a6.305,6.305,0,0,0,6.305,6.306H325.538A6.305,6.305,0,0,0,331.843,1713.006Z" transform="translate(-213.32 -1681.48)" fill="#edf4ff"/>
        <path id="Path_2804" data-name="Path 2804" d="M363.541,1784.3H349.677v-.131c-.089,0-.18.006-.271.006h-1.169a6.306,6.306,0,0,1-1.252-12.486H271.261a6.306,6.306,0,0,1-1.252,12.486H270v.125h-8.241a6.305,6.305,0,0,0-6.305,6.305h0a6.305,6.305,0,0,0,6.305,6.305H363.541a6.305,6.305,0,0,0,6.305-6.305h0A6.305,6.305,0,0,0,363.541,1784.3Z" transform="translate(-241.756 -1733.853)" fill="#edf4ff"/>
      </g>
      <path id="Path_2805" data-name="Path 2805" d="M628.691,1823.093h-6.56a6.306,6.306,0,0,1-6.305-6.306h0a6.3,6.3,0,0,1,6.305-6.305h6.56a6.305,6.305,0,0,1,6.306,6.305h0A6.306,6.306,0,0,1,628.691,1823.093Z" transform="translate(-484.997 -1760.04)" fill="#edf4ff"/>
      <path id="Path_2806" data-name="Path 2806" d="M693.15,1823.093h0a6.306,6.306,0,0,1-6.305-6.306h0a6.3,6.3,0,0,1,6.305-6.305h0a6.3,6.3,0,0,1,6.3,6.305h0A6.305,6.305,0,0,1,693.15,1823.093Z" transform="translate(-532.932 -1760.04)" fill="#edf4ff"/>
    </g>
    <path id="Path_8816" data-name="Path 8816" d="M409.255,334.36l-1.913-1,1-1.912a.511.511,0,0,0-.905-.474l-1,1.913-1.913-1a.511.511,0,1,0-.474.905l1.913,1-1,1.913a.511.511,0,0,0,.905.473l1-1.913,1.913,1a.511.511,0,1,0,.473-.905Z" transform="translate(-30.174 1635.498)" fill="#0e34c4"/>
    <g id="Group_5558" data-name="Group 5558" transform="translate(15401 19260.197)">
      <g id="Group_4927" data-name="Group 4927" transform="translate(-15063.573 -17294)">
        <g id="Group_4877" data-name="Group 4877" transform="translate(79.95 0)">
          <g id="Group_4876" data-name="Group 4876" transform="translate(0 14.661)" opacity="0.55">
            <path id="Path_7937" data-name="Path 7937" d="M459.418,151.264l-.121-.136c.034-.031,3.383-3.158-1.7-10.668a16.626,16.626,0,0,1-2.964-10.9,13.634,13.634,0,0,1,2.545-7.078,5.5,5.5,0,0,0,1.079-5.143l.17-.065a5.694,5.694,0,0,1-1.107,5.322c-1.637,2.024-5.074,9.63.428,17.757,1.49,2.2,3.187,5.435,2.807,8.335A4.245,4.245,0,0,1,459.418,151.264Z" transform="translate(-454.572 -117.279)" fill="#0e34c4"/>
          </g>
          <path id="Path_7938" data-name="Path 7938" d="M460.013,54.6s-1.189.857-.447.961,1.722.732,1.665.19l-.133-1.265s4.594-3.226,4.745-8.725-5.453-8.379-8.353-2.956S460.013,54.6,460.013,54.6Z" transform="translate(-456.245 -39.905)" fill="#0e34c4"/>
        </g>
        <g id="Group_4879" data-name="Group 4879" transform="translate(50.515 13.201)">
          <g id="Group_4878" data-name="Group 4878" transform="translate(3.565 14.661)" opacity="0.55">
            <path id="Path_7939" data-name="Path 7939" d="M319.228,220.934l.121-.136c-.034-.031-3.383-3.158,1.7-10.669a16.626,16.626,0,0,0,2.964-10.9,13.634,13.634,0,0,0-2.545-7.078,5.5,5.5,0,0,1-1.078-5.143l-.17-.065a5.693,5.693,0,0,0,1.107,5.322c1.637,2.024,5.073,9.63-.428,17.757-1.49,2.2-3.187,5.435-2.807,8.335A4.247,4.247,0,0,0,319.228,220.934Z" transform="translate(-318.039 -186.948)" fill="#3a3a3a"/>
          </g>
          <path id="Path_7940" data-name="Path 7940" d="M305.058,124.267s1.189.856.447.961-1.722.732-1.665.19l.134-1.265s-4.594-3.226-4.745-8.725,5.453-8.379,8.353-2.956S305.058,124.267,305.058,124.267Z" transform="translate(-299.226 -109.574)" fill="#fc5673"/>
        </g>
        <g id="Group_4881" data-name="Group 4881" transform="translate(13.98 10.647)">
          <g id="Group_4880" data-name="Group 4880" transform="translate(0 14.725)" opacity="0.55">
            <path id="Path_7941" data-name="Path 7941" d="M107.091,207.123l.142-.113c-.029-.036-2.794-3.689,3.5-10.221a16.626,16.626,0,0,0,4.782-10.229,13.631,13.631,0,0,0-1.3-7.408,5.5,5.5,0,0,1-.184-5.252l-.156-.093a5.7,5.7,0,0,0,.181,5.433c1.268,2.274,3.354,10.356-3.456,17.423-1.845,1.914-4.069,4.81-4.19,7.733A4.246,4.246,0,0,0,107.091,207.123Z" transform="translate(-106.407 -173.807)" fill="#3a3a3a"/>
          </g>
          <path id="Path_7942" data-name="Path 7942" d="M127.686,110.866s1.025,1.047.276,1.023-1.822.427-1.673-.1l.348-1.224s-3.975-3.964-3.184-9.407,6.8-7.324,8.736-1.486S127.686,110.866,127.686,110.866Z" transform="translate(-120.138 -96.094)" fill="#2d6c8c"/>
        </g>
        <g id="Group_4882" data-name="Group 4882" transform="translate(38.902 13.737)">
          <path id="Path_7943" data-name="Path 7943" d="M238.138,112.961l2.443.643a.284.284,0,0,0,.151-.548l-2.444-.643a.284.284,0,0,0-.151.548Z" transform="translate(-237.936 -112.402)" fill="#2d6c8c"/>
        </g>
        <g id="Group_4883" data-name="Group 4883" transform="translate(66.759 16.244)">
          <path id="Path_7944" data-name="Path 7944" d="M385.3,127.7a4.949,4.949,0,0,0,2.243-1.659c.223-.29-.271-.573-.491-.287a4.262,4.262,0,0,1-1.9,1.4c-.34.126-.193.675.151.548Z" transform="translate(-384.954 -125.633)" fill="#2d6c8c"/>
        </g>
        <g id="Group_4884" data-name="Group 4884" transform="translate(68.049 52.059)">
          <path id="Path_7945" data-name="Path 7945" d="M391.855,315.132a3.3,3.3,0,0,0,1.916.824c.364.034.362-.535,0-.568a2.648,2.648,0,0,1-1.514-.658c-.274-.241-.677.16-.4.4Z" transform="translate(-391.763 -314.656)" fill="#2d6c8c"/>
        </g>
        <g id="Group_4885" data-name="Group 4885" transform="translate(34.529 55.451)">
          <path id="Path_7946" data-name="Path 7946" d="M215,333.077l1.3.632c.327.16.616-.33.287-.491l-1.3-.632c-.328-.16-.616.33-.287.491Z" transform="translate(-214.855 -332.555)" fill="#2d6c8c"/>
        </g>
        <g id="Group_4886" data-name="Group 4886" transform="translate(63.52 31.763)">
          <path id="Path_7947" data-name="Path 7947" d="M368,208.072l.758.568a.286.286,0,0,0,.389-.1.291.291,0,0,0-.1-.389l-.758-.568a.286.286,0,0,0-.389.1.291.291,0,0,0,.1.389Z" transform="translate(-367.86 -207.539)" fill="#2d6c8c"/>
        </g>
        <g id="Group_4887" data-name="Group 4887" transform="translate(6.86 52.579)">
          <path id="Path_7948" data-name="Path 7948" d="M69.323,318.863l1.1-.987c.273-.245-.13-.646-.4-.4l-1.1.987c-.273.245.13.645.4.4Z" transform="translate(-68.83 -317.399)" fill="#2d6c8c"/>
        </g>
        <g id="Group_4888" data-name="Group 4888" transform="translate(9.523 26.457)">
          <path id="Path_7949" data-name="Path 7949" d="M83.022,180.069l.947.568a.284.284,0,0,0,.287-.491l-.947-.568a.284.284,0,0,0-.287.491Z" transform="translate(-82.886 -179.536)" fill="#2d6c8c"/>
        </g>
        <g id="Group_4889" data-name="Group 4889" transform="translate(31.688 20.775)">
          <path id="Path_7950" data-name="Path 7950" d="M200.006,150.07l1.136.57c.326.164.614-.326.287-.491l-1.136-.57c-.326-.164-.614.326-.287.491Z" transform="translate(-199.862 -149.546)" fill="#2d6c8c"/>
        </g>
        <g id="Group_4890" data-name="Group 4890" transform="translate(29.992 43.514)">
          <path id="Path_7951" data-name="Path 7951" d="M191.186,270.123a.284.284,0,0,0,0-.568.284.284,0,0,0,0,.568Z" transform="translate(-190.911 -269.555)" fill="#fc5673"/>
        </g>
        <g id="Group_4891" data-name="Group 4891" transform="translate(63.908 59.029)">
          <path id="Path_7952" data-name="Path 7952" d="M370.186,352.224a2.94,2.94,0,0,0,1.208-.213c.334-.136.188-.686-.151-.548a2.538,2.538,0,0,1-1.057.193c-.366-.012-.366.557,0,.568Z" transform="translate(-369.911 -351.441)" fill="#fc5673"/>
        </g>
        <g id="Group_4892" data-name="Group 4892" transform="translate(14.264 64.537)">
          <path id="Path_7953" data-name="Path 7953" d="M107.99,380.99a2.663,2.663,0,0,0,1.245.681c.356.083.508-.465.151-.548a2.1,2.1,0,0,1-.994-.535c-.264-.254-.666.148-.4.4Z" transform="translate(-107.903 -380.508)" fill="#fc5673"/>
        </g>
        <g id="Group_4893" data-name="Group 4893" transform="translate(39.46 19.831)">
          <path id="Path_7954" data-name="Path 7954" d="M240.914,144.991l.189.379a.284.284,0,1,0,.491-.287l-.189-.379a.284.284,0,1,0-.491.287Z" transform="translate(-240.879 -144.565)" fill="#fc5673"/>
        </g>
        <g id="Group_4894" data-name="Group 4894" transform="translate(72.961 17.02)">
          <path id="Path_7955" data-name="Path 7955" d="M417.773,130.215l.581.555c.265.253.667-.149.4-.4l-.581-.555c-.265-.253-.667.149-.4.4Z" transform="translate(-417.686 -129.733)" fill="#fc5673"/>
        </g>
        <g id="Group_4895" data-name="Group 4895" transform="translate(40.767 28.954)">
          <path id="Path_7956" data-name="Path 7956" d="M247.917,193.246a11.506,11.506,0,0,1,1.911,1.378c.272.243.676-.158.4-.4a12.236,12.236,0,0,0-2.026-1.467.284.284,0,0,0-.287.491Z" transform="translate(-247.779 -192.715)" fill="#fdc14c"/>
        </g>
        <g id="Group_4896" data-name="Group 4896" transform="translate(52.161 7.308)">
          <path id="Path_7957" data-name="Path 7957" d="M308.051,79l.758.569a.286.286,0,0,0,.389-.1.291.291,0,0,0-.1-.389l-.758-.569a.286.286,0,0,0-.389.1.291.291,0,0,0,.1.389Z" transform="translate(-307.911 -78.472)" fill="#fdc14c"/>
        </g>
        <g id="Group_4897" data-name="Group 4897" transform="translate(27.899 11.299)">
          <path id="Path_7958" data-name="Path 7958" d="M180.011,100.062a5.866,5.866,0,0,0,2.412.633c.366.016.365-.552,0-.568a5.169,5.169,0,0,1-2.125-.555c-.326-.164-.614.326-.287.491Z" transform="translate(-179.867 -99.538)" fill="#fdc14c"/>
        </g>
        <g id="Group_4898" data-name="Group 4898" transform="translate(11.423 16.229)">
          <path id="Path_7959" data-name="Path 7959" d="M93.186,126.123h.568a.284.284,0,0,0,0-.568h-.568a.284.284,0,0,0,0,.568Z" transform="translate(-92.911 -125.555)" fill="#fdc14c"/>
        </g>
        <g id="Group_4899" data-name="Group 4899" transform="translate(64.089 47.309)">
          <path id="Path_7960" data-name="Path 7960" d="M370.872,289.941l.189.758a.284.284,0,0,0,.548-.151l-.19-.758a.284.284,0,0,0-.548.151Z" transform="translate(-370.863 -289.588)" fill="#fdc14c"/>
        </g>
        <g id="Group_4900" data-name="Group 4900" transform="translate(65.781 61.337)">
          <path id="Path_7961" data-name="Path 7961" d="M379.891,364.1l1.137.947c.279.232.683-.168.4-.4l-1.137-.947c-.279-.233-.683.168-.4.4Z" transform="translate(-379.796 -363.624)" fill="#fdc14c"/>
        </g>
        <g id="Group_4901" data-name="Group 4901" transform="translate(73.942 11.115)">
          <path id="Path_7962" data-name="Path 7962" d="M422.95,99.048l.379.379a.284.284,0,0,0,.4-.4l-.379-.379a.284.284,0,1,0-.4.4Z" transform="translate(-422.868 -98.565)" fill="#fdc14c"/>
        </g>
        <g id="Group_4910" data-name="Group 4910" transform="translate(66.23 19.9)">
          <g id="Group_4903" data-name="Group 4903" transform="translate(8.16 50.835)">
            <path id="Path_7963" data-name="Path 7963" d="M427.01,413.239a15.212,15.212,0,0,1-.78,1.883,3.116,3.116,0,0,0-.8.379.4.4,0,0,0-.167.5,12.542,12.542,0,0,0,1.711,3.086c.557.356,2.047.581,2.033.286s-1.107-.939-1.107-.939l-.78-2.835,1.144-1.918-1.189-.465" transform="translate(-425.232 -413.218)" fill="#feceac"/>
            <g id="Group_4902" data-name="Group 4902" clip-path="url(#clip-path)">
              <path id="Path_7964" data-name="Path 7964" d="M422.02,416.323s1.334.946,1.89,1.3,1.95,4.729,1.95,4.729l-3.632.122-2.209-2.854Z" transform="translate(-421.008 -415.735)" fill="#f4eae9"/>
              <path id="Path_7965" data-name="Path 7965" d="M420.479,415.495c-.034.385.819,1.475,2.27,2.311s2.211,4.351,2.211,4.351l-4.237-.145-1.714-2.7Z" transform="translate(-420.187 -415.064)" fill="#563219"/>
            </g>
          </g>
          <g id="Group_4905" data-name="Group 4905" transform="translate(21.956 48.065)">
            <path id="Path_7967" data-name="Path 7967" d="M499.034,398.6c.006.1,1.511,1.828,1.511,1.828a4.039,4.039,0,0,1,.989.6,16.742,16.742,0,0,1-3.08,3.442c-.064-.248,1.179-3.236,1.126-3.283s-1.541-1.475-1.541-1.475Z" transform="translate(-498.039 -398.602)" fill="#feceac"/>
            <g id="Group_4904" data-name="Group 4904" clip-path="url(#clip-path-2)">
              <path id="Path_7968" data-name="Path 7968" d="M496.944,402.618a15.778,15.778,0,0,1-1.486,1.341c-.485.329-.981,4.08-.981,4.08l1.229,1.291,3.863-4.744-.231-1.447Z" transform="translate(-495.152 -401.857)" fill="#f4eae9"/>
              <path id="Path_7969" data-name="Path 7969" d="M500.306,406.119s-.1.861-1.539,1.293-.993,3.88-.993,3.88L502,407.635Z" transform="translate(-497.773 -404.695)" fill="#563219"/>
            </g>
          </g>
          <path id="Path_7971" data-name="Path 7971" d="M392.66,189.445a15.391,15.391,0,0,0-10.166,2.144.756.756,0,0,0-.266.928,12.921,12.921,0,0,0,5.1,5.069,13.481,13.481,0,0,0-2.614-4.573c-.078-.089.491.3.608.309,1.426.117,5.793-.168,7.991-2.173" transform="translate(-382.165 -180.897)" fill="#feceac"/>
          <path id="Path_7972" data-name="Path 7972" d="M478.409,185.349s5.361-2.264,10.543-.568a.971.971,0,0,1,.655,1.078c-.269,1.641-1.2,5.363-4.237,6.905a14.387,14.387,0,0,1,2.526-6.411s-6.217,2.461-9.325.842" transform="translate(-460.173 -176.719)" fill="#feceac"/>
          <path id="Path_7973" data-name="Path 7973" d="M435.176,187.858a17.708,17.708,0,0,0,.763,7.475c1.119,2.746,2.644,5.594,2.441,7.272,0,0,4.027,1.015,5.349-.155,0,0,1.516-11.9-.823-15.1C442.906,187.349,437.82,186.993,435.176,187.858Z" transform="translate(-425.034 -179.253)" fill="#feceac"/>
          <g id="Group_4907" data-name="Group 4907" transform="translate(8.895 23.197)">
            <path id="Path_7974" data-name="Path 7974" d="M443.864,292.144l-7.412-9.514c1.232-3.5,2.394-6.716,3.024-8.263,1.766-4.331-.57-7.008-.57-7.008s-4.186.29-5.349.155c-1.434-.167-1.2,14.318-1.2,14.318l-3.248,13.618,2.678.684s1.577-4.64,3.346-9.727c1.894,2.217,6.853,7.619,6.853,7.619Z" transform="translate(-429.107 -267.358)" fill="#2d6c8c"/>
            <g id="Group_4906" data-name="Group 4906" clip-path="url(#clip-path-3)">
              <path id="Path_7975" data-name="Path 7975" d="M461.268,353.862l-.367-2.224,1.321-3.776,2.024-.022,6.929,9.26-2.72,2.849-4.533-2.979Z" transform="translate(-454.877 -332.59)" fill="#8d4063" opacity="0.31" style="mix-blend-mode: multiply;isolation: isolate"/>
              <path id="Path_7976" data-name="Path 7976" d="M436.758,300.621l1.778-2.59,2.82-10.685s-2.526,4.922-3.691,2.137S436.758,300.621,436.758,300.621Z" transform="translate(-435.289 -283.559)" fill="#8d4063" opacity="0.31" style="mix-blend-mode: multiply;isolation: isolate"/>
            </g>
          </g>
          <g id="Group_4909" data-name="Group 4909" transform="translate(9.005)">
            <path id="Path_7978" data-name="Path 7978" d="M434.4,147.289c.85,1.774.6,3.663-.563,4.219s-2.792-.43-3.642-2.2-.6-3.663.563-4.219S433.55,145.515,434.4,147.289Z" transform="translate(-429.692 -144.93)" fill="#feceac"/>
            <g id="Group_4908" data-name="Group 4908" clip-path="url(#clip-path-4)">
              <path id="Path_7979" data-name="Path 7979" d="M428.547,143.709c.043-.086.583-.3,1.338.065s.777-1.209,1.489-1.015,1.6.8,1.705,1.468.475.237.388-.475-2.525-2.569-2.525-2.569l-1.878.453Z" transform="translate(-428.764 -141.893)" fill="#da6354"/>
            </g>
          </g>
          <path id="Path_7981" data-name="Path 7981" d="M446.778,162.942c.484,1.451,1.491,4.6,2.849,4.792,2.331.324-5.246.777-5.246.777s2.008-1.36.712-3.173S446.778,162.942,446.778,162.942Z" transform="translate(-432.593 -159.529)" fill="#feceac"/>
          <path id="Path_7982" data-name="Path 7982" d="M415.234,208.4l-.073-.007A.088.088,0,0,0,415.234,208.4Z" transform="translate(-408.909 -196.372)" fill="#83b3ad"/>
          <path id="Path_7983" data-name="Path 7983" d="M455.265,155.8c0,.492-.217.89-.486.89s-.486-.4-.486-.89.217-.89.486-.89S455.265,155.31,455.265,155.8Z" transform="translate(-440.627 -153.02)" fill="#feceac"/>
          <path id="Path_7984" data-name="Path 7984" d="M433.742,163.87a.667.667,0,0,1,.036-.305.443.443,0,0,1,.2-.246.419.419,0,0,1,.314-.02.944.944,0,0,1,.141.061c.042.029.084.058.122.09-.049-.012-.1-.027-.141-.042s-.093-.022-.138-.029a.417.417,0,0,0-.251.034.442.442,0,0,0-.176.188A1.453,1.453,0,0,0,433.742,163.87Z" transform="translate(-423.966 -159.8)" fill="#383838"/>
          <path id="Path_7985" data-name="Path 7985" d="M441.7,159.585a.663.663,0,0,1,.036-.305.443.443,0,0,1,.2-.247.419.419,0,0,1,.315-.021.95.95,0,0,1,.141.061c.042.029.084.058.122.09-.049-.012-.1-.027-.141-.042s-.092-.022-.138-.029a.417.417,0,0,0-.251.034.444.444,0,0,0-.176.188A1.468,1.468,0,0,0,441.7,159.585Z" transform="translate(-430.416 -156.327)" fill="#383838"/>
          <path id="Path_7986" data-name="Path 7986" d="M441.313,163.988s-.54.108-.626-.151a4.731,4.731,0,0,1,0-1.122" transform="translate(-429.567 -159.345)" fill="none" stroke="#915036" stroke-miterlimit="10" stroke-width="0.684"/>
          <path id="Path_7987" data-name="Path 7987" d="M406.325,228.708a1,1,0,0,1,.345-1.209c.6-.453,1.187.561.993.777s-.194,1.058-.518.907A8.749,8.749,0,0,1,406.325,228.708Z" transform="translate(-401.681 -211.76)" fill="#feceac"/>
          <path id="Path_7988" data-name="Path 7988" d="M507.019,222.716a1,1,0,0,1,1.036.711c.238.717-.909.947-1.052.695s-.941-.52-.7-.779A8.753,8.753,0,0,1,507.019,222.716Z" transform="translate(-482.748 -207.966)" fill="#feceac"/>
          <path id="Path_7989" data-name="Path 7989" d="M417.424,182.053s2.98,2.648,5.068-.247a13.983,13.983,0,0,1,5.219-1.272s-.116,3.944.58,4.291c0,0-2.32.348-2.668.812s-.7,10.554.116,12.99c0,0-3.711-1.044-5.335,0s-3.711,0-3.711,0a11.4,11.4,0,0,0-.58-7.191c-1.624-3.711-1.392-5.567-1.392-5.567l-2.667.464a23.852,23.852,0,0,0-.7-4.175C411.009,181.577,416.416,181.368,417.424,182.053Z" transform="translate(-405.813 -173.782)" fill="#ed1556"/>
          <path id="Path_7990" data-name="Path 7990" d="M438.306,157.381s1.457,2.3,1.341,2.653-2.2,3.016-3.016,2.783a3.709,3.709,0,0,1-1.74-1.276,13.777,13.777,0,0,1-.381-1.435s1.85.082,2.392-.691S438.306,157.381,438.306,157.381Z" transform="translate(-424.593 -155.022)" fill="#da6354"/>
          <path id="Path_7991" data-name="Path 7991" d="M440.833,169.7a1.475,1.475,0,0,0,1.638-1S443.2,171.492,440.833,169.7Z" transform="translate(-429.717 -164.195)" fill="#fff"/>
        </g>
        <g id="Group_4920" data-name="Group 4920" transform="translate(33.881 23.779)">
          <g id="Group_4919" data-name="Group 4919">
            <g id="Group_4912" data-name="Group 4912" transform="translate(0 7.445)">
              <g id="Group_4911" data-name="Group 4911" transform="translate(2.112 2.417)">
                <rect id="Rectangle_1907" data-name="Rectangle 1907" width="0.103" height="5.074" transform="translate(0 0.004) rotate(-2.337)" fill="#38383a"/>
              </g>
              <path id="Path_7992" data-name="Path 7992" d="M213.145,206.532c-.095-.229-.664-1.376-.664-1.376l1.043,1.376.285-1.835v1.835l.664-.917-.285,1.261,1.8.344h-1.8l.854,1.72-1.328-1.72-.095,1.72-.19-1.835-1.233,1.835.854-1.835-1.612-.459Z" transform="translate(-211.438 -204.697)" fill="#ebc061"/>
            </g>
            <g id="Group_4914" data-name="Group 4914" transform="translate(32.205 9.854)">
              <g id="Group_4913" data-name="Group 4913" transform="translate(0.321 2.213)">
                <rect id="Rectangle_1908" data-name="Rectangle 1908" width="5.074" height="0.103" transform="translate(0 4.82) rotate(-71.79)" fill="#38383a"/>
              </g>
              <path id="Path_7993" data-name="Path 7993" d="M383.139,218.932c-.008-.248-.139-1.521-.139-1.521l.494,1.655.91-1.618-.644,1.718.944-.626L384,219.621l1.567.954-1.687-.632.2,1.91-.64-2.076-.693,1.577.466-1.784-1.8,1.285,1.443-1.418-1.349-1Z" transform="translate(-381.406 -217.411)" fill="#ebc061"/>
            </g>
            <path id="Path_7994" data-name="Path 7994" d="M269.755,180.175a1.3,1.3,0,0,0-.658,1.68,2.2,2.2,0,0,0,1.224,1.422l.419-2.629Z" transform="translate(-258.084 -177.376)" fill="#38383a"/>
            <path id="Path_7995" data-name="Path 7995" d="M271.656,205.942s-.336,1.612-1.7,1.635a1.894,1.894,0,0,1-.224-.01c-1.555-.16,2.413,2.826,2.413,2.826l1.785-.215,1.54-1.864-1.178-.431s-1.386-.618-.526-3.485S271.656,205.942,271.656,205.942Z" transform="translate(-258.391 -196.224)" fill="#a56f6f"/>
            <path id="Path_7996" data-name="Path 7996" d="M272.745,177.3a9.037,9.037,0,0,0-1.861,5.162,2.545,2.545,0,0,0,2.081,2.475l.046.008c1.549.262,2.983-1.345,3.4-2.992S275.827,176.587,272.745,177.3Z" transform="translate(-259.62 -174.976)" fill="#a56f6f"/>
            <path id="Path_7997" data-name="Path 7997" d="M274.791,170.264s-4.918-.058-4.263-3.468,3.952.518,3.952.518.183-1.849,1.337-1.274,1.143,3.678,1.143,3.678,2.324.352,1.446,2.015-2.933,3.2-3.812,3.022a5.321,5.321,0,0,1,.34-1.065s1.067-.629.845-1.223-.577,0-.577,0A2.122,2.122,0,0,1,274.791,170.264Z" transform="translate(-259.283 -165.404)" fill="#38383a"/>
            <path id="Path_7998" data-name="Path 7998" d="M226.33,238.913s-1.691,6-1.691,6.848-2.416-4.227-2.416-5.556c0,0-.121.242,0-.6s-.845-2.174-1.208-1.449.483,2.295.483,2.295,0,7.126,3.14,8.455,3.624-8.7,3.624-8.7Z" transform="translate(-219.128 -224.199)" fill="#a56f6f"/>
            <path id="Path_7999" data-name="Path 7999" d="M304.27,238.065a18.553,18.553,0,0,0,13.89,3.14,1.357,1.357,0,0,0,1.329-.362c.6-.6.725-2.416.362-2.174s-1.691,1.087-1.691,1.087-8.092.725-11.474-3.261Z" transform="translate(-286.68 -223.025)" fill="#a56f6f"/>
            <g id="Group_4916" data-name="Group 4916" transform="translate(25.903 46.85)">
              <path id="Path_8000" data-name="Path 8000" d="M349.005,412.661c.031.112,2.152,1.706,2.152,1.706a4.681,4.681,0,0,1,1.265.44c.173.194-2.524,4.907-2.656,4.642s.554-3.949.482-3.99-2.1-1.3-2.1-1.3Z" transform="translate(-348.147 -412.661)" fill="#a56f6f"/>
              <g id="Group_4915" data-name="Group 4915" clip-path="url(#clip-path-5)">
                <path id="Path_8001" data-name="Path 8001" d="M351.542,416.193a18.263,18.263,0,0,1-1.359,1.877c-.47.49-.126,4.858-.126,4.858l1.7,1.165,3.229-6.305-.611-1.582Z" transform="translate(-349.597 -415.524)" fill="#f4eae9"/>
                <path id="Path_8002" data-name="Path 8002" d="M354.456,419.212s.091,1-1.43,1.836-.187,4.633-.187,4.633l3.9-5.162Z" transform="translate(-351.511 -417.971)" fill="#563219"/>
              </g>
            </g>
            <g id="Group_4918" data-name="Group 4918" transform="translate(11.291 50.275)">
              <path id="Path_8004" data-name="Path 8004" d="M272.575,430.74c-.009.116,1.46,2.326,1.46,2.326s.947.6,1.046.837-4.017,3.785-4.053,3.49,1.839-3.539,1.786-3.6-1.548-1.924-1.548-1.924Z" transform="translate(-271.028 -430.74)" fill="#a56f6f"/>
              <g id="Group_4917" data-name="Group 4917" clip-path="url(#clip-path-6)">
                <path id="Path_8005" data-name="Path 8005" d="M267.826,435.982a18.266,18.266,0,0,1-1.907,1.316c-.606.3-1.739,4.538-1.739,4.538L265.4,443.5l5.148-4.867-.049-1.7Z" transform="translate(-265.478 -434.989)" fill="#f4eae9"/>
                <path id="Path_8006" data-name="Path 8006" d="M271.637,440.589s-.248.973-1.961,1.254-1.722,4.306-1.722,4.306l5.4-3.565Z" transform="translate(-268.537 -438.723)" fill="#563219"/>
              </g>
            </g>
            <path id="Path_8008" data-name="Path 8008" d="M237.54,298.411a10.838,10.838,0,0,0-2.051,4.454c-.763,3.053,3.816,10.838,4.122,12.364,0,0-1.526,1.984-2.748,1.526s-7.174-10.074-7.174-13.127,3.931-9.612,5.194-12.947c.967-2.552,4.4-3.817,8.239,2.568.88,1.462,1.068,9.617,1.068,11.143s8.548,5.8,9.464,7.937l-1.221,1.832s-10.532-4.274-11.906-8.4S237.693,300.854,237.54,298.411Z" transform="translate(-226.231 -265.254)" fill="#0e34c4"/>
            <path id="Path_8009" data-name="Path 8009" d="M324.56,258.439c.012.006.018.006,0,0Z" transform="translate(-303.126 -240.811)" fill="#ebc061"/>
            <path id="Path_8010" data-name="Path 8010" d="M261.756,231.025l.845-3.382a20.646,20.646,0,0,1-3.756-1.851,8.536,8.536,0,0,0-3.034-1.013,2.666,2.666,0,0,1-1.907,1.295c-1.236.337-1.5-1.311-1.527-1.542a6.48,6.48,0,0,0-3.063.818,6.548,6.548,0,0,0-2.416,3.865l1.414,1.463.519,8.079s5.962,2.575,7.489,1.812c0,0-.357-6.87,1.932-10.991a11.812,11.812,0,0,0,3.14,1.57c.137.027.2.044.221.051C261.582,231.181,261.5,231.122,261.756,231.025Z" transform="translate(-240.181 -213.327)" fill="#ebc061"/>
          </g>
          <path id="Path_8011" data-name="Path 8011" d="M275.178,195.752a.69.69,0,0,1,.245-.206.462.462,0,0,1,.329-.043.436.436,0,0,1,.253.209.991.991,0,0,1,.063.147c.011.052.022.1.028.155-.029-.044-.053-.089-.077-.132s-.054-.083-.084-.12a.435.435,0,0,0-.215-.153.462.462,0,0,0-.268.016A1.512,1.512,0,0,0,275.178,195.752Z" transform="translate(-263.101 -189.789)" fill="#383838"/>
          <path id="Path_8012" data-name="Path 8012" d="M284.74,197.664a.692.692,0,0,1,.245-.206.461.461,0,0,1,.328-.043.437.437,0,0,1,.253.209.992.992,0,0,1,.063.147c.011.052.022.1.028.155-.029-.044-.053-.088-.077-.132s-.054-.083-.084-.12a.434.434,0,0,0-.215-.153.462.462,0,0,0-.268.016A1.513,1.513,0,0,0,284.74,197.664Z" transform="translate(-270.851 -191.338)" fill="#383838"/>
          <path id="Path_8013" data-name="Path 8013" d="M279.408,199.912a.9.9,0,0,1-.46-.16.308.308,0,0,1-.13-.247.911.911,0,0,1,.062-.248,2.982,2.982,0,0,1,.214-.43,3.036,3.036,0,0,1,.274-.392q-.084.225-.18.44c-.062.144-.128.287-.182.43a.9.9,0,0,0-.061.207.208.208,0,0,0,.073.161A1.4,1.4,0,0,0,279.408,199.912Z" transform="translate(-266.051 -192.176)" fill="#753838"/>
          <path id="Path_8014" data-name="Path 8014" d="M275.534,207.59s.916.845,1.786.374C277.32,207.964,276.6,209.985,275.534,207.59Z" transform="translate(-263.389 -199.597)" fill="#fff"/>
        </g>
        <g id="Group_4926" data-name="Group 4926" transform="translate(0 21.065)">
          <g id="Group_4925" data-name="Group 4925">
            <path id="Path_8015" data-name="Path 8015" d="M110.491,336.449s-.006-.7-.456-.728a.855.855,0,0,0-.891.465c-.174.321.061,1.331-.136,1.737s.115,1.675.933,1.339-.8-1.12.477-2.527Z" transform="translate(-94.488 -300.734)" fill="#38383a"/>
            <path id="Path_8016" data-name="Path 8016" d="M139.864,425.679a4.215,4.215,0,0,0,.215,3.011c.392.624-.942.629-1.443,0s-.059-2.277-.059-2.277-.077-.927.779-.888Z" transform="translate(-118.355 -373.527)" fill="#38383a"/>
            <g id="Group_4922" data-name="Group 4922" transform="translate(0 11.965)">
              <g id="Group_4921" data-name="Group 4921" transform="translate(2.28 1.953)">
                <rect id="Rectangle_1909" data-name="Rectangle 1909" width="0.11" height="5.409" transform="matrix(0.684, -0.73, 0.73, 0.684, 0, 0.08)" fill="#38383a"/>
              </g>
              <path id="Path_8017" data-name="Path 8017" d="M34.157,216.113c-.244-.1-1.533-.549-1.533-.549l1.821.266-1.155-1.607,1.371,1.394-.181-1.194.727,1.171,1.627-1.086-1.37,1.347,1.934.669L35.1,216.21l1.214,1.378L34.8,216.336l.434,2.316-.722-2.033-1.568.857Z" transform="translate(-32.624 -214.222)" fill="#ebc061"/>
            </g>
            <path id="Path_8018" data-name="Path 8018" d="M102.45,191.316s-.528-.641.5-1.542,2.06-2.575.386-2.575-4.249-2.06-5.408-1.03-3.477.129-2.962,1.416-1.674,3.09-.515,3.992,1.8,1.416,1.8,2.575,1.931,2.447,2.575.386a3.208,3.208,0,0,1,2.575-2.447A2.585,2.585,0,0,0,102.45,191.316Z" transform="translate(-82.46 -179.286)" fill="#5d344f"/>
            <path id="Path_8019" data-name="Path 8019" d="M121.985,322.623c.083.251-.291,3.187-.291,3.187a8.4,8.4,0,0,1-7.132-1.113,16.6,16.6,0,0,1-5.227-5.915S121.16,320.109,121.985,322.623Z" transform="translate(-94.8 -287.005)" fill="#c64d43"/>
            <path id="Path_8020" data-name="Path 8020" d="M142.144,320.152c.179.331-.8,6.422-.513,7.338s-.963,3.432-.651,7.242a16.607,16.607,0,0,1-.142,5.34s.476.64.861.089a99.874,99.874,0,0,0,2.765-11c.275-1.86,3.264-4.081,2.78-7.5S142.144,320.152,142.144,320.152Z" transform="translate(-120.333 -287.688)" fill="#feceac"/>
            <path id="Path_8021" data-name="Path 8021" d="M117.2,296.353s.293,7.8.487,9.577a9.485,9.485,0,0,0-4.073-2.54s-.5.572-.323.9,4.253,4.924,4.9,5.172,3.728,1.273,3.228-7.7S117.2,296.353,117.2,296.353Z" transform="translate(-97.971 -268.262)" fill="#feceac"/>
            <g id="Group_4923" data-name="Group 4923" transform="translate(21.235 35.303)">
              <path id="Path_8022" data-name="Path 8022" d="M144.751,343.389a4.689,4.689,0,0,0,2.286-2.483,9.5,9.5,0,0,0,.918-3.479c0-.045-.068-.044-.07,0a9.418,9.418,0,0,1-.91,3.444,4.637,4.637,0,0,1-2.262,2.456c-.041.019,0,.078.037.06Z" transform="translate(-144.697 -337.394)" fill="#feceac"/>
            </g>
            <path id="Path_8023" data-name="Path 8023" d="M83.785,164.193s3.668-2.809,4.109-3.733,4.005-3.551,4.349-4.337a6.646,6.646,0,0,0,.121-2.894,9.289,9.289,0,0,1-.289-2.149,12.948,12.948,0,0,1,.812,1.947c.219.566,0,1.292.182,1.622s.378-1.275.516-1.179a2.693,2.693,0,0,1,.214,1.895c-.289.413-.985,1.261-.985,1.261A27.828,27.828,0,0,1,87.8,164.1a3.527,3.527,0,0,0-1.086,2.753,8.535,8.535,0,0,0,.814,2.939c.676,1.088-5.641,4.16-5.641,4.16s-.263-2.853-1.835-3.541c0,0-5.283,3.592-6.772,3.373s-5.438-4.111-5.438-4.111l.386-.551s4.645,3.043,5.307,2.685c0,0,4.9-4.6,5.553-4.9l.652-.3s1.695-.662.158-1.84l.371-2S82.119,165.7,83.785,164.193Z" transform="translate(-61.171 -151.077)" fill="#feceac"/>
            <g id="Group_4924" data-name="Group 4924" transform="translate(13.266 12.979)">
              <path id="Path_8024" data-name="Path 8024" d="M112.082,219.574s1.972,3.637,3.171,4.27,4.538,9.947,3.149,15.75-2.113,5.809-2.113,5.809a2.77,2.77,0,0,0-3.081-3.078c-3.362.112-10.474-1.166-10.572-5.135,0,0,12.524-4.994,4.431-14.554,0,0,.5-.572.875-.517s1.7,2.115,2.819,2.279,2.838-1.71.466-4.19C111.228,220.208,111.731,219.636,112.082,219.574Z" transform="translate(-102.637 -219.574)" fill="#fc5673"/>
            </g>
            <ellipse id="Ellipse_189" data-name="Ellipse 189" cx="2.339" cy="3.181" rx="2.339" ry="3.181" transform="translate(13.136 11.245) rotate(-53.172)" fill="#feceac"/>
            <path id="Path_8025" data-name="Path 8025" d="M60.63,241.545s.139-1.149-.681-1.362-1.666.164-1.6.789,1.128-.07,1.506.776l.612.234Z" transform="translate(-53.469 -223.25)" fill="#feceac"/>
            <path id="Path_8026" data-name="Path 8026" d="M105.68,193.868s0,2.447-1.416,2.7c0,0,2.163,1.84,1.21,1.95s-2.5-1.564-2.5-1.564l-.258-2.575,1.545-1.545,1.932.258a10.9,10.9,0,0,1,1.931,1.159C108.255,194.512,105.68,193.868,105.68,193.868Z" transform="translate(-89.437 -184.925)" fill="#5d344f"/>
            <path id="Path_8027" data-name="Path 8027" d="M131.811,198.819c.139.288.1.6-.1.69s-.46-.066-.6-.355-.1-.6.1-.69S131.672,198.531,131.811,198.819Z" transform="translate(-112.387 -189.464)" fill="#feceac"/>
            <path id="Path_8028" data-name="Path 8028" d="M114.6,219.656c.315.056.541.271.5.481s-.322.335-.638.28-.541-.271-.5-.481S114.283,219.6,114.6,219.656Z" transform="translate(-98.546 -206.651)" fill="#feceac"/>
          </g>
          <path id="Path_8029" data-name="Path 8029" d="M125.1,203.118a.7.7,0,0,0-.321.014.464.464,0,0,0-.273.191.438.438,0,0,0-.045.327,1,1,0,0,0,.053.151c.027.046.054.092.085.134-.009-.052-.021-.1-.033-.15s-.016-.1-.019-.146a.437.437,0,0,1,.055-.26.464.464,0,0,1,.21-.17A1.514,1.514,0,0,1,125.1,203.118Z" transform="translate(-107.045 -193.247)" fill="#383838"/>
          <path id="Path_8030" data-name="Path 8030" d="M119.312,212.388a.7.7,0,0,0-.322.014.463.463,0,0,0-.273.191.439.439,0,0,0-.046.327,1.037,1.037,0,0,0,.053.151c.027.046.054.092.085.134-.008-.052-.021-.1-.033-.15s-.016-.1-.019-.146a.437.437,0,0,1,.055-.26.464.464,0,0,1,.21-.17A1.51,1.51,0,0,1,119.312,212.388Z" transform="translate(-102.358 -200.761)" fill="#383838"/>
          <path id="Path_8031" data-name="Path 8031" d="M125.321,211.548a.587.587,0,0,0,.151-.282.2.2,0,0,0-.046-.177.594.594,0,0,0-.14-.092,1.965,1.965,0,0,0-.294-.113,2,2,0,0,0-.306-.068c.094.047.187.092.282.133s.189.082.279.127a.591.591,0,0,1,.121.073.137.137,0,0,1,.036.11A.918.918,0,0,1,125.321,211.548Z" transform="translate(-107.242 -199.497)" fill="#e2a77f"/>
          <path id="Path_8032" data-name="Path 8032" d="M128.967,211.35s-.1,1.248-1.069,1.49C127.9,212.84,129.8,213.85,128.967,211.35Z" transform="translate(-109.846 -199.93)" fill="#fff"/>
        </g>
      </g>
    </g>
  </g>
</svg>
