<svg xmlns="http://www.w3.org/2000/svg" xmlns:xlink="http://www.w3.org/1999/xlink" width="157.796" height="36.67" viewBox="0 0 157.796 36.67">
  <defs>
    <filter id="Ellipse_25" x="75.936" y="9.692" width="20" height="20" filterUnits="userSpaceOnUse">
      <feOffset dy="3" input="SourceAlpha"/>
      <feGaussianBlur stdDeviation="3" result="blur"/>
      <feFlood flood-opacity="0.161"/>
      <feComposite operator="in" in2="blur"/>
      <feComposite in="SourceGraphic"/>
    </filter>
  </defs>
  <g id="Group_5568" data-name="Group 5568" transform="translate(-1233.064 -2455.308)">
    <g id="Group_2874" data-name="Group 2874" transform="translate(1261.836 2455.332)">
      <path id="Path_4053" data-name="Path 4053" d="M454.36,323.049a.452.452,0,0,1-.236-.023.459.459,0,0,1-.293-.353l-.941-5.551a.459.459,0,0,1,.613-.507l5.278,1.961a.458.458,0,0,1,.132.783l-4.336,3.591A.458.458,0,0,1,454.36,323.049Zm-.433-5.3.675,3.984,3.112-2.577Z" transform="translate(-452.883 -316.586)" fill="#ed1556"/>
    </g>
    <g id="Group_2872" data-name="Group 2872" transform="translate(1292.871 2465.781)">
      <path id="Path_4341" data-name="Path 4341" d="M288.411,345.28h-42.8l3.369-1.28h39.432Z" transform="translate(-197.937 -344)" fill="#c62437"/>
      <g id="Group_2862" data-name="Group 2862" transform="translate(74.654 19.155)">
        <rect id="Rectangle_346" data-name="Rectangle 346" width="8.274" height="3.103" fill="#798389"/>
        <rect id="Rectangle_347" data-name="Rectangle 347" width="0.421" height="2.164" transform="translate(4.907 1.227)" fill="#0d3547" opacity="0.2" style="mix-blend-mode: multiply;isolation: isolate"/>
        <rect id="Rectangle_348" data-name="Rectangle 348" width="0.422" height="2.164" transform="translate(5.566 1.227)" fill="#0c4465"/>
        <rect id="Rectangle_349" data-name="Rectangle 349" width="5.029" height="0.562" transform="translate(1.858 1.823)" fill="#0d3547" opacity="0.2" style="mix-blend-mode: multiply;isolation: isolate"/>
      </g>
      <g id="Group_2863" data-name="Group 2863" transform="translate(22.001 19.155)">
        <rect id="Rectangle_350" data-name="Rectangle 350" width="8.274" height="3.103" fill="#798389"/>
        <rect id="Rectangle_351" data-name="Rectangle 351" width="0.422" height="2.164" transform="translate(4.907 1.227)" fill="#0d3547" opacity="0.2" style="mix-blend-mode: multiply;isolation: isolate"/>
        <rect id="Rectangle_352" data-name="Rectangle 352" width="0.421" height="2.164" transform="translate(5.566 1.227)" fill="#0c4465"/>
        <rect id="Rectangle_353" data-name="Rectangle 353" width="5.029" height="0.562" transform="translate(1.858 1.823)" fill="#0d3547" opacity="0.2" style="mix-blend-mode: multiply;isolation: isolate"/>
      </g>
      <g id="Group_2865" data-name="Group 2865" transform="translate(0 24.553)">
        <rect id="Rectangle_354" data-name="Rectangle 354" width="97.988" height="1.132" fill="#012270"/>
        <g id="Group_2864" data-name="Group 2864" transform="translate(2.304 0.566)">
          <rect id="Rectangle_355" data-name="Rectangle 355" width="3.517" height="1.078" fill="#012270"/>
          <rect id="Rectangle_356" data-name="Rectangle 356" width="3.517" height="1.078" transform="translate(6.913)" fill="#012270"/>
          <rect id="Rectangle_357" data-name="Rectangle 357" width="3.517" height="1.078" transform="translate(13.825)" fill="#012270"/>
          <rect id="Rectangle_358" data-name="Rectangle 358" width="3.517" height="1.078" transform="translate(20.738)" fill="#012270"/>
          <rect id="Rectangle_359" data-name="Rectangle 359" width="3.517" height="1.078" transform="translate(27.65)" fill="#012270"/>
          <rect id="Rectangle_360" data-name="Rectangle 360" width="3.517" height="1.078" transform="translate(34.563)" fill="#012270"/>
          <rect id="Rectangle_361" data-name="Rectangle 361" width="3.517" height="1.078" transform="translate(41.475)" fill="#012270"/>
          <rect id="Rectangle_362" data-name="Rectangle 362" width="3.517" height="1.078" transform="translate(48.388)" fill="#012270"/>
          <rect id="Rectangle_363" data-name="Rectangle 363" width="3.517" height="1.078" transform="translate(55.3)" fill="#012270"/>
          <rect id="Rectangle_364" data-name="Rectangle 364" width="3.517" height="1.078" transform="translate(62.213)" fill="#012270"/>
          <rect id="Rectangle_365" data-name="Rectangle 365" width="3.517" height="1.078" transform="translate(69.125)" fill="#012270"/>
          <rect id="Rectangle_366" data-name="Rectangle 366" width="3.517" height="1.078" transform="translate(76.038)" fill="#012270"/>
          <rect id="Rectangle_367" data-name="Rectangle 367" width="3.517" height="1.078" transform="translate(82.951)" fill="#012270"/>
          <rect id="Rectangle_368" data-name="Rectangle 368" width="3.517" height="1.078" transform="translate(89.863)" fill="#012270"/>
        </g>
      </g>
      <g id="Group_2866" data-name="Group 2866" transform="translate(18.349 18.914)">
        <ellipse id="Ellipse_92" data-name="Ellipse 92" cx="2.768" cy="2.768" rx="2.768" ry="2.768" transform="translate(0.241 0.241)" fill="#bdc4ca"/>
        <path id="Path_4342" data-name="Path 4342" d="M151.238,412.83a3.009,3.009,0,1,1,3.009-3.009A3.012,3.012,0,0,1,151.238,412.83Zm0-5.5a2.49,2.49,0,1,0,2.49,2.49A2.493,2.493,0,0,0,151.238,407.331Z" transform="translate(-148.229 -406.812)" fill="#798389"/>
        <ellipse id="Ellipse_93" data-name="Ellipse 93" cx="0.546" cy="0.546" rx="0.546" ry="0.546" transform="translate(2.462 2.462)" fill="#798389"/>
      </g>
      <g id="Group_2867" data-name="Group 2867" transform="translate(27.802 18.914)">
        <ellipse id="Ellipse_94" data-name="Ellipse 94" cx="2.768" cy="2.768" rx="2.768" ry="2.768" transform="translate(0.241 0.241)" fill="#bdc4ca"/>
        <path id="Path_4343" data-name="Path 4343" d="M182.63,412.83a3.009,3.009,0,1,1,3.009-3.009A3.012,3.012,0,0,1,182.63,412.83Zm0-5.5a2.49,2.49,0,1,0,2.49,2.49A2.493,2.493,0,0,0,182.63,407.331Z" transform="translate(-179.621 -406.812)" fill="#798389"/>
        <ellipse id="Ellipse_95" data-name="Ellipse 95" cx="0.546" cy="0.546" rx="0.546" ry="0.546" transform="translate(2.462 2.462)" fill="#798389"/>
      </g>
      <g id="Group_2868" data-name="Group 2868" transform="translate(71.013 18.914)">
        <ellipse id="Ellipse_96" data-name="Ellipse 96" cx="2.768" cy="2.768" rx="2.768" ry="2.768" transform="translate(0.241 0.241)" fill="#bdc4ca"/>
        <path id="Path_4344" data-name="Path 4344" d="M326.129,412.83a3.009,3.009,0,1,1,3.009-3.009A3.013,3.013,0,0,1,326.129,412.83Zm0-5.5a2.49,2.49,0,1,0,2.49,2.49A2.493,2.493,0,0,0,326.129,407.331Z" transform="translate(-323.12 -406.812)" fill="#798389"/>
        <ellipse id="Ellipse_97" data-name="Ellipse 97" cx="0.546" cy="0.546" rx="0.546" ry="0.546" transform="translate(2.463 2.462)" fill="#798389"/>
      </g>
      <g id="Group_2869" data-name="Group 2869" transform="translate(80.465 18.914)">
        <ellipse id="Ellipse_98" data-name="Ellipse 98" cx="2.768" cy="2.768" rx="2.768" ry="2.768" transform="translate(0.241 0.241)" fill="#bdc4ca"/>
        <path id="Path_4345" data-name="Path 4345" d="M357.521,412.83a3.009,3.009,0,1,1,3.009-3.009A3.013,3.013,0,0,1,357.521,412.83Zm0-5.5a2.49,2.49,0,1,0,2.49,2.49A2.493,2.493,0,0,0,357.521,407.331Z" transform="translate(-354.512 -406.812)" fill="#798389"/>
        <path id="Path_4346" data-name="Path 4346" d="M363.783,415.536a.546.546,0,1,1-.546-.546A.546.546,0,0,1,363.783,415.536Z" transform="translate(-360.228 -412.528)" fill="#798389"/>
      </g>
      <rect id="Rectangle_369" data-name="Rectangle 369" width="67.918" height="1.151" transform="translate(18.868 20.128)" fill="#0d3547" opacity="0.2" style="mix-blend-mode: multiply;isolation: isolate"/>
      <path id="Path_4347" data-name="Path 4347" d="M183.608,345.86v17.064h-88a1.079,1.079,0,0,1-.771-.313,1.127,1.127,0,0,1-.337-.792v-.012a1.071,1.071,0,0,1,.346-.792q.809-.763,1.689-1.481l.226-.181c.729-.59,1.494-1.162,2.282-1.707.12-.084.241-.169.364-.25a77.007,77.007,0,0,1,18.245-8.6,56.621,56.621,0,0,1,18.058-2.936Z" transform="translate(-92.33 -345.299)" fill="#dedfe0"/>
      <path id="Path_4348" data-name="Path 4348" d="M104.32,384.938l-.027.019c-.789.545-1.554,1.117-2.282,1.707h2.554a5.492,5.492,0,0,0,4-1.726Z" transform="translate(-97.578 -372.611)" fill="#c62437"/>
      <path id="Path_4349" data-name="Path 4349" d="M183.608,385v5.278h-88a1.079,1.079,0,0,1-.771-.313,1.127,1.127,0,0,1-.337-.792v-.012a1.071,1.071,0,0,1,.346-.792q.393-.37.8-.732.434-.379.885-.75c.8-.653,1.638-1.286,2.508-1.888Z" transform="translate(-92.33 -372.654)" fill="#0d3547" opacity="0.2" style="mix-blend-mode: multiply;isolation: isolate"/>
      <rect id="Rectangle_370" data-name="Rectangle 370" width="55.887" height="0.507" transform="translate(35.391 13.099)" fill="#c62437"/>
      <path id="Path_4350" data-name="Path 4350" d="M183.608,393.76V396.4h-88a1.079,1.079,0,0,1-.771-.313,1.127,1.127,0,0,1-.337-.792v-.012a1.071,1.071,0,0,1,.346-.792q.393-.37.8-.732Z" transform="translate(-92.33 -378.776)" fill="#0d3547" opacity="0.2" style="mix-blend-mode: multiply;isolation: isolate"/>
      <path id="Path_4351" data-name="Path 4351" d="M183.608,345.86v1.792c-9.949-.114-34.539-.337-50.7.057-20.66.5-37.053,14.155-37.053,14.155l-1.018.747a1.127,1.127,0,0,1-.337-.792v-.012a1.071,1.071,0,0,1,.346-.792q.809-.763,1.689-1.481c6.08-4.986,14.508-8.515,21.118-10.738a56.621,56.621,0,0,1,18.058-2.936Z" transform="translate(-92.33 -345.299)" fill="#fff" opacity="0.4" style="mix-blend-mode: overlay;isolation: isolate"/>
      <path id="Path_4352" data-name="Path 4352" d="M94.49,399.01v1.427a5.1,5.1,0,0,0,5.1,5.1H183.6V399.01Zm29.871,5.357h-11.8v-1.286h11.8Zm52.949,0h-11.8v-1.286h11.8Z" transform="translate(-92.323 -382.446)" fill="#01287d"/>
      <path id="Path_4353" data-name="Path 4353" d="M143.446,349.13s-.419.31-1.153.813c-3.237,2.219-12.623,8.19-19.705,8.025a10.593,10.593,0,0,1-1.8-.193S130.658,348.663,143.446,349.13Z" transform="translate(-110.703 -347.573)" fill="#0d31c0"/>
      <path id="Path_4354" data-name="Path 4354" d="M148.691,391.42l-1.908,2.285h73.363V391.42Z" transform="translate(-128.869 -377.141)" fill="#c62437"/>
      <path id="Path_4368" data-name="Path 4368" d="M0,0H4.831V20H0Z" transform="translate(91.278 1.54)" fill="#012270"/>
      <path id="Path_4355" data-name="Path 4355" d="M143.446,349.13s-.419.31-1.153.813c-9.922,1.006-17.908,6.664-19.705,8.025a10.593,10.593,0,0,1-1.8-.193S130.658,348.663,143.446,349.13Z" transform="translate(-110.703 -347.573)" fill="#fff" opacity="0.4" style="mix-blend-mode: overlay;isolation: isolate"/>
      <path id="Path_4356" data-name="Path 4356" d="M185.844,413.67v2.111H101.831A5.092,5.092,0,0,1,97.7,413.67h17.1v.943h11.8v-.943h41.151v.943h11.8v-.943Z" transform="translate(-94.566 -392.691)" fill="#01287d" opacity="0.2" style="mix-blend-mode: multiply;isolation: isolate"/>
      <rect id="Rectangle_372" data-name="Rectangle 372" width="0.89" height="19.999" transform="translate(91.278 1.54)" fill="#0d31c0"/>
      <path id="Path_4357" data-name="Path 4357" d="M396.319,357.02h-4a.427.427,0,0,1-.427-.427h0a.426.426,0,0,1,.427-.426h4a.426.426,0,0,1,.427.426h0A.427.427,0,0,1,396.319,357.02Z" transform="translate(-300.174 -352.503)" fill="#0d31c0"/>
      <path id="Path_4358" data-name="Path 4358" d="M396.319,373.528h-4a.427.427,0,0,1-.427-.426h0a.427.427,0,0,1,.427-.427h4a.427.427,0,0,1,.427.427h0A.427.427,0,0,1,396.319,373.528Z" transform="translate(-300.174 -364.04)" fill="#0d31c0"/>
      <path id="Path_4359" data-name="Path 4359" d="M396.319,390.037h-4a.427.427,0,0,1-.427-.427h0a.427.427,0,0,1,.427-.427h4a.427.427,0,0,1,.427.427h0A.427.427,0,0,1,396.319,390.037Z" transform="translate(-300.174 -375.578)" fill="#0d31c0"/>
      <path id="Path_4360" data-name="Path 4360" d="M396.319,406.545h-4a.427.427,0,0,1-.427-.427h0a.427.427,0,0,1,.427-.426h4a.427.427,0,0,1,.427.426h0A.427.427,0,0,1,396.319,406.545Z" transform="translate(-300.174 -387.116)" fill="#0d31c0"/>
      <path id="Path_4361" data-name="Path 4361" d="M251.257,359v3.719H194.27L198.143,359Z" transform="translate(-162.057 -354.483)" fill="#0d31c0"/>
      <path id="Path_4362" data-name="Path 4362" d="M246.3,359l-3.716,3.719h-2.758L243.542,359Z" transform="translate(-193.893 -354.483)" fill="#fff" opacity="0.4" style="mix-blend-mode: overlay;isolation: isolate"/>
      <path id="Path_4363" data-name="Path 4363" d="M215.761,359l-3.716,3.719h-1.479L214.285,359Z" transform="translate(-173.446 -354.483)" fill="#fff" opacity="0.4" style="mix-blend-mode: overlay;isolation: isolate"/>
      <path id="Path_4364" data-name="Path 4364" d="M325.643,359l-3.716,3.719h-1.379L324.267,359Z" transform="translate(-250.31 -354.483)" fill="#fff" opacity="0.4" style="mix-blend-mode: overlay;isolation: isolate"/>
      <path id="Path_4365" data-name="Path 4365" d="M359.325,359l-3.716,3.719H354.23L357.949,359Z" transform="translate(-273.85 -354.483)" fill="#fff" opacity="0.4" style="mix-blend-mode: overlay;isolation: isolate"/>
      <path id="Path_4366" data-name="Path 4366" d="M299.1,359l-3.716,3.719h-8.831L290.276,359Z" transform="translate(-226.554 -354.483)" fill="#fff" opacity="0.4" style="mix-blend-mode: overlay;isolation: isolate"/>
      <path id="Path_4367" data-name="Path 4367" d="M263.557,359l-3.719,3.719h-4.716L258.842,359Z" transform="translate(-204.586 -354.483)" fill="#fff" opacity="0.4" style="mix-blend-mode: overlay;isolation: isolate"/>
      <rect id="Rectangle_373" data-name="Rectangle 373" width="0.348" height="12.047" transform="translate(36.161 4.517)" fill="#0d3547" opacity="0.4" style="mix-blend-mode: multiply;isolation: isolate"/>
      <rect id="Rectangle_374" data-name="Rectangle 374" width="0.348" height="12.047" transform="translate(42.849 4.517)" fill="#0d3547" opacity="0.4" style="mix-blend-mode: multiply;isolation: isolate"/>
      <rect id="Rectangle_375" data-name="Rectangle 375" width="0.348" height="12.047" transform="translate(79.957 4.517)" fill="#0d3547" opacity="0.4" style="mix-blend-mode: multiply;isolation: isolate"/>
      <rect id="Rectangle_376" data-name="Rectangle 376" width="0.348" height="12.047" transform="translate(86.644 4.517)" fill="#0d3547" opacity="0.4" style="mix-blend-mode: multiply;isolation: isolate"/>
      <rect id="Rectangle_377" data-name="Rectangle 377" width="2.258" height="0.747" transform="translate(20.775 16.191)" fill="#dedfe0"/>
      <rect id="Rectangle_378" data-name="Rectangle 378" width="2.258" height="0.747" transform="translate(75.901 16.191)" fill="#dedfe0"/>
    </g>
    <g id="Group_2871" data-name="Group 2871" transform="translate(1233.064 2465.781)">
      <path id="Path_4341-2" data-name="Path 4341" d="M288.411,345.28h-42.8l3.369-1.28h39.432Z" transform="translate(-197.938 -344)" fill="#c62437"/>
      <g id="Group_2862-2" data-name="Group 2862" transform="translate(74.653 19.155)">
        <rect id="Rectangle_346-2" data-name="Rectangle 346" width="8.274" height="3.103" fill="#798389"/>
        <rect id="Rectangle_347-2" data-name="Rectangle 347" width="0.421" height="2.164" transform="translate(4.907 1.227)" fill="#0d3547" opacity="0.2" style="mix-blend-mode: multiply;isolation: isolate"/>
        <rect id="Rectangle_348-2" data-name="Rectangle 348" width="0.422" height="2.164" transform="translate(5.566 1.227)" fill="#0c4465"/>
        <rect id="Rectangle_349-2" data-name="Rectangle 349" width="5.029" height="0.562" transform="translate(1.858 1.823)" fill="#0d3547" opacity="0.2" style="mix-blend-mode: multiply;isolation: isolate"/>
      </g>
      <g id="Group_2863-2" data-name="Group 2863" transform="translate(22 19.155)">
        <rect id="Rectangle_350-2" data-name="Rectangle 350" width="8.274" height="3.103" fill="#798389"/>
        <rect id="Rectangle_351-2" data-name="Rectangle 351" width="0.422" height="2.164" transform="translate(4.907 1.227)" fill="#0d3547" opacity="0.2" style="mix-blend-mode: multiply;isolation: isolate"/>
        <rect id="Rectangle_352-2" data-name="Rectangle 352" width="0.421" height="2.164" transform="translate(5.566 1.227)" fill="#0c4465"/>
        <rect id="Rectangle_353-2" data-name="Rectangle 353" width="5.029" height="0.562" transform="translate(1.858 1.823)" fill="#0d3547" opacity="0.2" style="mix-blend-mode: multiply;isolation: isolate"/>
      </g>
      <g id="Group_2865-2" data-name="Group 2865" transform="translate(0 24.553)">
        <rect id="Rectangle_354-2" data-name="Rectangle 354" width="97.988" height="1.132" fill="#012270"/>
        <g id="Group_2864-2" data-name="Group 2864" transform="translate(2.304 0.566)">
          <rect id="Rectangle_355-2" data-name="Rectangle 355" width="3.517" height="1.078" fill="#012270"/>
          <rect id="Rectangle_356-2" data-name="Rectangle 356" width="3.517" height="1.078" transform="translate(6.913)" fill="#012270"/>
          <rect id="Rectangle_357-2" data-name="Rectangle 357" width="3.517" height="1.078" transform="translate(13.825)" fill="#012270"/>
          <rect id="Rectangle_358-2" data-name="Rectangle 358" width="3.517" height="1.078" transform="translate(20.738)" fill="#012270"/>
          <rect id="Rectangle_359-2" data-name="Rectangle 359" width="3.517" height="1.078" transform="translate(27.65)" fill="#012270"/>
          <rect id="Rectangle_360-2" data-name="Rectangle 360" width="3.517" height="1.078" transform="translate(34.563)" fill="#012270"/>
          <rect id="Rectangle_361-2" data-name="Rectangle 361" width="3.517" height="1.078" transform="translate(41.475)" fill="#012270"/>
          <rect id="Rectangle_362-2" data-name="Rectangle 362" width="3.517" height="1.078" transform="translate(48.388)" fill="#012270"/>
          <rect id="Rectangle_363-2" data-name="Rectangle 363" width="3.517" height="1.078" transform="translate(55.3)" fill="#012270"/>
          <rect id="Rectangle_364-2" data-name="Rectangle 364" width="3.517" height="1.078" transform="translate(62.213)" fill="#012270"/>
          <rect id="Rectangle_365-2" data-name="Rectangle 365" width="3.517" height="1.078" transform="translate(69.125)" fill="#012270"/>
          <rect id="Rectangle_366-2" data-name="Rectangle 366" width="3.517" height="1.078" transform="translate(76.038)" fill="#012270"/>
          <rect id="Rectangle_367-2" data-name="Rectangle 367" width="3.517" height="1.078" transform="translate(82.951)" fill="#012270"/>
          <rect id="Rectangle_368-2" data-name="Rectangle 368" width="3.517" height="1.078" transform="translate(89.863)" fill="#012270"/>
        </g>
      </g>
      <g id="Group_2866-2" data-name="Group 2866" transform="translate(18.348 18.914)">
        <ellipse id="Ellipse_92-2" data-name="Ellipse 92" cx="2.768" cy="2.768" rx="2.768" ry="2.768" transform="translate(0.241 0.241)" fill="#bdc4ca"/>
        <path id="Path_4342-2" data-name="Path 4342" d="M151.238,412.83a3.009,3.009,0,1,1,3.009-3.009A3.012,3.012,0,0,1,151.238,412.83Zm0-5.5a2.49,2.49,0,1,0,2.49,2.49A2.493,2.493,0,0,0,151.238,407.331Z" transform="translate(-148.229 -406.812)" fill="#798389"/>
        <ellipse id="Ellipse_93-2" data-name="Ellipse 93" cx="0.546" cy="0.546" rx="0.546" ry="0.546" transform="translate(2.462 2.462)" fill="#798389"/>
      </g>
      <g id="Group_2867-2" data-name="Group 2867" transform="translate(27.801 18.914)">
        <ellipse id="Ellipse_94-2" data-name="Ellipse 94" cx="2.768" cy="2.768" rx="2.768" ry="2.768" transform="translate(0.241 0.241)" fill="#bdc4ca"/>
        <path id="Path_4343-2" data-name="Path 4343" d="M182.63,412.83a3.009,3.009,0,1,1,3.009-3.009A3.012,3.012,0,0,1,182.63,412.83Zm0-5.5a2.49,2.49,0,1,0,2.49,2.49A2.493,2.493,0,0,0,182.63,407.331Z" transform="translate(-179.621 -406.812)" fill="#798389"/>
        <ellipse id="Ellipse_95-2" data-name="Ellipse 95" cx="0.546" cy="0.546" rx="0.546" ry="0.546" transform="translate(2.462 2.462)" fill="#798389"/>
      </g>
      <g id="Group_2868-2" data-name="Group 2868" transform="translate(71.012 18.914)">
        <ellipse id="Ellipse_96-2" data-name="Ellipse 96" cx="2.768" cy="2.768" rx="2.768" ry="2.768" transform="translate(0.241 0.241)" fill="#bdc4ca"/>
        <path id="Path_4344-2" data-name="Path 4344" d="M326.129,412.83a3.009,3.009,0,1,1,3.009-3.009A3.013,3.013,0,0,1,326.129,412.83Zm0-5.5a2.49,2.49,0,1,0,2.49,2.49A2.493,2.493,0,0,0,326.129,407.331Z" transform="translate(-323.12 -406.812)" fill="#798389"/>
        <ellipse id="Ellipse_97-2" data-name="Ellipse 97" cx="0.546" cy="0.546" rx="0.546" ry="0.546" transform="translate(2.463 2.462)" fill="#798389"/>
      </g>
      <g id="Group_2869-2" data-name="Group 2869" transform="translate(80.464 18.914)">
        <ellipse id="Ellipse_98-2" data-name="Ellipse 98" cx="2.768" cy="2.768" rx="2.768" ry="2.768" transform="translate(0.241 0.241)" fill="#bdc4ca"/>
        <path id="Path_4345-2" data-name="Path 4345" d="M357.521,412.83a3.009,3.009,0,1,1,3.009-3.009A3.013,3.013,0,0,1,357.521,412.83Zm0-5.5a2.49,2.49,0,1,0,2.49,2.49A2.493,2.493,0,0,0,357.521,407.331Z" transform="translate(-354.512 -406.812)" fill="#798389"/>
        <path id="Path_4346-2" data-name="Path 4346" d="M363.783,415.536a.546.546,0,1,1-.546-.546A.546.546,0,0,1,363.783,415.536Z" transform="translate(-360.228 -412.528)" fill="#798389"/>
      </g>
      <rect id="Rectangle_369-2" data-name="Rectangle 369" width="67.918" height="1.151" transform="translate(18.867 20.128)" fill="#0d3547" opacity="0.2" style="mix-blend-mode: multiply;isolation: isolate"/>
      <path id="Path_4347-2" data-name="Path 4347" d="M183.608,345.86v17.064h-88a1.079,1.079,0,0,1-.771-.313,1.127,1.127,0,0,1-.337-.792v-.012a1.071,1.071,0,0,1,.346-.792q.809-.763,1.689-1.481l.226-.181c.729-.59,1.494-1.162,2.282-1.707.12-.084.241-.169.364-.25a77.007,77.007,0,0,1,18.245-8.6,56.621,56.621,0,0,1,18.058-2.936Z" transform="translate(-92.331 -345.299)" fill="#dedfe0"/>
      <path id="Path_4348-2" data-name="Path 4348" d="M104.32,384.938l-.027.019c-.789.545-1.554,1.117-2.282,1.707h2.554a5.492,5.492,0,0,0,4-1.726Z" transform="translate(-97.579 -372.611)" fill="#c62437"/>
      <path id="Path_4349-2" data-name="Path 4349" d="M183.608,385v5.278h-88a1.079,1.079,0,0,1-.771-.313,1.127,1.127,0,0,1-.337-.792v-.012a1.071,1.071,0,0,1,.346-.792q.393-.37.8-.732.434-.379.885-.75c.8-.653,1.638-1.286,2.508-1.888Z" transform="translate(-92.331 -372.654)" fill="#0d3547" opacity="0.2" style="mix-blend-mode: multiply;isolation: isolate"/>
      <rect id="Rectangle_370-2" data-name="Rectangle 370" width="55.887" height="0.507" transform="translate(35.39 13.099)" fill="#c62437"/>
      <path id="Path_4350-2" data-name="Path 4350" d="M183.608,393.76V396.4h-88a1.079,1.079,0,0,1-.771-.313,1.127,1.127,0,0,1-.337-.792v-.012a1.071,1.071,0,0,1,.346-.792q.393-.37.8-.732Z" transform="translate(-92.331 -378.776)" fill="#0d3547" opacity="0.2" style="mix-blend-mode: multiply;isolation: isolate"/>
      <path id="Path_4351-2" data-name="Path 4351" d="M183.608,345.86v1.792c-9.949-.114-34.539-.337-50.7.057-20.66.5-37.053,14.155-37.053,14.155l-1.018.747a1.127,1.127,0,0,1-.337-.792v-.012a1.071,1.071,0,0,1,.346-.792q.809-.763,1.689-1.481c6.08-4.986,14.508-8.515,21.118-10.738a56.621,56.621,0,0,1,18.058-2.936Z" transform="translate(-92.331 -345.299)" fill="#fff" opacity="0.4" style="mix-blend-mode: overlay;isolation: isolate"/>
      <path id="Path_4352-2" data-name="Path 4352" d="M94.49,399.01v1.427a5.1,5.1,0,0,0,5.1,5.1H183.6V399.01Zm29.871,5.357h-11.8v-1.286h11.8Zm52.949,0h-11.8v-1.286h11.8Z" transform="translate(-92.324 -382.446)" fill="#01287d"/>
      <path id="Path_4353-2" data-name="Path 4353" d="M143.446,349.13s-.419.31-1.153.813c-3.237,2.219-12.623,8.19-19.705,8.025a10.593,10.593,0,0,1-1.8-.193S130.658,348.663,143.446,349.13Z" transform="translate(-110.704 -347.573)" fill="#0d31c0"/>
      <path id="Path_4354-2" data-name="Path 4354" d="M148.691,391.42l-1.908,2.285h73.363V391.42Z" transform="translate(-128.87 -377.141)" fill="#c62437"/>
      <path id="Path_4368-2" data-name="Path 4368" d="M0,0H4.831V20H0Z" transform="translate(91.277 1.54)" fill="#012270"/>
      <path id="Path_4355-2" data-name="Path 4355" d="M143.446,349.13s-.419.31-1.153.813c-9.922,1.006-17.908,6.664-19.705,8.025a10.593,10.593,0,0,1-1.8-.193S130.658,348.663,143.446,349.13Z" transform="translate(-110.704 -347.573)" fill="#fff" opacity="0.4" style="mix-blend-mode: overlay;isolation: isolate"/>
      <path id="Path_4356-2" data-name="Path 4356" d="M185.844,413.67v2.111H101.831A5.092,5.092,0,0,1,97.7,413.67h17.1v.943h11.8v-.943h41.151v.943h11.8v-.943Z" transform="translate(-94.567 -392.691)" fill="#01287d" opacity="0.2" style="mix-blend-mode: multiply;isolation: isolate"/>
      <rect id="Rectangle_372-2" data-name="Rectangle 372" width="0.89" height="19.999" transform="translate(91.277 1.54)" fill="#0d31c0"/>
      <path id="Path_4357-2" data-name="Path 4357" d="M396.319,357.02h-4a.427.427,0,0,1-.427-.427h0a.426.426,0,0,1,.427-.426h4a.426.426,0,0,1,.427.426h0A.427.427,0,0,1,396.319,357.02Z" transform="translate(-300.175 -352.503)" fill="#0d31c0"/>
      <path id="Path_4358-2" data-name="Path 4358" d="M396.319,373.528h-4a.427.427,0,0,1-.427-.426h0a.427.427,0,0,1,.427-.427h4a.427.427,0,0,1,.427.427h0A.427.427,0,0,1,396.319,373.528Z" transform="translate(-300.175 -364.04)" fill="#0d31c0"/>
      <path id="Path_4359-2" data-name="Path 4359" d="M396.319,390.037h-4a.427.427,0,0,1-.427-.427h0a.427.427,0,0,1,.427-.427h4a.427.427,0,0,1,.427.427h0A.427.427,0,0,1,396.319,390.037Z" transform="translate(-300.175 -375.578)" fill="#0d31c0"/>
      <path id="Path_4360-2" data-name="Path 4360" d="M396.319,406.545h-4a.427.427,0,0,1-.427-.427h0a.427.427,0,0,1,.427-.426h4a.427.427,0,0,1,.427.426h0A.427.427,0,0,1,396.319,406.545Z" transform="translate(-300.175 -387.116)" fill="#0d31c0"/>
      <path id="Path_4361-2" data-name="Path 4361" d="M251.257,359v3.719H194.27L198.143,359Z" transform="translate(-162.058 -354.483)" fill="#0d31c0"/>
      <path id="Path_4362-2" data-name="Path 4362" d="M246.3,359l-3.716,3.719h-2.758L243.542,359Z" transform="translate(-193.894 -354.483)" fill="#fff" opacity="0.4" style="mix-blend-mode: overlay;isolation: isolate"/>
      <path id="Path_4363-2" data-name="Path 4363" d="M215.761,359l-3.716,3.719h-1.479L214.285,359Z" transform="translate(-173.447 -354.483)" fill="#fff" opacity="0.4" style="mix-blend-mode: overlay;isolation: isolate"/>
      <path id="Path_4364-2" data-name="Path 4364" d="M325.643,359l-3.716,3.719h-1.379L324.267,359Z" transform="translate(-250.311 -354.483)" fill="#fff" opacity="0.4" style="mix-blend-mode: overlay;isolation: isolate"/>
      <path id="Path_4365-2" data-name="Path 4365" d="M359.325,359l-3.716,3.719H354.23L357.949,359Z" transform="translate(-273.851 -354.483)" fill="#fff" opacity="0.4" style="mix-blend-mode: overlay;isolation: isolate"/>
      <path id="Path_4366-2" data-name="Path 4366" d="M299.1,359l-3.716,3.719h-8.831L290.276,359Z" transform="translate(-226.555 -354.483)" fill="#fff" opacity="0.4" style="mix-blend-mode: overlay;isolation: isolate"/>
      <path id="Path_4367-2" data-name="Path 4367" d="M263.557,359l-3.719,3.719h-4.716L258.842,359Z" transform="translate(-204.587 -354.483)" fill="#fff" opacity="0.4" style="mix-blend-mode: overlay;isolation: isolate"/>
      <rect id="Rectangle_373-2" data-name="Rectangle 373" width="0.348" height="12.047" transform="translate(36.16 4.517)" fill="#0d3547" opacity="0.4" style="mix-blend-mode: multiply;isolation: isolate"/>
      <rect id="Rectangle_374-2" data-name="Rectangle 374" width="0.348" height="12.047" transform="translate(42.848 4.517)" fill="#0d3547" opacity="0.4" style="mix-blend-mode: multiply;isolation: isolate"/>
      <rect id="Rectangle_375-2" data-name="Rectangle 375" width="0.348" height="12.047" transform="translate(79.956 4.517)" fill="#0d3547" opacity="0.4" style="mix-blend-mode: multiply;isolation: isolate"/>
      <rect id="Rectangle_376-2" data-name="Rectangle 376" width="0.348" height="12.047" transform="translate(86.643 4.517)" fill="#0d3547" opacity="0.4" style="mix-blend-mode: multiply;isolation: isolate"/>
      <rect id="Rectangle_377-2" data-name="Rectangle 377" width="2.258" height="0.747" transform="translate(20.774 16.191)" fill="#dedfe0"/>
      <rect id="Rectangle_378-2" data-name="Rectangle 378" width="2.258" height="0.747" transform="translate(75.9 16.191)" fill="#dedfe0"/>
    </g>
    <g transform="matrix(1, 0, 0, 1, 1233.06, 2455.31)" filter="url(#Ellipse_25)">
      <g id="Ellipse_25-2" data-name="Ellipse 25" transform="translate(84.94 15.69)" fill="none" stroke="#ed1556" stroke-width="11" opacity="0.352">
        <circle cx="1" cy="1" r="1" stroke="none"/>
        <circle cx="1" cy="1" r="4.5" fill="none"/>
      </g>
    </g>
    <text id="_" data-name="+" transform="matrix(0.695, 0.719, -0.719, 0.695, 1322.354, 2474.035)" fill="#f6ae39" font-size="3" font-family="SegoeUI, Segoe UI"><tspan x="0" y="0">+</tspan></text>
    <path id="Path_4108" data-name="Path 4108" d="M582.083,131.326a1.46,1.46,0,0,0,1.443-1.691,1.812,1.812,0,0,0-.337-.829,2.068,2.068,0,0,0-1.807-.735,2.642,2.642,0,0,0-3.932-1.979,2.814,2.814,0,0,0-1.28,2.214,1.863,1.863,0,0,0-1.584.677c-.021.026-.041.053-.061.081a1.455,1.455,0,0,0,1.221,2.262Z" transform="translate(707.73 2329.557)" fill="#ed1556" opacity="0.117"/>
    <path id="Path_4370" data-name="Path 4370" d="M582.083,131.326a1.46,1.46,0,0,0,1.443-1.691,1.812,1.812,0,0,0-.337-.829,2.068,2.068,0,0,0-1.807-.735,2.642,2.642,0,0,0-3.932-1.979,2.814,2.814,0,0,0-1.28,2.214,1.863,1.863,0,0,0-1.584.677c-.021.026-.041.053-.061.081a1.455,1.455,0,0,0,1.221,2.262Z" transform="translate(799.045 2330.447)" fill="#ed1556" opacity="0.117"/>
  </g>
</svg>
