<?xml version="1.0" encoding="utf-8"?><svg viewBox="0 0 28.948 25.397" xmlns="http://www.w3.org/2000/svg" xmlns:xlink="http://www.w3.org/1999/xlink"><style>:root>svg{display:none}:root>svg:target{display:block}</style><svg viewBox="0 0 25.126 25.397" id="ic_service1" xmlns="http://www.w3.org/2000/svg"><path data-name="Path 4059" d="M10.445 6.885a1.973 1.973 0 1 0-1.973-1.973 1.975 1.975 0 0 0 1.973 1.973zm0-3.213a1.24 1.24 0 1 1-1.24 1.24 1.242 1.242 0 0 1 1.24-1.241z"/><path data-name="Path 4060" d="M9.719 21.522a2.258 2.258 0 1 0-2.258-2.258 2.26 2.26 0 0 0 2.258 2.258zm0-3.783a1.525 1.525 0 1 1-1.525 1.525 1.527 1.527 0 0 1 1.525-1.525z"/><path data-name="Path 4061" d="M6.486 6.611A2.394 2.394 0 1 0 8.88 9.005a2.4 2.4 0 0 0-2.394-2.394zm0 4.055a1.661 1.661 0 1 1 1.661-1.661 1.663 1.663 0 0 1-1.661 1.661z"/><path data-name="Path 4062" d="M5.8 17.211a2.394 2.394 0 1 0-2.394-2.394A2.4 2.4 0 0 0 5.8 17.211zm0-4.055a1.661 1.661 0 1 1-1.661 1.661A1.663 1.663 0 0 1 5.8 13.156z"/><path data-name="Path 4063" d="M8.185 24.132a.366.366 0 1 0 .132-.72 6.464 6.464 0 0 1-3.631-2.014C1.855 18.307.595 14.974.94 11.49 1.718 3.627 10.009-.286 17.66 1.243a1.784 1.784 0 0 1 1.466 1.707 1.761 1.761 0 0 1-1.284 1.811 7.052 7.052 0 0 0-3.024 1.668 4.742 4.742 0 0 0-.217 6.329 6.445 6.445 0 0 1 1.443 3.263c-.829 1.885-1.677 4.019-2.334 6a6.629 6.629 0 0 1-3.769 1.489.366.366 0 0 0 .024.732h.024a7.392 7.392 0 0 0 3.353-1.062 1.578 1.578 0 0 0 2.888 1.203 59.657 59.657 0 0 0 2.21-4.379.366.366 0 1 0-.666-.3 58.376 58.376 0 0 1-2.181 4.324.849.849 0 0 1-1.1.347.84.84 0 0 1-.444-1.006 70.837 70.837 0 0 1 3.966-9.849l1.968.843a74.334 74.334 0 0 1-1.515 3.788.366.366 0 0 0 .673.29 60.413 60.413 0 0 0 2.781-7.694.831.831 0 0 0 .49-.46l.317-.74a.836.836 0 0 0 .053-.485 4.928 4.928 0 0 0 1.9-2.116c.546-1.276.183-3.437-.082-4.612a.722.722 0 0 0-1.075-.46c-1.033.619-2.848 1.849-3.394 3.125a4.928 4.928 0 0 0-.216 2.838.835.835 0 0 0-.314.374l-.317.74a.831.831 0 0 0 .005.672 53.252 53.252 0 0 0-2.745 5.279 7.155 7.155 0 0 0-1.384-2.619 3.88 3.88 0 0 1-.926-2.555c0-2.076 1.284-3.513 3.815-4.269a2.47 2.47 0 0 0 1.806-2.547A2.527 2.527 0 0 0 17.799.525C9.739-1.087 1.034 3.102.21 11.417c-.366 3.7.958 7.224 3.935 10.475a7.191 7.191 0 0 0 4.04 2.24zm11.667-14.031l1.326.568c-.239.881-.564 1.9-.95 3l-1.889-.809a41.309 41.309 0 0 1 1.513-2.759zm2.2-.85l-.317.74a.109.109 0 0 1-.143.057l-1.576-.675a.109.109 0 0 1-.057-.143l.317-.74a.109.109 0 0 1 .143-.057l1.576.675a.11.11 0 0 1 .056.143zm-1.247-3.968c.16-.375.782-1.394 3.084-2.777.589 2.62.28 3.774.12 4.148a4.227 4.227 0 0 1-1.667 1.809l-.06-.029-1.576-.675-.062-.024a4.229 4.229 0 0 1 .161-2.452z"/></svg><svg viewBox="0 0 21.867 25.2" id="ic_service2" xmlns="http://www.w3.org/2000/svg"><g data-name="Group 2716"><g data-name="Group 2715"><path data-name="Path 4064" d="M14.267 21.35v-2.083h-.833v1.667h-1.667v.833h2.083a.417.417 0 0 0 .417-.417z"/><path data-name="Path 4065" d="M19.683 5.933h-3.75v-.417a.417.417 0 0 0-.416-.416h-15a.417.417 0 0 0-.417.417v16.667a1.25 1.25 0 0 0 .833 1.173v.493a1.25 1.25 0 0 0 1.25 1.25H13.85a1.25 1.25 0 0 0 1.25-1.25v-.493a1.25 1.25 0 0 0 .833-1.173V15.1h3.75a2.086 2.086 0 0 0 2.083-2.083v-5a2.086 2.086 0 0 0-2.083-2.084zM14.267 23.85a.417.417 0 0 1-.417.417H2.183a.417.417 0 0 1-.417-.417v-.417h12.5zm.833-1.667a.417.417 0 0 1-.417.417H1.35a.417.417 0 0 1-.417-.417V5.933H15.1zm.833-13.75h2.917a.417.417 0 0 1 .417.417v3.333a.417.417 0 0 1-.417.417h-2.917zm5 4.583a1.25 1.25 0 0 1-1.25 1.25h-3.75v-.833h2.917a1.25 1.25 0 0 0 1.25-1.25V8.85a1.25 1.25 0 0 0-1.25-1.25h-2.917v-.833h3.75a1.25 1.25 0 0 1 1.25 1.25z"/><path data-name="Path 4066" d="M7.267 4.267H8.1c0-.171.056-.238.217-.406a1.3 1.3 0 0 0 0-1.967c-.162-.167-.217-.235-.217-.406s.056-.237.217-.405A1.311 1.311 0 0 0 8.767.1h-.833c0 .17-.056.237-.217.405a1.3 1.3 0 0 0 0 1.966c.162.167.217.235.217.406s-.056.238-.217.406a1.313 1.313 0 0 0-.45.984z"/><path data-name="Path 4067" d="M4.833 4.266h.833c0-.1.025-.135.15-.266a1.122 1.122 0 0 0 0-1.688c-.12-.125-.151-.162-.151-.267s.031-.143.151-.268a1.137 1.137 0 0 0 .383-.844h-.833c0 .106-.031.143-.151.267a1.123 1.123 0 0 0 0 1.688c.12.125.151.162.151.267s-.025.135-.15.266a1.134 1.134 0 0 0-.383.845z"/><path data-name="Path 4068" d="M9.833 4.266h.833c0-.1.025-.135.15-.266a1.122 1.122 0 0 0 0-1.688c-.12-.125-.151-.162-.151-.267s.031-.143.151-.268a1.137 1.137 0 0 0 .383-.844h-.833c0 .106-.031.143-.151.267a1.123 1.123 0 0 0 0 1.688c.12.125.151.162.151.267s-.025.135-.15.266a1.134 1.134 0 0 0-.383.845z"/></g></g></svg><svg viewBox="0 0 26.166 19.88" id="ic_service3" xmlns="http://www.w3.org/2000/svg"><path d="M25.13 7.001h-3.4V1.036a.786.786 0 0 0-.79-.786H1.036a.786.786 0 0 0-.786.786v11.057a.786.786 0 0 0 .786.786h3.4v5.966a.786.786 0 0 0 .786.786h19.9a.786.786 0 0 0 .786-.786V7.787a.786.786 0 0 0-.778-.786zm-20.69.786v3.521H1.821V1.821H20.15v5.18H5.226a.786.786 0 0 0-.786.786zm19.9 10.272H6.012V8.573h18.333zm-8.381-6.314a.786.786 0 0 1 .786-.786h4.714a.786.786 0 1 1 0 1.571H16.75a.786.786 0 0 1-.786-.785zm0 3.143a.786.786 0 0 1 .786-.786h2.1a.786.786 0 0 1 0 1.571H16.75a.786.786 0 0 1-.786-.786zm-5.238 1.048a2.619 2.619 0 1 0-2.619-2.619 2.622 2.622 0 0 0 2.624 2.618zm0-3.667a1.048 1.048 0 1 1-1.048 1.048 1.049 1.049 0 0 1 1.053-1.049z"/></svg><svg viewBox="0 0 21.2 23.676" id="ic_service4" xmlns="http://www.w3.org/2000/svg"><g data-name="Group 2718"><g data-name="Group 2717"><path data-name="Path 4069" d="M7.253 5.97a3.76 3.76 0 1 0 3.76 3.76 3.764 3.764 0 0 0-3.76-3.76zm0 6.6a2.843 2.843 0 1 1 2.843-2.843 2.846 2.846 0 0 1-2.843 2.845z"/></g></g><g data-name="Group 2720"><g data-name="Group 2719"><path data-name="Path 4070" d="M10.924 15.524a.458.458 0 1 0 .134.324.461.461 0 0 0-.134-.324z"/></g></g><g data-name="Group 2722"><g data-name="Group 2721"><path data-name="Path 4071" d="M8.915 15.39H3.906a.459.459 0 1 0 0 .917h5.009a.459.459 0 0 0 0-.917z"/></g></g><g data-name="Group 2724"><g data-name="Group 2723"><path data-name="Path 4072" d="M10.6 17.481H3.906a.459.459 0 1 0 0 .917H10.6a.459.459 0 1 0 0-.917z"/></g></g><g data-name="Group 2726"><g data-name="Group 2725"><path data-name="Path 4073" d="M10.599 19.573H5.716a.459.459 0 1 0 0 .917h4.883a.459.459 0 1 0 0-.917z"/></g></g><g data-name="Group 2728"><g data-name="Group 2727"><path data-name="Path 4074" d="M4.23 19.707a.458.458 0 1 0 .134.324.461.461 0 0 0-.134-.324z"/></g></g><g data-name="Group 2730"><g data-name="Group 2729"><path data-name="Path 4075" d="M20.641.1H7.253a.459.459 0 0 0-.459.459v2.018H.559a.459.459 0 0 0-.459.458v20.082a.459.459 0 0 0 .459.459h13.388a.459.459 0 0 0 .459-.459V21.1h6.236a.459.459 0 0 0 .458-.459V.559A.459.459 0 0 0 20.641.1zm-7.153 22.559H1.017V3.494h12.471zm6.695-2.476h-5.778V3.035a.459.459 0 0 0-.459-.459H7.712V1.017h12.471z"/></g></g></svg><svg viewBox="0 0 20.508 25" id="ic_service5" xmlns="http://www.w3.org/2000/svg"><g data-name="flyer (1)"><g data-name="Group 2732"><g data-name="Group 2731"><path data-name="Path 4076" d="M20.019 5.42a.488.488 0 0 0 .488-.488V.488a.488.488 0 0 0-.638-.465l-9.616 3.1L.638.023a.488.488 0 0 0-.639.465v20.874a.488.488 0 0 0 .338.465l9.766 3.149a.488.488 0 0 0 .3 0l9.766-3.149a.488.488 0 0 0 .338-.465V8.9a.489.489 0 1 0-.977 0v12.107l-8.789 2.834V3.993l8.789-2.834v3.773a.488.488 0 0 0 .489.488zM9.766 23.841L.977 21.007V1.159l8.789 2.834z"/></g></g><g data-name="Group 2734"><g data-name="Group 2733"><path data-name="Path 4077" d="M20.378 6.55a.444.444 0 1 0 .13.314.448.448 0 0 0-.13-.314z"/></g></g><g data-name="Group 2736"><g data-name="Group 2735"><path data-name="Path 4078" d="M7.302 5.761L2.749 4.293a.444.444 0 0 0-.581.423v5.075a.445.445 0 0 0 .308.423l4.553 1.468a.444.444 0 0 0 .581-.423V6.183a.445.445 0 0 0-.308-.422zm-.581 4.889L3.057 9.468V5.325l3.664 1.181z"/></g></g><g data-name="Group 2738"><g data-name="Group 2737"><path data-name="Path 4079" d="M7.302 14.283l-4.553-1.468a.444.444 0 1 0-.273.846l4.553 1.468a.444.444 0 0 0 .559-.287.445.445 0 0 0-.286-.559z"/></g></g><g data-name="Group 2740"><g data-name="Group 2739"><path data-name="Path 4080" d="M7.302 17.012l-4.553-1.468a.444.444 0 1 0-.273.846l4.553 1.468a.445.445 0 0 0 .273-.846z"/></g></g><g data-name="Group 2742"><g data-name="Group 2741"><path data-name="Path 4081" d="M7.302 19.742l-4.553-1.468a.444.444 0 1 0-.273.846l4.553 1.468a.444.444 0 1 0 .273-.846z"/></g></g><g data-name="Group 2744"><g data-name="Group 2743"><path data-name="Path 4082" d="M18.15 13.117a.444.444 0 0 0-.4-.064l-4.553 1.468a.444.444 0 0 0-.308.423v5.076a.444.444 0 0 0 .444.444.452.452 0 0 0 .136-.021l4.553-1.468a.445.445 0 0 0 .308-.423v-5.077a.445.445 0 0 0-.18-.358zm-.706 5.112L13.78 19.41v-4.142l3.664-1.181z"/></g></g><g data-name="Group 2746"><g data-name="Group 2745"><path data-name="Path 4083" d="M18.312 9.902a.445.445 0 0 0-.56-.287l-4.553 1.468a.445.445 0 1 0 .273.846l4.553-1.468a.444.444 0 0 0 .287-.559z"/></g></g><g data-name="Group 2748"><g data-name="Group 2747"><path data-name="Path 4084" d="M18.312 7.172a.445.445 0 0 0-.56-.287l-4.553 1.468a.445.445 0 1 0 .273.846l4.553-1.472a.445.445 0 0 0 .287-.555z"/></g></g><g data-name="Group 2750"><g data-name="Group 2749"><path data-name="Path 4085" d="M18.312 4.442a.445.445 0 0 0-.56-.287l-4.553 1.471a.444.444 0 1 0 .273.846l4.553-1.468a.445.445 0 0 0 .287-.562z"/></g></g></g></svg><svg viewBox="0 0 28.948 25" id="ic_service6" xmlns="http://www.w3.org/2000/svg"><g data-name="flyer (2)"><g data-name="Group 2752"><g data-name="Group 2751"><path data-name="Path 4086" d="M28.219 8.555l-1.457-1.259a.433.433 0 1 0-.566.655l1.457 1.259a1.246 1.246 0 0 1 .128 1.756L18.32 21.914a.433.433 0 0 0 .655.566l9.462-10.948a2.112 2.112 0 0 0-.218-2.977z"/></g></g><g data-name="Group 2754"><g data-name="Group 2753"><path data-name="Path 4087" d="M25.654 6.337L18.915.513a2.11 2.11 0 0 0-2.976.217l-.642.743a.433.433 0 0 0 .655.566l.642-.743a1.245 1.245 0 0 1 1.755-.128l6.739 5.824a.433.433 0 1 0 .566-.655z"/></g></g><g data-name="Group 2756"><g data-name="Group 2755"><path data-name="Path 4088" d="M21.547 4.808L9.889.898a2.112 2.112 0 0 0-2.671 1.329l-.154.458a.433.433 0 1 0 .82.275l.154-.458a1.246 1.246 0 0 1 1.576-.784l11.658 3.91a1.246 1.246 0 0 1 .784 1.576l-5.424 16.172a.433.433 0 1 0 .82.275L22.876 7.48a2.112 2.112 0 0 0-1.329-2.672z"/></g></g><g data-name="Group 2758"><g data-name="Group 2757"><path data-name="Path 4089" d="M14.406 3.723H2.11A2.112 2.112 0 0 0 0 5.833V22.89A2.112 2.112 0 0 0 2.11 25h12.3a2.112 2.112 0 0 0 2.11-2.11V5.833a2.112 2.112 0 0 0-2.114-2.11zm1.245 19.167a1.246 1.246 0 0 1-1.245 1.245H2.11A1.246 1.246 0 0 1 .865 22.89V5.833A1.246 1.246 0 0 1 2.11 4.588h12.3a1.246 1.246 0 0 1 1.245 1.245V22.89z"/></g></g><g data-name="Group 2760"><g data-name="Group 2759"><path data-name="Path 4090" d="M14.631 15.664H1.885a.433.433 0 0 0 0 .865h12.746a.433.433 0 1 0 0-.865z"/></g></g><g data-name="Group 2762"><g data-name="Group 2761"><path data-name="Path 4091" d="M12.614 18.138H7.257a.433.433 0 1 0 0 .865h5.357a.433.433 0 1 0 0-.865z"/></g></g><g data-name="Group 2764"><g data-name="Group 2763"><path data-name="Path 4092" d="M5.815 18.138H3.902a.433.433 0 1 0 0 .865h1.913a.433.433 0 1 0 0-.865z"/></g></g><g data-name="Group 2766"><g data-name="Group 2765"><path data-name="Path 4093" d="M12.615 19.792H3.902a.433.433 0 1 0 0 .865h8.713a.433.433 0 1 0 0-.865z"/></g></g><g data-name="Group 2768"><g data-name="Group 2767"><path data-name="Path 4094" d="M12.615 21.446H3.902a.433.433 0 1 0 0 .865h8.713a.433.433 0 1 0 0-.865z"/></g></g><g data-name="Group 2770"><g data-name="Group 2769"><path data-name="Path 4095" d="M13.014 8.739a.432.432 0 0 0-.349-.294l-2.776-.4-1.242-2.516a.433.433 0 0 0-.776 0L6.629 8.045l-2.776.4a.433.433 0 0 0-.24.738l2.009 1.958-.474 2.765a.433.433 0 0 0 .628.456l2.483-1.306 2.483 1.306a.433.433 0 0 0 .628-.456l-.474-2.765 2.006-1.955a.433.433 0 0 0 .112-.447zm-2.885 1.941a.433.433 0 0 0-.124.383l.365 2.125-1.909-1a.433.433 0 0 0-.4 0l-1.909 1 .365-2.125a.433.433 0 0 0-.124-.383L4.849 9.175l2.134-.31a.433.433 0 0 0 .326-.237l.954-1.934.954 1.934a.433.433 0 0 0 .326.237l2.134.31z"/></g></g></g></svg><svg viewBox="0 0 26.142 23.037" id="ic_service7" xmlns="http://www.w3.org/2000/svg"><path data-name="Path 4096" d="M25.14 1.75h-2.3V.999a.751.751 0 1 0-1.5 0v.751h-4.513V.999a.751.751 0 1 0-1.5 0v.751h-4.51V.999a.751.751 0 1 0-1.5 0v.751h-4.51V.999a.751.751 0 1 0-1.5 0v.751H1.001a.751.751 0 0 0-.751.754v19.531a.751.751 0 0 0 .751.751H25.14a.751.751 0 0 0 .751-.751V2.504a.751.751 0 0 0-.751-.754zm-.751 19.532H1.75V7.762h22.639zm0-15.024H1.75V3.25h1.555v.751a.751.751 0 0 0 1.5 0V3.25h4.51v.751a.751.751 0 0 0 1.5 0V3.25h4.507v.751a.751.751 0 0 0 1.5 0V3.25h4.507v.751a.751.751 0 0 0 1.5 0V3.25h1.553z"/><path data-name="Path 4097" d="M5.027 13.552a.751.751 0 0 0 1.062 0l3-3A.751.751 0 0 0 8.027 9.49l-2.474 2.474-.971-.971a.751.751 0 0 0-1.062 1.062z"/><path data-name="Path 4098" d="M5.027 19.562a.751.751 0 0 0 1.062 0l3-3A.751.751 0 0 0 8.027 15.5l-2.474 2.474-.971-.971a.751.751 0 0 0-1.062 1.062z"/><path data-name="Path 4099" d="M11.788 13.552a.751.751 0 0 0 1.062 0l3-3a.751.751 0 0 0-1.062-1.062l-2.474 2.474-.971-.971a.751.751 0 0 0-1.062 1.062z"/><path data-name="Path 4100" d="M18.549 13.552a.751.751 0 0 0 1.062 0l3-3a.751.751 0 0 0-1.062-1.062l-2.474 2.474-.971-.971a.751.751 0 0 0-1.062 1.062z"/><path data-name="Path 4101" d="M14.573 16.777h-3a.751.751 0 1 0 0 1.5h3a.751.751 0 1 0 0-1.5z"/><path data-name="Path 4102" d="M21.334 16.777h-3a.751.751 0 1 0 0 1.5h3a.751.751 0 1 0 0-1.5z"/></svg><svg viewBox="0 0 24.706 24.706" id="ic_service8" xmlns="http://www.w3.org/2000/svg"><g data-name="Group 2772"><g data-name="Group 2771"><path data-name="Path 4103" d="M21.747 11.536h-2.859V2.959a.408.408 0 0 0-.143-.31L15.886.2a.408.408 0 0 0-.266-.1H6.226a.408.408 0 0 0-.408.408v11.028H2.959A2.862 2.862 0 0 0 .1 14.4v5.718a.408.408 0 0 0 .408.408h3.624a.408.408 0 0 0 0-.817H.917V14.4a2.045 2.045 0 0 1 2.042-2.042h18.788a2.045 2.045 0 0 1 2.042 2.042v5.3h-2.864a.408.408 0 0 0 0 .817H24.2a.408.408 0 0 0 .408-.408V14.4a2.862 2.862 0 0 0-2.861-2.864zm-3.676 0H6.635V.917h8.834l2.6 2.23z"/></g></g><g data-name="Group 2774"><g data-name="Group 2773"><path data-name="Path 4104" d="M20.917 24.098l-1.635-6.534a.408.408 0 0 0-.4-.31H6.226a.408.408 0 0 0-.4.31l-1.634 6.535a.408.408 0 0 0 .4.507h15.929a.408.408 0 0 0 .4-.507zm-15.8-.31l1.43-5.718h12.021l1.43 5.718z"/></g></g><g data-name="Group 2776"><g data-name="Group 2775"><path data-name="Path 4105" d="M17.254 20.93h-9.8a.408.408 0 0 0 0 .817h9.8a.408.408 0 1 0 0-.817z"/></g></g><g data-name="Group 2778"><g data-name="Group 2777"><path data-name="Path 4106" d="M17.254 22.155h-9.8a.408.408 0 0 0 0 .817h9.8a.408.408 0 1 0 0-.817z"/></g></g><g data-name="Group 2780"><g data-name="Group 2779"><path data-name="Path 4107" d="M19.705 15.62h-14.7a.408.408 0 1 0 0 .817h14.7a.408.408 0 1 0 0-.817z"/></g></g></svg></svg>