<svg xmlns="http://www.w3.org/2000/svg" width="24.546" height="22.625" viewBox="0 0 24.546 22.625">
  <g id="Group_5702" data-name="Group 5702" transform="translate(-371 -5073.278)">
    <g id="catalog_1_" data-name="catalog (1)" transform="translate(371 5053.248)">
      <g id="Group_5470" data-name="Group 5470" transform="translate(5.347 20.031)">
        <g id="Group_5469" data-name="Group 5469" transform="translate(0 0)">
          <path id="Path_8705" data-name="Path 8705" d="M112.348,20.171a.479.479,0,1,0,.14.339A.482.482,0,0,0,112.348,20.171Z" transform="translate(-111.53 -20.031)" fill="#0e34c4"/>
        </g>
      </g>
      <g id="Group_5472" data-name="Group 5472" transform="translate(0 20.031)">
        <g id="Group_5471" data-name="Group 5471" transform="translate(0 0)">
          <path id="Path_8706" data-name="Path 8706" d="M23.108,20.031H7.79a.479.479,0,1,0,0,.959H23.108a.48.48,0,0,1,.479.479v2.685a.48.48,0,0,1-.479.479H1.438a.48.48,0,0,1-.479-.479V21.469a.48.48,0,0,1,.479-.479H3.667a.479.479,0,1,0,0-.959H1.438A1.44,1.44,0,0,0,0,21.469v2.685A1.441,1.441,0,0,0,.959,25.51V41.218A1.44,1.44,0,0,0,2.4,42.656H22.149a1.44,1.44,0,0,0,1.438-1.438V25.51a1.44,1.44,0,0,0,.959-1.356V21.469A1.44,1.44,0,0,0,23.108,20.031Zm-.479,21.187a.48.48,0,0,1-.479.479H2.4a.48.48,0,0,1-.479-.479V25.592H22.628Z" transform="translate(0 -20.031)" fill="#0e34c4"/>
        </g>
      </g>
      <g id="Group_5474" data-name="Group 5474" transform="translate(4.261 26.551)">
        <g id="Group_5473" data-name="Group 5473" transform="translate(0 0)">
          <path id="Path_8707" data-name="Path 8707" d="M93.191,156.031a4.32,4.32,0,0,0-4.315,4.315.479.479,0,0,0,.818.339,1.33,1.33,0,0,1,1.879,0,.48.48,0,0,0,.678,0,1.321,1.321,0,0,1,.46-.3v3.533a.5.5,0,0,1-.995,0,.479.479,0,1,0-.959,0,1.456,1.456,0,0,0,2.913,0v-3.533a1.32,1.32,0,0,1,.46.3.48.48,0,0,0,.678,0,1.33,1.33,0,0,1,1.879,0,.479.479,0,0,0,.818-.339A4.32,4.32,0,0,0,93.191,156.031Zm1.278,3.7a2.294,2.294,0,0,0-2.557,0,2.3,2.3,0,0,0-1.953-.288,3.356,3.356,0,0,1,6.463,0A2.3,2.3,0,0,0,94.469,159.727Z" transform="translate(-88.876 -156.031)" fill="#0e34c4"/>
        </g>
      </g>
      <g id="Group_5476" data-name="Group 5476" transform="translate(15.107 26.551)">
        <g id="Group_5475" data-name="Group 5475" transform="translate(0 0)">
          <path id="Path_8708" data-name="Path 8708" d="M319.821,156.03H315.6a.479.479,0,0,0-.479.479v3.516a2.593,2.593,0,0,0,2.109,2.544v1.846h-.806a.479.479,0,0,0,0,.959H319a.479.479,0,0,0,0-.959h-.806v-1.846a2.593,2.593,0,0,0,2.109-2.544v-3.516A.479.479,0,0,0,319.821,156.03Zm-.479,4a1.63,1.63,0,1,1-3.26,0v-3.036h1.736l-.667,1.463a.479.479,0,0,0,.436.678h.184l-.234.547a.479.479,0,1,0,.882.377l.519-1.214a.479.479,0,0,0-.441-.668h-.165l.539-1.183h.471Z" transform="translate(-315.123 -156.03)" fill="#0e34c4"/>
        </g>
      </g>
      <g id="Group_5478" data-name="Group 5478" transform="translate(17.371 39.399)">
        <g id="Group_5477" data-name="Group 5477">
          <path id="Path_8709" data-name="Path 8709" d="M363.148,424.171a.479.479,0,1,0,.14.339A.482.482,0,0,0,363.148,424.171Z" transform="translate(-362.33 -424.031)" fill="#0e34c4"/>
        </g>
      </g>
      <g id="Group_5480" data-name="Group 5480" transform="translate(11.794 39.399)">
        <g id="Group_5479" data-name="Group 5479">
          <path id="Path_8710" data-name="Path 8710" d="M249.792,424.031h-3.312a.479.479,0,1,0,0,.959h3.312a.479.479,0,1,0,0-.959Z" transform="translate(-246 -424.031)" fill="#0e34c4"/>
        </g>
      </g>
      <g id="Group_5482" data-name="Group 5482" transform="translate(11.796 37.482)">
        <g id="Group_5481" data-name="Group 5481" transform="translate(0 0)">
          <path id="Path_8711" data-name="Path 8711" d="M254.062,384.031h-7.53a.479.479,0,0,0,0,.959h7.53a.479.479,0,0,0,0-.959Z" transform="translate(-246.052 -384.031)" fill="#0e34c4"/>
        </g>
      </g>
    </g>
  </g>
</svg>
