<svg xmlns="http://www.w3.org/2000/svg" width="26.47" height="26.47" viewBox="0 0 26.47 26.47">
  <g id="Group_5701" data-name="Group 5701" transform="translate(-369 -5028.397)">
    <g id="product_1_" data-name="product (1)" transform="translate(369 5028.397)">
      <g id="Group_5460" data-name="Group 5460" transform="translate(1.765 15)">
        <g id="Group_5459" data-name="Group 5459">
          <path id="Path_8701" data-name="Path 8701" d="M39.5,272H32.441a.441.441,0,0,0-.441.441V279.5a.441.441,0,0,0,.441.441H39.5a.441.441,0,0,0,.441-.441v-7.059A.441.441,0,0,0,39.5,272Zm-.441,7.059H32.882v-6.176h6.176Z" transform="translate(-32 -272)" fill="#0e34c4"/>
        </g>
      </g>
      <g id="Group_5462" data-name="Group 5462">
        <g id="Group_5461" data-name="Group 5461">
          <path id="Path_8702" data-name="Path 8702" d="M22.884,0H5.735a.441.441,0,0,0-.441.441V8.823H2.206a.441.441,0,0,0-.441.441v1.768a1.551,1.551,0,0,1-.724,1.261A2.86,2.86,0,0,0,0,14.852V26.029a.441.441,0,0,0,.441.441H26.029a.441.441,0,0,0,.441-.441V3.586A3.59,3.59,0,0,0,22.884,0ZM2.647,9.706H8.823v1.323H2.647Zm7.941,15.882H.882V14.852a2.106,2.106,0,0,1,.634-1.815,2.486,2.486,0,0,0,.949-1.126H9a2.485,2.485,0,0,0,.949,1.125,2.106,2.106,0,0,1,.634,1.816Zm-.159-13.294a1.551,1.551,0,0,1-.724-1.261V9.264a.441.441,0,0,0-.441-.441H8.823V7.941H22.94V18.529H11.47V14.852A2.86,2.86,0,0,0,10.429,12.294ZM25.587,25.587H11.47V19.411H23.382a.441.441,0,0,0,.441-.441V7.5a.441.441,0,0,0-.441-.441h-15a.441.441,0,0,0-.441.441V8.823H6.176V4.412h15V3.529h-15V.882H22.884a2.706,2.706,0,0,1,2.7,2.647H23.823v.882h1.765Z" fill="#0e34c4"/>
        </g>
      </g>
      <g id="Group_5464" data-name="Group 5464" transform="translate(11.911 9.264)">
        <g id="Group_5463" data-name="Group 5463">
          <path id="Path_8703" data-name="Path 8703" d="M223.808,170.82a.442.442,0,0,0-.241-.12l-2.206-.337-.991-2.11a.441.441,0,0,0-.8,0l-.991,2.11-2.206.337a.441.441,0,0,0-.249.744l1.609,1.649-.381,2.334a.441.441,0,0,0,.649.457l1.968-1.088,1.968,1.088a.441.441,0,0,0,.649-.457l-.381-2.334,1.609-1.649A.441.441,0,0,0,223.808,170.82Zm-2.388,1.817a.441.441,0,0,0-.12.379l.27,1.657-1.386-.766a.441.441,0,0,0-.427,0l-1.386.766.27-1.657a.441.441,0,0,0-.12-.379l-1.165-1.194,1.59-.243a.442.442,0,0,0,.333-.249l.691-1.473.691,1.473a.442.442,0,0,0,.333.249l1.59.243Z" transform="translate(-216 -167.998)" fill="#0e34c4"/>
        </g>
      </g>
      <g id="Group_5466" data-name="Group 5466" transform="translate(3.529 16.764)">
        <g id="Group_5465" data-name="Group 5465">
          <path id="Path_8704" data-name="Path 8704" d="M68.277,305.472a.441.441,0,0,0-.242-.12l-.987-.151-.445-.949a.441.441,0,0,0-.8,0l-.445.949-.987.151a.441.441,0,0,0-.249.744l.727.745-.172,1.057a.441.441,0,0,0,.649.457l.877-.485.877.485a.441.441,0,0,0,.649-.457l-.172-1.057.727-.745A.441.441,0,0,0,68.277,305.472Zm-1.506.912a.441.441,0,0,0-.12.379l.062.38-.3-.163a.441.441,0,0,0-.427,0l-.3.163.062-.38a.441.441,0,0,0-.12-.379l-.283-.29.371-.056a.441.441,0,0,0,.333-.249l.146-.311.146.311a.442.442,0,0,0,.333.249l.371.056Z" transform="translate(-63.998 -303.999)" fill="#0e34c4"/>
        </g>
      </g>
      <g id="Group_5468" data-name="Group 5468" transform="translate(22.151 3.75)">
        <g id="Group_5467" data-name="Group 5467" transform="translate(0 0)">
          <rect id="Rectangle_2004" data-name="Rectangle 2004" width="1" height="1" transform="translate(-0.151 -0.148)" fill="#0e34c4"/>
        </g>
      </g>
    </g>
  </g>
</svg>
