<svg xmlns="http://www.w3.org/2000/svg" width="31.173" height="20.782" viewBox="0 0 31.173 20.782">
  <g id="Group_5700" data-name="Group 5700" transform="translate(-367 -4985.982)">
    <g id="visual-merchandising" transform="translate(351 4913.982)">
      <path id="Path_8697" data-name="Path 8697" d="M46.653,72H16.52a.52.52,0,0,0-.52.52V92.262a.52.52,0,0,0,.52.52H33.145a.516.516,0,0,0,.232-.055h0l1.968-.984h5.989l1.968.984h0a.516.516,0,0,0,.232.055h3.117a.52.52,0,0,0,.52-.52V72.52a.52.52,0,0,0-.52-.52ZM17.039,73.039H46.134v5.715H17.039Zm18.7,9.871h2.078V90.7H35.743Zm3.117,0h2.078V90.7H38.86Zm-3.117-1.039V79.793h5.2v2.078Zm-18.7-2.078h7.274v11.95H17.039Zm15.586,11.95H25.352V79.793h7.274Zm1.039-.321V79.793H34.7V90.9Zm8.313-11.628h1.039V91.422l-1.039-.52Zm4.156,11.95H44.056V79.793h2.078Z" transform="translate(0)" fill="#0e34c4"/>
      <path id="Path_8698" data-name="Path 8698" d="M45.879,219.663l-1.559-.52a.521.521,0,0,0-.164-.027h-.52v-.546a1.3,1.3,0,0,0-.26-2.572H42.6v1.039h.779a.26.26,0,1,1,0,.52h-.26a.52.52,0,0,0-.52.52v1.039h-.52a.521.521,0,0,0-.164.027l-1.559.52a.52.52,0,0,0-.355.493v1.559a.52.52,0,0,0,.52.52h.52v2.078a.52.52,0,0,0,.52.52h3.117a.52.52,0,0,0,.52-.52v-2.078h.52a.52.52,0,0,0,.52-.52v-1.559a.52.52,0,0,0-.355-.493ZM45.2,221.2h-.52a.52.52,0,0,0-.52.52v2.078H42.078v-2.078a.52.52,0,0,0-.52-.52h-.52v-.665l1.123-.374h1.91l1.123.374Z" transform="translate(-22.441 -134.648)" fill="#0e34c4"/>
      <path id="Path_8699" data-name="Path 8699" d="M176.52,224.832h1.039a.519.519,0,0,0,.482-.327l.557-1.392.557,1.392a.519.519,0,0,0,.482.327h1.039a.52.52,0,0,0,.52-.52v-4.676a.52.52,0,0,0-.52-.52h-1.559v-.546a1.3,1.3,0,0,0-.26-2.572h-.779v1.039h.779a.26.26,0,1,1,0,.52h-.26a.52.52,0,0,0-.52.52v1.039H176.52a.52.52,0,0,0-.52.52v4.676a.52.52,0,0,0,.52.52Zm.52-4.676h3.117v3.637h-.168l-.908-2.271a.52.52,0,0,0-.965,0l-.908,2.271h-.168Z" transform="translate(-149.609 -134.648)" fill="#0e34c4"/>
      <rect id="Rectangle_2001" data-name="Rectangle 2001" width="2" height="1" transform="translate(22 76.018)" fill="#0e34c4"/>
      <rect id="Rectangle_2002" data-name="Rectangle 2002" width="7" height="1" transform="translate(25 76.018)" fill="#0e34c4"/>
      <rect id="Rectangle_2003" data-name="Rectangle 2003" width="5" height="1" transform="translate(32 76.018)" fill="#0e34c4"/>
      <path id="Path_8700" data-name="Path 8700" d="M50.6,104H48.52a.52.52,0,0,0-.52.52V106.6a.52.52,0,0,0,.52.52H50.6a.52.52,0,0,0,.52-.52V104.52a.52.52,0,0,0-.52-.52Zm-.52,2.078H49.039v-1.039h1.039Z" transform="translate(-29.922 -29.922)" fill="#0e34c4"/>
    </g>
  </g>
</svg>
