<svg xmlns="http://www.w3.org/2000/svg" width="26.557" height="27" viewBox="0 0 26.557 27">
  <g id="Group_5680" data-name="Group 5680" transform="translate(-577 -5214)">
    <g id="social-media-marketing" transform="translate(575 5213)">
      <path id="Path_8727" data-name="Path 8727" d="M17.492,41.738h-.885V37.4a.443.443,0,0,0-.885,0v4.338H4.213V32.885H7.9A.443.443,0,0,0,7.9,32H3.77a.443.443,0,0,0-.443.443v9.3H2.443A.443.443,0,0,0,2,42.18v.885a2.213,2.213,0,0,0,2.213,2.213H15.721a2.213,2.213,0,0,0,2.213-2.213V42.18A.443.443,0,0,0,17.492,41.738Zm-.443,1.328a1.328,1.328,0,0,1-1.328,1.328h-.885v-.443a.443.443,0,0,0-.885,0v.443H5.984v-.443a.443.443,0,0,0-.885,0v.443H4.213a1.328,1.328,0,0,1-1.328-1.328v-.443H17.049Z" transform="translate(0 -17.279)" fill="#0e34c4"/>
      <path id="Path_8728" data-name="Path 8728" d="M51.213,6.885H52.1A.443.443,0,1,0,52.1,6h-.885a1.328,1.328,0,0,0-1.328,1.328V7.77h-.443a.443.443,0,1,0,0,.885h.443V9.984a.443.443,0,0,0,.885,0V8.656h.443a.443.443,0,1,0,0-.885H50.77V7.328A.443.443,0,0,1,51.213,6.885Z" transform="translate(-26.197 -2.787)" fill="#0e34c4"/>
      <path id="Path_8729" data-name="Path 8729" d="M50.639,2H45.328A1.328,1.328,0,0,0,44,3.328v.885a.443.443,0,0,0,.885,0V3.328a.443.443,0,0,1,.443-.443h5.311a.443.443,0,0,1,.443.443V8.639a.443.443,0,0,1-.443.443H45.328a.443.443,0,0,1-.443-.443V5.984a.443.443,0,0,0-.885,0V8.639a1.328,1.328,0,0,0,1.328,1.328h5.311a1.328,1.328,0,0,0,1.328-1.328V3.328A1.328,1.328,0,0,0,50.639,2Z" transform="translate(-23.41 -0.557)" fill="#0e34c4"/>
      <path id="Path_8730" data-name="Path 8730" d="M49,39.77A1.77,1.77,0,1,0,50.77,38,1.77,1.77,0,0,0,49,39.77Zm2.656,0a.885.885,0,1,1-.885-.885A.885.885,0,0,1,51.656,39.77Z" transform="translate(-26.197 -20.623)" fill="#0e34c4"/>
      <path id="Path_8731" data-name="Path 8731" d="M50.639,33H45.328A1.328,1.328,0,0,0,44,34.328v5.311a1.328,1.328,0,0,0,1.328,1.328h5.311a1.328,1.328,0,0,0,1.328-1.328v-.885a.443.443,0,0,0-.885,0v.885a.443.443,0,0,1-.443.443H45.328a.443.443,0,0,1-.443-.443V34.328a.443.443,0,0,1,.443-.443h5.311a.443.443,0,0,1,.443.443v2.656a.443.443,0,1,0,.885,0V34.328A1.328,1.328,0,0,0,50.639,33Z" transform="translate(-23.41 -17.836)" fill="#0e34c4"/>
      <path id="Path_8732" data-name="Path 8732" d="M24.208,9.476a.44.44,0,0,0,.434.018L27.3,8.166a.443.443,0,0,0,0-.788L24.642,6.05A.443.443,0,0,0,24,6.444V9.1A.443.443,0,0,0,24.208,9.476Zm.677-2.315,1.222.611-1.222.611Z" transform="translate(-12.262 -2.789)" fill="#0e34c4"/>
      <path id="Path_8733" data-name="Path 8733" d="M21.984,8.967A3.984,3.984,0,1,0,18,4.984a3.984,3.984,0,0,0,3.984,3.984Zm0-7.082a3.1,3.1,0,1,1-3.1,3.1A3.1,3.1,0,0,1,21.984,1.885Z" transform="translate(-8.918)" fill="#0e34c4"/>
      <path id="Path_8734" data-name="Path 8734" d="M36.443,19.656a.443.443,0,0,0,.354-.177l1.328-1.77a.443.443,0,1,0-.708-.531l-1.328,1.77a.443.443,0,0,0,.354.708Z" transform="translate(-18.951 -8.918)" fill="#0e34c4"/>
      <path id="Path_8735" data-name="Path 8735" d="M39.088,24.036a.443.443,0,0,0,.62.089l1.77-1.328a.443.443,0,0,0-.531-.708l-1.77,1.328a.443.443,0,0,0-.089.62Z" transform="translate(-20.623 -11.705)" fill="#0e34c4"/>
      <path id="Path_8736" data-name="Path 8736" d="M45.04,28.341a.443.443,0,0,0-.531-.354L42.3,28.43a.445.445,0,1,0,.089.885h.089l2.213-.443a.443.443,0,0,0,.354-.531Z" transform="translate(-22.237 -15.036)" fill="#0e34c4"/>
      <path id="Path_8737" data-name="Path 8737" d="M2.443,18.967H7.754a.443.443,0,0,0,.443-.443V11.443A.443.443,0,0,0,7.754,11H2.443A.443.443,0,0,0,2,11.443v7.082a.443.443,0,0,0,.443.443Zm.443-7.082H7.311v6.2H2.885Z" transform="translate(0 -5.574)" fill="#0e34c4"/>
      <path id="Path_8738" data-name="Path 8738" d="M9.328,15H8.443a.443.443,0,1,0,0,.885h.885a.443.443,0,1,0,0-.885Z" transform="translate(-3.344 -7.803)" fill="#0e34c4"/>
      <path id="Path_8739" data-name="Path 8739" d="M8.213,19H6.443a.443.443,0,0,0,0,.885h1.77a.443.443,0,0,0,0-.885Z" transform="translate(-2.23 -10.033)" fill="#0e34c4"/>
      <path id="Path_8740" data-name="Path 8740" d="M8.213,23H6.443a.443.443,0,0,0,0,.885h1.77a.443.443,0,0,0,0-.885Z" transform="translate(-2.23 -12.262)" fill="#0e34c4"/>
      <path id="Path_8741" data-name="Path 8741" d="M21.023,25.524a.444.444,0,0,0-.77.443L22.2,29.344,15.123,32h-.066l-1.151.664-.766.443a.884.884,0,0,1-1.208-.323l-.885-1.531a.885.885,0,0,1,.332-1.169L12.91,29.2l1.107,1.917a.444.444,0,1,0,.77-.443L13.644,28.7,19.2,24.117l.181.314a.444.444,0,0,0,.77-.443l-.443-.766a.449.449,0,0,0-.668-.12l-6.2,5.108L10.958,29.3a1.77,1.77,0,0,0-.814,2.005l-.443.252a1.327,1.327,0,0,0,.664,2.479,1.354,1.354,0,0,0,.664-.177l.443-.252a1.717,1.717,0,0,0,.775.46,1.678,1.678,0,0,0,.465.062,1.744,1.744,0,0,0,.885-.239l.385-.221.885,1.536a1.327,1.327,0,1,0,2.3-1.328l-.806-1.4L23,29.982a.444.444,0,0,0,.23-.633ZM10.568,33.089a.442.442,0,1,1-.443-.766l.385-.221.443.766Zm5.825,1.239a.442.442,0,0,1-.766.443l-.885-1.536.735-.42h.035Z" transform="translate(-3.921 -12.264)" fill="#0e34c4"/>
    </g>
  </g>
</svg>
