<svg xmlns="http://www.w3.org/2000/svg" width="24.558" height="24.558" viewBox="0 0 24.558 24.558">
  <g id="Group_5681" data-name="Group 5681" transform="translate(-579 -5257.44)">
    <g id="campaign" transform="translate(579 5257.439)">
      <path id="Path_8742" data-name="Path 8742" d="M401.68,85.332a.614.614,0,1,0,.614.614A.614.614,0,0,0,401.68,85.332Zm0,0" transform="translate(-381.83 -81.238)" fill="#0e34c4"/>
      <path id="Path_8743" data-name="Path 8743" d="M370.907.121a.409.409,0,0,0-.579,0L367.053,3.4a.41.41,0,0,0-.12.289V6.55a.409.409,0,0,0,.409.409h2.865a.409.409,0,0,0,.289-.12l3.274-3.274a.409.409,0,0,0,0-.579Zm-.868,6.02h-2.286V3.854L370.617.989,372.9,3.275Zm0,0" transform="translate(-349.334 0)" fill="#0e34c4"/>
      <path id="Path_8744" data-name="Path 8744" d="M.409,152.024H1.637v.052a1.585,1.585,0,0,0,1.228,1.54v3.728a.409.409,0,0,0,.409.409H5.73a.409.409,0,0,0,.409-.409v-1.637h.413a1.228,1.228,0,0,0,1.225-1.225v-.866a1.583,1.583,0,0,0,1.129-1.007l6.891,3.063a.409.409,0,0,0,.575-.374v-9.823a.409.409,0,0,0-.575-.374l-6.891,3.063a1.582,1.582,0,0,0-1.486-1.051h-4.2A1.586,1.586,0,0,0,1.637,148.7v.052H.409a.409.409,0,0,0-.409.409v2.456A.409.409,0,0,0,.409,152.024Zm13.507-5.192,1.637-.727v8.563l-1.637-.727ZM9,149.016,13.1,147.2v6.383L9,151.758ZM5.321,155.3v1.637H3.684v-3.274H5.321Zm1.637-.815a.406.406,0,0,1-.406.406H6.139v-1.228h.819Zm-4.5-2.868V148.7a.767.767,0,0,1,.766-.766h4.2a.767.767,0,0,1,.766.766v3.379a.767.767,0,0,1-.766.766h-4.2a.767.767,0,0,1-.766-.766ZM.819,149.569h.819v1.637H.819Zm0,0" transform="translate(0 -138.107)" fill="#0e34c4"/>
      <path id="Path_8745" data-name="Path 8745" d="M353.711,333.168a.409.409,0,0,0-.579,0l-2.895,2.895a.409.409,0,0,0,0,.579l4.052,4.052a.409.409,0,0,0,.579,0l2.894-2.894a.409.409,0,0,0,0-.579Zm2.691,3.847-2.31-.177-.178-2.31Zm-1.823,2.809-3.473-3.473,1.976-1.976.221,2.875a.409.409,0,0,0,.376.377l2.875.221Zm0,0" transform="translate(-333.325 -317.073)" fill="#0e34c4"/>
      <path id="Path_8746" data-name="Path 8746" d="M173.4,10.157a2.859,2.859,0,0,0,2.292-4.578l2.5-2.5-.579-.579-2.5,2.5a2.865,2.865,0,1,0-1.712,5.157Zm0-4.912a2.047,2.047,0,1,1-2.047,2.047A2.047,2.047,0,0,1,173.4,5.245Zm0,0" transform="translate(-162.347 -2.379)" fill="#0e34c4"/>
      <path id="Path_8747" data-name="Path 8747" d="M358.812,176.7h2.047v.409a.409.409,0,0,0,.409.409h3.274a.409.409,0,0,0,.409-.409v-2.039a1.642,1.642,0,0,0-1.1-1.544,1.637,1.637,0,1,0-1.9,0,.631.631,0,0,1-1.2.072,1.228,1.228,0,1,0-1.436,0,1.634,1.634,0,0,0-.919,1.464v1.228A.409.409,0,0,0,358.812,176.7Zm4.093-5.321a.819.819,0,1,1-.819.819A.819.819,0,0,1,362.9,171.375Zm-1.228,4.911v-1.22a.828.828,0,0,1,.826-.826h.8a.828.828,0,0,1,.826.826V176.7h-2.456Zm-1.637-4.093a.409.409,0,1,1-.409.409A.409.409,0,0,1,360.039,172.193Zm-.819,2.865a.819.819,0,0,1,1.637,0v.819h-1.637Zm0,0" transform="translate(-341.212 -162.369)" fill="#0e34c4"/>
      <path id="Path_8748" data-name="Path 8748" d="M149.57,349.867h-1.637a.409.409,0,0,0-.289.12l-2.456,2.456a.409.409,0,0,0,0,.579l4.5,4.5a.409.409,0,0,0,.579,0l3.274-3.274a.41.41,0,0,0,0-.579l-3.684-3.684A.409.409,0,0,0,149.57,349.867Zm.409,6.789-3.924-3.923,2.046-2.047h1.3l3.274,3.274Zm0,0" transform="translate(-138.109 -333.085)" fill="#0e34c4"/>
      <path id="Path_8749" data-name="Path 8749" d="M198.77,388.137l1.637-1.637.579.579-1.637,1.637Zm0,0" transform="translate(-189.236 -367.961)" fill="#0e34c4"/>
      <path id="Path_8750" data-name="Path 8750" d="M224.363,413.735,226,412.1l.579.579-1.637,1.637Zm0,0" transform="translate(-213.602 -392.331)" fill="#0e34c4"/>
    </g>
  </g>
</svg>
