<svg xmlns="http://www.w3.org/2000/svg" width="21.973" height="15.775" viewBox="0 0 21.973 15.775">
  <g id="Group_5568" data-name="Group 5568" transform="translate(-706.25 -5349.75)">
    <g id="Group_2905" data-name="Group 2905" transform="translate(0 76)">
      <path id="Path_4438" data-name="Path 4438" d="M15.775,21.409V.563A.563.563,0,0,0,15.212,0H.563A.563.563,0,0,0,0,.563V21.409a.563.563,0,0,0,.563.563H15.212A.563.563,0,0,0,15.775,21.409Zm-1.127-.563H1.127V1.127H14.648Z" transform="translate(728.223 5273.75) rotate(90)" fill="#0e34c4"/>
      <path id="Path_4439" data-name="Path 4439" d="M.563,1.127H4.507A.563.563,0,1,0,4.507,0H.563a.563.563,0,1,0,0,1.127Z" transform="translate(709.067 5275.44) rotate(90)" fill="#0e34c4"/>
      <path id="Path_4440" data-name="Path 4440" d="M1.127,0H.563a.563.563,0,1,0,0,1.127h.563A.563.563,0,0,0,1.127,0Z" transform="translate(709.067 5281.074) rotate(90)" fill="#0e34c4"/>
      <path id="Path_4441" data-name="Path 4441" d="M.165,7.159a.563.563,0,0,0,.8,0l6.2-6.2a.563.563,0,1,0-.8-.8l-6.2,6.2A.563.563,0,0,0,.165,7.159Z" transform="translate(724.561 5277.975) rotate(90)" fill="#0e34c4"/>
      <path id="Path_4442" data-name="Path 4442" d="M4.342.165a.563.563,0,0,0-.8,0L.165,3.545a.563.563,0,0,0,.8.8L4.342.962A.563.563,0,0,0,4.342.165Z" transform="translate(718.645 5278.257) rotate(90)" fill="#0e34c4"/>
      <path id="Path_4443" data-name="Path 4443" d="M.165,4.672a.563.563,0,0,0,.8.8L5.469.962a.563.563,0,0,0-.8-.8Z" transform="translate(718.645 5280.511) rotate(90)" fill="#0e34c4"/>
      <path id="Path_4444" data-name="Path 4444" d="M.563,2.535a.562.562,0,0,0,.4-.165L2.37.962a.563.563,0,0,0-.8-.8L.165,1.574a.563.563,0,0,0,.4.962Z" transform="translate(725.688 5276.566) rotate(90)" fill="#0e34c4"/>
      <path id="Path_4445" data-name="Path 4445" d="M.165,2.37a.563.563,0,0,0,.8,0L2.37.962a.563.563,0,0,0-.8-.8L.165,1.574A.563.563,0,0,0,.165,2.37Z" transform="translate(712.166 5285.018) rotate(90)" fill="#0e34c4"/>
    </g>
  </g>
</svg>
