<svg xmlns="http://www.w3.org/2000/svg" width="26.5" height="23.85" viewBox="0 0 26.5 23.85">
  <g id="Group_5631" data-name="Group 5631" transform="translate(-370 -4976.15)">
    <g id="airport" transform="translate(354 4936.15)">
      <path id="Path_8463" data-name="Path 8463" d="M42.058,53.25H40.292a.442.442,0,0,0-.265.088l-2.385,1.789V54.66l1.735-4.338a.442.442,0,0,0-.41-.606H32.342v-.883h.883a.442.442,0,0,0,.442-.442V46.625a.441.441,0,0,0-.363-.434l.334-2L35.3,42.521a.438.438,0,0,0,0-.624h0l-1.767-1.767A.442.442,0,0,0,33.225,40H27.042a.442.442,0,0,0-.312.129L24.963,41.9h0a.438.438,0,0,0,0,.624l1.667,1.667.334,2a.441.441,0,0,0-.363.434v1.767a.442.442,0,0,0,.442.442h.883v.883H16.442a.442.442,0,0,0-.442.442v8.833a.442.442,0,0,0,.442.442h5.4l-.8.459a2.119,2.119,0,0,0,1.051,3.958H34.108a.442.442,0,0,0,.209-.053l1.542-.831h4.431a.442.442,0,0,0,.442-.442v-.883a.442.442,0,0,0-.3-.419l-.823-.274.451-.243a.442.442,0,0,0,.232-.389V59.106l2.153-3.875a.442.442,0,0,0,.056-.215V53.692a.442.442,0,0,0-.442-.442Zm-6.625,3.533V55.017h1.325v.773Zm-2.65,1.767V55.017H34.55v2.429l-1.472,1.1ZM21.3,55.017V58.55H19.533V55.017Zm.883,0H23.95V58.55H22.183Zm2.65,0H26.6V58.55H24.833Zm2.65,0H29.25V58.55H27.483Zm2.65,0H31.9V58.55H30.133Zm-2.276-8.833-.294-1.767h.871l.294,1.767Zm1.767,0-.294-1.767h1.607l-.294,1.767Zm2.208-1.767H32.7l-.294,1.767h-.871Zm-4.608-3.533h5.817l.883.883H26.341Zm-.883,1.767h7.584l-.883.883H27.225Zm1.142,4.417h5.3v.883h-5.3Zm1.325,1.767h2.65v.883h-2.65ZM38.314,50.6l-.53,1.325H23.508v.883H37.431l-.53,1.325H16.883V52.808H18.65v-.883H16.883V50.6ZM16.883,55.017H18.65V58.55H16.883ZM39.85,62.083H35.875V61.2H37.57l2.28.76Zm-2.069-1.744a.441.441,0,0,0-.14-.023H35.433a.442.442,0,0,0-.442.442v1.673L34,62.967h-11.9A1.234,1.234,0,0,1,20.979,61.2h3.412v-.883H22.08l1.546-.883H39.408v.62l-.951.512ZM41.617,54.9,39.59,58.55H34.55l5.889-4.417h1.178Z" fill="#0e34c4"/>
      <rect id="Rectangle_1943" data-name="Rectangle 1943" width="1" height="1" transform="translate(33 59.85)" fill="#0e34c4"/>
      <rect id="Rectangle_1944" data-name="Rectangle 1944" width="1" height="1" transform="translate(31 59.85)" fill="#0e34c4"/>
      <rect id="Rectangle_1945" data-name="Rectangle 1945" width="1" height="1" transform="translate(29 59.85)" fill="#0e34c4"/>
      <rect id="Rectangle_1946" data-name="Rectangle 1946" width="1" height="1" transform="translate(28 59.85)" fill="#0e34c4"/>
      <rect id="Rectangle_1947" data-name="Rectangle 1947" width="1" height="1" transform="translate(26 59.85)" fill="#0e34c4"/>
      <rect id="Rectangle_1948" data-name="Rectangle 1948" width="1" height="1" transform="translate(21 51.85)" fill="#0e34c4"/>
    </g>
  </g>
</svg>
