<svg xmlns="http://www.w3.org/2000/svg" width="27" height="19" viewBox="0 0 27 19">
  <g id="Group_5634" data-name="Group 5634" transform="translate(-370 -5199)">
    <g id="Group_5167" data-name="Group 5167" transform="translate(370 5199)">
      <g id="Rectangle_299" data-name="Rectangle 299" fill="none" stroke="#0e34c4" stroke-width="1">
        <rect width="13" height="9" rx="2" stroke="none"/>
        <rect x="0.5" y="0.5" width="12" height="8" rx="1.5" fill="none"/>
      </g>
      <path id="Path_4124" data-name="Path 4124" d="M14300.362,5375.862v3.857l3.229-1.849Z" transform="translate(-14295.622 -5373.638)" fill="none" stroke="#0e34c4" stroke-width="1"/>
    </g>
    <g id="Group_5170" data-name="Group 5170" transform="translate(384.294 5199)">
      <g id="Rectangle_299-2" data-name="Rectangle 299" transform="translate(-0.294)" fill="none" stroke="#0e34c4" stroke-width="1">
        <rect width="13" height="9" rx="2" stroke="none"/>
        <rect x="0.5" y="0.5" width="12" height="8" rx="1.5" fill="none"/>
      </g>
      <path id="Path_4124-2" data-name="Path 4124" d="M14300.362,5375.862v3.857l3.229-1.849Z" transform="translate(-14295.622 -5373.638)" fill="none" stroke="#0e34c4" stroke-width="1"/>
    </g>
    <g id="Group_5168" data-name="Group 5168" transform="translate(370 5209.324)">
      <g id="Rectangle_299-3" data-name="Rectangle 299" transform="translate(0 -0.324)" fill="none" stroke="#0e34c4" stroke-width="1">
        <rect width="13" height="9" rx="2" stroke="none"/>
        <rect x="0.5" y="0.5" width="12" height="8" rx="1.5" fill="none"/>
      </g>
      <path id="Path_4124-3" data-name="Path 4124" d="M14300.362,5375.862v3.857l3.229-1.849Z" transform="translate(-14295.622 -5373.638)" fill="none" stroke="#0e34c4" stroke-width="1"/>
    </g>
    <g id="Group_5169" data-name="Group 5169" transform="translate(384.294 5209.324)">
      <g id="Rectangle_299-4" data-name="Rectangle 299" transform="translate(-0.294 -0.324)" fill="none" stroke="#0e34c4" stroke-width="1">
        <rect width="13" height="9" rx="2" stroke="none"/>
        <rect x="0.5" y="0.5" width="12" height="8" rx="1.5" fill="none"/>
      </g>
      <path id="Path_4124-4" data-name="Path 4124" d="M14300.362,5375.862v3.857l3.229-1.849Z" transform="translate(-14295.622 -5373.638)" fill="none" stroke="#0e34c4" stroke-width="1"/>
    </g>
  </g>
</svg>
