<svg xmlns="http://www.w3.org/2000/svg" width="28.948" height="25" viewBox="0 0 28.948 25">
  <g id="flyer_2_" data-name="flyer (2)" transform="translate(0 -34.917)">
    <g id="Group_2752" data-name="Group 2752" transform="translate(18.214 42.107)">
      <g id="Group_2751" data-name="Group 2751">
        <path id="Path_4086" data-name="Path 4086" d="M332.15,163.441l-1.457-1.259a.433.433,0,1,0-.566.655l1.457,1.259a1.246,1.246,0,0,1,.128,1.756L322.251,176.8a.433.433,0,0,0,.655.566l9.462-10.948A2.112,2.112,0,0,0,332.15,163.441Z" transform="translate(-322.145 -162.076)" fill="#0e34c4"/>
      </g>
    </g>
    <g id="Group_2754" data-name="Group 2754" transform="translate(15.192 34.917)">
      <g id="Group_2753" data-name="Group 2753" transform="translate(0 0)">
        <path id="Path_4087" data-name="Path 4087" d="M279.164,41.254l-6.739-5.824a2.11,2.11,0,0,0-2.976.217l-.642.743a.433.433,0,0,0,.655.566l.642-.743a1.245,1.245,0,0,1,1.755-.128l6.739,5.824a.433.433,0,1,0,.566-.655Z" transform="translate(-268.702 -34.917)" fill="#0e34c4"/>
      </g>
    </g>
    <g id="Group_2756" data-name="Group 2756" transform="translate(7.042 35.705)">
      <g id="Group_2755" data-name="Group 2755">
        <path id="Path_4088" data-name="Path 4088" d="M139.05,52.874l-11.658-3.91a2.112,2.112,0,0,0-2.671,1.329l-.154.458a.433.433,0,1,0,.82.275l.154-.458a1.246,1.246,0,0,1,1.576-.784l11.658,3.91a1.246,1.246,0,0,1,.784,1.576l-5.424,16.172a.433.433,0,1,0,.82.275l5.424-16.171A2.112,2.112,0,0,0,139.05,52.874Z" transform="translate(-124.545 -48.854)" fill="#0e34c4"/>
      </g>
    </g>
    <g id="Group_2758" data-name="Group 2758" transform="translate(0 38.64)">
      <g id="Group_2757" data-name="Group 2757">
        <path id="Path_4089" data-name="Path 4089" d="M14.406,100.769H2.11A2.112,2.112,0,0,0,0,102.879v17.057a2.112,2.112,0,0,0,2.11,2.11h12.3a2.112,2.112,0,0,0,2.11-2.11V102.879A2.112,2.112,0,0,0,14.406,100.769Zm1.245,19.167a1.246,1.246,0,0,1-1.245,1.245H2.11a1.246,1.246,0,0,1-1.245-1.245V102.879a1.246,1.246,0,0,1,1.245-1.245h12.3a1.246,1.246,0,0,1,1.245,1.245v17.057Z" transform="translate(0 -100.769)" fill="#0e34c4"/>
      </g>
    </g>
    <g id="Group_2760" data-name="Group 2760" transform="translate(1.452 50.581)">
      <g id="Group_2759" data-name="Group 2759">
        <path id="Path_4090" data-name="Path 4090" d="M38.863,311.96H26.117a.433.433,0,0,0,0,.865H38.863a.433.433,0,1,0,0-.865Z" transform="translate(-25.684 -311.96)" fill="#0e34c4"/>
      </g>
    </g>
    <g id="Group_2762" data-name="Group 2762" transform="translate(6.824 53.055)">
      <g id="Group_2761" data-name="Group 2761" transform="translate(0 0)">
        <path id="Path_4091" data-name="Path 4091" d="M126.49,355.718h-5.357a.433.433,0,1,0,0,.865h5.357a.433.433,0,1,0,0-.865Z" transform="translate(-120.7 -355.718)" fill="#0e34c4"/>
      </g>
    </g>
    <g id="Group_2764" data-name="Group 2764" transform="translate(3.469 53.055)">
      <g id="Group_2763" data-name="Group 2763" transform="translate(0 0)">
        <path id="Path_4092" data-name="Path 4092" d="M63.7,355.718H61.787a.433.433,0,1,0,0,.865H63.7a.433.433,0,1,0,0-.865Z" transform="translate(-61.354 -355.718)" fill="#0e34c4"/>
      </g>
    </g>
    <g id="Group_2766" data-name="Group 2766" transform="translate(3.469 54.709)">
      <g id="Group_2765" data-name="Group 2765">
        <path id="Path_4093" data-name="Path 4093" d="M70.5,384.969H61.787a.433.433,0,1,0,0,.865H70.5a.433.433,0,1,0,0-.865Z" transform="translate(-61.354 -384.969)" fill="#0e34c4"/>
      </g>
    </g>
    <g id="Group_2768" data-name="Group 2768" transform="translate(3.469 56.363)">
      <g id="Group_2767" data-name="Group 2767">
        <path id="Path_4094" data-name="Path 4094" d="M70.5,414.219H61.787a.433.433,0,1,0,0,.865H70.5a.433.433,0,1,0,0-.865Z" transform="translate(-61.354 -414.219)" fill="#0e34c4"/>
      </g>
    </g>
    <g id="Group_2770" data-name="Group 2770" transform="translate(3.482 40.205)">
      <g id="Group_2769" data-name="Group 2769" transform="translate(0 0)">
        <path id="Path_4095" data-name="Path 4095" d="M71.112,131.9a.432.432,0,0,0-.349-.294l-2.776-.4-1.242-2.516a.433.433,0,0,0-.776,0l-1.242,2.516-2.776.4a.433.433,0,0,0-.24.738l2.009,1.958-.474,2.765a.433.433,0,0,0,.628.456l2.483-1.306,2.483,1.306a.433.433,0,0,0,.628-.456l-.474-2.765L71,132.347A.433.433,0,0,0,71.112,131.9Zm-2.885,1.941a.433.433,0,0,0-.124.383l.365,2.125-1.909-1a.433.433,0,0,0-.4,0l-1.909,1,.365-2.125a.433.433,0,0,0-.124-.383l-1.544-1.505,2.134-.31a.433.433,0,0,0,.326-.237l.954-1.934.954,1.934a.433.433,0,0,0,.326.237l2.134.31Z" transform="translate(-61.58 -128.449)" fill="#0e34c4"/>
      </g>
    </g>
  </g>
</svg>
