<svg xmlns="http://www.w3.org/2000/svg" width="25.126" height="25.397" viewBox="0 0 25.126 25.397">
  <g id="paint" transform="translate(-1.74 0.183)">
    <path id="Path_4059" data-name="Path 4059" d="M174.273,60.368a1.973,1.973,0,1,0-1.973-1.973A1.975,1.975,0,0,0,174.273,60.368Zm0-3.213a1.24,1.24,0,1,1-1.24,1.24A1.242,1.242,0,0,1,174.273,57.154Z" transform="translate(-162.088 -53.666)" fill="#0e34c4" stroke="#0e34c4" stroke-width="0.3"/>
    <path id="Path_4060" data-name="Path 4060" d="M153.859,349.042a2.258,2.258,0,1,0-2.258-2.258A2.26,2.26,0,0,0,153.859,349.042Zm0-3.783a1.525,1.525,0,1,1-1.525,1.525A1.527,1.527,0,0,1,153.859,345.259Z" transform="translate(-142.4 -327.703)" fill="#0e34c4" stroke="#0e34c4" stroke-width="0.3"/>
    <path id="Path_4061" data-name="Path 4061" d="M84.99,131.633a2.394,2.394,0,1,0,2.394,2.394A2.4,2.4,0,0,0,84.99,131.633Zm0,4.055a1.661,1.661,0,1,1,1.661-1.661A1.663,1.663,0,0,1,84.99,135.688Z" transform="translate(-76.764 -125.205)" fill="#0e34c4" stroke="#0e34c4" stroke-width="0.3"/>
    <path id="Path_4062" data-name="Path 4062" d="M70.95,255.468a2.394,2.394,0,1,0-2.394-2.394A2.4,2.4,0,0,0,70.95,255.468Zm0-4.055a1.661,1.661,0,1,1-1.661,1.661A1.663,1.663,0,0,1,70.95,251.413Z" transform="translate(-63.41 -238.44)" fill="#0e34c4" stroke="#0e34c4" stroke-width="0.3"/>
    <path id="Path_4063" data-name="Path 4063" d="M9.925,23.949a.366.366,0,1,0,.132-.72,6.464,6.464,0,0,1-3.631-2.014c-2.831-3.091-4.091-6.424-3.746-9.908C3.458,3.444,11.749-.469,19.4,1.06a1.784,1.784,0,0,1,1.466,1.707,1.761,1.761,0,0,1-1.284,1.811,7.052,7.052,0,0,0-3.024,1.668,4.742,4.742,0,0,0-.217,6.329,6.445,6.445,0,0,1,1.443,3.263c-.829,1.885-1.677,4.019-2.334,6a6.629,6.629,0,0,1-3.769,1.489.366.366,0,0,0,.024.732h.024a7.392,7.392,0,0,0,3.353-1.062A1.578,1.578,0,0,0,17.97,24.2c.705-1.248,1.469-2.762,2.21-4.379a.366.366,0,1,0-.666-.3c-.732,1.6-1.486,3.094-2.181,4.324a.849.849,0,0,1-1.1.347.84.84,0,0,1-.444-1.006,70.837,70.837,0,0,1,3.966-9.849l1.968.843c-.459,1.251-.982,2.553-1.515,3.788a.366.366,0,0,0,.673.29,60.413,60.413,0,0,0,2.781-7.694.831.831,0,0,0,.49-.46l.317-.74a.836.836,0,0,0,.053-.485,4.928,4.928,0,0,0,1.9-2.116c.546-1.276.183-3.437-.082-4.612a.722.722,0,0,0-1.075-.46c-1.033.619-2.848,1.849-3.394,3.125a4.928,4.928,0,0,0-.216,2.838.835.835,0,0,0-.314.374l-.317.74a.831.831,0,0,0,.005.672,53.252,53.252,0,0,0-2.745,5.279A7.155,7.155,0,0,0,16.9,12.1a3.88,3.88,0,0,1-.926-2.555c0-2.076,1.284-3.513,3.815-4.269a2.47,2.47,0,0,0,1.806-2.547A2.527,2.527,0,0,0,19.539.342C11.479-1.27,2.774,2.919,1.95,11.234c-.366,3.7.958,7.224,3.935,10.475a7.191,7.191,0,0,0,4.04,2.24ZM21.592,9.918l1.326.568c-.239.881-.564,1.9-.95,3l-1.889-.809C20.6,11.64,21.12,10.7,21.592,9.918Zm2.2-.85-.317.74a.109.109,0,0,1-.143.057l-1.576-.675a.109.109,0,0,1-.057-.143l.317-.74a.109.109,0,0,1,.143-.057l1.576.675A.11.11,0,0,1,23.791,9.068ZM22.545,5.1c.16-.375.782-1.394,3.084-2.777.589,2.62.28,3.774.12,4.148A4.227,4.227,0,0,1,24.082,8.28c-.02-.01-.04-.02-.06-.029l-1.576-.675h0l-.062-.024A4.229,4.229,0,0,1,22.545,5.1Z" transform="translate(0 0)" fill="#0e34c4" stroke="#0e34c4" stroke-width="0.3"/>
  </g>
</svg>
