<svg xmlns="http://www.w3.org/2000/svg" width="26.166" height="19.88" viewBox="0 0 26.166 19.88">
  <path id="id" d="M24.88,66.751h-3.4V60.786A.786.786,0,0,0,20.69,60H.786A.786.786,0,0,0,0,60.786V71.843a.786.786,0,0,0,.786.786h3.4v5.966a.786.786,0,0,0,.786.786h19.9a.786.786,0,0,0,.786-.786V67.537A.786.786,0,0,0,24.88,66.751Zm-20.69.786v3.521H1.571V61.571H19.9v5.18H4.976A.786.786,0,0,0,4.19,67.537Zm19.9,10.272H5.762V68.323H24.095Zm-8.381-6.314a.786.786,0,0,1,.786-.786h4.714a.786.786,0,1,1,0,1.571H16.5A.786.786,0,0,1,15.714,71.495Zm0,3.143a.786.786,0,0,1,.786-.786h2.1a.786.786,0,0,1,0,1.571H16.5A.786.786,0,0,1,15.714,74.637Zm-5.238,1.048a2.619,2.619,0,1,0-2.619-2.619A2.622,2.622,0,0,0,10.476,75.685Zm0-3.667a1.048,1.048,0,1,1-1.048,1.048A1.049,1.049,0,0,1,10.476,72.018Z" transform="translate(0.25 -59.75)" fill="#0e34c4" stroke="#edf1ff" stroke-width="0.5"/>
</svg>
