<svg xmlns="http://www.w3.org/2000/svg" width="26.142" height="23.037" viewBox="0 0 26.142 23.037">
  <g id="calendar" transform="translate(0.25 -30.75)">
    <path id="Path_4096" data-name="Path 4096" d="M24.89,32.5h-2.3v-.751a.751.751,0,1,0-1.5,0V32.5H16.577v-.751a.751.751,0,1,0-1.5,0V32.5H10.567v-.751a.751.751,0,1,0-1.5,0V32.5H4.557v-.751a.751.751,0,1,0-1.5,0V32.5H.751A.751.751,0,0,0,0,33.254V52.785a.751.751,0,0,0,.751.751H24.89a.751.751,0,0,0,.751-.751V33.254A.751.751,0,0,0,24.89,32.5Zm-.751,19.532H1.5V38.512H24.139Zm0-15.024H1.5V34H3.055v.751a.751.751,0,0,0,1.5,0V34H9.065v.751a.751.751,0,0,0,1.5,0V34h4.507v.751a.751.751,0,0,0,1.5,0V34h4.507v.751a.751.751,0,0,0,1.5,0V34h1.553Z" fill="#0e34c4" stroke="#edf1ff" stroke-width="0.5"/>
    <path id="Path_4097" data-name="Path 4097" d="M62.722,215.288a.751.751,0,0,0,1.062,0l3-3a.751.751,0,0,0-1.062-1.062l-2.474,2.474-.971-.971a.751.751,0,0,0-1.062,1.062Z" transform="translate(-57.945 -170.986)" fill="#0e34c4" stroke="#edf1ff" stroke-width="0.5"/>
    <path id="Path_4098" data-name="Path 4098" d="M62.722,335.288a.751.751,0,0,0,1.062,0l3-3a.751.751,0,0,0-1.062-1.062l-2.474,2.474-.971-.971a.751.751,0,0,0-1.062,1.062Z" transform="translate(-57.945 -284.976)" fill="#0e34c4" stroke="#edf1ff" stroke-width="0.5"/>
    <path id="Path_4099" data-name="Path 4099" d="M197.722,215.288a.751.751,0,0,0,1.062,0l3-3a.751.751,0,0,0-1.062-1.062l-2.474,2.474-.971-.971a.751.751,0,0,0-1.062,1.062Z" transform="translate(-186.184 -170.986)" fill="#0e34c4" stroke="#edf1ff" stroke-width="0.5"/>
    <path id="Path_4100" data-name="Path 4100" d="M332.722,215.288a.751.751,0,0,0,1.062,0l3-3a.751.751,0,0,0-1.062-1.062l-2.474,2.474-.971-.971a.751.751,0,0,0-1.062,1.062Z" transform="translate(-314.423 -170.986)" fill="#0e34c4" stroke="#edf1ff" stroke-width="0.5"/>
    <path id="Path_4101" data-name="Path 4101" d="M214.756,361h-3a.751.751,0,1,0,0,1.5h3a.751.751,0,1,0,0-1.5Z" transform="translate(-200.433 -313.473)" fill="#0e34c4" stroke="#edf1ff" stroke-width="0.5"/>
    <path id="Path_4102" data-name="Path 4102" d="M349.756,361h-3a.751.751,0,1,0,0,1.5h3a.751.751,0,1,0,0-1.5Z" transform="translate(-328.672 -313.473)" fill="#0e34c4" stroke="#edf1ff" stroke-width="0.5"/>
  </g>
</svg>
