<svg xmlns="http://www.w3.org/2000/svg" width="21.867" height="25.2" viewBox="0 0 21.867 25.2">
  <g id="mug" transform="translate(-31.9 0.1)">
    <g id="Group_2716" data-name="Group 2716" transform="translate(32)">
      <g id="Group_2715" data-name="Group 2715" transform="translate(0)">
        <path id="Path_4064" data-name="Path 4064" d="M258.5,370.083V368h-.833v1.667H256v.833h2.083A.417.417,0,0,0,258.5,370.083Z" transform="translate(-244.333 -348.833)" fill="#0e34c4" stroke="#0e34c4" stroke-width="0.2"/>
        <path id="Path_4065" data-name="Path 4065" d="M51.583,96.833h-3.75v-.417A.417.417,0,0,0,47.417,96h-15a.417.417,0,0,0-.417.417v16.667a1.25,1.25,0,0,0,.833,1.173v.493a1.25,1.25,0,0,0,1.25,1.25H45.75A1.25,1.25,0,0,0,47,114.75v-.493a1.25,1.25,0,0,0,.833-1.173V106h3.75a2.086,2.086,0,0,0,2.083-2.083v-5A2.086,2.086,0,0,0,51.583,96.833ZM46.167,114.75a.417.417,0,0,1-.417.417H34.083a.417.417,0,0,1-.417-.417v-.417h12.5ZM47,113.083a.417.417,0,0,1-.417.417H33.25a.417.417,0,0,1-.417-.417V96.833H47Zm.833-13.75H50.75a.417.417,0,0,1,.417.417v3.333a.417.417,0,0,1-.417.417H47.833Zm5,4.583a1.25,1.25,0,0,1-1.25,1.25h-3.75v-.833H50.75a1.25,1.25,0,0,0,1.25-1.25V99.75a1.25,1.25,0,0,0-1.25-1.25H47.833v-.833h3.75a1.25,1.25,0,0,1,1.25,1.25Z" transform="translate(-32 -91)" fill="#0e34c4" stroke="#0e34c4" stroke-width="0.2"/>
        <path id="Path_4066" data-name="Path 4066" d="M169.6,4.167h.833c0-.171.056-.238.217-.406a1.3,1.3,0,0,0,0-1.967c-.162-.167-.217-.235-.217-.406s.056-.237.217-.405A1.311,1.311,0,0,0,171.1,0h-.833c0,.17-.056.237-.217.405a1.3,1.3,0,0,0,0,1.966c.162.167.217.235.217.406s-.056.238-.217.406A1.313,1.313,0,0,0,169.6,4.167Z" transform="translate(-162.433)" fill="#0e34c4" stroke="#0e34c4" stroke-width="0.2"/>
        <path id="Path_4067" data-name="Path 4067" d="M122.88,19.333h.833c0-.1.025-.135.15-.266a1.122,1.122,0,0,0,0-1.688c-.12-.125-.151-.162-.151-.267s.031-.143.151-.268a1.137,1.137,0,0,0,.383-.844h-.833c0,.106-.031.143-.151.267a1.123,1.123,0,0,0,0,1.688c.12.125.151.162.151.267s-.025.135-.15.266A1.134,1.134,0,0,0,122.88,19.333Z" transform="translate(-118.147 -15.167)" fill="#0e34c4" stroke="#0e34c4" stroke-width="0.2"/>
        <path id="Path_4068" data-name="Path 4068" d="M218.88,19.333h.833c0-.1.025-.135.15-.266a1.122,1.122,0,0,0,0-1.688c-.12-.125-.151-.162-.151-.267s.031-.143.151-.268a1.137,1.137,0,0,0,.383-.844h-.833c0,.106-.031.143-.151.267a1.123,1.123,0,0,0,0,1.688c.12.125.151.162.151.267s-.025.135-.15.266A1.134,1.134,0,0,0,218.88,19.333Z" transform="translate(-209.147 -15.167)" fill="#0e34c4" stroke="#0e34c4" stroke-width="0.2"/>
      </g>
    </g>
  </g>
</svg>
