<svg xmlns="http://www.w3.org/2000/svg" width="18.266" height="25.993" viewBox="0 0 18.266 25.993">
  <g id="Group_5612" data-name="Group 5612" transform="translate(-586.396 -5265.049)">
    <g id="marketing" transform="translate(510.293 5265.049)">
      <g id="Group_2783" data-name="Group 2783" transform="translate(76.103 0)">
        <g id="Group_2782" data-name="Group 2782" transform="translate(0)">
          <path id="Path_4125" data-name="Path 4125" d="M149.574,244.414H138.352a.381.381,0,1,0,0,.762h11.223a.381.381,0,1,0,0-.762Z" transform="translate(-134.83 -232.005)" fill="#0e34c4"/>
          <path id="Path_4126" data-name="Path 4126" d="M149.574,296.593H138.352a.381.381,0,1,0,0,.762h11.223a.381.381,0,1,0,0-.762Z" transform="translate(-134.83 -281.535)" fill="#0e34c4"/>
          <path id="Path_4127" data-name="Path 4127" d="M269.682,348.773h-4.8a.381.381,0,0,0,0,.762h4.8a.381.381,0,0,0,0-.762Z" transform="translate(-254.937 -331.066)" fill="#0e34c4"/>
          <path id="Path_4128" data-name="Path 4128" d="M269.682,400.952h-4.8a.381.381,0,1,0,0,.762h4.8a.381.381,0,1,0,0-.762Z" transform="translate(-254.937 -380.596)" fill="#0e34c4"/>
          <path id="Path_4129" data-name="Path 4129" d="M92.9,23.156V20.388a.381.381,0,0,0-.762,0v2.731H78.332V2.275h1.522a.381.381,0,1,0,0-.762H77.689a.376.376,0,1,1,0-.751H92.783a.376.376,0,1,1,0,.751H81.634a.381.381,0,0,0,0,.762H92.14V18.607a.381.381,0,1,0,.762,0V2.268A1.137,1.137,0,0,0,92.783,0H77.689a1.137,1.137,0,0,0-.119,2.268V23.156a1.836,1.836,0,0,0-1.467,1.8v.167a.875.875,0,0,0,.874.874H93.495a.875.875,0,0,0,.874-.874v-.167a1.836,1.836,0,0,0-1.467-1.8Zm.705,1.963a.113.113,0,0,1-.113.113H76.977a.113.113,0,0,1-.113-.113v-.167a1.073,1.073,0,0,1,1.072-1.072h14.6a1.073,1.073,0,0,1,1.072,1.072Z" transform="translate(-76.103 0)" fill="#0e34c4"/>
          <path id="Path_4130" data-name="Path 4130" d="M138.751,348.772a.78.78,0,0,0-.779.779V351.4a.78.78,0,0,0,.779.779h3.8a.78.78,0,0,0,.779-.779v-1.853a.78.78,0,0,0-.779-.779h-3.8Zm3.815.779V351.4a.018.018,0,0,1-.017.017h-3.8a.018.018,0,0,1-.017-.017v-1.852a.017.017,0,0,1,.017-.017h3.8A.017.017,0,0,1,142.566,349.551Z" transform="translate(-134.831 -331.065)" fill="#0e34c4"/>
          <path id="Path_4131" data-name="Path 4131" d="M149.956,75.612a.855.855,0,0,0-.854-.854H138.826a.855.855,0,0,0-.854.854v4.9a.855.855,0,0,0,.854.854H149.1a.856.856,0,0,0,.854-.854Zm-11.13-.093H149.1a.093.093,0,0,1,.093.093v4.577l-1.875-2.259a1.055,1.055,0,0,0-1.623,0l-.8.97-1.727-2.08a1.055,1.055,0,0,0-1.623,0L138.734,80.2V75.612A.093.093,0,0,1,138.826,75.52Zm.563,5.087,2.739-3.3a.293.293,0,0,1,.451,0L144.4,79.5l-.921,1.11Zm6.893-2.19a.293.293,0,0,1,.451,0l1.817,2.19h-4.085Z" transform="translate(-134.831 -70.963)" fill="#0e34c4"/>
        </g>
      </g>
    </g>
  </g>
</svg>
