<svg xmlns="http://www.w3.org/2000/svg" width="16" height="30.17" viewBox="0 0 16 30.17">
  <g id="Group_5613" data-name="Group 5613" transform="translate(-587 -5306.831)">
    <g id="billboard" transform="translate(466.765 5306.831)">
      <g id="Group_5123" data-name="Group 5123" transform="translate(120.235)">
        <g id="Group_5122" data-name="Group 5122" transform="translate(0)">
          <path id="Path_8430" data-name="Path 8430" d="M135.793,1.417h-5.225V.443A.443.443,0,0,0,130.124,0h-3.779a.443.443,0,0,0-.443.443v.974h-5.225a.443.443,0,0,0-.443.443V22.17a.443.443,0,0,0,.443.443H125.9v6.672h-.856a.443.443,0,0,0,0,.886h6.495a.443.443,0,0,0,0-.886h-.974V22.613h5.225a.443.443,0,0,0,.443-.443V1.86A.443.443,0,0,0,135.793,1.417Zm-9-.531h2.893v.531h-2.893Zm2.893,28.4h-2.893V22.613h2.893Zm5.668-7.557H121.121V2.3H135.35Z" transform="translate(-120.235)" fill="#0e34c4"/>
        </g>
      </g>
      <g id="Group_5125" data-name="Group 5125" transform="translate(121.652 2.834)">
        <g id="Group_5124" data-name="Group 5124" transform="translate(0)">
          <path id="Path_8431" data-name="Path 8431" d="M157,51.4a.443.443,0,0,0,.443-.443V48.536a.443.443,0,0,0-.443-.443H144.724a.443.443,0,0,0-.443.443V66.012a.443.443,0,0,0,.443.443H157a.443.443,0,0,0,.443-.443V53a.443.443,0,1,0-.886,0V65.569h-11.4V48.979h11.4v1.978A.443.443,0,0,0,157,51.4Z" transform="translate(-144.281 -48.093)" fill="#0e34c4"/>
        </g>
      </g>
      <g id="Group_5127" data-name="Group 5127" transform="translate(123.541 4.723)">
        <g id="Group_5126" data-name="Group 5126" transform="translate(0)">
          <path id="Path_8432" data-name="Path 8432" d="M185.289,80.157h-8.5a.443.443,0,0,0-.443.443v6.613a.443.443,0,0,0,.443.443h8.5a.443.443,0,0,0,.443-.443V80.6A.443.443,0,0,0,185.289,80.157Zm-.443,6.613H177.23V81.043h7.616Z" transform="translate(-176.344 -80.157)" fill="#0e34c4"/>
        </g>
      </g>
      <g id="Group_5129" data-name="Group 5129" transform="translate(123.541 13.225)">
        <g id="Group_5128" data-name="Group 5128" transform="translate(0)">
          <path id="Path_8433" data-name="Path 8433" d="M185.289,224.438h-8.5a.443.443,0,0,0,0,.886h8.5a.443.443,0,1,0,0-.886Z" transform="translate(-176.344 -224.438)" fill="#0e34c4"/>
        </g>
      </g>
      <g id="Group_5131" data-name="Group 5131" transform="translate(123.541 15.587)">
        <g id="Group_5130" data-name="Group 5130">
          <path id="Path_8434" data-name="Path 8434" d="M179.178,264.517h-2.391a.443.443,0,1,0,0,.886h2.391a.443.443,0,1,0,0-.886Z" transform="translate(-176.344 -264.517)" fill="#0e34c4"/>
        </g>
      </g>
      <g id="Group_5133" data-name="Group 5133" transform="translate(127.792 15.587)">
        <g id="Group_5132" data-name="Group 5132" transform="translate(0)">
          <path id="Path_8435" data-name="Path 8435" d="M253.179,264.517h-4.251a.443.443,0,1,0,0,.886h4.251a.443.443,0,1,0,0-.886Z" transform="translate(-248.485 -264.517)" fill="#0e34c4"/>
        </g>
      </g>
      <g id="Group_5135" data-name="Group 5135" transform="translate(123.541 17.949)">
        <g id="Group_5134" data-name="Group 5134">
          <path id="Path_8436" data-name="Path 8436" d="M181.54,304.6h-4.753a.443.443,0,1,0,0,.886h4.753a.443.443,0,1,0,0-.886Z" transform="translate(-176.344 -304.595)" fill="#0e34c4"/>
        </g>
      </g>
      <g id="Group_5137" data-name="Group 5137" transform="translate(130.154 17.949)">
        <g id="Group_5136" data-name="Group 5136">
          <path id="Path_8437" data-name="Path 8437" d="M290.9,304.6h-1.889a.443.443,0,1,0,0,.886H290.9a.443.443,0,1,0,0-.886Z" transform="translate(-288.563 -304.595)" fill="#0e34c4"/>
        </g>
      </g>
      <g id="Group_5139" data-name="Group 5139" transform="translate(125.886 6.026)">
        <g id="Group_5138" data-name="Group 5138" transform="translate(0)">
          <path id="Path_8438" data-name="Path 8438" d="M220.813,103.941a.447.447,0,0,0-.418-.3H219.26l-.351-1.079a.443.443,0,0,0-.842,0l-.351,1.079h-1.134a.443.443,0,0,0-.26.8l.918.667-.351,1.079a.443.443,0,0,0,.681.5l.918-.667.918.667a.443.443,0,0,0,.681-.5l-.351-1.079.918-.667A.447.447,0,0,0,220.813,103.941Zm-1.856.642a.443.443,0,0,0-.161.5l.029.089-.075-.055a.443.443,0,0,0-.521,0l-.075.055.029-.089a.443.443,0,0,0-.161-.5l-.075-.055h.093a.443.443,0,0,0,.421-.306l.029-.089.029.089a.443.443,0,0,0,.421.306h.093Z" transform="translate(-216.14 -102.258)" fill="#0e34c4"/>
        </g>
      </g>
    </g>
  </g>
</svg>
