<svg xmlns="http://www.w3.org/2000/svg" width="23.527" height="23.527" viewBox="0 0 23.527 23.527">
  <g id="Group_5738" data-name="Group 5738" transform="translate(-374 -5160.475)">
    <g id="team" transform="translate(374 5160.475)">
      <g id="Group_5303" data-name="Group 5303" transform="translate(0 3.221)">
        <g id="Group_5302" data-name="Group 5302" transform="translate(0)">
          <path id="Path_8542" data-name="Path 8542" d="M6.208,75.652.785,70.228a.46.46,0,0,0-.65.65l5.289,5.289V76.8a.46.46,0,0,0,.459.46h0a.46.46,0,0,0,.46-.459v-.824A.46.46,0,0,0,6.208,75.652Z" transform="translate(0 -70.093)" fill="#0e34c4"/>
        </g>
      </g>
      <g id="Group_5305" data-name="Group 5305" transform="translate(3.221 0)">
        <g id="Group_5304" data-name="Group 5304">
          <path id="Path_8543" data-name="Path 8543" d="M77.251,5.423h0l-1.084,0L70.878.136a.46.46,0,0,0-.65.65l5.424,5.424a.46.46,0,0,0,.325.135h0l1.275,0a.46.46,0,0,0,0-.919Z" transform="translate(-70.093 -0.001)" fill="#0e34c4"/>
        </g>
      </g>
      <g id="Group_5307" data-name="Group 5307" transform="translate(19.388)">
        <g id="Group_5306" data-name="Group 5306">
          <path id="Path_8544" data-name="Path 8544" d="M422.7.135a.46.46,0,0,0-.784.325A.46.46,0,1,0,422.7.135Z" transform="translate(-421.911)" fill="#0e34c4"/>
        </g>
      </g>
      <g id="Group_5309" data-name="Group 5309" transform="translate(9.827 1.346)">
        <g id="Group_5308" data-name="Group 5308">
          <path id="Path_8545" data-name="Path 8545" d="M222.861,29.423a.46.46,0,0,0-.65,0l-3.943,3.943h-.64A4.521,4.521,0,0,0,214.41,34.7l-.413.413a.46.46,0,1,0,.65.65l.413-.413a3.608,3.608,0,0,1,2.568-1.064h.83a.46.46,0,0,0,.325-.135l4.078-4.078A.46.46,0,0,0,222.861,29.423Z" transform="translate(-213.862 -29.288)" fill="#0e34c4"/>
        </g>
      </g>
      <g id="Group_5311" data-name="Group 5311" transform="translate(17.185 3.221)">
        <g id="Group_5310" data-name="Group 5310">
          <path id="Path_8546" data-name="Path 8546" d="M380.176,70.227a.46.46,0,0,0-.65,0L374.1,75.65a.46.46,0,0,0-.135.326l0,1.275a.459.459,0,0,0,.46.459h0a.46.46,0,0,0,.459-.46l0-1.084,5.289-5.289A.46.46,0,0,0,380.176,70.227Z" transform="translate(-373.968 -70.092)" fill="#0e34c4"/>
        </g>
      </g>
      <g id="Group_5313" data-name="Group 5313" transform="translate(16.873 11.566)">
        <g id="Group_5312" data-name="Group 5312">
          <path id="Path_8547" data-name="Path 8547" d="M373.716,259.654l-5.289-5.289v-.633a4.527,4.527,0,0,0-.347-1.75.459.459,0,1,0-.849.352,3.615,3.615,0,0,1,.277,1.4v.824a.459.459,0,0,0,.135.326l5.424,5.424a.46.46,0,0,0,.65-.65Z" transform="translate(-367.196 -251.698)" fill="#0e34c4"/>
        </g>
      </g>
      <g id="Group_5315" data-name="Group 5315" transform="translate(12.689 17.184)">
        <g id="Group_5314" data-name="Group 5314">
          <path id="Path_8548" data-name="Path 8548" d="M283.614,379.526,278.19,374.1a.46.46,0,0,0-.325-.135h0l-1.275,0a.46.46,0,0,0,0,.919h1.085l5.289,5.289a.46.46,0,0,0,.65-.65Z" transform="translate(-276.131 -373.968)" fill="#0e34c4"/>
        </g>
      </g>
      <g id="Group_5317" data-name="Group 5317" transform="translate(3.221 22.608)">
        <g id="Group_5316" data-name="Group 5316">
          <path id="Path_8549" data-name="Path 8549" d="M70.875,492.135a.459.459,0,1,0,.135.325A.463.463,0,0,0,70.875,492.135Z" transform="translate(-70.091 -492)" fill="#0e34c4"/>
        </g>
      </g>
      <g id="Group_5319" data-name="Group 5319" transform="translate(0 7.127)">
        <g id="Group_5318" data-name="Group 5318" transform="translate(0)">
          <path id="Path_8550" data-name="Path 8550" d="M16.435,159.632a1.289,1.289,0,0,0-.348-.248,1.295,1.295,0,0,0-.585-1.807,1.294,1.294,0,0,0-1.728-1.728,1.3,1.3,0,0,0-2.09-.37L9.85,157.313a1.312,1.312,0,0,0-2.4-.61L6.194,158.58a4.536,4.536,0,0,0-.771,2.541l0,1.084L.136,167.495a.46.46,0,1,0,.65.65l5.424-5.424a.46.46,0,0,0,.135-.326l0-1.275a3.62,3.62,0,0,1,.616-2.028l1.259-1.877a.394.394,0,0,1,.664.424l-.492.811a.583.583,0,0,0,.91.714l3.036-3.036a.375.375,0,0,1,.561.5l-1.8,1.8a.46.46,0,0,0,.65.65l2.322-2.326a.376.376,0,1,1,.531.531L12.278,159.6a.46.46,0,1,0,.65.65l1.8-1.8a.375.375,0,0,1,.5.561l-1.767,1.767a.46.46,0,1,0,.65.65l1.181-1.181a.375.375,0,0,1,.5.561L12.5,164.094a3.608,3.608,0,0,1-2.568,1.064h-.83a.46.46,0,0,0-.325.135l-4.269,4.269a.46.46,0,1,0,.65.65L9.3,166.076h.64a4.521,4.521,0,0,0,3.218-1.333l3.281-3.281A1.3,1.3,0,0,0,16.435,159.632Z" transform="translate(-0.001 -155.1)" fill="#0e34c4"/>
        </g>
      </g>
    </g>
  </g>
</svg>
