<svg xmlns="http://www.w3.org/2000/svg" width="23.527" height="23.919" viewBox="0 0 23.527 23.919">
  <g id="Group_5741" data-name="Group 5741" transform="translate(-373 -5289.08)">
    <g id="man" transform="translate(369 5289.08)">
      <g id="Group_5199" data-name="Group 5199" transform="translate(4 3.529)">
        <g id="Group_5198" data-name="Group 5198" transform="translate(0)">
          <path id="Path_8492" data-name="Path 8492" d="M25.881,76.737a2.744,2.744,0,1,0-3.375.308,1.96,1.96,0,0,0-.86,1.621v2.745H20.077V79.45a2.747,2.747,0,0,0-2.419-2.724,2.745,2.745,0,1,0-3.788,0A2.747,2.747,0,0,0,11.45,79.45v1.961H9.882V78.666a1.96,1.96,0,0,0-.86-1.621,2.746,2.746,0,1,0-3.375-.308A1.959,1.959,0,0,0,4,78.666v5.882a1.964,1.964,0,0,0,1.568,1.921V92.39h.784V86.509H9.882V92a.392.392,0,0,0,.392.392h2.353A.392.392,0,0,0,13.019,92V85.724h2.353v5.882H13.8v.784h3.921v-.784H16.156V85.724h2.353V92a.392.392,0,0,0,.392.392h2.353A.392.392,0,0,0,21.646,92v-5.49h3.529V92.39h.784V86.469a1.964,1.964,0,0,0,1.568-1.921V78.666A1.959,1.959,0,0,0,25.881,76.737Zm-3.843-1.992A1.961,1.961,0,1,1,24,76.705,1.963,1.963,0,0,1,22.038,74.745Zm-8.235,0a1.961,1.961,0,1,1,1.961,1.961A1.963,1.963,0,0,1,13.8,74.745Zm2.571,2.745-.611,1.628-.611-1.628Zm-4.14,1.961A1.963,1.963,0,0,1,14.2,77.49h.12L15.4,80.372a.392.392,0,0,0,.734,0l1.081-2.882h.12a1.963,1.963,0,0,1,1.961,1.961v1.961H17.724a.392.392,0,0,0-.392.392v1.568H14.2V81.8a.392.392,0,0,0-.392-.392H12.235ZM5.568,74.745a1.961,1.961,0,1,1,1.961,1.961A1.963,1.963,0,0,1,5.568,74.745Zm6.666,16.861H10.666v-5.49a.392.392,0,0,0-.392-.392H5.961a1.178,1.178,0,0,1-1.176-1.176V78.666A1.178,1.178,0,0,1,5.961,77.49H7.921A1.178,1.178,0,0,1,9.1,78.666V81.8a.392.392,0,0,0,.392.392h3.921v1.176H7.921V79.842H7.137v3.921a.392.392,0,0,0,.392.392h3.529a1.178,1.178,0,0,1,1.176,1.176Zm6.318-6.666H12.975a1.958,1.958,0,0,0-.349-.784H18.9A1.958,1.958,0,0,0,18.552,84.94Zm8.191-.392a1.178,1.178,0,0,1-1.176,1.176H21.253a.392.392,0,0,0-.392.392v5.49H19.293V85.332a1.178,1.178,0,0,1,1.176-1.176H24a.392.392,0,0,0,.392-.392V79.842h-.784v3.529h-5.49V82.2h3.921a.392.392,0,0,0,.392-.392V78.666a1.178,1.178,0,0,1,1.176-1.176h1.961a1.178,1.178,0,0,1,1.176,1.176Z" transform="translate(-4 -72)" fill="#0e34c4"/>
        </g>
      </g>
      <g id="Group_5201" data-name="Group 5201" transform="translate(15.198 12.722)">
        <g id="Group_5200" data-name="Group 5200" transform="translate(0 0)">
          <rect id="Rectangle_1950" data-name="Rectangle 1950" width="1" height="1" transform="translate(-0.197 0.198)" fill="#0e34c4"/>
        </g>
      </g>
      <g id="Group_5203" data-name="Group 5203" transform="translate(7.921)">
        <g id="Group_5202" data-name="Group 5202">
          <path id="Path_8493" data-name="Path 8493" d="M89.882,0h-5.49A.392.392,0,0,0,84,.392V2.353a.392.392,0,0,0,.392.392h1.568v.784a.392.392,0,0,0,.627.314l1.464-1.1h1.83a.392.392,0,0,0,.392-.392V.392A.392.392,0,0,0,89.882,0ZM89.49,1.961H87.921a.392.392,0,0,0-.235.078l-.941.706V2.353a.392.392,0,0,0-.392-.392H84.784V.784H89.49Z" transform="translate(-84)" fill="#0e34c4"/>
        </g>
      </g>
      <g id="Group_5205" data-name="Group 5205" transform="translate(17.863 0.992)">
        <g id="Group_5204" data-name="Group 5204" transform="translate(0 0)">
          <rect id="Rectangle_1951" data-name="Rectangle 1951" height="1" transform="translate(0.137 -0.074)" fill="#0e34c4"/>
        </g>
      </g>
      <g id="Group_5207" data-name="Group 5207" transform="translate(19.463 0.992)">
        <g id="Group_5206" data-name="Group 5206" transform="translate(0 0)">
          <rect id="Rectangle_1952" data-name="Rectangle 1952" width="1" height="1" transform="translate(-0.463 -0.074)" fill="#0e34c4"/>
        </g>
      </g>
      <g id="Group_5209" data-name="Group 5209" transform="translate(21.062 0.992)">
        <g id="Group_5208" data-name="Group 5208" transform="translate(0 0)">
          <rect id="Rectangle_1953" data-name="Rectangle 1953" width="1" height="1" transform="translate(-0.062 -0.074)" fill="#0e34c4"/>
        </g>
      </g>
    </g>
  </g>
</svg>
