<svg xmlns="http://www.w3.org/2000/svg" width="21.678" height="20.375" viewBox="0 0 21.678 20.375">
  <g id="Group_5735" data-name="Group 5735" transform="translate(-374 -5027.205)">
    <g id="outline" transform="translate(358.105 4996.827)">
      <path id="Path_8529" data-name="Path 8529" d="M33.591,392.374l-.246.757h-.8a.542.542,0,0,0-.319.98l.644.468-.246.757a.542.542,0,0,0,.834.606l.644-.468.644.468a.542.542,0,0,0,.834-.606l-.246-.757.644-.468a.542.542,0,0,0-.318-.98h-.8l-.246-.757a.542.542,0,0,0-1.031,0Zm.63,1.105a.54.54,0,0,0,.515.374h.372l-.3.219a.54.54,0,0,0-.2.606l.115.353-.3-.218a.54.54,0,0,0-.637,0l-.3.218.115-.354a.54.54,0,0,0-.2-.606l-.3-.219h.372a.541.541,0,0,0,.515-.374l.115-.354Z" transform="translate(-15.385 -345.294)" fill="#0e34c4"/>
      <path id="Path_8530" data-name="Path 8530" d="M387.014,393.507a.54.54,0,0,0,.2.606l.644.468-.246.757a.542.542,0,0,0,.834.606l.644-.468.644.468a.542.542,0,0,0,.834-.606l-.246-.757.644-.468a.542.542,0,0,0-.319-.98h-.8l-.246-.757h0a.542.542,0,0,0-1.031,0l-.246.757h-.8A.54.54,0,0,0,387.014,393.507Zm1.443.348a.54.54,0,0,0,.515-.374l.115-.354.115.354a.54.54,0,0,0,.515.374h.372l-.3.218a.541.541,0,0,0-.2.606l.115.353-.3-.218a.54.54,0,0,0-.637,0l-.3.218.115-.354a.54.54,0,0,0-.2-.606l-.3-.219Z" transform="translate(-354.337 -345.295)" fill="#0e34c4"/>
      <path id="Path_8531" data-name="Path 8531" d="M36.178,32.918a.541.541,0,0,0-.2-.606l-.644-.468.246-.757a.542.542,0,0,0-.834-.606l-.644.468-.644-.468a.542.542,0,0,0-.834.606l.246.757-.644.468a.542.542,0,0,0,.319.98h.8l.246.757a.542.542,0,0,0,1.031,0l.246-.757h.8A.54.54,0,0,0,36.178,32.918Zm-1.443-.348a.54.54,0,0,0-.515.374l-.115.354-.115-.354a.54.54,0,0,0-.515-.374H33.1l.3-.218a.541.541,0,0,0,.2-.606l-.115-.353.3.218a.54.54,0,0,0,.637,0l.3-.218-.115.353a.54.54,0,0,0,.2.606l.3.219Z" transform="translate(-15.384 0)" fill="#0e34c4"/>
      <path id="Path_8532" data-name="Path 8532" d="M389.605,34.05h0l.246-.757h.8a.542.542,0,0,0,.318-.98l-.644-.468.246-.757a.542.542,0,0,0-.834-.606l-.644.468-.644-.468a.542.542,0,0,0-.834.606l.246.757-.644.468a.542.542,0,0,0,.318.98h.8l.246.757a.542.542,0,0,0,1.031,0Zm-.63-1.105a.54.54,0,0,0-.515-.374h-.372l.3-.219a.54.54,0,0,0,.2-.606l-.115-.353.3.218a.54.54,0,0,0,.637,0l.3-.218-.115.353a.54.54,0,0,0,.2.606l.3.219h-.372a.541.541,0,0,0-.515.374l-.115.353Z" transform="translate(-354.341)" fill="#0e34c4"/>
      <path id="Path_8533" data-name="Path 8533" d="M80.781,298A1.087,1.087,0,1,0,80,296.74,1.091,1.091,0,0,0,80.781,298Zm-.068-1.14a.361.361,0,1,1,.036.274h0A.359.359,0,0,1,80.712,296.862Z" transform="translate(-61.188 -253.501)" fill="#0e34c4"/>
      <path id="Path_8534" data-name="Path 8534" d="M168.541,80.153a1.084,1.084,0,1,0,1.237.109A1.084,1.084,0,0,0,168.541,80.153Zm.722,1.251a.361.361,0,0,1-.493-.132h0a.361.361,0,1,1,.493.132Z" transform="translate(-145.237 -47.389)" fill="#0e34c4"/>
      <path id="Path_8535" data-name="Path 8535" d="M79.3,170.581a1.084,1.084,0,1,0,1.234-.786A1.084,1.084,0,0,0,79.3,170.581Zm.7.187a.361.361,0,1,1,.036.274A.361.361,0,0,1,79.995,170.768Z" transform="translate(-60.504 -133.106)" fill="#0e34c4"/>
      <path id="Path_8536" data-name="Path 8536" d="M170.578,386.806a1.085,1.085,0,1,0-.782-1.261A1.091,1.091,0,0,0,170.578,386.806Zm-.068-1.14a.361.361,0,1,1,.255.442A.361.361,0,0,1,170.51,385.666Z" transform="translate(-146.933 -338.298)" fill="#0e34c4"/>
      <path id="Path_8537" data-name="Path 8537" d="M297.083,386.167a1.084,1.084,0,1,0-.94-.542A1.084,1.084,0,0,0,297.083,386.167Zm-.182-1.4a.359.359,0,0,1,.18-.048.364.364,0,0,1,.094.012.359.359,0,0,1,.219.168h0a.361.361,0,1,1-.493-.132Z" transform="translate(-267.456 -337.655)" fill="#0e34c4"/>
      <path id="Path_8538" data-name="Path 8538" d="M386.88,295.614a1.083,1.083,0,1,0-1.047.8A1.083,1.083,0,0,0,386.88,295.614Zm-.7-.187a.361.361,0,1,1-.036-.274A.361.361,0,0,1,386.182,295.427Z" transform="translate(-352.201 -251.959)" fill="#0e34c4"/>
      <path id="Path_8539" data-name="Path 8539" d="M385.366,168.037a1.084,1.084,0,1,0,.658.5A1.084,1.084,0,0,0,385.366,168.037Zm-.1,1.36a.361.361,0,1,1-.361-.626h0a.359.359,0,0,1,.18-.049.361.361,0,0,1,.181.674Z" transform="translate(-351.487 -131.408)" fill="#0e34c4"/>
      <path id="Path_8540" data-name="Path 8540" d="M294.77,79.42a1.084,1.084,0,1,0,1.237.109A1.084,1.084,0,0,0,294.77,79.42Zm.891,1.032a.362.362,0,1,1-.063-.314A.361.361,0,0,1,295.661,80.452Z" transform="translate(-265.767 -46.69)" fill="#0e34c4"/>
      <path id="Path_8541" data-name="Path 8541" d="M35.947,41.176a1.075,1.075,0,0,0-.479.577H29.86a.664.664,0,0,0,.108-.553l1.928-.778a.361.361,0,1,0-.27-.67l-2.3.927h-.645l4.439-4.439a.361.361,0,0,0-.511-.511L27.8,40.542l1.392-3.273a.361.361,0,1,0-.665-.283L27.453,39.5l-.073-.224a.673.673,0,0,0-.284-.367V32.361a.361.361,0,0,0-.722,0v6.551a.673.673,0,0,0-.284.367l-.049.15-1-2.475a.361.361,0,0,0-.67.27l1.32,3.274-.016.048-4.818-4.818a.361.361,0,1,0-.511.511l4.439,4.439h-.505l-2.394-1.018a.361.361,0,1,0-.283.665l1.913.814,0,.008a.667.667,0,0,0,.093.605H18a1.086,1.086,0,1,0,0,.722h6.545l.116.084-3.09,1.246a.361.361,0,1,0,.27.67l2.942-1.186-.126.388L20.35,47.988a.361.361,0,0,0,.511.511l3.728-3.728a.7.7,0,0,0,.158.159.679.679,0,0,0,.343.129l-.808,1.9a.361.361,0,0,0,.665.283L26.1,44.523l.271-.2v7.54a.361.361,0,1,0,.722,0v-7.54l.2.145,1.13,2.8A.361.361,0,0,0,29.1,47l-.784-1.943a.674.674,0,0,0,.41-.131.7.7,0,0,0,.158-.159L32.61,48.5a.361.361,0,0,0,.511-.511l-4.311-4.311-.109-.335,2.88,1.225a.361.361,0,0,0,.283-.665l-3.094-1.316.153-.111h6.545a1.094,1.094,0,0,0,.083.181h0a1.084,1.084,0,1,0,.4-1.48ZM17.163,42.427a.361.361,0,1,1,.132-.493A.361.361,0,0,1,17.163,42.427Zm10.9-.221a.676.676,0,0,0-.246.758l.423,1.3-1.107-.8a.676.676,0,0,0-.8,0l-1.107.8.423-1.3a.676.676,0,0,0-.246-.758L24.3,41.4h1.368a.676.676,0,0,0,.645-.468l.423-1.3.326,1v0l.1.3a.676.676,0,0,0,.645.468h1.368Zm8.6.221a.362.362,0,0,1-.493-.132h0a.361.361,0,1,1,.493.132Z" transform="translate(0 -1.549)" fill="#0e34c4"/>
    </g>
  </g>
</svg>
