<svg xmlns="http://www.w3.org/2000/svg" width="23.922" height="23.922" viewBox="0 0 23.922 23.922">
  <g id="Group_5736" data-name="Group 5736" transform="translate(-373 -5071.078)">
    <g id="network" transform="translate(373 5071.078)">
      <g id="Group_5253" data-name="Group 5253" transform="translate(20.732 4.784)">
        <g id="Group_5252" data-name="Group 5252">
          <path id="Path_8504" data-name="Path 8504" d="M445.329,102.4a1.595,1.595,0,1,0,1.595,1.595A1.6,1.6,0,0,0,445.329,102.4Zm0,2.392a.8.8,0,1,1,.8-.8A.8.8,0,0,1,445.329,104.792Z" transform="translate(-443.734 -102.4)" fill="#0e34c4"/>
        </g>
      </g>
      <g id="Group_5255" data-name="Group 5255" transform="translate(0 17.941)">
        <g id="Group_5254" data-name="Group 5254">
          <path id="Path_8505" data-name="Path 8505" d="M1.595,384a1.595,1.595,0,1,0,1.595,1.595A1.6,1.6,0,0,0,1.595,384Zm0,2.392a.8.8,0,1,1,.8-.8A.8.8,0,0,1,1.595,386.392Z" transform="translate(0 -384)" fill="#0e34c4"/>
        </g>
      </g>
      <g id="Group_5257" data-name="Group 5257" transform="translate(17.543 3.588)">
        <g id="Group_5256" data-name="Group 5256">
          <path id="Path_8506" data-name="Path 8506" d="M379.474,78.492l-3.44-1.661a.4.4,0,1,0-.346.718l3.44,1.661a.4.4,0,0,0,.346-.718Z" transform="translate(-375.463 -76.792)" fill="#0e34c4"/>
        </g>
      </g>
      <g id="Group_5259" data-name="Group 5259" transform="translate(16.347 20.732)">
        <g id="Group_5258" data-name="Group 5258">
          <path id="Path_8507" data-name="Path 8507" d="M351.462,443.733a1.595,1.595,0,1,0,1.595,1.595A1.6,1.6,0,0,0,351.462,443.733Zm0,2.392a.8.8,0,1,1,.8-.8A.8.8,0,0,1,351.462,446.125Z" transform="translate(-349.867 -443.733)" fill="#0e34c4"/>
        </g>
      </g>
      <g id="Group_5261" data-name="Group 5261" transform="translate(13.157 19.536)">
        <g id="Group_5260" data-name="Group 5260">
          <path id="Path_8508" data-name="Path 8508" d="M285.607,419.825l-3.44-1.661a.4.4,0,1,0-.346.718l3.44,1.661a.4.4,0,0,0,.532-.186A.4.4,0,0,0,285.607,419.825Z" transform="translate(-281.596 -418.124)" fill="#0e34c4"/>
        </g>
      </g>
      <g id="Group_5263" data-name="Group 5263" transform="translate(10.366 10.765)">
        <g id="Group_5262" data-name="Group 5262">
          <path id="Path_8509" data-name="Path 8509" d="M223.462,230.4a1.595,1.595,0,1,0,1.595,1.595A1.6,1.6,0,0,0,223.462,230.4Zm0,2.392a.8.8,0,1,1,.8-.8A.8.8,0,0,1,223.462,232.792Z" transform="translate(-221.867 -230.4)" fill="#0e34c4"/>
        </g>
      </g>
      <g id="Group_5265" data-name="Group 5265" transform="translate(7.974 9.17)">
        <g id="Group_5264" data-name="Group 5264">
          <path id="Path_8510" data-name="Path 8510" d="M173.951,198.415l-2.642-2.059a.4.4,0,0,0-.49.629l2.642,2.059a.4.4,0,1,0,.49-.629Z" transform="translate(-170.664 -196.272)" fill="#0e34c4"/>
        </g>
      </g>
      <g id="Group_5267" data-name="Group 5267" transform="translate(14.752 10.366)">
        <g id="Group_5266" data-name="Group 5266">
          <path id="Path_8511" data-name="Path 8511" d="M320.119,221.867a4.386,4.386,0,1,0,4.386,4.386A4.391,4.391,0,0,0,320.119,221.867Zm0,7.974a3.588,3.588,0,1,1,3.588-3.588A3.592,3.592,0,0,1,320.119,229.841Z" transform="translate(-315.733 -221.867)" fill="#0e34c4"/>
        </g>
      </g>
      <g id="Group_5269" data-name="Group 5269" transform="translate(17.543 11.961)">
        <g id="Group_5268" data-name="Group 5268">
          <path id="Path_8512" data-name="Path 8512" d="M377.062,256a1.595,1.595,0,1,0,1.595,1.595A1.6,1.6,0,0,0,377.062,256Zm0,2.392a.8.8,0,1,1,.8-.8A.8.8,0,0,1,377.062,258.392Z" transform="translate(-375.467 -256)" fill="#0e34c4"/>
        </g>
      </g>
      <g id="Group_5271" data-name="Group 5271" transform="translate(16.745 15.948)">
        <g id="Group_5270" data-name="Group 5270">
          <path id="Path_8513" data-name="Path 8513" d="M361.949,341.333h-2.313a1.221,1.221,0,0,0-1.236,1.2v1.051a.4.4,0,0,0,.2.345,4.363,4.363,0,0,0,4.386,0,.4.4,0,0,0,.2-.345v-1.051A1.221,1.221,0,0,0,361.949,341.333Zm.438,2.015a3.615,3.615,0,0,1-3.19,0v-.813a.423.423,0,0,1,.438-.405h2.313a.423.423,0,0,1,.438.405v.813Z" transform="translate(-358.4 -341.333)" fill="#0e34c4"/>
        </g>
      </g>
      <g id="Group_5273" data-name="Group 5273" transform="translate(5.183 15.151)">
        <g id="Group_5272" data-name="Group 5272">
          <path id="Path_8514" data-name="Path 8514" d="M115.319,324.267a4.386,4.386,0,1,0,4.386,4.386A4.391,4.391,0,0,0,115.319,324.267Zm0,7.974a3.588,3.588,0,1,1,3.588-3.588A3.592,3.592,0,0,1,115.319,332.241Z" transform="translate(-110.933 -324.267)" fill="#0e34c4"/>
        </g>
      </g>
      <g id="Group_5275" data-name="Group 5275" transform="translate(7.974 16.745)">
        <g id="Group_5274" data-name="Group 5274">
          <path id="Path_8515" data-name="Path 8515" d="M172.262,358.4a1.595,1.595,0,1,0,1.595,1.595A1.6,1.6,0,0,0,172.262,358.4Zm0,2.392a.8.8,0,1,1,.8-.8A.8.8,0,0,1,172.262,360.792Z" transform="translate(-170.667 -358.4)" fill="#0e34c4"/>
        </g>
      </g>
      <g id="Group_5277" data-name="Group 5277" transform="translate(7.177 20.732)">
        <g id="Group_5276" data-name="Group 5276">
          <path id="Path_8516" data-name="Path 8516" d="M157.149,443.733h-2.313a1.221,1.221,0,0,0-1.236,1.2v1.051a.4.4,0,0,0,.2.345,4.363,4.363,0,0,0,4.386,0,.4.4,0,0,0,.2-.345v-1.051A1.221,1.221,0,0,0,157.149,443.733Zm.438,2.015a3.615,3.615,0,0,1-3.19,0v-.813a.423.423,0,0,1,.438-.405h2.313a.423.423,0,0,1,.438.405v.813Z" transform="translate(-153.6 -443.733)" fill="#0e34c4"/>
        </g>
      </g>
      <g id="Group_5279" data-name="Group 5279" transform="translate(0 5.183)">
        <g id="Group_5278" data-name="Group 5278">
          <path id="Path_8517" data-name="Path 8517" d="M4.386,110.933a4.386,4.386,0,1,0,4.386,4.386A4.391,4.391,0,0,0,4.386,110.933Zm0,7.974a3.588,3.588,0,1,1,3.588-3.588A3.592,3.592,0,0,1,4.386,118.907Z" transform="translate(0 -110.933)" fill="#0e34c4"/>
        </g>
      </g>
      <g id="Group_5281" data-name="Group 5281" transform="translate(2.791 6.778)">
        <g id="Group_5280" data-name="Group 5280">
          <path id="Path_8518" data-name="Path 8518" d="M61.329,145.067a1.595,1.595,0,1,0,1.595,1.595A1.6,1.6,0,0,0,61.329,145.067Zm0,2.392a.8.8,0,1,1,.8-.8A.8.8,0,0,1,61.329,147.459Z" transform="translate(-59.734 -145.067)" fill="#0e34c4"/>
        </g>
      </g>
      <g id="Group_5283" data-name="Group 5283" transform="translate(1.994 10.765)">
        <g id="Group_5282" data-name="Group 5282">
          <path id="Path_8519" data-name="Path 8519" d="M46.216,230.4H43.9a1.221,1.221,0,0,0-1.236,1.2v1.051a.4.4,0,0,0,.2.345,4.363,4.363,0,0,0,4.386,0,.4.4,0,0,0,.2-.345V231.6A1.221,1.221,0,0,0,46.216,230.4Zm.438,2.015a3.615,3.615,0,0,1-3.19,0V231.6a.423.423,0,0,1,.438-.405h2.313a.423.423,0,0,1,.438.405v.813Z" transform="translate(-42.667 -230.4)" fill="#0e34c4"/>
        </g>
      </g>
      <g id="Group_5285" data-name="Group 5285" transform="translate(9.569)">
        <g id="Group_5284" data-name="Group 5284">
          <path id="Path_8520" data-name="Path 8520" d="M209.186,0a4.386,4.386,0,1,0,4.386,4.386A4.391,4.391,0,0,0,209.186,0Zm0,7.974a3.588,3.588,0,1,1,3.588-3.588A3.592,3.592,0,0,1,209.186,7.974Z" transform="translate(-204.8)" fill="#0e34c4"/>
        </g>
      </g>
      <g id="Group_5287" data-name="Group 5287" transform="translate(12.36 1.595)">
        <g id="Group_5286" data-name="Group 5286">
          <path id="Path_8521" data-name="Path 8521" d="M266.129,34.133a1.595,1.595,0,1,0,1.595,1.595A1.6,1.6,0,0,0,266.129,34.133Zm0,2.392a.8.8,0,1,1,.8-.8A.8.8,0,0,1,266.129,36.525Z" transform="translate(-264.534 -34.133)" fill="#0e34c4"/>
        </g>
      </g>
      <g id="Group_5289" data-name="Group 5289" transform="translate(11.562 5.582)">
        <g id="Group_5288" data-name="Group 5288">
          <path id="Path_8522" data-name="Path 8522" d="M251.016,119.467H248.7a1.221,1.221,0,0,0-1.236,1.2v1.051a.4.4,0,0,0,.2.345,4.363,4.363,0,0,0,4.386,0,.4.4,0,0,0,.2-.345v-1.051A1.221,1.221,0,0,0,251.016,119.467Zm.438,2.015a3.615,3.615,0,0,1-3.19,0v-.813a.423.423,0,0,1,.438-.405h2.313a.423.423,0,0,1,.438.405v.813Z" transform="translate(-247.467 -119.467)" fill="#0e34c4"/>
        </g>
      </g>
      <g id="Group_5291" data-name="Group 5291" transform="translate(6.806 3.987)">
        <g id="Group_5290" data-name="Group 5290">
          <path id="Path_8523" data-name="Path 8523" d="M149.136,85.473a.4.4,0,0,0-.562-.043l-2.763,2.364a.4.4,0,1,0,.518.606l2.763-2.364A.4.4,0,0,0,149.136,85.473Z" transform="translate(-145.671 -85.333)" fill="#0e34c4"/>
        </g>
      </g>
      <g id="Group_5293" data-name="Group 5293" transform="translate(15.948 7.177)">
        <g id="Group_5292" data-name="Group 5292">
          <path id="Path_8524" data-name="Path 8524" d="M344.443,156.959l-2.392-3.19a.4.4,0,0,0-.638.478l2.392,3.19a.4.4,0,0,0,.638-.478Z" transform="translate(-341.333 -153.61)" fill="#0e34c4"/>
        </g>
      </g>
      <g id="Group_5295" data-name="Group 5295" transform="translate(12.841 15.911)">
        <g id="Group_5294" data-name="Group 5294">
          <path id="Path_8525" data-name="Path 8525" d="M277.778,340.7a.4.4,0,0,0-.558-.08l-2.227,1.67a.4.4,0,0,0,.478.637l2.227-1.67A.4.4,0,0,0,277.778,340.7Z" transform="translate(-274.833 -340.54)" fill="#0e34c4"/>
        </g>
      </g>
      <g id="Group_5297" data-name="Group 5297" transform="translate(2.392 19.138)">
        <g id="Group_5296" data-name="Group 5296">
          <path id="Path_8526" data-name="Path 8526" d="M54.39,409.6H51.6a.4.4,0,0,0,0,.8H54.39a.4.4,0,0,0,0-.8Z" transform="translate(-51.2 -409.6)" fill="#0e34c4"/>
        </g>
      </g>
      <g id="Group_5299" data-name="Group 5299" transform="translate(2.791)">
        <g id="Group_5298" data-name="Group 5298">
          <path id="Path_8527" data-name="Path 8527" d="M61.328,0a1.595,1.595,0,1,0,1.595,1.595A1.6,1.6,0,0,0,61.328,0Zm0,2.392a.8.8,0,1,1,.8-.8A.8.8,0,0,1,61.328,2.392Z" transform="translate(-59.733)" fill="#0e34c4"/>
        </g>
      </g>
      <g id="Group_5301" data-name="Group 5301" transform="translate(3.987 2.392)">
        <g id="Group_5300" data-name="Group 5300">
          <path id="Path_8528" data-name="Path 8528" d="M85.733,51.2a.4.4,0,0,0-.4.4V54.39a.4.4,0,0,0,.8,0V51.6A.4.4,0,0,0,85.733,51.2Z" transform="translate(-85.334 -51.2)" fill="#0e34c4"/>
        </g>
      </g>
    </g>
  </g>
</svg>
