<svg xmlns="http://www.w3.org/2000/svg" width="20" height="20" viewBox="0 0 20 20">
  <g id="Group_5740" data-name="Group 5740" transform="translate(-375 -5249)">
    <g id="businessman" transform="translate(375 5249)">
      <g id="Group_5211" data-name="Group 5211">
        <g id="Group_5210" data-name="Group 5210">
          <path id="Path_8494" data-name="Path 8494" d="M19.667,0H.333A.333.333,0,0,0,0,.333v14a.333.333,0,0,0,.333.333h1v5A.333.333,0,0,0,1.667,20H5a.333.333,0,0,0,.333-.333v-5h9.333v5A.333.333,0,0,0,15,20h3.333a.333.333,0,0,0,.333-.333v-5h1A.333.333,0,0,0,20,14.333v-14A.333.333,0,0,0,19.667,0Zm-15,10.667v8.667h-1v-5H3v5H2V10.667H1.333V14H.667V10.667a1,1,0,0,1,1-1H5a1,1,0,0,1,1,1v1A.333.333,0,0,0,6.333,12H8v.667H6.333a1,1,0,0,1-1-1v-1ZM2,7.667A1.333,1.333,0,1,1,3.333,9,1.335,1.335,0,0,1,2,7.667ZM19.333,11v3h-.667V10.667H18v8.667H17v-5h-.667v5h-1V10.667A.333.333,0,0,0,15,10.333H13a1,1,0,0,1-1-1v-2h.667v2A.333.333,0,0,0,13,9.667h5.333a1,1,0,0,1,1,1Zm-4-3.333A1.333,1.333,0,1,1,16.667,9,1.335,1.335,0,0,1,15.333,7.667Zm4,1.675a1.649,1.649,0,0,0-1-.342h-.18A2,2,0,1,0,15.18,9H13.333V7A.333.333,0,0,0,13,6.667H11.667A.333.333,0,0,0,11.333,7V9.333A1.669,1.669,0,0,0,13,11h1.667v3H5.333V12.991a1.649,1.649,0,0,0,1,.342h2A.333.333,0,0,0,8.667,13V11.667a.333.333,0,0,0-.333-.333H6.667v-.667A1.669,1.669,0,0,0,5,9H4.82A2,2,0,1,0,1.847,9h-.18a1.649,1.649,0,0,0-1,.342V2H19.333Zm0-8.009H.667V.667H19.333Z" fill="#0e34c4"/>
        </g>
      </g>
      <g id="Group_5213" data-name="Group 5213" transform="translate(2.333 2.667)">
        <g id="Group_5212" data-name="Group 5212">
          <path id="Path_8495" data-name="Path 8495" d="M70.333,64a1,1,0,0,0-1,1c0,.013,0,.026,0,.039l-1.59.636a.989.989,0,0,0-1.551.069l-1.535-.46a1,1,0,0,0-2,.05.982.982,0,0,0,.04.265l-1.794,1.256a.983.983,0,0,0-1.1-.035l-1.867-1.494A.989.989,0,0,0,58,65a1,1,0,1,0-1,1,.99.99,0,0,0,.525-.153l1.867,1.494a.989.989,0,0,0-.059.326,1,1,0,0,0,2,0,.982.982,0,0,0-.04-.265l1.794-1.256a.99.99,0,0,0,1.383-.223l1.535.46a1,1,0,0,0,2-.05c0-.013,0-.026,0-.039l1.59-.636A1,1,0,1,0,70.333,64ZM57,65.333A.333.333,0,1,1,57.333,65,.334.334,0,0,1,57,65.333ZM60.333,68a.333.333,0,1,1,.333-.333A.334.334,0,0,1,60.333,68Zm3.333-2.333A.333.333,0,1,1,64,65.333.334.334,0,0,1,63.667,65.667Zm3.333,1a.333.333,0,1,1,.333-.333A.334.334,0,0,1,67,66.667Zm3.333-1.333A.333.333,0,1,1,70.667,65,.334.334,0,0,1,70.333,65.333Z" transform="translate(-56 -64)" fill="#0e34c4"/>
        </g>
      </g>
      <g id="Group_5215" data-name="Group 5215" transform="translate(8.315 7.367)">
        <g id="Group_5214" data-name="Group 5214" transform="translate(0 0)">
          <rect id="Rectangle_1954" data-name="Rectangle 1954" width="3" height="1" transform="translate(-0.314 -0.367)" fill="#0e34c4"/>
        </g>
      </g>
      <g id="Group_5217" data-name="Group 5217" transform="translate(7.675 8.647)">
        <g id="Group_5216" data-name="Group 5216" transform="translate(0 0)">
          <rect id="Rectangle_1955" data-name="Rectangle 1955" width="3" transform="translate(0.324 0.353)" fill="#0e34c4"/>
        </g>
      </g>
      <g id="Group_5219" data-name="Group 5219" transform="translate(7.675 9.926)">
        <g id="Group_5218" data-name="Group 5218" transform="translate(0 0)">
          <rect id="Rectangle_1956" data-name="Rectangle 1956" width="3" height="1" transform="translate(0.324 0.074)" fill="#0e34c4"/>
        </g>
      </g>
      <g id="Group_5221" data-name="Group 5221" transform="translate(13.272 12.644)">
        <g id="Group_5220" data-name="Group 5220" transform="translate(0 0)">
          <rect id="Rectangle_1957" data-name="Rectangle 1957" width="1" transform="translate(-0.271 0.355)" fill="#0e34c4"/>
        </g>
      </g>
      <g id="Group_5223" data-name="Group 5223" transform="translate(11.993 12.644)">
        <g id="Group_5222" data-name="Group 5222" transform="translate(0 0)">
          <rect id="Rectangle_1958" data-name="Rectangle 1958" width="1" transform="translate(0.008 0.355)" fill="#0e34c4"/>
        </g>
      </g>
      <g id="Group_5225" data-name="Group 5225" transform="translate(10.714 12.644)">
        <g id="Group_5224" data-name="Group 5224" transform="translate(0 0)">
          <rect id="Rectangle_1959" data-name="Rectangle 1959" transform="translate(0.287 0.355)" fill="#0e34c4"/>
        </g>
      </g>
    </g>
  </g>
</svg>
