<svg xmlns="http://www.w3.org/2000/svg" width="23.975" height="23.975" viewBox="0 0 23.975 23.975">
  <g id="Group_5644" data-name="Group 5644" transform="translate(-371 -5261.025)">
    <g id="XMLID_83_" transform="translate(371 5261.025)">
      <path id="XMLID_85_" d="M23.09,20.041h-.052V10.72l.8-.8a.468.468,0,0,0,0-.662L21.849,7.274a.468.468,0,0,0-.662,0l-.4.4V.468A.468.468,0,0,0,20.322,0H14.095a.468.468,0,1,0,0,.937h5.76v7.67l-3.381,3.381H5.942a.468.468,0,0,0,0,.937h9.594l-2.06,2.06H5.942a.468.468,0,0,0,0,.937h6.6l-.712.712h0a.466.466,0,0,0-.1.142l-1.436,3.266H4.121V.936H9.88A.468.468,0,1,0,9.88,0H3.652a.468.468,0,0,0-.468.468V7.682A2.344,2.344,0,0,0,.937,10.021V20.041H.884A.886.886,0,0,0,0,20.926a3.052,3.052,0,0,0,3.049,3.049H20.926a3.052,3.052,0,0,0,3.049-3.049.886.886,0,0,0-.884-.884ZM21.518,8.267l1.324,1.324-8.7,8.7-1.324-1.324Zm.584,3.389v8.385H20.791V12.967ZM19.854,13.9v6.137H12.828l1.506-.663a.467.467,0,0,0,.143-.1Zm-7.542,3.875L13.33,18.8l-1.818.8ZM1.873,15.96V10.021a1.406,1.406,0,0,1,1.311-1.4V20.041H1.873Zm19.053,7.078H3.049a2.115,2.115,0,0,1-2.112-2.06h22.1a2.115,2.115,0,0,1-2.112,2.06Z" fill="#0e34c4"/>
      <path id="XMLID_393_" d="M117.363,192.007a.468.468,0,1,0,0,.937h3.9a.468.468,0,1,0,0-.937Z" transform="translate(-111.421 -183.016)" fill="#0e34c4"/>
      <path id="XMLID_394_" d="M124.858,128.467a.468.468,0,0,0-.468-.468h-7.027a.468.468,0,1,0,0,.937h7.027A.468.468,0,0,0,124.858,128.467Z" transform="translate(-111.421 -122.005)" fill="#0e34c4"/>
      <path id="XMLID_395_" d="M326.337,128.467a.468.468,0,0,0-.468-.468h-2.442a.468.468,0,1,0,0,.937h2.442A.468.468,0,0,0,326.337,128.467Z" transform="translate(-307.836 -122.005)" fill="#0e34c4"/>
      <path id="XMLID_396_" d="M117.363,64.94h1.786a.468.468,0,0,0,0-.937h-1.786a.468.468,0,0,0,0,.937Z" transform="translate(-111.421 -61.006)" fill="#0e34c4"/>
      <path id="XMLID_751_" d="M211.027,64.471a.468.468,0,0,0,.468.468h7.683a.468.468,0,1,0,0-.937H211.5A.468.468,0,0,0,211.027,64.471Z" transform="translate(-201.145 -61.006)" fill="#0e34c4"/>
      <path id="XMLID_752_" d="M246.468.937a.468.468,0,0,0,.468-.468.468.468,0,1,0-.8.331A.472.472,0,0,0,246.468.937Z" transform="translate(-234.481 0)" fill="#0e34c4"/>
      <path id="XMLID_765_" d="M256.74,192.944h4.344a.468.468,0,1,0,0-.937H256.74a.468.468,0,1,0,0,.937Z" transform="translate(-244.272 -183.016)" fill="#0e34c4"/>
    </g>
  </g>
</svg>
