<svg xmlns="http://www.w3.org/2000/svg" width="27" height="19" viewBox="0 0 27 19"><rect width="27" height="19" rx="2" fill="none"/><rect x="0.5" y="0.5" width="26" height="18" rx="1.5" fill="none" stroke="#0e34c4"/><path d="M7.5,11h11a.5.5,0,0,1,.5.5h0a.5.5,0,0,1-.5.5H7.5a.5.5,0,0,1-.5-.5H7A.5.5,0,0,1,7.5,11Z" fill="none"/><polygon points="7.5 11.5 18.5 11.5 18.5 11.5 7.5 11.5" fill="none" stroke="#0e34c4"/><path d="M7.5,14h11a.5.5,0,0,1,.5.5h0a.5.5,0,0,1-.5.5H7.5a.5.5,0,0,1-.5-.5H7A.5.5,0,0,1,7.5,14Z" fill="none"/><polygon points="7.5 14.5 18.5 14.5 18.5 14.5 7.5 14.5" fill="none" stroke="#0e34c4"/></svg>