<svg xmlns="http://www.w3.org/2000/svg" width="28.336" height="25.472" viewBox="0 0 28.336 25.472">
  <g id="Group_5562" data-name="Group 5562" transform="translate(-370 -5104)">
    <g id="_032-ad-1" data-name="032-ad-1" transform="translate(370 5104)">
      <g id="Group_47" data-name="Group 47">
        <g id="Group_46" data-name="Group 46">
          <path id="Path_72" data-name="Path 72" d="M24.893,17.367a.579.579,0,0,0,.579-.579V2.894a.579.579,0,0,0-.579-.579H23.156V1.158h.579a.579.579,0,1,0,0-1.158H21.419a.579.579,0,0,0,0,1.158H22V2.316H13.315V1.158h.579a.579.579,0,1,0,0-1.158H11.578a.579.579,0,0,0,0,1.158h.579V2.316H3.473V1.158h.579A.579.579,0,1,0,4.052,0H1.737a.579.579,0,1,0,0,1.158h.579V2.316H.579A.579.579,0,0,0,0,2.894V16.788a.579.579,0,0,0,.579.579H2.316v1.158H.579a.579.579,0,1,0,0,1.158H2.316v5.21a.579.579,0,0,0,1.158,0v-5.21H22v5.21a.579.579,0,0,0,1.158,0v-5.21h1.737a.579.579,0,1,0,0-1.158H23.156V17.367ZM22,18.525H3.473V17.367H22ZM1.158,16.209V3.473H24.314V16.209Z" fill="#0e34c4"/>
        </g>
      </g>
    </g>
    <path id="Path_4124" data-name="Path 4124" d="M14300.362,5375.862v5.151l4.312-2.469Z" transform="translate(-13919 -264.719)" fill="none" stroke="#0e34c4" stroke-width="1"/>
    <path id="Path_4335" data-name="Path 4335" d="M18998,5072.144h3.1v11.1h-3.568" transform="translate(-18603.271 36.125)" fill="none" stroke="#0e34c4" stroke-linejoin="round" stroke-width="1"/>
  </g>
</svg>
