<svg xmlns="http://www.w3.org/2000/svg" width="25.471" height="25.472" viewBox="0 0 25.471 25.472">
  <g id="Group_5561" data-name="Group 5561" transform="translate(-370 -5016)">
    <path id="Path_4340" data-name="Path 4340" d="M181.333,193.561v3.121a.52.52,0,0,0,1.041,0v-.52h1.04v.52a.52.52,0,0,0,1.041,0v-3.121a1.561,1.561,0,0,0-3.122,0Zm2.081,0v1.561h-1.04v-1.561a.52.52,0,1,1,1.04,0Z" transform="translate(198.35 4831.364)" fill="#0e34c4"/>
    <path id="Path_4339" data-name="Path 4339" d="M267.186,197.2h1.04a1.562,1.562,0,0,0,1.561-1.561v-2.081A1.562,1.562,0,0,0,268.227,192h-1.04a.52.52,0,0,0-.52.52v4.162A.52.52,0,0,0,267.186,197.2Zm.52-4.162h.52a.521.521,0,0,1,.52.52v2.081a.521.521,0,0,1-.52.52h-.52Z" transform="translate(117.18 4831.364)" fill="#0e34c4"/>
    <g id="_032-ad-1" data-name="032-ad-1" transform="translate(370 5016)">
      <g id="Group_47" data-name="Group 47">
        <g id="Group_46" data-name="Group 46">
          <path id="Path_72" data-name="Path 72" d="M24.893,17.367a.579.579,0,0,0,.579-.579V2.894a.579.579,0,0,0-.579-.579H23.156V1.158h.579a.579.579,0,1,0,0-1.158H21.419a.579.579,0,0,0,0,1.158H22V2.316H13.315V1.158h.579a.579.579,0,1,0,0-1.158H11.578a.579.579,0,0,0,0,1.158h.579V2.316H3.473V1.158h.579A.579.579,0,1,0,4.052,0H1.737a.579.579,0,1,0,0,1.158h.579V2.316H.579A.579.579,0,0,0,0,2.894V16.788a.579.579,0,0,0,.579.579H2.316v1.158H.579a.579.579,0,1,0,0,1.158H2.316v5.21a.579.579,0,0,0,1.158,0v-5.21H22v5.21a.579.579,0,0,0,1.158,0v-5.21h1.737a.579.579,0,1,0,0-1.158H23.156V17.367ZM22,18.525H3.473V17.367H22ZM1.158,16.209V3.473H24.314V16.209Z" fill="#0e34c4"/>
        </g>
      </g>
    </g>
  </g>
</svg>
