<svg xmlns="http://www.w3.org/2000/svg" width="20.31" height="27.242" viewBox="0 0 20.31 27.242">
  <g id="Group_5719" data-name="Group 5719" transform="translate(-374 -5069.762)">
    <g id="exam" transform="translate(308.862 5069.762)">
      <path id="Path_8614" data-name="Path 8614" d="M307.575,61.468a.4.4,0,0,0,.174-.537l-1.939-3.8a.4.4,0,0,0-.711,0l-1.939,3.8a.4.4,0,1,0,.711.363l.6-1.174h1.97l.6,1.174A.4.4,0,0,0,307.575,61.468Zm-2.7-2.146.578-1.133.578,1.133Z" transform="translate(-225.316 -53.884)" fill="#0e34c4"/>
      <path id="Path_8615" data-name="Path 8615" d="M360.365,33.123h.365v.365a.4.4,0,0,0,.8,0v-.365h.365a.4.4,0,1,0,0-.8h-.365V31.96a.4.4,0,0,0-.8,0v.365h-.365a.4.4,0,1,0,0,.8Z" transform="translate(-279.141 -29.882)" fill="#0e34c4"/>
      <path id="Path_8616" data-name="Path 8616" d="M107.006,169.49a1.147,1.147,0,0,0-1.623,0l-.413.413,0,0a1.148,1.148,0,0,0-1.623,1.623l.814.814a1.147,1.147,0,0,0,1.623,0l1.224-1.224A1.149,1.149,0,0,0,107.006,169.49Zm-.564,1.059-1.224,1.224a.349.349,0,0,1-.494,0l-.814-.814a.35.35,0,0,1,.494-.494l.285.285a.4.4,0,0,0,.564,0l.7-.7a.35.35,0,0,1,.494.494Z" transform="translate(-35.855 -160.153)" fill="#0e34c4"/>
      <path id="Path_8617" data-name="Path 8617" d="M107.006,243.844a1.147,1.147,0,0,0-1.623,0l-.413.413,0,0a1.148,1.148,0,0,0-1.623,1.623l.814.814a1.147,1.147,0,0,0,1.623,0l1.224-1.224A1.149,1.149,0,0,0,107.006,243.844Zm-.564,1.059-1.224,1.224a.349.349,0,0,1-.494,0l-.814-.814a.35.35,0,0,1,.494-.494l.285.285a.4.4,0,0,0,.564,0l.7-.7a.35.35,0,0,1,.494.494Z" transform="translate(-35.855 -230.551)" fill="#0e34c4"/>
      <path id="Path_8618" data-name="Path 8618" d="M107.006,318.2a1.147,1.147,0,0,0-1.623,0l-.413.413,0,0a1.148,1.148,0,0,0-1.623,1.623l.814.814a1.147,1.147,0,0,0,1.623,0l1.224-1.224A1.149,1.149,0,0,0,107.006,318.2Zm-.564,1.059-1.224,1.224a.349.349,0,0,1-.494,0l-.814-.814a.35.35,0,0,1,.494-.494l.285.285a.4.4,0,0,0,.564,0l.7-.7a.35.35,0,0,1,.494.494Z" transform="translate(-35.855 -300.95)" fill="#0e34c4"/>
      <path id="Path_8619" data-name="Path 8619" d="M208.785,255.184a.9.9,0,0,0-.9-.9h-6.024a.9.9,0,0,0-.9.9v.58a.9.9,0,0,0,.9.9h6.024a.9.9,0,0,0,.9-.9v-.58Zm-.8.58a.1.1,0,0,1-.1.1h-6.024a.1.1,0,0,1-.1-.1v-.58a.1.1,0,0,1,.1-.1h6.024a.1.1,0,0,1,.1.1v.58Z" transform="translate(-128.604 -240.758)" fill="#0e34c4"/>
      <path id="Path_8620" data-name="Path 8620" d="M208.785,329.539a.9.9,0,0,0-.9-.9h-6.024a.9.9,0,0,0-.9.9v.58a.9.9,0,0,0,.9.9h6.024a.9.9,0,0,0,.9-.9v-.58Zm-.8.58a.1.1,0,0,1-.1.1h-6.024a.1.1,0,0,1-.1-.1v-.58a.1.1,0,0,1,.1-.1h6.024a.1.1,0,0,1,.1.1v.58Z" transform="translate(-128.604 -311.157)" fill="#0e34c4"/>
      <path id="Path_8621" data-name="Path 8621" d="M105.383,392.553l-.413.413,0,0a1.148,1.148,0,0,0-1.623,1.623l.814.814a1.147,1.147,0,0,0,1.623,0l1.224-1.224a1.148,1.148,0,0,0-1.623-1.623Zm1.059,1.059-1.224,1.224a.349.349,0,0,1-.494,0l-.814-.814a.35.35,0,0,1,.494-.494l.285.285a.4.4,0,0,0,.564,0l.7-.7a.35.35,0,0,1,.494.494Z" transform="translate(-35.855 -371.349)" fill="#0e34c4"/>
      <path id="Path_8622" data-name="Path 8622" d="M207.889,404.572h-2.126a.4.4,0,0,0,0,.8h2.126a.9.9,0,0,0,.9-.9v-.58a.9.9,0,0,0-.9-.9h-6.024a.9.9,0,0,0-.9.9v.58a.9.9,0,0,0,.9.9H203.9a.4.4,0,0,0,0-.8h-2.036a.1.1,0,0,1-.1-.1v-.58a.1.1,0,0,1,.1-.1h6.024a.1.1,0,0,1,.1.1v.58A.1.1,0,0,1,207.889,404.572Z" transform="translate(-128.604 -381.555)" fill="#0e34c4"/>
      <path id="Path_8623" data-name="Path 8623" d="M81.8,16.033a.4.4,0,0,0,.4-.4v-6a4.972,4.972,0,1,0-5.6-7.773H69.005a.4.4,0,0,0-.282.117L65.255,5.451a.4.4,0,0,0-.117.282V26.061a1.182,1.182,0,0,0,1.181,1.181h14.7A1.182,1.182,0,0,0,82.2,26.061V17.5a.4.4,0,0,0-.8,0v8.565a.383.383,0,0,1-.383.383h-14.7a.383.383,0,0,1-.383-.383V6.132h2.287A1.182,1.182,0,0,0,69.4,4.951V2.664H76.07a4.976,4.976,0,0,0,2.519,6.91H73.261a.9.9,0,0,0-.9.9v.58a.9.9,0,0,0,.9.9h6.024a.9.9,0,0,0,.9-.9v-.58a.891.891,0,0,0-.189-.548c.159.015.32.024.483.024a5.037,5.037,0,0,0,.923-.086v5.775a.4.4,0,0,0,.4.4ZM68.606,4.951a.383.383,0,0,1-.383.383H66.5l2.106-2.106Zm10.777,6.1a.1.1,0,0,1-.1.1H73.261a.1.1,0,0,1-.1-.1v-.58a.1.1,0,0,1,.1-.1h6.024a.1.1,0,0,1,.1.1v.58Zm1.092-1.9A4.175,4.175,0,1,1,84.65,4.973,4.179,4.179,0,0,1,80.476,9.147Z" fill="#0e34c4"/>
    </g>
  </g>
</svg>
