<svg xmlns="http://www.w3.org/2000/svg" width="25.6" height="19" viewBox="0 0 25.6 19">
  <g id="Group_5724" data-name="Group 5724" transform="translate(-371 -5294)">
    <g id="group" transform="translate(371 5228)">
      <circle id="Ellipse_226" data-name="Ellipse 226" cx="0.5" cy="0.5" r="0.5" transform="translate(15 69)" fill="#0e34c4"/>
      <circle id="Ellipse_227" data-name="Ellipse 227" cx="0.5" cy="0.5" r="0.5" transform="translate(12 69)" fill="#0e34c4"/>
      <circle id="Ellipse_228" data-name="Ellipse 228" cx="0.5" cy="0.5" r="0.5" transform="translate(9 69)" fill="#0e34c4"/>
      <path id="Path_8631" data-name="Path 8631" d="M220,279a2,2,0,1,0-2,2A2,2,0,0,0,220,279Zm-2,1a1,1,0,1,1,1-1A1,1,0,0,1,218,280Z" transform="translate(-205.2 -200.45)" fill="#0e34c4"/>
      <path id="Path_8632" data-name="Path 8632" d="M186,360.5v.45a.5.5,0,0,0,.5.5h6a.5.5,0,0,0,.5-.5v-.45a3.5,3.5,0,1,0-7,0Zm3.5-2.5a2.5,2.5,0,0,1,2.5,2.45h-5A2.5,2.5,0,0,1,189.5,358Z" transform="translate(-176.7 -276.45)" fill="#0e34c4"/>
      <path id="Path_8633" data-name="Path 8633" d="M34,279a2,2,0,1,0-2,2A2,2,0,0,0,34,279Zm-2,1a1,1,0,1,1,1-1A1,1,0,0,1,32,280Z" transform="translate(-28.5 -200.45)" fill="#0e34c4"/>
      <path id="Path_8634" data-name="Path 8634" d="M.5,361.45h6a.5.5,0,0,0,.5-.5v-.45a3.5,3.5,0,1,0-7,0v.45A.5.5,0,0,0,.5,361.45Zm3-3.45A2.5,2.5,0,0,1,6,360.45H1A2.5,2.5,0,0,1,3.5,358Z" transform="translate(0 -276.45)" fill="#0e34c4"/>
      <path id="Path_8635" data-name="Path 8635" d="M406,279a2,2,0,1,0-2,2A2,2,0,0,0,406,279Zm-2,1a1,1,0,1,1,1-1A1,1,0,0,1,404,280Z" transform="translate(-381.9 -200.45)" fill="#0e34c4"/>
      <path id="Path_8636" data-name="Path 8636" d="M375.5,357a3.5,3.5,0,0,0-3.5,3.5v.45a.5.5,0,0,0,.5.5h6a.5.5,0,0,0,.5-.5v-.45A3.5,3.5,0,0,0,375.5,357Zm-2.5,3.45a2.5,2.5,0,0,1,5,0Z" transform="translate(-353.4 -276.45)" fill="#0e34c4"/>
      <path id="Path_8637" data-name="Path 8637" d="M23.6,66H15.05a.5.5,0,0,0,0,1H23.6a1,1,0,0,1,1,1v3a1,1,0,0,1-1,1H22.1a.5.5,0,0,0-.5.5v.691l-2.276-1.138A.5.5,0,0,0,19.1,72H14.3a.5.5,0,0,0-.354.146L12.8,73.293l-1.146-1.146A.5.5,0,0,0,11.3,72H6.8a.5.5,0,0,0-.224.053L4.3,73.191V72.5a.5.5,0,0,0-.5-.5H2a1,1,0,0,1-1-1V68a1,1,0,0,1,1-1h8.55a.5.5,0,0,0,0-1H2a2,2,0,0,0-2,2v3a2,2,0,0,0,2,2H3.3v1a.5.5,0,0,0,.724.447L6.918,73h4.175l1.354,1.354a.5.5,0,0,0,.707,0L14.507,73h4.475l2.894,1.447A.5.5,0,0,0,22.6,74V73h1a2,2,0,0,0,2-2V68A2,2,0,0,0,23.6,66Z" fill="#0e34c4"/>
      <circle id="Ellipse_229" data-name="Ellipse 229" cx="0.5" cy="0.5" r="0.5" transform="translate(12 66)" fill="#0e34c4"/>
    </g>
  </g>
</svg>
