<svg xmlns="http://www.w3.org/2000/svg" width="18.319" height="20.935" viewBox="0 0 18.319 20.935">
  <g id="Group_5718" data-name="Group 5718" transform="translate(-374 -5026.567)">
    <g id="index" transform="translate(372.5 5026.567)">
      <path id="Path_8605" data-name="Path 8605" d="M17.265,23.1H4.181A2.183,2.183,0,0,1,2,20.919V17.386a.436.436,0,1,1,.872,0v3.533a1.31,1.31,0,0,0,1.308,1.308H17.265a1.31,1.31,0,0,0,1.308-1.308V17.386a.436.436,0,1,1,.872,0v3.533A2.183,2.183,0,0,1,17.265,23.1Z" transform="translate(-0.064 -2.164)" fill="#0e34c4"/>
      <path id="Path_8606" data-name="Path 8606" d="M19.01,6.158a.436.436,0,0,1-.436-.436V2.181A1.31,1.31,0,0,0,17.265.872H4.181A1.31,1.31,0,0,0,2.872,2.181V5.714a.436.436,0,0,1-.872,0V2.181A2.183,2.183,0,0,1,4.181,0H17.265a2.183,2.183,0,0,1,2.181,2.181V5.722A.436.436,0,0,1,19.01,6.158Z" transform="translate(-0.064)" fill="#0e34c4"/>
      <path id="Path_8607" data-name="Path 8607" d="M1.936,14.234A.436.436,0,0,1,1.5,13.8V9.436a.436.436,0,0,1,.872,0V13.8A.436.436,0,0,1,1.936,14.234Z" transform="translate(0 -1.149)" fill="#0e34c4"/>
      <path id="Path_8608" data-name="Path 8608" d="M6.553,14.234a.435.435,0,0,1-.374-.212L4.372,11.011V13.8a.436.436,0,1,1-.872,0V9.436a.436.436,0,0,1,.81-.224l1.807,3.011V9.436a.436.436,0,0,1,.872,0V13.8a.436.436,0,0,1-.319.42A.454.454,0,0,1,6.553,14.234Z" transform="translate(-0.255 -1.149)" fill="#0e34c4"/>
      <path id="Path_8609" data-name="Path 8609" d="M10.681,14.234H8.936A.436.436,0,0,1,8.5,13.8V9.436A.436.436,0,0,1,8.936,9h1.745a1.31,1.31,0,0,1,1.308,1.308v2.617A1.31,1.31,0,0,1,10.681,14.234Zm-1.308-.872h1.308a.437.437,0,0,0,.436-.436V10.308a.437.437,0,0,0-.436-.436H9.372Z" transform="translate(-0.894 -1.149)" fill="#0e34c4"/>
      <path id="Path_8610" data-name="Path 8610" d="M16.585,12.372h-2.4a.436.436,0,1,1,0-.872h2.4a.436.436,0,1,1,0,.872Z" transform="translate(-1.564 -1.468)" fill="#0e34c4"/>
      <path id="Path_8611" data-name="Path 8611" d="M16.553,14.234H14.808A1.31,1.31,0,0,1,13.5,12.925V10.308A1.31,1.31,0,0,1,14.808,9h1.745a.436.436,0,1,1,0,.872H14.808a.437.437,0,0,0-.436.436v2.617a.437.437,0,0,0,.436.436h1.745a.436.436,0,1,1,0,.872Z" transform="translate(-1.532 -1.149)" fill="#0e34c4"/>
      <path id="Path_8612" data-name="Path 8612" d="M21.553,14.234a.436.436,0,0,1-.374-.212L18.562,9.66a.436.436,0,0,1,.748-.449l2.617,4.362a.435.435,0,0,1-.15.6A.428.428,0,0,1,21.553,14.234Z" transform="translate(-2.171 -1.149)" fill="#0e34c4"/>
      <path id="Path_8613" data-name="Path 8613" d="M18.936,14.234a.436.436,0,0,1-.374-.66l2.617-4.362a.436.436,0,0,1,.748.449L19.31,14.023A.437.437,0,0,1,18.936,14.234Z" transform="translate(-2.171 -1.149)" fill="#0e34c4"/>
    </g>
  </g>
</svg>
