<svg xmlns="http://www.w3.org/2000/svg" width="20.877" height="20.877" viewBox="0 0 20.877 20.877">
  <g id="Group_5722" data-name="Group 5722" transform="translate(-372 -5205.754)">
    <g id="question" transform="translate(372 5205.754)">
      <path id="Path_8638" data-name="Path 8638" d="M20.877,14.129a6.764,6.764,0,0,0-4.942-6.5,7.971,7.971,0,1,0-14.83,4.4L.029,15.914l3.89-1.076a7.942,7.942,0,0,0,3.706,1.1,6.75,6.75,0,0,0,9.937,4l3.285.909-.909-3.285A6.724,6.724,0,0,0,20.877,14.129ZM4.113,13.515l-2.329.644.644-2.329-.147-.23a6.746,6.746,0,1,1,2.061,2.061Zm14.98,5.578-1.728-.478-.231.15A5.527,5.527,0,0,1,8.891,15.89a7.987,7.987,0,0,0,7-7,5.527,5.527,0,0,1,2.875,8.244l-.15.231Zm0,0" fill="#0e34c4"/>
      <path id="Path_8639" data-name="Path 8639" d="M180.5,271h1.223v1.223H180.5Zm0,0" transform="translate(-173.14 -259.95)" fill="#0e34c4"/>
      <path id="Path_8640" data-name="Path 8640" d="M139.17,92.447a1.211,1.211,0,0,1-.4.9l-1.437,1.315v1.493h1.223V95.2l1.039-.951a2.446,2.446,0,1,0-4.1-1.805h1.223a1.223,1.223,0,0,1,2.447,0Zm0,0" transform="translate(-129.975 -86.33)" fill="#0e34c4"/>
    </g>
  </g>
</svg>
