<svg xmlns="http://www.w3.org/2000/svg" width="22.758" height="22.758" viewBox="0 0 22.758 22.758">
  <g id="Group_5720" data-name="Group 5720" transform="translate(-371 -5112.895)">
    <g id="interview" transform="translate(371 5112.895)">
      <g id="Group_5392" data-name="Group 5392" transform="translate(2.03 21.869)">
        <g id="Group_5391" data-name="Group 5391">
          <path id="Path_8624" data-name="Path 8624" d="M46.429,492.13a.444.444,0,1,0,.13.314A.448.448,0,0,0,46.429,492.13Z" transform="translate(-45.67 -492)" fill="#0e34c4"/>
        </g>
      </g>
      <g id="Group_5394" data-name="Group 5394" transform="translate(15.824 18.728)">
        <g id="Group_5393" data-name="Group 5393">
          <path id="Path_8625" data-name="Path 8625" d="M356.759,421.46a.444.444,0,1,0,.13.314A.447.447,0,0,0,356.759,421.46Z" transform="translate(-356 -421.33)" fill="#0e34c4"/>
        </g>
      </g>
      <g id="Group_5396" data-name="Group 5396" transform="translate(0 3.645)">
        <g id="Group_5395" data-name="Group 5395">
          <path id="Path_8626" data-name="Path 8626" d="M21.324,85.539a1.861,1.861,0,0,0,.545-1.317v-.356a1.867,1.867,0,1,0-3.734,0v.356a1.861,1.861,0,0,0,.545,1.317,2.763,2.763,0,0,0-1.4,1.973H15.246a1.333,1.333,0,0,0-1.257,1.778H8.769a1.333,1.333,0,0,0-1.257-1.778H5.476a2.763,2.763,0,0,0-1.4-1.973,1.861,1.861,0,0,0,.545-1.317v-.356a1.867,1.867,0,0,0-3.734,0v.356a1.861,1.861,0,0,0,.545,1.317A2.758,2.758,0,0,0,0,87.956v4.986a2.529,2.529,0,0,0,2.526,2.526H6.045v4.245a1.393,1.393,0,0,0,.1.511H4.386a.444.444,0,0,0,0,.889h15.9a.444.444,0,1,0,0-.889H16.616a1.393,1.393,0,0,0,.1-.511V99.2a.444.444,0,0,0-.889,0v.511a.511.511,0,0,1-1.022,0V94.1a1.257,1.257,0,0,1,1.256-1.256h5.812v.1a1.639,1.639,0,0,1-1.637,1.637H16.268a.445.445,0,0,0-.444.444v.711a.444.444,0,0,0,.889,0v-.267h3.519a2.529,2.529,0,0,0,2.526-2.526V87.956A2.758,2.758,0,0,0,21.324,85.539Zm-2.3-1.672a.978.978,0,1,1,1.956,0v.356a.978.978,0,1,1-1.956,0Zm-17.246,0a.978.978,0,0,1,1.956,0v.356a.978.978,0,0,1-1.956,0ZM.889,87.956a1.867,1.867,0,0,1,3.734,0,.445.445,0,0,0,.444.444H7.512a.444.444,0,0,1,0,.889H4.923a1.911,1.911,0,0,1-1.687-1.01.444.444,0,0,0-.784.42,2.8,2.8,0,0,0,2.195,1.466.444.444,0,0,0-.025.147v1.645H.889Zm5.484,4H5.512V90.312a.444.444,0,0,0-.02-.133h.882a1.771,1.771,0,0,0,0,1.778Zm1.583,7.756a.511.511,0,1,1-1.022,0V95.024a.445.445,0,0,0-.444-.444H2.526A1.639,1.639,0,0,1,.889,92.942v-.1H6.7A1.257,1.257,0,0,1,7.956,94.1Zm2.089.511h-1.3a1.392,1.392,0,0,0,.1-.511V94.1a2.132,2.132,0,0,0-.408-1.256h1.608Zm1.778,0h-.889V92.846h.889Zm2.186,0h-1.3V92.846H14.32a2.133,2.133,0,0,0-.408,1.256v5.612A1.393,1.393,0,0,0,14.01,100.224Zm.836-8.267H7.912a.889.889,0,0,1,0-1.778h6.934a.889.889,0,0,1,0,1.778Zm2.4-1.645v1.645h-.862a1.771,1.771,0,0,0,0-1.778h.882A.444.444,0,0,0,17.246,90.312Zm4.623,1.645H18.135V90.312a.444.444,0,0,0-.025-.147A2.8,2.8,0,0,0,20.3,88.7a.444.444,0,0,0-.784-.42,1.911,1.911,0,0,1-1.687,1.01H15.246a.444.444,0,1,1,0-.889h2.445a.445.445,0,0,0,.444-.444,1.867,1.867,0,1,1,3.734,0Z" transform="translate(0 -82)" fill="#0e34c4"/>
        </g>
      </g>
      <g id="Group_5398" data-name="Group 5398" transform="translate(6.845)">
        <g id="Group_5397" data-name="Group 5397">
          <path id="Path_8627" data-name="Path 8627" d="M161.734,0h-6.4A1.335,1.335,0,0,0,154,1.333V5.689a1.335,1.335,0,0,0,1.333,1.333h1.549l1.337,1.337a.445.445,0,0,0,.629,0l1.337-1.337h1.549a1.335,1.335,0,0,0,1.333-1.333V1.333A1.335,1.335,0,0,0,161.734,0Zm.444,5.689a.445.445,0,0,1-.444.444H160a.445.445,0,0,0-.314.13l-1.153,1.152-1.152-1.153a.445.445,0,0,0-.314-.13h-1.734a.445.445,0,0,1-.444-.444V1.333a.445.445,0,0,1,.444-.444h6.4a.445.445,0,0,1,.444.444Z" transform="translate(-154)" fill="#0e34c4"/>
        </g>
      </g>
      <g id="Group_5400" data-name="Group 5400" transform="translate(8.845 2.897)">
        <g id="Group_5399" data-name="Group 5399">
          <path id="Path_8628" data-name="Path 8628" d="M199.759,65.3a.444.444,0,1,0,.13.314A.446.446,0,0,0,199.759,65.3Z" transform="translate(-199 -65.17)" fill="#0e34c4"/>
        </g>
      </g>
      <g id="Group_5402" data-name="Group 5402" transform="translate(10.934 2.897)">
        <g id="Group_5401" data-name="Group 5401">
          <path id="Path_8629" data-name="Path 8629" d="M246.759,65.3a.444.444,0,1,0,.13.314A.448.448,0,0,0,246.759,65.3Z" transform="translate(-246 -65.17)" fill="#0e34c4"/>
        </g>
      </g>
      <g id="Group_5404" data-name="Group 5404" transform="translate(13.024 2.897)">
        <g id="Group_5403" data-name="Group 5403">
          <path id="Path_8630" data-name="Path 8630" d="M293.759,65.3a.444.444,0,1,0,.13.314A.446.446,0,0,0,293.759,65.3Z" transform="translate(-293 -65.17)" fill="#0e34c4"/>
        </g>
      </g>
    </g>
  </g>
</svg>
