<svg xmlns="http://www.w3.org/2000/svg" width="25.6" height="18.786" viewBox="0 0 25.6 18.786">
  <g id="Group_5723" data-name="Group 5723" transform="translate(-371 -5249.939)">
    <g id="interview_1_" data-name="interview (1)" transform="translate(371 5181.801)">
      <g id="Group_5406" data-name="Group 5406" transform="translate(17.234 70.543)">
        <g id="Group_5405" data-name="Group 5405">
          <path id="Path_8647" data-name="Path 8647" d="M347.641,116.676a7.313,7.313,0,0,0-2.573-.44.375.375,0,1,0,0,.75,6.472,6.472,0,0,1,2.237.361.375.375,0,1,0,.335-.671Z" transform="translate(-344.694 -116.236)" fill="#0e34c4"/>
        </g>
      </g>
      <g id="Group_5408" data-name="Group 5408" transform="translate(0 68.138)">
        <g id="Group_5407" data-name="Group 5407">
          <path id="Path_8648" data-name="Path 8648" d="M25.225,82.166H22.96a1.567,1.567,0,0,0,.235-.827v-3.5a1.584,1.584,0,0,0-1.144-1.517L20.7,75.934a.428.428,0,0,1-.309-.41v-.313a2.816,2.816,0,0,0,.358-.294,2.758,2.758,0,0,0,.844-2v-.713l.15-.3a2.391,2.391,0,0,0,.251-1.064V68.914a.375.375,0,0,0-.375-.375H18.01a2.382,2.382,0,0,0-2.379,2.379v.022a1.988,1.988,0,0,0,.209.885l.192.384v.612a2.925,2.925,0,0,0,1.2,2.365v.338a.428.428,0,0,1-.309.41l-1.352.386a1.584,1.584,0,0,0-1.144,1.517v.321H14.4a.777.777,0,0,0-.776.776V82.14c0,.009,0,.017,0,.026H11.737a1.567,1.567,0,0,0,.235-.827v-3.5a1.584,1.584,0,0,0-1.144-1.517l-1.352-.386a.414.414,0,0,1-.042-.016,10.469,10.469,0,0,0,1.5-.409.769.769,0,0,0,.44-.4.761.761,0,0,0,.028-.587,14.689,14.689,0,0,1-.633-3.2,3.278,3.278,0,0,0-3.18-3.189,3.278,3.278,0,0,0-3.18,3.189,14.692,14.692,0,0,1-.633,3.2.761.761,0,0,0,.028.587.769.769,0,0,0,.44.4,10.474,10.474,0,0,0,1.5.409.434.434,0,0,1-.043.015L4.35,76.32a1.584,1.584,0,0,0-1.144,1.517v3.5a1.568,1.568,0,0,0,.235.827H.375a.375.375,0,0,0,0,.75H.8v3.633a.375.375,0,0,0,.75,0v-2.03H4.81v2.03a.375.375,0,0,0,.75,0V85.321h4.06v1.228a.375.375,0,0,0,.75,0v-2.03H24.048v2.03a.375.375,0,0,0,.75,0V82.916h.427a.375.375,0,1,0,0-.75Zm-8.443-9.345v-.7a.375.375,0,0,0-.04-.168l-.231-.463a1.234,1.234,0,0,1-.13-.549v-.022a1.631,1.631,0,0,1,1.629-1.629h3.232v1.557a1.638,1.638,0,0,1-.172.729l-.189.378a.375.375,0,0,0-.04.168v.8a2.03,2.03,0,0,1-2.093,2.029A2.1,2.1,0,0,1,16.782,72.821ZM19.7,75.908l-.308.308a.827.827,0,0,1-1.17,0l-.308-.308a1.168,1.168,0,0,0,.063-.339,2.63,2.63,0,0,0,.744.132h.086a2.785,2.785,0,0,0,.828-.126A1.164,1.164,0,0,0,19.7,75.908Zm-4.526,1.929h0a.831.831,0,0,1,.6-.8l1.352-.386a1.165,1.165,0,0,0,.324-.15l.241.241a1.577,1.577,0,0,0,2.231,0l.241-.241a1.163,1.163,0,0,0,.324.15l1.352.386a.831.831,0,0,1,.6.8v3.5a.828.828,0,0,1-.827.827h-1.63c0-.009,0-.017,0-.026v-.827h1.228a.375.375,0,0,0,.375-.375v-2.4a.375.375,0,0,0-.75,0v2.03h-.853V78.934a.777.777,0,0,0-.776-.776H15.179Zm-.8,1.1a.026.026,0,0,1,.026-.026h4.81a.026.026,0,0,1,.026.026V82.14a.026.026,0,0,1-.026.026H14.4a.026.026,0,0,1-.026-.026ZM4.5,74.8a.024.024,0,0,1-.014-.013.014.014,0,0,1,0-.012,15.6,15.6,0,0,0,.676-3.4,2.84,2.84,0,0,1,.759-1.773,2.306,2.306,0,0,1,3.344,0,2.84,2.84,0,0,1,.759,1.773,15.607,15.607,0,0,0,.676,3.4.014.014,0,0,1,0,.012.024.024,0,0,1-.014.013,9.491,9.491,0,0,1-3.092.549A9.491,9.491,0,0,1,4.5,74.8Zm.312,8.966H1.552v-.853H4.81Zm.75.8V79.335a.427.427,0,0,1,.427-.427H9.193a.427.427,0,0,1,.427.427v5.236Zm3.633-6.413H5.986A1.178,1.178,0,0,0,4.81,79.335v2.831H4.784a.828.828,0,0,1-.827-.827v-3.5a.831.831,0,0,1,.6-.8l1.352-.386a1.17,1.17,0,0,0,.729-.6,9.006,9.006,0,0,0,1.906,0,1.18,1.18,0,0,0,.727.6l1.352.386a.831.831,0,0,1,.6.8v3.5a.828.828,0,0,1-.827.827h-.026V79.335A1.178,1.178,0,0,0,9.193,78.158Zm1.177,5.611v-.853H24.048v.853Z" transform="translate(0 -68.138)" fill="#0e34c4"/>
        </g>
      </g>
      <g id="Group_5410" data-name="Group 5410" transform="translate(16.425 80.156)">
        <g id="Group_5409" data-name="Group 5409">
          <circle id="Ellipse_230" data-name="Ellipse 230" cx="0.375" cy="0.375" r="0.375" fill="#0e34c4"/>
        </g>
      </g>
    </g>
  </g>
</svg>
