<svg xmlns="http://www.w3.org/2000/svg" width="14.89" height="28.285" viewBox="0 0 14.89 28.285">
  <g id="Group_5721" data-name="Group 5721" transform="translate(-376 -5159.914)">
    <g id="phone" transform="translate(254.764 5159.914)">
      <path id="Path_8641" data-name="Path 8641" d="M134.051,0H123.313a2.078,2.078,0,0,0-2.076,2.076V7.119a.415.415,0,1,0,.83,0V2.076A1.247,1.247,0,0,1,123.313.83h1.532l.178.611a1.53,1.53,0,0,0,1.461,1.1h4.4a1.53,1.53,0,0,0,1.461-1.1l.178-.61h1.532A1.247,1.247,0,0,1,135.3,2.076V19.8a.415.415,0,1,0,.83,0V2.076A2.078,2.078,0,0,0,134.051,0Zm-2.507,1.208a.7.7,0,0,1-.664.5h-4.4a.7.7,0,0,1-.664-.5l-.11-.378h5.945Z" transform="translate(-0.001)" fill="#0e34c4"/>
      <path id="Path_8642" data-name="Path 8642" d="M135.711,164.089a.415.415,0,0,0-.415.415v4.753a1.247,1.247,0,0,1-1.245,1.245H123.312a1.247,1.247,0,0,1-1.245-1.245v-17.43a.415.415,0,0,0-.83,0v17.43a2.078,2.078,0,0,0,2.076,2.076H134.05a2.078,2.078,0,0,0,2.076-2.076V164.5a.415.415,0,0,0-.415-.415Z" transform="translate(0 -143.047)" fill="#0e34c4"/>
      <path id="Path_8643" data-name="Path 8643" d="M211.522,458.155a.415.415,0,1,0,0-.83h-4.643a.415.415,0,0,0,0,.83Z" transform="translate(-80.52 -432.06)" fill="#0e34c4"/>
      <path id="Path_8644" data-name="Path 8644" d="M175.283,315.824a1.811,1.811,0,1,1,1.811-1.811A1.813,1.813,0,0,1,175.283,315.824Zm0-2.793a.982.982,0,1,0,.982.982A.983.983,0,0,0,175.283,313.032Z" transform="translate(-49.35 -294.955)" fill="#0e34c4"/>
      <path id="Path_8645" data-name="Path 8645" d="M282.054,315.824a1.811,1.811,0,1,1,1.811-1.811A1.813,1.813,0,0,1,282.054,315.824Zm0-2.793a.982.982,0,1,0,.982.982A.983.983,0,0,0,282.054,313.032Z" transform="translate(-150.223 -294.955)" fill="#0e34c4"/>
      <path id="Path_8646" data-name="Path 8646" d="M195.914,139.54q-.109,0-.224-.006a5.054,5.054,0,0,1-1.612-.318.414.414,0,0,1,.3-.772,4.222,4.222,0,0,0,1.357.262,2.306,2.306,0,0,0,1.676-.5.06.06,0,0,0,0-.092l-.911-.751a.061.061,0,0,0-.086.008l-.3.359a.414.414,0,0,1-.244.144,3.826,3.826,0,0,1-3.568-3.568.414.414,0,0,1,.144-.244l.359-.3a.061.061,0,0,0,.008-.086l-.751-.911a.06.06,0,0,0-.092,0,2.306,2.306,0,0,0-.5,1.676,4,4,0,0,0,1.341,2.924c.1.1.2.2.3.283a.414.414,0,1,1-.546.623c-.122-.107-.249-.225-.367-.345a4.854,4.854,0,0,1-1.559-3.439,3.117,3.117,0,0,1,.7-2.258.884.884,0,0,1,.675-.312h.007a.889.889,0,0,1,.681.324l.751.911a.891.891,0,0,1-.12,1.253l-.216.178a3.311,3.311,0,0,0,2.476,2.476l.178-.215a.891.891,0,0,1,1.253-.12l.911.751a.889.889,0,0,1,.012,1.363A3.064,3.064,0,0,1,195.914,139.54Z" transform="translate(-65.567 -124.628)" fill="#0e34c4"/>
    </g>
  </g>
</svg>
