<svg xmlns="http://www.w3.org/2000/svg" width="28.045" height="16.542" viewBox="0 0 28.045 16.542">
  <g id="Group_5585" data-name="Group 5585" transform="translate(-369 -5289.458)">
    <g id="gym" transform="translate(369 5184.458)">
      <path id="Path_8418" data-name="Path 8418" d="M27.086,110.669H26.4V107.9a1.179,1.179,0,0,0-1.178-1.178H23.471a1.172,1.172,0,0,0-.356.055v-.165A1.618,1.618,0,0,0,21.5,105H19.308a1.618,1.618,0,0,0-1.616,1.616v4.836h-7.34v-4.836A1.618,1.618,0,0,0,8.737,105H6.546a1.618,1.618,0,0,0-1.616,1.616v.165a1.172,1.172,0,0,0-.356-.055H2.821A1.179,1.179,0,0,0,1.643,107.9v.531a.411.411,0,0,0,.822,0V107.9a.356.356,0,0,1,.356-.356H4.574a.356.356,0,0,1,.356.356v10.736a.356.356,0,0,1-.356.356H2.821a.356.356,0,0,1-.356-.356v-8.447a.411.411,0,0,0-.822,0v.478H.959a.96.96,0,0,0-.959.959v3.287a.96.96,0,0,0,.959.959h.685v2.766a1.179,1.179,0,0,0,1.178,1.178H4.574a1.172,1.172,0,0,0,.356-.055v.165a1.618,1.618,0,0,0,1.616,1.616H8.737a1.618,1.618,0,0,0,1.616-1.616V115.09h.6a.411.411,0,0,0,0-.822h-.6v-1.995h7.34v1.995H12.731a.411.411,0,0,0,0,.822h4.961v4.836a1.618,1.618,0,0,0,1.616,1.616H21.5a1.618,1.618,0,0,0,1.616-1.616v-.165a1.172,1.172,0,0,0,.356.055h1.753a1.179,1.179,0,0,0,1.178-1.178v-.555a.411.411,0,0,0-.822,0v.555a.356.356,0,0,1-.356.356H23.471a.356.356,0,0,1-.356-.356V107.9a.356.356,0,0,1,.356-.356h1.753a.356.356,0,0,1,.356.356v8.408a.411.411,0,0,0,.822,0v-.438h.685a.96.96,0,0,0,.959-.959v-3.287A.96.96,0,0,0,27.086,110.669ZM.959,115.051a.137.137,0,0,1-.137-.137v-3.287a.137.137,0,0,1,.137-.137h.685v3.56Zm8.572,4.875a.8.8,0,0,1-.794.794H6.546a.8.8,0,0,1-.794-.794v-13.31a.8.8,0,0,1,.794-.794H8.737a.8.8,0,0,1,.794.794Zm12.763,0a.8.8,0,0,1-.794.794H19.308a.8.8,0,0,1-.794-.794v-13.31a.8.8,0,0,1,.794-.794H21.5a.8.8,0,0,1,.794.794Zm4.93-5.012a.137.137,0,0,1-.137.137H26.4v-3.56h.685a.137.137,0,0,1,.137.137Z" fill="#0e34c4"/>
    </g>
  </g>
</svg>
