<svg xmlns="http://www.w3.org/2000/svg" width="18" height="27.08" viewBox="0 0 18 27.08">
  <g id="Group_5586" data-name="Group 5586" transform="translate(-373 -5328.471)">
    <g id="poster" transform="translate(293.891 5328.471)">
      <g id="Group_2806" data-name="Group 2806" transform="translate(79.11)">
        <g id="Group_2805" data-name="Group 2805" transform="translate(0)">
          <path id="Path_4138" data-name="Path 4138" d="M97.1,26.566V3.928a.48.48,0,0,0-.51-.54h-.989v-.45a.87.87,0,0,0-.72-.75H93.507V.6a.6.6,0,1,0-1.2,0V2.189H90.928a.87.87,0,0,0-.72.75v.45h-4.2v-.45a.87.87,0,0,0-.72-.75H83.912V.6a.6.6,0,1,0-1.2,0V2.189H81.333a.87.87,0,0,0-.72.75v.45h-.989a.48.48,0,0,0-.51.54V26.566a.45.45,0,0,0,.51.51H96.595a.45.45,0,0,0,.51-.51Zm-5.7-23.177h3v.9h-3Zm-9.595,0h3v.9h-3ZM95.905,25.876H80.314V4.588h.3V4.8a.81.81,0,0,0,.72.69h3.958a.81.81,0,0,0,.72-.69v-.21h4.2V4.8a.81.81,0,0,0,.72.69h3.958a.81.81,0,0,0,.72-.69v-.21h.3Z" transform="translate(-79.11)" fill="#0e34c4"/>
          <path id="Path_4139" data-name="Path 4139" d="M122.945,105.012H109.572a.6.6,0,0,0-.6.6v10.644a.6.6,0,0,0,.6.6h13.373a.6.6,0,0,0,.6-.6V105.612A.6.6,0,0,0,122.945,105.012Zm-.6,10.644H110.171v-9.445h12.173v9.445Z" transform="translate(-107.258 -98.985)" fill="#0e34c4"/>
          <path id="Path_4140" data-name="Path 4140" d="M109.572,328.252h4.378a.6.6,0,0,0,0-1.2h-4.378a.6.6,0,1,0,0,1.2Z" transform="translate(-107.258 -308.283)" fill="#0e34c4"/>
          <path id="Path_4141" data-name="Path 4141" d="M122.945,368.849H109.572a.6.6,0,0,0,0,1.2h13.373a.6.6,0,0,0,0-1.2Z" transform="translate(-107.258 -347.68)" fill="#0e34c4"/>
          <path id="Path_4142" data-name="Path 4142" d="M122.945,410.645H109.572a.6.6,0,0,0,0,1.2h13.373a.6.6,0,0,0,0-1.2Z" transform="translate(-107.258 -387.078)" fill="#0e34c4"/>
        </g>
      </g>
    </g>
  </g>
</svg>
