<svg xmlns="http://www.w3.org/2000/svg" width="23.526" height="20.644" viewBox="0 0 23.526 20.644">
  <g id="Group_5583" data-name="Group 5583" transform="translate(-371 -5200.787)">
    <g id="product" transform="translate(371 5200.686)">
      <path id="Path_8411" data-name="Path 8411" d="M23.474,14.844A1.558,1.558,0,0,0,22.2,13.715V4.776h.779a.39.39,0,0,0,.39-.39V.491a.389.389,0,0,0-.39-.39H5.843a.389.389,0,0,0-.39.39v3.9a.39.39,0,0,0,.39.39h.779v7.79h-.39a5.016,5.016,0,0,0-2.727.8V11.4a.389.389,0,0,0-.39-.39H.39A.389.389,0,0,0,0,11.4v8.959a.39.39,0,0,0,.39.39H3.116a.39.39,0,0,0,.39-.39V18.389a5.021,5.021,0,0,0,2.727.8h6.4a5.129,5.129,0,0,0,1.312-.173l8.433-2.259A1.564,1.564,0,0,0,23.474,14.844ZM6.232.881H22.591V4H6.232ZM7.4,4.776H21.423v9.007L16.9,14.995a1.566,1.566,0,0,0-1.03-.9l-5.248-1.408a3.54,3.54,0,0,0-.905-.117H7.4ZM2.727,19.966H.779v-8.18H2.727ZM22.171,16l-8.432,2.259a4.335,4.335,0,0,1-1.112.147h-6.4a4.255,4.255,0,0,1-2.571-.857l-.156-.117V14.319l.156-.117a4.253,4.253,0,0,1,2.571-.857H9.718a2.753,2.753,0,0,1,.705.091l5.247,1.406a.786.786,0,0,1,.572.671.38.38,0,0,0,.016.047.384.384,0,0,0-.01.051.664.664,0,0,1-.026.187.779.779,0,0,1-.751.576.768.768,0,0,1-.2-.026l-3.311-.888a.39.39,0,1,0-.2.752l3.311.888a1.584,1.584,0,0,0,.405.052,1.555,1.555,0,0,0,1.5-1.144,1.4,1.4,0,0,0,.044-.239L21.764,14.5c.034-.009.071-.017.105-.023a.779.779,0,0,1,.853.573.761.761,0,0,1,.026.2A.779.779,0,0,1,22.171,16Zm0,0" fill="#0e34c4"/>
      <path id="Path_8412" data-name="Path 8412" d="M248.39,112.881h3.9a.39.39,0,1,0,0-.779h-3.9a.39.39,0,1,0,0,.779Zm0,0" transform="translate(-235.925 -106.547)" fill="#0e34c4"/>
    </g>
  </g>
</svg>
