<svg xmlns="http://www.w3.org/2000/svg" width="14.364" height="27.903" viewBox="0 0 14.364 27.903">
  <g id="Group_5584" data-name="Group 5584" transform="translate(-376 -5239.597)">
    <g id="water-dispenser" transform="translate(342.5 5234.847)">
      <path id="Path_8413" data-name="Path 8413" d="M44.626,19.7h-1.6V18.9l2.289-1.854a3.222,3.222,0,0,0,1.17-2.1h.088a.412.412,0,0,0,0-.824H46.51v-1.78h.059a.412.412,0,0,0,0-.824H46.51V9.74h.059a.412.412,0,0,0,0-.824H46.51V7.988A3.241,3.241,0,0,0,43.272,4.75h-5.18a3.241,3.241,0,0,0-3.238,3.238v.928H34.8a.412.412,0,1,0,0,.824h.059v1.78H34.8a.412.412,0,1,0,0,.824h.059v1.78H34.8a.412.412,0,1,0,0,.824h.089a3.22,3.22,0,0,0,1.17,2.1L38.342,18.9V19.7h-1.6A3.241,3.241,0,0,0,33.5,22.94v9.3a.412.412,0,0,0,.412.412h13.54a.412.412,0,0,0,.412-.412v-9.3A3.241,3.241,0,0,0,44.626,19.7ZM35.678,7.988a2.416,2.416,0,0,1,2.414-2.414h5.18a2.416,2.416,0,0,1,2.414,2.414v.928H35.678Zm0,1.752H45.686v1.78H35.678Zm0,2.6H45.686v1.78H35.678Zm.04,2.6h9.927a2.4,2.4,0,0,1-.854,1.456L42.463,18.29H38.9L36.572,16.4a2.4,2.4,0,0,1-.854-1.456Zm3.448,4.166H42.2V19.7H39.167ZM36.443,31.829V23.647a1,1,0,0,1,1-1H43.92a1,1,0,0,1,1,1v8.183Zm10.6,0h-1.3V23.647a1.827,1.827,0,0,0-1.825-1.825H37.444a1.827,1.827,0,0,0-1.825,1.825v8.183h-1.3V22.94a2.416,2.416,0,0,1,2.414-2.414h7.888A2.416,2.416,0,0,1,47.04,22.94Z" fill="#0e34c4"/>
      <path id="Path_8414" data-name="Path 8414" d="M53.262,91.879H51.849a.412.412,0,0,0-.412.412V94.44a.412.412,0,0,0,.412.412h.3v.609a.412.412,0,1,0,.824,0v-.61h.294a.412.412,0,0,0,.412-.412V92.291a.412.412,0,0,0-.412-.412Zm-1,.824h.589v1.324h-.589Z" transform="translate(-13.713 -66.613)" fill="#0e34c4"/>
      <path id="Path_8415" data-name="Path 8415" d="M68.887,91.879H67.474a.412.412,0,0,0-.412.412V94.44a.412.412,0,0,0,.412.412h.294v.609a.412.412,0,1,0,.824,0v-.61h.295a.412.412,0,0,0,.412-.412V92.291a.412.412,0,0,0-.412-.412Zm-1,.824h.589v1.324h-.589Z" transform="translate(-25.659 -66.613)" fill="#0e34c4"/>
      <path id="Path_8416" data-name="Path 8416" d="M69.147,10.75H67.756a.412.412,0,0,0,0,.824h1.391a.412.412,0,0,0,0-.824Z" transform="translate(-25.875 -4.587)" fill="#0e34c4"/>
      <path id="Path_8417" data-name="Path 8417" d="M59.03,10.75h-.618a.412.412,0,0,0,0,.824h.618a.412.412,0,1,0,0-.824Z" transform="translate(-18.731 -4.587)" fill="#0e34c4"/>
    </g>
  </g>
</svg>
