<svg xmlns="http://www.w3.org/2000/svg" width="17.277" height="26.108" viewBox="0 0 17.277 26.108">
  <g id="Group_5582" data-name="Group 5582" transform="translate(-378 -5150.893)">
    <g id="Group_5581" data-name="Group 5581">
      <g id="shower" transform="translate(296.828 5150.893)">
        <g id="Group_5093" data-name="Group 5093" transform="translate(81.172)">
          <g id="Group_5092" data-name="Group 5092" transform="translate(0)">
            <path id="Path_8410" data-name="Path 8410" d="M92.485,4.171l-.435.435-.2-.2A2.171,2.171,0,0,0,89.6,3.9L88.314,2.611H85.523v-.87H83.783V0H81.172V26.108h2.611V23.932h.87v.435a.435.435,0,0,0,.435.435h1.741a.435.435,0,0,0,.435-.435V22.627a.435.435,0,0,0-.435-.435H85.088a.435.435,0,0,0-.435.435v.435h-.87V6.092h1.741v-.87h1.56l.594.594a2.172,2.172,0,0,0,.509,2.25l.2.2-.435.435,1.921,1.921,4.531-4.531ZM82.913,25.237h-.87V.87h.87Zm2.611-2.176h.87v.87h-.87Zm-.87-17.84h-.87V2.611h.87Zm3.534-.233-.053.053-.69-.69H85.523v-.87h2.431l.87.87-.053.053ZM88.8,7.45a1.305,1.305,0,0,1,0-1.846h0l.584-.584a1.305,1.305,0,0,1,1.846,0h0l.2.2L89,7.652ZM89.184,8.7l3.3-3.3.69.69-3.3,3.3Z" transform="translate(-81.172)" fill="#0e34c4"/>
          </g>
        </g>
        <g id="Group_5095" data-name="Group 5095" transform="translate(94.788 7.09)">
          <g id="Group_5094" data-name="Group 5094" transform="translate(0)">
            <rect id="Rectangle_1918" data-name="Rectangle 1918" width="0.87" height="1.231" transform="translate(0 0.615) rotate(-45)" fill="#0e34c4"/>
          </g>
        </g>
        <g id="Group_5097" data-name="Group 5097" transform="translate(93.483 8.395)">
          <g id="Group_5096" data-name="Group 5096">
            <rect id="Rectangle_1919" data-name="Rectangle 1919" width="0.87" height="1.231" transform="translate(0 0.615) rotate(-45)" fill="#0e34c4"/>
          </g>
        </g>
        <g id="Group_5099" data-name="Group 5099" transform="translate(92.178 9.699)">
          <g id="Group_5098" data-name="Group 5098" transform="translate(0)">
            <rect id="Rectangle_1920" data-name="Rectangle 1920" width="0.87" height="1.231" transform="translate(0 0.615) rotate(-45)" fill="#0e34c4"/>
          </g>
        </g>
        <g id="Group_5101" data-name="Group 5101" transform="translate(90.872 11.006)">
          <g id="Group_5100" data-name="Group 5100">
            <rect id="Rectangle_1921" data-name="Rectangle 1921" width="0.87" height="1.231" transform="translate(0 0.615) rotate(-45)" fill="#0e34c4"/>
          </g>
        </g>
        <g id="Group_5103" data-name="Group 5103" transform="translate(93.048 11.875)">
          <g id="Group_5102" data-name="Group 5102" transform="translate(0)">
            <rect id="Rectangle_1922" data-name="Rectangle 1922" width="0.87" height="1.231" transform="translate(0 0.615) rotate(-45)" fill="#0e34c4"/>
          </g>
        </g>
        <g id="Group_5105" data-name="Group 5105" transform="translate(94.353 10.569)">
          <g id="Group_5104" data-name="Group 5104">
            <rect id="Rectangle_1923" data-name="Rectangle 1923" width="0.87" height="1.231" transform="translate(0 0.615) rotate(-45)" fill="#0e34c4"/>
          </g>
        </g>
        <g id="Group_5107" data-name="Group 5107" transform="translate(95.659 9.265)">
          <g id="Group_5106" data-name="Group 5106" transform="translate(0)">
            <rect id="Rectangle_1924" data-name="Rectangle 1924" width="0.87" height="1.231" transform="translate(0 0.615) rotate(-45)" fill="#0e34c4"/>
          </g>
        </g>
        <g id="Group_5109" data-name="Group 5109" transform="translate(96.964 7.96)">
          <g id="Group_5108" data-name="Group 5108">
            <rect id="Rectangle_1925" data-name="Rectangle 1925" width="0.87" height="1.231" transform="translate(0 0.615) rotate(-45)" fill="#0e34c4"/>
          </g>
        </g>
        <g id="Group_5111" data-name="Group 5111" transform="translate(91.742 13.181)">
          <g id="Group_5110" data-name="Group 5110" transform="translate(0)">
            <rect id="Rectangle_1926" data-name="Rectangle 1926" width="0.87" height="1.231" transform="translate(0 0.615) rotate(-45)" fill="#0e34c4"/>
          </g>
        </g>
      </g>
    </g>
  </g>
</svg>
