<svg xmlns="http://www.w3.org/2000/svg" width="22" height="22" viewBox="0 0 22 22">
  <g id="Group_5578" data-name="Group 5578" transform="translate(-585 -5271)">
    <g id="mailbox" transform="translate(585 5271)">
      <g id="Group_2936" data-name="Group 2936" transform="translate(1.1 3.667)">
        <g id="Group_2935" data-name="Group 2935">
          <path id="Path_4493" data-name="Path 4493" d="M41,85.333H30a4.4,4.4,0,0,0-4.4,4.4V96.7a.367.367,0,0,0,.367.367H45.033A.367.367,0,0,0,45.4,96.7V89.733A4.4,4.4,0,0,0,41,85.333Zm3.667,11H26.333v-6.6A3.671,3.671,0,0,1,30,86.066H41a3.671,3.671,0,0,1,3.667,3.667Z" transform="translate(-25.6 -85.333)" fill="#0e34c4"/>
        </g>
      </g>
      <g id="Group_2938" data-name="Group 2938" transform="translate(15.767 11)">
        <g id="Group_2937" data-name="Group 2937">
          <path id="Path_4494" data-name="Path 4494" d="M370.234,256a.367.367,0,0,0-.367.367V258.2H367.3a.367.367,0,1,0,0,.733h2.933a.367.367,0,0,0,.367-.367v-2.2A.367.367,0,0,0,370.234,256Z" transform="translate(-366.934 -256)" fill="#0e34c4"/>
        </g>
      </g>
      <g id="Group_2940" data-name="Group 2940" transform="translate(16.133 5.133)">
        <g id="Group_2939" data-name="Group 2939">
          <path id="Path_4495" data-name="Path 4495" d="M375.834,119.467a.367.367,0,1,0,0,.733,2.2,2.2,0,0,1,2.2,2.2v1.1a.367.367,0,0,0,.733,0v-1.1A2.937,2.937,0,0,0,375.834,119.467Z" transform="translate(-375.467 -119.467)" fill="#0e34c4"/>
        </g>
      </g>
      <g id="Group_2942" data-name="Group 2942" transform="translate(1.1 3.667)">
        <g id="Group_2941" data-name="Group 2941">
          <path id="Path_4496" data-name="Path 4496" d="M30,85.333a4.4,4.4,0,0,0-4.4,4.4V96.7a.367.367,0,0,0,.367.367h8.067A.367.367,0,0,0,34.4,96.7V89.733A4.4,4.4,0,0,0,30,85.333Zm3.667,11H26.333v-6.6a3.667,3.667,0,1,1,7.333,0Z" transform="translate(-25.6 -85.333)" fill="#0e34c4"/>
        </g>
      </g>
      <g id="Group_2944" data-name="Group 2944" transform="translate(9.167 14.667)">
        <g id="Group_2943" data-name="Group 2943">
          <path id="Path_4497" data-name="Path 4497" d="M216.633,341.333H213.7a.367.367,0,0,0-.367.367v6.6a.367.367,0,0,0,.367.367h2.933A.367.367,0,0,0,217,348.3v-6.6A.367.367,0,0,0,216.633,341.333Zm-.367,6.6h-2.2v-5.867h2.2Z" transform="translate(-213.333 -341.333)" fill="#0e34c4"/>
        </g>
      </g>
      <g id="Group_2946" data-name="Group 2946" transform="translate(0 21.267)">
        <g id="Group_2945" data-name="Group 2945">
          <path id="Path_4498" data-name="Path 4498" d="M1.833,494.933H.367a.367.367,0,0,0,0,.733H1.833a.367.367,0,0,0,0-.733Z" transform="translate(0 -494.933)" fill="#0e34c4"/>
        </g>
      </g>
      <g id="Group_2948" data-name="Group 2948" transform="translate(14.3 21.267)">
        <g id="Group_2947" data-name="Group 2947">
          <path id="Path_4499" data-name="Path 4499" d="M340.133,494.933h-6.967a.367.367,0,0,0,0,.733h6.967a.367.367,0,0,0,0-.733Z" transform="translate(-332.8 -494.933)" fill="#0e34c4"/>
        </g>
      </g>
      <g id="Group_2950" data-name="Group 2950" transform="translate(4.033 21.267)">
        <g id="Group_2949" data-name="Group 2949">
          <path id="Path_4500" data-name="Path 4500" d="M97.9,494.933H94.234a.367.367,0,0,0,0,.733H97.9a.367.367,0,0,0,0-.733Z" transform="translate(-93.867 -494.933)" fill="#0e34c4"/>
        </g>
      </g>
      <g id="Group_2952" data-name="Group 2952" transform="translate(12.467)">
        <g id="Group_2951" data-name="Group 2951">
          <path id="Path_4501" data-name="Path 4501" d="M290.5,0a.367.367,0,0,0-.367.367v5.5a.367.367,0,1,0,.733,0V.367A.367.367,0,0,0,290.5,0Z" transform="translate(-290.134)" fill="#0e34c4"/>
        </g>
      </g>
      <g id="Group_2954" data-name="Group 2954" transform="translate(12.467)">
        <g id="Group_2953" data-name="Group 2953">
          <path id="Path_4502" data-name="Path 4502" d="M293.433,0H290.5a.367.367,0,0,0-.367.367v2.2a.367.367,0,0,0,.367.367h2.933a.367.367,0,0,0,.367-.367V.367A.366.366,0,0,0,293.433,0Zm-.367,2.2h-2.2V.733h2.2Z" transform="translate(-290.133)" fill="#0e34c4"/>
        </g>
      </g>
      <g id="Group_2956" data-name="Group 2956" transform="translate(2.567 10.267)">
        <g id="Group_2955" data-name="Group 2955">
          <path id="Path_4503" data-name="Path 4503" d="M63.034,241.867H60.467V239.3a.367.367,0,1,0-.733,0v2.933a.367.367,0,0,0,.367.367h2.933a.367.367,0,0,0,0-.733Z" transform="translate(-59.734 -238.934)" fill="#0e34c4"/>
        </g>
      </g>
    </g>
  </g>
</svg>
