<svg xmlns="http://www.w3.org/2000/svg" width="19.753" height="23.971" viewBox="0 0 19.753 23.971">
  <g id="Group_5579" data-name="Group 5579" transform="translate(-587.75 -5312.076)">
    <g id="lock" transform="translate(588 5312.326)">
      <path id="Path_4504" data-name="Path 4504" d="M74.379,262.586a2.428,2.428,0,0,0-.688,4.756v1.8a.688.688,0,1,0,1.375,0v-1.8a2.428,2.428,0,0,0-.688-4.756Zm0,3.48a1.053,1.053,0,1,1,1.051-1.053A1.053,1.053,0,0,1,74.379,266.066Zm0,0" transform="translate(-68.655 -250.549)" fill="#0e34c4" stroke="#edf1ff" stroke-width="0.5"/>
      <path id="Path_4505" data-name="Path 4505" d="M17.239,5.7H11.449V4.908A2.172,2.172,0,0,0,9.28,2.738a.265.265,0,0,1-.254-.2,3.418,3.418,0,0,0-6.6,0,.265.265,0,0,1-.254.2A2.172,2.172,0,0,0,0,4.908V18.562a2.172,2.172,0,0,0,2.168,2.17.265.265,0,0,1,.254.2,3.418,3.418,0,0,0,6.6,0,.265.265,0,0,1,.254-.2,2.172,2.172,0,0,0,2.168-2.17v-8.9h5.86a1.948,1.948,0,0,0,1.945-1.946A2.017,2.017,0,0,0,17.239,5.7ZM10.073,18.562a.8.8,0,0,1-.793.795h0A1.646,1.646,0,0,0,7.7,20.58a2.042,2.042,0,0,1-3.946,0,1.646,1.646,0,0,0-1.583-1.223.8.8,0,0,1-.793-.795V4.908a.8.8,0,0,1,.793-.795A1.646,1.646,0,0,0,3.751,2.89a2.042,2.042,0,0,1,3.946,0A1.646,1.646,0,0,0,9.28,4.113a.8.8,0,0,1,.793.795V5.7H8.029a3.061,3.061,0,1,0-2.417,5.076l.11,0A3.071,3.071,0,0,0,8.087,9.658h1.986v8.9Zm7.235-10.28H7.988a1.169,1.169,0,0,0-.929.46,1.67,1.67,0,0,1-1.4.655,1.688,1.688,0,0,1-1.15-2.857,1.683,1.683,0,0,1,2.515.1,1.17,1.17,0,0,0,.906.431h9.305a.64.64,0,0,1,.639.64A.571.571,0,0,1,17.308,8.283Zm0,0" fill="#0e34c4" stroke="#edf1ff" stroke-width="0.5"/>
    </g>
  </g>
</svg>
