<svg xmlns="http://www.w3.org/2000/svg" width="33.074" height="16.537" viewBox="0 0 33.074 16.537">
  <g id="Group_5575" data-name="Group 5575" transform="translate(-365 -5152.443)">
    <g id="taxi" transform="translate(349 5016.443)">
      <path id="Path_8399" data-name="Path 8399" d="M48.631,143.177l-8.078-1.616L38.418,139a2.2,2.2,0,0,0-1.694-.793H35.083l-.95-1.9a.551.551,0,0,0-.493-.3h-2.2a.551.551,0,0,0-.493.3l-.95,1.9H27.159a2.191,2.191,0,0,0-1.559.646l-2.662,2.662H20.818a2.21,2.21,0,0,0-1.914,1.111l-1.646,2.88-.953.477a.551.551,0,0,0-.3.493v1.654a.551.551,0,0,0,.161.39l2.2,2.2a.551.551,0,0,0,.39.161H20.3a3.3,3.3,0,0,0,5.725,0h14.12a3.3,3.3,0,0,0,5.725,0h2.65a.551.551,0,0,0,.551-.551v-6.615a.551.551,0,0,0-.443-.541Zm-1.762,1.984,1.1-.551v.762h-1.1Zm-9.3-5.456,1.507,1.808h-6.54v-2.2h4.187a1.1,1.1,0,0,1,.847.4Zm-5.8-2.6H33.3l.551,1.1H31.224Zm-5.4,2.528a1.1,1.1,0,0,1,.78-.323h4.276v2.2H24.5Zm-7.46,5.189h1.564l-.367.551H18.6Zm4.247,6.615a2.2,2.2,0,1,1,2.2-2.2A2.2,2.2,0,0,1,23.166,151.435Zm0-5.512a3.3,3.3,0,0,0-3.261,3.859h-.921L17.1,147.9v-1.085l.681-.341H20.41a.551.551,0,0,0,.459-.245l1.1-1.654a.551.551,0,0,0-.459-.857H19.549l.313-.547a1.105,1.105,0,0,1,.957-.556H31.435v7.166H26.427a3.3,3.3,0,0,0-3.261-3.859Zm19.845,5.512a2.2,2.2,0,1,1,2.2-2.2A2.2,2.2,0,0,1,43.011,151.435Zm3.261-1.654a3.307,3.307,0,1,0-6.521,0H32.537v-7.166H40.2l6.64,1.328-.768.384a.551.551,0,0,0-.3.493v1.1a.551.551,0,0,0,.551.551h1.654v3.307Z" fill="#0e34c4"/>
      <ellipse id="Ellipse_215" data-name="Ellipse 215" cy="1" ry="1" transform="translate(43 148.557)" fill="#0e34c4"/>
      <rect id="Rectangle_1916" data-name="Rectangle 1916" width="1" height="1" transform="translate(35 143.557)" fill="#0e34c4"/>
      <rect id="Rectangle_1917" data-name="Rectangle 1917" width="1" height="1" transform="translate(26 143.557)" fill="#0e34c4"/>
    </g>
  </g>
</svg>
