<svg xmlns="http://www.w3.org/2000/svg" width="17.781" height="22.967" viewBox="0 0 17.781 22.967">
  <g id="Group_5576" data-name="Group 5576" transform="translate(-372.974 -5191.033)">
    <g id="seat" transform="translate(364.974 5190.033)">
      <path id="Path_8401" data-name="Path 8401" d="M37.328,24.2l.556,4.036.734-.1L38.061,24.1A1.3,1.3,0,0,0,36.8,23H36v.741h.8A.548.548,0,0,1,37.328,24.2Z" transform="translate(-17.628 -13.85)" fill="#0e34c4"/>
      <path id="Path_8402" data-name="Path 8402" d="M0,0H.741V.748H0Z" transform="translate(20.369 15.128) rotate(-7.871)" fill="#0e34c4"/>
      <path id="Path_8403" data-name="Path 8403" d="M24.277,19.522a4.974,4.974,0,0,0,.716-3.327L24.1,9.743a4.989,4.989,0,0,0-2.4-3.6V4.7h.37a1.113,1.113,0,0,0,1.111-1.111V2.852A1.854,1.854,0,0,0,21.336,1h-8.89a1.854,1.854,0,0,0-1.852,1.852v.741A1.113,1.113,0,0,0,11.7,4.7h.37V6.146a4.989,4.989,0,0,0-2.4,3.6l-.89,6.452A4.973,4.973,0,0,0,9.5,19.522H8v1.111a3.338,3.338,0,0,0,3.334,3.334H22.447a3.338,3.338,0,0,0,3.334-3.334V19.522ZM11.7,16.875a2.07,2.07,0,0,1,.019-.275l.89-6.451a2.023,2.023,0,0,1,2-1.74h4.563a2.023,2.023,0,0,1,2,1.739l.89,6.451a2.071,2.071,0,0,1,.019.276c0,.011,0,.023,0,.034a3.306,3.306,0,0,0-1.48-.351H13.186a3.306,3.306,0,0,0-1.48.351C11.707,16.9,11.7,16.886,11.7,16.875Zm1.482.425h7.409a2.6,2.6,0,0,1,2.563,2.223H10.623A2.6,2.6,0,0,1,13.186,17.3ZM11.334,3.593V2.852a1.113,1.113,0,0,1,1.111-1.111h8.89a1.113,1.113,0,0,1,1.111,1.111v.741a.371.371,0,0,1-.37.37H11.7A.371.371,0,0,1,11.334,3.593ZM12.816,4.7h8.15V5.784a4.927,4.927,0,0,0-1.793-.339H14.609a4.927,4.927,0,0,0-1.793.339ZM9.521,16.3l.89-6.452a4.255,4.255,0,0,1,4.2-3.658h4.563a4.255,4.255,0,0,1,4.2,3.658l.89,6.452a4.221,4.221,0,0,1-.481,2.607,3.339,3.339,0,0,0-1.012-1.535,2.711,2.711,0,0,0,.051-.494,2.744,2.744,0,0,0-.026-.377l-.89-6.451a2.767,2.767,0,0,0-2.73-2.379H14.609a2.767,2.767,0,0,0-2.73,2.379l-.89,6.451a2.8,2.8,0,0,0-.026.377,2.736,2.736,0,0,0,.051.493A3.341,3.341,0,0,0,10,18.9a4.222,4.222,0,0,1-.48-2.607ZM25.04,20.633a2.6,2.6,0,0,1-2.593,2.593H11.334a2.6,2.6,0,0,1-2.593-2.593v-.37h16.3Z" transform="translate(0 0)" fill="#0e34c4"/>
    </g>
  </g>
</svg>
