<svg xmlns="http://www.w3.org/2000/svg" width="25.184" height="15.793" viewBox="0 0 25.184 15.793">
  <g id="Group_5574" data-name="Group 5574" transform="translate(-370.024 -5111.222)">
    <path id="Path_8400" data-name="Path 8400" d="M-10528.2-723.341c-7.008-3.89-15.868,0-15.868,0l-3.025,12.656h23.312Z" transform="translate(10918 5837)" fill="none" stroke="#0e34c4" stroke-width="1.4"/>
    <g id="Group_5090" data-name="Group 5090" transform="translate(375.575 5115.024)">
      <g id="Group_3008" data-name="Group 3008" transform="translate(0 0)">
        <path id="Path_4584" data-name="Path 4584" d="M65.987,170.736a.579.579,0,0,0-.775.258l-1.155,2.311a.578.578,0,0,0,1.034.517l1.155-2.311A.578.578,0,0,0,65.987,170.736Z" transform="translate(-63.995 -170.676)" fill="#0e34c4"/>
      </g>
    </g>
    <g id="Group_5091" data-name="Group 5091" transform="translate(376.731 5115.024)">
      <g id="Group_3010" data-name="Group 3010" transform="translate(0 0)">
        <path id="Path_4585" data-name="Path 4585" d="M88.475,170.736a.579.579,0,0,0-.775.258l-2.311,4.621a.578.578,0,0,0,1.034.517l2.311-4.621A.578.578,0,0,0,88.475,170.736Z" transform="translate(-85.328 -170.676)" fill="#0e34c4"/>
      </g>
    </g>
  </g>
</svg>
