<svg xmlns="http://www.w3.org/2000/svg" width="25.185" height="16.79" viewBox="0 0 25.185 16.79">
  <g id="Group_5573" data-name="Group 5573" transform="translate(-370 -5064.543)">
    <g id="windscreen" transform="translate(370 4979.21)">
      <g id="Group_3007" data-name="Group 3007" transform="translate(0 85.333)">
        <g id="Group_3006" data-name="Group 3006" transform="translate(0 0)">
          <path id="Path_4583" data-name="Path 4583" d="M25.055,89.71c-.157-.179-3.928-4.377-12.463-4.377S.286,89.531.129,89.71a.524.524,0,0,0-.111.483l3.148,11.543a.526.526,0,0,0,.825.279c.026-.02,2.685-1.991,8.6-1.991.591,0,1.14.024,1.666.06l-.636.99h-.238a.525.525,0,0,0,0,1.049h2.1a.525.525,0,0,0,0-1.049h-.613l.567-.883a12.8,12.8,0,0,1,5.756,1.824.53.53,0,0,0,.319.107.508.508,0,0,0,.168-.028.524.524,0,0,0,.339-.358l3.148-11.543A.524.524,0,0,0,25.055,89.71Zm-3.864,11.07a15.193,15.193,0,0,0-5.128-1.563l2.854-4.44h.953l-1,3.68a.525.525,0,0,0,.368.644.515.515,0,0,0,.138.018.524.524,0,0,0,.506-.387l2.139-7.844a.525.525,0,0,0-1.013-.276l-.849,3.114H18.631a.524.524,0,0,0-.441.241L14.9,99.087c-.716-.065-1.47-.112-2.307-.112a17.837,17.837,0,0,0-8.6,1.805L1.109,90.207c.836-.8,4.454-3.825,11.483-3.825,7,0,10.64,3.024,11.482,3.827Z" transform="translate(0 -85.333)" fill="#0e34c4"/>
        </g>
      </g>
      <g id="Group_3009" data-name="Group 3009" transform="translate(3.147 89.531)">
        <g id="Group_3008" data-name="Group 3008" transform="translate(0 0)">
          <path id="Path_4584" data-name="Path 4584" d="M65.8,170.731a.526.526,0,0,0-.7.235l-1.049,2.1a.525.525,0,0,0,.939.469l1.049-2.1A.525.525,0,0,0,65.8,170.731Z" transform="translate(-63.995 -170.676)" fill="#0e34c4"/>
        </g>
      </g>
      <g id="Group_3011" data-name="Group 3011" transform="translate(4.197 89.531)">
        <g id="Group_3010" data-name="Group 3010" transform="translate(0 0)">
          <path id="Path_4585" data-name="Path 4585" d="M88.186,170.731a.526.526,0,0,0-.7.235l-2.1,4.2a.525.525,0,0,0,.939.469l2.1-4.2A.525.525,0,0,0,88.186,170.731Z" transform="translate(-85.328 -170.676)" fill="#0e34c4"/>
        </g>
      </g>
    </g>
  </g>
</svg>
