<svg xmlns="http://www.w3.org/2000/svg" width="27.33" height="18.772" viewBox="0 0 27.33 18.772">
  <g id="Group_5568" data-name="Group 5568" transform="translate(-479 -5392.777)">
    <g id="signboard_1_" data-name="signboard (1)" transform="translate(479 5312.616)">
      <g id="Group_2881" data-name="Group 2881" transform="translate(0 80.161)">
        <g id="Group_2880" data-name="Group 2880">
          <path id="Path_4381" data-name="Path 4381" d="M27.33,81.417a1.258,1.258,0,0,0-1.256-1.256H1.256A1.258,1.258,0,0,0,0,81.417V84.84a.4.4,0,0,0,.8,0v-.455H5.563c0,.009,0,.018,0,.028a1.687,1.687,0,0,0,1.284,1.636v1.815H4.251A1.256,1.256,0,0,0,3.6,90.192a1.248,1.248,0,0,0-.175.639v6.846a1.258,1.258,0,0,0,1.256,1.256H24.362a1.258,1.258,0,0,0,1.256-1.256V90.831a1.248,1.248,0,0,0-.175-.639,1.256,1.256,0,0,0-.653-2.329H22.2V86.048a1.687,1.687,0,0,0,1.284-1.636c0-.009,0-.018,0-.028h1.048a1.68,1.68,0,0,0,2.524-2.178A1.25,1.25,0,0,0,27.33,81.417Zm-20.967,3c0-.009,0-.018,0-.028H8.129c0,.009,0,.018,0,.028a.883.883,0,0,1-.489.789.4.4,0,0,0-.789,0A.884.884,0,0,1,6.363,84.412Zm2.567-.028H20.111c0,.009,0,.018,0,.028a1.687,1.687,0,0,0,1.284,1.636v1.815H7.647V86.048a1.687,1.687,0,0,0,1.284-1.636C8.931,84.4,8.93,84.394,8.93,84.385ZM3.8,89.119a.456.456,0,0,1,.455-.455H6.846v.911H4.251A.456.456,0,0,1,3.8,89.119Zm21.022,7.3H22.651a.4.4,0,1,0,0,.8h2.167v.455a.456.456,0,0,1-.455.455H4.679a.456.456,0,0,1-.455-.455V93.8h.455a.4.4,0,0,0,0-.8H4.224v-.911H6.391a.4.4,0,0,0,0-.8H4.224v-.455a.456.456,0,0,1,.455-.455H19.228a.4.4,0,0,0,0-.8H7.647v-.911H21.395v.911h-.456a.4.4,0,1,0,0,.8h3.423a.456.456,0,0,1,.455.455v5.59Zm-.027-7.757a.455.455,0,0,1,0,.911H22.2v-.911Zm-2.6-3.462a.4.4,0,0,0-.789,0,.883.883,0,0,1-.489-.789c0-.009,0-.018,0-.028h1.764c0,.009,0,.018,0,.028A.883.883,0,0,1,22.189,85.2Zm3.457-1.19a.884.884,0,0,1-.883-.883.849.849,0,0,1,.131-.455h1.18a1.253,1.253,0,0,0,.3-.037.856.856,0,0,1,.155.492A.884.884,0,0,1,25.646,84.012Zm.428-2.139H22.651a.4.4,0,1,0,0,.8h1.377a1.647,1.647,0,0,0-.066.455,1.679,1.679,0,0,0,.063.455H.8v-1a1.249,1.249,0,0,0,.455.086H20.939a.4.4,0,1,0,0-.8H1.256a.455.455,0,0,1,0-.911H26.074a.455.455,0,1,1,0,.911Z" transform="translate(0 -80.161)" fill="#0e34c4"/>
        </g>
      </g>
      <g id="Group_2883" data-name="Group 2883" transform="translate(19.683 96.421)">
        <g id="Group_2882" data-name="Group 2882">
          <path id="Path_4382" data-name="Path 4382" d="M370,384.773h-.856a.4.4,0,1,0,0,.8H370a.4.4,0,0,0,0-.8Z" transform="translate(-368.741 -384.773)" fill="#0e34c4"/>
        </g>
      </g>
      <g id="Group_2885" data-name="Group 2885" transform="translate(8.558 91.286)">
        <g id="Group_2884" data-name="Group 2884">
          <path id="Path_4383" data-name="Path 4383" d="M161.579,288.58h-.856a.4.4,0,1,0,0,.8h.856a.4.4,0,1,0,0-.8Z" transform="translate(-160.323 -288.58)" fill="#0e34c4"/>
        </g>
      </g>
    </g>
  </g>
</svg>
