<svg xmlns="http://www.w3.org/2000/svg" width="23.236" height="26.403" viewBox="0 0 23.236 26.403">
  <g id="Group_5654" data-name="Group 5654" transform="translate(-372 -5154.597)">
    <g id="video_1_" data-name="video (1)" transform="translate(372 5154.597)">
      <path id="Path_8809" data-name="Path 8809" d="M22.721,10.658H5.127l16.9-4.9a.516.516,0,0,0,.352-.639l-.884-3.053A2.887,2.887,0,0,0,18.733,0a2.857,2.857,0,0,0-.794.113L2.072,4.709A2.877,2.877,0,0,0,.114,8.264l.864,2.983V23.533a2.873,2.873,0,0,0,2.87,2.87h6.2a.516.516,0,1,0,0-1.031h-6.2a1.841,1.841,0,0,1-1.839-1.839V16.516h20.2v7.018a1.841,1.841,0,0,1-1.839,1.839h-6.2a.516.516,0,0,0,0,1.031h6.2a2.873,2.873,0,0,0,2.87-2.87V11.174A.516.516,0,0,0,22.721,10.658Zm-9.093,4.826,2.191-3.795h2.85l-2.191,3.795Zm-4.041,0,2.191-3.795h2.85l-2.191,3.795Zm-4.041,0,2.191-3.795h2.85L8.4,15.484ZM7.463,8.808,3.794,5.284l2.749-.8a.511.511,0,0,0,.068.08L10.28,8.091l-2.749.8A.513.513,0,0,0,7.463,8.808Zm6.91-6.489,3.669,3.524-2.749.8a.5.5,0,0,0-.068-.08L11.557,3.036l2.749-.8A.511.511,0,0,0,14.374,2.319ZM10.492,3.443l3.669,3.524-2.749.8a.5.5,0,0,0-.068-.08L7.675,4.16l2.749-.8A.545.545,0,0,0,10.492,3.443ZM18.226,1.1a1.823,1.823,0,0,1,.507-.072A1.85,1.85,0,0,1,20.5,2.358l.741,2.557-2.069.6a.524.524,0,0,0-.068-.08L15.438,1.911ZM1.263,6.58a1.825,1.825,0,0,1,1.1-.88l.3-.088a.524.524,0,0,0,.068.08L6.4,9.216,1.846,10.535,1.1,7.977A1.826,1.826,0,0,1,1.263,6.58Zm.747,5.109H6.546L4.355,15.484H2.009Zm15.659,3.795,2.191-3.795h2.346v3.795Zm0,0" fill="#0e34c4" fill-rule="evenodd"/>
      <path id="Path_8810" data-name="Path 8810" d="M201.628,347.523a.516.516,0,0,0-.258-.447l-4.531-2.616a.516.516,0,0,0-.774.447v5.231a.515.515,0,0,0,.774.446l4.531-2.616A.516.516,0,0,0,201.628,347.523Zm-4.531,1.723V345.8l2.984,1.723Zm0,0" transform="translate(-185.955 -326.632)" fill="#0e34c4" fill-rule="evenodd"/>
      <path id="Path_8811" data-name="Path 8811" d="M225.289,492a.516.516,0,1,0,.516.516A.517.517,0,0,0,225.289,492Zm0,0" transform="translate(-213.182 -466.628)" fill="#0e34c4" fill-rule="evenodd"/>
    </g>
  </g>
</svg>
