<svg xmlns="http://www.w3.org/2000/svg" width="28.242" height="26.431" viewBox="0 0 28.242 26.431">
  <g id="Group_5652" data-name="Group 5652" transform="translate(-369.001 -5074.835)">
    <g id="sponsor" transform="translate(369.004 5074.815)">
      <path id="Path_8799" data-name="Path 8799" d="M170.865.02h-2.824a.471.471,0,0,0-.471.471v.941h-.464L163.9.058a.463.463,0,0,0-.183-.038h-4.951a3.3,3.3,0,0,0-2.328.966L152.6,4.812a1.859,1.859,0,0,0-.291,2.3,1.929,1.929,0,0,0,.251.3,4.181,4.181,0,0,0-.524,2.021,4.236,4.236,0,1,0,7.751-2.353h1.169c.336,1.13,1.85,1.883,3.225,1.883s2.889-.753,3.226-1.883h.161v.941a.471.471,0,0,0,.471.471h2.824a.471.471,0,0,0,.471-.471V.49a.471.471,0,0,0-.471-.471Zm-11.3,9.413a3.295,3.295,0,0,1-6.589,0,3.247,3.247,0,0,1,.586-1.87,3.283,3.283,0,0,1,2.619-1.424h.089c.059,0,.116.008.175.01a1.835,1.835,0,0,0,1.616.931h.508A3.287,3.287,0,0,1,159.569,9.433Zm7.439-3.295a.471.471,0,0,0-.471.471c0,.713-1.165,1.412-2.353,1.412s-2.353-.7-2.353-1.412a.471.471,0,0,0-.471-.471h-3.295a.941.941,0,0,1,0-1.883h5.177V3.314h-5.177A1.883,1.883,0,0,0,156.183,5.2h-.008a4.236,4.236,0,0,0-3.059,1.417c0-.005-.008-.009-.012-.014a.924.924,0,0,1,.167-1.121L157.1,1.65a2.354,2.354,0,0,1,1.662-.689h4.855l3.206,1.374a.467.467,0,0,0,.185.038h.56V6.138Zm3.386,1.412h-1.883V.961h1.883Zm0,0" transform="translate(-143.097)" fill="#0e34c4"/>
      <path id="Path_8800" data-name="Path 8800" d="M193.451,113.431h.941a.471.471,0,0,1,.471.471h.941a1.412,1.412,0,0,0-1.412-1.412v-.471h-.941v.471a1.412,1.412,0,1,0,0,2.824h.941a.471.471,0,0,1,0,.941h-.941a.471.471,0,0,1-.471-.471h-.941a1.412,1.412,0,0,0,1.412,1.412v.471h.941V117.2a1.412,1.412,0,1,0,0-2.824h-.941a.471.471,0,0,1,0-.941Zm0,0" transform="translate(-180.744 -105.411)" fill="#0e34c4"/>
      <path id="Path_8801" data-name="Path 8801" d="M23.421,271.1a1.867,1.867,0,0,0-1.439-.064L19.048,272.1a1.888,1.888,0,0,0-1.347-1l-6.4-1.13a.459.459,0,0,0-.242.021L7.988,271.12l-.161-.442a.47.47,0,0,0-.6-.282l-3.538,1.291a.471.471,0,0,0-.282.6l-3.1,1.13a.471.471,0,0,0-.282.6l2.257,6.19a.471.471,0,0,0,.442.31.462.462,0,0,0,.161-.027l3.1-1.13a.471.471,0,0,0,.6.282l3.538-1.288a.471.471,0,0,0,.282-.6l-.161-.442.287-.1,2.7.912a.476.476,0,0,0,.312,0l1.326-.483,8.4-3.059a1.883,1.883,0,0,0,.151-3.474Zm-17.763,7.38L3,279.446,1.073,274.14l2.654-.967ZM6.7,278.6,4.45,272.409l2.656-.966,2.254,6.191Zm16.243-4.91-9.575,3.483-2.7-.912a.471.471,0,0,0-.312,0l-.442.161L8.31,272l2.955-1.076,6.272,1.106a.932.932,0,0,1,.723.609,1.361,1.361,0,0,1,.04.165.861.861,0,0,1,0,.319.946.946,0,0,1-1.092.766l-5.3-.935-.163.927,5.3.934a1.839,1.839,0,0,0,2.2-1.786l3.054-1.112a.942.942,0,1,1,.644,1.77Zm0,0" transform="translate(0 -254.071)" fill="#0e34c4"/>
    </g>
  </g>
</svg>
