<svg xmlns="http://www.w3.org/2000/svg" width="20.289" height="24.347" viewBox="0 0 20.289 24.347">
  <g id="Group_5651" data-name="Group 5651" transform="translate(-374 -5027.653)">
    <g id="Outline" transform="translate(368 5025.653)">
      <g id="Group_5520" data-name="Group 5520" transform="translate(6 2)">
        <path id="Path_8802" data-name="Path 8802" d="M25.242,11.087a1.6,1.6,0,0,0,.235-.812,1.623,1.623,0,1,0-3.246,0,1.587,1.587,0,0,0,.227.812H21.241a5,5,0,0,0,.179-1.217,4.869,4.869,0,1,0-9.739,0,5,5,0,0,0,.158,1.217H7.217A1.217,1.217,0,0,0,6,12.3v10.55a1.217,1.217,0,0,0,1.217,1.217h4.922l-1.083,1.623h-1A1.217,1.217,0,0,0,8.84,26.912v.812a.406.406,0,0,0,.406.406h13.8a.406.406,0,0,0,.406-.406v-.812a1.217,1.217,0,0,0-1.217-1.217h-1L20.15,24.072h4.922a1.217,1.217,0,0,0,1.217-1.217V12.3a1.217,1.217,0,0,0-1.047-1.217Zm-2.2-.812a.812.812,0,1,1,.812.812A.812.812,0,0,1,23.043,10.275ZM16.55,5.812a4.058,4.058,0,1,1-4.058,4.058A4.058,4.058,0,0,1,16.55,5.812Zm-.982,11.768a.812.812,0,0,1-.937.657l-2.78-.491a.412.412,0,0,0-.142.812l2.78.491a1.68,1.68,0,0,0,.284.024,1.623,1.623,0,0,0,1.428-.864l.945.081a1.217,1.217,0,0,0,.929-.3l2.4-2.207a.812.812,0,0,1,1.177.085.86.86,0,0,1-.13,1.161L17.954,20.3a2.029,2.029,0,0,1-1.372.528H9.348V15.956h1.6l3.977.7a.812.812,0,0,1,.641.925ZM8.536,21.637H6.812V15.144H8.536Zm14.1,5.275v.406H9.652v-.406a.406.406,0,0,1,.406-.406H22.231A.406.406,0,0,1,22.637,26.912Zm-2.382-1.217H12.034l1.083-1.623h6.054Zm5.222-2.84a.406.406,0,0,1-.406.406H7.217a.406.406,0,0,1-.406-.406v-.406h2.13a.406.406,0,0,0,.406-.406v-.406h7.235A2.84,2.84,0,0,0,18.5,20.89l3.571-3.275a1.652,1.652,0,0,0,.207-2.272,1.587,1.587,0,0,0-1.14-.6,1.623,1.623,0,0,0-1.217.406l-2.4,2.2a.406.406,0,0,1-.312.106L16.4,17.38a1.623,1.623,0,0,0-1.339-1.558l-4-.678a.2.2,0,0,0-.069,0H9.364v-.406a.406.406,0,0,0-.406-.406H6.812V12.3a.406.406,0,0,1,.406-.406h4.914a4.869,4.869,0,0,0,8.838,0h4.1a.406.406,0,0,1,.406.406Z" transform="translate(-6 -3.783)" fill="#0e34c4"/>
        <path id="Path_8803" data-name="Path 8803" d="M11.623,11.246A1.623,1.623,0,1,0,10,9.623,1.623,1.623,0,0,0,11.623,11.246Zm0-2.435a.812.812,0,1,1-.812.812A.812.812,0,0,1,11.623,8.812Z" transform="translate(-8.377 -5.565)" fill="#0e34c4"/>
        <path id="Path_8804" data-name="Path 8804" d="M49.406,6.058a.406.406,0,0,0,.406-.406V2.406a.406.406,0,0,0-.812,0V5.652A.406.406,0,0,0,49.406,6.058Z" transform="translate(-31.551 -2)" fill="#0e34c4"/>
        <path id="Path_8805" data-name="Path 8805" d="M43.406,4.84a.406.406,0,0,0,.406-.406V2.406a.406.406,0,1,0-.812,0V4.435A.406.406,0,0,0,43.406,4.84Z" transform="translate(-27.986 -2)" fill="#0e34c4"/>
        <path id="Path_8806" data-name="Path 8806" d="M20.406,4.435a.406.406,0,0,0,.406-.406V2.406a.406.406,0,1,0-.812,0V4.029A.406.406,0,0,0,20.406,4.435Z" transform="translate(-14.319 -2)" fill="#0e34c4"/>
        <path id="Path_8807" data-name="Path 8807" d="M13.406,3.623a.406.406,0,0,0,.406-.406V2.406a.406.406,0,1,0-.812,0v.812A.406.406,0,0,0,13.406,3.623Z" transform="translate(-10.16 -2)" fill="#0e34c4"/>
        <path id="Path_8808" data-name="Path 8808" d="M29.913,13.869a.609.609,0,0,1-.609-.609.406.406,0,0,0-.812,0,1.42,1.42,0,0,0,1.014,1.355v.471a.406.406,0,1,0,.812,0v-.471a1.416,1.416,0,0,0-.406-2.776.609.609,0,1,1,.609-.609.406.406,0,1,0,.812,0,1.42,1.42,0,0,0-1.014-1.355V9.406a.406.406,0,1,0-.812,0v.471a1.416,1.416,0,0,0,.406,2.776.609.609,0,1,1,0,1.217Z" transform="translate(-19.363 -6.16)" fill="#0e34c4"/>
      </g>
    </g>
  </g>
</svg>
