<svg xmlns="http://www.w3.org/2000/svg" width="27" height="19" viewBox="0 0 27 19"><rect width="27" height="19" rx="2" fill="none"/><rect x="0.5" y="0.5" width="26" height="18" rx="1.5" fill="none" stroke="#0e34c4"/><path d="M7.5,11h11a.5.5,0,0,1,.5.5h0a.5.5,0,0,1-.5.5H7.5a.5.5,0,0,1-.5-.5H7A.5.5,0,0,1,7.5,11Z" fill="none"/><polygon points="7.5 11.5 18.5 11.5 18.5 11.5 7.5 11.5" fill="none" stroke="#0e34c4"/><path d="M7.5,14h11a.5.5,0,0,1,.5.5h0a.5.5,0,0,1-.5.5H7.5a.5.5,0,0,1-.5-.5H7A.5.5,0,0,1,7.5,14Z" fill="none"/><polygon points="7.5 14.5 18.5 14.5 18.5 14.5 7.5 14.5" fill="none" stroke="#0e34c4"/><path d="M11.31,3.89a1.6,1.6,0,0,0-1.6,1.59V8.66a.54.54,0,0,0,.51.56.53.53,0,0,0,.55-.51,0,0,0,0,0,0-.05V8.13h1.07v.53a.53.53,0,0,0,.5.56.54.54,0,0,0,.56-.51V5.48A1.59,1.59,0,0,0,11.31,3.89Zm.53,3.18H10.77V5.48a.55.55,0,0,1,.51-.56.54.54,0,0,1,.56.51V7.07Z" fill="#0e34c4"/><path d="M15.55,3.89H14.49a.53.53,0,0,0-.53.53h0V8.66a.53.53,0,0,0,.53.53h1.06A1.59,1.59,0,0,0,17.14,7.6V5.48A1.59,1.59,0,0,0,15.55,3.89Zm.53,3.71a.53.53,0,0,1-.53.53H15V5h.53a.53.53,0,0,1,.53.53h0Z" fill="#0e34c4"/></svg>